{
  "header": {
    "PPQ": 480,
    "timeSignature": [
      4,
      4
    ],
    "bpm": 100
  },
  "tracks": [
    {
      "name": "aud_mb1197",
      "notes": [
        {
          "name": "E4",
          "midi": 64,
          "time": 1.300000000000003,
          "velocity": 0.7637795275590551,
          "duration": 0.08333333333333326
        },
        {
          "name": "B4",
          "midi": 71,
          "time": 1.4000000000000028,
          "velocity": 0.84251968503937,
          "duration": 0.08333333333333326
        },
        {
          "name": "B4",
          "midi": 71,
          "time": 1.5000000000000027,
          "velocity": 0.8346456692913385,
          "duration": 0.08333333333333348
        },
        {
          "name": "C#5",
          "midi": 73,
          "time": 1.5966666666666696,
          "velocity": 0.4251968503937008,
          "duration": 0.004166666666666652
        },
        {
          "name": "B4",
          "midi": 71,
          "time": 1.600000000000003,
          "velocity": 0.8031496062992126,
          "duration": 0.1233333333333333
        },
        {
          "name": "B1",
          "midi": 35,
          "time": 1.600000000000003,
          "velocity": 0.7874015748031497,
          "duration": 0.004166666666666652
        },
        {
          "name": "D#2",
          "midi": 39,
          "time": 1.602500000000003,
          "velocity": 0.6692913385826772,
          "duration": 0.004166666666666652
        },
        {
          "name": "A4",
          "midi": 69,
          "time": 1.7000000000000028,
          "velocity": 0.8582677165354331,
          "duration": 0.08333333333333348
        },
        {
          "name": "B1",
          "midi": 35,
          "time": 1.7000000000000028,
          "velocity": 0.7874015748031497,
          "duration": 0.004166666666666652
        },
        {
          "name": "A4",
          "midi": 69,
          "time": 1.800000000000003,
          "velocity": 0.8740157480314961,
          "duration": 0.08333333333333326
        },
        {
          "name": "E4",
          "midi": 64,
          "time": 1.800000000000003,
          "velocity": 0.6535433070866141,
          "duration": 0.05999999999999983
        },
        {
          "name": "C#5",
          "midi": 73,
          "time": 1.800000000000003,
          "velocity": 0.4094488188976378,
          "duration": 0.004166666666666652
        },
        {
          "name": "D#2",
          "midi": 39,
          "time": 1.8033333333333363,
          "velocity": 0.6535433070866141,
          "duration": 0.004166666666666652
        },
        {
          "name": "A4",
          "midi": 69,
          "time": 1.9000000000000028,
          "velocity": 0.8503937007874016,
          "duration": 0.08333333333333326
        },
        {
          "name": "E4",
          "midi": 64,
          "time": 1.9975000000000027,
          "velocity": 0.7007874015748031,
          "duration": 0.06999999999999984
        },
        {
          "name": "A4",
          "midi": 69,
          "time": 1.9975000000000027,
          "velocity": 0.8188976377952756,
          "duration": 0.08916666666666684
        },
        {
          "name": "C#5",
          "midi": 73,
          "time": 1.9975000000000027,
          "velocity": 0.4251968503937008,
          "duration": 0.00416666666666643
        },
        {
          "name": "F1",
          "midi": 29,
          "time": 1.9991666666666694,
          "velocity": 0.9448818897637795,
          "duration": 0.004166666666666208
        },
        {
          "name": "A4",
          "midi": 69,
          "time": 1.9991666666666694,
          "velocity": 0.7874015748031497,
          "duration": 0.18833333333333369
        },
        {
          "name": "A4",
          "midi": 69,
          "time": 2.0000000000000027,
          "velocity": 0.8582677165354331,
          "duration": 0.2858333333333336
        },
        {
          "name": "B1",
          "midi": 35,
          "time": 2.0000000000000027,
          "velocity": 0.7874015748031497,
          "duration": 0.00416666666666643
        },
        {
          "name": "D#2",
          "midi": 39,
          "time": 2.001666666666669,
          "velocity": 0.6692913385826772,
          "duration": 0.00416666666666643
        },
        {
          "name": "G#4",
          "midi": 68,
          "time": 2.1000000000000028,
          "velocity": 0.905511811023622,
          "duration": 0.08333333333333348
        },
        {
          "name": "C#5",
          "midi": 73,
          "time": 2.19666666666667,
          "velocity": 0.4251968503937008,
          "duration": 0.00416666666666643
        },
        {
          "name": "E5",
          "midi": 76,
          "time": 2.1983333333333364,
          "velocity": 0.8110236220472441,
          "duration": 0.16916666666666647
        },
        {
          "name": "G#4",
          "midi": 68,
          "time": 2.200000000000003,
          "velocity": 0.7952755905511811,
          "duration": 0.08333333333333348
        },
        {
          "name": "D#2",
          "midi": 39,
          "time": 2.202500000000003,
          "velocity": 0.6692913385826772,
          "duration": 0.004166666666666874
        },
        {
          "name": "E5",
          "midi": 76,
          "time": 2.2033333333333363,
          "velocity": 0.7322834645669292,
          "duration": 0.16833333333333345
        },
        {
          "name": "G#4",
          "midi": 68,
          "time": 2.300000000000003,
          "velocity": 0.8031496062992126,
          "duration": 0.08333333333333348
        },
        {
          "name": "A4",
          "midi": 69,
          "time": 2.3983333333333365,
          "velocity": 0.7952755905511811,
          "duration": 0.18916666666666604
        },
        {
          "name": "G#4",
          "midi": 68,
          "time": 2.400000000000003,
          "velocity": 0.7952755905511811,
          "duration": 0.18583333333333307
        },
        {
          "name": "B1",
          "midi": 35,
          "time": 2.400000000000003,
          "velocity": 0.7874015748031497,
          "duration": 0.00416666666666643
        },
        {
          "name": "F1",
          "midi": 29,
          "time": 2.400000000000003,
          "velocity": 0.9448818897637795,
          "duration": 0.00416666666666643
        },
        {
          "name": "A4",
          "midi": 69,
          "time": 2.400000000000003,
          "velocity": 0.7874015748031497,
          "duration": 0.2858333333333327
        },
        {
          "name": "E4",
          "midi": 64,
          "time": 2.4016666666666695,
          "velocity": 0.6850393700787402,
          "duration": 0.05249999999999977
        },
        {
          "name": "D#2",
          "midi": 39,
          "time": 2.4016666666666695,
          "velocity": 0.6614173228346457,
          "duration": 0.00416666666666643
        },
        {
          "name": "C#5",
          "midi": 73,
          "time": 2.403333333333336,
          "velocity": 0.41732283464566927,
          "duration": 0.00416666666666643
        },
        {
          "name": "E4",
          "midi": 64,
          "time": 2.4966666666666693,
          "velocity": 0.6692913385826772,
          "duration": 0.06000000000000005
        },
        {
          "name": "E5",
          "midi": 76,
          "time": 2.598333333333336,
          "velocity": 0.8031496062992126,
          "duration": 0.15333333333333288
        },
        {
          "name": "E1",
          "midi": 28,
          "time": 2.5991666666666693,
          "velocity": 0.8267716535433071,
          "duration": 0.636666666666668
        },
        {
          "name": "F#4",
          "midi": 66,
          "time": 2.6000000000000028,
          "velocity": 0.84251968503937,
          "duration": 0.08333333333333304
        },
        {
          "name": "E5",
          "midi": 76,
          "time": 2.6000000000000028,
          "velocity": 0.8346456692913385,
          "duration": 0.15583333333333282
        },
        {
          "name": "D#2",
          "midi": 39,
          "time": 2.6000000000000028,
          "velocity": 0.6299212598425197,
          "duration": 0.00416666666666643
        },
        {
          "name": "E1",
          "midi": 28,
          "time": 2.6000000000000028,
          "velocity": 0.8582677165354331,
          "duration": 0.636666666666668
        },
        {
          "name": "C#5",
          "midi": 73,
          "time": 2.6000000000000028,
          "velocity": 0.3858267716535433,
          "duration": 0.00416666666666643
        },
        {
          "name": "E1",
          "midi": 28,
          "time": 2.600833333333336,
          "velocity": 0.8582677165354331,
          "duration": 0.636666666666668
        },
        {
          "name": "E5",
          "midi": 76,
          "time": 2.6025000000000027,
          "velocity": 0.7244094488188977,
          "duration": 0.5425000000000009
        },
        {
          "name": "F#4",
          "midi": 66,
          "time": 2.7000000000000024,
          "velocity": 0.84251968503937,
          "duration": 0.2925000000000004
        },
        {
          "name": "B1",
          "midi": 35,
          "time": 2.7000000000000024,
          "velocity": 0.7874015748031497,
          "duration": 0.00416666666666643
        },
        {
          "name": "E4",
          "midi": 64,
          "time": 2.701666666666669,
          "velocity": 0.6850393700787402,
          "duration": 0.050833333333333286
        },
        {
          "name": "D#2",
          "midi": 39,
          "time": 2.7983333333333356,
          "velocity": 0.6299212598425197,
          "duration": 0.00416666666666643
        },
        {
          "name": "C#5",
          "midi": 73,
          "time": 2.800000000000002,
          "velocity": 0.3858267716535433,
          "duration": 0.00416666666666643
        },
        {
          "name": "C#5",
          "midi": 73,
          "time": 2.9966666666666697,
          "velocity": 0.4251968503937008,
          "duration": 0.004166666666666874
        },
        {
          "name": "E5",
          "midi": 76,
          "time": 2.9991666666666696,
          "velocity": 0.8582677165354331,
          "duration": 0.15083333333333382
        },
        {
          "name": "B4",
          "midi": 71,
          "time": 3.000000000000003,
          "velocity": 0.937007874015748,
          "duration": 0.08333333333333304
        },
        {
          "name": "D#2",
          "midi": 39,
          "time": 3.00166666666667,
          "velocity": 0.6692913385826772,
          "duration": 0.00416666666666643
        },
        {
          "name": "E2",
          "midi": 40,
          "time": 3.00166666666667,
          "velocity": 0.937007874015748,
          "duration": 0.00416666666666643
        },
        {
          "name": "E5",
          "midi": 76,
          "time": 3.0033333333333365,
          "velocity": 0.7795275590551181,
          "duration": 0.21500000000000075
        },
        {
          "name": "A4",
          "midi": 69,
          "time": 3.0983333333333363,
          "velocity": 0.7874015748031497,
          "duration": 0.18916666666666782
        },
        {
          "name": "F1",
          "midi": 29,
          "time": 3.0991666666666697,
          "velocity": 0.9448818897637795,
          "duration": 0.004166666666666874
        },
        {
          "name": "A4",
          "midi": 69,
          "time": 3.100000000000003,
          "velocity": 0.8503937007874016,
          "duration": 0.28333333333333455
        },
        {
          "name": "B4",
          "midi": 71,
          "time": 3.100000000000003,
          "velocity": 0.905511811023622,
          "duration": 0.08666666666666689
        },
        {
          "name": "C#5",
          "midi": 73,
          "time": 3.1991666666666703,
          "velocity": 0.3858267716535433,
          "duration": 0.004166666666666874
        },
        {
          "name": "B4",
          "midi": 71,
          "time": 3.2000000000000037,
          "velocity": 0.952755905511811,
          "duration": 0.1091666666666673
        },
        {
          "name": "B1",
          "midi": 35,
          "time": 3.2000000000000037,
          "velocity": 0.7874015748031497,
          "duration": 0.004166666666666874
        },
        {
          "name": "D#2",
          "midi": 39,
          "time": 3.2000000000000037,
          "velocity": 0.6299212598425197,
          "duration": 0.004166666666666874
        },
        {
          "name": "A4",
          "midi": 69,
          "time": 3.3000000000000043,
          "velocity": 0.84251968503937,
          "duration": 0.08916666666666684
        },
        {
          "name": "B1",
          "midi": 35,
          "time": 3.3000000000000043,
          "velocity": 0.7874015748031497,
          "duration": 0.004166666666666874
        },
        {
          "name": "E5",
          "midi": 76,
          "time": 3.399166666666671,
          "velocity": 0.8110236220472441,
          "duration": 0.16000000000000014
        },
        {
          "name": "A4",
          "midi": 69,
          "time": 3.4000000000000044,
          "velocity": 0.8031496062992126,
          "duration": 0.08333333333333348
        },
        {
          "name": "E5",
          "midi": 76,
          "time": 3.4000000000000044,
          "velocity": 0.7322834645669292,
          "duration": 0.16000000000000014
        },
        {
          "name": "D#2",
          "midi": 39,
          "time": 3.4025000000000043,
          "velocity": 0.6456692913385826,
          "duration": 0.004166666666666874
        },
        {
          "name": "C#5",
          "midi": 73,
          "time": 3.4025000000000043,
          "velocity": 0.4015748031496063,
          "duration": 0.004166666666666874
        },
        {
          "name": "A4",
          "midi": 69,
          "time": 3.5000000000000044,
          "velocity": 0.8188976377952756,
          "duration": 0.08333333333333348
        },
        {
          "name": "D#2",
          "midi": 39,
          "time": 3.5966666666666716,
          "velocity": 0.6614173228346457,
          "duration": 0.004166666666666874
        },
        {
          "name": "A4",
          "midi": 69,
          "time": 3.5991666666666715,
          "velocity": 0.8346456692913385,
          "duration": 0.1283333333333334
        },
        {
          "name": "A4",
          "midi": 69,
          "time": 3.600000000000005,
          "velocity": 0.8503937007874016,
          "duration": 0.19083333333333297
        },
        {
          "name": "B1",
          "midi": 35,
          "time": 3.600000000000005,
          "velocity": 0.7874015748031497,
          "duration": 0.004166666666666874
        },
        {
          "name": "C#5",
          "midi": 73,
          "time": 3.601666666666672,
          "velocity": 0.41732283464566927,
          "duration": 0.00416666666666643
        },
        {
          "name": "A4",
          "midi": 69,
          "time": 3.6033333333333384,
          "velocity": 0.7874015748031497,
          "duration": 0.28333333333333277
        },
        {
          "name": "F1",
          "midi": 29,
          "time": 3.6033333333333384,
          "velocity": 0.9448818897637795,
          "duration": 0.00416666666666643
        },
        {
          "name": "G#4",
          "midi": 68,
          "time": 3.700000000000005,
          "velocity": 0.8582677165354331,
          "duration": 0.08333333333333304
        },
        {
          "name": "C#5",
          "midi": 73,
          "time": 3.795833333333338,
          "velocity": 0.4094488188976378,
          "duration": 0.00416666666666643
        },
        {
          "name": "E5",
          "midi": 76,
          "time": 3.7975000000000043,
          "velocity": 0.7637795275590551,
          "duration": 0.14833333333333343
        },
        {
          "name": "E5",
          "midi": 76,
          "time": 3.7975000000000043,
          "velocity": 0.84251968503937,
          "duration": 0.14833333333333343
        },
        {
          "name": "D#2",
          "midi": 39,
          "time": 3.798333333333338,
          "velocity": 0.6535433070866141,
          "duration": 0.00416666666666643
        },
        {
          "name": "G#4",
          "midi": 68,
          "time": 3.8000000000000043,
          "velocity": 0.7637795275590551,
          "duration": 0.08333333333333348
        },
        {
          "name": "G#4",
          "midi": 68,
          "time": 3.9000000000000044,
          "velocity": 0.7480314960629921,
          "duration": 0.08333333333333348
        },
        {
          "name": "A4",
          "midi": 69,
          "time": 3.9975000000000045,
          "velocity": 0.8110236220472441,
          "duration": 0.1883333333333348
        },
        {
          "name": "A4",
          "midi": 69,
          "time": 3.998333333333338,
          "velocity": 0.7874015748031497,
          "duration": 0.2866666666666693
        },
        {
          "name": "F1",
          "midi": 29,
          "time": 3.9991666666666714,
          "velocity": 0.9448818897637795,
          "duration": 0.004166666666666874
        },
        {
          "name": "G#4",
          "midi": 68,
          "time": 4.000000000000004,
          "velocity": 0.7952755905511811,
          "duration": 0.1533333333333351
        },
        {
          "name": "B1",
          "midi": 35,
          "time": 4.000000000000004,
          "velocity": 0.7874015748031497,
          "duration": 0.004166666666667318
        },
        {
          "name": "D#2",
          "midi": 39,
          "time": 4.001666666666671,
          "velocity": 0.6377952755905512,
          "duration": 0.004166666666667318
        },
        {
          "name": "C#5",
          "midi": 73,
          "time": 4.003333333333338,
          "velocity": 0.3937007874015748,
          "duration": 0.004166666666667318
        },
        {
          "name": "E5",
          "midi": 76,
          "time": 4.1983333333333395,
          "velocity": 0.7322834645669292,
          "duration": 0.18333333333333357
        },
        {
          "name": "E5",
          "midi": 76,
          "time": 4.199166666666673,
          "velocity": 0.8110236220472441,
          "duration": 0.18333333333333357
        },
        {
          "name": "F#4",
          "midi": 66,
          "time": 4.200000000000006,
          "velocity": 0.8582677165354331,
          "duration": 0.08333333333333393
        },
        {
          "name": "E1",
          "midi": 28,
          "time": 4.200000000000006,
          "velocity": 0.7952755905511811,
          "duration": 0.3916666666666657
        },
        {
          "name": "C#5",
          "midi": 73,
          "time": 4.202500000000007,
          "velocity": 0.3937007874015748,
          "duration": 0.00416666666666643
        },
        {
          "name": "D#2",
          "midi": 39,
          "time": 4.20333333333334,
          "velocity": 0.6377952755905512,
          "duration": 0.00416666666666643
        },
        {
          "name": "F#4",
          "midi": 66,
          "time": 4.300000000000007,
          "velocity": 0.8267716535433071,
          "duration": 0.1783333333333319
        },
        {
          "name": "B1",
          "midi": 35,
          "time": 4.300000000000007,
          "velocity": 0.7874015748031497,
          "duration": 0.00416666666666643
        },
        {
          "name": "C#5",
          "midi": 73,
          "time": 4.39833333333334,
          "velocity": 0.4015748031496063,
          "duration": 0.00416666666666643
        },
        {
          "name": "D#2",
          "midi": 39,
          "time": 4.402500000000006,
          "velocity": 0.6456692913385826,
          "duration": 0.00416666666666643
        },
        {
          "name": "B4",
          "midi": 71,
          "time": 4.500000000000005,
          "velocity": 0.905511811023622,
          "duration": 0.12333333333333485
        },
        {
          "name": "E4",
          "midi": 64,
          "time": 4.599166666666672,
          "velocity": 0.6377952755905512,
          "duration": 0.049166666666668135
        },
        {
          "name": "C#5",
          "midi": 73,
          "time": 4.600000000000006,
          "velocity": 0.4094488188976378,
          "duration": 0.004166666666667318
        },
        {
          "name": "E2",
          "midi": 40,
          "time": 4.601666666666673,
          "velocity": 0.905511811023622,
          "duration": 0.004166666666667318
        },
        {
          "name": "E5",
          "midi": 76,
          "time": 4.602500000000006,
          "velocity": 0.7559055118110236,
          "duration": 0.15500000000000203
        },
        {
          "name": "E5",
          "midi": 76,
          "time": 4.602500000000006,
          "velocity": 0.8346456692913385,
          "duration": 0.15500000000000203
        },
        {
          "name": "D#2",
          "midi": 39,
          "time": 4.60333333333334,
          "velocity": 0.6535433070866141,
          "duration": 0.004166666666667318
        },
        {
          "name": "A4",
          "midi": 69,
          "time": 4.696666666666674,
          "velocity": 0.8110236220472441,
          "duration": 0.19250000000000078
        },
        {
          "name": "A4",
          "midi": 69,
          "time": 4.699166666666675,
          "velocity": 0.7874015748031497,
          "duration": 0.28666666666666885
        },
        {
          "name": "B4",
          "midi": 71,
          "time": 4.700000000000008,
          "velocity": 0.8031496062992126,
          "duration": 0.08333333333333304
        },
        {
          "name": "F1",
          "midi": 29,
          "time": 4.700000000000008,
          "velocity": 0.9448818897637795,
          "duration": 0.00416666666666643
        },
        {
          "name": "E4",
          "midi": 64,
          "time": 4.700833333333342,
          "velocity": 0.6929133858267716,
          "duration": 0.05666666666666664
        },
        {
          "name": "C#5",
          "midi": 73,
          "time": 4.796666666666675,
          "velocity": 0.41732283464566927,
          "duration": 0.00416666666666643
        },
        {
          "name": "B4",
          "midi": 71,
          "time": 4.800000000000008,
          "velocity": 0.8661417322834646,
          "duration": 0.18750000000000266
        },
        {
          "name": "B1",
          "midi": 35,
          "time": 4.800000000000008,
          "velocity": 0.7874015748031497,
          "duration": 0.004166666666667318
        },
        {
          "name": "D#2",
          "midi": 39,
          "time": 4.801666666666675,
          "velocity": 0.6614173228346457,
          "duration": 0.004166666666667318
        },
        {
          "name": "B1",
          "midi": 35,
          "time": 4.900000000000009,
          "velocity": 0.7874015748031497,
          "duration": 0.004166666666667318
        },
        {
          "name": "D#2",
          "midi": 39,
          "time": 4.995833333333344,
          "velocity": 0.6377952755905512,
          "duration": 0.004166666666667318
        },
        {
          "name": "C#5",
          "midi": 73,
          "time": 4.996666666666678,
          "velocity": 0.3937007874015748,
          "duration": 0.004166666666667318
        },
        {
          "name": "E4",
          "midi": 64,
          "time": 4.997500000000011,
          "velocity": 0.6771653543307087,
          "duration": 0.0600000000000005
        },
        {
          "name": "A4",
          "midi": 69,
          "time": 5.0000000000000115,
          "velocity": 0.9212598425196851,
          "duration": 0.08333333333333304
        },
        {
          "name": "E5",
          "midi": 76,
          "time": 5.0000000000000115,
          "velocity": 0.7322834645669292,
          "duration": 0.15999999999999925
        },
        {
          "name": "E5",
          "midi": 76,
          "time": 5.002500000000012,
          "velocity": 0.8110236220472441,
          "duration": 0.15999999999999925
        },
        {
          "name": "A4",
          "midi": 69,
          "time": 5.100000000000011,
          "velocity": 0.8188976377952756,
          "duration": 0.08333333333333304
        },
        {
          "name": "F1",
          "midi": 29,
          "time": 5.198333333333344,
          "velocity": 0.9448818897637795,
          "duration": 0.004166666666667318
        },
        {
          "name": "D#2",
          "midi": 39,
          "time": 5.199166666666677,
          "velocity": 0.6692913385826772,
          "duration": 0.004166666666667318
        },
        {
          "name": "A4",
          "midi": 69,
          "time": 5.200000000000011,
          "velocity": 0.8976377952755905,
          "duration": 0.18750000000000178
        },
        {
          "name": "B1",
          "midi": 35,
          "time": 5.200000000000011,
          "velocity": 0.7874015748031497,
          "duration": 0.004166666666667318
        },
        {
          "name": "A4",
          "midi": 69,
          "time": 5.200833333333344,
          "velocity": 0.8503937007874016,
          "duration": 0.18833333333333524
        },
        {
          "name": "A4",
          "midi": 69,
          "time": 5.201666666666678,
          "velocity": 0.7874015748031497,
          "duration": 0.28666666666666973
        },
        {
          "name": "C#5",
          "midi": 73,
          "time": 5.201666666666678,
          "velocity": 0.4251968503937008,
          "duration": 0.004166666666667318
        },
        {
          "name": "E4",
          "midi": 64,
          "time": 5.202500000000011,
          "velocity": 0.6771653543307087,
          "duration": 0.07000000000000117
        },
        {
          "name": "G#4",
          "midi": 68,
          "time": 5.400000000000013,
          "velocity": 0.8267716535433071,
          "duration": 0.18583333333333485
        },
        {
          "name": "D#2",
          "midi": 39,
          "time": 5.400833333333346,
          "velocity": 0.6377952755905512,
          "duration": 0.004166666666667318
        },
        {
          "name": "E5",
          "midi": 76,
          "time": 5.40166666666668,
          "velocity": 0.84251968503937,
          "duration": 0.14833333333333432
        },
        {
          "name": "C#5",
          "midi": 73,
          "time": 5.402500000000013,
          "velocity": 0.3937007874015748,
          "duration": 0.004166666666667318
        },
        {
          "name": "E5",
          "midi": 76,
          "time": 5.403333333333347,
          "velocity": 0.7637795275590551,
          "duration": 0.14916666666666778
        },
        {
          "name": "D#2",
          "midi": 39,
          "time": 5.595833333333347,
          "velocity": 0.6377952755905512,
          "duration": 0.004166666666667318
        },
        {
          "name": "F1",
          "midi": 29,
          "time": 5.596666666666681,
          "velocity": 0.9448818897637795,
          "duration": 0.004166666666667318
        },
        {
          "name": "A4",
          "midi": 69,
          "time": 5.598333333333348,
          "velocity": 0.7874015748031497,
          "duration": 0.1875
        },
        {
          "name": "A4",
          "midi": 69,
          "time": 5.600000000000015,
          "velocity": 0.8346456692913385,
          "duration": 0.28749999999999964
        },
        {
          "name": "G#4",
          "midi": 68,
          "time": 5.600000000000015,
          "velocity": 0.8346456692913385,
          "duration": 0.16999999999999993
        },
        {
          "name": "B1",
          "midi": 35,
          "time": 5.600000000000015,
          "velocity": 0.7874015748031497,
          "duration": 0.00416666666666643
        },
        {
          "name": "C#5",
          "midi": 73,
          "time": 5.600000000000015,
          "velocity": 0.3937007874015748,
          "duration": 0.00416666666666643
        },
        {
          "name": "E4",
          "midi": 64,
          "time": 5.600833333333348,
          "velocity": 0.6456692913385826,
          "duration": 0.05166666666666675
        },
        {
          "name": "E4",
          "midi": 64,
          "time": 5.701666666666681,
          "velocity": 0.6771653543307087,
          "duration": 0.05999999999999961
        },
        {
          "name": "D#2",
          "midi": 39,
          "time": 5.795833333333348,
          "velocity": 0.6614173228346457,
          "duration": 0.00416666666666643
        },
        {
          "name": "C#5",
          "midi": 73,
          "time": 5.795833333333348,
          "velocity": 0.41732283464566927,
          "duration": 0.00416666666666643
        },
        {
          "name": "F#4",
          "midi": 66,
          "time": 5.800000000000014,
          "velocity": 0.8976377952755905,
          "duration": 0.08333333333333393
        },
        {
          "name": "E5",
          "midi": 76,
          "time": 5.800000000000014,
          "velocity": 0.8346456692913385,
          "duration": 0.1825000000000001
        },
        {
          "name": "E5",
          "midi": 76,
          "time": 5.800000000000014,
          "velocity": 0.7322834645669292,
          "duration": 0.18666666666666654
        },
        {
          "name": "E1",
          "midi": 28,
          "time": 5.802500000000014,
          "velocity": 0.8582677165354331,
          "duration": 0.6366666666666694
        },
        {
          "name": "E1",
          "midi": 28,
          "time": 5.803333333333348,
          "velocity": 0.8503937007874016,
          "duration": 0.6375000000000028
        },
        {
          "name": "E5",
          "midi": 76,
          "time": 5.803333333333348,
          "velocity": 0.8110236220472441,
          "duration": 0.5541666666666707
        },
        {
          "name": "E1",
          "midi": 28,
          "time": 5.803333333333348,
          "velocity": 0.8582677165354331,
          "duration": 0.6375000000000028
        },
        {
          "name": "F#4",
          "midi": 66,
          "time": 5.900000000000015,
          "velocity": 0.889763779527559,
          "duration": 0.23083333333333478
        },
        {
          "name": "B1",
          "midi": 35,
          "time": 5.900000000000015,
          "velocity": 0.7874015748031497,
          "duration": 0.00416666666666643
        },
        {
          "name": "E4",
          "midi": 64,
          "time": 5.9033333333333475,
          "velocity": 0.6771653543307087,
          "duration": 0.050833333333333286
        },
        {
          "name": "C#5",
          "midi": 73,
          "time": 6.000833333333348,
          "velocity": 0.4015748031496063,
          "duration": 0.004166666666667318
        },
        {
          "name": "D#2",
          "midi": 39,
          "time": 6.002500000000015,
          "velocity": 0.6456692913385826,
          "duration": 0.004166666666667318
        },
        {
          "name": "E2",
          "midi": 40,
          "time": 6.199166666666683,
          "velocity": 0.937007874015748,
          "duration": 0.004166666666667318
        },
        {
          "name": "B4",
          "midi": 71,
          "time": 6.200000000000016,
          "velocity": 0.889763779527559,
          "duration": 0.08333333333333481
        },
        {
          "name": "D#2",
          "midi": 39,
          "time": 6.200000000000016,
          "velocity": 0.6377952755905512,
          "duration": 0.004166666666667318
        },
        {
          "name": "C#5",
          "midi": 73,
          "time": 6.201666666666683,
          "velocity": 0.3937007874015748,
          "duration": 0.004166666666667318
        },
        {
          "name": "E5",
          "midi": 76,
          "time": 6.2025000000000166,
          "velocity": 0.7559055118110236,
          "duration": 0.15500000000000203
        },
        {
          "name": "E5",
          "midi": 76,
          "time": 6.2025000000000166,
          "velocity": 0.8346456692913385,
          "duration": 0.2158333333333342
        },
        {
          "name": "A4",
          "midi": 69,
          "time": 6.296666666666685,
          "velocity": 0.8110236220472441,
          "duration": 0.19416666666666593
        },
        {
          "name": "B4",
          "midi": 71,
          "time": 6.300000000000018,
          "velocity": 0.8110236220472441,
          "duration": 0.08333333333333393
        },
        {
          "name": "A4",
          "midi": 69,
          "time": 6.3016666666666845,
          "velocity": 0.7874015748031497,
          "duration": 0.2816666666666654
        },
        {
          "name": "F1",
          "midi": 29,
          "time": 6.302500000000018,
          "velocity": 0.9448818897637795,
          "duration": 0.00416666666666643
        },
        {
          "name": "B4",
          "midi": 71,
          "time": 6.400000000000018,
          "velocity": 0.8267716535433071,
          "duration": 0.0891666666666655
        },
        {
          "name": "B1",
          "midi": 35,
          "time": 6.400000000000018,
          "velocity": 0.7874015748031497,
          "duration": 0.00416666666666643
        },
        {
          "name": "C#5",
          "midi": 73,
          "time": 6.400000000000018,
          "velocity": 0.4251968503937008,
          "duration": 0.00416666666666643
        },
        {
          "name": "D#2",
          "midi": 39,
          "time": 6.403333333333351,
          "velocity": 0.6692913385826772,
          "duration": 0.00416666666666643
        },
        {
          "name": "A4",
          "midi": 69,
          "time": 6.500000000000017,
          "velocity": 0.8661417322834646,
          "duration": 0.08583333333333343
        },
        {
          "name": "B1",
          "midi": 35,
          "time": 6.500000000000017,
          "velocity": 0.7874015748031497,
          "duration": 0.00416666666666643
        },
        {
          "name": "E5",
          "midi": 76,
          "time": 6.59583333333335,
          "velocity": 0.8110236220472441,
          "duration": 0.16000000000000103
        },
        {
          "name": "D#2",
          "midi": 39,
          "time": 6.5966666666666836,
          "velocity": 0.6299212598425197,
          "duration": 0.004166666666667318
        },
        {
          "name": "C#5",
          "midi": 73,
          "time": 6.597500000000017,
          "velocity": 0.3858267716535433,
          "duration": 0.004166666666667318
        },
        {
          "name": "E5",
          "midi": 76,
          "time": 6.599166666666684,
          "velocity": 0.7322834645669292,
          "duration": 0.16000000000000014
        },
        {
          "name": "A4",
          "midi": 69,
          "time": 6.600000000000017,
          "velocity": 0.8267716535433071,
          "duration": 0.08333333333333393
        },
        {
          "name": "A4",
          "midi": 69,
          "time": 6.700000000000018,
          "velocity": 0.8267716535433071,
          "duration": 0.08333333333333304
        },
        {
          "name": "C#5",
          "midi": 73,
          "time": 6.799166666666684,
          "velocity": 0.4094488188976378,
          "duration": 0.004166666666667318
        },
        {
          "name": "D#2",
          "midi": 39,
          "time": 6.799166666666684,
          "velocity": 0.6535433070866141,
          "duration": 0.004166666666667318
        },
        {
          "name": "A4",
          "midi": 69,
          "time": 6.800000000000018,
          "velocity": 0.8976377952755905,
          "duration": 0.09750000000000103
        },
        {
          "name": "B1",
          "midi": 35,
          "time": 6.800000000000018,
          "velocity": 0.7874015748031497,
          "duration": 0.004166666666667318
        },
        {
          "name": "A4",
          "midi": 69,
          "time": 6.802500000000018,
          "velocity": 0.7952755905511811,
          "duration": 0.18833333333333435
        },
        {
          "name": "F1",
          "midi": 29,
          "time": 6.803333333333351,
          "velocity": 0.9448818897637795,
          "duration": 0.00416666666666643
        },
        {
          "name": "A4",
          "midi": 69,
          "time": 6.803333333333351,
          "velocity": 0.7874015748031497,
          "duration": 0.28666666666666796
        },
        {
          "name": "G#4",
          "midi": 68,
          "time": 6.900000000000019,
          "velocity": 0.8976377952755905,
          "duration": 0.08333333333333304
        },
        {
          "name": "G#4",
          "midi": 68,
          "time": 7.000000000000019,
          "velocity": 0.7716535433070866,
          "duration": 0.08333333333333393
        },
        {
          "name": "D#2",
          "midi": 39,
          "time": 7.000000000000019,
          "velocity": 0.6299212598425197,
          "duration": 0.004166666666667318
        },
        {
          "name": "E5",
          "midi": 76,
          "time": 7.000000000000019,
          "velocity": 0.84251968503937,
          "duration": 0.14833333333333432
        },
        {
          "name": "C#5",
          "midi": 73,
          "time": 7.000833333333352,
          "velocity": 0.3858267716535433,
          "duration": 0.004166666666667318
        },
        {
          "name": "E5",
          "midi": 76,
          "time": 7.001666666666686,
          "velocity": 0.7637795275590551,
          "duration": 0.14833333333333432
        },
        {
          "name": "G#4",
          "midi": 68,
          "time": 7.100000000000019,
          "velocity": 0.7952755905511811,
          "duration": 0.08333333333333393
        },
        {
          "name": "F1",
          "midi": 29,
          "time": 7.196666666666687,
          "velocity": 0.9448818897637795,
          "duration": 0.004166666666667318
        },
        {
          "name": "D#2",
          "midi": 39,
          "time": 7.196666666666687,
          "velocity": 0.6535433070866141,
          "duration": 0.004166666666667318
        },
        {
          "name": "A4",
          "midi": 69,
          "time": 7.199166666666687,
          "velocity": 0.7874015748031497,
          "duration": 0.1875000000000009
        },
        {
          "name": "G#4",
          "midi": 68,
          "time": 7.200000000000021,
          "velocity": 0.7874015748031497,
          "duration": 0.16000000000000103
        },
        {
          "name": "B1",
          "midi": 35,
          "time": 7.200000000000021,
          "velocity": 0.7874015748031497,
          "duration": 0.004166666666667318
        },
        {
          "name": "C#5",
          "midi": 73,
          "time": 7.200833333333354,
          "velocity": 0.4094488188976378,
          "duration": 0.004166666666667318
        },
        {
          "name": "A4",
          "midi": 69,
          "time": 7.202500000000021,
          "velocity": 0.8346456692913385,
          "duration": 0.2875000000000014
        },
        {
          "name": "C#5",
          "midi": 73,
          "time": 7.397500000000021,
          "velocity": 0.3858267716535433,
          "duration": 0.004166666666667318
        },
        {
          "name": "D#2",
          "midi": 39,
          "time": 7.397500000000021,
          "velocity": 0.6299212598425197,
          "duration": 0.004166666666667318
        },
        {
          "name": "E1",
          "midi": 28,
          "time": 7.399166666666688,
          "velocity": 0.8188976377952756,
          "duration": 0.39083333333333226
        },
        {
          "name": "E5",
          "midi": 76,
          "time": 7.399166666666688,
          "velocity": 0.8110236220472441,
          "duration": 0.1825000000000001
        },
        {
          "name": "F#4",
          "midi": 66,
          "time": 7.400000000000022,
          "velocity": 0.8740157480314961,
          "duration": 0.08333333333333393
        },
        {
          "name": "E5",
          "midi": 76,
          "time": 7.401666666666689,
          "velocity": 0.7322834645669292,
          "duration": 0.1825000000000001
        },
        {
          "name": "E4",
          "midi": 64,
          "time": 7.500000000000022,
          "velocity": 0.937007874015748,
          "duration": 0.08333333333333304
        },
        {
          "name": "B1",
          "midi": 35,
          "time": 7.500000000000022,
          "velocity": 0.7874015748031497,
          "duration": 0.00416666666666643
        },
        {
          "name": "B4",
          "midi": 71,
          "time": 7.600000000000022,
          "velocity": 0.9212598425196851,
          "duration": 0.15833333333333233
        },
        {
          "name": "C#5",
          "midi": 73,
          "time": 7.600000000000022,
          "velocity": 0.41732283464566927,
          "duration": 0.00416666666666643
        },
        {
          "name": "D#2",
          "midi": 39,
          "time": 7.603333333333355,
          "velocity": 0.6614173228346457,
          "duration": 0.00416666666666643
        },
        {
          "name": "C#5",
          "midi": 73,
          "time": 7.795833333333354,
          "velocity": 0.3858267716535433,
          "duration": 0.004166666666667318
        },
        {
          "name": "D#2",
          "midi": 39,
          "time": 7.796666666666687,
          "velocity": 0.6299212598425197,
          "duration": 0.004166666666667318
        },
        {
          "name": "E2",
          "midi": 40,
          "time": 7.799166666666688,
          "velocity": 0.9212598425196851,
          "duration": 0.004166666666667318
        },
        {
          "name": "E4",
          "midi": 64,
          "time": 7.799166666666688,
          "velocity": 0.6535433070866141,
          "duration": 0.04916666666666725
        },
        {
          "name": "G#4",
          "midi": 68,
          "time": 7.800000000000021,
          "velocity": 0.9448818897637795,
          "duration": 0.14750000000000085
        },
        {
          "name": "E5",
          "midi": 76,
          "time": 7.800833333333355,
          "velocity": 0.7559055118110236,
          "duration": 0.15500000000000114
        },
        {
          "name": "E5",
          "midi": 76,
          "time": 7.8025000000000215,
          "velocity": 0.8346456692913385,
          "duration": 0.15500000000000114
        },
        {
          "name": "A4",
          "midi": 69,
          "time": 7.898333333333355,
          "velocity": 0.8188976377952756,
          "duration": 0.19166666666666998
        },
        {
          "name": "E4",
          "midi": 64,
          "time": 7.898333333333355,
          "velocity": 0.6929133858267716,
          "duration": 0.05666666666666753
        },
        {
          "name": "A4",
          "midi": 69,
          "time": 7.900000000000022,
          "velocity": 0.7874015748031497,
          "duration": 0.2875000000000032
        },
        {
          "name": "F1",
          "midi": 29,
          "time": 7.901666666666689,
          "velocity": 0.9448818897637795,
          "duration": 0.00416666666666643
        },
        {
          "name": "E4",
          "midi": 64,
          "time": 7.99916666666669,
          "velocity": 0.8346456692913385,
          "duration": 0.2608333333333315
        },
        {
          "name": "C#5",
          "midi": 73,
          "time": 7.99916666666669,
          "velocity": 0.4094488188976378,
          "duration": 0.004166666666667318
        },
        {
          "name": "E4",
          "midi": 64,
          "time": 8.000000000000023,
          "velocity": 0.984251968503937,
          "duration": 0.33916666666666373
        },
        {
          "name": "B1",
          "midi": 35,
          "time": 8.000000000000023,
          "velocity": 0.7874015748031497,
          "duration": 0.00416666666666643
        },
        {
          "name": "D#2",
          "midi": 39,
          "time": 8.00166666666669,
          "velocity": 0.6535433070866141,
          "duration": 0.00416666666666643
        },
        {
          "name": "B1",
          "midi": 35,
          "time": 8.100000000000025,
          "velocity": 0.7874015748031497,
          "duration": 0.00416666666666643
        },
        {
          "name": "E1",
          "midi": 28,
          "time": 8.195833333333358,
          "velocity": 0.8346456692913385,
          "duration": 0.24083333333332568
        },
        {
          "name": "E5",
          "midi": 76,
          "time": 8.198333333333357,
          "velocity": 0.8110236220472441,
          "duration": 0.1599999999999948
        },
        {
          "name": "C#5",
          "midi": 73,
          "time": 8.19916666666669,
          "velocity": 0.3858267716535433,
          "duration": 0.0041666666666646535
        },
        {
          "name": "E4",
          "midi": 64,
          "time": 8.19916666666669,
          "velocity": 0.6614173228346457,
          "duration": 0.1408333333333296
        },
        {
          "name": "D#2",
          "midi": 39,
          "time": 8.200000000000022,
          "velocity": 0.6299212598425197,
          "duration": 0.0041666666666646535
        },
        {
          "name": "E5",
          "midi": 76,
          "time": 8.200833333333355,
          "velocity": 0.7322834645669292,
          "duration": 0.1599999999999966
        },
        {
          "name": "E1",
          "midi": 28,
          "time": 8.201666666666688,
          "velocity": 0.8346456692913385,
          "duration": 0.24083333333332924
        },
        {
          "name": "E1",
          "midi": 28,
          "time": 8.30000000000002,
          "velocity": 0.8661417322834646,
          "duration": 0.30666666666666487
        },
        {
          "name": "A4",
          "midi": 69,
          "time": 8.396666666666684,
          "velocity": 0.7874015748031497,
          "duration": 0.18833333333333258
        },
        {
          "name": "E4",
          "midi": 64,
          "time": 8.398333333333351,
          "velocity": 0.8110236220472441,
          "duration": 0.07499999999999929
        },
        {
          "name": "F1",
          "midi": 29,
          "time": 8.398333333333351,
          "velocity": 0.9448818897637795,
          "duration": 0.00416666666666643
        },
        {
          "name": "A4",
          "midi": 69,
          "time": 8.398333333333351,
          "velocity": 0.8503937007874016,
          "duration": 0.288333333333334
        },
        {
          "name": "E4",
          "midi": 64,
          "time": 8.400000000000018,
          "velocity": 0.889763779527559,
          "duration": 0.15333333333333243
        },
        {
          "name": "B1",
          "midi": 35,
          "time": 8.400000000000018,
          "velocity": 0.7874015748031497,
          "duration": 0.0041666666666646535
        },
        {
          "name": "D#2",
          "midi": 39,
          "time": 8.400000000000018,
          "velocity": 0.6535433070866141,
          "duration": 0.0041666666666646535
        },
        {
          "name": "C#5",
          "midi": 73,
          "time": 8.400000000000018,
          "velocity": 0.4094488188976378,
          "duration": 0.0041666666666646535
        },
        {
          "name": "E4",
          "midi": 64,
          "time": 8.40333333333335,
          "velocity": 0.6929133858267716,
          "duration": 0.15166666666666728
        },
        {
          "name": "E5",
          "midi": 76,
          "time": 8.595833333333351,
          "velocity": 0.84251968503937,
          "duration": 0.14916666666666778
        },
        {
          "name": "D#2",
          "midi": 39,
          "time": 8.599166666666685,
          "velocity": 0.6692913385826772,
          "duration": 0.00416666666666643
        },
        {
          "name": "C#5",
          "midi": 73,
          "time": 8.599166666666685,
          "velocity": 0.4251968503937008,
          "duration": 0.00416666666666643
        },
        {
          "name": "F#4",
          "midi": 66,
          "time": 8.599166666666685,
          "velocity": 0.8031496062992126,
          "duration": 0.14833333333333343
        },
        {
          "name": "F#4",
          "midi": 66,
          "time": 8.600000000000017,
          "velocity": 0.9291338582677166,
          "duration": 0.14833333333333343
        },
        {
          "name": "E5",
          "midi": 76,
          "time": 8.603333333333351,
          "velocity": 0.7637795275590551,
          "duration": 0.149166666666666
        },
        {
          "name": "A4",
          "midi": 69,
          "time": 8.796666666666683,
          "velocity": 0.7952755905511811,
          "duration": 0.19083333333333208
        },
        {
          "name": "C#5",
          "midi": 73,
          "time": 8.79833333333335,
          "velocity": 0.4015748031496063,
          "duration": 0.0041666666666646535
        },
        {
          "name": "D#2",
          "midi": 39,
          "time": 8.799166666666682,
          "velocity": 0.6456692913385826,
          "duration": 0.0041666666666646535
        },
        {
          "name": "G#4",
          "midi": 68,
          "time": 8.800000000000015,
          "velocity": 0.9606299212598425,
          "duration": 0.26083333333333236
        },
        {
          "name": "B1",
          "midi": 35,
          "time": 8.800000000000015,
          "velocity": 0.7874015748031497,
          "duration": 0.0041666666666646535
        },
        {
          "name": "A4",
          "midi": 69,
          "time": 8.800000000000015,
          "velocity": 0.7874015748031497,
          "duration": 0.2841666666666658
        },
        {
          "name": "G#4",
          "midi": 68,
          "time": 8.802500000000014,
          "velocity": 0.7874015748031497,
          "duration": 0.26083333333333236
        },
        {
          "name": "E4",
          "midi": 64,
          "time": 8.802500000000014,
          "velocity": 0.6614173228346457,
          "duration": 0.05249999999999844
        },
        {
          "name": "F1",
          "midi": 29,
          "time": 8.803333333333347,
          "velocity": 0.9448818897637795,
          "duration": 0.00416666666666643
        },
        {
          "name": "E4",
          "midi": 64,
          "time": 8.895833333333348,
          "velocity": 0.6692913385826772,
          "duration": 0.0600000000000005
        },
        {
          "name": "D#2",
          "midi": 39,
          "time": 8.995833333333348,
          "velocity": 0.6535433070866141,
          "duration": 0.00416666666666643
        },
        {
          "name": "E5",
          "midi": 76,
          "time": 8.997500000000015,
          "velocity": 0.8110236220472441,
          "duration": 0.18249999999999922
        },
        {
          "name": "C#5",
          "midi": 73,
          "time": 8.998333333333347,
          "velocity": 0.4094488188976378,
          "duration": 0.00416666666666643
        },
        {
          "name": "E5",
          "midi": 76,
          "time": 9.000833333333347,
          "velocity": 0.7322834645669292,
          "duration": 0.182500000000001
        },
        {
          "name": "E4",
          "midi": 64,
          "time": 9.097500000000014,
          "velocity": 0.6929133858267716,
          "duration": 0.050833333333333286
        },
        {
          "name": "F#4",
          "midi": 66,
          "time": 9.100000000000014,
          "velocity": 0.9212598425196851,
          "duration": 0.19583333333333464
        },
        {
          "name": "B1",
          "midi": 35,
          "time": 9.100000000000014,
          "velocity": 0.7874015748031497,
          "duration": 0.00416666666666643
        },
        {
          "name": "F#4",
          "midi": 66,
          "time": 9.100833333333346,
          "velocity": 0.7952755905511811,
          "duration": 0.19583333333333464
        },
        {
          "name": "D#2",
          "midi": 39,
          "time": 9.200000000000015,
          "velocity": 0.6535433070866141,
          "duration": 0.00416666666666643
        },
        {
          "name": "C#5",
          "midi": 73,
          "time": 9.20333333333335,
          "velocity": 0.4094488188976378,
          "duration": 0.00416666666666643
        },
        {
          "name": "E4",
          "midi": 64,
          "time": 9.300000000000015,
          "velocity": 0.9448818897637795,
          "duration": 0.21416666666666195
        },
        {
          "name": "E4",
          "midi": 64,
          "time": 9.300833333333347,
          "velocity": 0.8031496062992126,
          "duration": 0.2149999999999963
        },
        {
          "name": "E2",
          "midi": 40,
          "time": 9.39666666666668,
          "velocity": 0.9133858267716536,
          "duration": 0.0041666666666646535
        },
        {
          "name": "C#5",
          "midi": 73,
          "time": 9.397500000000013,
          "velocity": 0.3858267716535433,
          "duration": 0.0041666666666646535
        },
        {
          "name": "E5",
          "midi": 76,
          "time": 9.398333333333346,
          "velocity": 0.8346456692913385,
          "duration": 0.15499999999999758
        },
        {
          "name": "E5",
          "midi": 76,
          "time": 9.401666666666678,
          "velocity": 0.7559055118110236,
          "duration": 0.15499999999999758
        },
        {
          "name": "D#2",
          "midi": 39,
          "time": 9.403333333333345,
          "velocity": 0.6299212598425197,
          "duration": 0.00416666666666643
        },
        {
          "name": "A4",
          "midi": 69,
          "time": 9.501666666666678,
          "velocity": 0.84251968503937,
          "duration": 0.19083333333332853
        },
        {
          "name": "F1",
          "midi": 29,
          "time": 9.501666666666678,
          "velocity": 0.9448818897637795,
          "duration": 0.00416666666666643
        },
        {
          "name": "A4",
          "midi": 69,
          "time": 9.50250000000001,
          "velocity": 0.7874015748031497,
          "duration": 0.289166666666663
        },
        {
          "name": "D#2",
          "midi": 39,
          "time": 9.599166666666676,
          "velocity": 0.6535433070866141,
          "duration": 0.0041666666666646535
        },
        {
          "name": "E4",
          "midi": 64,
          "time": 9.600000000000009,
          "velocity": 0.9606299212598425,
          "duration": 0.32083333333332753
        },
        {
          "name": "E4",
          "midi": 64,
          "time": 9.600000000000009,
          "velocity": 0.84251968503937,
          "duration": 0.32083333333332753
        },
        {
          "name": "B1",
          "midi": 35,
          "time": 9.600000000000009,
          "velocity": 0.7874015748031497,
          "duration": 0.0041666666666646535
        },
        {
          "name": "C#5",
          "midi": 73,
          "time": 9.602500000000008,
          "velocity": 0.4094488188976378,
          "duration": 0.0041666666666646535
        },
        {
          "name": "B1",
          "midi": 35,
          "time": 9.700000000000006,
          "velocity": 0.7874015748031497,
          "duration": 0.00416666666666643
        },
        {
          "name": "E5",
          "midi": 76,
          "time": 9.79833333333334,
          "velocity": 0.8110236220472441,
          "duration": 0.1599999999999966
        },
        {
          "name": "C#5",
          "midi": 73,
          "time": 9.799166666666672,
          "velocity": 0.3858267716535433,
          "duration": 0.0041666666666646535
        },
        {
          "name": "E1",
          "midi": 28,
          "time": 9.800000000000004,
          "velocity": 0.8188976377952756,
          "duration": 0.4674999999999905
        },
        {
          "name": "D#2",
          "midi": 39,
          "time": 9.802500000000004,
          "velocity": 0.6299212598425197,
          "duration": 0.00416666666666643
        },
        {
          "name": "E5",
          "midi": 76,
          "time": 9.802500000000004,
          "velocity": 0.7322834645669292,
          "duration": 0.15999999999999837
        },
        {
          "name": "D#2",
          "midi": 39,
          "time": 9.997500000000002,
          "velocity": 0.6299212598425197,
          "duration": 0.00416666666666643
        },
        {
          "name": "A4",
          "midi": 69,
          "time": 9.997500000000002,
          "velocity": 0.7874015748031497,
          "duration": 0.18833333333332902
        },
        {
          "name": "A4",
          "midi": 69,
          "time": 9.998333333333335,
          "velocity": 0.8346456692913385,
          "duration": 0.2883333333333269
        },
        {
          "name": "C#5",
          "midi": 73,
          "time": 9.998333333333335,
          "velocity": 0.3858267716535433,
          "duration": 0.00416666666666643
        },
        {
          "name": "E4",
          "midi": 64,
          "time": 10.000000000000002,
          "velocity": 0.9291338582677166,
          "duration": 0.15333333333332888
        },
        {
          "name": "B1",
          "midi": 35,
          "time": 10.000000000000002,
          "velocity": 0.7874015748031497,
          "duration": 0.0041666666666646535
        },
        {
          "name": "E4",
          "midi": 64,
          "time": 10.003333333333334,
          "velocity": 0.8503937007874016,
          "duration": 0.15333333333333066
        },
        {
          "name": "F1",
          "midi": 29,
          "time": 10.003333333333334,
          "velocity": 0.9448818897637795,
          "duration": 0.00416666666666643
        },
        {
          "name": "C#5",
          "midi": 73,
          "time": 10.195833333333331,
          "velocity": 0.4251968503937008,
          "duration": 0.0041666666666646535
        },
        {
          "name": "F#4",
          "midi": 66,
          "time": 10.196666666666664,
          "velocity": 0.8267716535433071,
          "duration": 0.15583333333333194
        },
        {
          "name": "E5",
          "midi": 76,
          "time": 10.197499999999996,
          "velocity": 0.7637795275590551,
          "duration": 0.14833333333333165
        },
        {
          "name": "F#4",
          "midi": 66,
          "time": 10.199999999999996,
          "velocity": 0.8661417322834646,
          "duration": 0.1558333333333337
        },
        {
          "name": "D#2",
          "midi": 39,
          "time": 10.202499999999995,
          "velocity": 0.6692913385826772,
          "duration": 0.00416666666666643
        },
        {
          "name": "E5",
          "midi": 76,
          "time": 10.202499999999995,
          "velocity": 0.84251968503937,
          "duration": 0.14833333333333343
        },
        {
          "name": "F1",
          "midi": 29,
          "time": 10.397499999999996,
          "velocity": 0.9448818897637795,
          "duration": 0.00416666666666643
        },
        {
          "name": "D#2",
          "midi": 39,
          "time": 10.399166666666662,
          "velocity": 0.6535433070866141,
          "duration": 0.00416666666666643
        },
        {
          "name": "A4",
          "midi": 69,
          "time": 10.399999999999995,
          "velocity": 0.8110236220472441,
          "duration": 0.19083333333333385
        },
        {
          "name": "G#4",
          "midi": 68,
          "time": 10.399999999999995,
          "velocity": 0.952755905511811,
          "duration": 0.32833333333333137
        },
        {
          "name": "B1",
          "midi": 35,
          "time": 10.399999999999995,
          "velocity": 0.7874015748031497,
          "duration": 0.00416666666666643
        },
        {
          "name": "C#5",
          "midi": 73,
          "time": 10.399999999999995,
          "velocity": 0.4094488188976378,
          "duration": 0.00416666666666643
        },
        {
          "name": "G#4",
          "midi": 68,
          "time": 10.401666666666662,
          "velocity": 0.84251968503937,
          "duration": 0.32916666666666394
        },
        {
          "name": "A4",
          "midi": 69,
          "time": 10.403333333333329,
          "velocity": 0.7874015748031497,
          "duration": 0.2841666666666658
        },
        {
          "name": "C#5",
          "midi": 73,
          "time": 10.59833333333333,
          "velocity": 0.3858267716535433,
          "duration": 0.00416666666666643
        },
        {
          "name": "E5",
          "midi": 76,
          "time": 10.600833333333329,
          "velocity": 0.7322834645669292,
          "duration": 0.18333333333333002
        },
        {
          "name": "E5",
          "midi": 76,
          "time": 10.602499999999996,
          "velocity": 0.8110236220472441,
          "duration": 0.18333333333333002
        },
        {
          "name": "D#2",
          "midi": 39,
          "time": 10.603333333333328,
          "velocity": 0.6299212598425197,
          "duration": 0.00416666666666643
        },
        {
          "name": "B1",
          "midi": 35,
          "time": 10.699999999999994,
          "velocity": 0.7874015748031497,
          "duration": 0.00416666666666643
        },
        {
          "name": "C#5",
          "midi": 73,
          "time": 10.795833333333325,
          "velocity": 0.41732283464566927,
          "duration": 0.00416666666666643
        },
        {
          "name": "D#2",
          "midi": 39,
          "time": 10.796666666666658,
          "velocity": 0.6614173228346457,
          "duration": 0.00416666666666643
        },
        {
          "name": "B4",
          "midi": 71,
          "time": 10.799999999999992,
          "velocity": 0.8818897637795275,
          "duration": 0.15999999999999837
        },
        {
          "name": "B4",
          "midi": 71,
          "time": 10.803333333333324,
          "velocity": 0.7952755905511811,
          "duration": 0.16000000000000014
        },
        {
          "name": "E2",
          "midi": 40,
          "time": 10.996666666666657,
          "velocity": 0.9133858267716536,
          "duration": 0.00416666666666643
        },
        {
          "name": "C#5",
          "midi": 73,
          "time": 10.998333333333324,
          "velocity": 0.4251968503937008,
          "duration": 0.0041666666666646535
        },
        {
          "name": "G#4",
          "midi": 68,
          "time": 10.999999999999991,
          "velocity": 0.9606299212598425,
          "duration": 0.16416666666665947
        },
        {
          "name": "G#4",
          "midi": 68,
          "time": 10.999999999999991,
          "velocity": 0.8503937007874016,
          "duration": 0.16416666666665947
        },
        {
          "name": "E5",
          "midi": 76,
          "time": 10.999999999999991,
          "velocity": 0.7559055118110236,
          "duration": 0.15499999999999403
        },
        {
          "name": "D#2",
          "midi": 39,
          "time": 11.000833333333324,
          "velocity": 0.6692913385826772,
          "duration": 0.0041666666666646535
        },
        {
          "name": "E4",
          "midi": 64,
          "time": 11.001666666666656,
          "velocity": 0.6850393700787402,
          "duration": 0.04916666666666458
        },
        {
          "name": "E5",
          "midi": 76,
          "time": 11.001666666666656,
          "velocity": 0.8346456692913385,
          "duration": 0.15499999999999403
        },
        {
          "name": "A4",
          "midi": 69,
          "time": 11.09833333333332,
          "velocity": 0.8346456692913385,
          "duration": 0.1933333333333298
        },
        {
          "name": "F1",
          "midi": 29,
          "time": 11.099166666666653,
          "velocity": 0.9448818897637795,
          "duration": 0.0041666666666646535
        },
        {
          "name": "E4",
          "midi": 64,
          "time": 11.101666666666652,
          "velocity": 0.6535433070866141,
          "duration": 0.05666666666666487
        },
        {
          "name": "A4",
          "midi": 69,
          "time": 11.102499999999985,
          "velocity": 0.7874015748031497,
          "duration": 0.28499999999999837
        },
        {
          "name": "E4",
          "midi": 64,
          "time": 11.197499999999984,
          "velocity": 0.8031496062992126,
          "duration": 0.2608333333333288
        },
        {
          "name": "E4",
          "midi": 64,
          "time": 11.199999999999983,
          "velocity": 0.9763779527559056,
          "duration": 0.3299999999999965
        },
        {
          "name": "B1",
          "midi": 35,
          "time": 11.199999999999983,
          "velocity": 0.7874015748031497,
          "duration": 0.00416666666666643
        },
        {
          "name": "D#2",
          "midi": 39,
          "time": 11.20166666666665,
          "velocity": 0.6299212598425197,
          "duration": 0.00416666666666643
        },
        {
          "name": "C#5",
          "midi": 73,
          "time": 11.203333333333317,
          "velocity": 0.3858267716535433,
          "duration": 0.00416666666666643
        },
        {
          "name": "B1",
          "midi": 35,
          "time": 11.299999999999983,
          "velocity": 0.7874015748031497,
          "duration": 0.00416666666666643
        },
        {
          "name": "E1",
          "midi": 28,
          "time": 11.39666666666665,
          "velocity": 0.8503937007874016,
          "duration": 0.2291666666666572
        },
        {
          "name": "E1",
          "midi": 28,
          "time": 11.397499999999983,
          "velocity": 0.8346456692913385,
          "duration": 0.23416666666665797
        },
        {
          "name": "E4",
          "midi": 64,
          "time": 11.397499999999983,
          "velocity": 0.6771653543307087,
          "duration": 0.13499999999999623
        },
        {
          "name": "E5",
          "midi": 76,
          "time": 11.398333333333316,
          "velocity": 0.8110236220472441,
          "duration": 0.1599999999999966
        },
        {
          "name": "C#5",
          "midi": 73,
          "time": 11.399166666666648,
          "velocity": 0.3937007874015748,
          "duration": 0.0041666666666646535
        },
        {
          "name": "E5",
          "midi": 76,
          "time": 11.399166666666648,
          "velocity": 0.7322834645669292,
          "duration": 0.1599999999999966
        },
        {
          "name": "D#2",
          "midi": 39,
          "time": 11.39999999999998,
          "velocity": 0.6377952755905512,
          "duration": 0.0041666666666646535
        },
        {
          "name": "E1",
          "midi": 28,
          "time": 11.40249999999998,
          "velocity": 0.8503937007874016,
          "duration": 0.2766666666666602
        },
        {
          "name": "D#2",
          "midi": 39,
          "time": 11.596666666666644,
          "velocity": 0.6299212598425197,
          "duration": 0.0041666666666646535
        },
        {
          "name": "E4",
          "midi": 64,
          "time": 11.597499999999977,
          "velocity": 0.7952755905511811,
          "duration": 0.07333333333333059
        },
        {
          "name": "F1",
          "midi": 29,
          "time": 11.59833333333331,
          "velocity": 0.9448818897637795,
          "duration": 0.00416666666666643
        },
        {
          "name": "E4",
          "midi": 64,
          "time": 11.599999999999977,
          "velocity": 0.952755905511811,
          "duration": 0.14416666666666522
        },
        {
          "name": "B1",
          "midi": 35,
          "time": 11.599999999999977,
          "velocity": 0.7874015748031497,
          "duration": 0.00416666666666643
        },
        {
          "name": "A4",
          "midi": 69,
          "time": 11.599999999999977,
          "velocity": 0.7874015748031497,
          "duration": 0.1883333333333308
        },
        {
          "name": "C#5",
          "midi": 73,
          "time": 11.60083333333331,
          "velocity": 0.3858267716535433,
          "duration": 0.00416666666666643
        },
        {
          "name": "E4",
          "midi": 64,
          "time": 11.60083333333331,
          "velocity": 0.6614173228346457,
          "duration": 0.14583333333333215
        },
        {
          "name": "A4",
          "midi": 69,
          "time": 11.602499999999976,
          "velocity": 0.8346456692913385,
          "duration": 0.28749999999999787
        },
        {
          "name": "D#2",
          "midi": 39,
          "time": 11.797499999999975,
          "velocity": 0.6614173228346457,
          "duration": 0.0041666666666646535
        },
        {
          "name": "F#4",
          "midi": 66,
          "time": 11.798333333333307,
          "velocity": 0.8110236220472441,
          "duration": 0.14999999999999858
        },
        {
          "name": "E5",
          "midi": 76,
          "time": 11.798333333333307,
          "velocity": 0.84251968503937,
          "duration": 0.149166666666666
        },
        {
          "name": "F#4",
          "midi": 66,
          "time": 11.799999999999974,
          "velocity": 0.8740157480314961,
          "duration": 0.14999999999999858
        },
        {
          "name": "C#5",
          "midi": 73,
          "time": 11.800833333333307,
          "velocity": 0.41732283464566927,
          "duration": 0.00416666666666643
        },
        {
          "name": "E5",
          "midi": 76,
          "time": 11.803333333333306,
          "velocity": 0.7637795275590551,
          "duration": 0.14833333333333343
        },
        {
          "name": "G#4",
          "midi": 68,
          "time": 11.995833333333307,
          "velocity": 0.8346456692913385,
          "duration": 0.2866666666666635
        },
        {
          "name": "A4",
          "midi": 69,
          "time": 11.99666666666664,
          "velocity": 0.8346456692913385,
          "duration": 0.192499999999999
        },
        {
          "name": "F1",
          "midi": 29,
          "time": 11.998333333333306,
          "velocity": 0.9448818897637795,
          "duration": 0.0041666666666646535
        },
        {
          "name": "C#5",
          "midi": 73,
          "time": 11.999166666666639,
          "velocity": 0.3937007874015748,
          "duration": 0.0041666666666646535
        },
        {
          "name": "G#4",
          "midi": 68,
          "time": 11.999999999999972,
          "velocity": 0.9291338582677166,
          "duration": 0.2858333333333327
        },
        {
          "name": "B1",
          "midi": 35,
          "time": 11.999999999999972,
          "velocity": 0.7874015748031497,
          "duration": 0.0041666666666646535
        },
        {
          "name": "E4",
          "midi": 64,
          "time": 12.001666666666639,
          "velocity": 0.7007874015748031,
          "duration": 0.051666666666664085
        },
        {
          "name": "D#2",
          "midi": 39,
          "time": 12.001666666666639,
          "velocity": 0.6377952755905512,
          "duration": 0.0041666666666646535
        },
        {
          "name": "A4",
          "midi": 69,
          "time": 12.001666666666639,
          "velocity": 0.7874015748031497,
          "duration": 0.28249999999999886
        },
        {
          "name": "E4",
          "midi": 64,
          "time": 12.099166666666639,
          "velocity": 0.6771653543307087,
          "duration": 0.0600000000000005
        },
        {
          "name": "C#5",
          "midi": 73,
          "time": 12.197499999999971,
          "velocity": 0.41732283464566927,
          "duration": 0.00416666666666643
        },
        {
          "name": "E5",
          "midi": 76,
          "time": 12.198333333333304,
          "velocity": 0.7322834645669292,
          "duration": 0.1833333333333318
        },
        {
          "name": "D#2",
          "midi": 39,
          "time": 12.19999999999997,
          "velocity": 0.6614173228346457,
          "duration": 0.00416666666666643
        },
        {
          "name": "E5",
          "midi": 76,
          "time": 12.203333333333305,
          "velocity": 0.8110236220472441,
          "duration": 0.18249999999999744
        },
        {
          "name": "E4",
          "midi": 64,
          "time": 12.299166666666638,
          "velocity": 0.6929133858267716,
          "duration": 0.05083333333333151
        },
        {
          "name": "F#4",
          "midi": 66,
          "time": 12.29999999999997,
          "velocity": 0.905511811023622,
          "duration": 0.2583333333333311
        },
        {
          "name": "F#4",
          "midi": 66,
          "time": 12.29999999999997,
          "velocity": 0.8582677165354331,
          "duration": 0.2583333333333311
        },
        {
          "name": "B1",
          "midi": 35,
          "time": 12.29999999999997,
          "velocity": 0.7874015748031497,
          "duration": 0.00416666666666643
        },
        {
          "name": "D#2",
          "midi": 39,
          "time": 12.397499999999969,
          "velocity": 0.6456692913385826,
          "duration": 0.00416666666666643
        },
        {
          "name": "C#5",
          "midi": 73,
          "time": 12.399999999999968,
          "velocity": 0.4015748031496063,
          "duration": 0.00416666666666643
        },
        {
          "name": "E4",
          "midi": 64,
          "time": 12.597499999999968,
          "velocity": 0.7874015748031497,
          "duration": 0.12583333333333258
        },
        {
          "name": "C#5",
          "midi": 73,
          "time": 12.599166666666635,
          "velocity": 0.4251968503937008,
          "duration": 0.0041666666666646535
        },
        {
          "name": "E4",
          "midi": 64,
          "time": 12.599999999999968,
          "velocity": 0.937007874015748,
          "duration": 0.125
        },
        {
          "name": "E5",
          "midi": 76,
          "time": 12.599999999999968,
          "velocity": 0.7559055118110236,
          "duration": 0.15500000000000114
        },
        {
          "name": "D#2",
          "midi": 39,
          "time": 12.6008333333333,
          "velocity": 0.6692913385826772,
          "duration": 0.00416666666666643
        },
        {
          "name": "E5",
          "midi": 76,
          "time": 12.6008333333333,
          "velocity": 0.8346456692913385,
          "duration": 0.15500000000000114
        },
        {
          "name": "E2",
          "midi": 40,
          "time": 12.602499999999967,
          "velocity": 0.9448818897637795,
          "duration": 0.00416666666666643
        },
        {
          "name": "A4",
          "midi": 69,
          "time": 12.6958333333333,
          "velocity": 0.8188976377952756,
          "duration": 0.19583333333333286
        },
        {
          "name": "F1",
          "midi": 29,
          "time": 12.696666666666633,
          "velocity": 0.9448818897637795,
          "duration": 0.00416666666666643
        },
        {
          "name": "A4",
          "midi": 69,
          "time": 12.702499999999967,
          "velocity": 0.7874015748031497,
          "duration": 0.2833333333333332
        },
        {
          "name": "E4",
          "midi": 64,
          "time": 12.7958333333333,
          "velocity": 0.8267716535433071,
          "duration": 0.3299999999999983
        },
        {
          "name": "E4",
          "midi": 64,
          "time": 12.799999999999967,
          "velocity": 0.9291338582677166,
          "duration": 0.3299999999999983
        },
        {
          "name": "B1",
          "midi": 35,
          "time": 12.799999999999967,
          "velocity": 0.7874015748031497,
          "duration": 0.00416666666666643
        },
        {
          "name": "C#5",
          "midi": 73,
          "time": 12.799999999999967,
          "velocity": 0.4251968503937008,
          "duration": 0.00416666666666643
        },
        {
          "name": "D#2",
          "midi": 39,
          "time": 12.8033333333333,
          "velocity": 0.6692913385826772,
          "duration": 0.00416666666666643
        },
        {
          "name": "B1",
          "midi": 35,
          "time": 12.899999999999967,
          "velocity": 0.7874015748031497,
          "duration": 0.00416666666666643
        },
        {
          "name": "E5",
          "midi": 76,
          "time": 12.9958333333333,
          "velocity": 0.8110236220472441,
          "duration": 0.15999999999999837
        },
        {
          "name": "E1",
          "midi": 28,
          "time": 12.997499999999967,
          "velocity": 0.7874015748031497,
          "duration": 0.4108333333333274
        },
        {
          "name": "C#5",
          "midi": 73,
          "time": 12.9983333333333,
          "velocity": 0.4015748031496063,
          "duration": 0.00416666666666643
        },
        {
          "name": "E5",
          "midi": 76,
          "time": 13.002499999999966,
          "velocity": 0.7322834645669292,
          "duration": 0.15999999999999837
        },
        {
          "name": "D#2",
          "midi": 39,
          "time": 13.003333333333298,
          "velocity": 0.6456692913385826,
          "duration": 0.00416666666666643
        },
        {
          "name": "A4",
          "midi": 69,
          "time": 13.195833333333297,
          "velocity": 0.8110236220472441,
          "duration": 0.1899999999999995
        },
        {
          "name": "E4",
          "midi": 64,
          "time": 13.195833333333297,
          "velocity": 0.8346456692913385,
          "duration": 0.15499999999999936
        },
        {
          "name": "F1",
          "midi": 29,
          "time": 13.195833333333297,
          "velocity": 0.9448818897637795,
          "duration": 0.00416666666666643
        },
        {
          "name": "A4",
          "midi": 69,
          "time": 13.197499999999964,
          "velocity": 0.7874015748031497,
          "duration": 0.2866666666666635
        },
        {
          "name": "E4",
          "midi": 64,
          "time": 13.199999999999964,
          "velocity": 0.9212598425196851,
          "duration": 0.15499999999999936
        },
        {
          "name": "B1",
          "midi": 35,
          "time": 13.199999999999964,
          "velocity": 0.7874015748031497,
          "duration": 0.00416666666666643
        },
        {
          "name": "D#2",
          "midi": 39,
          "time": 13.199999999999964,
          "velocity": 0.6456692913385826,
          "duration": 0.00416666666666643
        },
        {
          "name": "C#5",
          "midi": 73,
          "time": 13.199999999999964,
          "velocity": 0.4015748031496063,
          "duration": 0.00416666666666643
        },
        {
          "name": "E5",
          "midi": 76,
          "time": 13.396666666666631,
          "velocity": 0.84251968503937,
          "duration": 0.14833333333332988
        },
        {
          "name": "D#2",
          "midi": 39,
          "time": 13.397499999999964,
          "velocity": 0.6692913385826772,
          "duration": 0.0041666666666646535
        },
        {
          "name": "C#5",
          "midi": 73,
          "time": 13.397499999999964,
          "velocity": 0.4251968503937008,
          "duration": 0.0041666666666646535
        },
        {
          "name": "F#4",
          "midi": 66,
          "time": 13.398333333333296,
          "velocity": 0.8582677165354331,
          "duration": 0.15583333333333016
        },
        {
          "name": "F#4",
          "midi": 66,
          "time": 13.399999999999963,
          "velocity": 0.8740157480314961,
          "duration": 0.15583333333333016
        },
        {
          "name": "E5",
          "midi": 76,
          "time": 13.400833333333296,
          "velocity": 0.7637795275590551,
          "duration": 0.14833333333332988
        },
        {
          "name": "A4",
          "midi": 69,
          "time": 13.599999999999959,
          "velocity": 0.84251968503937,
          "duration": 0.19083333333333208
        },
        {
          "name": "G#4",
          "midi": 68,
          "time": 13.599999999999959,
          "velocity": 0.9763779527559056,
          "duration": 0.3366666666666642
        },
        {
          "name": "E3",
          "midi": 52,
          "time": 13.599999999999959,
          "velocity": 0.9448818897637795,
          "duration": 1.8266666666666467
        },
        {
          "name": "B1",
          "midi": 35,
          "time": 13.599999999999959,
          "velocity": 0.7874015748031497,
          "duration": 0.0041666666666646535
        },
        {
          "name": "G#4",
          "midi": 68,
          "time": 13.599999999999959,
          "velocity": 0.7874015748031497,
          "duration": 0.3374999999999968
        },
        {
          "name": "F1",
          "midi": 29,
          "time": 13.601666666666626,
          "velocity": 0.9448818897637795,
          "duration": 0.0041666666666646535
        },
        {
          "name": "C#5",
          "midi": 73,
          "time": 13.601666666666626,
          "velocity": 0.4015748031496063,
          "duration": 0.0041666666666646535
        },
        {
          "name": "D#2",
          "midi": 39,
          "time": 13.602499999999958,
          "velocity": 0.6456692913385826,
          "duration": 0.0041666666666646535
        },
        {
          "name": "A4",
          "midi": 69,
          "time": 13.60333333333329,
          "velocity": 0.7874015748031497,
          "duration": 0.2841666666666658
        },
        {
          "name": "D#2",
          "midi": 39,
          "time": 13.796666666666624,
          "velocity": 0.6456692913385826,
          "duration": 0.00416666666666643
        },
        {
          "name": "C#5",
          "midi": 73,
          "time": 13.796666666666624,
          "velocity": 0.4015748031496063,
          "duration": 0.00416666666666643
        },
        {
          "name": "E5",
          "midi": 76,
          "time": 13.797499999999957,
          "velocity": 0.7322834645669292,
          "duration": 0.18249999999999922
        },
        {
          "name": "E5",
          "midi": 76,
          "time": 13.80333333333329,
          "velocity": 0.8110236220472441,
          "duration": 0.18249999999999922
        },
        {
          "name": "B1",
          "midi": 35,
          "time": 13.899999999999956,
          "velocity": 0.7874015748031497,
          "duration": 0.00416666666666643
        },
        {
          "name": "D#2",
          "midi": 39,
          "time": 13.998333333333289,
          "velocity": 0.6456692913385826,
          "duration": 0.00416666666666643
        },
        {
          "name": "C#5",
          "midi": 73,
          "time": 14.001666666666623,
          "velocity": 0.4015748031496063,
          "duration": 0.00416666666666643
        },
        {
          "name": "E4",
          "midi": 64,
          "time": 14.19833333333329,
          "velocity": 0.6692913385826772,
          "duration": 0.049166666666662806
        },
        {
          "name": "E5",
          "midi": 76,
          "time": 14.19833333333329,
          "velocity": 0.7559055118110236,
          "duration": 0.15499999999999403
        },
        {
          "name": "C#5",
          "midi": 73,
          "time": 14.199166666666622,
          "velocity": 0.3858267716535433,
          "duration": 0.0041666666666646535
        },
        {
          "name": "B4",
          "midi": 71,
          "time": 14.199999999999955,
          "velocity": 0.8661417322834646,
          "duration": 0.08333333333333037
        },
        {
          "name": "D#2",
          "midi": 39,
          "time": 14.199999999999955,
          "velocity": 0.6299212598425197,
          "duration": 0.0041666666666646535
        },
        {
          "name": "E5",
          "midi": 76,
          "time": 14.200833333333287,
          "velocity": 0.8346456692913385,
          "duration": 0.1549999999999958
        },
        {
          "name": "E2",
          "midi": 40,
          "time": 14.202499999999954,
          "velocity": 0.9291338582677166,
          "duration": 0.0041666666666646535
        },
        {
          "name": "A4",
          "midi": 69,
          "time": 14.296666666666619,
          "velocity": 0.7952755905511811,
          "duration": 0.19416666666666238
        },
        {
          "name": "E4",
          "midi": 64,
          "time": 14.299166666666618,
          "velocity": 0.7007874015748031,
          "duration": 0.05666666666666487
        },
        {
          "name": "F1",
          "midi": 29,
          "time": 14.299166666666618,
          "velocity": 0.9448818897637795,
          "duration": 0.0041666666666646535
        },
        {
          "name": "B4",
          "midi": 71,
          "time": 14.299999999999951,
          "velocity": 0.7716535433070866,
          "duration": 0.08333333333333215
        },
        {
          "name": "A4",
          "midi": 69,
          "time": 14.300833333333284,
          "velocity": 0.7874015748031497,
          "duration": 0.2824999999999971
        },
        {
          "name": "E1",
          "midi": 28,
          "time": 14.396666666666617,
          "velocity": 0.8031496062992126,
          "duration": 0.2033333333333296
        },
        {
          "name": "B4",
          "midi": 71,
          "time": 14.39999999999995,
          "velocity": 0.8267716535433071,
          "duration": 0.13999999999999702
        },
        {
          "name": "B1",
          "midi": 35,
          "time": 14.39999999999995,
          "velocity": 0.7874015748031497,
          "duration": 0.0041666666666646535
        },
        {
          "name": "C#5",
          "midi": 73,
          "time": 14.400833333333283,
          "velocity": 0.3937007874015748,
          "duration": 0.0041666666666646535
        },
        {
          "name": "D#2",
          "midi": 39,
          "time": 14.401666666666616,
          "velocity": 0.6377952755905512,
          "duration": 0.0041666666666646535
        },
        {
          "name": "E1",
          "midi": 28,
          "time": 14.403333333333283,
          "velocity": 0.6614173228346457,
          "duration": 0.2233333333333274
        },
        {
          "name": "A4",
          "midi": 69,
          "time": 14.499999999999948,
          "velocity": 0.8661417322834646,
          "duration": 0.086666666666666
        },
        {
          "name": "B1",
          "midi": 35,
          "time": 14.499999999999948,
          "velocity": 0.7874015748031497,
          "duration": 0.00416666666666643
        },
        {
          "name": "F#4",
          "midi": 66,
          "time": 14.596666666666614,
          "velocity": 0.5511811023622047,
          "duration": 0.19916666666666316
        },
        {
          "name": "B4",
          "midi": 71,
          "time": 14.596666666666614,
          "velocity": 0.6614173228346457,
          "duration": 0.20666666666666167
        },
        {
          "name": "C#5",
          "midi": 73,
          "time": 14.597499999999947,
          "velocity": 0.4094488188976378,
          "duration": 0.0041666666666646535
        },
        {
          "name": "A4",
          "midi": 69,
          "time": 14.599999999999946,
          "velocity": 0.8346456692913385,
          "duration": 0.08333333333333037
        },
        {
          "name": "E4",
          "midi": 64,
          "time": 14.599999999999946,
          "velocity": 0.6850393700787402,
          "duration": 0.06083333333332952
        },
        {
          "name": "E5",
          "midi": 76,
          "time": 14.600833333333279,
          "velocity": 0.7322834645669292,
          "duration": 0.15999999999999837
        },
        {
          "name": "B1",
          "midi": 35,
          "time": 14.602499999999944,
          "velocity": 0.6614173228346457,
          "duration": 0.20166666666666444
        },
        {
          "name": "D#2",
          "midi": 39,
          "time": 14.602499999999944,
          "velocity": 0.6535433070866141,
          "duration": 0.00416666666666643
        },
        {
          "name": "E5",
          "midi": 76,
          "time": 14.602499999999944,
          "velocity": 0.8110236220472441,
          "duration": 0.16000000000000014
        },
        {
          "name": "B1",
          "midi": 35,
          "time": 14.603333333333277,
          "velocity": 0.8031496062992126,
          "duration": 0.2191666666666645
        },
        {
          "name": "A4",
          "midi": 69,
          "time": 14.699999999999944,
          "velocity": 0.8582677165354331,
          "duration": 0.08333333333333393
        },
        {
          "name": "C2",
          "midi": 36,
          "time": 14.795833333333277,
          "velocity": 0.9448818897637795,
          "duration": 1.147499999999992
        },
        {
          "name": "E4",
          "midi": 64,
          "time": 14.795833333333277,
          "velocity": 0.6692913385826772,
          "duration": 0.06999999999999673
        },
        {
          "name": "D#2",
          "midi": 39,
          "time": 14.795833333333277,
          "velocity": 0.6377952755905512,
          "duration": 0.00416666666666643
        },
        {
          "name": "A4",
          "midi": 69,
          "time": 14.797499999999944,
          "velocity": 0.7874015748031497,
          "duration": 0.11499999999999666
        },
        {
          "name": "F1",
          "midi": 29,
          "time": 14.799166666666611,
          "velocity": 0.9448818897637795,
          "duration": 0.0041666666666646535
        },
        {
          "name": "A4",
          "midi": 69,
          "time": 14.799999999999944,
          "velocity": 0.8188976377952756,
          "duration": 0.18499999999999872
        },
        {
          "name": "A4",
          "midi": 69,
          "time": 14.799999999999944,
          "velocity": 0.9291338582677166,
          "duration": 0.28749999999999787
        },
        {
          "name": "B1",
          "midi": 35,
          "time": 14.799999999999944,
          "velocity": 0.7874015748031497,
          "duration": 0.10749999999999638
        },
        {
          "name": "C2",
          "midi": 36,
          "time": 14.799999999999944,
          "velocity": 0.8267716535433071,
          "duration": 1.1924999999999901
        },
        {
          "name": "C5",
          "midi": 72,
          "time": 14.80166666666661,
          "velocity": 0.7559055118110236,
          "duration": 1.4083333333333155
        },
        {
          "name": "C#5",
          "midi": 73,
          "time": 14.802499999999943,
          "velocity": 0.3937007874015748,
          "duration": 0.0041666666666646535
        },
        {
          "name": "G4",
          "midi": 67,
          "time": 14.803333333333276,
          "velocity": 0.5354330708661418,
          "duration": 1.3916666666666533
        },
        {
          "name": "G#4",
          "midi": 68,
          "time": 14.89999999999994,
          "velocity": 0.8976377952755905,
          "duration": 0.0833333333333357
        },
        {
          "name": "D#2",
          "midi": 39,
          "time": 14.99666666666661,
          "velocity": 0.6692913385826772,
          "duration": 0.00416666666666643
        },
        {
          "name": "G#4",
          "midi": 68,
          "time": 14.999999999999943,
          "velocity": 0.8267716535433071,
          "duration": 0.08333333333333215
        },
        {
          "name": "E5",
          "midi": 76,
          "time": 14.999999999999943,
          "velocity": 0.84251968503937,
          "duration": 0.14833333333333165
        },
        {
          "name": "C#5",
          "midi": 73,
          "time": 15.000833333333276,
          "velocity": 0.4251968503937008,
          "duration": 0.00416666666666643
        },
        {
          "name": "E5",
          "midi": 76,
          "time": 15.001666666666608,
          "velocity": 0.7637795275590551,
          "duration": 0.149166666666666
        },
        {
          "name": "G#4",
          "midi": 68,
          "time": 15.099999999999941,
          "velocity": 0.84251968503937,
          "duration": 0.08333333333333393
        },
        {
          "name": "F1",
          "midi": 29,
          "time": 15.196666666666607,
          "velocity": 0.9448818897637795,
          "duration": 0.0041666666666646535
        },
        {
          "name": "D#2",
          "midi": 39,
          "time": 15.19749999999994,
          "velocity": 0.6692913385826772,
          "duration": 0.0041666666666646535
        },
        {
          "name": "A4",
          "midi": 69,
          "time": 15.198333333333272,
          "velocity": 0.7874015748031497,
          "duration": 0.18750000000000178
        },
        {
          "name": "G#4",
          "midi": 68,
          "time": 15.199999999999939,
          "velocity": 0.7716535433070866,
          "duration": 0.18416666666666792
        },
        {
          "name": "E4",
          "midi": 64,
          "time": 15.199999999999939,
          "velocity": 0.6850393700787402,
          "duration": 0.051666666666664085
        },
        {
          "name": "B1",
          "midi": 35,
          "time": 15.199999999999939,
          "velocity": 0.7874015748031497,
          "duration": 0.0041666666666646535
        },
        {
          "name": "A4",
          "midi": 69,
          "time": 15.201666666666604,
          "velocity": 0.8267716535433071,
          "duration": 0.2875000000000014
        },
        {
          "name": "C#5",
          "midi": 73,
          "time": 15.201666666666604,
          "velocity": 0.4251968503937008,
          "duration": 0.00416666666666643
        },
        {
          "name": "E4",
          "midi": 64,
          "time": 15.299166666666606,
          "velocity": 0.6535433070866141,
          "duration": 0.0600000000000005
        },
        {
          "name": "E5",
          "midi": 76,
          "time": 15.398333333333273,
          "velocity": 0.8110236220472441,
          "duration": 0.18249999999999922
        },
        {
          "name": "D#2",
          "midi": 39,
          "time": 15.398333333333273,
          "velocity": 0.6377952755905512,
          "duration": 0.00416666666666643
        },
        {
          "name": "F#4",
          "midi": 66,
          "time": 15.39999999999994,
          "velocity": 0.8818897637795275,
          "duration": 0.08333333333333215
        },
        {
          "name": "E5",
          "midi": 76,
          "time": 15.39999999999994,
          "velocity": 0.8346456692913385,
          "duration": 0.1833333333333318
        },
        {
          "name": "E5",
          "midi": 76,
          "time": 15.400833333333273,
          "velocity": 0.7322834645669292,
          "duration": 0.5499999999999954
        },
        {
          "name": "C#5",
          "midi": 73,
          "time": 15.403333333333272,
          "velocity": 0.3937007874015748,
          "duration": 0.00416666666666643
        },
        {
          "name": "F#4",
          "midi": 66,
          "time": 15.49999999999994,
          "velocity": 0.8346456692913385,
          "duration": 0.22083333333333144
        },
        {
          "name": "B1",
          "midi": 35,
          "time": 15.49999999999994,
          "velocity": 0.7874015748031497,
          "duration": 0.00416666666666643
        },
        {
          "name": "E4",
          "midi": 64,
          "time": 15.49999999999994,
          "velocity": 0.6535433070866141,
          "duration": 0.050833333333333286
        },
        {
          "name": "C#5",
          "midi": 73,
          "time": 15.599166666666605,
          "velocity": 0.3858267716535433,
          "duration": 0.00416666666666643
        },
        {
          "name": "D#2",
          "midi": 39,
          "time": 15.603333333333271,
          "velocity": 0.6299212598425197,
          "duration": 0.00416666666666643
        },
        {
          "name": "E5",
          "midi": 76,
          "time": 15.79583333333327,
          "velocity": 0.8346456692913385,
          "duration": 0.1574999999999971
        },
        {
          "name": "E5",
          "midi": 76,
          "time": 15.79833333333327,
          "velocity": 0.7559055118110236,
          "duration": 0.2199999999999971
        },
        {
          "name": "C#5",
          "midi": 73,
          "time": 15.79833333333327,
          "velocity": 0.3858267716535433,
          "duration": 0.00416666666666643
        },
        {
          "name": "B4",
          "midi": 71,
          "time": 15.799999999999937,
          "velocity": 0.8818897637795275,
          "duration": 0.08333333333333215
        },
        {
          "name": "E2",
          "midi": 40,
          "time": 15.799999999999937,
          "velocity": 0.9212598425196851,
          "duration": 0.00416666666666643
        },
        {
          "name": "D#2",
          "midi": 39,
          "time": 15.802499999999936,
          "velocity": 0.6299212598425197,
          "duration": 0.00416666666666643
        },
        {
          "name": "A4",
          "midi": 69,
          "time": 15.89833333333327,
          "velocity": 0.8267716535433071,
          "duration": 0.19166666666666288
        },
        {
          "name": "B4",
          "midi": 71,
          "time": 15.899999999999936,
          "velocity": 0.8031496062992126,
          "duration": 0.08333333333333037
        },
        {
          "name": "A4",
          "midi": 69,
          "time": 15.900833333333269,
          "velocity": 0.7874015748031497,
          "duration": 0.28249999999999353
        },
        {
          "name": "F1",
          "midi": 29,
          "time": 15.902499999999936,
          "velocity": 0.9448818897637795,
          "duration": 0.00416666666666643
        },
        {
          "name": "C2",
          "midi": 36,
          "time": 15.995833333333268,
          "velocity": 0.8582677165354331,
          "duration": 0.20249999999999524
        },
        {
          "name": "C#5",
          "midi": 73,
          "time": 15.999166666666602,
          "velocity": 0.3858267716535433,
          "duration": 0.0041666666666646535
        },
        {
          "name": "B4",
          "midi": 71,
          "time": 15.999999999999934,
          "velocity": 0.8188976377952756,
          "duration": 0.10999999999999766
        },
        {
          "name": "B1",
          "midi": 35,
          "time": 15.999999999999934,
          "velocity": 0.7874015748031497,
          "duration": 0.0041666666666646535
        },
        {
          "name": "D#2",
          "midi": 39,
          "time": 15.999999999999934,
          "velocity": 0.6299212598425197,
          "duration": 0.0041666666666646535
        },
        {
          "name": "C2",
          "midi": 36,
          "time": 16.0016666666666,
          "velocity": 0.889763779527559,
          "duration": 0.2099999999999902
        },
        {
          "name": "A4",
          "midi": 69,
          "time": 16.099999999999934,
          "velocity": 0.8661417322834646,
          "duration": 0.0883333333333276
        },
        {
          "name": "B1",
          "midi": 35,
          "time": 16.099999999999934,
          "velocity": 0.7874015748031497,
          "duration": 0.00416666666666643
        },
        {
          "name": "E5",
          "midi": 76,
          "time": 16.199166666666596,
          "velocity": 0.7322834645669292,
          "duration": 0.15999999999999304
        },
        {
          "name": "E5",
          "midi": 76,
          "time": 16.199166666666596,
          "velocity": 0.8110236220472441,
          "duration": 0.15999999999999304
        },
        {
          "name": "A4",
          "midi": 69,
          "time": 16.19999999999993,
          "velocity": 0.8582677165354331,
          "duration": 0.0833333333333286
        },
        {
          "name": "D#2",
          "midi": 39,
          "time": 16.19999999999993,
          "velocity": 0.6614173228346457,
          "duration": 0.004166666666662877
        },
        {
          "name": "B1",
          "midi": 35,
          "time": 16.20083333333326,
          "velocity": 0.889763779527559,
          "duration": 0.20333333333332249
        },
        {
          "name": "B4",
          "midi": 71,
          "time": 16.20083333333326,
          "velocity": 0.6771653543307087,
          "duration": 0.20083333333332476
        },
        {
          "name": "B1",
          "midi": 35,
          "time": 16.201666666666593,
          "velocity": 0.8582677165354331,
          "duration": 0.22083333333332433
        },
        {
          "name": "F#4",
          "midi": 66,
          "time": 16.201666666666593,
          "velocity": 0.6456692913385826,
          "duration": 0.19166666666666288
        },
        {
          "name": "C#5",
          "midi": 73,
          "time": 16.20333333333326,
          "velocity": 0.41732283464566927,
          "duration": 0.00416666666666643
        },
        {
          "name": "A4",
          "midi": 69,
          "time": 16.299999999999923,
          "velocity": 0.7637795275590551,
          "duration": 0.08333333333333215
        },
        {
          "name": "F1",
          "midi": 29,
          "time": 16.39666666666659,
          "velocity": 0.9448818897637795,
          "duration": 0.004166666666662877
        },
        {
          "name": "E4",
          "midi": 64,
          "time": 16.397499999999923,
          "velocity": 0.5118110236220472,
          "duration": 1.0524999999999736
        },
        {
          "name": "D#2",
          "midi": 39,
          "time": 16.397499999999923,
          "velocity": 0.6456692913385826,
          "duration": 0.004166666666662877
        },
        {
          "name": "A1",
          "midi": 33,
          "time": 16.398333333333255,
          "velocity": 0.889763779527559,
          "duration": 1.1258333333333077
        },
        {
          "name": "A4",
          "midi": 69,
          "time": 16.39999999999992,
          "velocity": 0.8346456692913385,
          "duration": 0.11249999999999716
        },
        {
          "name": "B1",
          "midi": 35,
          "time": 16.39999999999992,
          "velocity": 0.7874015748031497,
          "duration": 0.03166666666666629
        },
        {
          "name": "A4",
          "midi": 69,
          "time": 16.39999999999992,
          "velocity": 0.7874015748031497,
          "duration": 0.18749999999999645
        },
        {
          "name": "A1",
          "midi": 33,
          "time": 16.400833333333253,
          "velocity": 0.7874015748031497,
          "duration": 1.1941666666666464
        },
        {
          "name": "A4",
          "midi": 69,
          "time": 16.401666666666586,
          "velocity": 0.7244094488188977,
          "duration": 0.289166666666663
        },
        {
          "name": "A4",
          "midi": 69,
          "time": 16.402499999999918,
          "velocity": 0.8110236220472441,
          "duration": 0.5849999999999831
        },
        {
          "name": "C#5",
          "midi": 73,
          "time": 16.402499999999918,
          "velocity": 0.4015748031496063,
          "duration": 0.00416666666666643
        },
        {
          "name": "G#4",
          "midi": 68,
          "time": 16.49999999999992,
          "velocity": 0.8661417322834646,
          "duration": 0.08333333333333215
        },
        {
          "name": "C#5",
          "midi": 73,
          "time": 16.59583333333325,
          "velocity": 0.3858267716535433,
          "duration": 0.00416666666666643
        },
        {
          "name": "E5",
          "midi": 76,
          "time": 16.597499999999915,
          "velocity": 0.84251968503937,
          "duration": 0.149166666666666
        },
        {
          "name": "G#4",
          "midi": 68,
          "time": 16.599999999999916,
          "velocity": 0.7952755905511811,
          "duration": 0.08333333333333215
        },
        {
          "name": "D#2",
          "midi": 39,
          "time": 16.60083333333325,
          "velocity": 0.6299212598425197,
          "duration": 0.00416666666666643
        },
        {
          "name": "E5",
          "midi": 76,
          "time": 16.60333333333325,
          "velocity": 0.7637795275590551,
          "duration": 0.14916666666666245
        },
        {
          "name": "G#4",
          "midi": 68,
          "time": 16.699999999999914,
          "velocity": 0.7952755905511811,
          "duration": 0.08333333333333215
        },
        {
          "name": "C#5",
          "midi": 73,
          "time": 16.79749999999991,
          "velocity": 0.4251968503937008,
          "duration": 0.004166666666662877
        },
        {
          "name": "A4",
          "midi": 69,
          "time": 16.798333333333243,
          "velocity": 0.8582677165354331,
          "duration": 0.2874999999999943
        },
        {
          "name": "D#2",
          "midi": 39,
          "time": 16.798333333333243,
          "velocity": 0.6692913385826772,
          "duration": 0.004166666666662877
        },
        {
          "name": "G#4",
          "midi": 68,
          "time": 16.79999999999991,
          "velocity": 0.7716535433070866,
          "duration": 0.1633333333333269
        },
        {
          "name": "B1",
          "midi": 35,
          "time": 16.79999999999991,
          "velocity": 0.7874015748031497,
          "duration": 0.004166666666662877
        },
        {
          "name": "A4",
          "midi": 69,
          "time": 16.79999999999991,
          "velocity": 0.7874015748031497,
          "duration": 0.8891666666666502
        },
        {
          "name": "F1",
          "midi": 29,
          "time": 16.802499999999906,
          "velocity": 0.9448818897637795,
          "duration": 0.00416666666666643
        },
        {
          "name": "E5",
          "midi": 76,
          "time": 16.997499999999903,
          "velocity": 0.7322834645669292,
          "duration": 0.18333333333333712
        },
        {
          "name": "F#4",
          "midi": 66,
          "time": 16.999999999999904,
          "velocity": 0.8582677165354331,
          "duration": 0.08333333333333215
        },
        {
          "name": "E5",
          "midi": 76,
          "time": 16.999999999999904,
          "velocity": 0.8110236220472441,
          "duration": 0.182500000000001
        },
        {
          "name": "D#2",
          "midi": 39,
          "time": 17.000833333333237,
          "velocity": 0.6692913385826772,
          "duration": 0.00416666666666643
        },
        {
          "name": "C#5",
          "midi": 73,
          "time": 17.00166666666657,
          "velocity": 0.4251968503937008,
          "duration": 0.00416666666666643
        },
        {
          "name": "F#4",
          "midi": 66,
          "time": 17.099999999999905,
          "velocity": 0.8110236220472441,
          "duration": 0.16916666666666202
        },
        {
          "name": "B1",
          "midi": 35,
          "time": 17.099999999999905,
          "velocity": 0.7874015748031497,
          "duration": 0.00416666666666643
        },
        {
          "name": "D#2",
          "midi": 39,
          "time": 17.199999999999903,
          "velocity": 0.6692913385826772,
          "duration": 0.00416666666666643
        },
        {
          "name": "C#5",
          "midi": 73,
          "time": 17.20166666666657,
          "velocity": 0.4251968503937008,
          "duration": 0.00416666666666643
        },
        {
          "name": "B4",
          "midi": 71,
          "time": 17.2999999999999,
          "velocity": 0.9212598425196851,
          "duration": 0.1458333333333286
        },
        {
          "name": "E5",
          "midi": 76,
          "time": 17.395833333333236,
          "velocity": 0.7559055118110236,
          "duration": 0.15499999999999403
        },
        {
          "name": "C#5",
          "midi": 73,
          "time": 17.3974999999999,
          "velocity": 0.4015748031496063,
          "duration": 0.004166666666662877
        },
        {
          "name": "E5",
          "midi": 76,
          "time": 17.399166666666567,
          "velocity": 0.8346456692913385,
          "duration": 0.15499999999999758
        },
        {
          "name": "E2",
          "midi": 40,
          "time": 17.40083333333323,
          "velocity": 0.9133858267716536,
          "duration": 0.004166666666662877
        },
        {
          "name": "E4",
          "midi": 64,
          "time": 17.40083333333323,
          "velocity": 0.6456692913385826,
          "duration": 0.15916666666666401
        },
        {
          "name": "D#2",
          "midi": 39,
          "time": 17.40333333333323,
          "velocity": 0.6456692913385826,
          "duration": 0.00416666666666643
        },
        {
          "name": "B4",
          "midi": 71,
          "time": 17.499999999999897,
          "velocity": 0.8346456692913385,
          "duration": 0.09166666666666856
        },
        {
          "name": "A4",
          "midi": 69,
          "time": 17.499999999999897,
          "velocity": 0.7874015748031497,
          "duration": 0.2924999999999933
        },
        {
          "name": "A4",
          "midi": 69,
          "time": 17.5024999999999,
          "velocity": 0.8582677165354331,
          "duration": 0.2958333333333236
        },
        {
          "name": "E4",
          "midi": 64,
          "time": 17.50333333333323,
          "velocity": 0.6771653543307087,
          "duration": 0.2824999999999953
        },
        {
          "name": "F1",
          "midi": 29,
          "time": 17.50333333333323,
          "velocity": 0.9448818897637795,
          "duration": 0.00416666666666643
        },
        {
          "name": "A1",
          "midi": 33,
          "time": 17.598333333333233,
          "velocity": 0.8661417322834646,
          "duration": 0.19666666666665833
        },
        {
          "name": "B4",
          "midi": 71,
          "time": 17.5999999999999,
          "velocity": 0.8661417322834646,
          "duration": 0.1874999999999929
        },
        {
          "name": "B1",
          "midi": 35,
          "time": 17.5999999999999,
          "velocity": 0.7874015748031497,
          "duration": 0.004166666666662877
        },
        {
          "name": "C#5",
          "midi": 73,
          "time": 17.60083333333323,
          "velocity": 0.3937007874015748,
          "duration": 0.004166666666662877
        },
        {
          "name": "A1",
          "midi": 33,
          "time": 17.601666666666564,
          "velocity": 0.7874015748031497,
          "duration": 0.22083333333332078
        },
        {
          "name": "D#2",
          "midi": 39,
          "time": 17.602499999999896,
          "velocity": 0.6377952755905512,
          "duration": 0.004166666666662877
        },
        {
          "name": "B1",
          "midi": 35,
          "time": 17.699999999999893,
          "velocity": 0.7874015748031497,
          "duration": 0.00416666666666643
        },
        {
          "name": "E5",
          "midi": 76,
          "time": 17.795833333333224,
          "velocity": 0.8110236220472441,
          "duration": 0.15999999999999304
        },
        {
          "name": "E4",
          "midi": 64,
          "time": 17.796666666666557,
          "velocity": 0.6535433070866141,
          "duration": 0.05999999999999517
        },
        {
          "name": "F#4",
          "midi": 66,
          "time": 17.79749999999989,
          "velocity": 0.5511811023622047,
          "duration": 0.21583333333332178
        },
        {
          "name": "B1",
          "midi": 35,
          "time": 17.79749999999989,
          "velocity": 0.8267716535433071,
          "duration": 0.20666666666665634
        },
        {
          "name": "B1",
          "midi": 35,
          "time": 17.798333333333222,
          "velocity": 0.8661417322834646,
          "duration": 0.2374999999999865
        },
        {
          "name": "B4",
          "midi": 71,
          "time": 17.798333333333222,
          "velocity": 0.5669291338582677,
          "duration": 0.23583333333332135
        },
        {
          "name": "A4",
          "midi": 69,
          "time": 17.799999999999887,
          "velocity": 0.9212598425196851,
          "duration": 0.08333333333333215
        },
        {
          "name": "E5",
          "midi": 76,
          "time": 17.799999999999887,
          "velocity": 0.7322834645669292,
          "duration": 0.1599999999999966
        },
        {
          "name": "D#2",
          "midi": 39,
          "time": 17.80083333333322,
          "velocity": 0.6299212598425197,
          "duration": 0.00416666666666643
        },
        {
          "name": "C#5",
          "midi": 73,
          "time": 17.801666666666552,
          "velocity": 0.3858267716535433,
          "duration": 0.00416666666666643
        },
        {
          "name": "A4",
          "midi": 69,
          "time": 17.899999999999885,
          "velocity": 0.8188976377952756,
          "duration": 0.08333333333333215
        },
        {
          "name": "G4",
          "midi": 67,
          "time": 17.996666666666552,
          "velocity": 0.5984251968503937,
          "duration": 1.3924999999999734
        },
        {
          "name": "C2",
          "midi": 36,
          "time": 17.997499999999885,
          "velocity": 0.905511811023622,
          "duration": 1.1016666666666417
        },
        {
          "name": "C5",
          "midi": 72,
          "time": 17.998333333333218,
          "velocity": 0.7322834645669292,
          "duration": 1.4441666666666322
        },
        {
          "name": "D#2",
          "midi": 39,
          "time": 17.99916666666655,
          "velocity": 0.6299212598425197,
          "duration": 0.004166666666662877
        },
        {
          "name": "C#5",
          "midi": 73,
          "time": 17.99916666666655,
          "velocity": 0.3858267716535433,
          "duration": 0.004166666666662877
        },
        {
          "name": "A4",
          "midi": 69,
          "time": 17.999999999999883,
          "velocity": 0.8976377952755905,
          "duration": 0.1874999999999929
        },
        {
          "name": "B1",
          "midi": 35,
          "time": 17.999999999999883,
          "velocity": 0.7874015748031497,
          "duration": 0.054166666666660035
        },
        {
          "name": "F1",
          "midi": 29,
          "time": 18.000833333333215,
          "velocity": 0.9448818897637795,
          "duration": 0.004166666666662877
        },
        {
          "name": "A4",
          "midi": 69,
          "time": 18.001666666666548,
          "velocity": 0.84251968503937,
          "duration": 0.18999999999999417
        },
        {
          "name": "C2",
          "midi": 36,
          "time": 18.00249999999988,
          "velocity": 0.8188976377952756,
          "duration": 1.1916666666666451
        },
        {
          "name": "E4",
          "midi": 64,
          "time": 18.003333333333213,
          "velocity": 0.6771653543307087,
          "duration": 0.06999999999999318
        },
        {
          "name": "A4",
          "midi": 69,
          "time": 18.003333333333213,
          "velocity": 0.7874015748031497,
          "duration": 0.28666666666666174
        },
        {
          "name": "D#2",
          "midi": 39,
          "time": 18.19666666666654,
          "velocity": 0.6456692913385826,
          "duration": 0.00416666666666643
        },
        {
          "name": "C#5",
          "midi": 73,
          "time": 18.199166666666542,
          "velocity": 0.4015748031496063,
          "duration": 0.00416666666666643
        },
        {
          "name": "G#4",
          "midi": 68,
          "time": 18.199999999999875,
          "velocity": 0.8267716535433071,
          "duration": 0.1858333333333313
        },
        {
          "name": "E5",
          "midi": 76,
          "time": 18.200833333333208,
          "velocity": 0.7637795275590551,
          "duration": 0.14833333333333343
        },
        {
          "name": "E5",
          "midi": 76,
          "time": 18.200833333333208,
          "velocity": 0.84251968503937,
          "duration": 0.149166666666666
        },
        {
          "name": "C#5",
          "midi": 73,
          "time": 18.39833333333321,
          "velocity": 0.4015748031496063,
          "duration": 0.004166666666662877
        },
        {
          "name": "F1",
          "midi": 29,
          "time": 18.39833333333321,
          "velocity": 0.9448818897637795,
          "duration": 0.004166666666662877
        },
        {
          "name": "G#4",
          "midi": 68,
          "time": 18.399999999999874,
          "velocity": 0.8346456692913385,
          "duration": 0.16999999999999815
        },
        {
          "name": "B1",
          "midi": 35,
          "time": 18.399999999999874,
          "velocity": 0.7874015748031497,
          "duration": 0.004166666666662877
        },
        {
          "name": "A4",
          "midi": 69,
          "time": 18.400833333333207,
          "velocity": 0.7874015748031497,
          "duration": 0.1875
        },
        {
          "name": "D#2",
          "midi": 39,
          "time": 18.40166666666654,
          "velocity": 0.6456692913385826,
          "duration": 0.004166666666662877
        },
        {
          "name": "E4",
          "midi": 64,
          "time": 18.40166666666654,
          "velocity": 0.6614173228346457,
          "duration": 0.05249999999999844
        },
        {
          "name": "A4",
          "midi": 69,
          "time": 18.402499999999872,
          "velocity": 0.8582677165354331,
          "duration": 0.28749999999999787
        },
        {
          "name": "E4",
          "midi": 64,
          "time": 18.503333333333206,
          "velocity": 0.6771653543307087,
          "duration": 0.05999999999999872
        },
        {
          "name": "E5",
          "midi": 76,
          "time": 18.597499999999872,
          "velocity": 0.8110236220472441,
          "duration": 0.18249999999999744
        },
        {
          "name": "C#5",
          "midi": 73,
          "time": 18.599166666666537,
          "velocity": 0.4251968503937008,
          "duration": 0.00416666666666643
        },
        {
          "name": "F#4",
          "midi": 66,
          "time": 18.59999999999987,
          "velocity": 0.8976377952755905,
          "duration": 0.08333333333333215
        },
        {
          "name": "E5",
          "midi": 76,
          "time": 18.59999999999987,
          "velocity": 0.8346456692913385,
          "duration": 0.182500000000001
        },
        {
          "name": "E5",
          "midi": 76,
          "time": 18.59999999999987,
          "velocity": 0.7322834645669292,
          "duration": 0.5533333333333204
        },
        {
          "name": "D#2",
          "midi": 39,
          "time": 18.600833333333203,
          "velocity": 0.6692913385826772,
          "duration": 0.00416666666666643
        },
        {
          "name": "E4",
          "midi": 64,
          "time": 18.6958333333332,
          "velocity": 0.6771653543307087,
          "duration": 0.050833333333333286
        },
        {
          "name": "F#4",
          "midi": 66,
          "time": 18.699999999999868,
          "velocity": 0.889763779527559,
          "duration": 0.230833333333333
        },
        {
          "name": "B1",
          "midi": 35,
          "time": 18.699999999999868,
          "velocity": 0.7874015748031497,
          "duration": 0.00416666666666643
        },
        {
          "name": "C#5",
          "midi": 73,
          "time": 18.79999999999987,
          "velocity": 0.4015748031496063,
          "duration": 0.00416666666666643
        },
        {
          "name": "D#2",
          "midi": 39,
          "time": 18.801666666666534,
          "velocity": 0.6456692913385826,
          "duration": 0.00416666666666643
        },
        {
          "name": "C#5",
          "midi": 73,
          "time": 18.995833333333202,
          "velocity": 0.4094488188976378,
          "duration": 0.00416666666666643
        },
        {
          "name": "E5",
          "midi": 76,
          "time": 18.998333333333203,
          "velocity": 0.8346456692913385,
          "duration": 0.15999999999998948
        },
        {
          "name": "B4",
          "midi": 71,
          "time": 18.99999999999987,
          "velocity": 0.889763779527559,
          "duration": 0.0833333333333286
        },
        {
          "name": "D#2",
          "midi": 39,
          "time": 18.99999999999987,
          "velocity": 0.6535433070866141,
          "duration": 0.00416666666666643
        },
        {
          "name": "E2",
          "midi": 40,
          "time": 18.99999999999987,
          "velocity": 0.905511811023622,
          "duration": 0.00416666666666643
        },
        {
          "name": "E5",
          "midi": 76,
          "time": 19.003333333333202,
          "velocity": 0.7559055118110236,
          "duration": 0.2149999999999892
        },
        {
          "name": "A4",
          "midi": 69,
          "time": 19.095833333333196,
          "velocity": 0.8346456692913385,
          "duration": 0.19166666666666288
        },
        {
          "name": "F1",
          "midi": 29,
          "time": 19.09666666666653,
          "velocity": 0.9448818897637795,
          "duration": 0.004166666666662877
        },
        {
          "name": "A4",
          "midi": 69,
          "time": 19.098333333333194,
          "velocity": 0.7874015748031497,
          "duration": 0.2849999999999966
        },
        {
          "name": "B4",
          "midi": 71,
          "time": 19.09999999999986,
          "velocity": 0.8110236220472441,
          "duration": 0.08333333333333215
        },
        {
          "name": "A1",
          "midi": 33,
          "time": 19.196666666666527,
          "velocity": 0.905511811023622,
          "duration": 0.19666666666666544
        },
        {
          "name": "D#2",
          "midi": 39,
          "time": 19.19749999999986,
          "velocity": 0.6692913385826772,
          "duration": 0.00416666666666643
        },
        {
          "name": "B4",
          "midi": 71,
          "time": 19.19999999999986,
          "velocity": 0.8267716535433071,
          "duration": 0.08916666666666373
        },
        {
          "name": "B1",
          "midi": 35,
          "time": 19.19999999999986,
          "velocity": 0.7874015748031497,
          "duration": 0.004166666666662877
        },
        {
          "name": "C#5",
          "midi": 73,
          "time": 19.19999999999986,
          "velocity": 0.4251968503937008,
          "duration": 0.004166666666662877
        },
        {
          "name": "C2",
          "midi": 36,
          "time": 19.20333333333319,
          "velocity": 0.8110236220472441,
          "duration": 0.21416666666666018
        },
        {
          "name": "A4",
          "midi": 69,
          "time": 19.29999999999986,
          "velocity": 0.8661417322834646,
          "duration": 0.08583333333333343
        },
        {
          "name": "B1",
          "midi": 35,
          "time": 19.29999999999986,
          "velocity": 0.7874015748031497,
          "duration": 0.00416666666666643
        },
        {
          "name": "B1",
          "midi": 35,
          "time": 19.396666666666526,
          "velocity": 0.8346456692913385,
          "duration": 0.18999999999998707
        },
        {
          "name": "E5",
          "midi": 76,
          "time": 19.39833333333319,
          "velocity": 0.8110236220472441,
          "duration": 0.15999999999998948
        },
        {
          "name": "F#4",
          "midi": 66,
          "time": 19.399166666666524,
          "velocity": 0.5826771653543307,
          "duration": 0.20333333333332249
        },
        {
          "name": "C#5",
          "midi": 73,
          "time": 19.399166666666524,
          "velocity": 0.4094488188976378,
          "duration": 0.004166666666662877
        },
        {
          "name": "A4",
          "midi": 69,
          "time": 19.399999999999856,
          "velocity": 0.8267716535433071,
          "duration": 0.08333333333332504
        },
        {
          "name": "E5",
          "midi": 76,
          "time": 19.399999999999856,
          "velocity": 0.7322834645669292,
          "duration": 0.15999999999998948
        },
        {
          "name": "D#2",
          "midi": 39,
          "time": 19.40083333333319,
          "velocity": 0.6535433070866141,
          "duration": 0.004166666666662877
        },
        {
          "name": "B1",
          "midi": 35,
          "time": 19.40166666666652,
          "velocity": 0.937007874015748,
          "duration": 0.2024999999999899
        },
        {
          "name": "B4",
          "midi": 71,
          "time": 19.402499999999854,
          "velocity": 0.5590551181102362,
          "duration": 0.21583333333332533
        },
        {
          "name": "A4",
          "midi": 69,
          "time": 19.499999999999847,
          "velocity": 0.8267716535433071,
          "duration": 0.08333333333333215
        },
        {
          "name": "A4",
          "midi": 69,
          "time": 19.59583333333318,
          "velocity": 0.8582677165354331,
          "duration": 0.10166666666666657
        },
        {
          "name": "A1",
          "midi": 33,
          "time": 19.59833333333318,
          "velocity": 0.8188976377952756,
          "duration": 0.7133333333333134
        },
        {
          "name": "D#2",
          "midi": 39,
          "time": 19.59833333333318,
          "velocity": 0.6377952755905512,
          "duration": 0.00416666666666643
        },
        {
          "name": "F1",
          "midi": 29,
          "time": 19.59833333333318,
          "velocity": 0.9448818897637795,
          "duration": 0.00416666666666643
        },
        {
          "name": "A4",
          "midi": 69,
          "time": 19.59833333333318,
          "velocity": 0.7874015748031497,
          "duration": 0.18833333333333258
        },
        {
          "name": "A1",
          "midi": 33,
          "time": 19.599166666666513,
          "velocity": 0.905511811023622,
          "duration": 0.7149999999999821
        },
        {
          "name": "A4",
          "midi": 69,
          "time": 19.599999999999845,
          "velocity": 0.7322834645669292,
          "duration": 0.284166666666664
        },
        {
          "name": "A4",
          "midi": 69,
          "time": 19.599999999999845,
          "velocity": 0.8976377952755905,
          "duration": 0.5874999999999844
        },
        {
          "name": "B1",
          "midi": 35,
          "time": 19.599999999999845,
          "velocity": 0.7874015748031497,
          "duration": 0.00416666666666643
        },
        {
          "name": "E4",
          "midi": 64,
          "time": 19.599999999999845,
          "velocity": 0.5748031496062992,
          "duration": 0.7833333333333172
        },
        {
          "name": "C#5",
          "midi": 73,
          "time": 19.599999999999845,
          "velocity": 0.3937007874015748,
          "duration": 0.00416666666666643
        },
        {
          "name": "G#4",
          "midi": 68,
          "time": 19.699999999999847,
          "velocity": 0.8976377952755905,
          "duration": 0.08333333333333215
        },
        {
          "name": "D#2",
          "midi": 39,
          "time": 19.796666666666514,
          "velocity": 0.6535433070866141,
          "duration": 0.004166666666662877
        },
        {
          "name": "E5",
          "midi": 76,
          "time": 19.797499999999847,
          "velocity": 0.7637795275590551,
          "duration": 0.14916666666666245
        },
        {
          "name": "E5",
          "midi": 76,
          "time": 19.79833333333318,
          "velocity": 0.84251968503937,
          "duration": 0.14916666666666245
        },
        {
          "name": "G#4",
          "midi": 68,
          "time": 19.799999999999844,
          "velocity": 0.7716535433070866,
          "duration": 0.08333333333333215
        },
        {
          "name": "C#5",
          "midi": 73,
          "time": 19.800833333333177,
          "velocity": 0.4094488188976378,
          "duration": 0.00416666666666643
        },
        {
          "name": "G#4",
          "midi": 68,
          "time": 19.899999999999842,
          "velocity": 0.7952755905511811,
          "duration": 0.08333333333333215
        },
        {
          "name": "F1",
          "midi": 29,
          "time": 19.99749999999984,
          "velocity": 0.9448818897637795,
          "duration": 0.004166666666662877
        },
        {
          "name": "A4",
          "midi": 69,
          "time": 19.999166666666504,
          "velocity": 0.8346456692913385,
          "duration": 0.28749999999999076
        },
        {
          "name": "G#4",
          "midi": 68,
          "time": 19.999999999999837,
          "velocity": 0.7874015748031497,
          "duration": 0.15999999999999304
        },
        {
          "name": "B1",
          "midi": 35,
          "time": 19.999999999999837,
          "velocity": 0.7874015748031497,
          "duration": 0.004166666666662877
        },
        {
          "name": "A4",
          "midi": 69,
          "time": 19.999999999999837,
          "velocity": 0.7874015748031497,
          "duration": 0.5241666666666518
        },
        {
          "name": "D#2",
          "midi": 39,
          "time": 20.002499999999834,
          "velocity": 0.6377952755905512,
          "duration": 0.00416666666666643
        },
        {
          "name": "C#5",
          "midi": 73,
          "time": 20.003333333333167,
          "velocity": 0.3937007874015748,
          "duration": 0.00416666666666643
        },
        {
          "name": "C#5",
          "midi": 73,
          "time": 20.196666666666495,
          "velocity": 0.41732283464566927,
          "duration": 0.00416666666666643
        },
        {
          "name": "F#4",
          "midi": 66,
          "time": 20.19999999999983,
          "velocity": 0.8740157480314961,
          "duration": 0.08333333333333215
        },
        {
          "name": "D#2",
          "midi": 39,
          "time": 20.201666666666494,
          "velocity": 0.6614173228346457,
          "duration": 0.00416666666666643
        },
        {
          "name": "E5",
          "midi": 76,
          "time": 20.201666666666494,
          "velocity": 0.8110236220472441,
          "duration": 0.182500000000001
        },
        {
          "name": "E5",
          "midi": 76,
          "time": 20.202499999999826,
          "velocity": 0.7322834645669292,
          "duration": 0.18333333333333357
        },
        {
          "name": "E4",
          "midi": 64,
          "time": 20.29749999999983,
          "velocity": 0.6850393700787402,
          "duration": 0.22499999999999432
        },
        {
          "name": "E1",
          "midi": 28,
          "time": 20.29833333333316,
          "velocity": 0.9291338582677166,
          "duration": 0.16416666666666302
        },
        {
          "name": "E4",
          "midi": 64,
          "time": 20.299999999999827,
          "velocity": 0.937007874015748,
          "duration": 0.25499999999999545
        },
        {
          "name": "B1",
          "midi": 35,
          "time": 20.299999999999827,
          "velocity": 0.7874015748031497,
          "duration": 0.00416666666666643
        },
        {
          "name": "E1",
          "midi": 28,
          "time": 20.302499999999828,
          "velocity": 0.8110236220472441,
          "duration": 0.3658333333333239
        },
        {
          "name": "B3",
          "midi": 59,
          "time": 20.30333333333316,
          "velocity": 0.6850393700787402,
          "duration": 0.22499999999999432
        },
        {
          "name": "D#2",
          "midi": 39,
          "time": 20.40333333333316,
          "velocity": 0.6377952755905512,
          "duration": 0.00416666666666643
        },
        {
          "name": "C#5",
          "midi": 73,
          "time": 20.40333333333316,
          "velocity": 0.3937007874015748,
          "duration": 0.00416666666666643
        },
        {
          "name": "E5",
          "midi": 76,
          "time": 20.59666666666649,
          "velocity": 0.8346456692913385,
          "duration": 0.15499999999999403
        },
        {
          "name": "E2",
          "midi": 40,
          "time": 20.599999999999824,
          "velocity": 0.9133858267716536,
          "duration": 0.004166666666662877
        },
        {
          "name": "E5",
          "midi": 76,
          "time": 20.600833333333156,
          "velocity": 0.7559055118110236,
          "duration": 0.15499999999999403
        },
        {
          "name": "C#5",
          "midi": 73,
          "time": 20.60166666666649,
          "velocity": 0.4251968503937008,
          "duration": 0.004166666666662877
        },
        {
          "name": "D#2",
          "midi": 39,
          "time": 20.60249999999982,
          "velocity": 0.6692913385826772,
          "duration": 0.004166666666662877
        }
      ],
      "controlChanges": {
        "1": [
          {
            "number": 1,
            "time": 1.8241666666666696,
            "value": 0.07874015748031496
          },
          {
            "number": 1,
            "time": 1.8591666666666695,
            "value": 0.3937007874015748
          },
          {
            "number": 1,
            "time": 1.8958333333333361,
            "value": 0.7795275590551181
          },
          {
            "number": 1,
            "time": 1.9325000000000028,
            "value": 1
          }
        ],
        "6": [
          {
            "number": 6,
            "time": 0.4183333333333338,
            "value": 0.015748031496062992
          },
          {
            "number": 6,
            "time": 0.4250000000000006,
            "value": 0.09448818897637795
          },
          {
            "number": 6,
            "time": 0.526666666666669,
            "value": 0.015748031496062992
          },
          {
            "number": 6,
            "time": 0.5341666666666689,
            "value": 0.015748031496062992
          },
          {
            "number": 6,
            "time": 0.5425000000000024,
            "value": 0.015748031496062992
          },
          {
            "number": 6,
            "time": 0.5433333333333358,
            "value": 0.015748031496062992
          },
          {
            "number": 6,
            "time": 0.5458333333333358,
            "value": 0.015748031496062992
          },
          {
            "number": 6,
            "time": 0.5475000000000025,
            "value": 0.015748031496062992
          },
          {
            "number": 6,
            "time": 0.5475000000000025,
            "value": 0.015748031496062992
          },
          {
            "number": 6,
            "time": 0.5483333333333359,
            "value": 0.015748031496062992
          },
          {
            "number": 6,
            "time": 0.5483333333333359,
            "value": 0.015748031496062992
          },
          {
            "number": 6,
            "time": 0.5483333333333359,
            "value": 0.015748031496062992
          },
          {
            "number": 6,
            "time": 0.550833333333336,
            "value": 0.015748031496062992
          },
          {
            "number": 6,
            "time": 0.5541666666666694,
            "value": 0.015748031496062992
          },
          {
            "number": 6,
            "time": 0.5541666666666694,
            "value": 0.015748031496062992
          },
          {
            "number": 6,
            "time": 2.0250000000000026,
            "value": 0.09448818897637795
          },
          {
            "number": 6,
            "time": 2.028333333333336,
            "value": 0.09448818897637795
          },
          {
            "number": 6,
            "time": 2.042500000000003,
            "value": 0.09448818897637795
          },
          {
            "number": 6,
            "time": 2.1425000000000027,
            "value": 0.09448818897637795
          },
          {
            "number": 6,
            "time": 5.189166666666678,
            "value": 0.007874015748031496
          },
          {
            "number": 6,
            "time": 8.025000000000023,
            "value": 0.09448818897637795
          },
          {
            "number": 6,
            "time": 14.942499999999942,
            "value": 0.09448818897637795
          },
          {
            "number": 6,
            "time": 17.589166666666564,
            "value": 0.015748031496062992
          },
          {
            "number": 6,
            "time": 17.989166666666552,
            "value": 0.007874015748031496
          }
        ],
        "7": [
          {
            "number": 7,
            "time": 0.40333333333333343,
            "value": 0.7874015748031497
          },
          {
            "number": 7,
            "time": 0.41000000000000025,
            "value": 0.9448818897637795
          },
          {
            "number": 7,
            "time": 0.4166666666666671,
            "value": 0.7086614173228346
          },
          {
            "number": 7,
            "time": 0.4233333333333339,
            "value": 0.9448818897637795
          },
          {
            "number": 7,
            "time": 0.4300000000000007,
            "value": 0.7874015748031497
          },
          {
            "number": 7,
            "time": 0.43666666666666754,
            "value": 0.7086614173228346
          },
          {
            "number": 7,
            "time": 0.44333333333333436,
            "value": 0.7874015748031497
          },
          {
            "number": 7,
            "time": 0.4500000000000012,
            "value": 0.7874015748031497
          },
          {
            "number": 7,
            "time": 0.456666666666668,
            "value": 0.7874015748031497
          },
          {
            "number": 7,
            "time": 0.4633333333333348,
            "value": 1
          },
          {
            "number": 7,
            "time": 0.47000000000000164,
            "value": 0.5511811023622047
          },
          {
            "number": 7,
            "time": 0.47666666666666846,
            "value": 0.7874015748031497
          },
          {
            "number": 7,
            "time": 0.4833333333333353,
            "value": 0.6299212598425197
          },
          {
            "number": 7,
            "time": 0.4833333333333353,
            "value": 0.6299212598425197
          },
          {
            "number": 7,
            "time": 0.4900000000000021,
            "value": 0.7874015748031497
          },
          {
            "number": 7,
            "time": 0.4966666666666689,
            "value": 0.5039370078740157
          }
        ],
        "10": [
          {
            "number": 10,
            "time": 0.4041666666666668,
            "value": 0.5039370078740157
          },
          {
            "number": 10,
            "time": 0.4108333333333336,
            "value": 0.5039370078740157
          },
          {
            "number": 10,
            "time": 0.4175000000000004,
            "value": 0.2677165354330709
          },
          {
            "number": 10,
            "time": 0.42416666666666725,
            "value": 0.5039370078740157
          },
          {
            "number": 10,
            "time": 0.43083333333333407,
            "value": 0.5039370078740157
          },
          {
            "number": 10,
            "time": 0.4375000000000009,
            "value": 0.7401574803149606
          },
          {
            "number": 10,
            "time": 0.4441666666666677,
            "value": 0.8188976377952756
          },
          {
            "number": 10,
            "time": 0.45083333333333453,
            "value": 0.5039370078740157
          },
          {
            "number": 10,
            "time": 0.45750000000000135,
            "value": 0.5826771653543307
          },
          {
            "number": 10,
            "time": 0.46416666666666817,
            "value": 0.5039370078740157
          },
          {
            "number": 10,
            "time": 0.470833333333335,
            "value": 0.4251968503937008
          },
          {
            "number": 10,
            "time": 0.4775000000000018,
            "value": 0.4251968503937008
          },
          {
            "number": 10,
            "time": 0.48416666666666863,
            "value": 1
          },
          {
            "number": 10,
            "time": 0.48416666666666863,
            "value": 0
          },
          {
            "number": 10,
            "time": 0.49083333333333545,
            "value": 0.5039370078740157
          },
          {
            "number": 10,
            "time": 0.4975000000000023,
            "value": 0.2677165354330709
          }
        ],
        "11": [
          {
            "number": 11,
            "time": 0.40500000000000014,
            "value": 1
          },
          {
            "number": 11,
            "time": 0.41166666666666696,
            "value": 1
          },
          {
            "number": 11,
            "time": 0.4183333333333338,
            "value": 1
          },
          {
            "number": 11,
            "time": 0.4250000000000006,
            "value": 1
          },
          {
            "number": 11,
            "time": 0.4316666666666674,
            "value": 1
          },
          {
            "number": 11,
            "time": 0.43833333333333424,
            "value": 1
          },
          {
            "number": 11,
            "time": 0.44500000000000106,
            "value": 1
          },
          {
            "number": 11,
            "time": 0.4516666666666679,
            "value": 1
          },
          {
            "number": 11,
            "time": 0.4583333333333347,
            "value": 1
          },
          {
            "number": 11,
            "time": 0.4650000000000015,
            "value": 1
          },
          {
            "number": 11,
            "time": 0.47166666666666834,
            "value": 1
          },
          {
            "number": 11,
            "time": 0.47833333333333516,
            "value": 1
          },
          {
            "number": 11,
            "time": 0.485000000000002,
            "value": 1
          },
          {
            "number": 11,
            "time": 0.485000000000002,
            "value": 1
          },
          {
            "number": 11,
            "time": 0.4916666666666688,
            "value": 1
          },
          {
            "number": 11,
            "time": 0.4983333333333356,
            "value": 1
          }
        ],
        "32": [
          {
            "number": 32,
            "time": 0.4016666666666667,
            "value": 0
          },
          {
            "number": 32,
            "time": 0.40833333333333355,
            "value": 0
          },
          {
            "number": 32,
            "time": 0.41500000000000037,
            "value": 0
          },
          {
            "number": 32,
            "time": 0.4216666666666672,
            "value": 0
          },
          {
            "number": 32,
            "time": 0.428333333333334,
            "value": 0
          },
          {
            "number": 32,
            "time": 0.43500000000000083,
            "value": 0
          },
          {
            "number": 32,
            "time": 0.44166666666666765,
            "value": 0
          },
          {
            "number": 32,
            "time": 0.44833333333333447,
            "value": 0
          },
          {
            "number": 32,
            "time": 0.4550000000000013,
            "value": 0
          },
          {
            "number": 32,
            "time": 0.4616666666666681,
            "value": 0
          },
          {
            "number": 32,
            "time": 0.46833333333333493,
            "value": 0
          },
          {
            "number": 32,
            "time": 0.47500000000000175,
            "value": 0
          },
          {
            "number": 32,
            "time": 0.4816666666666686,
            "value": 0
          },
          {
            "number": 32,
            "time": 0.4816666666666686,
            "value": 0
          },
          {
            "number": 32,
            "time": 0.4883333333333354,
            "value": 0
          },
          {
            "number": 32,
            "time": 0.4950000000000022,
            "value": 0
          },
          {
            "number": 32,
            "time": 13.548333333333293,
            "value": 0
          }
        ],
        "91": [
          {
            "number": 91,
            "time": 0.4058333333333335,
            "value": 0.4330708661417323
          },
          {
            "number": 91,
            "time": 0.4125000000000003,
            "value": 0.4330708661417323
          },
          {
            "number": 91,
            "time": 0.41916666666666713,
            "value": 0.4330708661417323
          },
          {
            "number": 91,
            "time": 0.42583333333333395,
            "value": 0.7874015748031497
          },
          {
            "number": 91,
            "time": 0.4325000000000008,
            "value": 0.4330708661417323
          },
          {
            "number": 91,
            "time": 0.4391666666666676,
            "value": 0.4330708661417323
          },
          {
            "number": 91,
            "time": 0.4458333333333344,
            "value": 0.4330708661417323
          },
          {
            "number": 91,
            "time": 0.45250000000000123,
            "value": 0.4330708661417323
          },
          {
            "number": 91,
            "time": 0.45916666666666806,
            "value": 0.4330708661417323
          },
          {
            "number": 91,
            "time": 0.4658333333333349,
            "value": 0.36220472440944884
          },
          {
            "number": 91,
            "time": 0.4725000000000017,
            "value": 0.4330708661417323
          },
          {
            "number": 91,
            "time": 0.4791666666666685,
            "value": 0.4330708661417323
          },
          {
            "number": 91,
            "time": 0.48583333333333534,
            "value": 0.4330708661417323
          },
          {
            "number": 91,
            "time": 0.48583333333333534,
            "value": 0.4330708661417323
          },
          {
            "number": 91,
            "time": 0.49250000000000216,
            "value": 0.4330708661417323
          },
          {
            "number": 91,
            "time": 0.499166666666669,
            "value": 0.4330708661417323
          }
        ],
        "93": [
          {
            "number": 93,
            "time": 0.40666666666666684,
            "value": 0.15748031496062992
          },
          {
            "number": 93,
            "time": 0.41333333333333366,
            "value": 0.15748031496062992
          },
          {
            "number": 93,
            "time": 0.4200000000000005,
            "value": 0
          },
          {
            "number": 93,
            "time": 0.4266666666666673,
            "value": 0.5039370078740157
          },
          {
            "number": 93,
            "time": 0.4333333333333341,
            "value": 0
          },
          {
            "number": 93,
            "time": 0.44000000000000095,
            "value": 0
          },
          {
            "number": 93,
            "time": 0.44666666666666777,
            "value": 0
          },
          {
            "number": 93,
            "time": 0.4533333333333346,
            "value": 0
          },
          {
            "number": 93,
            "time": 0.4600000000000014,
            "value": 0
          },
          {
            "number": 93,
            "time": 0.46666666666666823,
            "value": 0
          },
          {
            "number": 93,
            "time": 0.47333333333333505,
            "value": 0
          },
          {
            "number": 93,
            "time": 0.48000000000000187,
            "value": 0
          },
          {
            "number": 93,
            "time": 0.4866666666666687,
            "value": 0
          },
          {
            "number": 93,
            "time": 0.4866666666666687,
            "value": 0
          },
          {
            "number": 93,
            "time": 0.4933333333333355,
            "value": 0
          },
          {
            "number": 93,
            "time": 0.5000000000000023,
            "value": 0
          }
        ],
        "100": [
          {
            "number": 100,
            "time": 0.41500000000000037,
            "value": 0
          },
          {
            "number": 100,
            "time": 0.4216666666666672,
            "value": 0
          },
          {
            "number": 100,
            "time": 0.4250000000000006,
            "value": 1
          },
          {
            "number": 100,
            "time": 0.4316666666666674,
            "value": 1
          },
          {
            "number": 100,
            "time": 0.5233333333333356,
            "value": 0
          },
          {
            "number": 100,
            "time": 0.5308333333333356,
            "value": 0
          },
          {
            "number": 100,
            "time": 0.5333333333333355,
            "value": 1
          },
          {
            "number": 100,
            "time": 0.539166666666669,
            "value": 0
          },
          {
            "number": 100,
            "time": 0.5408333333333357,
            "value": 1
          },
          {
            "number": 100,
            "time": 0.5408333333333357,
            "value": 0
          },
          {
            "number": 100,
            "time": 0.5425000000000024,
            "value": 0
          },
          {
            "number": 100,
            "time": 0.5441666666666691,
            "value": 0
          },
          {
            "number": 100,
            "time": 0.5441666666666691,
            "value": 0
          },
          {
            "number": 100,
            "time": 0.5450000000000025,
            "value": 0
          },
          {
            "number": 100,
            "time": 0.5450000000000025,
            "value": 0
          },
          {
            "number": 100,
            "time": 0.5450000000000025,
            "value": 0
          },
          {
            "number": 100,
            "time": 0.5475000000000025,
            "value": 0
          },
          {
            "number": 100,
            "time": 0.5491666666666692,
            "value": 1
          },
          {
            "number": 100,
            "time": 0.550833333333336,
            "value": 0
          },
          {
            "number": 100,
            "time": 0.550833333333336,
            "value": 0
          },
          {
            "number": 100,
            "time": 0.5525000000000027,
            "value": 1
          },
          {
            "number": 100,
            "time": 0.5541666666666694,
            "value": 1
          },
          {
            "number": 100,
            "time": 0.5541666666666694,
            "value": 1
          },
          {
            "number": 100,
            "time": 0.5550000000000027,
            "value": 1
          },
          {
            "number": 100,
            "time": 0.5550000000000027,
            "value": 1
          },
          {
            "number": 100,
            "time": 0.5550000000000027,
            "value": 1
          },
          {
            "number": 100,
            "time": 0.5566666666666694,
            "value": 1
          },
          {
            "number": 100,
            "time": 0.5575000000000028,
            "value": 1
          },
          {
            "number": 100,
            "time": 0.5608333333333361,
            "value": 1
          },
          {
            "number": 100,
            "time": 0.5608333333333361,
            "value": 1
          },
          {
            "number": 100,
            "time": 2.021666666666669,
            "value": 0
          },
          {
            "number": 100,
            "time": 2.0250000000000026,
            "value": 0
          },
          {
            "number": 100,
            "time": 2.0316666666666694,
            "value": 1
          },
          {
            "number": 100,
            "time": 2.035000000000003,
            "value": 1
          },
          {
            "number": 100,
            "time": 2.0391666666666697,
            "value": 0
          },
          {
            "number": 100,
            "time": 2.0491666666666695,
            "value": 1
          },
          {
            "number": 100,
            "time": 2.1391666666666693,
            "value": 0
          },
          {
            "number": 100,
            "time": 2.1491666666666696,
            "value": 1
          },
          {
            "number": 100,
            "time": 5.185833333333345,
            "value": 0
          },
          {
            "number": 100,
            "time": 5.1958333333333435,
            "value": 1
          },
          {
            "number": 100,
            "time": 8.02166666666669,
            "value": 0
          },
          {
            "number": 100,
            "time": 8.031666666666691,
            "value": 1
          },
          {
            "number": 100,
            "time": 14.939166666666608,
            "value": 0
          },
          {
            "number": 100,
            "time": 14.94916666666661,
            "value": 1
          },
          {
            "number": 100,
            "time": 17.58583333333323,
            "value": 0
          },
          {
            "number": 100,
            "time": 17.595833333333232,
            "value": 1
          },
          {
            "number": 100,
            "time": 17.98583333333322,
            "value": 0
          },
          {
            "number": 100,
            "time": 17.99583333333322,
            "value": 1
          }
        ],
        "101": [
          {
            "number": 101,
            "time": 0.41166666666666696,
            "value": 0
          },
          {
            "number": 101,
            "time": 0.4183333333333338,
            "value": 0
          },
          {
            "number": 101,
            "time": 0.4216666666666672,
            "value": 1
          },
          {
            "number": 101,
            "time": 0.428333333333334,
            "value": 1
          },
          {
            "number": 101,
            "time": 0.5200000000000023,
            "value": 0
          },
          {
            "number": 101,
            "time": 0.5275000000000023,
            "value": 0
          },
          {
            "number": 101,
            "time": 0.5300000000000022,
            "value": 1
          },
          {
            "number": 101,
            "time": 0.5358333333333356,
            "value": 0
          },
          {
            "number": 101,
            "time": 0.5375000000000023,
            "value": 1
          },
          {
            "number": 101,
            "time": 0.5375000000000023,
            "value": 0
          },
          {
            "number": 101,
            "time": 0.539166666666669,
            "value": 0
          },
          {
            "number": 101,
            "time": 0.5408333333333357,
            "value": 0
          },
          {
            "number": 101,
            "time": 0.5408333333333357,
            "value": 0
          },
          {
            "number": 101,
            "time": 0.5416666666666691,
            "value": 0
          },
          {
            "number": 101,
            "time": 0.5416666666666691,
            "value": 0
          },
          {
            "number": 101,
            "time": 0.5416666666666691,
            "value": 0
          },
          {
            "number": 101,
            "time": 0.5441666666666691,
            "value": 0
          },
          {
            "number": 101,
            "time": 0.5458333333333358,
            "value": 1
          },
          {
            "number": 101,
            "time": 0.5475000000000025,
            "value": 0
          },
          {
            "number": 101,
            "time": 0.5475000000000025,
            "value": 0
          },
          {
            "number": 101,
            "time": 0.5491666666666692,
            "value": 1
          },
          {
            "number": 101,
            "time": 0.550833333333336,
            "value": 1
          },
          {
            "number": 101,
            "time": 0.550833333333336,
            "value": 1
          },
          {
            "number": 101,
            "time": 0.5516666666666693,
            "value": 1
          },
          {
            "number": 101,
            "time": 0.5516666666666693,
            "value": 1
          },
          {
            "number": 101,
            "time": 0.5516666666666693,
            "value": 1
          },
          {
            "number": 101,
            "time": 0.553333333333336,
            "value": 1
          },
          {
            "number": 101,
            "time": 0.5541666666666694,
            "value": 1
          },
          {
            "number": 101,
            "time": 0.5575000000000028,
            "value": 1
          },
          {
            "number": 101,
            "time": 0.5575000000000028,
            "value": 1
          },
          {
            "number": 101,
            "time": 2.0183333333333358,
            "value": 0
          },
          {
            "number": 101,
            "time": 2.021666666666669,
            "value": 0
          },
          {
            "number": 101,
            "time": 2.028333333333336,
            "value": 1
          },
          {
            "number": 101,
            "time": 2.0316666666666694,
            "value": 1
          },
          {
            "number": 101,
            "time": 2.0358333333333363,
            "value": 0
          },
          {
            "number": 101,
            "time": 2.0458333333333365,
            "value": 1
          },
          {
            "number": 101,
            "time": 2.135833333333336,
            "value": 0
          },
          {
            "number": 101,
            "time": 2.145833333333336,
            "value": 1
          },
          {
            "number": 101,
            "time": 5.182500000000011,
            "value": 0
          },
          {
            "number": 101,
            "time": 5.1925000000000106,
            "value": 1
          },
          {
            "number": 101,
            "time": 8.018333333333356,
            "value": 0
          },
          {
            "number": 101,
            "time": 8.028333333333357,
            "value": 1
          },
          {
            "number": 101,
            "time": 14.935833333333274,
            "value": 0
          },
          {
            "number": 101,
            "time": 14.945833333333276,
            "value": 1
          },
          {
            "number": 101,
            "time": 17.582499999999897,
            "value": 0
          },
          {
            "number": 101,
            "time": 17.592499999999898,
            "value": 1
          },
          {
            "number": 101,
            "time": 17.982499999999884,
            "value": 0
          },
          {
            "number": 101,
            "time": 17.992499999999886,
            "value": 1
          }
        ]
      },
      "instrument": "GM Device"
    }
  ]
}