{
  "header": {
    "PPQ": 480,
    "timeSignature": [
      4,
      4
    ],
    "bpm": 130.00013000013
  },
  "tracks": [
    {
      "name": "Prodigy",
      "notes": [],
      "controlChanges": {},
      "instrument": ""
    },
    {
      "name": "",
      "notes": [
        {
          "name": "D2",
          "midi": 38,
          "time": 14.769215999999998,
          "velocity": 0.7874015748031497,
          "duration": 0.07692300000000074
        },
        {
          "name": "D#2",
          "midi": 39,
          "time": 14.8846005,
          "velocity": 0.7874015748031497,
          "duration": 0.07692300000000074
        },
        {
          "name": "D#2",
          "midi": 39,
          "time": 14.999985,
          "velocity": 0.7874015748031497,
          "duration": 0.07692300000000074
        },
        {
          "name": "D#2",
          "midi": 39,
          "time": 15.115369500000002,
          "velocity": 0.7874015748031497,
          "duration": 0.07692300000000074
        },
        {
          "name": "D#2",
          "midi": 39,
          "time": 15.230754000000003,
          "velocity": 0.7874015748031497,
          "duration": 0.07692300000000074
        },
        {
          "name": "D#2",
          "midi": 39,
          "time": 15.346138500000004,
          "velocity": 0.7874015748031497,
          "duration": 0.07692300000000074
        },
        {
          "name": "D#2",
          "midi": 39,
          "time": 15.461523000000005,
          "velocity": 0.7874015748031497,
          "duration": 0.07692300000000074
        },
        {
          "name": "D#2",
          "midi": 39,
          "time": 15.576907500000006,
          "velocity": 0.7874015748031497,
          "duration": 0.07692300000000074
        },
        {
          "name": "D2",
          "midi": 38,
          "time": 15.692292000000007,
          "velocity": 0.7874015748031497,
          "duration": 0.07692300000000074
        },
        {
          "name": "D#2",
          "midi": 39,
          "time": 15.807676500000008,
          "velocity": 0.7874015748031497,
          "duration": 0.07692300000000074
        },
        {
          "name": "D#2",
          "midi": 39,
          "time": 15.92306100000001,
          "velocity": 0.7874015748031497,
          "duration": 0.07692300000000074
        },
        {
          "name": "D#2",
          "midi": 39,
          "time": 16.03844550000001,
          "velocity": 0.7874015748031497,
          "duration": 0.07692300000000074
        },
        {
          "name": "D#2",
          "midi": 39,
          "time": 16.15383000000001,
          "velocity": 0.7874015748031497,
          "duration": 0.07692300000000074
        },
        {
          "name": "D#2",
          "midi": 39,
          "time": 16.26921450000001,
          "velocity": 0.7874015748031497,
          "duration": 0.07692300000000074
        },
        {
          "name": "D#2",
          "midi": 39,
          "time": 16.384599000000012,
          "velocity": 0.7874015748031497,
          "duration": 0.07692300000000074
        },
        {
          "name": "D#2",
          "midi": 39,
          "time": 16.499983500000013,
          "velocity": 0.7874015748031497,
          "duration": 0.07692300000000074
        },
        {
          "name": "D2",
          "midi": 38,
          "time": 16.615368000000014,
          "velocity": 0.7874015748031497,
          "duration": 0.07692300000000074
        },
        {
          "name": "D#2",
          "midi": 39,
          "time": 16.730752500000015,
          "velocity": 0.7874015748031497,
          "duration": 0.07692300000000074
        },
        {
          "name": "D#2",
          "midi": 39,
          "time": 16.846137000000017,
          "velocity": 0.7874015748031497,
          "duration": 0.07692300000000074
        },
        {
          "name": "D#2",
          "midi": 39,
          "time": 16.961521500000018,
          "velocity": 0.7874015748031497,
          "duration": 0.07692300000000074
        },
        {
          "name": "D#2",
          "midi": 39,
          "time": 17.07690600000002,
          "velocity": 0.7874015748031497,
          "duration": 0.07692300000000074
        },
        {
          "name": "D#2",
          "midi": 39,
          "time": 17.19229050000002,
          "velocity": 0.7874015748031497,
          "duration": 0.07692300000000074
        },
        {
          "name": "D#2",
          "midi": 39,
          "time": 17.30767500000002,
          "velocity": 0.7874015748031497,
          "duration": 0.07692300000000074
        },
        {
          "name": "D#2",
          "midi": 39,
          "time": 17.423059500000022,
          "velocity": 0.7874015748031497,
          "duration": 0.07692300000000074
        },
        {
          "name": "D2",
          "midi": 38,
          "time": 17.538444000000023,
          "velocity": 0.7874015748031497,
          "duration": 0.07692300000000074
        },
        {
          "name": "D#2",
          "midi": 39,
          "time": 17.653828500000024,
          "velocity": 0.7874015748031497,
          "duration": 0.07692300000000074
        },
        {
          "name": "D#2",
          "midi": 39,
          "time": 17.769213000000025,
          "velocity": 0.7874015748031497,
          "duration": 0.07692300000000074
        },
        {
          "name": "D#2",
          "midi": 39,
          "time": 17.884597500000027,
          "velocity": 0.7874015748031497,
          "duration": 0.07692300000000074
        },
        {
          "name": "D2",
          "midi": 38,
          "time": 17.999982000000028,
          "velocity": 0.7874015748031497,
          "duration": 0.07692300000000074
        },
        {
          "name": "D#2",
          "midi": 39,
          "time": 18.11536650000003,
          "velocity": 0.7874015748031497,
          "duration": 0.07692300000000074
        },
        {
          "name": "D#2",
          "midi": 39,
          "time": 18.23075100000003,
          "velocity": 0.7874015748031497,
          "duration": 0.07692300000000074
        },
        {
          "name": "D#2",
          "midi": 39,
          "time": 18.34613550000003,
          "velocity": 0.7874015748031497,
          "duration": 0.07692300000000074
        },
        {
          "name": "D2",
          "midi": 38,
          "time": 18.461520000000032,
          "velocity": 0.7874015748031497,
          "duration": 0.07692300000000074
        },
        {
          "name": "D#2",
          "midi": 39,
          "time": 18.576904500000033,
          "velocity": 0.7874015748031497,
          "duration": 0.07692300000000074
        },
        {
          "name": "D#2",
          "midi": 39,
          "time": 18.692289000000034,
          "velocity": 0.7874015748031497,
          "duration": 0.07692300000000074
        },
        {
          "name": "D#2",
          "midi": 39,
          "time": 18.807673500000035,
          "velocity": 0.7874015748031497,
          "duration": 0.07692300000000074
        },
        {
          "name": "D#2",
          "midi": 39,
          "time": 18.923058000000037,
          "velocity": 0.7874015748031497,
          "duration": 0.07692300000000074
        },
        {
          "name": "D#2",
          "midi": 39,
          "time": 19.038442500000038,
          "velocity": 0.7874015748031497,
          "duration": 0.07692300000000074
        },
        {
          "name": "D#2",
          "midi": 39,
          "time": 19.15382700000004,
          "velocity": 0.7874015748031497,
          "duration": 0.07692300000000074
        },
        {
          "name": "D#2",
          "midi": 39,
          "time": 19.26921150000004,
          "velocity": 0.7874015748031497,
          "duration": 0.07692300000000074
        },
        {
          "name": "D2",
          "midi": 38,
          "time": 19.38459600000004,
          "velocity": 0.7874015748031497,
          "duration": 0.07692300000000074
        },
        {
          "name": "D#2",
          "midi": 39,
          "time": 19.499980500000042,
          "velocity": 0.7874015748031497,
          "duration": 0.07692300000000074
        },
        {
          "name": "D#2",
          "midi": 39,
          "time": 19.615365000000043,
          "velocity": 0.7874015748031497,
          "duration": 0.07692300000000074
        },
        {
          "name": "D#2",
          "midi": 39,
          "time": 19.730749500000044,
          "velocity": 0.7874015748031497,
          "duration": 0.07692300000000074
        },
        {
          "name": "D#2",
          "midi": 39,
          "time": 19.846134000000045,
          "velocity": 0.7874015748031497,
          "duration": 0.07692300000000074
        },
        {
          "name": "D#2",
          "midi": 39,
          "time": 19.961518500000047,
          "velocity": 0.7874015748031497,
          "duration": 0.07692300000000074
        },
        {
          "name": "D#2",
          "midi": 39,
          "time": 20.076903000000048,
          "velocity": 0.7874015748031497,
          "duration": 0.07692300000000074
        },
        {
          "name": "D#2",
          "midi": 39,
          "time": 20.19228750000005,
          "velocity": 0.7874015748031497,
          "duration": 0.07692300000000074
        },
        {
          "name": "D2",
          "midi": 38,
          "time": 20.30767200000005,
          "velocity": 0.7874015748031497,
          "duration": 0.07692300000000074
        },
        {
          "name": "D#2",
          "midi": 39,
          "time": 20.42305650000005,
          "velocity": 0.7874015748031497,
          "duration": 0.07692300000000074
        },
        {
          "name": "D#2",
          "midi": 39,
          "time": 20.538441000000052,
          "velocity": 0.7874015748031497,
          "duration": 0.07692300000000074
        },
        {
          "name": "D#2",
          "midi": 39,
          "time": 20.653825500000053,
          "velocity": 0.7874015748031497,
          "duration": 0.07692300000000074
        },
        {
          "name": "D#2",
          "midi": 39,
          "time": 20.769210000000054,
          "velocity": 0.7874015748031497,
          "duration": 0.07692300000000074
        },
        {
          "name": "D#2",
          "midi": 39,
          "time": 20.884594500000055,
          "velocity": 0.7874015748031497,
          "duration": 0.07692300000000074
        },
        {
          "name": "D#2",
          "midi": 39,
          "time": 20.999979000000057,
          "velocity": 0.7874015748031497,
          "duration": 0.07692300000000074
        },
        {
          "name": "D#2",
          "midi": 39,
          "time": 21.115363500000058,
          "velocity": 0.7874015748031497,
          "duration": 0.07692300000000074
        },
        {
          "name": "D2",
          "midi": 38,
          "time": 21.23074800000006,
          "velocity": 0.7874015748031497,
          "duration": 0.07692300000000074
        },
        {
          "name": "D#2",
          "midi": 39,
          "time": 21.34613250000006,
          "velocity": 0.7874015748031497,
          "duration": 0.07692300000000074
        },
        {
          "name": "D#2",
          "midi": 39,
          "time": 21.46151700000006,
          "velocity": 0.7874015748031497,
          "duration": 0.07692300000000074
        },
        {
          "name": "D#2",
          "midi": 39,
          "time": 21.576901500000062,
          "velocity": 0.7874015748031497,
          "duration": 0.07692300000000074
        },
        {
          "name": "D2",
          "midi": 38,
          "time": 21.692286000000063,
          "velocity": 0.7874015748031497,
          "duration": 0.07692300000000074
        },
        {
          "name": "D#2",
          "midi": 39,
          "time": 21.807670500000064,
          "velocity": 0.7874015748031497,
          "duration": 0.07692300000000074
        },
        {
          "name": "D#2",
          "midi": 39,
          "time": 21.923055000000065,
          "velocity": 0.7874015748031497,
          "duration": 0.07692300000000074
        },
        {
          "name": "D#2",
          "midi": 39,
          "time": 22.038439500000067,
          "velocity": 0.7874015748031497,
          "duration": 0.07692300000000074
        },
        {
          "name": "D2",
          "midi": 38,
          "time": 22.153824000000068,
          "velocity": 0.7874015748031497,
          "duration": 0.07692300000000074
        },
        {
          "name": "D#2",
          "midi": 39,
          "time": 22.26920850000007,
          "velocity": 0.7874015748031497,
          "duration": 0.07692300000000074
        },
        {
          "name": "D#2",
          "midi": 39,
          "time": 22.38459300000007,
          "velocity": 0.7874015748031497,
          "duration": 0.07692300000000074
        },
        {
          "name": "D#2",
          "midi": 39,
          "time": 22.49997750000007,
          "velocity": 0.7874015748031497,
          "duration": 0.07692300000000074
        },
        {
          "name": "D#2",
          "midi": 39,
          "time": 22.615362000000072,
          "velocity": 0.7874015748031497,
          "duration": 0.07692300000000074
        },
        {
          "name": "D#2",
          "midi": 39,
          "time": 22.730746500000073,
          "velocity": 0.7874015748031497,
          "duration": 0.07692300000000074
        },
        {
          "name": "D#2",
          "midi": 39,
          "time": 22.846131000000074,
          "velocity": 0.7874015748031497,
          "duration": 0.07692300000000074
        },
        {
          "name": "D#2",
          "midi": 39,
          "time": 22.961515500000075,
          "velocity": 0.7874015748031497,
          "duration": 0.07692300000000074
        },
        {
          "name": "D2",
          "midi": 38,
          "time": 23.076900000000077,
          "velocity": 0.7874015748031497,
          "duration": 0.07692300000000074
        },
        {
          "name": "D#2",
          "midi": 39,
          "time": 23.192284500000078,
          "velocity": 0.7874015748031497,
          "duration": 0.07692300000000074
        },
        {
          "name": "D#2",
          "midi": 39,
          "time": 23.30766900000008,
          "velocity": 0.7874015748031497,
          "duration": 0.07692300000000074
        },
        {
          "name": "D#2",
          "midi": 39,
          "time": 23.42305350000008,
          "velocity": 0.7874015748031497,
          "duration": 0.07692300000000074
        },
        {
          "name": "D#2",
          "midi": 39,
          "time": 23.53843800000008,
          "velocity": 0.7874015748031497,
          "duration": 0.07692300000000074
        },
        {
          "name": "D#2",
          "midi": 39,
          "time": 23.653822500000082,
          "velocity": 0.7874015748031497,
          "duration": 0.07692300000000074
        },
        {
          "name": "D#2",
          "midi": 39,
          "time": 23.769207000000083,
          "velocity": 0.7874015748031497,
          "duration": 0.07692300000000074
        },
        {
          "name": "D#2",
          "midi": 39,
          "time": 23.884591500000084,
          "velocity": 0.7874015748031497,
          "duration": 0.07692300000000074
        },
        {
          "name": "D2",
          "midi": 38,
          "time": 23.999976000000085,
          "velocity": 0.7874015748031497,
          "duration": 0.07692300000000074
        },
        {
          "name": "D#2",
          "midi": 39,
          "time": 24.115360500000087,
          "velocity": 0.7874015748031497,
          "duration": 0.07692300000000074
        },
        {
          "name": "D#2",
          "midi": 39,
          "time": 24.230745000000088,
          "velocity": 0.7874015748031497,
          "duration": 0.07692300000000074
        },
        {
          "name": "D#2",
          "midi": 39,
          "time": 24.34612950000009,
          "velocity": 0.7874015748031497,
          "duration": 0.07692300000000074
        },
        {
          "name": "D#2",
          "midi": 39,
          "time": 24.46151400000009,
          "velocity": 0.7874015748031497,
          "duration": 0.07692300000000074
        },
        {
          "name": "D#2",
          "midi": 39,
          "time": 24.57689850000009,
          "velocity": 0.7874015748031497,
          "duration": 0.07692300000000074
        },
        {
          "name": "D#2",
          "midi": 39,
          "time": 24.692283000000092,
          "velocity": 0.7874015748031497,
          "duration": 0.07692300000000074
        },
        {
          "name": "D#2",
          "midi": 39,
          "time": 24.807667500000093,
          "velocity": 0.7874015748031497,
          "duration": 0.07692300000000074
        },
        {
          "name": "D2",
          "midi": 38,
          "time": 24.923052000000094,
          "velocity": 0.7874015748031497,
          "duration": 0.07692300000000074
        },
        {
          "name": "D#2",
          "midi": 39,
          "time": 25.038436500000095,
          "velocity": 0.7874015748031497,
          "duration": 0.07692300000000074
        },
        {
          "name": "D#2",
          "midi": 39,
          "time": 25.153821000000097,
          "velocity": 0.7874015748031497,
          "duration": 0.07692300000000074
        },
        {
          "name": "D#2",
          "midi": 39,
          "time": 25.269205500000098,
          "velocity": 0.7874015748031497,
          "duration": 0.07692300000000074
        },
        {
          "name": "D2",
          "midi": 38,
          "time": 25.3845900000001,
          "velocity": 0.7874015748031497,
          "duration": 0.07692300000000074
        },
        {
          "name": "D#2",
          "midi": 39,
          "time": 25.4999745000001,
          "velocity": 0.7874015748031497,
          "duration": 0.07692300000000074
        },
        {
          "name": "D#2",
          "midi": 39,
          "time": 25.6153590000001,
          "velocity": 0.7874015748031497,
          "duration": 0.07692300000000074
        },
        {
          "name": "D#2",
          "midi": 39,
          "time": 25.730743500000102,
          "velocity": 0.7874015748031497,
          "duration": 0.07692300000000074
        },
        {
          "name": "D2",
          "midi": 38,
          "time": 25.846128000000103,
          "velocity": 0.7874015748031497,
          "duration": 0.07692300000000074
        },
        {
          "name": "D#2",
          "midi": 39,
          "time": 25.961512500000104,
          "velocity": 0.7874015748031497,
          "duration": 0.07692300000000074
        },
        {
          "name": "D#2",
          "midi": 39,
          "time": 26.076897000000105,
          "velocity": 0.7874015748031497,
          "duration": 0.07692300000000074
        },
        {
          "name": "D#2",
          "midi": 39,
          "time": 26.192281500000107,
          "velocity": 0.7874015748031497,
          "duration": 0.07692300000000074
        },
        {
          "name": "D#2",
          "midi": 39,
          "time": 26.307666000000108,
          "velocity": 0.7874015748031497,
          "duration": 0.07692300000000074
        },
        {
          "name": "D#2",
          "midi": 39,
          "time": 26.42305050000011,
          "velocity": 0.7874015748031497,
          "duration": 0.07692300000000074
        },
        {
          "name": "D#2",
          "midi": 39,
          "time": 26.53843500000011,
          "velocity": 0.7874015748031497,
          "duration": 0.07692300000000074
        },
        {
          "name": "D#2",
          "midi": 39,
          "time": 26.65381950000011,
          "velocity": 0.7874015748031497,
          "duration": 0.07692300000000074
        },
        {
          "name": "D2",
          "midi": 38,
          "time": 26.769204000000112,
          "velocity": 0.7874015748031497,
          "duration": 0.07692300000000074
        },
        {
          "name": "D#2",
          "midi": 39,
          "time": 26.884588500000113,
          "velocity": 0.7874015748031497,
          "duration": 0.07692300000000074
        },
        {
          "name": "D#2",
          "midi": 39,
          "time": 26.999973000000114,
          "velocity": 0.7874015748031497,
          "duration": 0.07692300000000074
        },
        {
          "name": "D#2",
          "midi": 39,
          "time": 27.115357500000115,
          "velocity": 0.7874015748031497,
          "duration": 0.07692300000000074
        },
        {
          "name": "D#2",
          "midi": 39,
          "time": 27.230742000000117,
          "velocity": 0.7874015748031497,
          "duration": 0.07692300000000074
        },
        {
          "name": "D#2",
          "midi": 39,
          "time": 27.346126500000118,
          "velocity": 0.7874015748031497,
          "duration": 0.07692300000000074
        },
        {
          "name": "D#2",
          "midi": 39,
          "time": 27.46151100000012,
          "velocity": 0.7874015748031497,
          "duration": 0.07692300000000074
        },
        {
          "name": "D#2",
          "midi": 39,
          "time": 27.57689550000012,
          "velocity": 0.7874015748031497,
          "duration": 0.07692300000000074
        },
        {
          "name": "D2",
          "midi": 38,
          "time": 27.69228000000012,
          "velocity": 0.7874015748031497,
          "duration": 0.07692300000000074
        },
        {
          "name": "D#2",
          "midi": 39,
          "time": 27.807664500000122,
          "velocity": 0.7874015748031497,
          "duration": 0.07692300000000074
        },
        {
          "name": "D#2",
          "midi": 39,
          "time": 27.923049000000123,
          "velocity": 0.7874015748031497,
          "duration": 0.07692300000000074
        },
        {
          "name": "D#2",
          "midi": 39,
          "time": 28.038433500000124,
          "velocity": 0.7874015748031497,
          "duration": 0.07692300000000074
        },
        {
          "name": "D#2",
          "midi": 39,
          "time": 28.153818000000125,
          "velocity": 0.7874015748031497,
          "duration": 0.07692300000000074
        },
        {
          "name": "D#2",
          "midi": 39,
          "time": 28.269202500000127,
          "velocity": 0.7874015748031497,
          "duration": 0.07692300000000074
        },
        {
          "name": "D#2",
          "midi": 39,
          "time": 28.384587000000128,
          "velocity": 0.7874015748031497,
          "duration": 0.07692300000000074
        },
        {
          "name": "D#2",
          "midi": 39,
          "time": 28.49997150000013,
          "velocity": 0.7874015748031497,
          "duration": 0.07692300000000074
        },
        {
          "name": "D2",
          "midi": 38,
          "time": 28.61535600000013,
          "velocity": 0.7874015748031497,
          "duration": 0.07692300000000074
        },
        {
          "name": "D#2",
          "midi": 39,
          "time": 28.73074050000013,
          "velocity": 0.7874015748031497,
          "duration": 0.07692300000000074
        },
        {
          "name": "D#2",
          "midi": 39,
          "time": 28.846125000000132,
          "velocity": 0.7874015748031497,
          "duration": 0.07692300000000074
        },
        {
          "name": "D#2",
          "midi": 39,
          "time": 28.961509500000133,
          "velocity": 0.7874015748031497,
          "duration": 0.07692300000000074
        },
        {
          "name": "D2",
          "midi": 38,
          "time": 29.076894000000134,
          "velocity": 0.7874015748031497,
          "duration": 0.07692300000000074
        },
        {
          "name": "D#2",
          "midi": 39,
          "time": 29.192278500000135,
          "velocity": 0.7874015748031497,
          "duration": 0.07692300000000074
        },
        {
          "name": "D#2",
          "midi": 39,
          "time": 29.307663000000137,
          "velocity": 0.7874015748031497,
          "duration": 0.07692300000000074
        },
        {
          "name": "D#2",
          "midi": 39,
          "time": 29.423047500000138,
          "velocity": 0.7874015748031497,
          "duration": 0.07692300000000074
        },
        {
          "name": "D2",
          "midi": 38,
          "time": 29.53843200000014,
          "velocity": 0.7874015748031497,
          "duration": 0.07692300000000074
        },
        {
          "name": "D#2",
          "midi": 39,
          "time": 29.65381650000014,
          "velocity": 0.7874015748031497,
          "duration": 0.07692300000000074
        },
        {
          "name": "D#2",
          "midi": 39,
          "time": 29.76920100000014,
          "velocity": 0.7874015748031497,
          "duration": 0.07692300000000074
        },
        {
          "name": "D#2",
          "midi": 39,
          "time": 29.884585500000142,
          "velocity": 0.7874015748031497,
          "duration": 0.07692300000000074
        },
        {
          "name": "D#2",
          "midi": 39,
          "time": 29.999970000000143,
          "velocity": 0.7874015748031497,
          "duration": 0.07692300000000074
        },
        {
          "name": "D#2",
          "midi": 39,
          "time": 30.115354500000144,
          "velocity": 0.7874015748031497,
          "duration": 0.07692300000000074
        },
        {
          "name": "D#2",
          "midi": 39,
          "time": 30.230739000000145,
          "velocity": 0.7874015748031497,
          "duration": 0.07692300000000074
        },
        {
          "name": "D#2",
          "midi": 39,
          "time": 30.346123500000147,
          "velocity": 0.7874015748031497,
          "duration": 0.07692300000000074
        },
        {
          "name": "D2",
          "midi": 38,
          "time": 30.461508000000148,
          "velocity": 0.7874015748031497,
          "duration": 0.07692300000000074
        },
        {
          "name": "D#2",
          "midi": 39,
          "time": 30.57689250000015,
          "velocity": 0.7874015748031497,
          "duration": 0.07692300000000074
        },
        {
          "name": "D#2",
          "midi": 39,
          "time": 30.69227700000015,
          "velocity": 0.7874015748031497,
          "duration": 0.07692300000000074
        },
        {
          "name": "D#2",
          "midi": 39,
          "time": 30.80766150000015,
          "velocity": 0.7874015748031497,
          "duration": 0.07692300000000074
        },
        {
          "name": "D#2",
          "midi": 39,
          "time": 30.923046000000152,
          "velocity": 0.7874015748031497,
          "duration": 0.07692300000000074
        },
        {
          "name": "D#2",
          "midi": 39,
          "time": 31.038430500000153,
          "velocity": 0.7874015748031497,
          "duration": 0.07692300000000074
        },
        {
          "name": "D#2",
          "midi": 39,
          "time": 31.153815000000154,
          "velocity": 0.7874015748031497,
          "duration": 0.07692300000000074
        },
        {
          "name": "D#2",
          "midi": 39,
          "time": 31.269199500000155,
          "velocity": 0.7874015748031497,
          "duration": 0.07692300000000074
        },
        {
          "name": "D2",
          "midi": 38,
          "time": 31.384584000000157,
          "velocity": 0.7874015748031497,
          "duration": 0.07692300000000074
        },
        {
          "name": "D#2",
          "midi": 39,
          "time": 31.499968500000158,
          "velocity": 0.7874015748031497,
          "duration": 0.07692300000000074
        },
        {
          "name": "D#2",
          "midi": 39,
          "time": 31.61535300000016,
          "velocity": 0.7874015748031497,
          "duration": 0.07692300000000074
        },
        {
          "name": "D#2",
          "midi": 39,
          "time": 31.73073750000016,
          "velocity": 0.7874015748031497,
          "duration": 0.07692300000000074
        },
        {
          "name": "D#2",
          "midi": 39,
          "time": 31.84612200000016,
          "velocity": 0.7874015748031497,
          "duration": 0.07692300000000074
        },
        {
          "name": "D#2",
          "midi": 39,
          "time": 31.961506500000162,
          "velocity": 0.7874015748031497,
          "duration": 0.07692300000000074
        },
        {
          "name": "D#2",
          "midi": 39,
          "time": 32.07689100000016,
          "velocity": 0.7874015748031497,
          "duration": 0.07692300000000074
        },
        {
          "name": "D#2",
          "midi": 39,
          "time": 32.19227550000016,
          "velocity": 0.7874015748031497,
          "duration": 0.07692300000000074
        },
        {
          "name": "D2",
          "midi": 38,
          "time": 32.307660000000155,
          "velocity": 0.7874015748031497,
          "duration": 0.07692300000000074
        },
        {
          "name": "D#2",
          "midi": 39,
          "time": 32.42304450000015,
          "velocity": 0.7874015748031497,
          "duration": 0.07692300000000074
        },
        {
          "name": "D#2",
          "midi": 39,
          "time": 32.53842900000015,
          "velocity": 0.7874015748031497,
          "duration": 0.07692300000000074
        },
        {
          "name": "D#2",
          "midi": 39,
          "time": 32.65381350000015,
          "velocity": 0.7874015748031497,
          "duration": 0.07692300000000074
        },
        {
          "name": "D2",
          "midi": 38,
          "time": 32.769198000000145,
          "velocity": 0.7874015748031497,
          "duration": 0.07692300000000074
        },
        {
          "name": "D#2",
          "midi": 39,
          "time": 32.88458250000014,
          "velocity": 0.7874015748031497,
          "duration": 0.07692300000000074
        },
        {
          "name": "D#2",
          "midi": 39,
          "time": 32.99996700000014,
          "velocity": 0.7874015748031497,
          "duration": 0.07692300000000074
        },
        {
          "name": "D#2",
          "midi": 39,
          "time": 33.11535150000014,
          "velocity": 0.7874015748031497,
          "duration": 0.07692300000000074
        },
        {
          "name": "D2",
          "midi": 38,
          "time": 33.230736000000135,
          "velocity": 0.7874015748031497,
          "duration": 0.07692300000000074
        },
        {
          "name": "D#2",
          "midi": 39,
          "time": 33.34612050000013,
          "velocity": 0.7874015748031497,
          "duration": 0.07692300000000074
        },
        {
          "name": "D#2",
          "midi": 39,
          "time": 33.46150500000013,
          "velocity": 0.7874015748031497,
          "duration": 0.07692300000000074
        },
        {
          "name": "D#2",
          "midi": 39,
          "time": 33.57688950000013,
          "velocity": 0.7874015748031497,
          "duration": 0.07692300000000074
        },
        {
          "name": "D#2",
          "midi": 39,
          "time": 33.692274000000126,
          "velocity": 0.7874015748031497,
          "duration": 0.07692300000000074
        },
        {
          "name": "D#2",
          "midi": 39,
          "time": 33.80765850000012,
          "velocity": 0.7874015748031497,
          "duration": 0.07692300000000074
        },
        {
          "name": "D#2",
          "midi": 39,
          "time": 33.92304300000012,
          "velocity": 0.7874015748031497,
          "duration": 0.07692300000000074
        },
        {
          "name": "D#2",
          "midi": 39,
          "time": 34.03842750000012,
          "velocity": 0.7874015748031497,
          "duration": 0.07692300000000074
        },
        {
          "name": "D2",
          "midi": 38,
          "time": 34.153812000000116,
          "velocity": 0.7874015748031497,
          "duration": 0.07692300000000074
        },
        {
          "name": "D#2",
          "midi": 39,
          "time": 34.26919650000011,
          "velocity": 0.7874015748031497,
          "duration": 0.07692300000000074
        },
        {
          "name": "D#2",
          "midi": 39,
          "time": 34.38458100000011,
          "velocity": 0.7874015748031497,
          "duration": 0.07692300000000074
        },
        {
          "name": "D#2",
          "midi": 39,
          "time": 34.49996550000011,
          "velocity": 0.7874015748031497,
          "duration": 0.07692300000000074
        },
        {
          "name": "D#2",
          "midi": 39,
          "time": 34.615350000000106,
          "velocity": 0.7874015748031497,
          "duration": 0.07692300000000074
        },
        {
          "name": "D#2",
          "midi": 39,
          "time": 34.7307345000001,
          "velocity": 0.7874015748031497,
          "duration": 0.07692300000000074
        },
        {
          "name": "D#2",
          "midi": 39,
          "time": 34.8461190000001,
          "velocity": 0.7874015748031497,
          "duration": 0.07692300000000074
        },
        {
          "name": "D#2",
          "midi": 39,
          "time": 34.9615035000001,
          "velocity": 0.7874015748031497,
          "duration": 0.07692300000000074
        },
        {
          "name": "D2",
          "midi": 38,
          "time": 35.076888000000096,
          "velocity": 0.7874015748031497,
          "duration": 0.07692300000000074
        },
        {
          "name": "D#2",
          "midi": 39,
          "time": 35.192272500000094,
          "velocity": 0.7874015748031497,
          "duration": 0.07692300000000074
        },
        {
          "name": "D#2",
          "midi": 39,
          "time": 35.30765700000009,
          "velocity": 0.7874015748031497,
          "duration": 0.07692300000000074
        },
        {
          "name": "D#2",
          "midi": 39,
          "time": 35.42304150000009,
          "velocity": 0.7874015748031497,
          "duration": 0.07692300000000074
        },
        {
          "name": "D#2",
          "midi": 39,
          "time": 35.538426000000086,
          "velocity": 0.7874015748031497,
          "duration": 0.07692300000000074
        },
        {
          "name": "D#2",
          "midi": 39,
          "time": 35.653810500000084,
          "velocity": 0.7874015748031497,
          "duration": 0.07692300000000074
        },
        {
          "name": "D#2",
          "midi": 39,
          "time": 35.76919500000008,
          "velocity": 0.7874015748031497,
          "duration": 0.07692300000000074
        },
        {
          "name": "D#2",
          "midi": 39,
          "time": 35.88457950000008,
          "velocity": 0.7874015748031497,
          "duration": 0.07692300000000074
        },
        {
          "name": "D2",
          "midi": 38,
          "time": 35.99996400000008,
          "velocity": 0.7874015748031497,
          "duration": 0.07692300000000074
        },
        {
          "name": "D#2",
          "midi": 39,
          "time": 36.115348500000074,
          "velocity": 0.7874015748031497,
          "duration": 0.07692300000000074
        },
        {
          "name": "D#2",
          "midi": 39,
          "time": 36.23073300000007,
          "velocity": 0.7874015748031497,
          "duration": 0.07692300000000074
        },
        {
          "name": "D#2",
          "midi": 39,
          "time": 36.34611750000007,
          "velocity": 0.7874015748031497,
          "duration": 0.07692300000000074
        },
        {
          "name": "D2",
          "midi": 38,
          "time": 36.46150200000007,
          "velocity": 0.7874015748031497,
          "duration": 0.07692300000000074
        },
        {
          "name": "D#2",
          "midi": 39,
          "time": 36.576886500000064,
          "velocity": 0.7874015748031497,
          "duration": 0.07692300000000074
        },
        {
          "name": "D#2",
          "midi": 39,
          "time": 36.69227100000006,
          "velocity": 0.7874015748031497,
          "duration": 0.07692300000000074
        },
        {
          "name": "D#2",
          "midi": 39,
          "time": 36.80765550000006,
          "velocity": 0.7874015748031497,
          "duration": 0.07692300000000074
        },
        {
          "name": "D2",
          "midi": 38,
          "time": 36.92304000000006,
          "velocity": 0.7874015748031497,
          "duration": 0.07692300000000074
        },
        {
          "name": "D#2",
          "midi": 39,
          "time": 37.038424500000055,
          "velocity": 0.7874015748031497,
          "duration": 0.07692300000000074
        },
        {
          "name": "D#2",
          "midi": 39,
          "time": 37.15380900000005,
          "velocity": 0.7874015748031497,
          "duration": 0.07692300000000074
        },
        {
          "name": "D#2",
          "midi": 39,
          "time": 37.26919350000005,
          "velocity": 0.7874015748031497,
          "duration": 0.07692300000000074
        },
        {
          "name": "D#2",
          "midi": 39,
          "time": 37.38457800000005,
          "velocity": 0.7874015748031497,
          "duration": 0.07692300000000074
        },
        {
          "name": "D#2",
          "midi": 39,
          "time": 37.499962500000045,
          "velocity": 0.7874015748031497,
          "duration": 0.07692300000000074
        },
        {
          "name": "D#2",
          "midi": 39,
          "time": 37.61534700000004,
          "velocity": 0.7874015748031497,
          "duration": 0.07692300000000074
        },
        {
          "name": "D#2",
          "midi": 39,
          "time": 37.73073150000004,
          "velocity": 0.7874015748031497,
          "duration": 0.07692300000000074
        },
        {
          "name": "D2",
          "midi": 38,
          "time": 37.84611600000004,
          "velocity": 0.7874015748031497,
          "duration": 0.07692300000000074
        },
        {
          "name": "D#2",
          "midi": 39,
          "time": 37.961500500000035,
          "velocity": 0.7874015748031497,
          "duration": 0.07692300000000074
        },
        {
          "name": "D#2",
          "midi": 39,
          "time": 38.07688500000003,
          "velocity": 0.7874015748031497,
          "duration": 0.07692300000000074
        },
        {
          "name": "D#2",
          "midi": 39,
          "time": 38.19226950000003,
          "velocity": 0.7874015748031497,
          "duration": 0.07692300000000074
        },
        {
          "name": "D#2",
          "midi": 39,
          "time": 38.30765400000003,
          "velocity": 0.7874015748031497,
          "duration": 0.07692300000000074
        },
        {
          "name": "D#2",
          "midi": 39,
          "time": 38.423038500000025,
          "velocity": 0.7874015748031497,
          "duration": 0.07692300000000074
        },
        {
          "name": "D#2",
          "midi": 39,
          "time": 38.53842300000002,
          "velocity": 0.7874015748031497,
          "duration": 0.07692300000000074
        },
        {
          "name": "D#2",
          "midi": 39,
          "time": 38.65380750000002,
          "velocity": 0.7874015748031497,
          "duration": 0.07692300000000074
        },
        {
          "name": "D2",
          "midi": 38,
          "time": 38.76919200000002,
          "velocity": 0.7874015748031497,
          "duration": 0.07692300000000074
        },
        {
          "name": "D#2",
          "midi": 39,
          "time": 38.884576500000016,
          "velocity": 0.7874015748031497,
          "duration": 0.07692300000000074
        },
        {
          "name": "D#2",
          "midi": 39,
          "time": 38.99996100000001,
          "velocity": 0.7874015748031497,
          "duration": 0.07692300000000074
        },
        {
          "name": "D#2",
          "midi": 39,
          "time": 39.11534550000001,
          "velocity": 0.7874015748031497,
          "duration": 0.07692300000000074
        },
        {
          "name": "D#2",
          "midi": 39,
          "time": 39.23073000000001,
          "velocity": 0.7874015748031497,
          "duration": 0.07692300000000074
        },
        {
          "name": "D#2",
          "midi": 39,
          "time": 39.346114500000006,
          "velocity": 0.7874015748031497,
          "duration": 0.07692300000000074
        },
        {
          "name": "D#2",
          "midi": 39,
          "time": 39.461499,
          "velocity": 0.7874015748031497,
          "duration": 0.07692300000000074
        },
        {
          "name": "D#2",
          "midi": 39,
          "time": 39.5768835,
          "velocity": 0.7874015748031497,
          "duration": 0.07692300000000074
        },
        {
          "name": "D2",
          "midi": 38,
          "time": 39.692268,
          "velocity": 0.7874015748031497,
          "duration": 0.07692300000000074
        },
        {
          "name": "D#2",
          "midi": 39,
          "time": 39.807652499999996,
          "velocity": 0.7874015748031497,
          "duration": 0.07692300000000074
        },
        {
          "name": "D#2",
          "midi": 39,
          "time": 39.923036999999994,
          "velocity": 0.7874015748031497,
          "duration": 0.07692300000000074
        },
        {
          "name": "D#2",
          "midi": 39,
          "time": 40.03842149999999,
          "velocity": 0.7874015748031497,
          "duration": 0.07692300000000074
        },
        {
          "name": "D2",
          "midi": 38,
          "time": 40.15380599999999,
          "velocity": 0.7874015748031497,
          "duration": 0.07692300000000074
        },
        {
          "name": "D#2",
          "midi": 39,
          "time": 40.269190499999986,
          "velocity": 0.7874015748031497,
          "duration": 0.07692300000000074
        },
        {
          "name": "D#2",
          "midi": 39,
          "time": 40.384574999999984,
          "velocity": 0.7874015748031497,
          "duration": 0.07692300000000074
        },
        {
          "name": "D#2",
          "midi": 39,
          "time": 40.49995949999998,
          "velocity": 0.7874015748031497,
          "duration": 0.07692300000000074
        },
        {
          "name": "D2",
          "midi": 38,
          "time": 40.61534399999998,
          "velocity": 0.7874015748031497,
          "duration": 0.07692300000000074
        },
        {
          "name": "D#2",
          "midi": 39,
          "time": 40.73072849999998,
          "velocity": 0.7874015748031497,
          "duration": 0.07692300000000074
        },
        {
          "name": "D#2",
          "midi": 39,
          "time": 40.846112999999974,
          "velocity": 0.7874015748031497,
          "duration": 0.07692300000000074
        },
        {
          "name": "D#2",
          "midi": 39,
          "time": 40.96149749999997,
          "velocity": 0.7874015748031497,
          "duration": 0.07692300000000074
        },
        {
          "name": "D#2",
          "midi": 39,
          "time": 41.07688199999997,
          "velocity": 0.7874015748031497,
          "duration": 0.07692300000000074
        },
        {
          "name": "D#2",
          "midi": 39,
          "time": 41.19226649999997,
          "velocity": 0.7874015748031497,
          "duration": 0.07692300000000074
        },
        {
          "name": "D#2",
          "midi": 39,
          "time": 41.307650999999964,
          "velocity": 0.7874015748031497,
          "duration": 0.07692300000000074
        },
        {
          "name": "D#2",
          "midi": 39,
          "time": 41.42303549999996,
          "velocity": 0.7874015748031497,
          "duration": 0.07692300000000074
        },
        {
          "name": "D2",
          "midi": 38,
          "time": 41.53841999999996,
          "velocity": 0.7874015748031497,
          "duration": 0.07692300000000074
        },
        {
          "name": "D#2",
          "midi": 39,
          "time": 41.65380449999996,
          "velocity": 0.7874015748031497,
          "duration": 0.07692300000000074
        },
        {
          "name": "D#2",
          "midi": 39,
          "time": 41.769188999999955,
          "velocity": 0.7874015748031497,
          "duration": 0.07692300000000074
        },
        {
          "name": "D#2",
          "midi": 39,
          "time": 41.88457349999995,
          "velocity": 0.7874015748031497,
          "duration": 0.07692300000000074
        },
        {
          "name": "D#2",
          "midi": 39,
          "time": 41.99995799999995,
          "velocity": 0.7874015748031497,
          "duration": 0.07692300000000074
        },
        {
          "name": "D#2",
          "midi": 39,
          "time": 42.11534249999995,
          "velocity": 0.7874015748031497,
          "duration": 0.07692300000000074
        },
        {
          "name": "D#2",
          "midi": 39,
          "time": 42.230726999999945,
          "velocity": 0.7874015748031497,
          "duration": 0.07692300000000074
        },
        {
          "name": "D#2",
          "midi": 39,
          "time": 42.34611149999994,
          "velocity": 0.7874015748031497,
          "duration": 0.07692300000000074
        },
        {
          "name": "D2",
          "midi": 38,
          "time": 42.46149599999994,
          "velocity": 0.7874015748031497,
          "duration": 0.07692300000000074
        },
        {
          "name": "D#2",
          "midi": 39,
          "time": 42.57688049999994,
          "velocity": 0.7874015748031497,
          "duration": 0.07692300000000074
        },
        {
          "name": "D#2",
          "midi": 39,
          "time": 42.692264999999935,
          "velocity": 0.7874015748031497,
          "duration": 0.07692300000000074
        },
        {
          "name": "D#2",
          "midi": 39,
          "time": 42.80764949999993,
          "velocity": 0.7874015748031497,
          "duration": 0.07692300000000074
        },
        {
          "name": "D#2",
          "midi": 39,
          "time": 42.92303399999993,
          "velocity": 0.7874015748031497,
          "duration": 0.07692300000000074
        },
        {
          "name": "D#2",
          "midi": 39,
          "time": 43.03841849999993,
          "velocity": 0.7874015748031497,
          "duration": 0.07692300000000074
        },
        {
          "name": "D#2",
          "midi": 39,
          "time": 43.153802999999925,
          "velocity": 0.7874015748031497,
          "duration": 0.07692300000000074
        },
        {
          "name": "D#2",
          "midi": 39,
          "time": 43.26918749999992,
          "velocity": 0.7874015748031497,
          "duration": 0.07692300000000074
        },
        {
          "name": "D2",
          "midi": 38,
          "time": 43.38457199999992,
          "velocity": 0.7874015748031497,
          "duration": 0.07692300000000074
        },
        {
          "name": "D#2",
          "midi": 39,
          "time": 43.49995649999992,
          "velocity": 0.7874015748031497,
          "duration": 0.07692300000000074
        },
        {
          "name": "D#2",
          "midi": 39,
          "time": 43.615340999999916,
          "velocity": 0.7874015748031497,
          "duration": 0.07692300000000074
        },
        {
          "name": "D#2",
          "midi": 39,
          "time": 43.73072549999991,
          "velocity": 0.7874015748031497,
          "duration": 0.07692300000000074
        },
        {
          "name": "D2",
          "midi": 38,
          "time": 43.84610999999991,
          "velocity": 0.7874015748031497,
          "duration": 0.07692300000000074
        },
        {
          "name": "D#2",
          "midi": 39,
          "time": 43.96149449999991,
          "velocity": 0.7874015748031497,
          "duration": 0.07692300000000074
        },
        {
          "name": "D#2",
          "midi": 39,
          "time": 44.076878999999906,
          "velocity": 0.7874015748031497,
          "duration": 0.07692300000000074
        },
        {
          "name": "D#2",
          "midi": 39,
          "time": 44.1922634999999,
          "velocity": 0.7874015748031497,
          "duration": 0.07692300000000074
        },
        {
          "name": "D2",
          "midi": 38,
          "time": 44.3076479999999,
          "velocity": 0.7874015748031497,
          "duration": 0.07692300000000074
        },
        {
          "name": "D#2",
          "midi": 39,
          "time": 44.4230324999999,
          "velocity": 0.7874015748031497,
          "duration": 0.07692300000000074
        },
        {
          "name": "D#2",
          "midi": 39,
          "time": 44.538416999999896,
          "velocity": 0.7874015748031497,
          "duration": 0.07692300000000074
        },
        {
          "name": "D#2",
          "midi": 39,
          "time": 44.653801499999894,
          "velocity": 0.7874015748031497,
          "duration": 0.07692300000000074
        },
        {
          "name": "D#2",
          "midi": 39,
          "time": 44.76918599999989,
          "velocity": 0.7874015748031497,
          "duration": 0.07692300000000074
        },
        {
          "name": "D#2",
          "midi": 39,
          "time": 44.88457049999989,
          "velocity": 0.7874015748031497,
          "duration": 0.07692300000000074
        },
        {
          "name": "D#2",
          "midi": 39,
          "time": 44.999954999999886,
          "velocity": 0.7874015748031497,
          "duration": 0.07692300000000074
        },
        {
          "name": "D#2",
          "midi": 39,
          "time": 45.115339499999884,
          "velocity": 0.7874015748031497,
          "duration": 0.07692300000000074
        },
        {
          "name": "D2",
          "midi": 38,
          "time": 45.23072399999988,
          "velocity": 0.7874015748031497,
          "duration": 0.07692300000000074
        },
        {
          "name": "D#2",
          "midi": 39,
          "time": 45.34610849999988,
          "velocity": 0.7874015748031497,
          "duration": 0.07692300000000074
        },
        {
          "name": "D#2",
          "midi": 39,
          "time": 45.46149299999988,
          "velocity": 0.7874015748031497,
          "duration": 0.07692300000000074
        },
        {
          "name": "D#2",
          "midi": 39,
          "time": 45.576877499999874,
          "velocity": 0.7874015748031497,
          "duration": 0.07692300000000074
        },
        {
          "name": "D#2",
          "midi": 39,
          "time": 45.69226199999987,
          "velocity": 0.7874015748031497,
          "duration": 0.07692300000000074
        },
        {
          "name": "D#2",
          "midi": 39,
          "time": 45.80764649999987,
          "velocity": 0.7874015748031497,
          "duration": 0.07692300000000074
        },
        {
          "name": "D#2",
          "midi": 39,
          "time": 45.92303099999987,
          "velocity": 0.7874015748031497,
          "duration": 0.07692300000000074
        },
        {
          "name": "D#2",
          "midi": 39,
          "time": 46.038415499999864,
          "velocity": 0.7874015748031497,
          "duration": 0.07692300000000074
        },
        {
          "name": "D2",
          "midi": 38,
          "time": 46.15379999999986,
          "velocity": 0.7874015748031497,
          "duration": 0.07692300000000074
        },
        {
          "name": "D#2",
          "midi": 39,
          "time": 46.26918449999986,
          "velocity": 0.7874015748031497,
          "duration": 0.07692300000000074
        },
        {
          "name": "D#2",
          "midi": 39,
          "time": 46.38456899999986,
          "velocity": 0.7874015748031497,
          "duration": 0.07692300000000074
        },
        {
          "name": "D#2",
          "midi": 39,
          "time": 46.499953499999855,
          "velocity": 0.7874015748031497,
          "duration": 0.07692300000000074
        },
        {
          "name": "D#2",
          "midi": 39,
          "time": 46.61533799999985,
          "velocity": 0.7874015748031497,
          "duration": 0.07692300000000074
        },
        {
          "name": "D#2",
          "midi": 39,
          "time": 46.73072249999985,
          "velocity": 0.7874015748031497,
          "duration": 0.07692300000000074
        },
        {
          "name": "D#2",
          "midi": 39,
          "time": 46.84610699999985,
          "velocity": 0.7874015748031497,
          "duration": 0.07692300000000074
        },
        {
          "name": "D#2",
          "midi": 39,
          "time": 46.961491499999845,
          "velocity": 0.7874015748031497,
          "duration": 0.07692300000000074
        },
        {
          "name": "D2",
          "midi": 38,
          "time": 47.07687599999984,
          "velocity": 0.7874015748031497,
          "duration": 0.07692300000000074
        },
        {
          "name": "D#2",
          "midi": 39,
          "time": 47.19226049999984,
          "velocity": 0.7874015748031497,
          "duration": 0.07692300000000074
        },
        {
          "name": "D#2",
          "midi": 39,
          "time": 47.30764499999984,
          "velocity": 0.7874015748031497,
          "duration": 0.07692300000000074
        },
        {
          "name": "D#2",
          "midi": 39,
          "time": 47.423029499999835,
          "velocity": 0.7874015748031497,
          "duration": 0.07692300000000074
        },
        {
          "name": "D2",
          "midi": 38,
          "time": 47.53841399999983,
          "velocity": 0.7874015748031497,
          "duration": 0.07692300000000074
        },
        {
          "name": "D#2",
          "midi": 39,
          "time": 47.65379849999983,
          "velocity": 0.7874015748031497,
          "duration": 0.07692300000000074
        },
        {
          "name": "D#2",
          "midi": 39,
          "time": 47.76918299999983,
          "velocity": 0.7874015748031497,
          "duration": 0.07692300000000074
        },
        {
          "name": "D#2",
          "midi": 39,
          "time": 47.884567499999825,
          "velocity": 0.7874015748031497,
          "duration": 0.07692300000000074
        },
        {
          "name": "D2",
          "midi": 38,
          "time": 47.99995199999982,
          "velocity": 0.7874015748031497,
          "duration": 0.07692300000000074
        },
        {
          "name": "D#2",
          "midi": 39,
          "time": 48.11533649999982,
          "velocity": 0.7874015748031497,
          "duration": 0.07692300000000074
        },
        {
          "name": "D#2",
          "midi": 39,
          "time": 48.23072099999982,
          "velocity": 0.7874015748031497,
          "duration": 0.07692300000000074
        },
        {
          "name": "D#2",
          "midi": 39,
          "time": 48.346105499999815,
          "velocity": 0.7874015748031497,
          "duration": 0.07692300000000074
        },
        {
          "name": "D#2",
          "midi": 39,
          "time": 48.46148999999981,
          "velocity": 0.7874015748031497,
          "duration": 0.07692300000000074
        },
        {
          "name": "D#2",
          "midi": 39,
          "time": 48.57687449999981,
          "velocity": 0.7874015748031497,
          "duration": 0.07692300000000074
        },
        {
          "name": "D#2",
          "midi": 39,
          "time": 48.69225899999981,
          "velocity": 0.7874015748031497,
          "duration": 0.07692300000000074
        },
        {
          "name": "D#2",
          "midi": 39,
          "time": 48.807643499999806,
          "velocity": 0.7874015748031497,
          "duration": 0.07692300000000074
        },
        {
          "name": "D2",
          "midi": 38,
          "time": 48.9230279999998,
          "velocity": 0.7874015748031497,
          "duration": 0.07692300000000074
        },
        {
          "name": "D#2",
          "midi": 39,
          "time": 49.0384124999998,
          "velocity": 0.7874015748031497,
          "duration": 0.07692300000000074
        },
        {
          "name": "D#2",
          "midi": 39,
          "time": 49.1537969999998,
          "velocity": 0.7874015748031497,
          "duration": 0.07692300000000074
        },
        {
          "name": "D#2",
          "midi": 39,
          "time": 49.269181499999796,
          "velocity": 0.7874015748031497,
          "duration": 0.07692300000000074
        },
        {
          "name": "D#2",
          "midi": 39,
          "time": 49.38456599999979,
          "velocity": 0.7874015748031497,
          "duration": 0.07692300000000074
        },
        {
          "name": "D#2",
          "midi": 39,
          "time": 49.49995049999979,
          "velocity": 0.7874015748031497,
          "duration": 0.07692300000000074
        },
        {
          "name": "D#2",
          "midi": 39,
          "time": 49.61533499999979,
          "velocity": 0.7874015748031497,
          "duration": 0.07692300000000074
        },
        {
          "name": "D#2",
          "midi": 39,
          "time": 49.730719499999786,
          "velocity": 0.7874015748031497,
          "duration": 0.07692300000000074
        },
        {
          "name": "D2",
          "midi": 38,
          "time": 49.846103999999784,
          "velocity": 0.7874015748031497,
          "duration": 0.07692300000000074
        },
        {
          "name": "D#2",
          "midi": 39,
          "time": 49.96148849999978,
          "velocity": 0.7874015748031497,
          "duration": 0.07692300000000074
        },
        {
          "name": "D#2",
          "midi": 39,
          "time": 50.07687299999978,
          "velocity": 0.7874015748031497,
          "duration": 0.07692300000000074
        },
        {
          "name": "D#2",
          "midi": 39,
          "time": 50.192257499999776,
          "velocity": 0.7874015748031497,
          "duration": 0.07692300000000074
        },
        {
          "name": "D#2",
          "midi": 39,
          "time": 50.307641999999774,
          "velocity": 0.7874015748031497,
          "duration": 0.07692300000000074
        },
        {
          "name": "D#2",
          "midi": 39,
          "time": 50.42302649999977,
          "velocity": 0.7874015748031497,
          "duration": 0.07692300000000074
        },
        {
          "name": "D#2",
          "midi": 39,
          "time": 50.53841099999977,
          "velocity": 0.7874015748031497,
          "duration": 0.07692300000000074
        },
        {
          "name": "D#2",
          "midi": 39,
          "time": 50.65379549999977,
          "velocity": 0.7874015748031497,
          "duration": 0.07692300000000074
        },
        {
          "name": "D2",
          "midi": 38,
          "time": 50.769179999999764,
          "velocity": 0.7874015748031497,
          "duration": 0.07692300000000074
        },
        {
          "name": "D#2",
          "midi": 39,
          "time": 50.88456449999976,
          "velocity": 0.7874015748031497,
          "duration": 0.07692300000000074
        },
        {
          "name": "D#2",
          "midi": 39,
          "time": 50.99994899999976,
          "velocity": 0.7874015748031497,
          "duration": 0.07692300000000074
        },
        {
          "name": "D#2",
          "midi": 39,
          "time": 51.11533349999976,
          "velocity": 0.7874015748031497,
          "duration": 0.07692300000000074
        },
        {
          "name": "D2",
          "midi": 38,
          "time": 51.230717999999754,
          "velocity": 0.7874015748031497,
          "duration": 0.07692300000000074
        },
        {
          "name": "D#2",
          "midi": 39,
          "time": 51.34610249999975,
          "velocity": 0.7874015748031497,
          "duration": 0.07692300000000074
        },
        {
          "name": "D#2",
          "midi": 39,
          "time": 51.46148699999975,
          "velocity": 0.7874015748031497,
          "duration": 0.07692300000000074
        },
        {
          "name": "D#2",
          "midi": 39,
          "time": 51.57687149999975,
          "velocity": 0.7874015748031497,
          "duration": 0.07692300000000074
        },
        {
          "name": "D2",
          "midi": 38,
          "time": 51.692255999999745,
          "velocity": 0.7874015748031497,
          "duration": 0.07692300000000074
        },
        {
          "name": "D#2",
          "midi": 39,
          "time": 51.80764049999974,
          "velocity": 0.7874015748031497,
          "duration": 0.07692300000000074
        },
        {
          "name": "D#2",
          "midi": 39,
          "time": 51.92302499999974,
          "velocity": 0.7874015748031497,
          "duration": 0.07692300000000074
        },
        {
          "name": "D#2",
          "midi": 39,
          "time": 52.03840949999974,
          "velocity": 0.7874015748031497,
          "duration": 0.07692300000000074
        },
        {
          "name": "D#2",
          "midi": 39,
          "time": 52.153793999999735,
          "velocity": 0.7874015748031497,
          "duration": 0.07692300000000074
        },
        {
          "name": "D#2",
          "midi": 39,
          "time": 52.26917849999973,
          "velocity": 0.7874015748031497,
          "duration": 0.07692300000000074
        },
        {
          "name": "D#2",
          "midi": 39,
          "time": 52.38456299999973,
          "velocity": 0.7874015748031497,
          "duration": 0.07692300000000074
        },
        {
          "name": "D#2",
          "midi": 39,
          "time": 52.49994749999973,
          "velocity": 0.7874015748031497,
          "duration": 0.07692300000000074
        },
        {
          "name": "D2",
          "midi": 38,
          "time": 52.615331999999725,
          "velocity": 0.7874015748031497,
          "duration": 0.07692300000000074
        },
        {
          "name": "D#2",
          "midi": 39,
          "time": 52.73071649999972,
          "velocity": 0.7874015748031497,
          "duration": 0.07692300000000074
        },
        {
          "name": "D#2",
          "midi": 39,
          "time": 52.84610099999972,
          "velocity": 0.7874015748031497,
          "duration": 0.07692300000000074
        },
        {
          "name": "D#2",
          "midi": 39,
          "time": 52.96148549999972,
          "velocity": 0.7874015748031497,
          "duration": 0.07692300000000074
        },
        {
          "name": "D#2",
          "midi": 39,
          "time": 53.076869999999715,
          "velocity": 0.7874015748031497,
          "duration": 0.07692300000000074
        },
        {
          "name": "D#2",
          "midi": 39,
          "time": 53.19225449999971,
          "velocity": 0.7874015748031497,
          "duration": 0.07692300000000074
        },
        {
          "name": "D#2",
          "midi": 39,
          "time": 53.30763899999971,
          "velocity": 0.7874015748031497,
          "duration": 0.07692300000000074
        },
        {
          "name": "D#2",
          "midi": 39,
          "time": 53.42302349999971,
          "velocity": 0.7874015748031497,
          "duration": 0.07692300000000074
        },
        {
          "name": "D2",
          "midi": 38,
          "time": 53.538407999999706,
          "velocity": 0.7874015748031497,
          "duration": 0.07692300000000074
        },
        {
          "name": "D#2",
          "midi": 39,
          "time": 53.6537924999997,
          "velocity": 0.7874015748031497,
          "duration": 0.07692300000000074
        },
        {
          "name": "D#2",
          "midi": 39,
          "time": 53.7691769999997,
          "velocity": 0.7874015748031497,
          "duration": 0.07692300000000074
        },
        {
          "name": "D#2",
          "midi": 39,
          "time": 53.8845614999997,
          "velocity": 0.7874015748031497,
          "duration": 0.07692300000000074
        },
        {
          "name": "D#2",
          "midi": 39,
          "time": 53.999945999999696,
          "velocity": 0.7874015748031497,
          "duration": 0.07692300000000074
        },
        {
          "name": "D#2",
          "midi": 39,
          "time": 54.11533049999969,
          "velocity": 0.7874015748031497,
          "duration": 0.07692300000000074
        },
        {
          "name": "D#2",
          "midi": 39,
          "time": 54.23071499999969,
          "velocity": 0.7874015748031497,
          "duration": 0.07692300000000074
        },
        {
          "name": "D#2",
          "midi": 39,
          "time": 54.34609949999969,
          "velocity": 0.7874015748031497,
          "duration": 0.07692300000000074
        },
        {
          "name": "D2",
          "midi": 38,
          "time": 54.461483999999686,
          "velocity": 0.7874015748031497,
          "duration": 0.07692300000000074
        },
        {
          "name": "D#2",
          "midi": 39,
          "time": 54.576868499999684,
          "velocity": 0.7874015748031497,
          "duration": 0.07692300000000074
        },
        {
          "name": "D#2",
          "midi": 39,
          "time": 54.69225299999968,
          "velocity": 0.7874015748031497,
          "duration": 0.07692300000000074
        },
        {
          "name": "D#2",
          "midi": 39,
          "time": 54.80763749999968,
          "velocity": 0.7874015748031497,
          "duration": 0.07692300000000074
        },
        {
          "name": "D2",
          "midi": 38,
          "time": 54.923021999999676,
          "velocity": 0.7874015748031497,
          "duration": 0.07692300000000074
        },
        {
          "name": "D#2",
          "midi": 39,
          "time": 55.038406499999674,
          "velocity": 0.7874015748031497,
          "duration": 0.07692300000000074
        },
        {
          "name": "D#2",
          "midi": 39,
          "time": 55.15379099999967,
          "velocity": 0.7874015748031497,
          "duration": 0.07692300000000074
        },
        {
          "name": "D#2",
          "midi": 39,
          "time": 55.26917549999967,
          "velocity": 0.7874015748031497,
          "duration": 0.07692300000000074
        },
        {
          "name": "D2",
          "midi": 38,
          "time": 55.38455999999967,
          "velocity": 0.7874015748031497,
          "duration": 0.07692300000000074
        },
        {
          "name": "D#2",
          "midi": 39,
          "time": 55.499944499999664,
          "velocity": 0.7874015748031497,
          "duration": 0.07692300000000074
        },
        {
          "name": "D#2",
          "midi": 39,
          "time": 55.61532899999966,
          "velocity": 0.7874015748031497,
          "duration": 0.07692300000000074
        },
        {
          "name": "D#2",
          "midi": 39,
          "time": 55.73071349999966,
          "velocity": 0.7874015748031497,
          "duration": 0.07692300000000074
        },
        {
          "name": "D#2",
          "midi": 39,
          "time": 55.84609799999966,
          "velocity": 0.7874015748031497,
          "duration": 0.07692300000000074
        },
        {
          "name": "D#2",
          "midi": 39,
          "time": 55.961482499999654,
          "velocity": 0.7874015748031497,
          "duration": 0.07692300000000074
        },
        {
          "name": "D#2",
          "midi": 39,
          "time": 56.07686699999965,
          "velocity": 0.7874015748031497,
          "duration": 0.07692300000000074
        },
        {
          "name": "D#2",
          "midi": 39,
          "time": 56.19225149999965,
          "velocity": 0.7874015748031497,
          "duration": 0.07692300000000074
        },
        {
          "name": "D2",
          "midi": 38,
          "time": 56.30763599999965,
          "velocity": 0.7874015748031497,
          "duration": 0.07692300000000074
        },
        {
          "name": "D#2",
          "midi": 39,
          "time": 56.423020499999645,
          "velocity": 0.7874015748031497,
          "duration": 0.07692300000000074
        },
        {
          "name": "D#2",
          "midi": 39,
          "time": 56.53840499999964,
          "velocity": 0.7874015748031497,
          "duration": 0.07692300000000074
        },
        {
          "name": "D#2",
          "midi": 39,
          "time": 56.65378949999964,
          "velocity": 0.7874015748031497,
          "duration": 0.07692300000000074
        },
        {
          "name": "D#2",
          "midi": 39,
          "time": 56.76917399999964,
          "velocity": 0.7874015748031497,
          "duration": 0.07692300000000074
        },
        {
          "name": "D#2",
          "midi": 39,
          "time": 56.884558499999635,
          "velocity": 0.7874015748031497,
          "duration": 0.07692300000000074
        },
        {
          "name": "D#2",
          "midi": 39,
          "time": 56.99994299999963,
          "velocity": 0.7874015748031497,
          "duration": 0.07692300000000074
        },
        {
          "name": "D#2",
          "midi": 39,
          "time": 57.11532749999963,
          "velocity": 0.7874015748031497,
          "duration": 0.07692300000000074
        },
        {
          "name": "D2",
          "midi": 38,
          "time": 57.23071199999963,
          "velocity": 0.7874015748031497,
          "duration": 0.07692300000000074
        },
        {
          "name": "D#2",
          "midi": 39,
          "time": 57.346096499999625,
          "velocity": 0.7874015748031497,
          "duration": 0.07692300000000074
        },
        {
          "name": "D#2",
          "midi": 39,
          "time": 57.46148099999962,
          "velocity": 0.7874015748031497,
          "duration": 0.07692300000000074
        },
        {
          "name": "D#2",
          "midi": 39,
          "time": 57.57686549999962,
          "velocity": 0.7874015748031497,
          "duration": 0.07692300000000074
        },
        {
          "name": "D#2",
          "midi": 39,
          "time": 57.69224999999962,
          "velocity": 0.7874015748031497,
          "duration": 0.07692300000000074
        },
        {
          "name": "D#2",
          "midi": 39,
          "time": 57.807634499999615,
          "velocity": 0.7874015748031497,
          "duration": 0.07692300000000074
        },
        {
          "name": "D#2",
          "midi": 39,
          "time": 57.92301899999961,
          "velocity": 0.7874015748031497,
          "duration": 0.07692300000000074
        },
        {
          "name": "D#2",
          "midi": 39,
          "time": 58.03840349999961,
          "velocity": 0.7874015748031497,
          "duration": 0.07692300000000074
        },
        {
          "name": "D2",
          "midi": 38,
          "time": 58.15378799999961,
          "velocity": 0.7874015748031497,
          "duration": 0.07692300000000074
        },
        {
          "name": "D#2",
          "midi": 39,
          "time": 58.269172499999605,
          "velocity": 0.7874015748031497,
          "duration": 0.07692300000000074
        },
        {
          "name": "D#2",
          "midi": 39,
          "time": 58.3845569999996,
          "velocity": 0.7874015748031497,
          "duration": 0.07692300000000074
        },
        {
          "name": "D#2",
          "midi": 39,
          "time": 58.4999414999996,
          "velocity": 0.7874015748031497,
          "duration": 0.07692300000000074
        },
        {
          "name": "D2",
          "midi": 38,
          "time": 58.6153259999996,
          "velocity": 0.7874015748031497,
          "duration": 0.07692300000000074
        },
        {
          "name": "D#2",
          "midi": 39,
          "time": 58.730710499999596,
          "velocity": 0.7874015748031497,
          "duration": 0.07692300000000074
        },
        {
          "name": "D#2",
          "midi": 39,
          "time": 58.84609499999959,
          "velocity": 0.7874015748031497,
          "duration": 0.07692300000000074
        },
        {
          "name": "D#2",
          "midi": 39,
          "time": 58.96147949999959,
          "velocity": 0.7874015748031497,
          "duration": 0.07692300000000074
        },
        {
          "name": "A#1",
          "midi": 34,
          "time": 59.07686399999959,
          "velocity": 0.7874015748031497,
          "duration": 0.15384600000000148
        },
        {
          "name": "A#1",
          "midi": 34,
          "time": 59.30763299999959,
          "velocity": 0.7874015748031497,
          "duration": 0.15384600000000148
        },
        {
          "name": "A#1",
          "midi": 34,
          "time": 59.53840199999959,
          "velocity": 0.7874015748031497,
          "duration": 0.15384600000000148
        },
        {
          "name": "A#1",
          "midi": 34,
          "time": 59.769170999999595,
          "velocity": 0.7874015748031497,
          "duration": 0.15384600000000148
        },
        {
          "name": "A#1",
          "midi": 34,
          "time": 59.9999399999996,
          "velocity": 0.7874015748031497,
          "duration": 0.15384600000000148
        },
        {
          "name": "A#1",
          "midi": 34,
          "time": 60.2307089999996,
          "velocity": 0.7874015748031497,
          "duration": 0.15384600000000148
        },
        {
          "name": "A#1",
          "midi": 34,
          "time": 60.4614779999996,
          "velocity": 0.7874015748031497,
          "duration": 0.15384600000000148
        },
        {
          "name": "A#1",
          "midi": 34,
          "time": 60.692246999999604,
          "velocity": 0.7874015748031497,
          "duration": 0.15384600000000148
        },
        {
          "name": "A1",
          "midi": 33,
          "time": 60.923015999999606,
          "velocity": 0.7874015748031497,
          "duration": 0.15384600000000148
        },
        {
          "name": "A1",
          "midi": 33,
          "time": 61.15378499999961,
          "velocity": 0.7874015748031497,
          "duration": 0.15384600000000148
        },
        {
          "name": "A1",
          "midi": 33,
          "time": 61.38455399999961,
          "velocity": 0.7874015748031497,
          "duration": 0.15384600000000148
        },
        {
          "name": "A1",
          "midi": 33,
          "time": 61.61532299999961,
          "velocity": 0.7874015748031497,
          "duration": 0.15384600000000148
        },
        {
          "name": "G#1",
          "midi": 32,
          "time": 61.846091999999615,
          "velocity": 0.7874015748031497,
          "duration": 0.15384600000000148
        },
        {
          "name": "G#1",
          "midi": 32,
          "time": 62.07686099999962,
          "velocity": 0.7874015748031497,
          "duration": 0.15384600000000148
        },
        {
          "name": "G#1",
          "midi": 32,
          "time": 62.30762999999962,
          "velocity": 0.7874015748031497,
          "duration": 0.15384600000000148
        },
        {
          "name": "G#1",
          "midi": 32,
          "time": 62.53839899999962,
          "velocity": 0.7874015748031497,
          "duration": 0.15384600000000148
        },
        {
          "name": "D2",
          "midi": 38,
          "time": 62.769167999999624,
          "velocity": 0.7874015748031497,
          "duration": 0.07692300000000074
        },
        {
          "name": "D#2",
          "midi": 39,
          "time": 62.88455249999962,
          "velocity": 0.7874015748031497,
          "duration": 0.07692300000000074
        },
        {
          "name": "D#2",
          "midi": 39,
          "time": 62.99993699999962,
          "velocity": 0.7874015748031497,
          "duration": 0.07692300000000074
        },
        {
          "name": "D#2",
          "midi": 39,
          "time": 63.11532149999962,
          "velocity": 0.7874015748031497,
          "duration": 0.07692300000000074
        },
        {
          "name": "D#2",
          "midi": 39,
          "time": 63.230705999999614,
          "velocity": 0.7874015748031497,
          "duration": 0.07692300000000074
        },
        {
          "name": "D#2",
          "midi": 39,
          "time": 63.34609049999961,
          "velocity": 0.7874015748031497,
          "duration": 0.07692300000000074
        },
        {
          "name": "D#2",
          "midi": 39,
          "time": 63.46147499999961,
          "velocity": 0.7874015748031497,
          "duration": 0.07692300000000074
        },
        {
          "name": "D#2",
          "midi": 39,
          "time": 63.57685949999961,
          "velocity": 0.7874015748031497,
          "duration": 0.07692300000000074
        },
        {
          "name": "D2",
          "midi": 38,
          "time": 63.692243999999604,
          "velocity": 0.7874015748031497,
          "duration": 0.07692300000000074
        },
        {
          "name": "D#2",
          "midi": 39,
          "time": 63.8076284999996,
          "velocity": 0.7874015748031497,
          "duration": 0.07692300000000074
        },
        {
          "name": "D#2",
          "midi": 39,
          "time": 63.9230129999996,
          "velocity": 0.7874015748031497,
          "duration": 0.07692300000000074
        },
        {
          "name": "D#2",
          "midi": 39,
          "time": 64.0383974999996,
          "velocity": 0.7874015748031497,
          "duration": 0.07692299999999364
        },
        {
          "name": "D#2",
          "midi": 39,
          "time": 64.1537819999996,
          "velocity": 0.7874015748031497,
          "duration": 0.07692299999999364
        },
        {
          "name": "D#2",
          "midi": 39,
          "time": 64.26916649999959,
          "velocity": 0.7874015748031497,
          "duration": 0.07692299999999364
        },
        {
          "name": "D#2",
          "midi": 39,
          "time": 64.38455099999958,
          "velocity": 0.7874015748031497,
          "duration": 0.07692299999999364
        },
        {
          "name": "D#2",
          "midi": 39,
          "time": 64.49993549999957,
          "velocity": 0.7874015748031497,
          "duration": 0.07692299999999364
        },
        {
          "name": "D2",
          "midi": 38,
          "time": 64.61531999999956,
          "velocity": 0.7874015748031497,
          "duration": 0.07692299999999364
        },
        {
          "name": "D#2",
          "midi": 39,
          "time": 64.73070449999955,
          "velocity": 0.7874015748031497,
          "duration": 0.07692299999999364
        },
        {
          "name": "D#2",
          "midi": 39,
          "time": 64.84608899999954,
          "velocity": 0.7874015748031497,
          "duration": 0.07692299999999364
        },
        {
          "name": "D#2",
          "midi": 39,
          "time": 64.96147349999953,
          "velocity": 0.7874015748031497,
          "duration": 0.07692299999999364
        },
        {
          "name": "D#2",
          "midi": 39,
          "time": 65.07685799999952,
          "velocity": 0.7874015748031497,
          "duration": 0.07692299999999364
        },
        {
          "name": "D#2",
          "midi": 39,
          "time": 65.19224249999951,
          "velocity": 0.7874015748031497,
          "duration": 0.07692299999999364
        },
        {
          "name": "D#2",
          "midi": 39,
          "time": 65.3076269999995,
          "velocity": 0.7874015748031497,
          "duration": 0.07692299999999364
        },
        {
          "name": "D#2",
          "midi": 39,
          "time": 65.42301149999949,
          "velocity": 0.7874015748031497,
          "duration": 0.07692299999999364
        },
        {
          "name": "D2",
          "midi": 38,
          "time": 65.53839599999948,
          "velocity": 0.7874015748031497,
          "duration": 0.07692299999999364
        },
        {
          "name": "D#2",
          "midi": 39,
          "time": 65.65378049999947,
          "velocity": 0.7874015748031497,
          "duration": 0.07692299999999364
        },
        {
          "name": "D#2",
          "midi": 39,
          "time": 65.76916499999946,
          "velocity": 0.7874015748031497,
          "duration": 0.07692299999999364
        },
        {
          "name": "D#2",
          "midi": 39,
          "time": 65.88454949999945,
          "velocity": 0.7874015748031497,
          "duration": 0.07692299999999364
        },
        {
          "name": "D2",
          "midi": 38,
          "time": 65.99993399999944,
          "velocity": 0.7874015748031497,
          "duration": 0.07692299999999364
        },
        {
          "name": "D#2",
          "midi": 39,
          "time": 66.11531849999943,
          "velocity": 0.7874015748031497,
          "duration": 0.07692299999999364
        },
        {
          "name": "D#2",
          "midi": 39,
          "time": 66.23070299999942,
          "velocity": 0.7874015748031497,
          "duration": 0.07692299999999364
        },
        {
          "name": "D#2",
          "midi": 39,
          "time": 66.34608749999941,
          "velocity": 0.7874015748031497,
          "duration": 0.07692299999999364
        },
        {
          "name": "A#1",
          "midi": 34,
          "time": 66.4614719999994,
          "velocity": 0.7874015748031497,
          "duration": 0.15384600000000148
        },
        {
          "name": "A#1",
          "midi": 34,
          "time": 66.6922409999994,
          "velocity": 0.7874015748031497,
          "duration": 0.15384600000000148
        },
        {
          "name": "A#1",
          "midi": 34,
          "time": 66.9230099999994,
          "velocity": 0.7874015748031497,
          "duration": 0.15384600000000148
        },
        {
          "name": "A#1",
          "midi": 34,
          "time": 67.15377899999939,
          "velocity": 0.7874015748031497,
          "duration": 0.15384600000000148
        },
        {
          "name": "A#1",
          "midi": 34,
          "time": 67.38454799999938,
          "velocity": 0.7874015748031497,
          "duration": 0.15384600000000148
        },
        {
          "name": "A#1",
          "midi": 34,
          "time": 67.61531699999938,
          "velocity": 0.7874015748031497,
          "duration": 0.15384600000000148
        },
        {
          "name": "A#1",
          "midi": 34,
          "time": 67.84608599999937,
          "velocity": 0.7874015748031497,
          "duration": 0.15384600000000148
        },
        {
          "name": "A#1",
          "midi": 34,
          "time": 68.07685499999937,
          "velocity": 0.7874015748031497,
          "duration": 0.15384600000000148
        },
        {
          "name": "A1",
          "midi": 33,
          "time": 68.30762399999936,
          "velocity": 0.7874015748031497,
          "duration": 0.15384600000000148
        },
        {
          "name": "A1",
          "midi": 33,
          "time": 68.53839299999936,
          "velocity": 0.7874015748031497,
          "duration": 0.15384600000000148
        },
        {
          "name": "A1",
          "midi": 33,
          "time": 68.76916199999935,
          "velocity": 0.7874015748031497,
          "duration": 0.15384600000000148
        },
        {
          "name": "A1",
          "midi": 33,
          "time": 68.99993099999935,
          "velocity": 0.7874015748031497,
          "duration": 0.15384600000000148
        },
        {
          "name": "G#1",
          "midi": 32,
          "time": 69.23069999999935,
          "velocity": 0.7874015748031497,
          "duration": 0.15384600000000148
        },
        {
          "name": "G#1",
          "midi": 32,
          "time": 69.46146899999934,
          "velocity": 0.7874015748031497,
          "duration": 0.15384600000000148
        },
        {
          "name": "G#1",
          "midi": 32,
          "time": 69.69223799999934,
          "velocity": 0.7874015748031497,
          "duration": 0.15384600000000148
        },
        {
          "name": "G#1",
          "midi": 32,
          "time": 69.92300699999933,
          "velocity": 0.7874015748031497,
          "duration": 0.15384600000000148
        },
        {
          "name": "D2",
          "midi": 38,
          "time": 70.15377599999933,
          "velocity": 0.7874015748031497,
          "duration": 0.07692299999999364
        },
        {
          "name": "D#2",
          "midi": 39,
          "time": 70.26916049999932,
          "velocity": 0.7874015748031497,
          "duration": 0.07692299999999364
        },
        {
          "name": "D#2",
          "midi": 39,
          "time": 70.3845449999993,
          "velocity": 0.7874015748031497,
          "duration": 0.07692299999999364
        },
        {
          "name": "D#2",
          "midi": 39,
          "time": 70.4999294999993,
          "velocity": 0.7874015748031497,
          "duration": 0.07692299999999364
        },
        {
          "name": "D#2",
          "midi": 39,
          "time": 70.61531399999929,
          "velocity": 0.7874015748031497,
          "duration": 0.07692299999999364
        },
        {
          "name": "D#2",
          "midi": 39,
          "time": 70.73069849999928,
          "velocity": 0.7874015748031497,
          "duration": 0.07692299999999364
        },
        {
          "name": "D#2",
          "midi": 39,
          "time": 70.84608299999927,
          "velocity": 0.7874015748031497,
          "duration": 0.07692299999999364
        },
        {
          "name": "D#2",
          "midi": 39,
          "time": 70.96146749999926,
          "velocity": 0.7874015748031497,
          "duration": 0.07692299999999364
        },
        {
          "name": "D2",
          "midi": 38,
          "time": 71.07685199999925,
          "velocity": 0.7874015748031497,
          "duration": 0.07692299999999364
        },
        {
          "name": "D#2",
          "midi": 39,
          "time": 71.19223649999924,
          "velocity": 0.7874015748031497,
          "duration": 0.07692299999999364
        },
        {
          "name": "D#2",
          "midi": 39,
          "time": 71.30762099999923,
          "velocity": 0.7874015748031497,
          "duration": 0.07692299999999364
        },
        {
          "name": "D#2",
          "midi": 39,
          "time": 71.42300549999922,
          "velocity": 0.7874015748031497,
          "duration": 0.07692299999999364
        },
        {
          "name": "D#2",
          "midi": 39,
          "time": 71.53838999999921,
          "velocity": 0.7874015748031497,
          "duration": 0.07692299999999364
        },
        {
          "name": "D#2",
          "midi": 39,
          "time": 71.6537744999992,
          "velocity": 0.7874015748031497,
          "duration": 0.07692299999999364
        },
        {
          "name": "D#2",
          "midi": 39,
          "time": 71.76915899999919,
          "velocity": 0.7874015748031497,
          "duration": 0.07692299999999364
        },
        {
          "name": "D#2",
          "midi": 39,
          "time": 71.88454349999918,
          "velocity": 0.7874015748031497,
          "duration": 0.07692299999999364
        },
        {
          "name": "D2",
          "midi": 38,
          "time": 71.99992799999917,
          "velocity": 0.7874015748031497,
          "duration": 0.07692299999999364
        },
        {
          "name": "D#2",
          "midi": 39,
          "time": 72.11531249999916,
          "velocity": 0.7874015748031497,
          "duration": 0.07692299999999364
        },
        {
          "name": "D#2",
          "midi": 39,
          "time": 72.23069699999915,
          "velocity": 0.7874015748031497,
          "duration": 0.07692299999999364
        },
        {
          "name": "D#2",
          "midi": 39,
          "time": 72.34608149999914,
          "velocity": 0.7874015748031497,
          "duration": 0.07692299999999364
        },
        {
          "name": "D#2",
          "midi": 39,
          "time": 72.46146599999913,
          "velocity": 0.7874015748031497,
          "duration": 0.07692299999999364
        },
        {
          "name": "D#2",
          "midi": 39,
          "time": 72.57685049999913,
          "velocity": 0.7874015748031497,
          "duration": 0.07692299999999364
        },
        {
          "name": "D#2",
          "midi": 39,
          "time": 72.69223499999912,
          "velocity": 0.7874015748031497,
          "duration": 0.07692299999999364
        },
        {
          "name": "D#2",
          "midi": 39,
          "time": 72.8076194999991,
          "velocity": 0.7874015748031497,
          "duration": 0.07692299999999364
        },
        {
          "name": "D2",
          "midi": 38,
          "time": 72.9230039999991,
          "velocity": 0.7874015748031497,
          "duration": 0.07692299999999364
        },
        {
          "name": "D#2",
          "midi": 39,
          "time": 73.03838849999909,
          "velocity": 0.7874015748031497,
          "duration": 0.07692299999999364
        },
        {
          "name": "D#2",
          "midi": 39,
          "time": 73.15377299999908,
          "velocity": 0.7874015748031497,
          "duration": 0.07692299999999364
        },
        {
          "name": "D#2",
          "midi": 39,
          "time": 73.26915749999907,
          "velocity": 0.7874015748031497,
          "duration": 0.07692299999999364
        },
        {
          "name": "D2",
          "midi": 38,
          "time": 73.38454199999906,
          "velocity": 0.7874015748031497,
          "duration": 0.07692299999999364
        },
        {
          "name": "D#2",
          "midi": 39,
          "time": 73.49992649999905,
          "velocity": 0.7874015748031497,
          "duration": 0.07692299999999364
        },
        {
          "name": "D#2",
          "midi": 39,
          "time": 73.61531099999904,
          "velocity": 0.7874015748031497,
          "duration": 0.07692299999999364
        },
        {
          "name": "D#2",
          "midi": 39,
          "time": 73.73069549999903,
          "velocity": 0.7874015748031497,
          "duration": 0.07692299999999364
        },
        {
          "name": "A#1",
          "midi": 34,
          "time": 73.84607999999902,
          "velocity": 0.7874015748031497,
          "duration": 0.15384600000000148
        },
        {
          "name": "A#1",
          "midi": 34,
          "time": 74.07684899999902,
          "velocity": 0.7874015748031497,
          "duration": 0.15384600000000148
        },
        {
          "name": "A#1",
          "midi": 34,
          "time": 74.30761799999901,
          "velocity": 0.7874015748031497,
          "duration": 0.15384600000000148
        },
        {
          "name": "A#1",
          "midi": 34,
          "time": 74.538386999999,
          "velocity": 0.7874015748031497,
          "duration": 0.15384600000000148
        },
        {
          "name": "A#1",
          "midi": 34,
          "time": 74.769155999999,
          "velocity": 0.7874015748031497,
          "duration": 0.15384600000000148
        },
        {
          "name": "A#1",
          "midi": 34,
          "time": 74.999924999999,
          "velocity": 0.7874015748031497,
          "duration": 0.15384600000000148
        },
        {
          "name": "A#1",
          "midi": 34,
          "time": 75.23069399999899,
          "velocity": 0.7874015748031497,
          "duration": 0.15384600000000148
        },
        {
          "name": "A#1",
          "midi": 34,
          "time": 75.46146299999899,
          "velocity": 0.7874015748031497,
          "duration": 0.15384600000000148
        },
        {
          "name": "A1",
          "midi": 33,
          "time": 75.69223199999898,
          "velocity": 0.7874015748031497,
          "duration": 0.15384600000000148
        },
        {
          "name": "A1",
          "midi": 33,
          "time": 75.92300099999898,
          "velocity": 0.7874015748031497,
          "duration": 0.15384600000000148
        },
        {
          "name": "A1",
          "midi": 33,
          "time": 76.15376999999897,
          "velocity": 0.7874015748031497,
          "duration": 0.15384600000000148
        },
        {
          "name": "A1",
          "midi": 33,
          "time": 76.38453899999897,
          "velocity": 0.7874015748031497,
          "duration": 0.15384600000000148
        },
        {
          "name": "G#1",
          "midi": 32,
          "time": 76.61530799999896,
          "velocity": 0.7874015748031497,
          "duration": 0.15384600000000148
        },
        {
          "name": "G#1",
          "midi": 32,
          "time": 76.84607699999896,
          "velocity": 0.7874015748031497,
          "duration": 0.15384600000000148
        },
        {
          "name": "G#1",
          "midi": 32,
          "time": 77.07684599999895,
          "velocity": 0.7874015748031497,
          "duration": 0.15384600000000148
        },
        {
          "name": "G#1",
          "midi": 32,
          "time": 77.30761499999895,
          "velocity": 0.7874015748031497,
          "duration": 0.15384600000000148
        },
        {
          "name": "D2",
          "midi": 38,
          "time": 77.53838399999894,
          "velocity": 0.7874015748031497,
          "duration": 0.07692299999999364
        },
        {
          "name": "D#2",
          "midi": 39,
          "time": 77.65376849999893,
          "velocity": 0.7874015748031497,
          "duration": 0.07692299999999364
        },
        {
          "name": "D#2",
          "midi": 39,
          "time": 77.76915299999892,
          "velocity": 0.7874015748031497,
          "duration": 0.07692299999999364
        },
        {
          "name": "D#2",
          "midi": 39,
          "time": 77.88453749999891,
          "velocity": 0.7874015748031497,
          "duration": 0.07692299999999364
        },
        {
          "name": "D#2",
          "midi": 39,
          "time": 77.9999219999989,
          "velocity": 0.7874015748031497,
          "duration": 0.07692299999999364
        },
        {
          "name": "D#2",
          "midi": 39,
          "time": 78.1153064999989,
          "velocity": 0.7874015748031497,
          "duration": 0.07692299999999364
        },
        {
          "name": "D#2",
          "midi": 39,
          "time": 78.23069099999888,
          "velocity": 0.7874015748031497,
          "duration": 0.07692299999999364
        },
        {
          "name": "D#2",
          "midi": 39,
          "time": 78.34607549999888,
          "velocity": 0.7874015748031497,
          "duration": 0.07692299999999364
        },
        {
          "name": "D2",
          "midi": 38,
          "time": 78.46145999999887,
          "velocity": 0.7874015748031497,
          "duration": 0.07692299999999364
        },
        {
          "name": "D#2",
          "midi": 39,
          "time": 78.57684449999886,
          "velocity": 0.7874015748031497,
          "duration": 0.07692299999999364
        },
        {
          "name": "D#2",
          "midi": 39,
          "time": 78.69222899999885,
          "velocity": 0.7874015748031497,
          "duration": 0.07692299999999364
        },
        {
          "name": "D#2",
          "midi": 39,
          "time": 78.80761349999884,
          "velocity": 0.7874015748031497,
          "duration": 0.07692299999999364
        },
        {
          "name": "D#2",
          "midi": 39,
          "time": 78.92299799999883,
          "velocity": 0.7874015748031497,
          "duration": 0.07692299999999364
        },
        {
          "name": "D#2",
          "midi": 39,
          "time": 79.03838249999882,
          "velocity": 0.7874015748031497,
          "duration": 0.07692299999999364
        },
        {
          "name": "D#2",
          "midi": 39,
          "time": 79.15376699999881,
          "velocity": 0.7874015748031497,
          "duration": 0.07692299999999364
        },
        {
          "name": "D#2",
          "midi": 39,
          "time": 79.2691514999988,
          "velocity": 0.7874015748031497,
          "duration": 0.07692299999999364
        },
        {
          "name": "D2",
          "midi": 38,
          "time": 79.38453599999879,
          "velocity": 0.7874015748031497,
          "duration": 0.07692299999999364
        },
        {
          "name": "D#2",
          "midi": 39,
          "time": 79.49992049999878,
          "velocity": 0.7874015748031497,
          "duration": 0.07692299999999364
        },
        {
          "name": "D#2",
          "midi": 39,
          "time": 79.61530499999877,
          "velocity": 0.7874015748031497,
          "duration": 0.07692299999999364
        },
        {
          "name": "D#2",
          "midi": 39,
          "time": 79.73068949999876,
          "velocity": 0.7874015748031497,
          "duration": 0.07692299999999364
        },
        {
          "name": "D#2",
          "midi": 39,
          "time": 79.84607399999875,
          "velocity": 0.7874015748031497,
          "duration": 0.07692299999999364
        },
        {
          "name": "D#2",
          "midi": 39,
          "time": 79.96145849999874,
          "velocity": 0.7874015748031497,
          "duration": 0.07692299999999364
        },
        {
          "name": "D#2",
          "midi": 39,
          "time": 80.07684299999873,
          "velocity": 0.7874015748031497,
          "duration": 0.07692299999999364
        },
        {
          "name": "D#2",
          "midi": 39,
          "time": 80.19222749999872,
          "velocity": 0.7874015748031497,
          "duration": 0.07692299999999364
        },
        {
          "name": "D2",
          "midi": 38,
          "time": 80.30761199999871,
          "velocity": 0.7874015748031497,
          "duration": 0.07692299999999364
        },
        {
          "name": "D#2",
          "midi": 39,
          "time": 80.4229964999987,
          "velocity": 0.7874015748031497,
          "duration": 0.07692299999999364
        },
        {
          "name": "D#2",
          "midi": 39,
          "time": 80.5383809999987,
          "velocity": 0.7874015748031497,
          "duration": 0.07692299999999364
        },
        {
          "name": "D#2",
          "midi": 39,
          "time": 80.65376549999868,
          "velocity": 0.7874015748031497,
          "duration": 0.07692299999999364
        },
        {
          "name": "D2",
          "midi": 38,
          "time": 80.76914999999867,
          "velocity": 0.7874015748031497,
          "duration": 0.07692299999999364
        },
        {
          "name": "D#2",
          "midi": 39,
          "time": 80.88453449999867,
          "velocity": 0.7874015748031497,
          "duration": 0.07692299999999364
        },
        {
          "name": "D#2",
          "midi": 39,
          "time": 80.99991899999866,
          "velocity": 0.7874015748031497,
          "duration": 0.07692299999999364
        },
        {
          "name": "D#2",
          "midi": 39,
          "time": 81.11530349999865,
          "velocity": 0.7874015748031497,
          "duration": 0.07692299999999364
        },
        {
          "name": "A#1",
          "midi": 34,
          "time": 81.23068799999864,
          "velocity": 0.7874015748031497,
          "duration": 0.15384600000000148
        },
        {
          "name": "A#1",
          "midi": 34,
          "time": 81.46145699999863,
          "velocity": 0.7874015748031497,
          "duration": 0.15384600000000148
        },
        {
          "name": "A#1",
          "midi": 34,
          "time": 81.69222599999863,
          "velocity": 0.7874015748031497,
          "duration": 0.15384600000000148
        },
        {
          "name": "A#1",
          "midi": 34,
          "time": 81.92299499999862,
          "velocity": 0.7874015748031497,
          "duration": 0.15384600000000148
        },
        {
          "name": "A#1",
          "midi": 34,
          "time": 82.15376399999862,
          "velocity": 0.7874015748031497,
          "duration": 0.15384600000000148
        },
        {
          "name": "A#1",
          "midi": 34,
          "time": 82.38453299999861,
          "velocity": 0.7874015748031497,
          "duration": 0.15384600000000148
        },
        {
          "name": "A#1",
          "midi": 34,
          "time": 82.61530199999861,
          "velocity": 0.7874015748031497,
          "duration": 0.15384600000000148
        },
        {
          "name": "A#1",
          "midi": 34,
          "time": 82.8460709999986,
          "velocity": 0.7874015748031497,
          "duration": 0.15384600000000148
        },
        {
          "name": "A1",
          "midi": 33,
          "time": 83.0768399999986,
          "velocity": 0.7874015748031497,
          "duration": 0.15384600000000148
        },
        {
          "name": "A1",
          "midi": 33,
          "time": 83.30760899999859,
          "velocity": 0.7874015748031497,
          "duration": 0.15384600000000148
        },
        {
          "name": "A1",
          "midi": 33,
          "time": 83.53837799999859,
          "velocity": 0.7874015748031497,
          "duration": 0.15384600000000148
        },
        {
          "name": "A1",
          "midi": 33,
          "time": 83.76914699999858,
          "velocity": 0.7874015748031497,
          "duration": 0.15384600000000148
        },
        {
          "name": "G#1",
          "midi": 32,
          "time": 83.99991599999858,
          "velocity": 0.7874015748031497,
          "duration": 0.15384600000000148
        },
        {
          "name": "G#1",
          "midi": 32,
          "time": 84.23068499999857,
          "velocity": 0.7874015748031497,
          "duration": 0.15384600000000148
        },
        {
          "name": "G#1",
          "midi": 32,
          "time": 84.46145399999857,
          "velocity": 0.7874015748031497,
          "duration": 0.15384600000000148
        },
        {
          "name": "G#1",
          "midi": 32,
          "time": 84.69222299999856,
          "velocity": 0.7874015748031497,
          "duration": 0.15384600000000148
        },
        {
          "name": "D2",
          "midi": 38,
          "time": 84.92299199999856,
          "velocity": 0.7874015748031497,
          "duration": 0.07692299999999364
        },
        {
          "name": "D#2",
          "midi": 39,
          "time": 85.03837649999855,
          "velocity": 0.7874015748031497,
          "duration": 0.07692299999999364
        },
        {
          "name": "D#2",
          "midi": 39,
          "time": 85.15376099999854,
          "velocity": 0.7874015748031497,
          "duration": 0.07692299999999364
        },
        {
          "name": "D#2",
          "midi": 39,
          "time": 85.26914549999853,
          "velocity": 0.7874015748031497,
          "duration": 0.07692299999999364
        },
        {
          "name": "D#2",
          "midi": 39,
          "time": 85.38452999999852,
          "velocity": 0.7874015748031497,
          "duration": 0.07692299999999364
        },
        {
          "name": "D#2",
          "midi": 39,
          "time": 85.49991449999851,
          "velocity": 0.7874015748031497,
          "duration": 0.07692299999999364
        },
        {
          "name": "D#2",
          "midi": 39,
          "time": 85.6152989999985,
          "velocity": 0.7874015748031497,
          "duration": 0.07692299999999364
        },
        {
          "name": "D#2",
          "midi": 39,
          "time": 85.73068349999849,
          "velocity": 0.7874015748031497,
          "duration": 0.07692299999999364
        },
        {
          "name": "D2",
          "midi": 38,
          "time": 85.84606799999848,
          "velocity": 0.7874015748031497,
          "duration": 0.07692299999999364
        },
        {
          "name": "D#2",
          "midi": 39,
          "time": 85.96145249999847,
          "velocity": 0.7874015748031497,
          "duration": 0.07692299999999364
        },
        {
          "name": "D#2",
          "midi": 39,
          "time": 86.07683699999846,
          "velocity": 0.7874015748031497,
          "duration": 0.07692299999999364
        },
        {
          "name": "D#2",
          "midi": 39,
          "time": 86.19222149999845,
          "velocity": 0.7874015748031497,
          "duration": 0.07692299999999364
        },
        {
          "name": "D#2",
          "midi": 39,
          "time": 86.30760599999844,
          "velocity": 0.7874015748031497,
          "duration": 0.07692299999999364
        },
        {
          "name": "D#2",
          "midi": 39,
          "time": 86.42299049999843,
          "velocity": 0.7874015748031497,
          "duration": 0.07692299999999364
        },
        {
          "name": "D#2",
          "midi": 39,
          "time": 86.53837499999842,
          "velocity": 0.7874015748031497,
          "duration": 0.07692299999999364
        },
        {
          "name": "D#2",
          "midi": 39,
          "time": 86.65375949999842,
          "velocity": 0.7874015748031497,
          "duration": 0.07692299999999364
        },
        {
          "name": "D2",
          "midi": 38,
          "time": 86.7691439999984,
          "velocity": 0.7874015748031497,
          "duration": 0.07692299999999364
        },
        {
          "name": "D#2",
          "midi": 39,
          "time": 86.8845284999984,
          "velocity": 0.7874015748031497,
          "duration": 0.07692299999999364
        },
        {
          "name": "D#2",
          "midi": 39,
          "time": 86.99991299999839,
          "velocity": 0.7874015748031497,
          "duration": 0.07692299999999364
        },
        {
          "name": "D#2",
          "midi": 39,
          "time": 87.11529749999838,
          "velocity": 0.7874015748031497,
          "duration": 0.07692299999999364
        },
        {
          "name": "D#2",
          "midi": 39,
          "time": 87.23068199999837,
          "velocity": 0.7874015748031497,
          "duration": 0.07692299999999364
        },
        {
          "name": "D#2",
          "midi": 39,
          "time": 87.34606649999836,
          "velocity": 0.7874015748031497,
          "duration": 0.07692299999999364
        },
        {
          "name": "D#2",
          "midi": 39,
          "time": 87.46145099999835,
          "velocity": 0.7874015748031497,
          "duration": 0.07692299999999364
        },
        {
          "name": "D#2",
          "midi": 39,
          "time": 87.57683549999834,
          "velocity": 0.7874015748031497,
          "duration": 0.07692299999999364
        },
        {
          "name": "D2",
          "midi": 38,
          "time": 87.69221999999833,
          "velocity": 0.7874015748031497,
          "duration": 0.07692299999999364
        },
        {
          "name": "D#2",
          "midi": 39,
          "time": 87.80760449999832,
          "velocity": 0.7874015748031497,
          "duration": 0.07692299999999364
        },
        {
          "name": "D#2",
          "midi": 39,
          "time": 87.92298899999831,
          "velocity": 0.7874015748031497,
          "duration": 0.07692299999999364
        },
        {
          "name": "D#2",
          "midi": 39,
          "time": 88.0383734999983,
          "velocity": 0.7874015748031497,
          "duration": 0.07692299999999364
        },
        {
          "name": "D2",
          "midi": 38,
          "time": 88.15375799999829,
          "velocity": 0.7874015748031497,
          "duration": 0.07692299999999364
        },
        {
          "name": "D#2",
          "midi": 39,
          "time": 88.26914249999828,
          "velocity": 0.7874015748031497,
          "duration": 0.07692299999999364
        },
        {
          "name": "D#2",
          "midi": 39,
          "time": 88.38452699999827,
          "velocity": 0.7874015748031497,
          "duration": 0.07692299999999364
        },
        {
          "name": "D#2",
          "midi": 39,
          "time": 88.49991149999826,
          "velocity": 0.7874015748031497,
          "duration": 0.07692299999999364
        },
        {
          "name": "D2",
          "midi": 38,
          "time": 88.61529599999825,
          "velocity": 0.7874015748031497,
          "duration": 0.07692299999999364
        },
        {
          "name": "D#2",
          "midi": 39,
          "time": 88.73068049999824,
          "velocity": 0.7874015748031497,
          "duration": 0.07692299999999364
        },
        {
          "name": "D#2",
          "midi": 39,
          "time": 88.84606499999823,
          "velocity": 0.7874015748031497,
          "duration": 0.07692299999999364
        },
        {
          "name": "D#2",
          "midi": 39,
          "time": 88.96144949999822,
          "velocity": 0.7874015748031497,
          "duration": 0.07692299999999364
        },
        {
          "name": "D#2",
          "midi": 39,
          "time": 89.07683399999821,
          "velocity": 0.7874015748031497,
          "duration": 0.07692299999999364
        },
        {
          "name": "D#2",
          "midi": 39,
          "time": 89.1922184999982,
          "velocity": 0.7874015748031497,
          "duration": 0.07692299999999364
        },
        {
          "name": "D#2",
          "midi": 39,
          "time": 89.3076029999982,
          "velocity": 0.7874015748031497,
          "duration": 0.07692299999999364
        },
        {
          "name": "D#2",
          "midi": 39,
          "time": 89.42298749999819,
          "velocity": 0.7874015748031497,
          "duration": 0.07692299999999364
        },
        {
          "name": "D2",
          "midi": 38,
          "time": 89.53837199999818,
          "velocity": 0.7874015748031497,
          "duration": 0.07692299999999364
        },
        {
          "name": "D#2",
          "midi": 39,
          "time": 89.65375649999817,
          "velocity": 0.7874015748031497,
          "duration": 0.07692299999999364
        },
        {
          "name": "D#2",
          "midi": 39,
          "time": 89.76914099999816,
          "velocity": 0.7874015748031497,
          "duration": 0.07692299999999364
        },
        {
          "name": "D#2",
          "midi": 39,
          "time": 89.88452549999815,
          "velocity": 0.7874015748031497,
          "duration": 0.07692299999999364
        },
        {
          "name": "D#2",
          "midi": 39,
          "time": 89.99990999999814,
          "velocity": 0.7874015748031497,
          "duration": 0.07692299999999364
        },
        {
          "name": "D#2",
          "midi": 39,
          "time": 90.11529449999813,
          "velocity": 0.7874015748031497,
          "duration": 0.07692299999999364
        },
        {
          "name": "D#2",
          "midi": 39,
          "time": 90.23067899999812,
          "velocity": 0.7874015748031497,
          "duration": 0.07692299999999364
        },
        {
          "name": "D#2",
          "midi": 39,
          "time": 90.34606349999811,
          "velocity": 0.7874015748031497,
          "duration": 0.07692299999999364
        },
        {
          "name": "D2",
          "midi": 38,
          "time": 90.4614479999981,
          "velocity": 0.7874015748031497,
          "duration": 0.07692299999999364
        },
        {
          "name": "D#2",
          "midi": 39,
          "time": 90.57683249999809,
          "velocity": 0.7874015748031497,
          "duration": 0.07692299999999364
        },
        {
          "name": "D#2",
          "midi": 39,
          "time": 90.69221699999808,
          "velocity": 0.7874015748031497,
          "duration": 0.07692299999999364
        },
        {
          "name": "D#2",
          "midi": 39,
          "time": 90.80760149999807,
          "velocity": 0.7874015748031497,
          "duration": 0.07692299999999364
        },
        {
          "name": "D#2",
          "midi": 39,
          "time": 90.92298599999806,
          "velocity": 0.7874015748031497,
          "duration": 0.07692299999999364
        },
        {
          "name": "D#2",
          "midi": 39,
          "time": 91.03837049999805,
          "velocity": 0.7874015748031497,
          "duration": 0.07692299999999364
        },
        {
          "name": "D#2",
          "midi": 39,
          "time": 91.15375499999804,
          "velocity": 0.7874015748031497,
          "duration": 0.07692299999999364
        },
        {
          "name": "D#2",
          "midi": 39,
          "time": 91.26913949999803,
          "velocity": 0.7874015748031497,
          "duration": 0.07692299999999364
        },
        {
          "name": "D2",
          "midi": 38,
          "time": 91.38452399999802,
          "velocity": 0.7874015748031497,
          "duration": 0.07692299999999364
        },
        {
          "name": "D#2",
          "midi": 39,
          "time": 91.49990849999801,
          "velocity": 0.7874015748031497,
          "duration": 0.07692299999999364
        },
        {
          "name": "D#2",
          "midi": 39,
          "time": 91.615292999998,
          "velocity": 0.7874015748031497,
          "duration": 0.07692299999999364
        },
        {
          "name": "D#2",
          "midi": 39,
          "time": 91.730677499998,
          "velocity": 0.7874015748031497,
          "duration": 0.07692299999999364
        },
        {
          "name": "D2",
          "midi": 38,
          "time": 91.84606199999799,
          "velocity": 0.7874015748031497,
          "duration": 0.07692299999999364
        },
        {
          "name": "D#2",
          "midi": 39,
          "time": 91.96144649999798,
          "velocity": 0.7874015748031497,
          "duration": 0.07692299999999364
        },
        {
          "name": "D#2",
          "midi": 39,
          "time": 92.07683099999797,
          "velocity": 0.7874015748031497,
          "duration": 0.07692299999999364
        },
        {
          "name": "D#2",
          "midi": 39,
          "time": 92.19221549999796,
          "velocity": 0.7874015748031497,
          "duration": 0.07692299999999364
        },
        {
          "name": "D#2",
          "midi": 39,
          "time": 92.30759999999795,
          "velocity": 1,
          "duration": 14.769216
        },
        {
          "name": "D2",
          "midi": 38,
          "time": 107.07681599999795,
          "velocity": 0.7874015748031497,
          "duration": 0.07692299999999364
        },
        {
          "name": "D#2",
          "midi": 39,
          "time": 107.19220049999794,
          "velocity": 0.7874015748031497,
          "duration": 0.07692299999999364
        },
        {
          "name": "D#2",
          "midi": 39,
          "time": 107.30758499999793,
          "velocity": 0.7874015748031497,
          "duration": 0.07692299999999364
        },
        {
          "name": "D#2",
          "midi": 39,
          "time": 107.42296949999792,
          "velocity": 0.7874015748031497,
          "duration": 0.07692299999999364
        },
        {
          "name": "D#2",
          "midi": 39,
          "time": 107.53835399999791,
          "velocity": 0.7874015748031497,
          "duration": 0.07692299999999364
        },
        {
          "name": "D#2",
          "midi": 39,
          "time": 107.6537384999979,
          "velocity": 0.7874015748031497,
          "duration": 0.07692299999999364
        },
        {
          "name": "D#2",
          "midi": 39,
          "time": 107.76912299999789,
          "velocity": 0.7874015748031497,
          "duration": 0.07692299999999364
        },
        {
          "name": "D#2",
          "midi": 39,
          "time": 107.88450749999788,
          "velocity": 0.7874015748031497,
          "duration": 0.07692299999999364
        },
        {
          "name": "D2",
          "midi": 38,
          "time": 107.99989199999787,
          "velocity": 0.7874015748031497,
          "duration": 0.07692299999999364
        },
        {
          "name": "D#2",
          "midi": 39,
          "time": 108.11527649999786,
          "velocity": 0.7874015748031497,
          "duration": 0.07692299999999364
        },
        {
          "name": "D#2",
          "midi": 39,
          "time": 108.23066099999785,
          "velocity": 0.7874015748031497,
          "duration": 0.07692299999999364
        },
        {
          "name": "D#2",
          "midi": 39,
          "time": 108.34604549999784,
          "velocity": 0.7874015748031497,
          "duration": 0.07692299999999364
        },
        {
          "name": "D#2",
          "midi": 39,
          "time": 108.46142999999783,
          "velocity": 0.7874015748031497,
          "duration": 0.07692299999999364
        },
        {
          "name": "D#2",
          "midi": 39,
          "time": 108.57681449999782,
          "velocity": 0.7874015748031497,
          "duration": 0.07692299999999364
        },
        {
          "name": "D#2",
          "midi": 39,
          "time": 108.69219899999781,
          "velocity": 0.7874015748031497,
          "duration": 0.07692299999999364
        },
        {
          "name": "D#2",
          "midi": 39,
          "time": 108.8075834999978,
          "velocity": 0.7874015748031497,
          "duration": 0.07692299999999364
        },
        {
          "name": "D2",
          "midi": 38,
          "time": 108.9229679999978,
          "velocity": 0.7874015748031497,
          "duration": 0.07692299999999364
        },
        {
          "name": "D#2",
          "midi": 39,
          "time": 109.03835249999779,
          "velocity": 0.7874015748031497,
          "duration": 0.07692299999999364
        },
        {
          "name": "D#2",
          "midi": 39,
          "time": 109.15373699999778,
          "velocity": 0.7874015748031497,
          "duration": 0.07692299999999364
        },
        {
          "name": "D#2",
          "midi": 39,
          "time": 109.26912149999777,
          "velocity": 0.7874015748031497,
          "duration": 0.07692299999999364
        },
        {
          "name": "D#2",
          "midi": 39,
          "time": 109.38450599999776,
          "velocity": 0.7874015748031497,
          "duration": 0.07692299999999364
        },
        {
          "name": "D#2",
          "midi": 39,
          "time": 109.49989049999775,
          "velocity": 0.7874015748031497,
          "duration": 0.07692299999999364
        },
        {
          "name": "D#2",
          "midi": 39,
          "time": 109.61527499999774,
          "velocity": 0.7874015748031497,
          "duration": 0.07692299999999364
        },
        {
          "name": "D#2",
          "midi": 39,
          "time": 109.73065949999773,
          "velocity": 0.7874015748031497,
          "duration": 0.07692299999999364
        },
        {
          "name": "D2",
          "midi": 38,
          "time": 109.84604399999772,
          "velocity": 0.7874015748031497,
          "duration": 0.07692299999999364
        },
        {
          "name": "D#2",
          "midi": 39,
          "time": 109.96142849999771,
          "velocity": 0.7874015748031497,
          "duration": 0.07692299999999364
        },
        {
          "name": "D#2",
          "midi": 39,
          "time": 110.0768129999977,
          "velocity": 0.7874015748031497,
          "duration": 0.07692299999999364
        },
        {
          "name": "D#2",
          "midi": 39,
          "time": 110.19219749999769,
          "velocity": 0.7874015748031497,
          "duration": 0.07692299999999364
        },
        {
          "name": "D2",
          "midi": 38,
          "time": 110.30758199999768,
          "velocity": 0.7874015748031497,
          "duration": 0.07692299999999364
        },
        {
          "name": "D#2",
          "midi": 39,
          "time": 110.42296649999767,
          "velocity": 0.7874015748031497,
          "duration": 0.07692299999999364
        },
        {
          "name": "D#2",
          "midi": 39,
          "time": 110.53835099999766,
          "velocity": 0.7874015748031497,
          "duration": 0.07692299999999364
        },
        {
          "name": "D#2",
          "midi": 39,
          "time": 110.65373549999765,
          "velocity": 0.7874015748031497,
          "duration": 0.07692299999999364
        },
        {
          "name": "D2",
          "midi": 38,
          "time": 110.76911999999764,
          "velocity": 0.7874015748031497,
          "duration": 0.07692299999999364
        },
        {
          "name": "D#2",
          "midi": 39,
          "time": 110.88450449999763,
          "velocity": 0.7874015748031497,
          "duration": 0.07692299999999364
        },
        {
          "name": "D#2",
          "midi": 39,
          "time": 110.99988899999762,
          "velocity": 0.7874015748031497,
          "duration": 0.07692299999999364
        },
        {
          "name": "D#2",
          "midi": 39,
          "time": 111.11527349999761,
          "velocity": 0.7874015748031497,
          "duration": 0.07692299999999364
        },
        {
          "name": "D#2",
          "midi": 39,
          "time": 111.2306579999976,
          "velocity": 0.7874015748031497,
          "duration": 0.07692299999999364
        },
        {
          "name": "D#2",
          "midi": 39,
          "time": 111.3460424999976,
          "velocity": 0.7874015748031497,
          "duration": 0.07692299999999364
        },
        {
          "name": "D#2",
          "midi": 39,
          "time": 111.46142699999758,
          "velocity": 0.7874015748031497,
          "duration": 0.07692299999999364
        },
        {
          "name": "D#2",
          "midi": 39,
          "time": 111.57681149999758,
          "velocity": 0.7874015748031497,
          "duration": 0.07692299999999364
        },
        {
          "name": "D2",
          "midi": 38,
          "time": 111.69219599999757,
          "velocity": 0.7874015748031497,
          "duration": 0.07692299999999364
        },
        {
          "name": "D#2",
          "midi": 39,
          "time": 111.80758049999756,
          "velocity": 0.7874015748031497,
          "duration": 0.07692299999999364
        },
        {
          "name": "D#2",
          "midi": 39,
          "time": 111.92296499999755,
          "velocity": 0.7874015748031497,
          "duration": 0.07692299999999364
        },
        {
          "name": "D#2",
          "midi": 39,
          "time": 112.03834949999754,
          "velocity": 0.7874015748031497,
          "duration": 0.07692299999999364
        },
        {
          "name": "D#2",
          "midi": 39,
          "time": 112.15373399999753,
          "velocity": 0.7874015748031497,
          "duration": 0.07692299999999364
        },
        {
          "name": "D#2",
          "midi": 39,
          "time": 112.26911849999752,
          "velocity": 0.7874015748031497,
          "duration": 0.07692299999999364
        },
        {
          "name": "D#2",
          "midi": 39,
          "time": 112.38450299999751,
          "velocity": 0.7874015748031497,
          "duration": 0.07692299999999364
        },
        {
          "name": "D#2",
          "midi": 39,
          "time": 112.4998874999975,
          "velocity": 0.7874015748031497,
          "duration": 0.07692299999999364
        },
        {
          "name": "D2",
          "midi": 38,
          "time": 112.61527199999749,
          "velocity": 0.7874015748031497,
          "duration": 0.07692299999999364
        },
        {
          "name": "D#2",
          "midi": 39,
          "time": 112.73065649999748,
          "velocity": 0.7874015748031497,
          "duration": 0.07692299999999364
        },
        {
          "name": "D#2",
          "midi": 39,
          "time": 112.84604099999747,
          "velocity": 0.7874015748031497,
          "duration": 0.07692299999999364
        },
        {
          "name": "D#2",
          "midi": 39,
          "time": 112.96142549999746,
          "velocity": 0.7874015748031497,
          "duration": 0.07692299999999364
        },
        {
          "name": "D#2",
          "midi": 39,
          "time": 113.07680999999745,
          "velocity": 0.7874015748031497,
          "duration": 0.07692299999999364
        },
        {
          "name": "D#2",
          "midi": 39,
          "time": 113.19219449999744,
          "velocity": 0.7874015748031497,
          "duration": 0.07692299999999364
        },
        {
          "name": "D#2",
          "midi": 39,
          "time": 113.30757899999743,
          "velocity": 0.7874015748031497,
          "duration": 0.07692299999999364
        },
        {
          "name": "D#2",
          "midi": 39,
          "time": 113.42296349999742,
          "velocity": 0.7874015748031497,
          "duration": 0.07692299999999364
        },
        {
          "name": "D2",
          "midi": 38,
          "time": 113.53834799999741,
          "velocity": 0.7874015748031497,
          "duration": 0.07692299999999364
        },
        {
          "name": "D#2",
          "midi": 39,
          "time": 113.6537324999974,
          "velocity": 0.7874015748031497,
          "duration": 0.07692299999999364
        },
        {
          "name": "D#2",
          "midi": 39,
          "time": 113.7691169999974,
          "velocity": 0.7874015748031497,
          "duration": 0.07692299999999364
        },
        {
          "name": "D#2",
          "midi": 39,
          "time": 113.88450149999738,
          "velocity": 0.7874015748031497,
          "duration": 0.07692299999999364
        },
        {
          "name": "D2",
          "midi": 38,
          "time": 113.99988599999737,
          "velocity": 0.7874015748031497,
          "duration": 0.07692299999999364
        },
        {
          "name": "D#2",
          "midi": 39,
          "time": 114.11527049999737,
          "velocity": 0.7874015748031497,
          "duration": 0.07692299999999364
        },
        {
          "name": "D#2",
          "midi": 39,
          "time": 114.23065499999736,
          "velocity": 0.7874015748031497,
          "duration": 0.07692299999999364
        },
        {
          "name": "D#2",
          "midi": 39,
          "time": 114.34603949999735,
          "velocity": 0.7874015748031497,
          "duration": 0.07692299999999364
        },
        {
          "name": "D2",
          "midi": 38,
          "time": 114.46142399999734,
          "velocity": 0.7874015748031497,
          "duration": 0.07692299999999364
        },
        {
          "name": "D#2",
          "midi": 39,
          "time": 114.57680849999733,
          "velocity": 0.7874015748031497,
          "duration": 0.07692299999999364
        },
        {
          "name": "D#2",
          "midi": 39,
          "time": 114.69219299999732,
          "velocity": 0.7874015748031497,
          "duration": 0.07692299999999364
        },
        {
          "name": "D#2",
          "midi": 39,
          "time": 114.80757749999731,
          "velocity": 0.7874015748031497,
          "duration": 0.07692299999999364
        },
        {
          "name": "D#2",
          "midi": 39,
          "time": 114.9229619999973,
          "velocity": 0.7874015748031497,
          "duration": 0.07692299999999364
        },
        {
          "name": "D#2",
          "midi": 39,
          "time": 115.03834649999729,
          "velocity": 0.7874015748031497,
          "duration": 0.07692299999999364
        },
        {
          "name": "D#2",
          "midi": 39,
          "time": 115.15373099999728,
          "velocity": 0.7874015748031497,
          "duration": 0.07692299999999364
        },
        {
          "name": "D#2",
          "midi": 39,
          "time": 115.26911549999727,
          "velocity": 0.7874015748031497,
          "duration": 0.07692299999999364
        },
        {
          "name": "D2",
          "midi": 38,
          "time": 115.38449999999726,
          "velocity": 0.7874015748031497,
          "duration": 0.07692299999999364
        },
        {
          "name": "D#2",
          "midi": 39,
          "time": 115.49988449999725,
          "velocity": 0.7874015748031497,
          "duration": 0.07692299999999364
        },
        {
          "name": "D#2",
          "midi": 39,
          "time": 115.61526899999724,
          "velocity": 0.7874015748031497,
          "duration": 0.07692299999999364
        },
        {
          "name": "D#2",
          "midi": 39,
          "time": 115.73065349999723,
          "velocity": 0.7874015748031497,
          "duration": 0.07692299999999364
        },
        {
          "name": "D#2",
          "midi": 39,
          "time": 115.84603799999722,
          "velocity": 0.7874015748031497,
          "duration": 0.07692299999999364
        },
        {
          "name": "D#2",
          "midi": 39,
          "time": 115.96142249999721,
          "velocity": 0.7874015748031497,
          "duration": 0.07692299999999364
        },
        {
          "name": "D#2",
          "midi": 39,
          "time": 116.0768069999972,
          "velocity": 0.7874015748031497,
          "duration": 0.07692299999999364
        },
        {
          "name": "D#2",
          "midi": 39,
          "time": 116.1921914999972,
          "velocity": 0.7874015748031497,
          "duration": 0.07692299999999364
        },
        {
          "name": "D2",
          "midi": 38,
          "time": 116.30757599999718,
          "velocity": 0.7874015748031497,
          "duration": 0.07692299999999364
        },
        {
          "name": "D#2",
          "midi": 39,
          "time": 116.42296049999717,
          "velocity": 0.7874015748031497,
          "duration": 0.07692299999999364
        },
        {
          "name": "D#2",
          "midi": 39,
          "time": 116.53834499999716,
          "velocity": 0.7874015748031497,
          "duration": 0.07692299999999364
        },
        {
          "name": "D#2",
          "midi": 39,
          "time": 116.65372949999716,
          "velocity": 0.7874015748031497,
          "duration": 0.07692299999999364
        },
        {
          "name": "D#2",
          "midi": 39,
          "time": 116.76911399999715,
          "velocity": 0.7874015748031497,
          "duration": 0.07692299999999364
        },
        {
          "name": "D#2",
          "midi": 39,
          "time": 116.88449849999714,
          "velocity": 0.7874015748031497,
          "duration": 0.07692299999999364
        },
        {
          "name": "D#2",
          "midi": 39,
          "time": 116.99988299999713,
          "velocity": 0.7874015748031497,
          "duration": 0.07692299999999364
        },
        {
          "name": "D#2",
          "midi": 39,
          "time": 117.11526749999712,
          "velocity": 0.7874015748031497,
          "duration": 0.07692299999999364
        },
        {
          "name": "D2",
          "midi": 38,
          "time": 117.23065199999711,
          "velocity": 0.7874015748031497,
          "duration": 0.07692299999999364
        },
        {
          "name": "D#2",
          "midi": 39,
          "time": 117.3460364999971,
          "velocity": 0.7874015748031497,
          "duration": 0.07692299999999364
        },
        {
          "name": "D#2",
          "midi": 39,
          "time": 117.46142099999709,
          "velocity": 0.7874015748031497,
          "duration": 0.07692299999999364
        },
        {
          "name": "D#2",
          "midi": 39,
          "time": 117.57680549999708,
          "velocity": 0.7874015748031497,
          "duration": 0.07692299999999364
        },
        {
          "name": "D2",
          "midi": 38,
          "time": 117.69218999999707,
          "velocity": 0.7874015748031497,
          "duration": 0.07692299999999364
        },
        {
          "name": "D#2",
          "midi": 39,
          "time": 117.80757449999706,
          "velocity": 0.7874015748031497,
          "duration": 0.07692299999999364
        },
        {
          "name": "D#2",
          "midi": 39,
          "time": 117.92295899999705,
          "velocity": 0.7874015748031497,
          "duration": 0.07692299999999364
        },
        {
          "name": "D#2",
          "midi": 39,
          "time": 118.03834349999704,
          "velocity": 0.7874015748031497,
          "duration": 0.07692299999999364
        },
        {
          "name": "D2",
          "midi": 38,
          "time": 118.15372799999703,
          "velocity": 0.7874015748031497,
          "duration": 0.07692299999999364
        },
        {
          "name": "D#2",
          "midi": 39,
          "time": 118.26911249999702,
          "velocity": 0.7874015748031497,
          "duration": 0.07692299999999364
        },
        {
          "name": "D#2",
          "midi": 39,
          "time": 118.38449699999701,
          "velocity": 0.7874015748031497,
          "duration": 0.07692299999999364
        },
        {
          "name": "D#2",
          "midi": 39,
          "time": 118.499881499997,
          "velocity": 0.7874015748031497,
          "duration": 0.07692299999999364
        },
        {
          "name": "D#2",
          "midi": 39,
          "time": 118.61526599999699,
          "velocity": 0.7874015748031497,
          "duration": 0.07692299999999364
        },
        {
          "name": "D#2",
          "midi": 39,
          "time": 118.73065049999698,
          "velocity": 0.7874015748031497,
          "duration": 0.07692299999999364
        },
        {
          "name": "D#2",
          "midi": 39,
          "time": 118.84603499999697,
          "velocity": 0.7874015748031497,
          "duration": 0.07692299999999364
        },
        {
          "name": "D#2",
          "midi": 39,
          "time": 118.96141949999696,
          "velocity": 0.7874015748031497,
          "duration": 0.07692299999999364
        },
        {
          "name": "D2",
          "midi": 38,
          "time": 119.07680399999695,
          "velocity": 0.7874015748031497,
          "duration": 0.07692299999999364
        },
        {
          "name": "D#2",
          "midi": 39,
          "time": 119.19218849999694,
          "velocity": 0.7874015748031497,
          "duration": 0.07692299999999364
        },
        {
          "name": "D#2",
          "midi": 39,
          "time": 119.30757299999694,
          "velocity": 0.7874015748031497,
          "duration": 0.07692299999999364
        },
        {
          "name": "D#2",
          "midi": 39,
          "time": 119.42295749999693,
          "velocity": 0.7874015748031497,
          "duration": 0.07692299999999364
        },
        {
          "name": "D#2",
          "midi": 39,
          "time": 119.53834199999692,
          "velocity": 0.7874015748031497,
          "duration": 0.07692299999999364
        },
        {
          "name": "D#2",
          "midi": 39,
          "time": 119.6537264999969,
          "velocity": 0.7874015748031497,
          "duration": 0.07692299999999364
        },
        {
          "name": "D#2",
          "midi": 39,
          "time": 119.7691109999969,
          "velocity": 0.7874015748031497,
          "duration": 0.07692299999999364
        },
        {
          "name": "D#2",
          "midi": 39,
          "time": 119.88449549999689,
          "velocity": 0.7874015748031497,
          "duration": 0.07692299999999364
        },
        {
          "name": "D2",
          "midi": 38,
          "time": 119.99987999999688,
          "velocity": 0.7874015748031497,
          "duration": 0.07692299999999364
        },
        {
          "name": "D#2",
          "midi": 39,
          "time": 120.11526449999687,
          "velocity": 0.7874015748031497,
          "duration": 0.07692299999999364
        },
        {
          "name": "D#2",
          "midi": 39,
          "time": 120.23064899999686,
          "velocity": 0.7874015748031497,
          "duration": 0.07692299999999364
        },
        {
          "name": "D#2",
          "midi": 39,
          "time": 120.34603349999685,
          "velocity": 0.7874015748031497,
          "duration": 0.07692299999999364
        },
        {
          "name": "D#2",
          "midi": 39,
          "time": 120.46141799999684,
          "velocity": 0.7874015748031497,
          "duration": 0.07692299999999364
        },
        {
          "name": "D#2",
          "midi": 39,
          "time": 120.57680249999683,
          "velocity": 0.7874015748031497,
          "duration": 0.07692299999999364
        },
        {
          "name": "D#2",
          "midi": 39,
          "time": 120.69218699999682,
          "velocity": 0.7874015748031497,
          "duration": 0.07692299999999364
        },
        {
          "name": "D#2",
          "midi": 39,
          "time": 120.80757149999681,
          "velocity": 0.7874015748031497,
          "duration": 0.07692299999999364
        },
        {
          "name": "D2",
          "midi": 38,
          "time": 120.9229559999968,
          "velocity": 0.7874015748031497,
          "duration": 0.07692299999999364
        },
        {
          "name": "D#2",
          "midi": 39,
          "time": 121.03834049999679,
          "velocity": 0.7874015748031497,
          "duration": 0.07692299999999364
        },
        {
          "name": "D#2",
          "midi": 39,
          "time": 121.15372499999678,
          "velocity": 0.7874015748031497,
          "duration": 0.07692299999999364
        },
        {
          "name": "D#2",
          "midi": 39,
          "time": 121.26910949999677,
          "velocity": 0.7874015748031497,
          "duration": 0.07692299999999364
        },
        {
          "name": "D2",
          "midi": 38,
          "time": 121.38449399999676,
          "velocity": 0.7874015748031497,
          "duration": 0.07692299999999364
        },
        {
          "name": "D#2",
          "midi": 39,
          "time": 121.49987849999675,
          "velocity": 0.7874015748031497,
          "duration": 0.07692299999999364
        },
        {
          "name": "D#2",
          "midi": 39,
          "time": 121.61526299999674,
          "velocity": 0.7874015748031497,
          "duration": 0.07692299999999364
        },
        {
          "name": "D#2",
          "midi": 39,
          "time": 121.73064749999673,
          "velocity": 0.7874015748031497,
          "duration": 0.07692299999999364
        },
        {
          "name": "A#1",
          "midi": 34,
          "time": 121.84603199999673,
          "velocity": 0.7874015748031497,
          "duration": 0.15384600000000148
        },
        {
          "name": "A#1",
          "midi": 34,
          "time": 122.07680099999672,
          "velocity": 0.7874015748031497,
          "duration": 0.15384600000000148
        },
        {
          "name": "A#1",
          "midi": 34,
          "time": 122.30756999999672,
          "velocity": 0.7874015748031497,
          "duration": 0.15384600000000148
        },
        {
          "name": "A#1",
          "midi": 34,
          "time": 122.53833899999671,
          "velocity": 0.7874015748031497,
          "duration": 0.15384600000000148
        },
        {
          "name": "A#1",
          "midi": 34,
          "time": 122.7691079999967,
          "velocity": 0.7874015748031497,
          "duration": 0.15384600000000148
        },
        {
          "name": "A#1",
          "midi": 34,
          "time": 122.9998769999967,
          "velocity": 0.7874015748031497,
          "duration": 0.15384600000000148
        },
        {
          "name": "A#1",
          "midi": 34,
          "time": 123.2306459999967,
          "velocity": 0.7874015748031497,
          "duration": 0.15384600000000148
        },
        {
          "name": "A#1",
          "midi": 34,
          "time": 123.46141499999669,
          "velocity": 0.7874015748031497,
          "duration": 0.15384600000000148
        },
        {
          "name": "A1",
          "midi": 33,
          "time": 123.69218399999669,
          "velocity": 0.7874015748031497,
          "duration": 0.15384600000000148
        },
        {
          "name": "A1",
          "midi": 33,
          "time": 123.92295299999668,
          "velocity": 0.7874015748031497,
          "duration": 0.15384600000000148
        },
        {
          "name": "A1",
          "midi": 33,
          "time": 124.15372199999668,
          "velocity": 0.7874015748031497,
          "duration": 0.15384600000000148
        },
        {
          "name": "A1",
          "midi": 33,
          "time": 124.38449099999667,
          "velocity": 0.7874015748031497,
          "duration": 0.15384600000000148
        },
        {
          "name": "G#1",
          "midi": 32,
          "time": 124.61525999999667,
          "velocity": 0.7874015748031497,
          "duration": 0.15384600000000148
        },
        {
          "name": "G#1",
          "midi": 32,
          "time": 124.84602899999666,
          "velocity": 0.7874015748031497,
          "duration": 0.15384600000000148
        },
        {
          "name": "G#1",
          "midi": 32,
          "time": 125.07679799999666,
          "velocity": 0.7874015748031497,
          "duration": 0.15384600000000148
        },
        {
          "name": "G#1",
          "midi": 32,
          "time": 125.30756699999665,
          "velocity": 0.7874015748031497,
          "duration": 0.15384600000000148
        },
        {
          "name": "D2",
          "midi": 38,
          "time": 125.53833599999665,
          "velocity": 0.7874015748031497,
          "duration": 0.07692299999999364
        },
        {
          "name": "D#2",
          "midi": 39,
          "time": 125.65372049999664,
          "velocity": 0.7874015748031497,
          "duration": 0.07692299999999364
        },
        {
          "name": "D#2",
          "midi": 39,
          "time": 125.76910499999663,
          "velocity": 0.7874015748031497,
          "duration": 0.07692299999999364
        },
        {
          "name": "D#2",
          "midi": 39,
          "time": 125.88448949999662,
          "velocity": 0.7874015748031497,
          "duration": 0.07692299999999364
        },
        {
          "name": "D#2",
          "midi": 39,
          "time": 125.99987399999661,
          "velocity": 0.7874015748031497,
          "duration": 0.07692299999999364
        },
        {
          "name": "D#2",
          "midi": 39,
          "time": 126.1152584999966,
          "velocity": 0.7874015748031497,
          "duration": 0.07692299999999364
        },
        {
          "name": "D#2",
          "midi": 39,
          "time": 126.23064299999659,
          "velocity": 0.7874015748031497,
          "duration": 0.07692299999999364
        },
        {
          "name": "D#2",
          "midi": 39,
          "time": 126.34602749999658,
          "velocity": 0.7874015748031497,
          "duration": 0.07692299999999364
        },
        {
          "name": "D2",
          "midi": 38,
          "time": 126.46141199999657,
          "velocity": 0.7874015748031497,
          "duration": 0.07692299999999364
        },
        {
          "name": "D#2",
          "midi": 39,
          "time": 126.57679649999656,
          "velocity": 0.7874015748031497,
          "duration": 0.07692299999999364
        },
        {
          "name": "D#2",
          "midi": 39,
          "time": 126.69218099999655,
          "velocity": 0.7874015748031497,
          "duration": 0.07692299999999364
        },
        {
          "name": "D#2",
          "midi": 39,
          "time": 126.80756549999654,
          "velocity": 0.7874015748031497,
          "duration": 0.07692299999999364
        },
        {
          "name": "D#2",
          "midi": 39,
          "time": 126.92294999999653,
          "velocity": 0.7874015748031497,
          "duration": 0.07692299999999364
        },
        {
          "name": "D#2",
          "midi": 39,
          "time": 127.03833449999652,
          "velocity": 0.7874015748031497,
          "duration": 0.07692299999999364
        },
        {
          "name": "D#2",
          "midi": 39,
          "time": 127.15371899999651,
          "velocity": 0.7874015748031497,
          "duration": 0.07692299999999364
        },
        {
          "name": "D#2",
          "midi": 39,
          "time": 127.2691034999965,
          "velocity": 0.7874015748031497,
          "duration": 0.07692299999999364
        },
        {
          "name": "D2",
          "midi": 38,
          "time": 127.3844879999965,
          "velocity": 0.7874015748031497,
          "duration": 0.07692299999999364
        },
        {
          "name": "D#2",
          "midi": 39,
          "time": 127.49987249999648,
          "velocity": 0.7874015748031497,
          "duration": 0.07692299999999364
        },
        {
          "name": "D#2",
          "midi": 39,
          "time": 127.61525699999648,
          "velocity": 0.7874015748031497,
          "duration": 0.07692299999999364
        },
        {
          "name": "D#2",
          "midi": 39,
          "time": 127.73064149999647,
          "velocity": 0.7874015748031497,
          "duration": 0.07692299999999364
        },
        {
          "name": "D#2",
          "midi": 39,
          "time": 127.84602599999646,
          "velocity": 0.7874015748031497,
          "duration": 0.07692299999999364
        },
        {
          "name": "D#2",
          "midi": 39,
          "time": 127.96141049999645,
          "velocity": 0.7874015748031497,
          "duration": 0.07692299999999364
        },
        {
          "name": "D#2",
          "midi": 39,
          "time": 128.07679499999645,
          "velocity": 0.7874015748031497,
          "duration": 0.07692299999999364
        },
        {
          "name": "D#2",
          "midi": 39,
          "time": 128.19217949999646,
          "velocity": 0.7874015748031497,
          "duration": 0.07692299999999364
        },
        {
          "name": "D2",
          "midi": 38,
          "time": 128.30756399999646,
          "velocity": 0.7874015748031497,
          "duration": 0.07692299999999364
        },
        {
          "name": "D#2",
          "midi": 39,
          "time": 128.42294849999647,
          "velocity": 0.7874015748031497,
          "duration": 0.07692299999999364
        },
        {
          "name": "D#2",
          "midi": 39,
          "time": 128.53833299999647,
          "velocity": 0.7874015748031497,
          "duration": 0.07692299999999364
        },
        {
          "name": "D#2",
          "midi": 39,
          "time": 128.65371749999647,
          "velocity": 0.7874015748031497,
          "duration": 0.07692299999999364
        },
        {
          "name": "D2",
          "midi": 38,
          "time": 128.76910199999648,
          "velocity": 0.7874015748031497,
          "duration": 0.07692299999999364
        },
        {
          "name": "D#2",
          "midi": 39,
          "time": 128.88448649999648,
          "velocity": 0.7874015748031497,
          "duration": 0.07692299999999364
        },
        {
          "name": "D#2",
          "midi": 39,
          "time": 128.9998709999965,
          "velocity": 0.7874015748031497,
          "duration": 0.07692299999999364
        },
        {
          "name": "D#2",
          "midi": 39,
          "time": 129.1152554999965,
          "velocity": 0.7874015748031497,
          "duration": 0.07692299999999364
        },
        {
          "name": "A#1",
          "midi": 34,
          "time": 129.2306399999965,
          "velocity": 0.7874015748031497,
          "duration": 0.15384599999998727
        },
        {
          "name": "A#1",
          "midi": 34,
          "time": 129.46140899999648,
          "velocity": 0.7874015748031497,
          "duration": 0.15384599999998727
        },
        {
          "name": "A#1",
          "midi": 34,
          "time": 129.69217799999646,
          "velocity": 0.7874015748031497,
          "duration": 0.15384599999998727
        },
        {
          "name": "A#1",
          "midi": 34,
          "time": 129.92294699999644,
          "velocity": 0.7874015748031497,
          "duration": 0.15384599999998727
        },
        {
          "name": "A#1",
          "midi": 34,
          "time": 130.15371599999642,
          "velocity": 0.7874015748031497,
          "duration": 0.15384599999998727
        },
        {
          "name": "A#1",
          "midi": 34,
          "time": 130.3844849999964,
          "velocity": 0.7874015748031497,
          "duration": 0.15384599999998727
        },
        {
          "name": "A#1",
          "midi": 34,
          "time": 130.61525399999638,
          "velocity": 0.7874015748031497,
          "duration": 0.15384599999998727
        },
        {
          "name": "A#1",
          "midi": 34,
          "time": 130.84602299999636,
          "velocity": 0.7874015748031497,
          "duration": 0.15384599999998727
        },
        {
          "name": "A1",
          "midi": 33,
          "time": 131.07679199999635,
          "velocity": 0.7874015748031497,
          "duration": 0.15384599999998727
        },
        {
          "name": "A1",
          "midi": 33,
          "time": 131.30756099999633,
          "velocity": 0.7874015748031497,
          "duration": 0.15384599999998727
        },
        {
          "name": "A1",
          "midi": 33,
          "time": 131.5383299999963,
          "velocity": 0.7874015748031497,
          "duration": 0.15384599999998727
        },
        {
          "name": "A1",
          "midi": 33,
          "time": 131.7690989999963,
          "velocity": 0.7874015748031497,
          "duration": 0.15384599999998727
        },
        {
          "name": "G#1",
          "midi": 32,
          "time": 131.99986799999627,
          "velocity": 0.7874015748031497,
          "duration": 0.15384599999998727
        },
        {
          "name": "G#1",
          "midi": 32,
          "time": 132.23063699999625,
          "velocity": 0.7874015748031497,
          "duration": 0.15384599999998727
        },
        {
          "name": "G#1",
          "midi": 32,
          "time": 132.46140599999623,
          "velocity": 0.7874015748031497,
          "duration": 0.15384599999998727
        },
        {
          "name": "G#1",
          "midi": 32,
          "time": 132.6921749999962,
          "velocity": 0.7874015748031497,
          "duration": 0.15384599999998727
        },
        {
          "name": "D2",
          "midi": 38,
          "time": 132.9229439999962,
          "velocity": 0.7874015748031497,
          "duration": 0.07692299999999364
        },
        {
          "name": "D#2",
          "midi": 39,
          "time": 133.0383284999962,
          "velocity": 0.7874015748031497,
          "duration": 0.07692299999999364
        },
        {
          "name": "D#2",
          "midi": 39,
          "time": 133.1537129999962,
          "velocity": 0.7874015748031497,
          "duration": 0.07692299999999364
        },
        {
          "name": "D#2",
          "midi": 39,
          "time": 133.2690974999962,
          "velocity": 0.7874015748031497,
          "duration": 0.07692299999999364
        },
        {
          "name": "D#2",
          "midi": 39,
          "time": 133.3844819999962,
          "velocity": 0.7874015748031497,
          "duration": 0.07692299999999364
        },
        {
          "name": "D#2",
          "midi": 39,
          "time": 133.49986649999622,
          "velocity": 0.7874015748031497,
          "duration": 0.07692299999999364
        },
        {
          "name": "D#2",
          "midi": 39,
          "time": 133.61525099999622,
          "velocity": 0.7874015748031497,
          "duration": 0.07692299999999364
        },
        {
          "name": "D#2",
          "midi": 39,
          "time": 133.73063549999623,
          "velocity": 0.7874015748031497,
          "duration": 0.07692299999999364
        },
        {
          "name": "D2",
          "midi": 38,
          "time": 133.84601999999623,
          "velocity": 0.7874015748031497,
          "duration": 0.07692299999999364
        },
        {
          "name": "D#2",
          "midi": 39,
          "time": 133.96140449999623,
          "velocity": 0.7874015748031497,
          "duration": 0.07692299999999364
        },
        {
          "name": "D#2",
          "midi": 39,
          "time": 134.07678899999624,
          "velocity": 0.7874015748031497,
          "duration": 0.07692299999999364
        },
        {
          "name": "D#2",
          "midi": 39,
          "time": 134.19217349999624,
          "velocity": 0.7874015748031497,
          "duration": 0.07692299999999364
        },
        {
          "name": "D#2",
          "midi": 39,
          "time": 134.30755799999625,
          "velocity": 0.7874015748031497,
          "duration": 0.07692299999999364
        },
        {
          "name": "D#2",
          "midi": 39,
          "time": 134.42294249999625,
          "velocity": 0.7874015748031497,
          "duration": 0.07692299999999364
        },
        {
          "name": "D#2",
          "midi": 39,
          "time": 134.53832699999626,
          "velocity": 0.7874015748031497,
          "duration": 0.07692299999999364
        },
        {
          "name": "D#2",
          "midi": 39,
          "time": 134.65371149999626,
          "velocity": 0.7874015748031497,
          "duration": 0.07692299999999364
        },
        {
          "name": "D2",
          "midi": 38,
          "time": 134.76909599999627,
          "velocity": 0.7874015748031497,
          "duration": 0.07692299999999364
        },
        {
          "name": "D#2",
          "midi": 39,
          "time": 134.88448049999627,
          "velocity": 0.7874015748031497,
          "duration": 0.07692299999999364
        },
        {
          "name": "D#2",
          "midi": 39,
          "time": 134.99986499999628,
          "velocity": 0.7874015748031497,
          "duration": 0.07692299999999364
        },
        {
          "name": "D#2",
          "midi": 39,
          "time": 135.11524949999628,
          "velocity": 0.7874015748031497,
          "duration": 0.07692299999999364
        },
        {
          "name": "D#2",
          "midi": 39,
          "time": 135.2306339999963,
          "velocity": 0.7874015748031497,
          "duration": 0.07692299999999364
        },
        {
          "name": "D#2",
          "midi": 39,
          "time": 135.3460184999963,
          "velocity": 0.7874015748031497,
          "duration": 0.07692299999999364
        },
        {
          "name": "D#2",
          "midi": 39,
          "time": 135.4614029999963,
          "velocity": 0.7874015748031497,
          "duration": 0.07692299999999364
        },
        {
          "name": "D#2",
          "midi": 39,
          "time": 135.5767874999963,
          "velocity": 0.7874015748031497,
          "duration": 0.07692299999999364
        },
        {
          "name": "D2",
          "midi": 38,
          "time": 135.6921719999963,
          "velocity": 0.7874015748031497,
          "duration": 0.07692299999999364
        },
        {
          "name": "D#2",
          "midi": 39,
          "time": 135.8075564999963,
          "velocity": 0.7874015748031497,
          "duration": 0.07692299999999364
        },
        {
          "name": "D#2",
          "midi": 39,
          "time": 135.9229409999963,
          "velocity": 0.7874015748031497,
          "duration": 0.07692299999999364
        },
        {
          "name": "D#2",
          "midi": 39,
          "time": 136.03832549999632,
          "velocity": 0.7874015748031497,
          "duration": 0.07692299999999364
        },
        {
          "name": "D2",
          "midi": 38,
          "time": 136.15370999999632,
          "velocity": 0.7874015748031497,
          "duration": 0.07692299999999364
        },
        {
          "name": "D#2",
          "midi": 39,
          "time": 136.26909449999633,
          "velocity": 0.7874015748031497,
          "duration": 0.07692299999999364
        },
        {
          "name": "D#2",
          "midi": 39,
          "time": 136.38447899999633,
          "velocity": 0.7874015748031497,
          "duration": 0.07692299999999364
        },
        {
          "name": "D#2",
          "midi": 39,
          "time": 136.49986349999634,
          "velocity": 0.7874015748031497,
          "duration": 0.07692299999999364
        },
        {
          "name": "A#1",
          "midi": 34,
          "time": 136.61524799999634,
          "velocity": 0.7874015748031497,
          "duration": 0.15384599999998727
        },
        {
          "name": "A#1",
          "midi": 34,
          "time": 136.84601699999632,
          "velocity": 0.7874015748031497,
          "duration": 0.15384599999998727
        },
        {
          "name": "A#1",
          "midi": 34,
          "time": 137.0767859999963,
          "velocity": 0.7874015748031497,
          "duration": 0.15384599999998727
        },
        {
          "name": "A#1",
          "midi": 34,
          "time": 137.30755499999628,
          "velocity": 0.7874015748031497,
          "duration": 0.15384599999998727
        },
        {
          "name": "A#1",
          "midi": 34,
          "time": 137.53832399999627,
          "velocity": 0.7874015748031497,
          "duration": 0.15384599999998727
        },
        {
          "name": "A#1",
          "midi": 34,
          "time": 137.76909299999625,
          "velocity": 0.7874015748031497,
          "duration": 0.15384599999998727
        },
        {
          "name": "A#1",
          "midi": 34,
          "time": 137.99986199999623,
          "velocity": 0.7874015748031497,
          "duration": 0.15384599999998727
        },
        {
          "name": "A#1",
          "midi": 34,
          "time": 138.2306309999962,
          "velocity": 0.7874015748031497,
          "duration": 0.15384599999998727
        },
        {
          "name": "A1",
          "midi": 33,
          "time": 138.4613999999962,
          "velocity": 0.7874015748031497,
          "duration": 0.15384599999998727
        },
        {
          "name": "A1",
          "midi": 33,
          "time": 138.69216899999617,
          "velocity": 0.7874015748031497,
          "duration": 0.15384599999998727
        },
        {
          "name": "A1",
          "midi": 33,
          "time": 138.92293799999615,
          "velocity": 0.7874015748031497,
          "duration": 0.15384599999998727
        },
        {
          "name": "A1",
          "midi": 33,
          "time": 139.15370699999613,
          "velocity": 0.7874015748031497,
          "duration": 0.15384599999998727
        },
        {
          "name": "G#1",
          "midi": 32,
          "time": 139.3844759999961,
          "velocity": 0.7874015748031497,
          "duration": 0.15384599999998727
        },
        {
          "name": "G#1",
          "midi": 32,
          "time": 139.6152449999961,
          "velocity": 0.7874015748031497,
          "duration": 0.15384599999998727
        },
        {
          "name": "G#1",
          "midi": 32,
          "time": 139.84601399999607,
          "velocity": 0.7874015748031497,
          "duration": 0.15384599999998727
        },
        {
          "name": "G#1",
          "midi": 32,
          "time": 140.07678299999606,
          "velocity": 0.7874015748031497,
          "duration": 0.15384599999998727
        },
        {
          "name": "D2",
          "midi": 38,
          "time": 140.30755199999604,
          "velocity": 0.7874015748031497,
          "duration": 0.07692299999999364
        },
        {
          "name": "D#2",
          "midi": 39,
          "time": 140.42293649999604,
          "velocity": 0.7874015748031497,
          "duration": 0.07692299999999364
        },
        {
          "name": "D#2",
          "midi": 39,
          "time": 140.53832099999605,
          "velocity": 0.7874015748031497,
          "duration": 0.07692299999999364
        },
        {
          "name": "D#2",
          "midi": 39,
          "time": 140.65370549999605,
          "velocity": 0.7874015748031497,
          "duration": 0.07692299999999364
        },
        {
          "name": "D#2",
          "midi": 39,
          "time": 140.76908999999605,
          "velocity": 0.7874015748031497,
          "duration": 0.07692299999999364
        },
        {
          "name": "D#2",
          "midi": 39,
          "time": 140.88447449999606,
          "velocity": 0.7874015748031497,
          "duration": 0.07692299999999364
        },
        {
          "name": "D#2",
          "midi": 39,
          "time": 140.99985899999606,
          "velocity": 0.7874015748031497,
          "duration": 0.07692299999999364
        },
        {
          "name": "D#2",
          "midi": 39,
          "time": 141.11524349999607,
          "velocity": 0.7874015748031497,
          "duration": 0.07692299999999364
        },
        {
          "name": "D2",
          "midi": 38,
          "time": 141.23062799999607,
          "velocity": 0.7874015748031497,
          "duration": 0.07692299999999364
        },
        {
          "name": "D#2",
          "midi": 39,
          "time": 141.34601249999608,
          "velocity": 0.7874015748031497,
          "duration": 0.07692299999999364
        },
        {
          "name": "D#2",
          "midi": 39,
          "time": 141.46139699999608,
          "velocity": 0.7874015748031497,
          "duration": 0.07692299999999364
        },
        {
          "name": "D#2",
          "midi": 39,
          "time": 141.5767814999961,
          "velocity": 0.7874015748031497,
          "duration": 0.07692299999999364
        },
        {
          "name": "D#2",
          "midi": 39,
          "time": 141.6921659999961,
          "velocity": 0.7874015748031497,
          "duration": 0.07692299999999364
        },
        {
          "name": "D#2",
          "midi": 39,
          "time": 141.8075504999961,
          "velocity": 0.7874015748031497,
          "duration": 0.07692299999999364
        },
        {
          "name": "D#2",
          "midi": 39,
          "time": 141.9229349999961,
          "velocity": 0.7874015748031497,
          "duration": 0.07692299999999364
        },
        {
          "name": "D#2",
          "midi": 39,
          "time": 142.0383194999961,
          "velocity": 0.7874015748031497,
          "duration": 0.07692299999999364
        },
        {
          "name": "D2",
          "midi": 38,
          "time": 142.1537039999961,
          "velocity": 0.7874015748031497,
          "duration": 0.07692299999999364
        },
        {
          "name": "D#2",
          "midi": 39,
          "time": 142.26908849999612,
          "velocity": 0.7874015748031497,
          "duration": 0.07692299999999364
        },
        {
          "name": "D#2",
          "midi": 39,
          "time": 142.38447299999612,
          "velocity": 0.7874015748031497,
          "duration": 0.07692299999999364
        },
        {
          "name": "D#2",
          "midi": 39,
          "time": 142.49985749999612,
          "velocity": 0.7874015748031497,
          "duration": 0.07692299999999364
        },
        {
          "name": "D#2",
          "midi": 39,
          "time": 142.61524199999613,
          "velocity": 0.7874015748031497,
          "duration": 0.07692299999999364
        },
        {
          "name": "D#2",
          "midi": 39,
          "time": 142.73062649999613,
          "velocity": 0.7874015748031497,
          "duration": 0.07692299999999364
        },
        {
          "name": "D#2",
          "midi": 39,
          "time": 142.84601099999614,
          "velocity": 0.7874015748031497,
          "duration": 0.07692299999999364
        },
        {
          "name": "D#2",
          "midi": 39,
          "time": 142.96139549999614,
          "velocity": 0.7874015748031497,
          "duration": 0.07692299999999364
        },
        {
          "name": "D2",
          "midi": 38,
          "time": 143.07677999999615,
          "velocity": 0.7874015748031497,
          "duration": 0.07692299999999364
        },
        {
          "name": "D#2",
          "midi": 39,
          "time": 143.19216449999615,
          "velocity": 0.7874015748031497,
          "duration": 0.07692299999999364
        },
        {
          "name": "D#2",
          "midi": 39,
          "time": 143.30754899999616,
          "velocity": 0.7874015748031497,
          "duration": 0.07692299999999364
        },
        {
          "name": "D#2",
          "midi": 39,
          "time": 143.42293349999616,
          "velocity": 0.7874015748031497,
          "duration": 0.07692299999999364
        },
        {
          "name": "D2",
          "midi": 38,
          "time": 143.53831799999617,
          "velocity": 0.7874015748031497,
          "duration": 0.07692299999999364
        },
        {
          "name": "D#2",
          "midi": 39,
          "time": 143.65370249999617,
          "velocity": 0.7874015748031497,
          "duration": 0.07692299999999364
        },
        {
          "name": "D#2",
          "midi": 39,
          "time": 143.76908699999618,
          "velocity": 0.7874015748031497,
          "duration": 0.07692299999999364
        },
        {
          "name": "D#2",
          "midi": 39,
          "time": 143.88447149999618,
          "velocity": 0.7874015748031497,
          "duration": 0.07692299999999364
        },
        {
          "name": "A#1",
          "midi": 34,
          "time": 143.99985599999619,
          "velocity": 0.7874015748031497,
          "duration": 0.15384599999998727
        },
        {
          "name": "A#1",
          "midi": 34,
          "time": 144.23062499999617,
          "velocity": 0.7874015748031497,
          "duration": 0.15384599999998727
        },
        {
          "name": "A#1",
          "midi": 34,
          "time": 144.46139399999615,
          "velocity": 0.7874015748031497,
          "duration": 0.15384599999998727
        },
        {
          "name": "A#1",
          "midi": 34,
          "time": 144.69216299999613,
          "velocity": 0.7874015748031497,
          "duration": 0.15384599999998727
        },
        {
          "name": "A#1",
          "midi": 34,
          "time": 144.9229319999961,
          "velocity": 0.7874015748031497,
          "duration": 0.15384599999998727
        },
        {
          "name": "A#1",
          "midi": 34,
          "time": 145.1537009999961,
          "velocity": 0.7874015748031497,
          "duration": 0.15384599999998727
        },
        {
          "name": "A#1",
          "midi": 34,
          "time": 145.38446999999607,
          "velocity": 0.7874015748031497,
          "duration": 0.15384599999998727
        },
        {
          "name": "A#1",
          "midi": 34,
          "time": 145.61523899999605,
          "velocity": 0.7874015748031497,
          "duration": 0.15384599999998727
        },
        {
          "name": "A1",
          "midi": 33,
          "time": 145.84600799999603,
          "velocity": 0.7874015748031497,
          "duration": 0.15384599999998727
        },
        {
          "name": "A1",
          "midi": 33,
          "time": 146.076776999996,
          "velocity": 0.7874015748031497,
          "duration": 0.15384599999998727
        },
        {
          "name": "A1",
          "midi": 33,
          "time": 146.307545999996,
          "velocity": 0.7874015748031497,
          "duration": 0.15384599999998727
        },
        {
          "name": "A1",
          "midi": 33,
          "time": 146.53831499999598,
          "velocity": 0.7874015748031497,
          "duration": 0.15384599999998727
        },
        {
          "name": "G#1",
          "midi": 32,
          "time": 146.76908399999596,
          "velocity": 0.7874015748031497,
          "duration": 0.15384599999998727
        },
        {
          "name": "G#1",
          "midi": 32,
          "time": 146.99985299999594,
          "velocity": 0.7874015748031497,
          "duration": 0.15384599999998727
        },
        {
          "name": "G#1",
          "midi": 32,
          "time": 147.23062199999592,
          "velocity": 0.7874015748031497,
          "duration": 0.15384599999998727
        },
        {
          "name": "G#1",
          "midi": 32,
          "time": 147.4613909999959,
          "velocity": 0.7874015748031497,
          "duration": 0.15384599999998727
        },
        {
          "name": "D2",
          "midi": 38,
          "time": 147.69215999999588,
          "velocity": 0.7874015748031497,
          "duration": 0.07692299999999364
        },
        {
          "name": "D#2",
          "midi": 39,
          "time": 147.80754449999588,
          "velocity": 0.7874015748031497,
          "duration": 0.07692299999999364
        },
        {
          "name": "D#2",
          "midi": 39,
          "time": 147.9229289999959,
          "velocity": 0.7874015748031497,
          "duration": 0.07692299999999364
        },
        {
          "name": "D#2",
          "midi": 39,
          "time": 148.0383134999959,
          "velocity": 0.7874015748031497,
          "duration": 0.07692299999999364
        },
        {
          "name": "D#2",
          "midi": 39,
          "time": 148.1536979999959,
          "velocity": 0.7874015748031497,
          "duration": 0.07692299999999364
        },
        {
          "name": "D#2",
          "midi": 39,
          "time": 148.2690824999959,
          "velocity": 0.7874015748031497,
          "duration": 0.07692299999999364
        },
        {
          "name": "D#2",
          "midi": 39,
          "time": 148.3844669999959,
          "velocity": 0.7874015748031497,
          "duration": 0.07692299999999364
        },
        {
          "name": "D#2",
          "midi": 39,
          "time": 148.4998514999959,
          "velocity": 0.7874015748031497,
          "duration": 0.07692299999999364
        },
        {
          "name": "D2",
          "midi": 38,
          "time": 148.61523599999592,
          "velocity": 0.7874015748031497,
          "duration": 0.07692299999999364
        },
        {
          "name": "D#2",
          "midi": 39,
          "time": 148.73062049999592,
          "velocity": 0.7874015748031497,
          "duration": 0.07692299999999364
        },
        {
          "name": "D#2",
          "midi": 39,
          "time": 148.84600499999593,
          "velocity": 0.7874015748031497,
          "duration": 0.07692299999999364
        },
        {
          "name": "D#2",
          "midi": 39,
          "time": 148.96138949999593,
          "velocity": 0.7874015748031497,
          "duration": 0.07692299999999364
        },
        {
          "name": "D#2",
          "midi": 39,
          "time": 149.07677399999594,
          "velocity": 0.7874015748031497,
          "duration": 0.07692299999999364
        },
        {
          "name": "D#2",
          "midi": 39,
          "time": 149.19215849999594,
          "velocity": 0.7874015748031497,
          "duration": 0.07692299999999364
        },
        {
          "name": "D#2",
          "midi": 39,
          "time": 149.30754299999595,
          "velocity": 0.7874015748031497,
          "duration": 0.07692299999999364
        },
        {
          "name": "D#2",
          "midi": 39,
          "time": 149.42292749999595,
          "velocity": 0.7874015748031497,
          "duration": 0.07692299999999364
        },
        {
          "name": "D2",
          "midi": 38,
          "time": 149.53831199999595,
          "velocity": 0.7874015748031497,
          "duration": 0.07692299999999364
        },
        {
          "name": "D#2",
          "midi": 39,
          "time": 149.65369649999596,
          "velocity": 0.7874015748031497,
          "duration": 0.07692299999999364
        },
        {
          "name": "D#2",
          "midi": 39,
          "time": 149.76908099999596,
          "velocity": 0.7874015748031497,
          "duration": 0.07692299999999364
        },
        {
          "name": "D#2",
          "midi": 39,
          "time": 149.88446549999597,
          "velocity": 0.7874015748031497,
          "duration": 0.07692299999999364
        },
        {
          "name": "D#2",
          "midi": 39,
          "time": 149.99984999999597,
          "velocity": 0.7874015748031497,
          "duration": 0.07692299999999364
        },
        {
          "name": "D#2",
          "midi": 39,
          "time": 150.11523449999598,
          "velocity": 0.7874015748031497,
          "duration": 0.07692299999999364
        },
        {
          "name": "D#2",
          "midi": 39,
          "time": 150.23061899999598,
          "velocity": 0.7874015748031497,
          "duration": 0.07692299999999364
        },
        {
          "name": "D#2",
          "midi": 39,
          "time": 150.346003499996,
          "velocity": 0.7874015748031497,
          "duration": 0.07692299999999364
        },
        {
          "name": "D2",
          "midi": 38,
          "time": 150.461387999996,
          "velocity": 0.7874015748031497,
          "duration": 0.07692299999999364
        },
        {
          "name": "D#2",
          "midi": 39,
          "time": 150.576772499996,
          "velocity": 0.7874015748031497,
          "duration": 0.07692299999999364
        },
        {
          "name": "D#2",
          "midi": 39,
          "time": 150.692156999996,
          "velocity": 0.7874015748031497,
          "duration": 0.07692299999999364
        },
        {
          "name": "D#2",
          "midi": 39,
          "time": 150.807541499996,
          "velocity": 0.7874015748031497,
          "duration": 0.07692299999999364
        },
        {
          "name": "D2",
          "midi": 38,
          "time": 150.922925999996,
          "velocity": 0.7874015748031497,
          "duration": 0.07692299999999364
        },
        {
          "name": "D#2",
          "midi": 39,
          "time": 151.03831049999602,
          "velocity": 0.7874015748031497,
          "duration": 0.07692299999999364
        },
        {
          "name": "D#2",
          "midi": 39,
          "time": 151.15369499999602,
          "velocity": 0.7874015748031497,
          "duration": 0.07692299999999364
        },
        {
          "name": "D#2",
          "midi": 39,
          "time": 151.26907949999602,
          "velocity": 0.7874015748031497,
          "duration": 0.07692299999999364
        },
        {
          "name": "D2",
          "midi": 38,
          "time": 151.38446399999603,
          "velocity": 0.7874015748031497,
          "duration": 0.07692299999999364
        },
        {
          "name": "D#2",
          "midi": 39,
          "time": 151.49984849999603,
          "velocity": 0.7874015748031497,
          "duration": 0.07692299999999364
        },
        {
          "name": "D#2",
          "midi": 39,
          "time": 151.61523299999604,
          "velocity": 0.7874015748031497,
          "duration": 0.07692299999999364
        },
        {
          "name": "D#2",
          "midi": 39,
          "time": 151.73061749999604,
          "velocity": 0.7874015748031497,
          "duration": 0.07692299999999364
        },
        {
          "name": "D#2",
          "midi": 39,
          "time": 151.84600199999605,
          "velocity": 0.7874015748031497,
          "duration": 0.07692299999999364
        },
        {
          "name": "D#2",
          "midi": 39,
          "time": 151.96138649999605,
          "velocity": 0.7874015748031497,
          "duration": 0.07692299999999364
        },
        {
          "name": "D#2",
          "midi": 39,
          "time": 152.07677099999606,
          "velocity": 0.7874015748031497,
          "duration": 0.07692299999999364
        },
        {
          "name": "D#2",
          "midi": 39,
          "time": 152.19215549999606,
          "velocity": 0.7874015748031497,
          "duration": 0.07692299999999364
        },
        {
          "name": "D2",
          "midi": 38,
          "time": 152.30753999999607,
          "velocity": 0.7874015748031497,
          "duration": 0.07692299999999364
        },
        {
          "name": "D#2",
          "midi": 39,
          "time": 152.42292449999607,
          "velocity": 0.7874015748031497,
          "duration": 0.07692299999999364
        },
        {
          "name": "D#2",
          "midi": 39,
          "time": 152.53830899999608,
          "velocity": 0.7874015748031497,
          "duration": 0.07692299999999364
        },
        {
          "name": "D#2",
          "midi": 39,
          "time": 152.65369349999608,
          "velocity": 0.7874015748031497,
          "duration": 0.07692299999999364
        },
        {
          "name": "D#2",
          "midi": 39,
          "time": 152.76907799999609,
          "velocity": 0.7874015748031497,
          "duration": 0.07692299999999364
        },
        {
          "name": "D#2",
          "midi": 39,
          "time": 152.8844624999961,
          "velocity": 0.7874015748031497,
          "duration": 0.07692299999999364
        },
        {
          "name": "D#2",
          "midi": 39,
          "time": 152.9998469999961,
          "velocity": 0.7874015748031497,
          "duration": 0.07692299999999364
        },
        {
          "name": "D#2",
          "midi": 39,
          "time": 153.1152314999961,
          "velocity": 0.7874015748031497,
          "duration": 0.07692299999999364
        },
        {
          "name": "D2",
          "midi": 38,
          "time": 153.2306159999961,
          "velocity": 0.7874015748031497,
          "duration": 0.07692299999999364
        },
        {
          "name": "D#2",
          "midi": 39,
          "time": 153.3460004999961,
          "velocity": 0.7874015748031497,
          "duration": 0.07692299999999364
        },
        {
          "name": "D#2",
          "midi": 39,
          "time": 153.4613849999961,
          "velocity": 0.7874015748031497,
          "duration": 0.07692299999999364
        },
        {
          "name": "D#2",
          "midi": 39,
          "time": 153.57676949999612,
          "velocity": 0.7874015748031497,
          "duration": 0.07692299999999364
        },
        {
          "name": "D#2",
          "midi": 39,
          "time": 153.69215399999612,
          "velocity": 0.7874015748031497,
          "duration": 0.07692299999999364
        },
        {
          "name": "D#2",
          "midi": 39,
          "time": 153.80753849999613,
          "velocity": 0.7874015748031497,
          "duration": 0.07692299999999364
        },
        {
          "name": "D#2",
          "midi": 39,
          "time": 153.92292299999613,
          "velocity": 0.7874015748031497,
          "duration": 0.07692299999999364
        },
        {
          "name": "D#2",
          "midi": 39,
          "time": 154.03830749999614,
          "velocity": 0.7874015748031497,
          "duration": 0.07692299999999364
        },
        {
          "name": "D2",
          "midi": 38,
          "time": 154.15369199999614,
          "velocity": 0.7874015748031497,
          "duration": 0.07692299999999364
        },
        {
          "name": "D#2",
          "midi": 39,
          "time": 154.26907649999615,
          "velocity": 0.7874015748031497,
          "duration": 0.07692299999999364
        },
        {
          "name": "D#2",
          "midi": 39,
          "time": 154.38446099999615,
          "velocity": 0.7874015748031497,
          "duration": 0.07692299999999364
        },
        {
          "name": "D#2",
          "midi": 39,
          "time": 154.49984549999616,
          "velocity": 0.7874015748031497,
          "duration": 0.07692299999999364
        },
        {
          "name": "D2",
          "midi": 38,
          "time": 154.61522999999616,
          "velocity": 0.7874015748031497,
          "duration": 0.07692299999999364
        },
        {
          "name": "D#2",
          "midi": 39,
          "time": 154.73061449999616,
          "velocity": 0.7874015748031497,
          "duration": 0.07692299999999364
        },
        {
          "name": "D#2",
          "midi": 39,
          "time": 154.84599899999617,
          "velocity": 0.7874015748031497,
          "duration": 0.07692299999999364
        },
        {
          "name": "D#2",
          "midi": 39,
          "time": 154.96138349999617,
          "velocity": 0.7874015748031497,
          "duration": 0.07692299999999364
        },
        {
          "name": "D2",
          "midi": 38,
          "time": 155.07676799999618,
          "velocity": 0.7874015748031497,
          "duration": 0.07692299999999364
        },
        {
          "name": "D#2",
          "midi": 39,
          "time": 155.19215249999618,
          "velocity": 0.7874015748031497,
          "duration": 0.07692299999999364
        },
        {
          "name": "D#2",
          "midi": 39,
          "time": 155.3075369999962,
          "velocity": 0.7874015748031497,
          "duration": 0.07692299999999364
        },
        {
          "name": "D#2",
          "midi": 39,
          "time": 155.4229214999962,
          "velocity": 0.7874015748031497,
          "duration": 0.07692299999999364
        },
        {
          "name": "D#2",
          "midi": 39,
          "time": 155.5383059999962,
          "velocity": 0.7874015748031497,
          "duration": 0.07692299999999364
        },
        {
          "name": "D#2",
          "midi": 39,
          "time": 155.6536904999962,
          "velocity": 0.7874015748031497,
          "duration": 0.07692299999999364
        },
        {
          "name": "D#2",
          "midi": 39,
          "time": 155.7690749999962,
          "velocity": 0.7874015748031497,
          "duration": 0.07692299999999364
        },
        {
          "name": "D#2",
          "midi": 39,
          "time": 155.8844594999962,
          "velocity": 0.7874015748031497,
          "duration": 0.07692299999999364
        },
        {
          "name": "D2",
          "midi": 38,
          "time": 155.99984399999622,
          "velocity": 0.7874015748031497,
          "duration": 0.07692299999999364
        },
        {
          "name": "D#2",
          "midi": 39,
          "time": 156.11522849999622,
          "velocity": 0.7874015748031497,
          "duration": 0.07692299999999364
        },
        {
          "name": "D#2",
          "midi": 39,
          "time": 156.23061299999623,
          "velocity": 0.7874015748031497,
          "duration": 0.07692299999999364
        },
        {
          "name": "D#2",
          "midi": 39,
          "time": 156.34599749999623,
          "velocity": 0.7874015748031497,
          "duration": 0.07692299999999364
        },
        {
          "name": "D#2",
          "midi": 39,
          "time": 156.46138199999623,
          "velocity": 0.7874015748031497,
          "duration": 0.07692299999999364
        },
        {
          "name": "D#2",
          "midi": 39,
          "time": 156.57676649999624,
          "velocity": 0.7874015748031497,
          "duration": 0.07692299999999364
        },
        {
          "name": "D#2",
          "midi": 39,
          "time": 156.69215099999624,
          "velocity": 0.7874015748031497,
          "duration": 0.07692299999999364
        },
        {
          "name": "D#2",
          "midi": 39,
          "time": 156.80753549999625,
          "velocity": 0.7874015748031497,
          "duration": 0.07692299999999364
        },
        {
          "name": "D2",
          "midi": 38,
          "time": 156.92291999999625,
          "velocity": 0.7874015748031497,
          "duration": 0.07692299999999364
        },
        {
          "name": "D#2",
          "midi": 39,
          "time": 157.03830449999626,
          "velocity": 0.7874015748031497,
          "duration": 0.07692299999999364
        },
        {
          "name": "D#2",
          "midi": 39,
          "time": 157.15368899999626,
          "velocity": 0.7874015748031497,
          "duration": 0.07692299999999364
        },
        {
          "name": "D#2",
          "midi": 39,
          "time": 157.26907349999627,
          "velocity": 0.7874015748031497,
          "duration": 0.07692299999999364
        },
        {
          "name": "D#2",
          "midi": 39,
          "time": 157.38445799999627,
          "velocity": 0.7874015748031497,
          "duration": 0.07692299999999364
        },
        {
          "name": "D#2",
          "midi": 39,
          "time": 157.49984249999628,
          "velocity": 0.7874015748031497,
          "duration": 0.07692299999999364
        },
        {
          "name": "D#2",
          "midi": 39,
          "time": 157.61522699999628,
          "velocity": 0.7874015748031497,
          "duration": 0.07692299999999364
        },
        {
          "name": "D#2",
          "midi": 39,
          "time": 157.7306114999963,
          "velocity": 0.7874015748031497,
          "duration": 0.07692299999999364
        },
        {
          "name": "D2",
          "midi": 38,
          "time": 157.8459959999963,
          "velocity": 0.7874015748031497,
          "duration": 0.07692299999999364
        },
        {
          "name": "D#2",
          "midi": 39,
          "time": 157.9613804999963,
          "velocity": 0.7874015748031497,
          "duration": 0.07692299999999364
        },
        {
          "name": "D#2",
          "midi": 39,
          "time": 158.0767649999963,
          "velocity": 0.7874015748031497,
          "duration": 0.07692299999999364
        },
        {
          "name": "D#2",
          "midi": 39,
          "time": 158.1921494999963,
          "velocity": 0.7874015748031497,
          "duration": 0.07692299999999364
        },
        {
          "name": "D2",
          "midi": 38,
          "time": 158.3075339999963,
          "velocity": 0.7874015748031497,
          "duration": 0.07692299999999364
        },
        {
          "name": "D#2",
          "midi": 39,
          "time": 158.4229184999963,
          "velocity": 0.7874015748031497,
          "duration": 0.07692299999999364
        },
        {
          "name": "D#2",
          "midi": 39,
          "time": 158.53830299999632,
          "velocity": 0.7874015748031497,
          "duration": 0.07692299999999364
        },
        {
          "name": "D#2",
          "midi": 39,
          "time": 158.65368749999632,
          "velocity": 0.7874015748031497,
          "duration": 0.07692299999999364
        },
        {
          "name": "D2",
          "midi": 38,
          "time": 158.76907199999633,
          "velocity": 0.7874015748031497,
          "duration": 0.07692299999999364
        },
        {
          "name": "D#2",
          "midi": 39,
          "time": 158.88445649999633,
          "velocity": 0.7874015748031497,
          "duration": 0.07692299999999364
        },
        {
          "name": "D#2",
          "midi": 39,
          "time": 158.99984099999634,
          "velocity": 0.7874015748031497,
          "duration": 0.07692299999999364
        },
        {
          "name": "D#2",
          "midi": 39,
          "time": 159.11522549999634,
          "velocity": 0.7874015748031497,
          "duration": 0.07692299999999364
        },
        {
          "name": "D#2",
          "midi": 39,
          "time": 159.23060999999635,
          "velocity": 0.7874015748031497,
          "duration": 0.07692299999999364
        },
        {
          "name": "D#2",
          "midi": 39,
          "time": 159.34599449999635,
          "velocity": 0.7874015748031497,
          "duration": 0.07692299999999364
        },
        {
          "name": "D#2",
          "midi": 39,
          "time": 159.46137899999636,
          "velocity": 0.7874015748031497,
          "duration": 0.07692299999999364
        },
        {
          "name": "D#2",
          "midi": 39,
          "time": 159.57676349999636,
          "velocity": 0.7874015748031497,
          "duration": 0.07692299999999364
        },
        {
          "name": "D2",
          "midi": 38,
          "time": 159.69214799999637,
          "velocity": 0.7874015748031497,
          "duration": 0.07692299999999364
        },
        {
          "name": "D#2",
          "midi": 39,
          "time": 159.80753249999637,
          "velocity": 0.7874015748031497,
          "duration": 0.07692299999999364
        },
        {
          "name": "D#2",
          "midi": 39,
          "time": 159.92291699999637,
          "velocity": 0.7874015748031497,
          "duration": 0.07692299999999364
        },
        {
          "name": "D#2",
          "midi": 39,
          "time": 160.03830149999638,
          "velocity": 0.7874015748031497,
          "duration": 0.07692299999999364
        },
        {
          "name": "D#2",
          "midi": 39,
          "time": 160.15368599999638,
          "velocity": 0.7874015748031497,
          "duration": 0.07692299999999364
        },
        {
          "name": "D#2",
          "midi": 39,
          "time": 160.2690704999964,
          "velocity": 0.7874015748031497,
          "duration": 0.07692299999999364
        },
        {
          "name": "D#2",
          "midi": 39,
          "time": 160.3844549999964,
          "velocity": 0.7874015748031497,
          "duration": 0.07692299999999364
        },
        {
          "name": "D#2",
          "midi": 39,
          "time": 160.4998394999964,
          "velocity": 0.7874015748031497,
          "duration": 0.07692299999999364
        },
        {
          "name": "D2",
          "midi": 38,
          "time": 160.6152239999964,
          "velocity": 0.7874015748031497,
          "duration": 0.07692299999999364
        },
        {
          "name": "D#2",
          "midi": 39,
          "time": 160.7306084999964,
          "velocity": 0.7874015748031497,
          "duration": 0.07692299999999364
        },
        {
          "name": "D#2",
          "midi": 39,
          "time": 160.8459929999964,
          "velocity": 0.7874015748031497,
          "duration": 0.07692299999999364
        },
        {
          "name": "D#2",
          "midi": 39,
          "time": 160.96137749999642,
          "velocity": 0.7874015748031497,
          "duration": 0.07692299999999364
        },
        {
          "name": "D#2",
          "midi": 39,
          "time": 161.07676199999642,
          "velocity": 0.7874015748031497,
          "duration": 0.07692299999999364
        },
        {
          "name": "D#2",
          "midi": 39,
          "time": 161.19214649999643,
          "velocity": 0.7874015748031497,
          "duration": 0.07692299999999364
        },
        {
          "name": "D#2",
          "midi": 39,
          "time": 161.30753099999643,
          "velocity": 0.7874015748031497,
          "duration": 0.07692299999999364
        },
        {
          "name": "D#2",
          "midi": 39,
          "time": 161.42291549999644,
          "velocity": 0.7874015748031497,
          "duration": 0.07692299999999364
        },
        {
          "name": "D2",
          "midi": 38,
          "time": 161.53829999999644,
          "velocity": 0.7874015748031497,
          "duration": 0.07692299999999364
        },
        {
          "name": "D#2",
          "midi": 39,
          "time": 161.65368449999644,
          "velocity": 0.7874015748031497,
          "duration": 0.07692299999999364
        },
        {
          "name": "D#2",
          "midi": 39,
          "time": 161.76906899999645,
          "velocity": 0.7874015748031497,
          "duration": 0.07692299999999364
        },
        {
          "name": "D#2",
          "midi": 39,
          "time": 161.88445349999645,
          "velocity": 0.7874015748031497,
          "duration": 0.07692299999999364
        },
        {
          "name": "D2",
          "midi": 38,
          "time": 161.99983799999646,
          "velocity": 0.7874015748031497,
          "duration": 0.07692299999999364
        },
        {
          "name": "D#2",
          "midi": 39,
          "time": 162.11522249999646,
          "velocity": 0.7874015748031497,
          "duration": 0.07692299999999364
        },
        {
          "name": "D#2",
          "midi": 39,
          "time": 162.23060699999647,
          "velocity": 0.7874015748031497,
          "duration": 0.07692299999999364
        },
        {
          "name": "D#2",
          "midi": 39,
          "time": 162.34599149999647,
          "velocity": 0.7874015748031497,
          "duration": 0.07692299999999364
        },
        {
          "name": "D2",
          "midi": 38,
          "time": 162.46137599999648,
          "velocity": 0.7874015748031497,
          "duration": 0.07692299999999364
        },
        {
          "name": "D#2",
          "midi": 39,
          "time": 162.57676049999648,
          "velocity": 0.7874015748031497,
          "duration": 0.07692299999999364
        },
        {
          "name": "D#2",
          "midi": 39,
          "time": 162.6921449999965,
          "velocity": 0.7874015748031497,
          "duration": 0.07692299999999364
        },
        {
          "name": "D#2",
          "midi": 39,
          "time": 162.8075294999965,
          "velocity": 0.7874015748031497,
          "duration": 0.07692299999999364
        },
        {
          "name": "D#2",
          "midi": 39,
          "time": 162.9229139999965,
          "velocity": 0.7874015748031497,
          "duration": 0.07692299999999364
        },
        {
          "name": "D#2",
          "midi": 39,
          "time": 163.0382984999965,
          "velocity": 0.7874015748031497,
          "duration": 0.07692299999999364
        },
        {
          "name": "D#2",
          "midi": 39,
          "time": 163.1536829999965,
          "velocity": 0.7874015748031497,
          "duration": 0.07692299999999364
        },
        {
          "name": "D#2",
          "midi": 39,
          "time": 163.2690674999965,
          "velocity": 0.7874015748031497,
          "duration": 0.07692299999999364
        },
        {
          "name": "D2",
          "midi": 38,
          "time": 163.38445199999651,
          "velocity": 0.7874015748031497,
          "duration": 0.07692299999999364
        },
        {
          "name": "D#2",
          "midi": 39,
          "time": 163.49983649999652,
          "velocity": 0.7874015748031497,
          "duration": 0.07692299999999364
        },
        {
          "name": "D#2",
          "midi": 39,
          "time": 163.61522099999652,
          "velocity": 0.7874015748031497,
          "duration": 0.07692299999999364
        },
        {
          "name": "D#2",
          "midi": 39,
          "time": 163.73060549999653,
          "velocity": 0.7874015748031497,
          "duration": 0.07692299999999364
        },
        {
          "name": "D#2",
          "midi": 39,
          "time": 163.84598999999653,
          "velocity": 0.7874015748031497,
          "duration": 0.07692299999999364
        },
        {
          "name": "D#2",
          "midi": 39,
          "time": 163.96137449999654,
          "velocity": 0.7874015748031497,
          "duration": 0.07692299999999364
        },
        {
          "name": "D#2",
          "midi": 39,
          "time": 164.07675899999654,
          "velocity": 0.7874015748031497,
          "duration": 0.07692299999999364
        },
        {
          "name": "D#2",
          "midi": 39,
          "time": 164.19214349999655,
          "velocity": 0.7874015748031497,
          "duration": 0.07692299999999364
        },
        {
          "name": "D2",
          "midi": 38,
          "time": 164.30752799999655,
          "velocity": 0.7874015748031497,
          "duration": 0.07692299999999364
        },
        {
          "name": "D#2",
          "midi": 39,
          "time": 164.42291249999656,
          "velocity": 0.7874015748031497,
          "duration": 0.07692299999999364
        },
        {
          "name": "D#2",
          "midi": 39,
          "time": 164.53829699999656,
          "velocity": 0.7874015748031497,
          "duration": 0.07692299999999364
        },
        {
          "name": "D#2",
          "midi": 39,
          "time": 164.65368149999657,
          "velocity": 0.7874015748031497,
          "duration": 0.07692299999999364
        },
        {
          "name": "D#2",
          "midi": 39,
          "time": 164.76906599999657,
          "velocity": 0.7874015748031497,
          "duration": 0.07692299999999364
        },
        {
          "name": "D#2",
          "midi": 39,
          "time": 164.88445049999657,
          "velocity": 0.7874015748031497,
          "duration": 0.07692299999999364
        },
        {
          "name": "D#2",
          "midi": 39,
          "time": 164.99983499999658,
          "velocity": 0.7874015748031497,
          "duration": 0.07692299999999364
        },
        {
          "name": "D#2",
          "midi": 39,
          "time": 165.11521949999658,
          "velocity": 0.7874015748031497,
          "duration": 0.07692299999999364
        },
        {
          "name": "D2",
          "midi": 38,
          "time": 165.2306039999966,
          "velocity": 0.7874015748031497,
          "duration": 0.07692299999999364
        },
        {
          "name": "D#2",
          "midi": 39,
          "time": 165.3459884999966,
          "velocity": 0.7874015748031497,
          "duration": 0.07692299999999364
        },
        {
          "name": "D#2",
          "midi": 39,
          "time": 165.4613729999966,
          "velocity": 0.7874015748031497,
          "duration": 0.07692299999999364
        },
        {
          "name": "D#2",
          "midi": 39,
          "time": 165.5767574999966,
          "velocity": 0.7874015748031497,
          "duration": 0.07692299999999364
        },
        {
          "name": "D2",
          "midi": 38,
          "time": 165.6921419999966,
          "velocity": 0.7874015748031497,
          "duration": 0.07692299999999364
        },
        {
          "name": "D#2",
          "midi": 39,
          "time": 165.8075264999966,
          "velocity": 0.7874015748031497,
          "duration": 0.07692299999999364
        },
        {
          "name": "D#2",
          "midi": 39,
          "time": 165.92291099999662,
          "velocity": 0.7874015748031497,
          "duration": 0.07692299999999364
        },
        {
          "name": "D#2",
          "midi": 39,
          "time": 166.03829549999662,
          "velocity": 0.7874015748031497,
          "duration": 0.07692299999999364
        },
        {
          "name": "D2",
          "midi": 38,
          "time": 166.15367999999663,
          "velocity": 0.7874015748031497,
          "duration": 0.07692299999999364
        },
        {
          "name": "D#2",
          "midi": 39,
          "time": 166.26906449999663,
          "velocity": 0.7874015748031497,
          "duration": 0.07692299999999364
        },
        {
          "name": "D#2",
          "midi": 39,
          "time": 166.38444899999664,
          "velocity": 0.7874015748031497,
          "duration": 0.07692299999999364
        },
        {
          "name": "D#2",
          "midi": 39,
          "time": 166.49983349999664,
          "velocity": 0.7874015748031497,
          "duration": 0.07692299999999364
        },
        {
          "name": "D#2",
          "midi": 39,
          "time": 166.61521799999664,
          "velocity": 0.7874015748031497,
          "duration": 0.07692299999999364
        },
        {
          "name": "D#2",
          "midi": 39,
          "time": 166.73060249999665,
          "velocity": 0.7874015748031497,
          "duration": 0.07692299999999364
        },
        {
          "name": "D#2",
          "midi": 39,
          "time": 166.84598699999665,
          "velocity": 0.7874015748031497,
          "duration": 0.07692299999999364
        },
        {
          "name": "D#2",
          "midi": 39,
          "time": 166.96137149999666,
          "velocity": 0.7874015748031497,
          "duration": 0.07692299999999364
        },
        {
          "name": "D2",
          "midi": 38,
          "time": 167.07675599999666,
          "velocity": 0.7874015748031497,
          "duration": 0.07692299999999364
        },
        {
          "name": "D#2",
          "midi": 39,
          "time": 167.19214049999667,
          "velocity": 0.7874015748031497,
          "duration": 0.07692299999999364
        },
        {
          "name": "D#2",
          "midi": 39,
          "time": 167.30752499999667,
          "velocity": 0.7874015748031497,
          "duration": 0.07692299999999364
        },
        {
          "name": "D#2",
          "midi": 39,
          "time": 167.42290949999668,
          "velocity": 0.7874015748031497,
          "duration": 0.07692299999999364
        },
        {
          "name": "D#2",
          "midi": 39,
          "time": 167.53829399999668,
          "velocity": 0.7874015748031497,
          "duration": 0.07692299999999364
        },
        {
          "name": "D#2",
          "midi": 39,
          "time": 167.6536784999967,
          "velocity": 0.7874015748031497,
          "duration": 0.07692299999999364
        },
        {
          "name": "D#2",
          "midi": 39,
          "time": 167.7690629999967,
          "velocity": 0.7874015748031497,
          "duration": 0.07692299999999364
        },
        {
          "name": "D#2",
          "midi": 39,
          "time": 167.8844474999967,
          "velocity": 0.7874015748031497,
          "duration": 0.07692299999999364
        },
        {
          "name": "D2",
          "midi": 38,
          "time": 167.9998319999967,
          "velocity": 0.7874015748031497,
          "duration": 0.07692299999999364
        },
        {
          "name": "D#2",
          "midi": 39,
          "time": 168.1152164999967,
          "velocity": 0.7874015748031497,
          "duration": 0.07692299999999364
        },
        {
          "name": "D#2",
          "midi": 39,
          "time": 168.2306009999967,
          "velocity": 0.7874015748031497,
          "duration": 0.07692299999999364
        },
        {
          "name": "D#2",
          "midi": 39,
          "time": 168.34598549999671,
          "velocity": 0.7874015748031497,
          "duration": 0.07692299999999364
        },
        {
          "name": "D#2",
          "midi": 39,
          "time": 168.46136999999672,
          "velocity": 0.7874015748031497,
          "duration": 0.07692299999999364
        },
        {
          "name": "D#2",
          "midi": 39,
          "time": 168.57675449999672,
          "velocity": 0.7874015748031497,
          "duration": 0.07692299999999364
        },
        {
          "name": "D#2",
          "midi": 39,
          "time": 168.69213899999673,
          "velocity": 0.7874015748031497,
          "duration": 0.07692299999999364
        },
        {
          "name": "D#2",
          "midi": 39,
          "time": 168.80752349999673,
          "velocity": 0.7874015748031497,
          "duration": 0.07692299999999364
        },
        {
          "name": "D2",
          "midi": 38,
          "time": 168.92290799999674,
          "velocity": 0.7874015748031497,
          "duration": 0.07692299999999364
        },
        {
          "name": "D#2",
          "midi": 39,
          "time": 169.03829249999674,
          "velocity": 0.7874015748031497,
          "duration": 0.07692299999999364
        },
        {
          "name": "D#2",
          "midi": 39,
          "time": 169.15367699999675,
          "velocity": 0.7874015748031497,
          "duration": 0.07692299999999364
        },
        {
          "name": "D#2",
          "midi": 39,
          "time": 169.26906149999675,
          "velocity": 0.7874015748031497,
          "duration": 0.07692299999999364
        },
        {
          "name": "D2",
          "midi": 38,
          "time": 169.38444599999676,
          "velocity": 0.7874015748031497,
          "duration": 0.07692299999999364
        },
        {
          "name": "D#2",
          "midi": 39,
          "time": 169.49983049999676,
          "velocity": 0.7874015748031497,
          "duration": 0.07692299999999364
        },
        {
          "name": "D#2",
          "midi": 39,
          "time": 169.61521499999677,
          "velocity": 0.7874015748031497,
          "duration": 0.07692299999999364
        },
        {
          "name": "D#2",
          "midi": 39,
          "time": 169.73059949999677,
          "velocity": 0.7874015748031497,
          "duration": 0.07692299999999364
        },
        {
          "name": "D2",
          "midi": 38,
          "time": 169.84598399999678,
          "velocity": 0.7874015748031497,
          "duration": 0.07692299999999364
        },
        {
          "name": "D#2",
          "midi": 39,
          "time": 169.96136849999678,
          "velocity": 0.7874015748031497,
          "duration": 0.07692299999999364
        },
        {
          "name": "D#2",
          "midi": 39,
          "time": 170.07675299999678,
          "velocity": 0.7874015748031497,
          "duration": 0.07692299999999364
        },
        {
          "name": "D#2",
          "midi": 39,
          "time": 170.1921374999968,
          "velocity": 0.7874015748031497,
          "duration": 0.07692299999999364
        },
        {
          "name": "D#2",
          "midi": 39,
          "time": 170.3075219999968,
          "velocity": 0.7874015748031497,
          "duration": 0.07692299999999364
        },
        {
          "name": "D#2",
          "midi": 39,
          "time": 170.4229064999968,
          "velocity": 0.7874015748031497,
          "duration": 0.07692299999999364
        },
        {
          "name": "D#2",
          "midi": 39,
          "time": 170.5382909999968,
          "velocity": 0.7874015748031497,
          "duration": 0.07692299999999364
        },
        {
          "name": "D#2",
          "midi": 39,
          "time": 170.6536754999968,
          "velocity": 0.7874015748031497,
          "duration": 0.07692299999999364
        },
        {
          "name": "D2",
          "midi": 38,
          "time": 170.7690599999968,
          "velocity": 0.7874015748031497,
          "duration": 0.07692299999999364
        },
        {
          "name": "D#2",
          "midi": 39,
          "time": 170.88444449999682,
          "velocity": 0.7874015748031497,
          "duration": 0.07692299999999364
        },
        {
          "name": "D#2",
          "midi": 39,
          "time": 170.99982899999682,
          "velocity": 0.7874015748031497,
          "duration": 0.07692299999999364
        },
        {
          "name": "D#2",
          "midi": 39,
          "time": 171.11521349999683,
          "velocity": 0.7874015748031497,
          "duration": 0.07692299999999364
        },
        {
          "name": "D#2",
          "midi": 39,
          "time": 171.23059799999683,
          "velocity": 0.7874015748031497,
          "duration": 0.07692299999999364
        },
        {
          "name": "D#2",
          "midi": 39,
          "time": 171.34598249999684,
          "velocity": 0.7874015748031497,
          "duration": 0.07692299999999364
        },
        {
          "name": "D#2",
          "midi": 39,
          "time": 171.46136699999684,
          "velocity": 0.7874015748031497,
          "duration": 0.07692299999999364
        },
        {
          "name": "D#2",
          "midi": 39,
          "time": 171.57675149999685,
          "velocity": 0.7874015748031497,
          "duration": 0.07692299999999364
        },
        {
          "name": "D2",
          "midi": 38,
          "time": 171.69213599999685,
          "velocity": 0.7874015748031497,
          "duration": 0.07692299999999364
        },
        {
          "name": "D#2",
          "midi": 39,
          "time": 171.80752049999685,
          "velocity": 0.7874015748031497,
          "duration": 0.07692299999999364
        },
        {
          "name": "D#2",
          "midi": 39,
          "time": 171.92290499999686,
          "velocity": 0.7874015748031497,
          "duration": 0.07692299999999364
        },
        {
          "name": "D#2",
          "midi": 39,
          "time": 172.03828949999686,
          "velocity": 0.7874015748031497,
          "duration": 0.07692299999999364
        },
        {
          "name": "D#2",
          "midi": 39,
          "time": 172.15367399999687,
          "velocity": 0.7874015748031497,
          "duration": 0.07692299999999364
        },
        {
          "name": "D#2",
          "midi": 39,
          "time": 172.26905849999687,
          "velocity": 0.7874015748031497,
          "duration": 0.07692299999999364
        },
        {
          "name": "D#2",
          "midi": 39,
          "time": 172.38444299999688,
          "velocity": 0.7874015748031497,
          "duration": 0.07692299999999364
        },
        {
          "name": "D#2",
          "midi": 39,
          "time": 172.49982749999688,
          "velocity": 0.7874015748031497,
          "duration": 0.07692299999999364
        },
        {
          "name": "D2",
          "midi": 38,
          "time": 172.6152119999969,
          "velocity": 0.7874015748031497,
          "duration": 0.07692299999999364
        },
        {
          "name": "D#2",
          "midi": 39,
          "time": 172.7305964999969,
          "velocity": 0.7874015748031497,
          "duration": 0.07692299999999364
        },
        {
          "name": "D#2",
          "midi": 39,
          "time": 172.8459809999969,
          "velocity": 0.7874015748031497,
          "duration": 0.07692299999999364
        },
        {
          "name": "D#2",
          "midi": 39,
          "time": 172.9613654999969,
          "velocity": 0.7874015748031497,
          "duration": 0.07692299999999364
        },
        {
          "name": "D2",
          "midi": 38,
          "time": 173.0767499999969,
          "velocity": 0.7874015748031497,
          "duration": 0.07692299999999364
        },
        {
          "name": "D#2",
          "midi": 39,
          "time": 173.1921344999969,
          "velocity": 0.7874015748031497,
          "duration": 0.07692299999999364
        },
        {
          "name": "D#2",
          "midi": 39,
          "time": 173.30751899999692,
          "velocity": 0.7874015748031497,
          "duration": 0.07692299999999364
        },
        {
          "name": "D#2",
          "midi": 39,
          "time": 173.42290349999692,
          "velocity": 0.7874015748031497,
          "duration": 0.07692299999999364
        },
        {
          "name": "D2",
          "midi": 38,
          "time": 173.53828799999692,
          "velocity": 0.7874015748031497,
          "duration": 0.07692299999999364
        },
        {
          "name": "D#2",
          "midi": 39,
          "time": 173.65367249999693,
          "velocity": 0.7874015748031497,
          "duration": 0.07692299999999364
        },
        {
          "name": "D#2",
          "midi": 39,
          "time": 173.76905699999693,
          "velocity": 0.7874015748031497,
          "duration": 0.07692299999999364
        },
        {
          "name": "D#2",
          "midi": 39,
          "time": 173.88444149999694,
          "velocity": 0.7874015748031497,
          "duration": 0.07692299999999364
        },
        {
          "name": "D#2",
          "midi": 39,
          "time": 173.99982599999694,
          "velocity": 0.7874015748031497,
          "duration": 0.07692299999999364
        },
        {
          "name": "D#2",
          "midi": 39,
          "time": 174.11521049999695,
          "velocity": 0.7874015748031497,
          "duration": 0.07692299999999364
        },
        {
          "name": "D#2",
          "midi": 39,
          "time": 174.23059499999695,
          "velocity": 0.7874015748031497,
          "duration": 0.07692299999999364
        },
        {
          "name": "D#2",
          "midi": 39,
          "time": 174.34597949999696,
          "velocity": 0.7874015748031497,
          "duration": 0.07692299999999364
        },
        {
          "name": "D2",
          "midi": 38,
          "time": 174.46136399999696,
          "velocity": 0.7874015748031497,
          "duration": 0.07692299999999364
        },
        {
          "name": "D#2",
          "midi": 39,
          "time": 174.57674849999697,
          "velocity": 0.7874015748031497,
          "duration": 0.07692299999999364
        },
        {
          "name": "D#2",
          "midi": 39,
          "time": 174.69213299999697,
          "velocity": 0.7874015748031497,
          "duration": 0.07692299999999364
        },
        {
          "name": "D#2",
          "midi": 39,
          "time": 174.80751749999698,
          "velocity": 0.7874015748031497,
          "duration": 0.07692299999999364
        },
        {
          "name": "D#2",
          "midi": 39,
          "time": 174.92290199999698,
          "velocity": 0.7874015748031497,
          "duration": 0.07692299999999364
        },
        {
          "name": "D#2",
          "midi": 39,
          "time": 175.03828649999699,
          "velocity": 0.7874015748031497,
          "duration": 0.07692299999999364
        },
        {
          "name": "D#2",
          "midi": 39,
          "time": 175.153670999997,
          "velocity": 0.7874015748031497,
          "duration": 0.07692299999999364
        },
        {
          "name": "D#2",
          "midi": 39,
          "time": 175.269055499997,
          "velocity": 0.7874015748031497,
          "duration": 0.07692299999999364
        },
        {
          "name": "D2",
          "midi": 38,
          "time": 175.384439999997,
          "velocity": 0.7874015748031497,
          "duration": 0.07692299999999364
        },
        {
          "name": "D#2",
          "midi": 39,
          "time": 175.499824499997,
          "velocity": 0.7874015748031497,
          "duration": 0.07692299999999364
        },
        {
          "name": "D#2",
          "midi": 39,
          "time": 175.615208999997,
          "velocity": 0.7874015748031497,
          "duration": 0.07692299999999364
        },
        {
          "name": "D#2",
          "midi": 39,
          "time": 175.730593499997,
          "velocity": 0.7874015748031497,
          "duration": 0.07692299999999364
        },
        {
          "name": "D#2",
          "midi": 39,
          "time": 175.84597799999702,
          "velocity": 0.7874015748031497,
          "duration": 0.07692299999999364
        },
        {
          "name": "D#2",
          "midi": 39,
          "time": 175.96136249999702,
          "velocity": 0.7874015748031497,
          "duration": 0.07692299999999364
        },
        {
          "name": "D#2",
          "midi": 39,
          "time": 176.07674699999703,
          "velocity": 0.7874015748031497,
          "duration": 0.07692299999999364
        },
        {
          "name": "D#2",
          "midi": 39,
          "time": 176.19213149999703,
          "velocity": 0.7874015748031497,
          "duration": 0.07692299999999364
        },
        {
          "name": "D2",
          "midi": 38,
          "time": 176.30751599999704,
          "velocity": 0.7874015748031497,
          "duration": 0.07692299999999364
        },
        {
          "name": "D#2",
          "midi": 39,
          "time": 176.42290049999704,
          "velocity": 0.7874015748031497,
          "duration": 0.07692299999999364
        },
        {
          "name": "D#2",
          "midi": 39,
          "time": 176.53828499999705,
          "velocity": 0.7874015748031497,
          "duration": 0.07692299999999364
        },
        {
          "name": "D#2",
          "midi": 39,
          "time": 176.65366949999705,
          "velocity": 0.7874015748031497,
          "duration": 0.07692299999999364
        },
        {
          "name": "D2",
          "midi": 38,
          "time": 176.76905399999706,
          "velocity": 0.7874015748031497,
          "duration": 0.07692299999999364
        },
        {
          "name": "D#2",
          "midi": 39,
          "time": 176.88443849999706,
          "velocity": 0.7874015748031497,
          "duration": 0.07692299999999364
        },
        {
          "name": "D#2",
          "midi": 39,
          "time": 176.99982299999706,
          "velocity": 0.7874015748031497,
          "duration": 0.07692299999999364
        },
        {
          "name": "D#2",
          "midi": 39,
          "time": 177.11520749999707,
          "velocity": 0.7874015748031497,
          "duration": 0.07692299999999364
        },
        {
          "name": "D2",
          "midi": 38,
          "time": 177.23059199999707,
          "velocity": 0.7874015748031497,
          "duration": 0.07692299999999364
        },
        {
          "name": "D#2",
          "midi": 39,
          "time": 177.34597649999708,
          "velocity": 0.7874015748031497,
          "duration": 0.07692299999999364
        },
        {
          "name": "D#2",
          "midi": 39,
          "time": 177.46136099999708,
          "velocity": 0.7874015748031497,
          "duration": 0.07692299999999364
        },
        {
          "name": "D#2",
          "midi": 39,
          "time": 177.5767454999971,
          "velocity": 0.7874015748031497,
          "duration": 0.07692299999999364
        },
        {
          "name": "D#2",
          "midi": 39,
          "time": 177.6921299999971,
          "velocity": 0.7874015748031497,
          "duration": 0.07692299999999364
        },
        {
          "name": "D#2",
          "midi": 39,
          "time": 177.8075144999971,
          "velocity": 0.7874015748031497,
          "duration": 0.07692299999999364
        },
        {
          "name": "D#2",
          "midi": 39,
          "time": 177.9228989999971,
          "velocity": 0.7874015748031497,
          "duration": 0.07692299999999364
        },
        {
          "name": "D#2",
          "midi": 39,
          "time": 178.0382834999971,
          "velocity": 0.7874015748031497,
          "duration": 0.07692299999999364
        },
        {
          "name": "D2",
          "midi": 38,
          "time": 178.1536679999971,
          "velocity": 0.7874015748031497,
          "duration": 0.07692299999999364
        },
        {
          "name": "D#2",
          "midi": 39,
          "time": 178.26905249999712,
          "velocity": 0.7874015748031497,
          "duration": 0.07692299999999364
        },
        {
          "name": "D#2",
          "midi": 39,
          "time": 178.38443699999712,
          "velocity": 0.7874015748031497,
          "duration": 0.07692299999999364
        },
        {
          "name": "D#2",
          "midi": 39,
          "time": 178.49982149999713,
          "velocity": 0.7874015748031497,
          "duration": 0.07692299999999364
        },
        {
          "name": "D#2",
          "midi": 39,
          "time": 178.61520599999713,
          "velocity": 0.7874015748031497,
          "duration": 0.07692299999999364
        },
        {
          "name": "D#2",
          "midi": 39,
          "time": 178.73059049999713,
          "velocity": 0.7874015748031497,
          "duration": 0.07692299999999364
        },
        {
          "name": "D#2",
          "midi": 39,
          "time": 178.84597499999714,
          "velocity": 0.7874015748031497,
          "duration": 0.07692299999999364
        },
        {
          "name": "D#2",
          "midi": 39,
          "time": 178.96135949999714,
          "velocity": 0.7874015748031497,
          "duration": 0.07692299999999364
        },
        {
          "name": "D2",
          "midi": 38,
          "time": 179.07674399999715,
          "velocity": 0.7874015748031497,
          "duration": 0.07692299999999364
        },
        {
          "name": "D#2",
          "midi": 39,
          "time": 179.19212849999715,
          "velocity": 0.7874015748031497,
          "duration": 0.07692299999999364
        },
        {
          "name": "D#2",
          "midi": 39,
          "time": 179.30751299999716,
          "velocity": 0.7874015748031497,
          "duration": 0.07692299999999364
        },
        {
          "name": "D#2",
          "midi": 39,
          "time": 179.42289749999716,
          "velocity": 0.7874015748031497,
          "duration": 0.07692299999999364
        },
        {
          "name": "D#2",
          "midi": 39,
          "time": 179.53828199999717,
          "velocity": 0.7874015748031497,
          "duration": 0.07692299999999364
        },
        {
          "name": "D#2",
          "midi": 39,
          "time": 179.65366649999717,
          "velocity": 0.7874015748031497,
          "duration": 0.07692299999999364
        },
        {
          "name": "D#2",
          "midi": 39,
          "time": 179.76905099999718,
          "velocity": 0.7874015748031497,
          "duration": 0.07692299999999364
        },
        {
          "name": "D#2",
          "midi": 39,
          "time": 179.88443549999718,
          "velocity": 0.7874015748031497,
          "duration": 0.07692299999999364
        },
        {
          "name": "D2",
          "midi": 38,
          "time": 179.9998199999972,
          "velocity": 0.7874015748031497,
          "duration": 0.07692299999999364
        },
        {
          "name": "D#2",
          "midi": 39,
          "time": 180.1152044999972,
          "velocity": 0.7874015748031497,
          "duration": 0.07692299999999364
        },
        {
          "name": "D#2",
          "midi": 39,
          "time": 180.2305889999972,
          "velocity": 0.7874015748031497,
          "duration": 0.07692299999999364
        },
        {
          "name": "D#2",
          "midi": 39,
          "time": 180.3459734999972,
          "velocity": 0.7874015748031497,
          "duration": 0.07692299999999364
        },
        {
          "name": "D2",
          "midi": 38,
          "time": 180.4613579999972,
          "velocity": 0.7874015748031497,
          "duration": 0.07692299999999364
        },
        {
          "name": "D#2",
          "midi": 39,
          "time": 180.5767424999972,
          "velocity": 0.7874015748031497,
          "duration": 0.07692299999999364
        },
        {
          "name": "D#2",
          "midi": 39,
          "time": 180.6921269999972,
          "velocity": 0.7874015748031497,
          "duration": 0.07692299999999364
        },
        {
          "name": "D#2",
          "midi": 39,
          "time": 180.80751149999722,
          "velocity": 0.7874015748031497,
          "duration": 0.07692299999999364
        },
        {
          "name": "A#1",
          "midi": 34,
          "time": 180.92289599999722,
          "velocity": 0.7874015748031497,
          "duration": 0.15384599999998727
        },
        {
          "name": "A#1",
          "midi": 34,
          "time": 181.1536649999972,
          "velocity": 0.7874015748031497,
          "duration": 0.15384599999998727
        },
        {
          "name": "A#1",
          "midi": 34,
          "time": 181.38443399999719,
          "velocity": 0.7874015748031497,
          "duration": 0.15384599999998727
        },
        {
          "name": "A#1",
          "midi": 34,
          "time": 181.61520299999717,
          "velocity": 0.7874015748031497,
          "duration": 0.15384599999998727
        },
        {
          "name": "A#1",
          "midi": 34,
          "time": 181.84597199999715,
          "velocity": 0.7874015748031497,
          "duration": 0.15384599999998727
        },
        {
          "name": "A#1",
          "midi": 34,
          "time": 182.07674099999713,
          "velocity": 0.7874015748031497,
          "duration": 0.15384599999998727
        },
        {
          "name": "A#1",
          "midi": 34,
          "time": 182.3075099999971,
          "velocity": 0.7874015748031497,
          "duration": 0.15384599999998727
        },
        {
          "name": "A#1",
          "midi": 34,
          "time": 182.5382789999971,
          "velocity": 0.7874015748031497,
          "duration": 0.15384599999998727
        },
        {
          "name": "A1",
          "midi": 33,
          "time": 182.76904799999707,
          "velocity": 0.7874015748031497,
          "duration": 0.15384599999998727
        },
        {
          "name": "A1",
          "midi": 33,
          "time": 182.99981699999705,
          "velocity": 0.7874015748031497,
          "duration": 0.15384599999998727
        },
        {
          "name": "A1",
          "midi": 33,
          "time": 183.23058599999703,
          "velocity": 0.7874015748031497,
          "duration": 0.15384599999998727
        },
        {
          "name": "A1",
          "midi": 33,
          "time": 183.461354999997,
          "velocity": 0.7874015748031497,
          "duration": 0.15384599999998727
        },
        {
          "name": "G#1",
          "midi": 32,
          "time": 183.692123999997,
          "velocity": 0.7874015748031497,
          "duration": 0.15384599999998727
        },
        {
          "name": "G#1",
          "midi": 32,
          "time": 183.92289299999698,
          "velocity": 0.7874015748031497,
          "duration": 0.15384599999998727
        },
        {
          "name": "G#1",
          "midi": 32,
          "time": 184.15366199999696,
          "velocity": 0.7874015748031497,
          "duration": 0.15384599999998727
        },
        {
          "name": "G#1",
          "midi": 32,
          "time": 184.38443099999694,
          "velocity": 0.7874015748031497,
          "duration": 0.15384599999998727
        },
        {
          "name": "D2",
          "midi": 38,
          "time": 184.61519999999692,
          "velocity": 0.7874015748031497,
          "duration": 0.07692299999999364
        },
        {
          "name": "D#2",
          "midi": 39,
          "time": 184.73058449999692,
          "velocity": 0.7874015748031497,
          "duration": 0.07692299999999364
        },
        {
          "name": "D#2",
          "midi": 39,
          "time": 184.84596899999693,
          "velocity": 0.7874015748031497,
          "duration": 0.07692299999999364
        },
        {
          "name": "D#2",
          "midi": 39,
          "time": 184.96135349999693,
          "velocity": 0.7874015748031497,
          "duration": 0.07692299999999364
        },
        {
          "name": "D#2",
          "midi": 39,
          "time": 185.07673799999694,
          "velocity": 0.7874015748031497,
          "duration": 0.07692299999999364
        },
        {
          "name": "D#2",
          "midi": 39,
          "time": 185.19212249999694,
          "velocity": 0.7874015748031497,
          "duration": 0.07692299999999364
        },
        {
          "name": "D#2",
          "midi": 39,
          "time": 185.30750699999695,
          "velocity": 0.7874015748031497,
          "duration": 0.07692299999999364
        },
        {
          "name": "D#2",
          "midi": 39,
          "time": 185.42289149999695,
          "velocity": 0.7874015748031497,
          "duration": 0.07692299999999364
        },
        {
          "name": "D2",
          "midi": 38,
          "time": 185.53827599999696,
          "velocity": 0.7874015748031497,
          "duration": 0.07692299999999364
        },
        {
          "name": "D#2",
          "midi": 39,
          "time": 185.65366049999696,
          "velocity": 0.7874015748031497,
          "duration": 0.07692299999999364
        },
        {
          "name": "D#2",
          "midi": 39,
          "time": 185.76904499999696,
          "velocity": 0.7874015748031497,
          "duration": 0.07692299999999364
        },
        {
          "name": "D#2",
          "midi": 39,
          "time": 185.88442949999697,
          "velocity": 0.7874015748031497,
          "duration": 0.07692299999999364
        },
        {
          "name": "D#2",
          "midi": 39,
          "time": 185.99981399999697,
          "velocity": 0.7874015748031497,
          "duration": 0.07692299999999364
        },
        {
          "name": "D#2",
          "midi": 39,
          "time": 186.11519849999698,
          "velocity": 0.7874015748031497,
          "duration": 0.07692299999999364
        },
        {
          "name": "D#2",
          "midi": 39,
          "time": 186.23058299999698,
          "velocity": 0.7874015748031497,
          "duration": 0.07692299999999364
        },
        {
          "name": "D#2",
          "midi": 39,
          "time": 186.345967499997,
          "velocity": 0.7874015748031497,
          "duration": 0.07692299999999364
        },
        {
          "name": "D2",
          "midi": 38,
          "time": 186.461351999997,
          "velocity": 0.7874015748031497,
          "duration": 0.07692299999999364
        },
        {
          "name": "D#2",
          "midi": 39,
          "time": 186.576736499997,
          "velocity": 0.7874015748031497,
          "duration": 0.07692299999999364
        },
        {
          "name": "D#2",
          "midi": 39,
          "time": 186.692120999997,
          "velocity": 0.7874015748031497,
          "duration": 0.07692299999999364
        },
        {
          "name": "D#2",
          "midi": 39,
          "time": 186.807505499997,
          "velocity": 0.7874015748031497,
          "duration": 0.07692299999999364
        },
        {
          "name": "D#2",
          "midi": 39,
          "time": 186.922889999997,
          "velocity": 0.7874015748031497,
          "duration": 0.07692299999999364
        },
        {
          "name": "D#2",
          "midi": 39,
          "time": 187.03827449999702,
          "velocity": 0.7874015748031497,
          "duration": 0.07692299999999364
        },
        {
          "name": "D#2",
          "midi": 39,
          "time": 187.15365899999702,
          "velocity": 0.7874015748031497,
          "duration": 0.07692299999999364
        },
        {
          "name": "D#2",
          "midi": 39,
          "time": 187.26904349999703,
          "velocity": 0.7874015748031497,
          "duration": 0.07692299999999364
        },
        {
          "name": "D2",
          "midi": 38,
          "time": 187.38442799999703,
          "velocity": 0.7874015748031497,
          "duration": 0.07692299999999364
        },
        {
          "name": "D#2",
          "midi": 39,
          "time": 187.49981249999703,
          "velocity": 0.7874015748031497,
          "duration": 0.07692299999999364
        },
        {
          "name": "D#2",
          "midi": 39,
          "time": 187.61519699999704,
          "velocity": 0.7874015748031497,
          "duration": 0.07692299999999364
        },
        {
          "name": "D#2",
          "midi": 39,
          "time": 187.73058149999704,
          "velocity": 0.7874015748031497,
          "duration": 0.07692299999999364
        },
        {
          "name": "D2",
          "midi": 38,
          "time": 187.84596599999705,
          "velocity": 0.7874015748031497,
          "duration": 0.07692299999999364
        },
        {
          "name": "D#2",
          "midi": 39,
          "time": 187.96135049999705,
          "velocity": 0.7874015748031497,
          "duration": 0.07692299999999364
        },
        {
          "name": "D#2",
          "midi": 39,
          "time": 188.07673499999706,
          "velocity": 0.7874015748031497,
          "duration": 0.07692299999999364
        },
        {
          "name": "D#2",
          "midi": 39,
          "time": 188.19211949999706,
          "velocity": 0.7874015748031497,
          "duration": 0.07692299999999364
        },
        {
          "name": "A#1",
          "midi": 34,
          "time": 188.30750399999707,
          "velocity": 0.7874015748031497,
          "duration": 0.15384599999998727
        },
        {
          "name": "A#1",
          "midi": 34,
          "time": 188.53827299999705,
          "velocity": 0.7874015748031497,
          "duration": 0.15384599999998727
        },
        {
          "name": "A#1",
          "midi": 34,
          "time": 188.76904199999703,
          "velocity": 0.7874015748031497,
          "duration": 0.15384599999998727
        },
        {
          "name": "A#1",
          "midi": 34,
          "time": 188.999810999997,
          "velocity": 0.7874015748031497,
          "duration": 0.15384599999998727
        },
        {
          "name": "A#1",
          "midi": 34,
          "time": 189.230579999997,
          "velocity": 0.7874015748031497,
          "duration": 0.15384599999998727
        },
        {
          "name": "A#1",
          "midi": 34,
          "time": 189.46134899999697,
          "velocity": 0.7874015748031497,
          "duration": 0.15384599999998727
        },
        {
          "name": "A#1",
          "midi": 34,
          "time": 189.69211799999695,
          "velocity": 0.7874015748031497,
          "duration": 0.15384599999998727
        },
        {
          "name": "A#1",
          "midi": 34,
          "time": 189.92288699999693,
          "velocity": 0.7874015748031497,
          "duration": 0.15384599999998727
        },
        {
          "name": "A1",
          "midi": 33,
          "time": 190.15365599999691,
          "velocity": 0.7874015748031497,
          "duration": 0.15384599999998727
        },
        {
          "name": "A1",
          "midi": 33,
          "time": 190.3844249999969,
          "velocity": 0.7874015748031497,
          "duration": 0.15384599999998727
        },
        {
          "name": "A1",
          "midi": 33,
          "time": 190.61519399999688,
          "velocity": 0.7874015748031497,
          "duration": 0.15384599999998727
        },
        {
          "name": "A1",
          "midi": 33,
          "time": 190.84596299999686,
          "velocity": 0.7874015748031497,
          "duration": 0.15384599999998727
        },
        {
          "name": "G#1",
          "midi": 32,
          "time": 191.07673199999684,
          "velocity": 0.7874015748031497,
          "duration": 0.15384599999998727
        },
        {
          "name": "G#1",
          "midi": 32,
          "time": 191.30750099999682,
          "velocity": 0.7874015748031497,
          "duration": 0.15384599999998727
        },
        {
          "name": "G#1",
          "midi": 32,
          "time": 191.5382699999968,
          "velocity": 0.7874015748031497,
          "duration": 0.15384599999998727
        },
        {
          "name": "G#1",
          "midi": 32,
          "time": 191.76903899999678,
          "velocity": 0.7874015748031497,
          "duration": 0.15384599999998727
        },
        {
          "name": "D2",
          "midi": 38,
          "time": 191.99980799999676,
          "velocity": 0.7874015748031497,
          "duration": 0.07692299999999364
        },
        {
          "name": "D#2",
          "midi": 39,
          "time": 192.11519249999677,
          "velocity": 0.7874015748031497,
          "duration": 0.07692299999999364
        },
        {
          "name": "D#2",
          "midi": 39,
          "time": 192.23057699999677,
          "velocity": 0.7874015748031497,
          "duration": 0.07692299999999364
        },
        {
          "name": "D#2",
          "midi": 39,
          "time": 192.34596149999678,
          "velocity": 0.7874015748031497,
          "duration": 0.07692299999999364
        },
        {
          "name": "D#2",
          "midi": 39,
          "time": 192.46134599999678,
          "velocity": 0.7874015748031497,
          "duration": 0.07692299999999364
        },
        {
          "name": "D#2",
          "midi": 39,
          "time": 192.57673049999678,
          "velocity": 0.7874015748031497,
          "duration": 0.07692299999999364
        },
        {
          "name": "D#2",
          "midi": 39,
          "time": 192.6921149999968,
          "velocity": 0.7874015748031497,
          "duration": 0.07692299999999364
        },
        {
          "name": "D#2",
          "midi": 39,
          "time": 192.8074994999968,
          "velocity": 0.7874015748031497,
          "duration": 0.07692299999999364
        },
        {
          "name": "D2",
          "midi": 38,
          "time": 192.9228839999968,
          "velocity": 0.7874015748031497,
          "duration": 0.07692299999999364
        },
        {
          "name": "D#2",
          "midi": 39,
          "time": 193.0382684999968,
          "velocity": 0.7874015748031497,
          "duration": 0.07692299999999364
        },
        {
          "name": "D#2",
          "midi": 39,
          "time": 193.1536529999968,
          "velocity": 0.7874015748031497,
          "duration": 0.07692299999999364
        },
        {
          "name": "D#2",
          "midi": 39,
          "time": 193.2690374999968,
          "velocity": 0.7874015748031497,
          "duration": 0.07692299999999364
        },
        {
          "name": "D#2",
          "midi": 39,
          "time": 193.38442199999682,
          "velocity": 0.7874015748031497,
          "duration": 0.07692299999999364
        },
        {
          "name": "D#2",
          "midi": 39,
          "time": 193.49980649999682,
          "velocity": 0.7874015748031497,
          "duration": 0.07692299999999364
        },
        {
          "name": "D#2",
          "midi": 39,
          "time": 193.61519099999683,
          "velocity": 0.7874015748031497,
          "duration": 0.07692299999999364
        },
        {
          "name": "D#2",
          "midi": 39,
          "time": 193.73057549999683,
          "velocity": 0.7874015748031497,
          "duration": 0.07692299999999364
        },
        {
          "name": "D2",
          "midi": 38,
          "time": 193.84595999999684,
          "velocity": 0.7874015748031497,
          "duration": 0.07692299999999364
        },
        {
          "name": "D#2",
          "midi": 39,
          "time": 193.96134449999684,
          "velocity": 0.7874015748031497,
          "duration": 0.07692299999999364
        },
        {
          "name": "D#2",
          "midi": 39,
          "time": 194.07672899999685,
          "velocity": 0.7874015748031497,
          "duration": 0.07692299999999364
        },
        {
          "name": "D#2",
          "midi": 39,
          "time": 194.19211349999685,
          "velocity": 0.7874015748031497,
          "duration": 0.07692299999999364
        },
        {
          "name": "D#2",
          "midi": 39,
          "time": 194.30749799999685,
          "velocity": 0.7874015748031497,
          "duration": 0.07692299999999364
        },
        {
          "name": "D#2",
          "midi": 39,
          "time": 194.42288249999686,
          "velocity": 0.7874015748031497,
          "duration": 0.07692299999999364
        },
        {
          "name": "D#2",
          "midi": 39,
          "time": 194.53826699999686,
          "velocity": 0.7874015748031497,
          "duration": 0.07692299999999364
        },
        {
          "name": "D#2",
          "midi": 39,
          "time": 194.65365149999687,
          "velocity": 0.7874015748031497,
          "duration": 0.07692299999999364
        },
        {
          "name": "D2",
          "midi": 38,
          "time": 194.76903599999687,
          "velocity": 0.7874015748031497,
          "duration": 0.07692299999999364
        },
        {
          "name": "D#2",
          "midi": 39,
          "time": 194.88442049999688,
          "velocity": 0.7874015748031497,
          "duration": 0.07692299999999364
        },
        {
          "name": "D#2",
          "midi": 39,
          "time": 194.99980499999688,
          "velocity": 0.7874015748031497,
          "duration": 0.07692299999999364
        },
        {
          "name": "D#2",
          "midi": 39,
          "time": 195.1151894999969,
          "velocity": 0.7874015748031497,
          "duration": 0.07692299999999364
        },
        {
          "name": "D2",
          "midi": 38,
          "time": 195.2305739999969,
          "velocity": 0.7874015748031497,
          "duration": 0.07692299999999364
        },
        {
          "name": "D#2",
          "midi": 39,
          "time": 195.3459584999969,
          "velocity": 0.7874015748031497,
          "duration": 0.07692299999999364
        },
        {
          "name": "D#2",
          "midi": 39,
          "time": 195.4613429999969,
          "velocity": 0.7874015748031497,
          "duration": 0.07692299999999364
        },
        {
          "name": "D#2",
          "midi": 39,
          "time": 195.5767274999969,
          "velocity": 0.7874015748031497,
          "duration": 0.07692299999999364
        },
        {
          "name": "A#1",
          "midi": 34,
          "time": 195.6921119999969,
          "velocity": 0.7874015748031497,
          "duration": 0.15384599999998727
        },
        {
          "name": "A#1",
          "midi": 34,
          "time": 195.9228809999969,
          "velocity": 0.7874015748031497,
          "duration": 0.15384599999998727
        },
        {
          "name": "A#1",
          "midi": 34,
          "time": 196.15364999999687,
          "velocity": 0.7874015748031497,
          "duration": 0.15384599999998727
        },
        {
          "name": "A#1",
          "midi": 34,
          "time": 196.38441899999685,
          "velocity": 0.7874015748031497,
          "duration": 0.15384599999998727
        },
        {
          "name": "A#1",
          "midi": 34,
          "time": 196.61518799999683,
          "velocity": 0.7874015748031497,
          "duration": 0.15384599999998727
        },
        {
          "name": "A#1",
          "midi": 34,
          "time": 196.84595699999682,
          "velocity": 0.7874015748031497,
          "duration": 0.15384599999998727
        },
        {
          "name": "A#1",
          "midi": 34,
          "time": 197.0767259999968,
          "velocity": 0.7874015748031497,
          "duration": 0.15384599999998727
        },
        {
          "name": "A#1",
          "midi": 34,
          "time": 197.30749499999678,
          "velocity": 0.7874015748031497,
          "duration": 0.15384599999998727
        },
        {
          "name": "A1",
          "midi": 33,
          "time": 197.53826399999676,
          "velocity": 0.7874015748031497,
          "duration": 0.15384599999998727
        },
        {
          "name": "A1",
          "midi": 33,
          "time": 197.76903299999674,
          "velocity": 0.7874015748031497,
          "duration": 0.15384599999998727
        },
        {
          "name": "A1",
          "midi": 33,
          "time": 197.99980199999672,
          "velocity": 0.7874015748031497,
          "duration": 0.15384599999998727
        },
        {
          "name": "A1",
          "midi": 33,
          "time": 198.2305709999967,
          "velocity": 0.7874015748031497,
          "duration": 0.15384599999998727
        },
        {
          "name": "G#1",
          "midi": 32,
          "time": 198.46133999999668,
          "velocity": 0.7874015748031497,
          "duration": 0.15384599999998727
        },
        {
          "name": "G#1",
          "midi": 32,
          "time": 198.69210899999666,
          "velocity": 0.7874015748031497,
          "duration": 0.15384599999998727
        },
        {
          "name": "G#1",
          "midi": 32,
          "time": 198.92287799999664,
          "velocity": 0.7874015748031497,
          "duration": 0.15384599999998727
        },
        {
          "name": "G#1",
          "midi": 32,
          "time": 199.15364699999662,
          "velocity": 0.7874015748031497,
          "duration": 0.15384599999998727
        },
        {
          "name": "D2",
          "midi": 38,
          "time": 199.3844159999966,
          "velocity": 0.7874015748031497,
          "duration": 0.07692299999999364
        },
        {
          "name": "D#2",
          "midi": 39,
          "time": 199.4998004999966,
          "velocity": 0.7874015748031497,
          "duration": 0.07692299999999364
        },
        {
          "name": "D#2",
          "midi": 39,
          "time": 199.61518499999661,
          "velocity": 0.7874015748031497,
          "duration": 0.07692299999999364
        },
        {
          "name": "D#2",
          "midi": 39,
          "time": 199.73056949999662,
          "velocity": 0.7874015748031497,
          "duration": 0.07692299999999364
        },
        {
          "name": "D#2",
          "midi": 39,
          "time": 199.84595399999662,
          "velocity": 0.7874015748031497,
          "duration": 0.07692299999999364
        },
        {
          "name": "D#2",
          "midi": 39,
          "time": 199.96133849999663,
          "velocity": 0.7874015748031497,
          "duration": 0.07692299999999364
        },
        {
          "name": "D#2",
          "midi": 39,
          "time": 200.07672299999663,
          "velocity": 0.7874015748031497,
          "duration": 0.07692299999999364
        },
        {
          "name": "D#2",
          "midi": 39,
          "time": 200.19210749999664,
          "velocity": 0.7874015748031497,
          "duration": 0.07692299999999364
        },
        {
          "name": "D2",
          "midi": 38,
          "time": 200.30749199999664,
          "velocity": 0.7874015748031497,
          "duration": 0.07692299999999364
        },
        {
          "name": "D#2",
          "midi": 39,
          "time": 200.42287649999665,
          "velocity": 0.7874015748031497,
          "duration": 0.07692299999999364
        },
        {
          "name": "D#2",
          "midi": 39,
          "time": 200.53826099999665,
          "velocity": 0.7874015748031497,
          "duration": 0.07692299999999364
        },
        {
          "name": "D#2",
          "midi": 39,
          "time": 200.65364549999666,
          "velocity": 0.7874015748031497,
          "duration": 0.07692299999999364
        },
        {
          "name": "D#2",
          "midi": 39,
          "time": 200.76902999999666,
          "velocity": 0.7874015748031497,
          "duration": 0.07692299999999364
        },
        {
          "name": "D#2",
          "midi": 39,
          "time": 200.88441449999667,
          "velocity": 0.7874015748031497,
          "duration": 0.07692299999999364
        },
        {
          "name": "D#2",
          "midi": 39,
          "time": 200.99979899999667,
          "velocity": 0.7874015748031497,
          "duration": 0.07692299999999364
        },
        {
          "name": "D#2",
          "midi": 39,
          "time": 201.11518349999668,
          "velocity": 0.7874015748031497,
          "duration": 0.07692299999999364
        },
        {
          "name": "D2",
          "midi": 38,
          "time": 201.23056799999668,
          "velocity": 0.7874015748031497,
          "duration": 0.07692299999999364
        },
        {
          "name": "D#2",
          "midi": 39,
          "time": 201.34595249999668,
          "velocity": 0.7874015748031497,
          "duration": 0.07692299999999364
        },
        {
          "name": "D#2",
          "midi": 39,
          "time": 201.4613369999967,
          "velocity": 0.7874015748031497,
          "duration": 0.07692299999999364
        },
        {
          "name": "D#2",
          "midi": 39,
          "time": 201.5767214999967,
          "velocity": 0.7874015748031497,
          "duration": 0.07692299999999364
        },
        {
          "name": "D#2",
          "midi": 39,
          "time": 201.6921059999967,
          "velocity": 0.7874015748031497,
          "duration": 0.07692299999999364
        },
        {
          "name": "D#2",
          "midi": 39,
          "time": 201.8074904999967,
          "velocity": 0.7874015748031497,
          "duration": 0.07692299999999364
        },
        {
          "name": "D#2",
          "midi": 39,
          "time": 201.9228749999967,
          "velocity": 0.7874015748031497,
          "duration": 0.07692299999999364
        },
        {
          "name": "D#2",
          "midi": 39,
          "time": 202.0382594999967,
          "velocity": 0.7874015748031497,
          "duration": 0.07692299999999364
        },
        {
          "name": "D2",
          "midi": 38,
          "time": 202.15364399999672,
          "velocity": 0.7874015748031497,
          "duration": 0.07692299999999364
        },
        {
          "name": "D#2",
          "midi": 39,
          "time": 202.26902849999672,
          "velocity": 0.7874015748031497,
          "duration": 0.07692299999999364
        },
        {
          "name": "D#2",
          "midi": 39,
          "time": 202.38441299999673,
          "velocity": 0.7874015748031497,
          "duration": 0.07692299999999364
        },
        {
          "name": "D#2",
          "midi": 39,
          "time": 202.49979749999673,
          "velocity": 0.7874015748031497,
          "duration": 0.07692299999999364
        },
        {
          "name": "D2",
          "midi": 38,
          "time": 202.61518199999674,
          "velocity": 0.7874015748031497,
          "duration": 0.07692299999999364
        },
        {
          "name": "D#2",
          "midi": 39,
          "time": 202.73056649999674,
          "velocity": 0.7874015748031497,
          "duration": 0.07692299999999364
        },
        {
          "name": "D#2",
          "midi": 39,
          "time": 202.84595099999675,
          "velocity": 0.7874015748031497,
          "duration": 0.07692299999999364
        },
        {
          "name": "D#2",
          "midi": 39,
          "time": 202.96133549999675,
          "velocity": 0.7874015748031497,
          "duration": 0.07692299999999364
        },
        {
          "name": "A#1",
          "midi": 34,
          "time": 203.07671999999675,
          "velocity": 0.7874015748031497,
          "duration": 0.15384599999998727
        },
        {
          "name": "A#1",
          "midi": 34,
          "time": 203.30748899999674,
          "velocity": 0.7874015748031497,
          "duration": 0.15384599999998727
        },
        {
          "name": "A#1",
          "midi": 34,
          "time": 203.53825799999672,
          "velocity": 0.7874015748031497,
          "duration": 0.15384599999998727
        },
        {
          "name": "A#1",
          "midi": 34,
          "time": 203.7690269999967,
          "velocity": 0.7874015748031497,
          "duration": 0.15384599999998727
        },
        {
          "name": "A#1",
          "midi": 34,
          "time": 203.99979599999668,
          "velocity": 0.7874015748031497,
          "duration": 0.15384599999998727
        },
        {
          "name": "A#1",
          "midi": 34,
          "time": 204.23056499999666,
          "velocity": 0.7874015748031497,
          "duration": 0.15384599999998727
        },
        {
          "name": "A#1",
          "midi": 34,
          "time": 204.46133399999664,
          "velocity": 0.7874015748031497,
          "duration": 0.15384599999998727
        },
        {
          "name": "A#1",
          "midi": 34,
          "time": 204.69210299999662,
          "velocity": 0.7874015748031497,
          "duration": 0.15384599999998727
        },
        {
          "name": "A1",
          "midi": 33,
          "time": 204.9228719999966,
          "velocity": 0.7874015748031497,
          "duration": 0.15384599999998727
        },
        {
          "name": "A1",
          "midi": 33,
          "time": 205.15364099999658,
          "velocity": 0.7874015748031497,
          "duration": 0.15384599999998727
        },
        {
          "name": "A1",
          "midi": 33,
          "time": 205.38440999999656,
          "velocity": 0.7874015748031497,
          "duration": 0.15384599999998727
        },
        {
          "name": "A1",
          "midi": 33,
          "time": 205.61517899999654,
          "velocity": 0.7874015748031497,
          "duration": 0.15384599999998727
        },
        {
          "name": "G#1",
          "midi": 32,
          "time": 205.84594799999653,
          "velocity": 0.7874015748031497,
          "duration": 0.15384599999998727
        },
        {
          "name": "G#1",
          "midi": 32,
          "time": 206.0767169999965,
          "velocity": 0.7874015748031497,
          "duration": 0.15384599999998727
        },
        {
          "name": "G#1",
          "midi": 32,
          "time": 206.3074859999965,
          "velocity": 0.7874015748031497,
          "duration": 0.15384599999998727
        },
        {
          "name": "G#1",
          "midi": 32,
          "time": 206.53825499999647,
          "velocity": 0.7874015748031497,
          "duration": 0.15384599999998727
        },
        {
          "name": "D2",
          "midi": 38,
          "time": 206.76902399999645,
          "velocity": 0.7874015748031497,
          "duration": 0.07692299999999364
        },
        {
          "name": "D#2",
          "midi": 39,
          "time": 206.88440849999645,
          "velocity": 0.7874015748031497,
          "duration": 0.07692299999999364
        },
        {
          "name": "D#2",
          "midi": 39,
          "time": 206.99979299999646,
          "velocity": 0.7874015748031497,
          "duration": 0.07692299999999364
        },
        {
          "name": "D#2",
          "midi": 39,
          "time": 207.11517749999646,
          "velocity": 0.7874015748031497,
          "duration": 0.07692299999999364
        },
        {
          "name": "D#2",
          "midi": 39,
          "time": 207.23056199999647,
          "velocity": 0.7874015748031497,
          "duration": 0.07692299999999364
        },
        {
          "name": "D#2",
          "midi": 39,
          "time": 207.34594649999647,
          "velocity": 0.7874015748031497,
          "duration": 0.07692299999999364
        },
        {
          "name": "D#2",
          "midi": 39,
          "time": 207.46133099999648,
          "velocity": 0.7874015748031497,
          "duration": 0.07692299999999364
        },
        {
          "name": "D#2",
          "midi": 39,
          "time": 207.57671549999648,
          "velocity": 0.7874015748031497,
          "duration": 0.07692299999999364
        },
        {
          "name": "D2",
          "midi": 38,
          "time": 207.6920999999965,
          "velocity": 0.7874015748031497,
          "duration": 0.07692299999999364
        },
        {
          "name": "D#2",
          "midi": 39,
          "time": 207.8074844999965,
          "velocity": 0.7874015748031497,
          "duration": 0.07692299999999364
        },
        {
          "name": "D#2",
          "midi": 39,
          "time": 207.9228689999965,
          "velocity": 0.7874015748031497,
          "duration": 0.07692299999999364
        },
        {
          "name": "D#2",
          "midi": 39,
          "time": 208.0382534999965,
          "velocity": 0.7874015748031497,
          "duration": 0.07692299999999364
        },
        {
          "name": "D#2",
          "midi": 39,
          "time": 208.1536379999965,
          "velocity": 0.7874015748031497,
          "duration": 0.07692299999999364
        },
        {
          "name": "D#2",
          "midi": 39,
          "time": 208.2690224999965,
          "velocity": 0.7874015748031497,
          "duration": 0.07692299999999364
        },
        {
          "name": "D#2",
          "midi": 39,
          "time": 208.38440699999651,
          "velocity": 0.7874015748031497,
          "duration": 0.07692299999999364
        },
        {
          "name": "D#2",
          "midi": 39,
          "time": 208.49979149999652,
          "velocity": 0.7874015748031497,
          "duration": 0.07692299999999364
        },
        {
          "name": "D2",
          "midi": 38,
          "time": 208.61517599999652,
          "velocity": 0.7874015748031497,
          "duration": 0.07692299999999364
        },
        {
          "name": "D#2",
          "midi": 39,
          "time": 208.73056049999653,
          "velocity": 0.7874015748031497,
          "duration": 0.07692299999999364
        },
        {
          "name": "D#2",
          "midi": 39,
          "time": 208.84594499999653,
          "velocity": 0.7874015748031497,
          "duration": 0.07692299999999364
        },
        {
          "name": "D#2",
          "midi": 39,
          "time": 208.96132949999654,
          "velocity": 0.7874015748031497,
          "duration": 0.07692299999999364
        },
        {
          "name": "D#2",
          "midi": 39,
          "time": 209.07671399999654,
          "velocity": 0.7874015748031497,
          "duration": 0.07692299999999364
        },
        {
          "name": "D#2",
          "midi": 39,
          "time": 209.19209849999655,
          "velocity": 0.7874015748031497,
          "duration": 0.07692299999999364
        },
        {
          "name": "D#2",
          "midi": 39,
          "time": 209.30748299999655,
          "velocity": 0.7874015748031497,
          "duration": 0.07692299999999364
        },
        {
          "name": "D#2",
          "midi": 39,
          "time": 209.42286749999656,
          "velocity": 0.7874015748031497,
          "duration": 0.07692299999999364
        },
        {
          "name": "D2",
          "midi": 38,
          "time": 209.53825199999656,
          "velocity": 0.7874015748031497,
          "duration": 0.07692299999999364
        },
        {
          "name": "D#2",
          "midi": 39,
          "time": 209.65363649999657,
          "velocity": 0.7874015748031497,
          "duration": 0.07692299999999364
        },
        {
          "name": "D#2",
          "midi": 39,
          "time": 209.76902099999657,
          "velocity": 0.7874015748031497,
          "duration": 0.07692299999999364
        },
        {
          "name": "D#2",
          "midi": 39,
          "time": 209.88440549999657,
          "velocity": 0.7874015748031497,
          "duration": 0.07692299999999364
        },
        {
          "name": "D2",
          "midi": 38,
          "time": 209.99978999999658,
          "velocity": 0.7874015748031497,
          "duration": 0.07692299999999364
        },
        {
          "name": "D#2",
          "midi": 39,
          "time": 210.11517449999658,
          "velocity": 0.7874015748031497,
          "duration": 0.07692299999999364
        },
        {
          "name": "D#2",
          "midi": 39,
          "time": 210.2305589999966,
          "velocity": 0.7874015748031497,
          "duration": 0.07692299999999364
        },
        {
          "name": "D#2",
          "midi": 39,
          "time": 210.3459434999966,
          "velocity": 0.7874015748031497,
          "duration": 0.07692299999999364
        },
        {
          "name": "D#2",
          "midi": 39,
          "time": 210.4613279999966,
          "velocity": 0.7874015748031497,
          "duration": 1.8461519999999894
        },
        {
          "name": "D2",
          "midi": 38,
          "time": 273.2304959999966,
          "velocity": 0.7874015748031497,
          "duration": 0.07692300000002206
        },
        {
          "name": "D#2",
          "midi": 39,
          "time": 273.3458804999966,
          "velocity": 0.7874015748031497,
          "duration": 0.07692300000002206
        },
        {
          "name": "D#2",
          "midi": 39,
          "time": 273.4612649999966,
          "velocity": 0.7874015748031497,
          "duration": 0.07692300000002206
        },
        {
          "name": "D#2",
          "midi": 39,
          "time": 273.5766494999966,
          "velocity": 0.7874015748031497,
          "duration": 0.07692300000002206
        },
        {
          "name": "D#2",
          "midi": 39,
          "time": 273.6920339999966,
          "velocity": 0.7874015748031497,
          "duration": 0.07692300000002206
        },
        {
          "name": "D#2",
          "midi": 39,
          "time": 273.80741849999663,
          "velocity": 0.7874015748031497,
          "duration": 0.07692300000002206
        },
        {
          "name": "D#2",
          "midi": 39,
          "time": 273.92280299999663,
          "velocity": 0.7874015748031497,
          "duration": 0.07692300000002206
        },
        {
          "name": "D#2",
          "midi": 39,
          "time": 274.03818749999664,
          "velocity": 0.7874015748031497,
          "duration": 0.07692300000002206
        },
        {
          "name": "D2",
          "midi": 38,
          "time": 274.15357199999664,
          "velocity": 0.7874015748031497,
          "duration": 0.07692300000002206
        },
        {
          "name": "D#2",
          "midi": 39,
          "time": 274.26895649999665,
          "velocity": 0.7874015748031497,
          "duration": 0.07692300000002206
        },
        {
          "name": "D#2",
          "midi": 39,
          "time": 274.38434099999665,
          "velocity": 0.7874015748031497,
          "duration": 0.07692300000002206
        },
        {
          "name": "D#2",
          "midi": 39,
          "time": 274.49972549999666,
          "velocity": 0.7874015748031497,
          "duration": 0.07692300000002206
        },
        {
          "name": "D#2",
          "midi": 39,
          "time": 274.61510999999666,
          "velocity": 0.7874015748031497,
          "duration": 0.07692300000002206
        },
        {
          "name": "D#2",
          "midi": 39,
          "time": 274.73049449999667,
          "velocity": 0.7874015748031497,
          "duration": 0.07692300000002206
        },
        {
          "name": "D#2",
          "midi": 39,
          "time": 274.84587899999667,
          "velocity": 0.7874015748031497,
          "duration": 0.07692300000002206
        },
        {
          "name": "D#2",
          "midi": 39,
          "time": 274.9612634999967,
          "velocity": 0.7874015748031497,
          "duration": 0.07692300000002206
        },
        {
          "name": "D2",
          "midi": 38,
          "time": 275.0766479999967,
          "velocity": 0.7874015748031497,
          "duration": 0.07692300000002206
        },
        {
          "name": "D#2",
          "midi": 39,
          "time": 275.1920324999967,
          "velocity": 0.7874015748031497,
          "duration": 0.07692300000002206
        },
        {
          "name": "D#2",
          "midi": 39,
          "time": 275.3074169999967,
          "velocity": 0.7874015748031497,
          "duration": 0.07692300000002206
        },
        {
          "name": "D#2",
          "midi": 39,
          "time": 275.4228014999967,
          "velocity": 0.7874015748031497,
          "duration": 0.07692300000002206
        },
        {
          "name": "D#2",
          "midi": 39,
          "time": 275.5381859999967,
          "velocity": 0.7874015748031497,
          "duration": 0.07692300000002206
        },
        {
          "name": "D#2",
          "midi": 39,
          "time": 275.6535704999967,
          "velocity": 0.7874015748031497,
          "duration": 0.07692300000002206
        },
        {
          "name": "D#2",
          "midi": 39,
          "time": 275.7689549999967,
          "velocity": 0.7874015748031497,
          "duration": 0.07692300000002206
        },
        {
          "name": "D#2",
          "midi": 39,
          "time": 275.8843394999967,
          "velocity": 0.7874015748031497,
          "duration": 0.07692300000002206
        },
        {
          "name": "D2",
          "midi": 38,
          "time": 275.9997239999967,
          "velocity": 0.7874015748031497,
          "duration": 0.07692300000002206
        },
        {
          "name": "D#2",
          "midi": 39,
          "time": 276.1151084999967,
          "velocity": 0.7874015748031497,
          "duration": 0.07692300000002206
        },
        {
          "name": "D#2",
          "midi": 39,
          "time": 276.2304929999967,
          "velocity": 0.7874015748031497,
          "duration": 0.07692300000002206
        },
        {
          "name": "D#2",
          "midi": 39,
          "time": 276.34587749999673,
          "velocity": 0.7874015748031497,
          "duration": 0.07692300000002206
        },
        {
          "name": "D2",
          "midi": 38,
          "time": 276.46126199999674,
          "velocity": 0.7874015748031497,
          "duration": 0.07692300000002206
        },
        {
          "name": "D#2",
          "midi": 39,
          "time": 276.57664649999674,
          "velocity": 0.7874015748031497,
          "duration": 0.07692300000002206
        },
        {
          "name": "D#2",
          "midi": 39,
          "time": 276.69203099999675,
          "velocity": 0.7874015748031497,
          "duration": 0.07692300000002206
        },
        {
          "name": "D#2",
          "midi": 39,
          "time": 276.80741549999675,
          "velocity": 0.7874015748031497,
          "duration": 0.07692300000002206
        },
        {
          "name": "D2",
          "midi": 38,
          "time": 276.92279999999676,
          "velocity": 0.7874015748031497,
          "duration": 0.07692300000002206
        },
        {
          "name": "D#2",
          "midi": 39,
          "time": 277.03818449999676,
          "velocity": 0.7874015748031497,
          "duration": 0.07692300000002206
        },
        {
          "name": "D#2",
          "midi": 39,
          "time": 277.15356899999676,
          "velocity": 0.7874015748031497,
          "duration": 0.07692300000002206
        },
        {
          "name": "D#2",
          "midi": 39,
          "time": 277.26895349999677,
          "velocity": 0.7874015748031497,
          "duration": 0.07692300000002206
        },
        {
          "name": "D#2",
          "midi": 39,
          "time": 277.3843379999968,
          "velocity": 0.7874015748031497,
          "duration": 0.07692300000002206
        },
        {
          "name": "D#2",
          "midi": 39,
          "time": 277.4997224999968,
          "velocity": 0.7874015748031497,
          "duration": 0.07692300000002206
        },
        {
          "name": "D#2",
          "midi": 39,
          "time": 277.6151069999968,
          "velocity": 0.7874015748031497,
          "duration": 0.07692300000002206
        },
        {
          "name": "D#2",
          "midi": 39,
          "time": 277.7304914999968,
          "velocity": 0.7874015748031497,
          "duration": 0.07692300000002206
        },
        {
          "name": "D2",
          "midi": 38,
          "time": 277.8458759999968,
          "velocity": 0.7874015748031497,
          "duration": 0.07692300000002206
        },
        {
          "name": "D#2",
          "midi": 39,
          "time": 277.9612604999968,
          "velocity": 0.7874015748031497,
          "duration": 0.07692300000002206
        },
        {
          "name": "D#2",
          "midi": 39,
          "time": 278.0766449999968,
          "velocity": 0.7874015748031497,
          "duration": 0.07692300000002206
        },
        {
          "name": "D#2",
          "midi": 39,
          "time": 278.1920294999968,
          "velocity": 0.7874015748031497,
          "duration": 0.07692300000002206
        },
        {
          "name": "D#2",
          "midi": 39,
          "time": 278.3074139999968,
          "velocity": 0.7874015748031497,
          "duration": 0.07692300000002206
        },
        {
          "name": "D#2",
          "midi": 39,
          "time": 278.4227984999968,
          "velocity": 0.7874015748031497,
          "duration": 0.07692300000002206
        },
        {
          "name": "D#2",
          "midi": 39,
          "time": 278.5381829999968,
          "velocity": 0.7874015748031497,
          "duration": 0.07692300000002206
        },
        {
          "name": "D#2",
          "midi": 39,
          "time": 278.6535674999968,
          "velocity": 0.7874015748031497,
          "duration": 0.07692300000002206
        },
        {
          "name": "D2",
          "midi": 38,
          "time": 278.76895199999683,
          "velocity": 0.7874015748031497,
          "duration": 0.07692300000002206
        },
        {
          "name": "D#2",
          "midi": 39,
          "time": 278.88433649999683,
          "velocity": 0.7874015748031497,
          "duration": 0.07692300000002206
        },
        {
          "name": "D#2",
          "midi": 39,
          "time": 278.99972099999684,
          "velocity": 0.7874015748031497,
          "duration": 0.07692300000002206
        },
        {
          "name": "D#2",
          "midi": 39,
          "time": 279.11510549999684,
          "velocity": 0.7874015748031497,
          "duration": 0.07692300000002206
        },
        {
          "name": "D#2",
          "midi": 39,
          "time": 279.23048999999685,
          "velocity": 0.7874015748031497,
          "duration": 0.07692300000002206
        },
        {
          "name": "D#2",
          "midi": 39,
          "time": 279.34587449999685,
          "velocity": 0.7874015748031497,
          "duration": 0.07692300000002206
        },
        {
          "name": "D#2",
          "midi": 39,
          "time": 279.46125899999686,
          "velocity": 0.7874015748031497,
          "duration": 0.07692300000002206
        },
        {
          "name": "D#2",
          "midi": 39,
          "time": 279.57664349999686,
          "velocity": 0.7874015748031497,
          "duration": 0.07692300000002206
        },
        {
          "name": "D2",
          "midi": 38,
          "time": 279.69202799999687,
          "velocity": 0.7874015748031497,
          "duration": 0.07692300000002206
        },
        {
          "name": "D#2",
          "midi": 39,
          "time": 279.8074124999969,
          "velocity": 0.7874015748031497,
          "duration": 0.07692300000002206
        },
        {
          "name": "D#2",
          "midi": 39,
          "time": 279.9227969999969,
          "velocity": 0.7874015748031497,
          "duration": 0.07692300000002206
        },
        {
          "name": "D#2",
          "midi": 39,
          "time": 280.0381814999969,
          "velocity": 0.7874015748031497,
          "duration": 0.07692300000002206
        },
        {
          "name": "D2",
          "midi": 38,
          "time": 280.1535659999969,
          "velocity": 0.7874015748031497,
          "duration": 0.07692300000002206
        },
        {
          "name": "D#2",
          "midi": 39,
          "time": 280.2689504999969,
          "velocity": 0.7874015748031497,
          "duration": 0.07692300000002206
        },
        {
          "name": "D#2",
          "midi": 39,
          "time": 280.3843349999969,
          "velocity": 0.7874015748031497,
          "duration": 0.07692300000002206
        },
        {
          "name": "D#2",
          "midi": 39,
          "time": 280.4997194999969,
          "velocity": 0.7874015748031497,
          "duration": 0.07692300000002206
        },
        {
          "name": "D2",
          "midi": 38,
          "time": 280.6151039999969,
          "velocity": 0.7874015748031497,
          "duration": 0.07692300000002206
        },
        {
          "name": "D#2",
          "midi": 39,
          "time": 280.7304884999969,
          "velocity": 0.7874015748031497,
          "duration": 0.07692300000002206
        },
        {
          "name": "D#2",
          "midi": 39,
          "time": 280.8458729999969,
          "velocity": 0.7874015748031497,
          "duration": 0.07692300000002206
        },
        {
          "name": "D#2",
          "midi": 39,
          "time": 280.9612574999969,
          "velocity": 0.7874015748031497,
          "duration": 0.07692300000002206
        },
        {
          "name": "D#2",
          "midi": 39,
          "time": 281.0766419999969,
          "velocity": 0.7874015748031497,
          "duration": 0.07692300000002206
        },
        {
          "name": "D#2",
          "midi": 39,
          "time": 281.1920264999969,
          "velocity": 0.7874015748031497,
          "duration": 0.07692300000002206
        },
        {
          "name": "D#2",
          "midi": 39,
          "time": 281.30741099999693,
          "velocity": 0.7874015748031497,
          "duration": 0.07692300000002206
        },
        {
          "name": "D#2",
          "midi": 39,
          "time": 281.42279549999694,
          "velocity": 0.7874015748031497,
          "duration": 0.07692300000002206
        },
        {
          "name": "D2",
          "midi": 38,
          "time": 281.53817999999694,
          "velocity": 0.7874015748031497,
          "duration": 0.07692300000002206
        },
        {
          "name": "D#2",
          "midi": 39,
          "time": 281.65356449999695,
          "velocity": 0.7874015748031497,
          "duration": 0.07692300000002206
        },
        {
          "name": "D#2",
          "midi": 39,
          "time": 281.76894899999695,
          "velocity": 0.7874015748031497,
          "duration": 0.07692300000002206
        },
        {
          "name": "D#2",
          "midi": 39,
          "time": 281.88433349999696,
          "velocity": 0.7874015748031497,
          "duration": 0.07692300000002206
        },
        {
          "name": "D#2",
          "midi": 39,
          "time": 281.99971799999696,
          "velocity": 0.7874015748031497,
          "duration": 0.07692300000002206
        },
        {
          "name": "D#2",
          "midi": 39,
          "time": 282.11510249999696,
          "velocity": 0.7874015748031497,
          "duration": 0.07692300000002206
        },
        {
          "name": "D#2",
          "midi": 39,
          "time": 282.23048699999697,
          "velocity": 0.7874015748031497,
          "duration": 0.07692300000002206
        },
        {
          "name": "D#2",
          "midi": 39,
          "time": 282.345871499997,
          "velocity": 0.7874015748031497,
          "duration": 0.07692300000002206
        },
        {
          "name": "D2",
          "midi": 38,
          "time": 282.461255999997,
          "velocity": 0.7874015748031497,
          "duration": 0.07692300000002206
        },
        {
          "name": "D#2",
          "midi": 39,
          "time": 282.576640499997,
          "velocity": 0.7874015748031497,
          "duration": 0.07692300000002206
        },
        {
          "name": "D#2",
          "midi": 39,
          "time": 282.692024999997,
          "velocity": 0.7874015748031497,
          "duration": 0.07692300000002206
        },
        {
          "name": "D#2",
          "midi": 39,
          "time": 282.807409499997,
          "velocity": 0.7874015748031497,
          "duration": 0.07692300000002206
        },
        {
          "name": "D#2",
          "midi": 39,
          "time": 282.922793999997,
          "velocity": 0.7874015748031497,
          "duration": 0.07692300000002206
        },
        {
          "name": "D#2",
          "midi": 39,
          "time": 283.038178499997,
          "velocity": 0.7874015748031497,
          "duration": 0.07692300000002206
        },
        {
          "name": "D#2",
          "midi": 39,
          "time": 283.153562999997,
          "velocity": 0.7874015748031497,
          "duration": 0.07692300000002206
        },
        {
          "name": "D#2",
          "midi": 39,
          "time": 283.268947499997,
          "velocity": 0.7874015748031497,
          "duration": 0.07692300000002206
        },
        {
          "name": "D2",
          "midi": 38,
          "time": 283.384331999997,
          "velocity": 0.7874015748031497,
          "duration": 0.07692300000002206
        },
        {
          "name": "D#2",
          "midi": 39,
          "time": 283.499716499997,
          "velocity": 0.7874015748031497,
          "duration": 0.07692300000002206
        },
        {
          "name": "D#2",
          "midi": 39,
          "time": 283.615100999997,
          "velocity": 0.7874015748031497,
          "duration": 0.07692300000002206
        },
        {
          "name": "D#2",
          "midi": 39,
          "time": 283.73048549999703,
          "velocity": 0.7874015748031497,
          "duration": 0.07692300000002206
        },
        {
          "name": "D2",
          "midi": 38,
          "time": 283.84586999999703,
          "velocity": 0.7874015748031497,
          "duration": 0.07692300000002206
        },
        {
          "name": "D#2",
          "midi": 39,
          "time": 283.96125449999704,
          "velocity": 0.7874015748031497,
          "duration": 0.07692300000002206
        },
        {
          "name": "D#2",
          "midi": 39,
          "time": 284.07663899999704,
          "velocity": 0.7874015748031497,
          "duration": 0.07692300000002206
        },
        {
          "name": "D#2",
          "midi": 39,
          "time": 284.19202349999705,
          "velocity": 0.7874015748031497,
          "duration": 0.07692300000002206
        },
        {
          "name": "D2",
          "midi": 38,
          "time": 284.30740799999705,
          "velocity": 0.7874015748031497,
          "duration": 0.07692300000002206
        },
        {
          "name": "D#2",
          "midi": 39,
          "time": 284.42279249999706,
          "velocity": 0.7874015748031497,
          "duration": 0.07692300000002206
        },
        {
          "name": "D#2",
          "midi": 39,
          "time": 284.53817699999706,
          "velocity": 0.7874015748031497,
          "duration": 0.07692300000002206
        },
        {
          "name": "D#2",
          "midi": 39,
          "time": 284.65356149999707,
          "velocity": 0.7874015748031497,
          "duration": 0.07692300000002206
        },
        {
          "name": "D#2",
          "midi": 39,
          "time": 284.7689459999971,
          "velocity": 0.7874015748031497,
          "duration": 0.07692300000002206
        },
        {
          "name": "D#2",
          "midi": 39,
          "time": 284.8843304999971,
          "velocity": 0.7874015748031497,
          "duration": 0.07692300000002206
        },
        {
          "name": "D#2",
          "midi": 39,
          "time": 284.9997149999971,
          "velocity": 0.7874015748031497,
          "duration": 0.07692300000002206
        },
        {
          "name": "D#2",
          "midi": 39,
          "time": 285.1150994999971,
          "velocity": 0.7874015748031497,
          "duration": 0.07692300000002206
        },
        {
          "name": "D2",
          "midi": 38,
          "time": 285.2304839999971,
          "velocity": 0.7874015748031497,
          "duration": 0.07692300000002206
        },
        {
          "name": "D#2",
          "midi": 39,
          "time": 285.3458684999971,
          "velocity": 0.7874015748031497,
          "duration": 0.07692300000002206
        },
        {
          "name": "D#2",
          "midi": 39,
          "time": 285.4612529999971,
          "velocity": 0.7874015748031497,
          "duration": 0.07692300000002206
        },
        {
          "name": "D#2",
          "midi": 39,
          "time": 285.5766374999971,
          "velocity": 0.7874015748031497,
          "duration": 0.07692300000002206
        },
        {
          "name": "D#2",
          "midi": 39,
          "time": 285.6920219999971,
          "velocity": 0.7874015748031497,
          "duration": 0.07692300000002206
        },
        {
          "name": "D#2",
          "midi": 39,
          "time": 285.8074064999971,
          "velocity": 0.7874015748031497,
          "duration": 0.07692300000002206
        },
        {
          "name": "D#2",
          "midi": 39,
          "time": 285.9227909999971,
          "velocity": 0.7874015748031497,
          "duration": 0.07692300000002206
        },
        {
          "name": "D#2",
          "midi": 39,
          "time": 286.0381754999971,
          "velocity": 0.7874015748031497,
          "duration": 0.07692300000002206
        },
        {
          "name": "D2",
          "midi": 38,
          "time": 286.1535599999971,
          "velocity": 0.7874015748031497,
          "duration": 0.07692300000002206
        },
        {
          "name": "D#2",
          "midi": 39,
          "time": 286.26894449999713,
          "velocity": 0.7874015748031497,
          "duration": 0.07692300000002206
        },
        {
          "name": "D#2",
          "midi": 39,
          "time": 286.38432899999714,
          "velocity": 0.7874015748031497,
          "duration": 0.07692300000002206
        },
        {
          "name": "D#2",
          "midi": 39,
          "time": 286.49971349999714,
          "velocity": 0.7874015748031497,
          "duration": 0.07692300000002206
        },
        {
          "name": "D#2",
          "midi": 39,
          "time": 286.61509799999715,
          "velocity": 0.7874015748031497,
          "duration": 0.07692300000002206
        },
        {
          "name": "D#2",
          "midi": 39,
          "time": 286.73048249999715,
          "velocity": 0.7874015748031497,
          "duration": 0.07692300000002206
        },
        {
          "name": "D#2",
          "midi": 39,
          "time": 286.84586699999716,
          "velocity": 0.7874015748031497,
          "duration": 0.07692300000002206
        },
        {
          "name": "D#2",
          "midi": 39,
          "time": 286.96125149999716,
          "velocity": 0.7874015748031497,
          "duration": 0.07692300000002206
        },
        {
          "name": "D2",
          "midi": 38,
          "time": 287.07663599999717,
          "velocity": 0.7874015748031497,
          "duration": 0.07692300000002206
        },
        {
          "name": "D#2",
          "midi": 39,
          "time": 287.19202049999717,
          "velocity": 0.7874015748031497,
          "duration": 0.07692300000002206
        },
        {
          "name": "D#2",
          "midi": 39,
          "time": 287.3074049999972,
          "velocity": 0.7874015748031497,
          "duration": 0.07692300000002206
        },
        {
          "name": "D#2",
          "midi": 39,
          "time": 287.4227894999972,
          "velocity": 0.7874015748031497,
          "duration": 0.07692300000002206
        },
        {
          "name": "D2",
          "midi": 38,
          "time": 287.5381739999972,
          "velocity": 0.7874015748031497,
          "duration": 0.07692300000002206
        },
        {
          "name": "D#2",
          "midi": 39,
          "time": 287.6535584999972,
          "velocity": 0.7874015748031497,
          "duration": 0.07692300000002206
        },
        {
          "name": "D#2",
          "midi": 39,
          "time": 287.7689429999972,
          "velocity": 0.7874015748031497,
          "duration": 0.07692300000002206
        },
        {
          "name": "D#2",
          "midi": 39,
          "time": 287.8843274999972,
          "velocity": 0.7874015748031497,
          "duration": 0.07692300000002206
        },
        {
          "name": "D2",
          "midi": 38,
          "time": 287.9997119999972,
          "velocity": 0.7874015748031497,
          "duration": 0.07692300000002206
        },
        {
          "name": "D#2",
          "midi": 39,
          "time": 288.1150964999972,
          "velocity": 0.7874015748031497,
          "duration": 0.07692300000002206
        },
        {
          "name": "D#2",
          "midi": 39,
          "time": 288.2304809999972,
          "velocity": 0.7874015748031497,
          "duration": 0.07692300000002206
        },
        {
          "name": "D#2",
          "midi": 39,
          "time": 288.3458654999972,
          "velocity": 0.7874015748031497,
          "duration": 0.07692300000002206
        },
        {
          "name": "D#2",
          "midi": 39,
          "time": 288.4612499999972,
          "velocity": 0.7874015748031497,
          "duration": 0.07692300000002206
        },
        {
          "name": "D#2",
          "midi": 39,
          "time": 288.5766344999972,
          "velocity": 0.7874015748031497,
          "duration": 0.07692300000002206
        },
        {
          "name": "D#2",
          "midi": 39,
          "time": 288.69201899999723,
          "velocity": 0.7874015748031497,
          "duration": 0.07692300000002206
        },
        {
          "name": "D#2",
          "midi": 39,
          "time": 288.80740349999724,
          "velocity": 0.7874015748031497,
          "duration": 0.07692300000002206
        },
        {
          "name": "D2",
          "midi": 38,
          "time": 288.92278799999724,
          "velocity": 0.7874015748031497,
          "duration": 0.07692300000002206
        },
        {
          "name": "D#2",
          "midi": 39,
          "time": 289.03817249999724,
          "velocity": 0.7874015748031497,
          "duration": 0.07692300000002206
        },
        {
          "name": "D#2",
          "midi": 39,
          "time": 289.15355699999725,
          "velocity": 0.7874015748031497,
          "duration": 0.07692300000002206
        },
        {
          "name": "D#2",
          "midi": 39,
          "time": 289.26894149999725,
          "velocity": 0.7874015748031497,
          "duration": 0.07692300000002206
        },
        {
          "name": "D#2",
          "midi": 39,
          "time": 289.38432599999726,
          "velocity": 0.7874015748031497,
          "duration": 0.07692300000002206
        },
        {
          "name": "D#2",
          "midi": 39,
          "time": 289.49971049999726,
          "velocity": 0.7874015748031497,
          "duration": 0.07692300000002206
        },
        {
          "name": "D#2",
          "midi": 39,
          "time": 289.61509499999727,
          "velocity": 0.7874015748031497,
          "duration": 0.07692300000002206
        },
        {
          "name": "D#2",
          "midi": 39,
          "time": 289.7304794999973,
          "velocity": 0.7874015748031497,
          "duration": 0.07692300000002206
        },
        {
          "name": "D2",
          "midi": 38,
          "time": 289.8458639999973,
          "velocity": 0.7874015748031497,
          "duration": 0.07692300000002206
        },
        {
          "name": "D#2",
          "midi": 39,
          "time": 289.9612484999973,
          "velocity": 0.7874015748031497,
          "duration": 0.07692300000002206
        },
        {
          "name": "D#2",
          "midi": 39,
          "time": 290.0766329999973,
          "velocity": 0.7874015748031497,
          "duration": 0.07692300000002206
        },
        {
          "name": "D#2",
          "midi": 39,
          "time": 290.1920174999973,
          "velocity": 0.7874015748031497,
          "duration": 0.07692300000002206
        },
        {
          "name": "D#2",
          "midi": 39,
          "time": 290.3074019999973,
          "velocity": 0.7874015748031497,
          "duration": 0.07692300000002206
        },
        {
          "name": "D#2",
          "midi": 39,
          "time": 290.4227864999973,
          "velocity": 0.7874015748031497,
          "duration": 0.07692300000002206
        },
        {
          "name": "D#2",
          "midi": 39,
          "time": 290.5381709999973,
          "velocity": 0.7874015748031497,
          "duration": 0.07692300000002206
        },
        {
          "name": "D#2",
          "midi": 39,
          "time": 290.6535554999973,
          "velocity": 0.7874015748031497,
          "duration": 0.07692300000002206
        },
        {
          "name": "D2",
          "midi": 38,
          "time": 290.7689399999973,
          "velocity": 0.7874015748031497,
          "duration": 0.07692300000002206
        },
        {
          "name": "D#2",
          "midi": 39,
          "time": 290.8843244999973,
          "velocity": 0.7874015748031497,
          "duration": 0.07692300000002206
        },
        {
          "name": "D#2",
          "midi": 39,
          "time": 290.9997089999973,
          "velocity": 0.7874015748031497,
          "duration": 0.07692300000002206
        },
        {
          "name": "D#2",
          "midi": 39,
          "time": 291.11509349999733,
          "velocity": 0.7874015748031497,
          "duration": 0.07692300000002206
        },
        {
          "name": "D2",
          "midi": 38,
          "time": 291.23047799999733,
          "velocity": 0.7874015748031497,
          "duration": 0.07692300000002206
        },
        {
          "name": "D#2",
          "midi": 39,
          "time": 291.34586249999734,
          "velocity": 0.7874015748031497,
          "duration": 0.07692300000002206
        },
        {
          "name": "D#2",
          "midi": 39,
          "time": 291.46124699999734,
          "velocity": 0.7874015748031497,
          "duration": 0.07692300000002206
        },
        {
          "name": "D#2",
          "midi": 39,
          "time": 291.57663149999735,
          "velocity": 0.7874015748031497,
          "duration": 0.07692300000002206
        },
        {
          "name": "D2",
          "midi": 38,
          "time": 291.69201599999735,
          "velocity": 0.7874015748031497,
          "duration": 0.07692300000002206
        },
        {
          "name": "D#2",
          "midi": 39,
          "time": 291.80740049999736,
          "velocity": 0.7874015748031497,
          "duration": 0.07692300000002206
        },
        {
          "name": "D#2",
          "midi": 39,
          "time": 291.92278499999736,
          "velocity": 0.7874015748031497,
          "duration": 0.07692300000002206
        },
        {
          "name": "D#2",
          "midi": 39,
          "time": 292.03816949999737,
          "velocity": 0.7874015748031497,
          "duration": 0.07692300000002206
        },
        {
          "name": "D#2",
          "midi": 39,
          "time": 292.15355399999737,
          "velocity": 0.7874015748031497,
          "duration": 0.07692300000002206
        },
        {
          "name": "D#2",
          "midi": 39,
          "time": 292.2689384999974,
          "velocity": 0.7874015748031497,
          "duration": 0.07692300000002206
        },
        {
          "name": "D#2",
          "midi": 39,
          "time": 292.3843229999974,
          "velocity": 0.7874015748031497,
          "duration": 0.07692300000002206
        },
        {
          "name": "D#2",
          "midi": 39,
          "time": 292.4997074999974,
          "velocity": 0.7874015748031497,
          "duration": 0.07692300000002206
        },
        {
          "name": "D2",
          "midi": 38,
          "time": 292.6150919999974,
          "velocity": 0.7874015748031497,
          "duration": 0.07692300000002206
        },
        {
          "name": "D#2",
          "midi": 39,
          "time": 292.7304764999974,
          "velocity": 0.7874015748031497,
          "duration": 0.07692300000002206
        },
        {
          "name": "D#2",
          "midi": 39,
          "time": 292.8458609999974,
          "velocity": 0.7874015748031497,
          "duration": 0.07692300000002206
        },
        {
          "name": "D#2",
          "midi": 39,
          "time": 292.9612454999974,
          "velocity": 0.7874015748031497,
          "duration": 0.07692300000002206
        },
        {
          "name": "D#2",
          "midi": 39,
          "time": 293.0766299999974,
          "velocity": 0.7874015748031497,
          "duration": 0.07692300000002206
        },
        {
          "name": "D#2",
          "midi": 39,
          "time": 293.1920144999974,
          "velocity": 0.7874015748031497,
          "duration": 0.07692300000002206
        },
        {
          "name": "D#2",
          "midi": 39,
          "time": 293.3073989999974,
          "velocity": 0.7874015748031497,
          "duration": 0.07692300000002206
        },
        {
          "name": "D#2",
          "midi": 39,
          "time": 293.4227834999974,
          "velocity": 0.7874015748031497,
          "duration": 0.07692300000002206
        },
        {
          "name": "D2",
          "midi": 38,
          "time": 293.5381679999974,
          "velocity": 0.7874015748031497,
          "duration": 0.07692300000002206
        },
        {
          "name": "D#2",
          "midi": 39,
          "time": 293.65355249999743,
          "velocity": 0.7874015748031497,
          "duration": 0.07692300000002206
        },
        {
          "name": "D#2",
          "midi": 39,
          "time": 293.76893699999744,
          "velocity": 0.7874015748031497,
          "duration": 0.07692300000002206
        },
        {
          "name": "D#2",
          "midi": 39,
          "time": 293.88432149999744,
          "velocity": 0.7874015748031497,
          "duration": 0.07692300000002206
        },
        {
          "name": "D#2",
          "midi": 39,
          "time": 293.99970599999745,
          "velocity": 0.7874015748031497,
          "duration": 0.07692300000002206
        },
        {
          "name": "D#2",
          "midi": 39,
          "time": 294.11509049999745,
          "velocity": 0.7874015748031497,
          "duration": 0.07692300000002206
        },
        {
          "name": "D#2",
          "midi": 39,
          "time": 294.23047499999745,
          "velocity": 0.7874015748031497,
          "duration": 0.07692300000002206
        },
        {
          "name": "D#2",
          "midi": 39,
          "time": 294.34585949999746,
          "velocity": 0.7874015748031497,
          "duration": 0.07692300000002206
        },
        {
          "name": "D2",
          "midi": 38,
          "time": 294.46124399999746,
          "velocity": 0.7874015748031497,
          "duration": 0.07692300000002206
        },
        {
          "name": "D#2",
          "midi": 39,
          "time": 294.57662849999747,
          "velocity": 0.7874015748031497,
          "duration": 0.07692300000002206
        },
        {
          "name": "D#2",
          "midi": 39,
          "time": 294.6920129999975,
          "velocity": 0.7874015748031497,
          "duration": 0.07692300000002206
        },
        {
          "name": "D#2",
          "midi": 39,
          "time": 294.8073974999975,
          "velocity": 0.7874015748031497,
          "duration": 0.07692300000002206
        },
        {
          "name": "D2",
          "midi": 38,
          "time": 294.9227819999975,
          "velocity": 0.7874015748031497,
          "duration": 0.07692300000002206
        },
        {
          "name": "D#2",
          "midi": 39,
          "time": 295.0381664999975,
          "velocity": 0.7874015748031497,
          "duration": 0.07692300000002206
        },
        {
          "name": "D#2",
          "midi": 39,
          "time": 295.1535509999975,
          "velocity": 0.7874015748031497,
          "duration": 0.07692300000002206
        },
        {
          "name": "D#2",
          "midi": 39,
          "time": 295.2689354999975,
          "velocity": 0.7874015748031497,
          "duration": 0.07692300000002206
        },
        {
          "name": "D2",
          "midi": 38,
          "time": 295.3843199999975,
          "velocity": 0.7874015748031497,
          "duration": 0.07692300000002206
        },
        {
          "name": "D#2",
          "midi": 39,
          "time": 295.4997044999975,
          "velocity": 0.7874015748031497,
          "duration": 0.07692300000002206
        },
        {
          "name": "D#2",
          "midi": 39,
          "time": 295.6150889999975,
          "velocity": 0.7874015748031497,
          "duration": 0.07692300000002206
        },
        {
          "name": "D#2",
          "midi": 39,
          "time": 295.7304734999975,
          "velocity": 0.7874015748031497,
          "duration": 0.07692300000002206
        },
        {
          "name": "D#2",
          "midi": 39,
          "time": 295.8458579999975,
          "velocity": 0.7874015748031497,
          "duration": 0.07692300000002206
        },
        {
          "name": "D#2",
          "midi": 39,
          "time": 295.9612424999975,
          "velocity": 0.7874015748031497,
          "duration": 0.07692300000002206
        },
        {
          "name": "D#2",
          "midi": 39,
          "time": 296.07662699999753,
          "velocity": 0.7874015748031497,
          "duration": 0.07692300000002206
        },
        {
          "name": "D#2",
          "midi": 39,
          "time": 296.19201149999753,
          "velocity": 0.7874015748031497,
          "duration": 0.07692300000002206
        },
        {
          "name": "D2",
          "midi": 38,
          "time": 296.30739599999754,
          "velocity": 0.7874015748031497,
          "duration": 0.07692300000002206
        },
        {
          "name": "D#2",
          "midi": 39,
          "time": 296.42278049999754,
          "velocity": 0.7874015748031497,
          "duration": 0.07692300000002206
        },
        {
          "name": "D#2",
          "midi": 39,
          "time": 296.53816499999755,
          "velocity": 0.7874015748031497,
          "duration": 0.07692300000002206
        },
        {
          "name": "D#2",
          "midi": 39,
          "time": 296.65354949999755,
          "velocity": 0.7874015748031497,
          "duration": 0.07692300000002206
        },
        {
          "name": "D#2",
          "midi": 39,
          "time": 296.76893399999756,
          "velocity": 0.7874015748031497,
          "duration": 0.07692300000002206
        },
        {
          "name": "D#2",
          "midi": 39,
          "time": 296.88431849999756,
          "velocity": 0.7874015748031497,
          "duration": 0.07692300000002206
        },
        {
          "name": "D#2",
          "midi": 39,
          "time": 296.99970299999757,
          "velocity": 0.7874015748031497,
          "duration": 0.07692300000002206
        },
        {
          "name": "D#2",
          "midi": 39,
          "time": 297.11508749999757,
          "velocity": 0.7874015748031497,
          "duration": 0.07692300000002206
        },
        {
          "name": "D2",
          "midi": 38,
          "time": 297.2304719999976,
          "velocity": 0.7874015748031497,
          "duration": 0.07692300000002206
        },
        {
          "name": "D#2",
          "midi": 39,
          "time": 297.3458564999976,
          "velocity": 0.7874015748031497,
          "duration": 0.07692300000002206
        },
        {
          "name": "D#2",
          "midi": 39,
          "time": 297.4612409999976,
          "velocity": 0.7874015748031497,
          "duration": 0.07692300000002206
        },
        {
          "name": "D#2",
          "midi": 39,
          "time": 297.5766254999976,
          "velocity": 0.7874015748031497,
          "duration": 0.07692300000002206
        },
        {
          "name": "D#2",
          "midi": 39,
          "time": 297.6920099999976,
          "velocity": 0.7874015748031497,
          "duration": 0.07692300000002206
        },
        {
          "name": "D#2",
          "midi": 39,
          "time": 297.8073944999976,
          "velocity": 0.7874015748031497,
          "duration": 0.07692300000002206
        },
        {
          "name": "D#2",
          "midi": 39,
          "time": 297.9227789999976,
          "velocity": 0.7874015748031497,
          "duration": 0.07692300000002206
        },
        {
          "name": "D#2",
          "midi": 39,
          "time": 298.0381634999976,
          "velocity": 0.7874015748031497,
          "duration": 0.07692300000002206
        },
        {
          "name": "D2",
          "midi": 38,
          "time": 298.1535479999976,
          "velocity": 0.7874015748031497,
          "duration": 0.07692300000002206
        },
        {
          "name": "D#2",
          "midi": 39,
          "time": 298.2689324999976,
          "velocity": 0.7874015748031497,
          "duration": 0.07692300000002206
        },
        {
          "name": "D#2",
          "midi": 39,
          "time": 298.3843169999976,
          "velocity": 0.7874015748031497,
          "duration": 0.07692300000002206
        },
        {
          "name": "D#2",
          "midi": 39,
          "time": 298.4997014999976,
          "velocity": 0.7874015748031497,
          "duration": 0.07692300000002206
        },
        {
          "name": "D2",
          "midi": 38,
          "time": 298.61508599999763,
          "velocity": 0.7874015748031497,
          "duration": 0.07692300000002206
        },
        {
          "name": "D#2",
          "midi": 39,
          "time": 298.73047049999764,
          "velocity": 0.7874015748031497,
          "duration": 0.07692300000002206
        },
        {
          "name": "D#2",
          "midi": 39,
          "time": 298.84585499999764,
          "velocity": 0.7874015748031497,
          "duration": 0.07692300000002206
        },
        {
          "name": "D#2",
          "midi": 39,
          "time": 298.96123949999765,
          "velocity": 0.7874015748031497,
          "duration": 0.07692300000002206
        },
        {
          "name": "D2",
          "midi": 38,
          "time": 299.07662399999765,
          "velocity": 0.7874015748031497,
          "duration": 0.07692300000002206
        },
        {
          "name": "D#2",
          "midi": 39,
          "time": 299.19200849999766,
          "velocity": 0.7874015748031497,
          "duration": 0.07692300000002206
        },
        {
          "name": "D#2",
          "midi": 39,
          "time": 299.30739299999766,
          "velocity": 0.7874015748031497,
          "duration": 0.07692300000002206
        },
        {
          "name": "D#2",
          "midi": 39,
          "time": 299.42277749999766,
          "velocity": 0.7874015748031497,
          "duration": 0.07692300000002206
        },
        {
          "name": "D#2",
          "midi": 39,
          "time": 299.53816199999767,
          "velocity": 0.7874015748031497,
          "duration": 0.07692300000002206
        },
        {
          "name": "D#2",
          "midi": 39,
          "time": 299.6535464999977,
          "velocity": 0.7874015748031497,
          "duration": 0.07692300000002206
        },
        {
          "name": "D#2",
          "midi": 39,
          "time": 299.7689309999977,
          "velocity": 0.7874015748031497,
          "duration": 0.07692300000002206
        },
        {
          "name": "D#2",
          "midi": 39,
          "time": 299.8843154999977,
          "velocity": 0.7874015748031497,
          "duration": 0.07692300000002206
        },
        {
          "name": "D2",
          "midi": 38,
          "time": 299.9996999999977,
          "velocity": 0.7874015748031497,
          "duration": 0.07692300000002206
        },
        {
          "name": "D#2",
          "midi": 39,
          "time": 300.1150844999977,
          "velocity": 0.7874015748031497,
          "duration": 0.07692300000002206
        },
        {
          "name": "D#2",
          "midi": 39,
          "time": 300.2304689999977,
          "velocity": 0.7874015748031497,
          "duration": 0.07692300000002206
        },
        {
          "name": "D#2",
          "midi": 39,
          "time": 300.3458534999977,
          "velocity": 0.7874015748031497,
          "duration": 0.07692300000002206
        },
        {
          "name": "D#2",
          "midi": 39,
          "time": 300.4612379999977,
          "velocity": 0.7874015748031497,
          "duration": 0.07692300000002206
        },
        {
          "name": "D#2",
          "midi": 39,
          "time": 300.5766224999977,
          "velocity": 0.7874015748031497,
          "duration": 0.07692300000002206
        },
        {
          "name": "D#2",
          "midi": 39,
          "time": 300.6920069999977,
          "velocity": 0.7874015748031497,
          "duration": 0.07692300000002206
        },
        {
          "name": "D#2",
          "midi": 39,
          "time": 300.8073914999977,
          "velocity": 0.7874015748031497,
          "duration": 0.07692300000002206
        },
        {
          "name": "D2",
          "midi": 38,
          "time": 300.9227759999977,
          "velocity": 0.7874015748031497,
          "duration": 0.07692300000002206
        },
        {
          "name": "D#2",
          "midi": 39,
          "time": 301.03816049999773,
          "velocity": 0.7874015748031497,
          "duration": 0.07692300000002206
        },
        {
          "name": "D#2",
          "midi": 39,
          "time": 301.15354499999773,
          "velocity": 0.7874015748031497,
          "duration": 0.07692300000002206
        },
        {
          "name": "D#2",
          "midi": 39,
          "time": 301.26892949999774,
          "velocity": 0.7874015748031497,
          "duration": 0.07692300000002206
        },
        {
          "name": "D#2",
          "midi": 39,
          "time": 301.38431399999774,
          "velocity": 0.7874015748031497,
          "duration": 0.07692300000002206
        },
        {
          "name": "D#2",
          "midi": 39,
          "time": 301.49969849999775,
          "velocity": 0.7874015748031497,
          "duration": 0.07692300000002206
        },
        {
          "name": "D#2",
          "midi": 39,
          "time": 301.61508299999775,
          "velocity": 0.7874015748031497,
          "duration": 0.07692300000002206
        },
        {
          "name": "D#2",
          "midi": 39,
          "time": 301.73046749999776,
          "velocity": 0.7874015748031497,
          "duration": 0.07692300000002206
        },
        {
          "name": "D2",
          "midi": 38,
          "time": 301.84585199999776,
          "velocity": 0.7874015748031497,
          "duration": 0.07692300000002206
        },
        {
          "name": "D#2",
          "midi": 39,
          "time": 301.96123649999777,
          "velocity": 0.7874015748031497,
          "duration": 0.07692300000002206
        },
        {
          "name": "D#2",
          "midi": 39,
          "time": 302.0766209999978,
          "velocity": 0.7874015748031497,
          "duration": 0.07692300000002206
        },
        {
          "name": "D#2",
          "midi": 39,
          "time": 302.1920054999978,
          "velocity": 0.7874015748031497,
          "duration": 0.07692300000002206
        },
        {
          "name": "D2",
          "midi": 38,
          "time": 302.3073899999978,
          "velocity": 0.7874015748031497,
          "duration": 0.07692300000002206
        },
        {
          "name": "D#2",
          "midi": 39,
          "time": 302.4227744999978,
          "velocity": 0.7874015748031497,
          "duration": 0.07692300000002206
        },
        {
          "name": "D#2",
          "midi": 39,
          "time": 302.5381589999978,
          "velocity": 0.7874015748031497,
          "duration": 0.07692300000002206
        },
        {
          "name": "D#2",
          "midi": 39,
          "time": 302.6535434999978,
          "velocity": 0.7874015748031497,
          "duration": 0.07692300000002206
        },
        {
          "name": "D2",
          "midi": 38,
          "time": 302.7689279999978,
          "velocity": 0.7874015748031497,
          "duration": 0.07692300000002206
        },
        {
          "name": "D#2",
          "midi": 39,
          "time": 302.8843124999978,
          "velocity": 0.7874015748031497,
          "duration": 0.07692300000002206
        },
        {
          "name": "D#2",
          "midi": 39,
          "time": 302.9996969999978,
          "velocity": 0.7874015748031497,
          "duration": 0.07692300000002206
        },
        {
          "name": "D#2",
          "midi": 39,
          "time": 303.1150814999978,
          "velocity": 0.7874015748031497,
          "duration": 0.07692300000002206
        },
        {
          "name": "D#2",
          "midi": 39,
          "time": 303.2304659999978,
          "velocity": 0.7874015748031497,
          "duration": 0.07692300000002206
        },
        {
          "name": "D#2",
          "midi": 39,
          "time": 303.3458504999978,
          "velocity": 0.7874015748031497,
          "duration": 0.07692300000002206
        },
        {
          "name": "D#2",
          "midi": 39,
          "time": 303.4612349999978,
          "velocity": 0.7874015748031497,
          "duration": 0.07692300000002206
        },
        {
          "name": "D#2",
          "midi": 39,
          "time": 303.57661949999783,
          "velocity": 0.7874015748031497,
          "duration": 0.07692300000002206
        },
        {
          "name": "D2",
          "midi": 38,
          "time": 303.69200399999784,
          "velocity": 0.7874015748031497,
          "duration": 0.07692300000002206
        },
        {
          "name": "D#2",
          "midi": 39,
          "time": 303.80738849999784,
          "velocity": 0.7874015748031497,
          "duration": 0.07692300000002206
        },
        {
          "name": "D#2",
          "midi": 39,
          "time": 303.92277299999785,
          "velocity": 0.7874015748031497,
          "duration": 0.07692300000002206
        },
        {
          "name": "D#2",
          "midi": 39,
          "time": 304.03815749999785,
          "velocity": 0.7874015748031497,
          "duration": 0.07692300000002206
        },
        {
          "name": "D#2",
          "midi": 39,
          "time": 304.15354199999786,
          "velocity": 0.7874015748031497,
          "duration": 0.07692300000002206
        },
        {
          "name": "D#2",
          "midi": 39,
          "time": 304.26892649999786,
          "velocity": 0.7874015748031497,
          "duration": 0.07692300000002206
        },
        {
          "name": "D#2",
          "midi": 39,
          "time": 304.38431099999787,
          "velocity": 0.7874015748031497,
          "duration": 0.07692300000002206
        },
        {
          "name": "D#2",
          "midi": 39,
          "time": 304.49969549999787,
          "velocity": 0.7874015748031497,
          "duration": 0.07692300000002206
        },
        {
          "name": "D2",
          "midi": 38,
          "time": 304.6150799999979,
          "velocity": 0.7874015748031497,
          "duration": 0.07692300000002206
        },
        {
          "name": "D#2",
          "midi": 39,
          "time": 304.7304644999979,
          "velocity": 0.7874015748031497,
          "duration": 0.07692300000002206
        },
        {
          "name": "D#2",
          "midi": 39,
          "time": 304.8458489999979,
          "velocity": 0.7874015748031497,
          "duration": 0.07692300000002206
        },
        {
          "name": "D#2",
          "midi": 39,
          "time": 304.9612334999979,
          "velocity": 0.7874015748031497,
          "duration": 0.07692300000002206
        },
        {
          "name": "D#2",
          "midi": 39,
          "time": 305.0766179999979,
          "velocity": 0.7874015748031497,
          "duration": 0.07692300000002206
        },
        {
          "name": "D#2",
          "midi": 39,
          "time": 305.1920024999979,
          "velocity": 0.7874015748031497,
          "duration": 0.07692300000002206
        },
        {
          "name": "D#2",
          "midi": 39,
          "time": 305.3073869999979,
          "velocity": 0.7874015748031497,
          "duration": 0.07692300000002206
        },
        {
          "name": "D#2",
          "midi": 39,
          "time": 305.4227714999979,
          "velocity": 0.7874015748031497,
          "duration": 0.07692300000002206
        },
        {
          "name": "D2",
          "midi": 38,
          "time": 305.5381559999979,
          "velocity": 0.7874015748031497,
          "duration": 0.07692300000002206
        },
        {
          "name": "D#2",
          "midi": 39,
          "time": 305.6535404999979,
          "velocity": 0.7874015748031497,
          "duration": 0.07692300000002206
        },
        {
          "name": "D#2",
          "midi": 39,
          "time": 305.7689249999979,
          "velocity": 0.7874015748031497,
          "duration": 0.07692300000002206
        },
        {
          "name": "D#2",
          "midi": 39,
          "time": 305.8843094999979,
          "velocity": 0.7874015748031497,
          "duration": 0.07692300000002206
        },
        {
          "name": "D2",
          "midi": 38,
          "time": 305.99969399999793,
          "velocity": 0.7874015748031497,
          "duration": 0.07692300000002206
        },
        {
          "name": "D#2",
          "midi": 39,
          "time": 306.11507849999794,
          "velocity": 0.7874015748031497,
          "duration": 0.07692300000002206
        },
        {
          "name": "D#2",
          "midi": 39,
          "time": 306.23046299999794,
          "velocity": 0.7874015748031497,
          "duration": 0.07692300000002206
        },
        {
          "name": "D#2",
          "midi": 39,
          "time": 306.34584749999794,
          "velocity": 0.7874015748031497,
          "duration": 0.07692300000002206
        },
        {
          "name": "D2",
          "midi": 38,
          "time": 306.46123199999795,
          "velocity": 0.7874015748031497,
          "duration": 0.07692300000002206
        },
        {
          "name": "D#2",
          "midi": 39,
          "time": 306.57661649999795,
          "velocity": 0.7874015748031497,
          "duration": 0.07692300000002206
        },
        {
          "name": "D#2",
          "midi": 39,
          "time": 306.69200099999796,
          "velocity": 0.7874015748031497,
          "duration": 0.07692300000002206
        },
        {
          "name": "D#2",
          "midi": 39,
          "time": 306.80738549999796,
          "velocity": 0.7874015748031497,
          "duration": 0.07692300000002206
        },
        {
          "name": "D#2",
          "midi": 39,
          "time": 306.92276999999797,
          "velocity": 0.7874015748031497,
          "duration": 0.07692300000002206
        },
        {
          "name": "D#2",
          "midi": 39,
          "time": 307.038154499998,
          "velocity": 0.7874015748031497,
          "duration": 0.07692300000002206
        },
        {
          "name": "D#2",
          "midi": 39,
          "time": 307.153538999998,
          "velocity": 0.7874015748031497,
          "duration": 0.07692300000002206
        },
        {
          "name": "D#2",
          "midi": 39,
          "time": 307.268923499998,
          "velocity": 0.7874015748031497,
          "duration": 0.07692300000002206
        },
        {
          "name": "D2",
          "midi": 38,
          "time": 307.384307999998,
          "velocity": 0.7874015748031497,
          "duration": 0.07692300000002206
        },
        {
          "name": "D#2",
          "midi": 39,
          "time": 307.499692499998,
          "velocity": 0.7874015748031497,
          "duration": 0.07692300000002206
        },
        {
          "name": "D#2",
          "midi": 39,
          "time": 307.615076999998,
          "velocity": 0.7874015748031497,
          "duration": 0.07692300000002206
        },
        {
          "name": "D#2",
          "midi": 39,
          "time": 307.730461499998,
          "velocity": 0.7874015748031497,
          "duration": 0.07692300000002206
        },
        {
          "name": "D#2",
          "midi": 39,
          "time": 307.845845999998,
          "velocity": 0.7874015748031497,
          "duration": 0.07692300000002206
        },
        {
          "name": "D#2",
          "midi": 39,
          "time": 307.961230499998,
          "velocity": 0.7874015748031497,
          "duration": 0.07692300000002206
        },
        {
          "name": "D#2",
          "midi": 39,
          "time": 308.076614999998,
          "velocity": 0.7874015748031497,
          "duration": 0.07692300000002206
        },
        {
          "name": "D#2",
          "midi": 39,
          "time": 308.191999499998,
          "velocity": 0.7874015748031497,
          "duration": 0.07692300000002206
        },
        {
          "name": "D2",
          "midi": 38,
          "time": 308.307383999998,
          "velocity": 0.7874015748031497,
          "duration": 0.07692300000002206
        },
        {
          "name": "D#2",
          "midi": 39,
          "time": 308.422768499998,
          "velocity": 0.7874015748031497,
          "duration": 0.07692300000002206
        },
        {
          "name": "D#2",
          "midi": 39,
          "time": 308.53815299999803,
          "velocity": 0.7874015748031497,
          "duration": 0.07692300000002206
        },
        {
          "name": "D#2",
          "midi": 39,
          "time": 308.65353749999804,
          "velocity": 0.7874015748031497,
          "duration": 0.07692300000002206
        },
        {
          "name": "D#2",
          "midi": 39,
          "time": 308.76892199999804,
          "velocity": 0.7874015748031497,
          "duration": 0.07692300000002206
        },
        {
          "name": "D#2",
          "midi": 39,
          "time": 308.88430649999805,
          "velocity": 0.7874015748031497,
          "duration": 0.07692300000002206
        },
        {
          "name": "D#2",
          "midi": 39,
          "time": 308.99969099999805,
          "velocity": 0.7874015748031497,
          "duration": 0.07692300000002206
        },
        {
          "name": "D#2",
          "midi": 39,
          "time": 309.11507549999806,
          "velocity": 0.7874015748031497,
          "duration": 0.07692300000002206
        },
        {
          "name": "D2",
          "midi": 38,
          "time": 309.23045999999806,
          "velocity": 0.7874015748031497,
          "duration": 0.07692300000002206
        },
        {
          "name": "D#2",
          "midi": 39,
          "time": 309.34584449999807,
          "velocity": 0.7874015748031497,
          "duration": 0.07692300000002206
        },
        {
          "name": "D#2",
          "midi": 39,
          "time": 309.46122899999807,
          "velocity": 0.7874015748031497,
          "duration": 0.07692300000002206
        },
        {
          "name": "D#2",
          "midi": 39,
          "time": 309.5766134999981,
          "velocity": 0.7874015748031497,
          "duration": 0.07692300000002206
        },
        {
          "name": "D2",
          "midi": 38,
          "time": 309.6919979999981,
          "velocity": 0.7874015748031497,
          "duration": 0.07692300000002206
        },
        {
          "name": "D#2",
          "midi": 39,
          "time": 309.8073824999981,
          "velocity": 0.7874015748031497,
          "duration": 0.07692300000002206
        },
        {
          "name": "D#2",
          "midi": 39,
          "time": 309.9227669999981,
          "velocity": 0.7874015748031497,
          "duration": 0.07692300000002206
        },
        {
          "name": "D#2",
          "midi": 39,
          "time": 310.0381514999981,
          "velocity": 0.7874015748031497,
          "duration": 0.07692300000002206
        },
        {
          "name": "D2",
          "midi": 38,
          "time": 310.1535359999981,
          "velocity": 0.7874015748031497,
          "duration": 0.07692300000002206
        },
        {
          "name": "D#2",
          "midi": 39,
          "time": 310.2689204999981,
          "velocity": 0.7874015748031497,
          "duration": 0.07692300000002206
        },
        {
          "name": "D#2",
          "midi": 39,
          "time": 310.3843049999981,
          "velocity": 0.7874015748031497,
          "duration": 0.07692300000002206
        },
        {
          "name": "D#2",
          "midi": 39,
          "time": 310.4996894999981,
          "velocity": 0.7874015748031497,
          "duration": 0.07692300000002206
        },
        {
          "name": "D#2",
          "midi": 39,
          "time": 310.6150739999981,
          "velocity": 0.7874015748031497,
          "duration": 0.07692300000002206
        },
        {
          "name": "D#2",
          "midi": 39,
          "time": 310.7304584999981,
          "velocity": 0.7874015748031497,
          "duration": 0.07692300000002206
        },
        {
          "name": "D#2",
          "midi": 39,
          "time": 310.8458429999981,
          "velocity": 0.7874015748031497,
          "duration": 0.07692300000002206
        },
        {
          "name": "D#2",
          "midi": 39,
          "time": 310.96122749999813,
          "velocity": 0.7874015748031497,
          "duration": 0.07692300000002206
        },
        {
          "name": "D2",
          "midi": 38,
          "time": 311.07661199999814,
          "velocity": 0.7874015748031497,
          "duration": 0.07692300000002206
        },
        {
          "name": "D#2",
          "midi": 39,
          "time": 311.19199649999814,
          "velocity": 0.7874015748031497,
          "duration": 0.07692300000002206
        },
        {
          "name": "D#2",
          "midi": 39,
          "time": 311.30738099999814,
          "velocity": 0.7874015748031497,
          "duration": 0.07692300000002206
        },
        {
          "name": "D#2",
          "midi": 39,
          "time": 311.42276549999815,
          "velocity": 0.7874015748031497,
          "duration": 0.07692300000002206
        },
        {
          "name": "D#2",
          "midi": 39,
          "time": 311.53814999999815,
          "velocity": 0.7874015748031497,
          "duration": 0.07692300000002206
        },
        {
          "name": "D#2",
          "midi": 39,
          "time": 311.65353449999816,
          "velocity": 0.7874015748031497,
          "duration": 0.07692300000002206
        },
        {
          "name": "D#2",
          "midi": 39,
          "time": 311.76891899999816,
          "velocity": 0.7874015748031497,
          "duration": 0.07692300000002206
        },
        {
          "name": "D#2",
          "midi": 39,
          "time": 311.88430349999817,
          "velocity": 0.7874015748031497,
          "duration": 0.07692300000002206
        },
        {
          "name": "D2",
          "midi": 38,
          "time": 311.9996879999982,
          "velocity": 0.7874015748031497,
          "duration": 0.07692300000002206
        },
        {
          "name": "D#2",
          "midi": 39,
          "time": 312.1150724999982,
          "velocity": 0.7874015748031497,
          "duration": 0.07692300000002206
        },
        {
          "name": "D#2",
          "midi": 39,
          "time": 312.2304569999982,
          "velocity": 0.7874015748031497,
          "duration": 0.07692300000002206
        },
        {
          "name": "D#2",
          "midi": 39,
          "time": 312.3458414999982,
          "velocity": 0.7874015748031497,
          "duration": 0.07692300000002206
        },
        {
          "name": "D#2",
          "midi": 39,
          "time": 312.4612259999982,
          "velocity": 0.7874015748031497,
          "duration": 0.07692300000002206
        },
        {
          "name": "D#2",
          "midi": 39,
          "time": 312.5766104999982,
          "velocity": 0.7874015748031497,
          "duration": 0.07692300000002206
        },
        {
          "name": "D#2",
          "midi": 39,
          "time": 312.6919949999982,
          "velocity": 0.7874015748031497,
          "duration": 0.07692300000002206
        },
        {
          "name": "D#2",
          "midi": 39,
          "time": 312.8073794999982,
          "velocity": 0.7874015748031497,
          "duration": 0.07692300000002206
        },
        {
          "name": "D2",
          "midi": 38,
          "time": 312.9227639999982,
          "velocity": 0.7874015748031497,
          "duration": 0.07692300000002206
        },
        {
          "name": "D#2",
          "midi": 39,
          "time": 313.0381484999982,
          "velocity": 0.7874015748031497,
          "duration": 0.07692300000002206
        },
        {
          "name": "D#2",
          "midi": 39,
          "time": 313.1535329999982,
          "velocity": 0.7874015748031497,
          "duration": 0.07692300000002206
        },
        {
          "name": "D#2",
          "midi": 39,
          "time": 313.2689174999982,
          "velocity": 0.7874015748031497,
          "duration": 0.07692300000002206
        },
        {
          "name": "D2",
          "midi": 38,
          "time": 313.38430199999823,
          "velocity": 0.7874015748031497,
          "duration": 0.07692300000002206
        },
        {
          "name": "D#2",
          "midi": 39,
          "time": 313.49968649999823,
          "velocity": 0.7874015748031497,
          "duration": 0.07692300000002206
        },
        {
          "name": "D#2",
          "midi": 39,
          "time": 313.61507099999824,
          "velocity": 0.7874015748031497,
          "duration": 0.07692300000002206
        },
        {
          "name": "D#2",
          "midi": 39,
          "time": 313.73045549999824,
          "velocity": 0.7874015748031497,
          "duration": 0.07692300000002206
        },
        {
          "name": "D2",
          "midi": 38,
          "time": 313.84583999999825,
          "velocity": 0.7874015748031497,
          "duration": 0.07692300000002206
        },
        {
          "name": "D#2",
          "midi": 39,
          "time": 313.96122449999825,
          "velocity": 0.7874015748031497,
          "duration": 0.07692300000002206
        },
        {
          "name": "D#2",
          "midi": 39,
          "time": 314.07660899999826,
          "velocity": 0.7874015748031497,
          "duration": 0.07692300000002206
        },
        {
          "name": "D#2",
          "midi": 39,
          "time": 314.19199349999826,
          "velocity": 0.7874015748031497,
          "duration": 0.07692300000002206
        },
        {
          "name": "D#2",
          "midi": 39,
          "time": 314.30737799999827,
          "velocity": 0.7874015748031497,
          "duration": 0.07692300000002206
        },
        {
          "name": "D#2",
          "midi": 39,
          "time": 314.42276249999827,
          "velocity": 0.7874015748031497,
          "duration": 0.07692300000002206
        },
        {
          "name": "D#2",
          "midi": 39,
          "time": 314.5381469999983,
          "velocity": 0.7874015748031497,
          "duration": 0.07692300000002206
        },
        {
          "name": "D#2",
          "midi": 39,
          "time": 314.6535314999983,
          "velocity": 0.7874015748031497,
          "duration": 0.07692300000002206
        },
        {
          "name": "D2",
          "midi": 38,
          "time": 314.7689159999983,
          "velocity": 0.7874015748031497,
          "duration": 0.07692300000002206
        },
        {
          "name": "D#2",
          "midi": 39,
          "time": 314.8843004999983,
          "velocity": 0.7874015748031497,
          "duration": 0.07692300000002206
        },
        {
          "name": "D#2",
          "midi": 39,
          "time": 314.9996849999983,
          "velocity": 0.7874015748031497,
          "duration": 0.07692300000002206
        },
        {
          "name": "D#2",
          "midi": 39,
          "time": 315.1150694999983,
          "velocity": 0.7874015748031497,
          "duration": 0.07692300000002206
        },
        {
          "name": "D#2",
          "midi": 39,
          "time": 315.2304539999983,
          "velocity": 0.7874015748031497,
          "duration": 0.07692300000002206
        },
        {
          "name": "D#2",
          "midi": 39,
          "time": 315.3458384999983,
          "velocity": 0.7874015748031497,
          "duration": 0.07692300000002206
        },
        {
          "name": "D#2",
          "midi": 39,
          "time": 315.4612229999983,
          "velocity": 0.7874015748031497,
          "duration": 0.07692300000002206
        },
        {
          "name": "D#2",
          "midi": 39,
          "time": 315.5766074999983,
          "velocity": 0.7874015748031497,
          "duration": 0.07692300000002206
        },
        {
          "name": "D2",
          "midi": 38,
          "time": 315.6919919999983,
          "velocity": 0.7874015748031497,
          "duration": 0.07692300000002206
        },
        {
          "name": "D#2",
          "midi": 39,
          "time": 315.8073764999983,
          "velocity": 0.7874015748031497,
          "duration": 0.07692300000002206
        },
        {
          "name": "D#2",
          "midi": 39,
          "time": 315.92276099999833,
          "velocity": 0.7874015748031497,
          "duration": 0.07692300000002206
        },
        {
          "name": "D#2",
          "midi": 39,
          "time": 316.03814549999834,
          "velocity": 0.7874015748031497,
          "duration": 0.07692300000002206
        },
        {
          "name": "D#2",
          "midi": 39,
          "time": 316.15352999999834,
          "velocity": 0.7874015748031497,
          "duration": 0.07692300000002206
        },
        {
          "name": "D#2",
          "midi": 39,
          "time": 316.26891449999835,
          "velocity": 0.7874015748031497,
          "duration": 0.07692300000002206
        },
        {
          "name": "D#2",
          "midi": 39,
          "time": 316.38429899999835,
          "velocity": 0.7874015748031497,
          "duration": 0.07692300000002206
        },
        {
          "name": "D#2",
          "midi": 39,
          "time": 316.49968349999835,
          "velocity": 0.7874015748031497,
          "duration": 0.07692300000002206
        },
        {
          "name": "D2",
          "midi": 38,
          "time": 316.61506799999836,
          "velocity": 0.7874015748031497,
          "duration": 0.07692300000002206
        },
        {
          "name": "D#2",
          "midi": 39,
          "time": 316.73045249999836,
          "velocity": 0.7874015748031497,
          "duration": 0.07692300000002206
        },
        {
          "name": "D#2",
          "midi": 39,
          "time": 316.84583699999837,
          "velocity": 0.7874015748031497,
          "duration": 0.07692300000002206
        },
        {
          "name": "D#2",
          "midi": 39,
          "time": 316.9612214999984,
          "velocity": 0.7874015748031497,
          "duration": 0.07692300000002206
        },
        {
          "name": "D2",
          "midi": 38,
          "time": 317.0766059999984,
          "velocity": 0.7874015748031497,
          "duration": 0.07692300000002206
        },
        {
          "name": "D#2",
          "midi": 39,
          "time": 317.1919904999984,
          "velocity": 0.7874015748031497,
          "duration": 0.07692300000002206
        },
        {
          "name": "D#2",
          "midi": 39,
          "time": 317.3073749999984,
          "velocity": 0.7874015748031497,
          "duration": 0.07692300000002206
        },
        {
          "name": "D#2",
          "midi": 39,
          "time": 317.4227594999984,
          "velocity": 0.7874015748031497,
          "duration": 0.07692300000002206
        },
        {
          "name": "A#1",
          "midi": 34,
          "time": 317.5381439999984,
          "velocity": 0.7874015748031497,
          "duration": 0.15384599999998727
        },
        {
          "name": "A#1",
          "midi": 34,
          "time": 317.7689129999984,
          "velocity": 0.7874015748031497,
          "duration": 0.15384599999998727
        },
        {
          "name": "A#1",
          "midi": 34,
          "time": 317.9996819999984,
          "velocity": 0.7874015748031497,
          "duration": 0.15384599999998727
        },
        {
          "name": "A#1",
          "midi": 34,
          "time": 318.2304509999984,
          "velocity": 0.7874015748031497,
          "duration": 0.15384599999998727
        },
        {
          "name": "A#1",
          "midi": 34,
          "time": 318.46121999999843,
          "velocity": 0.7874015748031497,
          "duration": 0.15384599999998727
        },
        {
          "name": "A#1",
          "midi": 34,
          "time": 318.69198899999844,
          "velocity": 0.7874015748031497,
          "duration": 0.15384599999998727
        },
        {
          "name": "A#1",
          "midi": 34,
          "time": 318.92275799999845,
          "velocity": 0.7874015748031497,
          "duration": 0.15384599999998727
        },
        {
          "name": "A#1",
          "midi": 34,
          "time": 319.15352699999846,
          "velocity": 0.7874015748031497,
          "duration": 0.15384599999998727
        },
        {
          "name": "A1",
          "midi": 33,
          "time": 319.38429599999847,
          "velocity": 0.7874015748031497,
          "duration": 0.15384599999998727
        },
        {
          "name": "A1",
          "midi": 33,
          "time": 319.6150649999985,
          "velocity": 0.7874015748031497,
          "duration": 0.15384599999998727
        },
        {
          "name": "A1",
          "midi": 33,
          "time": 319.8458339999985,
          "velocity": 0.7874015748031497,
          "duration": 0.15384599999998727
        },
        {
          "name": "A1",
          "midi": 33,
          "time": 320.0766029999985,
          "velocity": 0.7874015748031497,
          "duration": 0.15384599999998727
        },
        {
          "name": "G#1",
          "midi": 32,
          "time": 320.3073719999985,
          "velocity": 0.7874015748031497,
          "duration": 0.15384599999998727
        },
        {
          "name": "G#1",
          "midi": 32,
          "time": 320.5381409999985,
          "velocity": 0.7874015748031497,
          "duration": 0.15384599999998727
        },
        {
          "name": "G#1",
          "midi": 32,
          "time": 320.7689099999985,
          "velocity": 0.7874015748031497,
          "duration": 0.15384599999998727
        },
        {
          "name": "G#1",
          "midi": 32,
          "time": 320.99967899999854,
          "velocity": 0.7874015748031497,
          "duration": 0.15384599999998727
        },
        {
          "name": "D2",
          "midi": 38,
          "time": 321.23044799999855,
          "velocity": 0.7874015748031497,
          "duration": 0.07692300000002206
        },
        {
          "name": "D#2",
          "midi": 39,
          "time": 321.34583249999855,
          "velocity": 0.7874015748031497,
          "duration": 0.07692300000002206
        },
        {
          "name": "D#2",
          "midi": 39,
          "time": 321.46121699999856,
          "velocity": 0.7874015748031497,
          "duration": 0.07692300000002206
        },
        {
          "name": "D#2",
          "midi": 39,
          "time": 321.57660149999856,
          "velocity": 0.7874015748031497,
          "duration": 0.07692300000002206
        },
        {
          "name": "D#2",
          "midi": 39,
          "time": 321.69198599999856,
          "velocity": 0.7874015748031497,
          "duration": 0.07692300000002206
        },
        {
          "name": "D#2",
          "midi": 39,
          "time": 321.80737049999857,
          "velocity": 0.7874015748031497,
          "duration": 0.07692300000002206
        },
        {
          "name": "D#2",
          "midi": 39,
          "time": 321.9227549999986,
          "velocity": 0.7874015748031497,
          "duration": 0.07692300000002206
        },
        {
          "name": "D#2",
          "midi": 39,
          "time": 322.0381394999986,
          "velocity": 0.7874015748031497,
          "duration": 0.07692300000002206
        },
        {
          "name": "D2",
          "midi": 38,
          "time": 322.1535239999986,
          "velocity": 0.7874015748031497,
          "duration": 0.07692300000002206
        },
        {
          "name": "D#2",
          "midi": 39,
          "time": 322.2689084999986,
          "velocity": 0.7874015748031497,
          "duration": 0.07692300000002206
        },
        {
          "name": "D#2",
          "midi": 39,
          "time": 322.3842929999986,
          "velocity": 0.7874015748031497,
          "duration": 0.07692300000002206
        },
        {
          "name": "D#2",
          "midi": 39,
          "time": 322.4996774999986,
          "velocity": 0.7874015748031497,
          "duration": 0.07692300000002206
        },
        {
          "name": "D#2",
          "midi": 39,
          "time": 322.6150619999986,
          "velocity": 0.7874015748031497,
          "duration": 0.07692300000002206
        },
        {
          "name": "D#2",
          "midi": 39,
          "time": 322.7304464999986,
          "velocity": 0.7874015748031497,
          "duration": 0.07692300000002206
        },
        {
          "name": "D#2",
          "midi": 39,
          "time": 322.8458309999986,
          "velocity": 0.7874015748031497,
          "duration": 0.07692300000002206
        },
        {
          "name": "D#2",
          "midi": 39,
          "time": 322.9612154999986,
          "velocity": 0.7874015748031497,
          "duration": 0.07692300000002206
        },
        {
          "name": "D2",
          "midi": 38,
          "time": 323.0765999999986,
          "velocity": 0.7874015748031497,
          "duration": 0.07692300000002206
        },
        {
          "name": "D#2",
          "midi": 39,
          "time": 323.1919844999986,
          "velocity": 0.7874015748031497,
          "duration": 0.07692300000002206
        },
        {
          "name": "D#2",
          "midi": 39,
          "time": 323.30736899999863,
          "velocity": 0.7874015748031497,
          "duration": 0.07692300000002206
        },
        {
          "name": "D#2",
          "midi": 39,
          "time": 323.42275349999863,
          "velocity": 0.7874015748031497,
          "duration": 0.07692300000002206
        },
        {
          "name": "D#2",
          "midi": 39,
          "time": 323.53813799999864,
          "velocity": 0.7874015748031497,
          "duration": 0.07692300000002206
        },
        {
          "name": "D#2",
          "midi": 39,
          "time": 323.65352249999864,
          "velocity": 0.7874015748031497,
          "duration": 0.07692300000002206
        },
        {
          "name": "D#2",
          "midi": 39,
          "time": 323.76890699999865,
          "velocity": 0.7874015748031497,
          "duration": 0.07692300000002206
        },
        {
          "name": "D#2",
          "midi": 39,
          "time": 323.88429149999865,
          "velocity": 0.7874015748031497,
          "duration": 0.07692300000002206
        },
        {
          "name": "D2",
          "midi": 38,
          "time": 323.99967599999866,
          "velocity": 0.7874015748031497,
          "duration": 0.07692300000002206
        },
        {
          "name": "D#2",
          "midi": 39,
          "time": 324.11506049999866,
          "velocity": 0.7874015748031497,
          "duration": 0.07692300000002206
        },
        {
          "name": "D#2",
          "midi": 39,
          "time": 324.23044499999867,
          "velocity": 0.7874015748031497,
          "duration": 0.07692300000002206
        },
        {
          "name": "D#2",
          "midi": 39,
          "time": 324.3458294999987,
          "velocity": 0.7874015748031497,
          "duration": 0.07692300000002206
        },
        {
          "name": "D2",
          "midi": 38,
          "time": 324.4612139999987,
          "velocity": 0.7874015748031497,
          "duration": 0.07692300000002206
        },
        {
          "name": "D#2",
          "midi": 39,
          "time": 324.5765984999987,
          "velocity": 0.7874015748031497,
          "duration": 0.07692300000002206
        },
        {
          "name": "D#2",
          "midi": 39,
          "time": 324.6919829999987,
          "velocity": 0.7874015748031497,
          "duration": 0.07692300000002206
        },
        {
          "name": "D#2",
          "midi": 39,
          "time": 324.8073674999987,
          "velocity": 0.7874015748031497,
          "duration": 0.07692300000002206
        },
        {
          "name": "A#1",
          "midi": 34,
          "time": 324.9227519999987,
          "velocity": 0.7874015748031497,
          "duration": 0.15384599999998727
        },
        {
          "name": "A#1",
          "midi": 34,
          "time": 325.1535209999987,
          "velocity": 0.7874015748031497,
          "duration": 0.15384599999998727
        },
        {
          "name": "A#1",
          "midi": 34,
          "time": 325.3842899999987,
          "velocity": 0.7874015748031497,
          "duration": 0.15384599999998727
        },
        {
          "name": "A#1",
          "midi": 34,
          "time": 325.6150589999987,
          "velocity": 0.7874015748031497,
          "duration": 0.15384599999998727
        },
        {
          "name": "A#1",
          "midi": 34,
          "time": 325.84582799999873,
          "velocity": 0.7874015748031497,
          "duration": 0.15384599999998727
        },
        {
          "name": "A#1",
          "midi": 34,
          "time": 326.07659699999874,
          "velocity": 0.7874015748031497,
          "duration": 0.15384599999998727
        },
        {
          "name": "A#1",
          "midi": 34,
          "time": 326.30736599999875,
          "velocity": 0.7874015748031497,
          "duration": 0.15384599999998727
        },
        {
          "name": "A#1",
          "midi": 34,
          "time": 326.53813499999876,
          "velocity": 0.7874015748031497,
          "duration": 0.15384599999998727
        },
        {
          "name": "A1",
          "midi": 33,
          "time": 326.76890399999877,
          "velocity": 0.7874015748031497,
          "duration": 0.15384599999998727
        },
        {
          "name": "A1",
          "midi": 33,
          "time": 326.9996729999988,
          "velocity": 0.7874015748031497,
          "duration": 0.15384599999998727
        },
        {
          "name": "A1",
          "midi": 33,
          "time": 327.2304419999988,
          "velocity": 0.7874015748031497,
          "duration": 0.15384599999998727
        },
        {
          "name": "A1",
          "midi": 33,
          "time": 327.4612109999988,
          "velocity": 0.7874015748031497,
          "duration": 0.15384599999998727
        },
        {
          "name": "G#1",
          "midi": 32,
          "time": 327.6919799999988,
          "velocity": 0.7874015748031497,
          "duration": 0.15384599999998727
        },
        {
          "name": "G#1",
          "midi": 32,
          "time": 327.9227489999988,
          "velocity": 0.7874015748031497,
          "duration": 0.15384599999998727
        },
        {
          "name": "G#1",
          "midi": 32,
          "time": 328.1535179999988,
          "velocity": 0.7874015748031497,
          "duration": 0.15384599999998727
        },
        {
          "name": "G#1",
          "midi": 32,
          "time": 328.38428699999884,
          "velocity": 0.7874015748031497,
          "duration": 0.15384599999998727
        },
        {
          "name": "D2",
          "midi": 38,
          "time": 328.61505599999884,
          "velocity": 0.7874015748031497,
          "duration": 0.07692300000002206
        },
        {
          "name": "D#2",
          "midi": 39,
          "time": 328.73044049999885,
          "velocity": 0.7874015748031497,
          "duration": 0.07692300000002206
        },
        {
          "name": "D#2",
          "midi": 39,
          "time": 328.84582499999885,
          "velocity": 0.7874015748031497,
          "duration": 0.07692300000002206
        },
        {
          "name": "D#2",
          "midi": 39,
          "time": 328.96120949999886,
          "velocity": 0.7874015748031497,
          "duration": 0.07692300000002206
        },
        {
          "name": "D#2",
          "midi": 39,
          "time": 329.07659399999886,
          "velocity": 0.7874015748031497,
          "duration": 0.07692300000002206
        },
        {
          "name": "D#2",
          "midi": 39,
          "time": 329.19197849999887,
          "velocity": 0.7874015748031497,
          "duration": 0.07692300000002206
        },
        {
          "name": "D#2",
          "midi": 39,
          "time": 329.3073629999989,
          "velocity": 0.7874015748031497,
          "duration": 0.07692300000002206
        },
        {
          "name": "D#2",
          "midi": 39,
          "time": 329.4227474999989,
          "velocity": 0.7874015748031497,
          "duration": 0.07692300000002206
        },
        {
          "name": "D2",
          "midi": 38,
          "time": 329.5381319999989,
          "velocity": 0.7874015748031497,
          "duration": 0.07692300000002206
        },
        {
          "name": "D#2",
          "midi": 39,
          "time": 329.6535164999989,
          "velocity": 0.7874015748031497,
          "duration": 0.07692300000002206
        },
        {
          "name": "D#2",
          "midi": 39,
          "time": 329.7689009999989,
          "velocity": 0.7874015748031497,
          "duration": 0.07692300000002206
        },
        {
          "name": "D#2",
          "midi": 39,
          "time": 329.8842854999989,
          "velocity": 0.7874015748031497,
          "duration": 0.07692300000002206
        },
        {
          "name": "D#2",
          "midi": 39,
          "time": 329.9996699999989,
          "velocity": 0.7874015748031497,
          "duration": 0.07692300000002206
        },
        {
          "name": "D#2",
          "midi": 39,
          "time": 330.1150544999989,
          "velocity": 0.7874015748031497,
          "duration": 0.07692300000002206
        },
        {
          "name": "D#2",
          "midi": 39,
          "time": 330.2304389999989,
          "velocity": 0.7874015748031497,
          "duration": 0.07692300000002206
        },
        {
          "name": "D#2",
          "midi": 39,
          "time": 330.3458234999989,
          "velocity": 0.7874015748031497,
          "duration": 0.07692300000002206
        },
        {
          "name": "D2",
          "midi": 38,
          "time": 330.4612079999989,
          "velocity": 0.7874015748031497,
          "duration": 0.07692300000002206
        },
        {
          "name": "D#2",
          "midi": 39,
          "time": 330.5765924999989,
          "velocity": 0.7874015748031497,
          "duration": 0.07692300000002206
        },
        {
          "name": "D#2",
          "midi": 39,
          "time": 330.69197699999893,
          "velocity": 0.7874015748031497,
          "duration": 0.07692300000002206
        },
        {
          "name": "D#2",
          "midi": 39,
          "time": 330.80736149999893,
          "velocity": 0.7874015748031497,
          "duration": 0.07692300000002206
        },
        {
          "name": "D#2",
          "midi": 39,
          "time": 330.92274599999894,
          "velocity": 0.7874015748031497,
          "duration": 0.07692300000002206
        },
        {
          "name": "D#2",
          "midi": 39,
          "time": 331.03813049999894,
          "velocity": 0.7874015748031497,
          "duration": 0.07692300000002206
        },
        {
          "name": "D#2",
          "midi": 39,
          "time": 331.15351499999895,
          "velocity": 0.7874015748031497,
          "duration": 0.07692300000002206
        },
        {
          "name": "D#2",
          "midi": 39,
          "time": 331.26889949999895,
          "velocity": 0.7874015748031497,
          "duration": 0.07692300000002206
        },
        {
          "name": "D2",
          "midi": 38,
          "time": 331.38428399999896,
          "velocity": 0.7874015748031497,
          "duration": 0.07692300000002206
        },
        {
          "name": "D#2",
          "midi": 39,
          "time": 331.49966849999896,
          "velocity": 0.7874015748031497,
          "duration": 0.07692300000002206
        },
        {
          "name": "D#2",
          "midi": 39,
          "time": 331.61505299999897,
          "velocity": 0.7874015748031497,
          "duration": 0.07692300000002206
        },
        {
          "name": "D#2",
          "midi": 39,
          "time": 331.73043749999897,
          "velocity": 0.7874015748031497,
          "duration": 0.07692300000002206
        },
        {
          "name": "D2",
          "midi": 38,
          "time": 331.845821999999,
          "velocity": 0.7874015748031497,
          "duration": 0.07692300000002206
        },
        {
          "name": "D#2",
          "midi": 39,
          "time": 331.961206499999,
          "velocity": 0.7874015748031497,
          "duration": 0.07692300000002206
        },
        {
          "name": "D#2",
          "midi": 39,
          "time": 332.076590999999,
          "velocity": 0.7874015748031497,
          "duration": 0.07692300000002206
        },
        {
          "name": "D#2",
          "midi": 39,
          "time": 332.191975499999,
          "velocity": 0.7874015748031497,
          "duration": 0.07692300000002206
        },
        {
          "name": "A#1",
          "midi": 34,
          "time": 332.307359999999,
          "velocity": 0.7874015748031497,
          "duration": 0.15384599999998727
        },
        {
          "name": "A#1",
          "midi": 34,
          "time": 332.538128999999,
          "velocity": 0.7874015748031497,
          "duration": 0.15384599999998727
        },
        {
          "name": "A#1",
          "midi": 34,
          "time": 332.768897999999,
          "velocity": 0.7874015748031497,
          "duration": 0.15384599999998727
        },
        {
          "name": "A#1",
          "midi": 34,
          "time": 332.999666999999,
          "velocity": 0.7874015748031497,
          "duration": 0.15384599999998727
        },
        {
          "name": "A#1",
          "midi": 34,
          "time": 333.23043599999903,
          "velocity": 0.7874015748031497,
          "duration": 0.15384599999998727
        },
        {
          "name": "A#1",
          "midi": 34,
          "time": 333.46120499999904,
          "velocity": 0.7874015748031497,
          "duration": 0.15384599999998727
        },
        {
          "name": "A#1",
          "midi": 34,
          "time": 333.69197399999905,
          "velocity": 0.7874015748031497,
          "duration": 0.15384599999998727
        },
        {
          "name": "A#1",
          "midi": 34,
          "time": 333.92274299999906,
          "velocity": 0.7874015748031497,
          "duration": 0.15384599999998727
        },
        {
          "name": "A1",
          "midi": 33,
          "time": 334.15351199999907,
          "velocity": 0.7874015748031497,
          "duration": 0.15384599999998727
        },
        {
          "name": "A1",
          "midi": 33,
          "time": 334.3842809999991,
          "velocity": 0.7874015748031497,
          "duration": 0.15384599999998727
        },
        {
          "name": "A1",
          "midi": 33,
          "time": 334.6150499999991,
          "velocity": 0.7874015748031497,
          "duration": 0.15384599999998727
        },
        {
          "name": "A1",
          "midi": 33,
          "time": 334.8458189999991,
          "velocity": 0.7874015748031497,
          "duration": 0.15384599999998727
        },
        {
          "name": "G#1",
          "midi": 32,
          "time": 335.0765879999991,
          "velocity": 0.7874015748031497,
          "duration": 0.15384599999998727
        },
        {
          "name": "G#1",
          "midi": 32,
          "time": 335.3073569999991,
          "velocity": 0.7874015748031497,
          "duration": 0.15384599999998727
        },
        {
          "name": "G#1",
          "midi": 32,
          "time": 335.5381259999991,
          "velocity": 0.7874015748031497,
          "duration": 0.15384599999998727
        },
        {
          "name": "G#1",
          "midi": 32,
          "time": 335.76889499999913,
          "velocity": 0.7874015748031497,
          "duration": 0.15384599999998727
        },
        {
          "name": "D2",
          "midi": 38,
          "time": 335.99966399999914,
          "velocity": 0.7874015748031497,
          "duration": 0.07692300000002206
        },
        {
          "name": "D#2",
          "midi": 39,
          "time": 336.11504849999915,
          "velocity": 0.7874015748031497,
          "duration": 0.07692300000002206
        },
        {
          "name": "D#2",
          "midi": 39,
          "time": 336.23043299999915,
          "velocity": 0.7874015748031497,
          "duration": 0.07692300000002206
        },
        {
          "name": "D#2",
          "midi": 39,
          "time": 336.34581749999916,
          "velocity": 0.7874015748031497,
          "duration": 0.07692300000002206
        },
        {
          "name": "D#2",
          "midi": 39,
          "time": 336.46120199999916,
          "velocity": 0.7874015748031497,
          "duration": 0.07692300000002206
        },
        {
          "name": "D#2",
          "midi": 39,
          "time": 336.57658649999917,
          "velocity": 0.7874015748031497,
          "duration": 0.07692300000002206
        },
        {
          "name": "D#2",
          "midi": 39,
          "time": 336.69197099999917,
          "velocity": 0.7874015748031497,
          "duration": 0.07692300000002206
        },
        {
          "name": "D#2",
          "midi": 39,
          "time": 336.8073554999992,
          "velocity": 0.7874015748031497,
          "duration": 0.07692300000002206
        },
        {
          "name": "D2",
          "midi": 38,
          "time": 336.9227399999992,
          "velocity": 0.7874015748031497,
          "duration": 0.07692300000002206
        },
        {
          "name": "D#2",
          "midi": 39,
          "time": 337.0381244999992,
          "velocity": 0.7874015748031497,
          "duration": 0.07692300000002206
        },
        {
          "name": "D#2",
          "midi": 39,
          "time": 337.1535089999992,
          "velocity": 0.7874015748031497,
          "duration": 0.07692300000002206
        },
        {
          "name": "D#2",
          "midi": 39,
          "time": 337.2688934999992,
          "velocity": 0.7874015748031497,
          "duration": 0.07692300000002206
        },
        {
          "name": "D#2",
          "midi": 39,
          "time": 337.3842779999992,
          "velocity": 0.7874015748031497,
          "duration": 0.07692300000002206
        },
        {
          "name": "D#2",
          "midi": 39,
          "time": 337.4996624999992,
          "velocity": 0.7874015748031497,
          "duration": 0.07692300000002206
        },
        {
          "name": "D#2",
          "midi": 39,
          "time": 337.6150469999992,
          "velocity": 0.7874015748031497,
          "duration": 0.07692300000002206
        },
        {
          "name": "D#2",
          "midi": 39,
          "time": 337.7304314999992,
          "velocity": 0.7874015748031497,
          "duration": 0.07692300000002206
        },
        {
          "name": "D2",
          "midi": 38,
          "time": 337.8458159999992,
          "velocity": 0.7874015748031497,
          "duration": 0.07692300000002206
        },
        {
          "name": "D#2",
          "midi": 39,
          "time": 337.9612004999992,
          "velocity": 0.7874015748031497,
          "duration": 0.07692300000002206
        },
        {
          "name": "D#2",
          "midi": 39,
          "time": 338.0765849999992,
          "velocity": 0.7874015748031497,
          "duration": 0.07692300000002206
        },
        {
          "name": "D#2",
          "midi": 39,
          "time": 338.19196949999923,
          "velocity": 0.7874015748031497,
          "duration": 0.07692300000002206
        },
        {
          "name": "D#2",
          "midi": 39,
          "time": 338.30735399999924,
          "velocity": 0.7874015748031497,
          "duration": 0.07692300000002206
        },
        {
          "name": "D#2",
          "midi": 39,
          "time": 338.42273849999924,
          "velocity": 0.7874015748031497,
          "duration": 0.07692300000002206
        },
        {
          "name": "D#2",
          "midi": 39,
          "time": 338.53812299999925,
          "velocity": 0.7874015748031497,
          "duration": 0.07692300000002206
        },
        {
          "name": "D#2",
          "midi": 39,
          "time": 338.65350749999925,
          "velocity": 0.7874015748031497,
          "duration": 0.07692300000002206
        },
        {
          "name": "D2",
          "midi": 38,
          "time": 338.76889199999925,
          "velocity": 0.7874015748031497,
          "duration": 0.07692300000002206
        },
        {
          "name": "D#2",
          "midi": 39,
          "time": 338.88427649999926,
          "velocity": 0.7874015748031497,
          "duration": 0.07692300000002206
        },
        {
          "name": "D#2",
          "midi": 39,
          "time": 338.99966099999926,
          "velocity": 0.7874015748031497,
          "duration": 0.07692300000002206
        },
        {
          "name": "D#2",
          "midi": 39,
          "time": 339.11504549999927,
          "velocity": 0.7874015748031497,
          "duration": 0.07692300000002206
        },
        {
          "name": "D2",
          "midi": 38,
          "time": 339.2304299999993,
          "velocity": 0.7874015748031497,
          "duration": 0.07692300000002206
        },
        {
          "name": "D#2",
          "midi": 39,
          "time": 339.3458144999993,
          "velocity": 0.7874015748031497,
          "duration": 0.07692300000002206
        },
        {
          "name": "D#2",
          "midi": 39,
          "time": 339.4611989999993,
          "velocity": 0.7874015748031497,
          "duration": 0.07692300000002206
        },
        {
          "name": "D#2",
          "midi": 39,
          "time": 339.5765834999993,
          "velocity": 0.7874015748031497,
          "duration": 0.07692300000002206
        },
        {
          "name": "A#1",
          "midi": 34,
          "time": 339.6919679999993,
          "velocity": 0.7874015748031497,
          "duration": 0.15384599999998727
        },
        {
          "name": "A#1",
          "midi": 34,
          "time": 339.9227369999993,
          "velocity": 0.7874015748031497,
          "duration": 0.15384599999998727
        },
        {
          "name": "A#1",
          "midi": 34,
          "time": 340.1535059999993,
          "velocity": 0.7874015748031497,
          "duration": 0.15384599999998727
        },
        {
          "name": "A#1",
          "midi": 34,
          "time": 340.3842749999993,
          "velocity": 0.7874015748031497,
          "duration": 0.15384599999998727
        },
        {
          "name": "A#1",
          "midi": 34,
          "time": 340.61504399999933,
          "velocity": 0.7874015748031497,
          "duration": 0.15384599999998727
        },
        {
          "name": "A#1",
          "midi": 34,
          "time": 340.84581299999934,
          "velocity": 0.7874015748031497,
          "duration": 0.15384599999998727
        },
        {
          "name": "A#1",
          "midi": 34,
          "time": 341.07658199999935,
          "velocity": 0.7874015748031497,
          "duration": 0.15384599999998727
        },
        {
          "name": "A#1",
          "midi": 34,
          "time": 341.30735099999936,
          "velocity": 0.7874015748031497,
          "duration": 0.15384599999998727
        },
        {
          "name": "A1",
          "midi": 33,
          "time": 341.53811999999937,
          "velocity": 0.7874015748031497,
          "duration": 0.15384599999998727
        },
        {
          "name": "A1",
          "midi": 33,
          "time": 341.7688889999994,
          "velocity": 0.7874015748031497,
          "duration": 0.15384599999998727
        },
        {
          "name": "A1",
          "midi": 33,
          "time": 341.9996579999994,
          "velocity": 0.7874015748031497,
          "duration": 0.15384599999998727
        },
        {
          "name": "A1",
          "midi": 33,
          "time": 342.2304269999994,
          "velocity": 0.7874015748031497,
          "duration": 0.15384599999998727
        },
        {
          "name": "G#1",
          "midi": 32,
          "time": 342.4611959999994,
          "velocity": 0.7874015748031497,
          "duration": 0.15384599999998727
        },
        {
          "name": "G#1",
          "midi": 32,
          "time": 342.6919649999994,
          "velocity": 0.7874015748031497,
          "duration": 0.15384599999998727
        },
        {
          "name": "G#1",
          "midi": 32,
          "time": 342.9227339999994,
          "velocity": 0.7874015748031497,
          "duration": 0.15384599999998727
        },
        {
          "name": "G#1",
          "midi": 32,
          "time": 343.15350299999943,
          "velocity": 0.7874015748031497,
          "duration": 0.15384599999998727
        },
        {
          "name": "D2",
          "midi": 38,
          "time": 343.38427199999944,
          "velocity": 0.7874015748031497,
          "duration": 0.07692300000002206
        },
        {
          "name": "D#2",
          "midi": 39,
          "time": 343.49965649999945,
          "velocity": 0.7874015748031497,
          "duration": 0.07692300000002206
        },
        {
          "name": "D#2",
          "midi": 39,
          "time": 343.61504099999945,
          "velocity": 0.7874015748031497,
          "duration": 0.07692300000002206
        },
        {
          "name": "D#2",
          "midi": 39,
          "time": 343.73042549999946,
          "velocity": 0.7874015748031497,
          "duration": 0.07692300000002206
        },
        {
          "name": "D#2",
          "midi": 39,
          "time": 343.84580999999946,
          "velocity": 0.7874015748031497,
          "duration": 0.07692300000002206
        },
        {
          "name": "D#2",
          "midi": 39,
          "time": 343.96119449999946,
          "velocity": 0.7874015748031497,
          "duration": 0.07692300000002206
        },
        {
          "name": "D#2",
          "midi": 39,
          "time": 344.07657899999947,
          "velocity": 0.7874015748031497,
          "duration": 0.07692300000002206
        },
        {
          "name": "D#2",
          "midi": 39,
          "time": 344.1919634999995,
          "velocity": 0.7874015748031497,
          "duration": 0.07692300000002206
        },
        {
          "name": "D2",
          "midi": 38,
          "time": 344.3073479999995,
          "velocity": 0.7874015748031497,
          "duration": 0.07692300000002206
        },
        {
          "name": "D#2",
          "midi": 39,
          "time": 344.4227324999995,
          "velocity": 0.7874015748031497,
          "duration": 0.07692300000002206
        },
        {
          "name": "D#2",
          "midi": 39,
          "time": 344.5381169999995,
          "velocity": 0.7874015748031497,
          "duration": 0.07692300000002206
        },
        {
          "name": "D#2",
          "midi": 39,
          "time": 344.6535014999995,
          "velocity": 0.7874015748031497,
          "duration": 0.07692300000002206
        },
        {
          "name": "D#2",
          "midi": 39,
          "time": 344.7688859999995,
          "velocity": 0.7874015748031497,
          "duration": 0.07692300000002206
        },
        {
          "name": "D#2",
          "midi": 39,
          "time": 344.8842704999995,
          "velocity": 0.7874015748031497,
          "duration": 0.07692300000002206
        },
        {
          "name": "D#2",
          "midi": 39,
          "time": 344.9996549999995,
          "velocity": 0.7874015748031497,
          "duration": 0.07692300000002206
        },
        {
          "name": "D#2",
          "midi": 39,
          "time": 345.1150394999995,
          "velocity": 0.7874015748031497,
          "duration": 0.07692300000002206
        },
        {
          "name": "D2",
          "midi": 38,
          "time": 345.2304239999995,
          "velocity": 0.7874015748031497,
          "duration": 0.07692300000002206
        },
        {
          "name": "D#2",
          "midi": 39,
          "time": 345.3458084999995,
          "velocity": 0.7874015748031497,
          "duration": 0.07692300000002206
        },
        {
          "name": "D#2",
          "midi": 39,
          "time": 345.4611929999995,
          "velocity": 0.7874015748031497,
          "duration": 0.07692300000002206
        },
        {
          "name": "D#2",
          "midi": 39,
          "time": 345.57657749999953,
          "velocity": 0.7874015748031497,
          "duration": 0.07692300000002206
        },
        {
          "name": "D#2",
          "midi": 39,
          "time": 345.69196199999953,
          "velocity": 0.7874015748031497,
          "duration": 0.07692300000002206
        },
        {
          "name": "D#2",
          "midi": 39,
          "time": 345.80734649999954,
          "velocity": 0.7874015748031497,
          "duration": 0.07692300000002206
        },
        {
          "name": "D#2",
          "midi": 39,
          "time": 345.92273099999954,
          "velocity": 0.7874015748031497,
          "duration": 0.07692300000002206
        },
        {
          "name": "D#2",
          "midi": 39,
          "time": 346.03811549999955,
          "velocity": 0.7874015748031497,
          "duration": 0.07692300000002206
        },
        {
          "name": "D2",
          "midi": 38,
          "time": 346.15349999999955,
          "velocity": 0.7874015748031497,
          "duration": 0.07692300000002206
        },
        {
          "name": "D#2",
          "midi": 39,
          "time": 346.26888449999956,
          "velocity": 0.7874015748031497,
          "duration": 0.07692300000002206
        },
        {
          "name": "D#2",
          "midi": 39,
          "time": 346.38426899999956,
          "velocity": 0.7874015748031497,
          "duration": 0.07692300000002206
        },
        {
          "name": "D#2",
          "midi": 39,
          "time": 346.49965349999957,
          "velocity": 0.7874015748031497,
          "duration": 0.07692300000002206
        },
        {
          "name": "D2",
          "midi": 38,
          "time": 346.6150379999996,
          "velocity": 0.7874015748031497,
          "duration": 0.07692300000002206
        },
        {
          "name": "D#2",
          "midi": 39,
          "time": 346.7304224999996,
          "velocity": 0.7874015748031497,
          "duration": 0.07692300000002206
        },
        {
          "name": "D#2",
          "midi": 39,
          "time": 346.8458069999996,
          "velocity": 0.7874015748031497,
          "duration": 0.07692300000002206
        },
        {
          "name": "D#2",
          "midi": 39,
          "time": 346.9611914999996,
          "velocity": 0.7874015748031497,
          "duration": 0.07692300000002206
        }
      ],
      "controlChanges": {
        "7": [
          {
            "number": 7,
            "time": 0,
            "value": 0.6062992125984252
          }
        ],
        "10": [
          {
            "number": 10,
            "time": 0,
            "value": 0.16535433070866143
          }
        ]
      },
      "instrument": ""
    },
    {
      "name": "",
      "notes": [
        {
          "name": "D2",
          "midi": 38,
          "time": 14.769215999999998,
          "velocity": 0.7874015748031497,
          "duration": 0.07692300000000074
        },
        {
          "name": "D#2",
          "midi": 39,
          "time": 14.8846005,
          "velocity": 0.7874015748031497,
          "duration": 0.07692300000000074
        },
        {
          "name": "D#2",
          "midi": 39,
          "time": 14.999985,
          "velocity": 0.7874015748031497,
          "duration": 0.07692300000000074
        },
        {
          "name": "D#2",
          "midi": 39,
          "time": 15.115369500000002,
          "velocity": 0.7874015748031497,
          "duration": 0.07692300000000074
        },
        {
          "name": "D#2",
          "midi": 39,
          "time": 15.230754000000003,
          "velocity": 0.7874015748031497,
          "duration": 0.07692300000000074
        },
        {
          "name": "D#2",
          "midi": 39,
          "time": 15.346138500000004,
          "velocity": 0.7874015748031497,
          "duration": 0.07692300000000074
        },
        {
          "name": "D#2",
          "midi": 39,
          "time": 15.461523000000005,
          "velocity": 0.7874015748031497,
          "duration": 0.07692300000000074
        },
        {
          "name": "D#2",
          "midi": 39,
          "time": 15.576907500000006,
          "velocity": 0.7874015748031497,
          "duration": 0.07692300000000074
        },
        {
          "name": "D2",
          "midi": 38,
          "time": 15.692292000000007,
          "velocity": 0.7874015748031497,
          "duration": 0.07692300000000074
        },
        {
          "name": "D#2",
          "midi": 39,
          "time": 15.807676500000008,
          "velocity": 0.7874015748031497,
          "duration": 0.07692300000000074
        },
        {
          "name": "D#2",
          "midi": 39,
          "time": 15.92306100000001,
          "velocity": 0.7874015748031497,
          "duration": 0.07692300000000074
        },
        {
          "name": "D#2",
          "midi": 39,
          "time": 16.03844550000001,
          "velocity": 0.7874015748031497,
          "duration": 0.07692300000000074
        },
        {
          "name": "D#2",
          "midi": 39,
          "time": 16.15383000000001,
          "velocity": 0.7874015748031497,
          "duration": 0.07692300000000074
        },
        {
          "name": "D#2",
          "midi": 39,
          "time": 16.26921450000001,
          "velocity": 0.7874015748031497,
          "duration": 0.07692300000000074
        },
        {
          "name": "D#2",
          "midi": 39,
          "time": 16.384599000000012,
          "velocity": 0.7874015748031497,
          "duration": 0.07692300000000074
        },
        {
          "name": "D#2",
          "midi": 39,
          "time": 16.499983500000013,
          "velocity": 0.7874015748031497,
          "duration": 0.07692300000000074
        },
        {
          "name": "D2",
          "midi": 38,
          "time": 16.615368000000014,
          "velocity": 0.7874015748031497,
          "duration": 0.07692300000000074
        },
        {
          "name": "D#2",
          "midi": 39,
          "time": 16.730752500000015,
          "velocity": 0.7874015748031497,
          "duration": 0.07692300000000074
        },
        {
          "name": "D#2",
          "midi": 39,
          "time": 16.846137000000017,
          "velocity": 0.7874015748031497,
          "duration": 0.07692300000000074
        },
        {
          "name": "D#2",
          "midi": 39,
          "time": 16.961521500000018,
          "velocity": 0.7874015748031497,
          "duration": 0.07692300000000074
        },
        {
          "name": "D#2",
          "midi": 39,
          "time": 17.07690600000002,
          "velocity": 0.7874015748031497,
          "duration": 0.07692300000000074
        },
        {
          "name": "D#2",
          "midi": 39,
          "time": 17.19229050000002,
          "velocity": 0.7874015748031497,
          "duration": 0.07692300000000074
        },
        {
          "name": "D#2",
          "midi": 39,
          "time": 17.30767500000002,
          "velocity": 0.7874015748031497,
          "duration": 0.07692300000000074
        },
        {
          "name": "D#2",
          "midi": 39,
          "time": 17.423059500000022,
          "velocity": 0.7874015748031497,
          "duration": 0.07692300000000074
        },
        {
          "name": "D2",
          "midi": 38,
          "time": 17.538444000000023,
          "velocity": 0.7874015748031497,
          "duration": 0.07692300000000074
        },
        {
          "name": "D#2",
          "midi": 39,
          "time": 17.653828500000024,
          "velocity": 0.7874015748031497,
          "duration": 0.07692300000000074
        },
        {
          "name": "D#2",
          "midi": 39,
          "time": 17.769213000000025,
          "velocity": 0.7874015748031497,
          "duration": 0.07692300000000074
        },
        {
          "name": "D#2",
          "midi": 39,
          "time": 17.884597500000027,
          "velocity": 0.7874015748031497,
          "duration": 0.07692300000000074
        },
        {
          "name": "D2",
          "midi": 38,
          "time": 17.999982000000028,
          "velocity": 0.7874015748031497,
          "duration": 0.07692300000000074
        },
        {
          "name": "D#2",
          "midi": 39,
          "time": 18.11536650000003,
          "velocity": 0.7874015748031497,
          "duration": 0.07692300000000074
        },
        {
          "name": "D#2",
          "midi": 39,
          "time": 18.23075100000003,
          "velocity": 0.7874015748031497,
          "duration": 0.07692300000000074
        },
        {
          "name": "D#2",
          "midi": 39,
          "time": 18.34613550000003,
          "velocity": 0.7874015748031497,
          "duration": 0.07692300000000074
        },
        {
          "name": "D2",
          "midi": 38,
          "time": 18.461520000000032,
          "velocity": 0.7874015748031497,
          "duration": 0.07692300000000074
        },
        {
          "name": "D#2",
          "midi": 39,
          "time": 18.576904500000033,
          "velocity": 0.7874015748031497,
          "duration": 0.07692300000000074
        },
        {
          "name": "D#2",
          "midi": 39,
          "time": 18.692289000000034,
          "velocity": 0.7874015748031497,
          "duration": 0.07692300000000074
        },
        {
          "name": "D#2",
          "midi": 39,
          "time": 18.807673500000035,
          "velocity": 0.7874015748031497,
          "duration": 0.07692300000000074
        },
        {
          "name": "D#2",
          "midi": 39,
          "time": 18.923058000000037,
          "velocity": 0.7874015748031497,
          "duration": 0.07692300000000074
        },
        {
          "name": "D#2",
          "midi": 39,
          "time": 19.038442500000038,
          "velocity": 0.7874015748031497,
          "duration": 0.07692300000000074
        },
        {
          "name": "D#2",
          "midi": 39,
          "time": 19.15382700000004,
          "velocity": 0.7874015748031497,
          "duration": 0.07692300000000074
        },
        {
          "name": "D#2",
          "midi": 39,
          "time": 19.26921150000004,
          "velocity": 0.7874015748031497,
          "duration": 0.07692300000000074
        },
        {
          "name": "D2",
          "midi": 38,
          "time": 19.38459600000004,
          "velocity": 0.7874015748031497,
          "duration": 0.07692300000000074
        },
        {
          "name": "D#2",
          "midi": 39,
          "time": 19.499980500000042,
          "velocity": 0.7874015748031497,
          "duration": 0.07692300000000074
        },
        {
          "name": "D#2",
          "midi": 39,
          "time": 19.615365000000043,
          "velocity": 0.7874015748031497,
          "duration": 0.07692300000000074
        },
        {
          "name": "D#2",
          "midi": 39,
          "time": 19.730749500000044,
          "velocity": 0.7874015748031497,
          "duration": 0.07692300000000074
        },
        {
          "name": "D#2",
          "midi": 39,
          "time": 19.846134000000045,
          "velocity": 0.7874015748031497,
          "duration": 0.07692300000000074
        },
        {
          "name": "D#2",
          "midi": 39,
          "time": 19.961518500000047,
          "velocity": 0.7874015748031497,
          "duration": 0.07692300000000074
        },
        {
          "name": "D#2",
          "midi": 39,
          "time": 20.076903000000048,
          "velocity": 0.7874015748031497,
          "duration": 0.07692300000000074
        },
        {
          "name": "D#2",
          "midi": 39,
          "time": 20.19228750000005,
          "velocity": 0.7874015748031497,
          "duration": 0.07692300000000074
        },
        {
          "name": "D2",
          "midi": 38,
          "time": 20.30767200000005,
          "velocity": 0.7874015748031497,
          "duration": 0.07692300000000074
        },
        {
          "name": "D#2",
          "midi": 39,
          "time": 20.42305650000005,
          "velocity": 0.7874015748031497,
          "duration": 0.07692300000000074
        },
        {
          "name": "D#2",
          "midi": 39,
          "time": 20.538441000000052,
          "velocity": 0.7874015748031497,
          "duration": 0.07692300000000074
        },
        {
          "name": "D#2",
          "midi": 39,
          "time": 20.653825500000053,
          "velocity": 0.7874015748031497,
          "duration": 0.07692300000000074
        },
        {
          "name": "D#2",
          "midi": 39,
          "time": 20.769210000000054,
          "velocity": 0.7874015748031497,
          "duration": 0.07692300000000074
        },
        {
          "name": "D#2",
          "midi": 39,
          "time": 20.884594500000055,
          "velocity": 0.7874015748031497,
          "duration": 0.07692300000000074
        },
        {
          "name": "D#2",
          "midi": 39,
          "time": 20.999979000000057,
          "velocity": 0.7874015748031497,
          "duration": 0.07692300000000074
        },
        {
          "name": "D#2",
          "midi": 39,
          "time": 21.115363500000058,
          "velocity": 0.7874015748031497,
          "duration": 0.07692300000000074
        },
        {
          "name": "D2",
          "midi": 38,
          "time": 21.23074800000006,
          "velocity": 0.7874015748031497,
          "duration": 0.07692300000000074
        },
        {
          "name": "D#2",
          "midi": 39,
          "time": 21.34613250000006,
          "velocity": 0.7874015748031497,
          "duration": 0.07692300000000074
        },
        {
          "name": "D#2",
          "midi": 39,
          "time": 21.46151700000006,
          "velocity": 0.7874015748031497,
          "duration": 0.07692300000000074
        },
        {
          "name": "D#2",
          "midi": 39,
          "time": 21.576901500000062,
          "velocity": 0.7874015748031497,
          "duration": 0.07692300000000074
        },
        {
          "name": "D2",
          "midi": 38,
          "time": 21.692286000000063,
          "velocity": 0.7874015748031497,
          "duration": 0.07692300000000074
        },
        {
          "name": "D#2",
          "midi": 39,
          "time": 21.807670500000064,
          "velocity": 0.7874015748031497,
          "duration": 0.07692300000000074
        },
        {
          "name": "D#2",
          "midi": 39,
          "time": 21.923055000000065,
          "velocity": 0.7874015748031497,
          "duration": 0.07692300000000074
        },
        {
          "name": "D#2",
          "midi": 39,
          "time": 22.038439500000067,
          "velocity": 0.7874015748031497,
          "duration": 0.07692300000000074
        },
        {
          "name": "D2",
          "midi": 38,
          "time": 22.153824000000068,
          "velocity": 0.7874015748031497,
          "duration": 0.07692300000000074
        },
        {
          "name": "D#2",
          "midi": 39,
          "time": 22.26920850000007,
          "velocity": 0.7874015748031497,
          "duration": 0.07692300000000074
        },
        {
          "name": "D#2",
          "midi": 39,
          "time": 22.38459300000007,
          "velocity": 0.7874015748031497,
          "duration": 0.07692300000000074
        },
        {
          "name": "D#2",
          "midi": 39,
          "time": 22.49997750000007,
          "velocity": 0.7874015748031497,
          "duration": 0.07692300000000074
        },
        {
          "name": "D#2",
          "midi": 39,
          "time": 22.615362000000072,
          "velocity": 0.7874015748031497,
          "duration": 0.07692300000000074
        },
        {
          "name": "D#2",
          "midi": 39,
          "time": 22.730746500000073,
          "velocity": 0.7874015748031497,
          "duration": 0.07692300000000074
        },
        {
          "name": "D#2",
          "midi": 39,
          "time": 22.846131000000074,
          "velocity": 0.7874015748031497,
          "duration": 0.07692300000000074
        },
        {
          "name": "D#2",
          "midi": 39,
          "time": 22.961515500000075,
          "velocity": 0.7874015748031497,
          "duration": 0.07692300000000074
        },
        {
          "name": "D2",
          "midi": 38,
          "time": 23.076900000000077,
          "velocity": 0.7874015748031497,
          "duration": 0.07692300000000074
        },
        {
          "name": "D#2",
          "midi": 39,
          "time": 23.192284500000078,
          "velocity": 0.7874015748031497,
          "duration": 0.07692300000000074
        },
        {
          "name": "D#2",
          "midi": 39,
          "time": 23.30766900000008,
          "velocity": 0.7874015748031497,
          "duration": 0.07692300000000074
        },
        {
          "name": "D#2",
          "midi": 39,
          "time": 23.42305350000008,
          "velocity": 0.7874015748031497,
          "duration": 0.07692300000000074
        },
        {
          "name": "D#2",
          "midi": 39,
          "time": 23.53843800000008,
          "velocity": 0.7874015748031497,
          "duration": 0.07692300000000074
        },
        {
          "name": "D#2",
          "midi": 39,
          "time": 23.653822500000082,
          "velocity": 0.7874015748031497,
          "duration": 0.07692300000000074
        },
        {
          "name": "D#2",
          "midi": 39,
          "time": 23.769207000000083,
          "velocity": 0.7874015748031497,
          "duration": 0.07692300000000074
        },
        {
          "name": "D#2",
          "midi": 39,
          "time": 23.884591500000084,
          "velocity": 0.7874015748031497,
          "duration": 0.07692300000000074
        },
        {
          "name": "D2",
          "midi": 38,
          "time": 23.999976000000085,
          "velocity": 0.7874015748031497,
          "duration": 0.07692300000000074
        },
        {
          "name": "D#2",
          "midi": 39,
          "time": 24.115360500000087,
          "velocity": 0.7874015748031497,
          "duration": 0.07692300000000074
        },
        {
          "name": "D#2",
          "midi": 39,
          "time": 24.230745000000088,
          "velocity": 0.7874015748031497,
          "duration": 0.07692300000000074
        },
        {
          "name": "D#2",
          "midi": 39,
          "time": 24.34612950000009,
          "velocity": 0.7874015748031497,
          "duration": 0.07692300000000074
        },
        {
          "name": "D#2",
          "midi": 39,
          "time": 24.46151400000009,
          "velocity": 0.7874015748031497,
          "duration": 0.07692300000000074
        },
        {
          "name": "D#2",
          "midi": 39,
          "time": 24.57689850000009,
          "velocity": 0.7874015748031497,
          "duration": 0.07692300000000074
        },
        {
          "name": "D#2",
          "midi": 39,
          "time": 24.692283000000092,
          "velocity": 0.7874015748031497,
          "duration": 0.07692300000000074
        },
        {
          "name": "D#2",
          "midi": 39,
          "time": 24.807667500000093,
          "velocity": 0.7874015748031497,
          "duration": 0.07692300000000074
        },
        {
          "name": "D2",
          "midi": 38,
          "time": 24.923052000000094,
          "velocity": 0.7874015748031497,
          "duration": 0.07692300000000074
        },
        {
          "name": "D#2",
          "midi": 39,
          "time": 25.038436500000095,
          "velocity": 0.7874015748031497,
          "duration": 0.07692300000000074
        },
        {
          "name": "D#2",
          "midi": 39,
          "time": 25.153821000000097,
          "velocity": 0.7874015748031497,
          "duration": 0.07692300000000074
        },
        {
          "name": "D#2",
          "midi": 39,
          "time": 25.269205500000098,
          "velocity": 0.7874015748031497,
          "duration": 0.07692300000000074
        },
        {
          "name": "D2",
          "midi": 38,
          "time": 25.3845900000001,
          "velocity": 0.7874015748031497,
          "duration": 0.07692300000000074
        },
        {
          "name": "D#2",
          "midi": 39,
          "time": 25.4999745000001,
          "velocity": 0.7874015748031497,
          "duration": 0.07692300000000074
        },
        {
          "name": "D#2",
          "midi": 39,
          "time": 25.6153590000001,
          "velocity": 0.7874015748031497,
          "duration": 0.07692300000000074
        },
        {
          "name": "D#2",
          "midi": 39,
          "time": 25.730743500000102,
          "velocity": 0.7874015748031497,
          "duration": 0.07692300000000074
        },
        {
          "name": "D2",
          "midi": 38,
          "time": 25.846128000000103,
          "velocity": 0.7874015748031497,
          "duration": 0.07692300000000074
        },
        {
          "name": "D#2",
          "midi": 39,
          "time": 25.961512500000104,
          "velocity": 0.7874015748031497,
          "duration": 0.07692300000000074
        },
        {
          "name": "D#2",
          "midi": 39,
          "time": 26.076897000000105,
          "velocity": 0.7874015748031497,
          "duration": 0.07692300000000074
        },
        {
          "name": "D#2",
          "midi": 39,
          "time": 26.192281500000107,
          "velocity": 0.7874015748031497,
          "duration": 0.07692300000000074
        },
        {
          "name": "D#2",
          "midi": 39,
          "time": 26.307666000000108,
          "velocity": 0.7874015748031497,
          "duration": 0.07692300000000074
        },
        {
          "name": "D#2",
          "midi": 39,
          "time": 26.42305050000011,
          "velocity": 0.7874015748031497,
          "duration": 0.07692300000000074
        },
        {
          "name": "D#2",
          "midi": 39,
          "time": 26.53843500000011,
          "velocity": 0.7874015748031497,
          "duration": 0.07692300000000074
        },
        {
          "name": "D#2",
          "midi": 39,
          "time": 26.65381950000011,
          "velocity": 0.7874015748031497,
          "duration": 0.07692300000000074
        },
        {
          "name": "D2",
          "midi": 38,
          "time": 26.769204000000112,
          "velocity": 0.7874015748031497,
          "duration": 0.07692300000000074
        },
        {
          "name": "D#2",
          "midi": 39,
          "time": 26.884588500000113,
          "velocity": 0.7874015748031497,
          "duration": 0.07692300000000074
        },
        {
          "name": "D#2",
          "midi": 39,
          "time": 26.999973000000114,
          "velocity": 0.7874015748031497,
          "duration": 0.07692300000000074
        },
        {
          "name": "D#2",
          "midi": 39,
          "time": 27.115357500000115,
          "velocity": 0.7874015748031497,
          "duration": 0.07692300000000074
        },
        {
          "name": "D#2",
          "midi": 39,
          "time": 27.230742000000117,
          "velocity": 0.7874015748031497,
          "duration": 0.07692300000000074
        },
        {
          "name": "D#2",
          "midi": 39,
          "time": 27.346126500000118,
          "velocity": 0.7874015748031497,
          "duration": 0.07692300000000074
        },
        {
          "name": "D#2",
          "midi": 39,
          "time": 27.46151100000012,
          "velocity": 0.7874015748031497,
          "duration": 0.07692300000000074
        },
        {
          "name": "D#2",
          "midi": 39,
          "time": 27.57689550000012,
          "velocity": 0.7874015748031497,
          "duration": 0.07692300000000074
        },
        {
          "name": "D2",
          "midi": 38,
          "time": 27.69228000000012,
          "velocity": 0.7874015748031497,
          "duration": 0.07692300000000074
        },
        {
          "name": "D#2",
          "midi": 39,
          "time": 27.807664500000122,
          "velocity": 0.7874015748031497,
          "duration": 0.07692300000000074
        },
        {
          "name": "D#2",
          "midi": 39,
          "time": 27.923049000000123,
          "velocity": 0.7874015748031497,
          "duration": 0.07692300000000074
        },
        {
          "name": "D#2",
          "midi": 39,
          "time": 28.038433500000124,
          "velocity": 0.7874015748031497,
          "duration": 0.07692300000000074
        },
        {
          "name": "D#2",
          "midi": 39,
          "time": 28.153818000000125,
          "velocity": 0.7874015748031497,
          "duration": 0.07692300000000074
        },
        {
          "name": "D#2",
          "midi": 39,
          "time": 28.269202500000127,
          "velocity": 0.7874015748031497,
          "duration": 0.07692300000000074
        },
        {
          "name": "D#2",
          "midi": 39,
          "time": 28.384587000000128,
          "velocity": 0.7874015748031497,
          "duration": 0.07692300000000074
        },
        {
          "name": "D#2",
          "midi": 39,
          "time": 28.49997150000013,
          "velocity": 0.7874015748031497,
          "duration": 0.07692300000000074
        },
        {
          "name": "D2",
          "midi": 38,
          "time": 28.61535600000013,
          "velocity": 0.7874015748031497,
          "duration": 0.07692300000000074
        },
        {
          "name": "D#2",
          "midi": 39,
          "time": 28.73074050000013,
          "velocity": 0.7874015748031497,
          "duration": 0.07692300000000074
        },
        {
          "name": "D#2",
          "midi": 39,
          "time": 28.846125000000132,
          "velocity": 0.7874015748031497,
          "duration": 0.07692300000000074
        },
        {
          "name": "D#2",
          "midi": 39,
          "time": 28.961509500000133,
          "velocity": 0.7874015748031497,
          "duration": 0.07692300000000074
        },
        {
          "name": "D2",
          "midi": 38,
          "time": 29.076894000000134,
          "velocity": 0.7874015748031497,
          "duration": 0.07692300000000074
        },
        {
          "name": "D#2",
          "midi": 39,
          "time": 29.192278500000135,
          "velocity": 0.7874015748031497,
          "duration": 0.07692300000000074
        },
        {
          "name": "D#2",
          "midi": 39,
          "time": 29.307663000000137,
          "velocity": 0.7874015748031497,
          "duration": 0.07692300000000074
        },
        {
          "name": "D#2",
          "midi": 39,
          "time": 29.423047500000138,
          "velocity": 0.7874015748031497,
          "duration": 0.07692300000000074
        },
        {
          "name": "D2",
          "midi": 38,
          "time": 29.53843200000014,
          "velocity": 0.7874015748031497,
          "duration": 0.07692300000000074
        },
        {
          "name": "D#2",
          "midi": 39,
          "time": 29.65381650000014,
          "velocity": 0.7874015748031497,
          "duration": 0.07692300000000074
        },
        {
          "name": "D#2",
          "midi": 39,
          "time": 29.76920100000014,
          "velocity": 0.7874015748031497,
          "duration": 0.07692300000000074
        },
        {
          "name": "D#2",
          "midi": 39,
          "time": 29.884585500000142,
          "velocity": 0.7874015748031497,
          "duration": 0.07692300000000074
        },
        {
          "name": "D#2",
          "midi": 39,
          "time": 29.999970000000143,
          "velocity": 0.7874015748031497,
          "duration": 0.07692300000000074
        },
        {
          "name": "D#2",
          "midi": 39,
          "time": 30.115354500000144,
          "velocity": 0.7874015748031497,
          "duration": 0.07692300000000074
        },
        {
          "name": "D#2",
          "midi": 39,
          "time": 30.230739000000145,
          "velocity": 0.7874015748031497,
          "duration": 0.07692300000000074
        },
        {
          "name": "D#2",
          "midi": 39,
          "time": 30.346123500000147,
          "velocity": 0.7874015748031497,
          "duration": 0.07692300000000074
        },
        {
          "name": "D2",
          "midi": 38,
          "time": 30.461508000000148,
          "velocity": 0.7874015748031497,
          "duration": 0.07692300000000074
        },
        {
          "name": "D#2",
          "midi": 39,
          "time": 30.57689250000015,
          "velocity": 0.7874015748031497,
          "duration": 0.07692300000000074
        },
        {
          "name": "D#2",
          "midi": 39,
          "time": 30.69227700000015,
          "velocity": 0.7874015748031497,
          "duration": 0.07692300000000074
        },
        {
          "name": "D#2",
          "midi": 39,
          "time": 30.80766150000015,
          "velocity": 0.7874015748031497,
          "duration": 0.07692300000000074
        },
        {
          "name": "D#2",
          "midi": 39,
          "time": 30.923046000000152,
          "velocity": 0.7874015748031497,
          "duration": 0.07692300000000074
        },
        {
          "name": "D#2",
          "midi": 39,
          "time": 31.038430500000153,
          "velocity": 0.7874015748031497,
          "duration": 0.07692300000000074
        },
        {
          "name": "D#2",
          "midi": 39,
          "time": 31.153815000000154,
          "velocity": 0.7874015748031497,
          "duration": 0.07692300000000074
        },
        {
          "name": "D#2",
          "midi": 39,
          "time": 31.269199500000155,
          "velocity": 0.7874015748031497,
          "duration": 0.07692300000000074
        },
        {
          "name": "D2",
          "midi": 38,
          "time": 31.384584000000157,
          "velocity": 0.7874015748031497,
          "duration": 0.07692300000000074
        },
        {
          "name": "D#2",
          "midi": 39,
          "time": 31.499968500000158,
          "velocity": 0.7874015748031497,
          "duration": 0.07692300000000074
        },
        {
          "name": "D#2",
          "midi": 39,
          "time": 31.61535300000016,
          "velocity": 0.7874015748031497,
          "duration": 0.07692300000000074
        },
        {
          "name": "D#2",
          "midi": 39,
          "time": 31.73073750000016,
          "velocity": 0.7874015748031497,
          "duration": 0.07692300000000074
        },
        {
          "name": "D#2",
          "midi": 39,
          "time": 31.84612200000016,
          "velocity": 0.7874015748031497,
          "duration": 0.07692300000000074
        },
        {
          "name": "D#2",
          "midi": 39,
          "time": 31.961506500000162,
          "velocity": 0.7874015748031497,
          "duration": 0.07692300000000074
        },
        {
          "name": "D#2",
          "midi": 39,
          "time": 32.07689100000016,
          "velocity": 0.7874015748031497,
          "duration": 0.07692300000000074
        },
        {
          "name": "D#2",
          "midi": 39,
          "time": 32.19227550000016,
          "velocity": 0.7874015748031497,
          "duration": 0.07692300000000074
        },
        {
          "name": "D2",
          "midi": 38,
          "time": 32.307660000000155,
          "velocity": 0.7874015748031497,
          "duration": 0.07692300000000074
        },
        {
          "name": "D#2",
          "midi": 39,
          "time": 32.42304450000015,
          "velocity": 0.7874015748031497,
          "duration": 0.07692300000000074
        },
        {
          "name": "D#2",
          "midi": 39,
          "time": 32.53842900000015,
          "velocity": 0.7874015748031497,
          "duration": 0.07692300000000074
        },
        {
          "name": "D#2",
          "midi": 39,
          "time": 32.65381350000015,
          "velocity": 0.7874015748031497,
          "duration": 0.07692300000000074
        },
        {
          "name": "D2",
          "midi": 38,
          "time": 32.769198000000145,
          "velocity": 0.7874015748031497,
          "duration": 0.07692300000000074
        },
        {
          "name": "D#2",
          "midi": 39,
          "time": 32.88458250000014,
          "velocity": 0.7874015748031497,
          "duration": 0.07692300000000074
        },
        {
          "name": "D#2",
          "midi": 39,
          "time": 32.99996700000014,
          "velocity": 0.7874015748031497,
          "duration": 0.07692300000000074
        },
        {
          "name": "D#2",
          "midi": 39,
          "time": 33.11535150000014,
          "velocity": 0.7874015748031497,
          "duration": 0.07692300000000074
        },
        {
          "name": "D2",
          "midi": 38,
          "time": 33.230736000000135,
          "velocity": 0.7874015748031497,
          "duration": 0.07692300000000074
        },
        {
          "name": "D#2",
          "midi": 39,
          "time": 33.34612050000013,
          "velocity": 0.7874015748031497,
          "duration": 0.07692300000000074
        },
        {
          "name": "D#2",
          "midi": 39,
          "time": 33.46150500000013,
          "velocity": 0.7874015748031497,
          "duration": 0.07692300000000074
        },
        {
          "name": "D#2",
          "midi": 39,
          "time": 33.57688950000013,
          "velocity": 0.7874015748031497,
          "duration": 0.07692300000000074
        },
        {
          "name": "D#2",
          "midi": 39,
          "time": 33.692274000000126,
          "velocity": 0.7874015748031497,
          "duration": 0.07692300000000074
        },
        {
          "name": "D#2",
          "midi": 39,
          "time": 33.80765850000012,
          "velocity": 0.7874015748031497,
          "duration": 0.07692300000000074
        },
        {
          "name": "D#2",
          "midi": 39,
          "time": 33.92304300000012,
          "velocity": 0.7874015748031497,
          "duration": 0.07692300000000074
        },
        {
          "name": "D#2",
          "midi": 39,
          "time": 34.03842750000012,
          "velocity": 0.7874015748031497,
          "duration": 0.07692300000000074
        },
        {
          "name": "D2",
          "midi": 38,
          "time": 34.153812000000116,
          "velocity": 0.7874015748031497,
          "duration": 0.07692300000000074
        },
        {
          "name": "D#2",
          "midi": 39,
          "time": 34.26919650000011,
          "velocity": 0.7874015748031497,
          "duration": 0.07692300000000074
        },
        {
          "name": "D#2",
          "midi": 39,
          "time": 34.38458100000011,
          "velocity": 0.7874015748031497,
          "duration": 0.07692300000000074
        },
        {
          "name": "D#2",
          "midi": 39,
          "time": 34.49996550000011,
          "velocity": 0.7874015748031497,
          "duration": 0.07692300000000074
        },
        {
          "name": "D#2",
          "midi": 39,
          "time": 34.615350000000106,
          "velocity": 0.7874015748031497,
          "duration": 0.07692300000000074
        },
        {
          "name": "D#2",
          "midi": 39,
          "time": 34.7307345000001,
          "velocity": 0.7874015748031497,
          "duration": 0.07692300000000074
        },
        {
          "name": "D#2",
          "midi": 39,
          "time": 34.8461190000001,
          "velocity": 0.7874015748031497,
          "duration": 0.07692300000000074
        },
        {
          "name": "D#2",
          "midi": 39,
          "time": 34.9615035000001,
          "velocity": 0.7874015748031497,
          "duration": 0.07692300000000074
        },
        {
          "name": "D2",
          "midi": 38,
          "time": 35.076888000000096,
          "velocity": 0.7874015748031497,
          "duration": 0.07692300000000074
        },
        {
          "name": "D#2",
          "midi": 39,
          "time": 35.192272500000094,
          "velocity": 0.7874015748031497,
          "duration": 0.07692300000000074
        },
        {
          "name": "D#2",
          "midi": 39,
          "time": 35.30765700000009,
          "velocity": 0.7874015748031497,
          "duration": 0.07692300000000074
        },
        {
          "name": "D#2",
          "midi": 39,
          "time": 35.42304150000009,
          "velocity": 0.7874015748031497,
          "duration": 0.07692300000000074
        },
        {
          "name": "D#2",
          "midi": 39,
          "time": 35.538426000000086,
          "velocity": 0.7874015748031497,
          "duration": 0.07692300000000074
        },
        {
          "name": "D#2",
          "midi": 39,
          "time": 35.653810500000084,
          "velocity": 0.7874015748031497,
          "duration": 0.07692300000000074
        },
        {
          "name": "D#2",
          "midi": 39,
          "time": 35.76919500000008,
          "velocity": 0.7874015748031497,
          "duration": 0.07692300000000074
        },
        {
          "name": "D#2",
          "midi": 39,
          "time": 35.88457950000008,
          "velocity": 0.7874015748031497,
          "duration": 0.07692300000000074
        },
        {
          "name": "D2",
          "midi": 38,
          "time": 35.99996400000008,
          "velocity": 0.7874015748031497,
          "duration": 0.07692300000000074
        },
        {
          "name": "D#2",
          "midi": 39,
          "time": 36.115348500000074,
          "velocity": 0.7874015748031497,
          "duration": 0.07692300000000074
        },
        {
          "name": "D#2",
          "midi": 39,
          "time": 36.23073300000007,
          "velocity": 0.7874015748031497,
          "duration": 0.07692300000000074
        },
        {
          "name": "D#2",
          "midi": 39,
          "time": 36.34611750000007,
          "velocity": 0.7874015748031497,
          "duration": 0.07692300000000074
        },
        {
          "name": "D2",
          "midi": 38,
          "time": 36.46150200000007,
          "velocity": 0.7874015748031497,
          "duration": 0.07692300000000074
        },
        {
          "name": "D#2",
          "midi": 39,
          "time": 36.576886500000064,
          "velocity": 0.7874015748031497,
          "duration": 0.07692300000000074
        },
        {
          "name": "D#2",
          "midi": 39,
          "time": 36.69227100000006,
          "velocity": 0.7874015748031497,
          "duration": 0.07692300000000074
        },
        {
          "name": "D#2",
          "midi": 39,
          "time": 36.80765550000006,
          "velocity": 0.7874015748031497,
          "duration": 0.07692300000000074
        },
        {
          "name": "D2",
          "midi": 38,
          "time": 36.92304000000006,
          "velocity": 0.7874015748031497,
          "duration": 0.07692300000000074
        },
        {
          "name": "D#2",
          "midi": 39,
          "time": 37.038424500000055,
          "velocity": 0.7874015748031497,
          "duration": 0.07692300000000074
        },
        {
          "name": "D#2",
          "midi": 39,
          "time": 37.15380900000005,
          "velocity": 0.7874015748031497,
          "duration": 0.07692300000000074
        },
        {
          "name": "D#2",
          "midi": 39,
          "time": 37.26919350000005,
          "velocity": 0.7874015748031497,
          "duration": 0.07692300000000074
        },
        {
          "name": "D#2",
          "midi": 39,
          "time": 37.38457800000005,
          "velocity": 0.7874015748031497,
          "duration": 0.07692300000000074
        },
        {
          "name": "D#2",
          "midi": 39,
          "time": 37.499962500000045,
          "velocity": 0.7874015748031497,
          "duration": 0.07692300000000074
        },
        {
          "name": "D#2",
          "midi": 39,
          "time": 37.61534700000004,
          "velocity": 0.7874015748031497,
          "duration": 0.07692300000000074
        },
        {
          "name": "D#2",
          "midi": 39,
          "time": 37.73073150000004,
          "velocity": 0.7874015748031497,
          "duration": 0.07692300000000074
        },
        {
          "name": "D2",
          "midi": 38,
          "time": 37.84611600000004,
          "velocity": 0.7874015748031497,
          "duration": 0.07692300000000074
        },
        {
          "name": "D#2",
          "midi": 39,
          "time": 37.961500500000035,
          "velocity": 0.7874015748031497,
          "duration": 0.07692300000000074
        },
        {
          "name": "D#2",
          "midi": 39,
          "time": 38.07688500000003,
          "velocity": 0.7874015748031497,
          "duration": 0.07692300000000074
        },
        {
          "name": "D#2",
          "midi": 39,
          "time": 38.19226950000003,
          "velocity": 0.7874015748031497,
          "duration": 0.07692300000000074
        },
        {
          "name": "D#2",
          "midi": 39,
          "time": 38.30765400000003,
          "velocity": 0.7874015748031497,
          "duration": 0.07692300000000074
        },
        {
          "name": "D#2",
          "midi": 39,
          "time": 38.423038500000025,
          "velocity": 0.7874015748031497,
          "duration": 0.07692300000000074
        },
        {
          "name": "D#2",
          "midi": 39,
          "time": 38.53842300000002,
          "velocity": 0.7874015748031497,
          "duration": 0.07692300000000074
        },
        {
          "name": "D#2",
          "midi": 39,
          "time": 38.65380750000002,
          "velocity": 0.7874015748031497,
          "duration": 0.07692300000000074
        },
        {
          "name": "D2",
          "midi": 38,
          "time": 38.76919200000002,
          "velocity": 0.7874015748031497,
          "duration": 0.07692300000000074
        },
        {
          "name": "D#2",
          "midi": 39,
          "time": 38.884576500000016,
          "velocity": 0.7874015748031497,
          "duration": 0.07692300000000074
        },
        {
          "name": "D#2",
          "midi": 39,
          "time": 38.99996100000001,
          "velocity": 0.7874015748031497,
          "duration": 0.07692300000000074
        },
        {
          "name": "D#2",
          "midi": 39,
          "time": 39.11534550000001,
          "velocity": 0.7874015748031497,
          "duration": 0.07692300000000074
        },
        {
          "name": "D#2",
          "midi": 39,
          "time": 39.23073000000001,
          "velocity": 0.7874015748031497,
          "duration": 0.07692300000000074
        },
        {
          "name": "D#2",
          "midi": 39,
          "time": 39.346114500000006,
          "velocity": 0.7874015748031497,
          "duration": 0.07692300000000074
        },
        {
          "name": "D#2",
          "midi": 39,
          "time": 39.461499,
          "velocity": 0.7874015748031497,
          "duration": 0.07692300000000074
        },
        {
          "name": "D#2",
          "midi": 39,
          "time": 39.5768835,
          "velocity": 0.7874015748031497,
          "duration": 0.07692300000000074
        },
        {
          "name": "D2",
          "midi": 38,
          "time": 39.692268,
          "velocity": 0.7874015748031497,
          "duration": 0.07692300000000074
        },
        {
          "name": "D#2",
          "midi": 39,
          "time": 39.807652499999996,
          "velocity": 0.7874015748031497,
          "duration": 0.07692300000000074
        },
        {
          "name": "D#2",
          "midi": 39,
          "time": 39.923036999999994,
          "velocity": 0.7874015748031497,
          "duration": 0.07692300000000074
        },
        {
          "name": "D#2",
          "midi": 39,
          "time": 40.03842149999999,
          "velocity": 0.7874015748031497,
          "duration": 0.07692300000000074
        },
        {
          "name": "D2",
          "midi": 38,
          "time": 40.15380599999999,
          "velocity": 0.7874015748031497,
          "duration": 0.07692300000000074
        },
        {
          "name": "D#2",
          "midi": 39,
          "time": 40.269190499999986,
          "velocity": 0.7874015748031497,
          "duration": 0.07692300000000074
        },
        {
          "name": "D#2",
          "midi": 39,
          "time": 40.384574999999984,
          "velocity": 0.7874015748031497,
          "duration": 0.07692300000000074
        },
        {
          "name": "D#2",
          "midi": 39,
          "time": 40.49995949999998,
          "velocity": 0.7874015748031497,
          "duration": 0.07692300000000074
        },
        {
          "name": "D2",
          "midi": 38,
          "time": 40.61534399999998,
          "velocity": 0.7874015748031497,
          "duration": 0.07692300000000074
        },
        {
          "name": "D#2",
          "midi": 39,
          "time": 40.73072849999998,
          "velocity": 0.7874015748031497,
          "duration": 0.07692300000000074
        },
        {
          "name": "D#2",
          "midi": 39,
          "time": 40.846112999999974,
          "velocity": 0.7874015748031497,
          "duration": 0.07692300000000074
        },
        {
          "name": "D#2",
          "midi": 39,
          "time": 40.96149749999997,
          "velocity": 0.7874015748031497,
          "duration": 0.07692300000000074
        },
        {
          "name": "D#2",
          "midi": 39,
          "time": 41.07688199999997,
          "velocity": 0.7874015748031497,
          "duration": 0.07692300000000074
        },
        {
          "name": "D#2",
          "midi": 39,
          "time": 41.19226649999997,
          "velocity": 0.7874015748031497,
          "duration": 0.07692300000000074
        },
        {
          "name": "D#2",
          "midi": 39,
          "time": 41.307650999999964,
          "velocity": 0.7874015748031497,
          "duration": 0.07692300000000074
        },
        {
          "name": "D#2",
          "midi": 39,
          "time": 41.42303549999996,
          "velocity": 0.7874015748031497,
          "duration": 0.07692300000000074
        },
        {
          "name": "D2",
          "midi": 38,
          "time": 41.53841999999996,
          "velocity": 0.7874015748031497,
          "duration": 0.07692300000000074
        },
        {
          "name": "D#2",
          "midi": 39,
          "time": 41.65380449999996,
          "velocity": 0.7874015748031497,
          "duration": 0.07692300000000074
        },
        {
          "name": "D#2",
          "midi": 39,
          "time": 41.769188999999955,
          "velocity": 0.7874015748031497,
          "duration": 0.07692300000000074
        },
        {
          "name": "D#2",
          "midi": 39,
          "time": 41.88457349999995,
          "velocity": 0.7874015748031497,
          "duration": 0.07692300000000074
        },
        {
          "name": "D#2",
          "midi": 39,
          "time": 41.99995799999995,
          "velocity": 0.7874015748031497,
          "duration": 0.07692300000000074
        },
        {
          "name": "D#2",
          "midi": 39,
          "time": 42.11534249999995,
          "velocity": 0.7874015748031497,
          "duration": 0.07692300000000074
        },
        {
          "name": "D#2",
          "midi": 39,
          "time": 42.230726999999945,
          "velocity": 0.7874015748031497,
          "duration": 0.07692300000000074
        },
        {
          "name": "D#2",
          "midi": 39,
          "time": 42.34611149999994,
          "velocity": 0.7874015748031497,
          "duration": 0.07692300000000074
        },
        {
          "name": "D2",
          "midi": 38,
          "time": 42.46149599999994,
          "velocity": 0.7874015748031497,
          "duration": 0.07692300000000074
        },
        {
          "name": "D#2",
          "midi": 39,
          "time": 42.57688049999994,
          "velocity": 0.7874015748031497,
          "duration": 0.07692300000000074
        },
        {
          "name": "D#2",
          "midi": 39,
          "time": 42.692264999999935,
          "velocity": 0.7874015748031497,
          "duration": 0.07692300000000074
        },
        {
          "name": "D#2",
          "midi": 39,
          "time": 42.80764949999993,
          "velocity": 0.7874015748031497,
          "duration": 0.07692300000000074
        },
        {
          "name": "D#2",
          "midi": 39,
          "time": 42.92303399999993,
          "velocity": 0.7874015748031497,
          "duration": 0.07692300000000074
        },
        {
          "name": "D#2",
          "midi": 39,
          "time": 43.03841849999993,
          "velocity": 0.7874015748031497,
          "duration": 0.07692300000000074
        },
        {
          "name": "D#2",
          "midi": 39,
          "time": 43.153802999999925,
          "velocity": 0.7874015748031497,
          "duration": 0.07692300000000074
        },
        {
          "name": "D#2",
          "midi": 39,
          "time": 43.26918749999992,
          "velocity": 0.7874015748031497,
          "duration": 0.07692300000000074
        },
        {
          "name": "D2",
          "midi": 38,
          "time": 43.38457199999992,
          "velocity": 0.7874015748031497,
          "duration": 0.07692300000000074
        },
        {
          "name": "D#2",
          "midi": 39,
          "time": 43.49995649999992,
          "velocity": 0.7874015748031497,
          "duration": 0.07692300000000074
        },
        {
          "name": "D#2",
          "midi": 39,
          "time": 43.615340999999916,
          "velocity": 0.7874015748031497,
          "duration": 0.07692300000000074
        },
        {
          "name": "D#2",
          "midi": 39,
          "time": 43.73072549999991,
          "velocity": 0.7874015748031497,
          "duration": 0.07692300000000074
        },
        {
          "name": "D2",
          "midi": 38,
          "time": 43.84610999999991,
          "velocity": 0.7874015748031497,
          "duration": 0.07692300000000074
        },
        {
          "name": "D#2",
          "midi": 39,
          "time": 43.96149449999991,
          "velocity": 0.7874015748031497,
          "duration": 0.07692300000000074
        },
        {
          "name": "D#2",
          "midi": 39,
          "time": 44.076878999999906,
          "velocity": 0.7874015748031497,
          "duration": 0.07692300000000074
        },
        {
          "name": "D#2",
          "midi": 39,
          "time": 44.1922634999999,
          "velocity": 0.7874015748031497,
          "duration": 0.07692300000000074
        },
        {
          "name": "D2",
          "midi": 38,
          "time": 44.3076479999999,
          "velocity": 0.7874015748031497,
          "duration": 0.07692300000000074
        },
        {
          "name": "D#2",
          "midi": 39,
          "time": 44.4230324999999,
          "velocity": 0.7874015748031497,
          "duration": 0.07692300000000074
        },
        {
          "name": "D#2",
          "midi": 39,
          "time": 44.538416999999896,
          "velocity": 0.7874015748031497,
          "duration": 0.07692300000000074
        },
        {
          "name": "D#2",
          "midi": 39,
          "time": 44.653801499999894,
          "velocity": 0.7874015748031497,
          "duration": 0.07692300000000074
        },
        {
          "name": "D#2",
          "midi": 39,
          "time": 44.76918599999989,
          "velocity": 0.7874015748031497,
          "duration": 0.07692300000000074
        },
        {
          "name": "D#2",
          "midi": 39,
          "time": 44.88457049999989,
          "velocity": 0.7874015748031497,
          "duration": 0.07692300000000074
        },
        {
          "name": "D#2",
          "midi": 39,
          "time": 44.999954999999886,
          "velocity": 0.7874015748031497,
          "duration": 0.07692300000000074
        },
        {
          "name": "D#2",
          "midi": 39,
          "time": 45.115339499999884,
          "velocity": 0.7874015748031497,
          "duration": 0.07692300000000074
        },
        {
          "name": "D2",
          "midi": 38,
          "time": 45.23072399999988,
          "velocity": 0.7874015748031497,
          "duration": 0.07692300000000074
        },
        {
          "name": "D#2",
          "midi": 39,
          "time": 45.34610849999988,
          "velocity": 0.7874015748031497,
          "duration": 0.07692300000000074
        },
        {
          "name": "D#2",
          "midi": 39,
          "time": 45.46149299999988,
          "velocity": 0.7874015748031497,
          "duration": 0.07692300000000074
        },
        {
          "name": "D#2",
          "midi": 39,
          "time": 45.576877499999874,
          "velocity": 0.7874015748031497,
          "duration": 0.07692300000000074
        },
        {
          "name": "D#2",
          "midi": 39,
          "time": 45.69226199999987,
          "velocity": 0.7874015748031497,
          "duration": 0.07692300000000074
        },
        {
          "name": "D#2",
          "midi": 39,
          "time": 45.80764649999987,
          "velocity": 0.7874015748031497,
          "duration": 0.07692300000000074
        },
        {
          "name": "D#2",
          "midi": 39,
          "time": 45.92303099999987,
          "velocity": 0.7874015748031497,
          "duration": 0.07692300000000074
        },
        {
          "name": "D#2",
          "midi": 39,
          "time": 46.038415499999864,
          "velocity": 0.7874015748031497,
          "duration": 0.07692300000000074
        },
        {
          "name": "D2",
          "midi": 38,
          "time": 46.15379999999986,
          "velocity": 0.7874015748031497,
          "duration": 0.07692300000000074
        },
        {
          "name": "D#2",
          "midi": 39,
          "time": 46.26918449999986,
          "velocity": 0.7874015748031497,
          "duration": 0.07692300000000074
        },
        {
          "name": "D#2",
          "midi": 39,
          "time": 46.38456899999986,
          "velocity": 0.7874015748031497,
          "duration": 0.07692300000000074
        },
        {
          "name": "D#2",
          "midi": 39,
          "time": 46.499953499999855,
          "velocity": 0.7874015748031497,
          "duration": 0.07692300000000074
        },
        {
          "name": "D#2",
          "midi": 39,
          "time": 46.61533799999985,
          "velocity": 0.7874015748031497,
          "duration": 0.07692300000000074
        },
        {
          "name": "D#2",
          "midi": 39,
          "time": 46.73072249999985,
          "velocity": 0.7874015748031497,
          "duration": 0.07692300000000074
        },
        {
          "name": "D#2",
          "midi": 39,
          "time": 46.84610699999985,
          "velocity": 0.7874015748031497,
          "duration": 0.07692300000000074
        },
        {
          "name": "D#2",
          "midi": 39,
          "time": 46.961491499999845,
          "velocity": 0.7874015748031497,
          "duration": 0.07692300000000074
        },
        {
          "name": "D2",
          "midi": 38,
          "time": 47.07687599999984,
          "velocity": 0.7874015748031497,
          "duration": 0.07692300000000074
        },
        {
          "name": "D#2",
          "midi": 39,
          "time": 47.19226049999984,
          "velocity": 0.7874015748031497,
          "duration": 0.07692300000000074
        },
        {
          "name": "D#2",
          "midi": 39,
          "time": 47.30764499999984,
          "velocity": 0.7874015748031497,
          "duration": 0.07692300000000074
        },
        {
          "name": "D#2",
          "midi": 39,
          "time": 47.423029499999835,
          "velocity": 0.7874015748031497,
          "duration": 0.07692300000000074
        },
        {
          "name": "D2",
          "midi": 38,
          "time": 47.53841399999983,
          "velocity": 0.7874015748031497,
          "duration": 0.07692300000000074
        },
        {
          "name": "D#2",
          "midi": 39,
          "time": 47.65379849999983,
          "velocity": 0.7874015748031497,
          "duration": 0.07692300000000074
        },
        {
          "name": "D#2",
          "midi": 39,
          "time": 47.76918299999983,
          "velocity": 0.7874015748031497,
          "duration": 0.07692300000000074
        },
        {
          "name": "D#2",
          "midi": 39,
          "time": 47.884567499999825,
          "velocity": 0.7874015748031497,
          "duration": 0.07692300000000074
        },
        {
          "name": "D2",
          "midi": 38,
          "time": 47.99995199999982,
          "velocity": 0.7874015748031497,
          "duration": 0.07692300000000074
        },
        {
          "name": "D#2",
          "midi": 39,
          "time": 48.11533649999982,
          "velocity": 0.7874015748031497,
          "duration": 0.07692300000000074
        },
        {
          "name": "D#2",
          "midi": 39,
          "time": 48.23072099999982,
          "velocity": 0.7874015748031497,
          "duration": 0.07692300000000074
        },
        {
          "name": "D#2",
          "midi": 39,
          "time": 48.346105499999815,
          "velocity": 0.7874015748031497,
          "duration": 0.07692300000000074
        },
        {
          "name": "D#2",
          "midi": 39,
          "time": 48.46148999999981,
          "velocity": 0.7874015748031497,
          "duration": 0.07692300000000074
        },
        {
          "name": "D#2",
          "midi": 39,
          "time": 48.57687449999981,
          "velocity": 0.7874015748031497,
          "duration": 0.07692300000000074
        },
        {
          "name": "D#2",
          "midi": 39,
          "time": 48.69225899999981,
          "velocity": 0.7874015748031497,
          "duration": 0.07692300000000074
        },
        {
          "name": "D#2",
          "midi": 39,
          "time": 48.807643499999806,
          "velocity": 0.7874015748031497,
          "duration": 0.07692300000000074
        },
        {
          "name": "D2",
          "midi": 38,
          "time": 48.9230279999998,
          "velocity": 0.7874015748031497,
          "duration": 0.07692300000000074
        },
        {
          "name": "D#2",
          "midi": 39,
          "time": 49.0384124999998,
          "velocity": 0.7874015748031497,
          "duration": 0.07692300000000074
        },
        {
          "name": "D#2",
          "midi": 39,
          "time": 49.1537969999998,
          "velocity": 0.7874015748031497,
          "duration": 0.07692300000000074
        },
        {
          "name": "D#2",
          "midi": 39,
          "time": 49.269181499999796,
          "velocity": 0.7874015748031497,
          "duration": 0.07692300000000074
        },
        {
          "name": "D#2",
          "midi": 39,
          "time": 49.38456599999979,
          "velocity": 0.7874015748031497,
          "duration": 0.07692300000000074
        },
        {
          "name": "D#2",
          "midi": 39,
          "time": 49.49995049999979,
          "velocity": 0.7874015748031497,
          "duration": 0.07692300000000074
        },
        {
          "name": "D#2",
          "midi": 39,
          "time": 49.61533499999979,
          "velocity": 0.7874015748031497,
          "duration": 0.07692300000000074
        },
        {
          "name": "D#2",
          "midi": 39,
          "time": 49.730719499999786,
          "velocity": 0.7874015748031497,
          "duration": 0.07692300000000074
        },
        {
          "name": "D2",
          "midi": 38,
          "time": 49.846103999999784,
          "velocity": 0.7874015748031497,
          "duration": 0.07692300000000074
        },
        {
          "name": "D#2",
          "midi": 39,
          "time": 49.96148849999978,
          "velocity": 0.7874015748031497,
          "duration": 0.07692300000000074
        },
        {
          "name": "D#2",
          "midi": 39,
          "time": 50.07687299999978,
          "velocity": 0.7874015748031497,
          "duration": 0.07692300000000074
        },
        {
          "name": "D#2",
          "midi": 39,
          "time": 50.192257499999776,
          "velocity": 0.7874015748031497,
          "duration": 0.07692300000000074
        },
        {
          "name": "D#2",
          "midi": 39,
          "time": 50.307641999999774,
          "velocity": 0.7874015748031497,
          "duration": 0.07692300000000074
        },
        {
          "name": "D#2",
          "midi": 39,
          "time": 50.42302649999977,
          "velocity": 0.7874015748031497,
          "duration": 0.07692300000000074
        },
        {
          "name": "D#2",
          "midi": 39,
          "time": 50.53841099999977,
          "velocity": 0.7874015748031497,
          "duration": 0.07692300000000074
        },
        {
          "name": "D#2",
          "midi": 39,
          "time": 50.65379549999977,
          "velocity": 0.7874015748031497,
          "duration": 0.07692300000000074
        },
        {
          "name": "D2",
          "midi": 38,
          "time": 50.769179999999764,
          "velocity": 0.7874015748031497,
          "duration": 0.07692300000000074
        },
        {
          "name": "D#2",
          "midi": 39,
          "time": 50.88456449999976,
          "velocity": 0.7874015748031497,
          "duration": 0.07692300000000074
        },
        {
          "name": "D#2",
          "midi": 39,
          "time": 50.99994899999976,
          "velocity": 0.7874015748031497,
          "duration": 0.07692300000000074
        },
        {
          "name": "D#2",
          "midi": 39,
          "time": 51.11533349999976,
          "velocity": 0.7874015748031497,
          "duration": 0.07692300000000074
        },
        {
          "name": "D2",
          "midi": 38,
          "time": 51.230717999999754,
          "velocity": 0.7874015748031497,
          "duration": 0.07692300000000074
        },
        {
          "name": "D#2",
          "midi": 39,
          "time": 51.34610249999975,
          "velocity": 0.7874015748031497,
          "duration": 0.07692300000000074
        },
        {
          "name": "D#2",
          "midi": 39,
          "time": 51.46148699999975,
          "velocity": 0.7874015748031497,
          "duration": 0.07692300000000074
        },
        {
          "name": "D#2",
          "midi": 39,
          "time": 51.57687149999975,
          "velocity": 0.7874015748031497,
          "duration": 0.07692300000000074
        },
        {
          "name": "D2",
          "midi": 38,
          "time": 51.692255999999745,
          "velocity": 0.7874015748031497,
          "duration": 0.07692300000000074
        },
        {
          "name": "D#2",
          "midi": 39,
          "time": 51.80764049999974,
          "velocity": 0.7874015748031497,
          "duration": 0.07692300000000074
        },
        {
          "name": "D#2",
          "midi": 39,
          "time": 51.92302499999974,
          "velocity": 0.7874015748031497,
          "duration": 0.07692300000000074
        },
        {
          "name": "D#2",
          "midi": 39,
          "time": 52.03840949999974,
          "velocity": 0.7874015748031497,
          "duration": 0.07692300000000074
        },
        {
          "name": "D#2",
          "midi": 39,
          "time": 52.153793999999735,
          "velocity": 0.7874015748031497,
          "duration": 0.07692300000000074
        },
        {
          "name": "D#2",
          "midi": 39,
          "time": 52.26917849999973,
          "velocity": 0.7874015748031497,
          "duration": 0.07692300000000074
        },
        {
          "name": "D#2",
          "midi": 39,
          "time": 52.38456299999973,
          "velocity": 0.7874015748031497,
          "duration": 0.07692300000000074
        },
        {
          "name": "D#2",
          "midi": 39,
          "time": 52.49994749999973,
          "velocity": 0.7874015748031497,
          "duration": 0.07692300000000074
        },
        {
          "name": "D2",
          "midi": 38,
          "time": 52.615331999999725,
          "velocity": 0.7874015748031497,
          "duration": 0.07692300000000074
        },
        {
          "name": "D#2",
          "midi": 39,
          "time": 52.73071649999972,
          "velocity": 0.7874015748031497,
          "duration": 0.07692300000000074
        },
        {
          "name": "D#2",
          "midi": 39,
          "time": 52.84610099999972,
          "velocity": 0.7874015748031497,
          "duration": 0.07692300000000074
        },
        {
          "name": "D#2",
          "midi": 39,
          "time": 52.96148549999972,
          "velocity": 0.7874015748031497,
          "duration": 0.07692300000000074
        },
        {
          "name": "D#2",
          "midi": 39,
          "time": 53.076869999999715,
          "velocity": 0.7874015748031497,
          "duration": 0.07692300000000074
        },
        {
          "name": "D#2",
          "midi": 39,
          "time": 53.19225449999971,
          "velocity": 0.7874015748031497,
          "duration": 0.07692300000000074
        },
        {
          "name": "D#2",
          "midi": 39,
          "time": 53.30763899999971,
          "velocity": 0.7874015748031497,
          "duration": 0.07692300000000074
        },
        {
          "name": "D#2",
          "midi": 39,
          "time": 53.42302349999971,
          "velocity": 0.7874015748031497,
          "duration": 0.07692300000000074
        },
        {
          "name": "D2",
          "midi": 38,
          "time": 53.538407999999706,
          "velocity": 0.7874015748031497,
          "duration": 0.07692300000000074
        },
        {
          "name": "D#2",
          "midi": 39,
          "time": 53.6537924999997,
          "velocity": 0.7874015748031497,
          "duration": 0.07692300000000074
        },
        {
          "name": "D#2",
          "midi": 39,
          "time": 53.7691769999997,
          "velocity": 0.7874015748031497,
          "duration": 0.07692300000000074
        },
        {
          "name": "D#2",
          "midi": 39,
          "time": 53.8845614999997,
          "velocity": 0.7874015748031497,
          "duration": 0.07692300000000074
        },
        {
          "name": "D#2",
          "midi": 39,
          "time": 53.999945999999696,
          "velocity": 0.7874015748031497,
          "duration": 0.07692300000000074
        },
        {
          "name": "D#2",
          "midi": 39,
          "time": 54.11533049999969,
          "velocity": 0.7874015748031497,
          "duration": 0.07692300000000074
        },
        {
          "name": "D#2",
          "midi": 39,
          "time": 54.23071499999969,
          "velocity": 0.7874015748031497,
          "duration": 0.07692300000000074
        },
        {
          "name": "D#2",
          "midi": 39,
          "time": 54.34609949999969,
          "velocity": 0.7874015748031497,
          "duration": 0.07692300000000074
        },
        {
          "name": "D2",
          "midi": 38,
          "time": 54.461483999999686,
          "velocity": 0.7874015748031497,
          "duration": 0.07692300000000074
        },
        {
          "name": "D#2",
          "midi": 39,
          "time": 54.576868499999684,
          "velocity": 0.7874015748031497,
          "duration": 0.07692300000000074
        },
        {
          "name": "D#2",
          "midi": 39,
          "time": 54.69225299999968,
          "velocity": 0.7874015748031497,
          "duration": 0.07692300000000074
        },
        {
          "name": "D#2",
          "midi": 39,
          "time": 54.80763749999968,
          "velocity": 0.7874015748031497,
          "duration": 0.07692300000000074
        },
        {
          "name": "D2",
          "midi": 38,
          "time": 54.923021999999676,
          "velocity": 0.7874015748031497,
          "duration": 0.07692300000000074
        },
        {
          "name": "D#2",
          "midi": 39,
          "time": 55.038406499999674,
          "velocity": 0.7874015748031497,
          "duration": 0.07692300000000074
        },
        {
          "name": "D#2",
          "midi": 39,
          "time": 55.15379099999967,
          "velocity": 0.7874015748031497,
          "duration": 0.07692300000000074
        },
        {
          "name": "D#2",
          "midi": 39,
          "time": 55.26917549999967,
          "velocity": 0.7874015748031497,
          "duration": 0.07692300000000074
        },
        {
          "name": "D2",
          "midi": 38,
          "time": 55.38455999999967,
          "velocity": 0.7874015748031497,
          "duration": 0.07692300000000074
        },
        {
          "name": "D#2",
          "midi": 39,
          "time": 55.499944499999664,
          "velocity": 0.7874015748031497,
          "duration": 0.07692300000000074
        },
        {
          "name": "D#2",
          "midi": 39,
          "time": 55.61532899999966,
          "velocity": 0.7874015748031497,
          "duration": 0.07692300000000074
        },
        {
          "name": "D#2",
          "midi": 39,
          "time": 55.73071349999966,
          "velocity": 0.7874015748031497,
          "duration": 0.07692300000000074
        },
        {
          "name": "D#2",
          "midi": 39,
          "time": 55.84609799999966,
          "velocity": 0.7874015748031497,
          "duration": 0.07692300000000074
        },
        {
          "name": "D#2",
          "midi": 39,
          "time": 55.961482499999654,
          "velocity": 0.7874015748031497,
          "duration": 0.07692300000000074
        },
        {
          "name": "D#2",
          "midi": 39,
          "time": 56.07686699999965,
          "velocity": 0.7874015748031497,
          "duration": 0.07692300000000074
        },
        {
          "name": "D#2",
          "midi": 39,
          "time": 56.19225149999965,
          "velocity": 0.7874015748031497,
          "duration": 0.07692300000000074
        },
        {
          "name": "D2",
          "midi": 38,
          "time": 56.30763599999965,
          "velocity": 0.7874015748031497,
          "duration": 0.07692300000000074
        },
        {
          "name": "D#2",
          "midi": 39,
          "time": 56.423020499999645,
          "velocity": 0.7874015748031497,
          "duration": 0.07692300000000074
        },
        {
          "name": "D#2",
          "midi": 39,
          "time": 56.53840499999964,
          "velocity": 0.7874015748031497,
          "duration": 0.07692300000000074
        },
        {
          "name": "D#2",
          "midi": 39,
          "time": 56.65378949999964,
          "velocity": 0.7874015748031497,
          "duration": 0.07692300000000074
        },
        {
          "name": "D#2",
          "midi": 39,
          "time": 56.76917399999964,
          "velocity": 0.7874015748031497,
          "duration": 0.07692300000000074
        },
        {
          "name": "D#2",
          "midi": 39,
          "time": 56.884558499999635,
          "velocity": 0.7874015748031497,
          "duration": 0.07692300000000074
        },
        {
          "name": "D#2",
          "midi": 39,
          "time": 56.99994299999963,
          "velocity": 0.7874015748031497,
          "duration": 0.07692300000000074
        },
        {
          "name": "D#2",
          "midi": 39,
          "time": 57.11532749999963,
          "velocity": 0.7874015748031497,
          "duration": 0.07692300000000074
        },
        {
          "name": "D2",
          "midi": 38,
          "time": 57.23071199999963,
          "velocity": 0.7874015748031497,
          "duration": 0.07692300000000074
        },
        {
          "name": "D#2",
          "midi": 39,
          "time": 57.346096499999625,
          "velocity": 0.7874015748031497,
          "duration": 0.07692300000000074
        },
        {
          "name": "D#2",
          "midi": 39,
          "time": 57.46148099999962,
          "velocity": 0.7874015748031497,
          "duration": 0.07692300000000074
        },
        {
          "name": "D#2",
          "midi": 39,
          "time": 57.57686549999962,
          "velocity": 0.7874015748031497,
          "duration": 0.07692300000000074
        },
        {
          "name": "D#2",
          "midi": 39,
          "time": 57.69224999999962,
          "velocity": 0.7874015748031497,
          "duration": 0.07692300000000074
        },
        {
          "name": "D#2",
          "midi": 39,
          "time": 57.807634499999615,
          "velocity": 0.7874015748031497,
          "duration": 0.07692300000000074
        },
        {
          "name": "D#2",
          "midi": 39,
          "time": 57.92301899999961,
          "velocity": 0.7874015748031497,
          "duration": 0.07692300000000074
        },
        {
          "name": "D#2",
          "midi": 39,
          "time": 58.03840349999961,
          "velocity": 0.7874015748031497,
          "duration": 0.07692300000000074
        },
        {
          "name": "D2",
          "midi": 38,
          "time": 58.15378799999961,
          "velocity": 0.7874015748031497,
          "duration": 0.07692300000000074
        },
        {
          "name": "D#2",
          "midi": 39,
          "time": 58.269172499999605,
          "velocity": 0.7874015748031497,
          "duration": 0.07692300000000074
        },
        {
          "name": "D#2",
          "midi": 39,
          "time": 58.3845569999996,
          "velocity": 0.7874015748031497,
          "duration": 0.07692300000000074
        },
        {
          "name": "D#2",
          "midi": 39,
          "time": 58.4999414999996,
          "velocity": 0.7874015748031497,
          "duration": 0.07692300000000074
        },
        {
          "name": "D2",
          "midi": 38,
          "time": 58.6153259999996,
          "velocity": 0.7874015748031497,
          "duration": 0.07692300000000074
        },
        {
          "name": "D#2",
          "midi": 39,
          "time": 58.730710499999596,
          "velocity": 0.7874015748031497,
          "duration": 0.07692300000000074
        },
        {
          "name": "D#2",
          "midi": 39,
          "time": 58.84609499999959,
          "velocity": 0.7874015748031497,
          "duration": 0.07692300000000074
        },
        {
          "name": "D#2",
          "midi": 39,
          "time": 58.96147949999959,
          "velocity": 0.7874015748031497,
          "duration": 0.07692300000000074
        },
        {
          "name": "A#1",
          "midi": 34,
          "time": 59.07686399999959,
          "velocity": 0.7874015748031497,
          "duration": 0.15384600000000148
        },
        {
          "name": "A#1",
          "midi": 34,
          "time": 59.30763299999959,
          "velocity": 0.7874015748031497,
          "duration": 0.15384600000000148
        },
        {
          "name": "A#1",
          "midi": 34,
          "time": 59.53840199999959,
          "velocity": 0.7874015748031497,
          "duration": 0.15384600000000148
        },
        {
          "name": "A#1",
          "midi": 34,
          "time": 59.769170999999595,
          "velocity": 0.7874015748031497,
          "duration": 0.15384600000000148
        },
        {
          "name": "A#1",
          "midi": 34,
          "time": 59.9999399999996,
          "velocity": 0.7874015748031497,
          "duration": 0.15384600000000148
        },
        {
          "name": "A#1",
          "midi": 34,
          "time": 60.2307089999996,
          "velocity": 0.7874015748031497,
          "duration": 0.15384600000000148
        },
        {
          "name": "A#1",
          "midi": 34,
          "time": 60.4614779999996,
          "velocity": 0.7874015748031497,
          "duration": 0.15384600000000148
        },
        {
          "name": "A#1",
          "midi": 34,
          "time": 60.692246999999604,
          "velocity": 0.7874015748031497,
          "duration": 0.15384600000000148
        },
        {
          "name": "A1",
          "midi": 33,
          "time": 60.923015999999606,
          "velocity": 0.7874015748031497,
          "duration": 0.15384600000000148
        },
        {
          "name": "A1",
          "midi": 33,
          "time": 61.15378499999961,
          "velocity": 0.7874015748031497,
          "duration": 0.15384600000000148
        },
        {
          "name": "A1",
          "midi": 33,
          "time": 61.38455399999961,
          "velocity": 0.7874015748031497,
          "duration": 0.15384600000000148
        },
        {
          "name": "A1",
          "midi": 33,
          "time": 61.61532299999961,
          "velocity": 0.7874015748031497,
          "duration": 0.15384600000000148
        },
        {
          "name": "G#1",
          "midi": 32,
          "time": 61.846091999999615,
          "velocity": 0.7874015748031497,
          "duration": 0.15384600000000148
        },
        {
          "name": "G#1",
          "midi": 32,
          "time": 62.07686099999962,
          "velocity": 0.7874015748031497,
          "duration": 0.15384600000000148
        },
        {
          "name": "G#1",
          "midi": 32,
          "time": 62.30762999999962,
          "velocity": 0.7874015748031497,
          "duration": 0.15384600000000148
        },
        {
          "name": "G#1",
          "midi": 32,
          "time": 62.53839899999962,
          "velocity": 0.7874015748031497,
          "duration": 0.15384600000000148
        },
        {
          "name": "D2",
          "midi": 38,
          "time": 62.769167999999624,
          "velocity": 0.7874015748031497,
          "duration": 0.07692300000000074
        },
        {
          "name": "D#2",
          "midi": 39,
          "time": 62.88455249999962,
          "velocity": 0.7874015748031497,
          "duration": 0.07692300000000074
        },
        {
          "name": "D#2",
          "midi": 39,
          "time": 62.99993699999962,
          "velocity": 0.7874015748031497,
          "duration": 0.07692300000000074
        },
        {
          "name": "D#2",
          "midi": 39,
          "time": 63.11532149999962,
          "velocity": 0.7874015748031497,
          "duration": 0.07692300000000074
        },
        {
          "name": "D#2",
          "midi": 39,
          "time": 63.230705999999614,
          "velocity": 0.7874015748031497,
          "duration": 0.07692300000000074
        },
        {
          "name": "D#2",
          "midi": 39,
          "time": 63.34609049999961,
          "velocity": 0.7874015748031497,
          "duration": 0.07692300000000074
        },
        {
          "name": "D#2",
          "midi": 39,
          "time": 63.46147499999961,
          "velocity": 0.7874015748031497,
          "duration": 0.07692300000000074
        },
        {
          "name": "D#2",
          "midi": 39,
          "time": 63.57685949999961,
          "velocity": 0.7874015748031497,
          "duration": 0.07692300000000074
        },
        {
          "name": "D2",
          "midi": 38,
          "time": 63.692243999999604,
          "velocity": 0.7874015748031497,
          "duration": 0.07692300000000074
        },
        {
          "name": "D#2",
          "midi": 39,
          "time": 63.8076284999996,
          "velocity": 0.7874015748031497,
          "duration": 0.07692300000000074
        },
        {
          "name": "D#2",
          "midi": 39,
          "time": 63.9230129999996,
          "velocity": 0.7874015748031497,
          "duration": 0.07692300000000074
        },
        {
          "name": "D#2",
          "midi": 39,
          "time": 64.0383974999996,
          "velocity": 0.7874015748031497,
          "duration": 0.07692299999999364
        },
        {
          "name": "D#2",
          "midi": 39,
          "time": 64.1537819999996,
          "velocity": 0.7874015748031497,
          "duration": 0.07692299999999364
        },
        {
          "name": "D#2",
          "midi": 39,
          "time": 64.26916649999959,
          "velocity": 0.7874015748031497,
          "duration": 0.07692299999999364
        },
        {
          "name": "D#2",
          "midi": 39,
          "time": 64.38455099999958,
          "velocity": 0.7874015748031497,
          "duration": 0.07692299999999364
        },
        {
          "name": "D#2",
          "midi": 39,
          "time": 64.49993549999957,
          "velocity": 0.7874015748031497,
          "duration": 0.07692299999999364
        },
        {
          "name": "D2",
          "midi": 38,
          "time": 64.61531999999956,
          "velocity": 0.7874015748031497,
          "duration": 0.07692299999999364
        },
        {
          "name": "D#2",
          "midi": 39,
          "time": 64.73070449999955,
          "velocity": 0.7874015748031497,
          "duration": 0.07692299999999364
        },
        {
          "name": "D#2",
          "midi": 39,
          "time": 64.84608899999954,
          "velocity": 0.7874015748031497,
          "duration": 0.07692299999999364
        },
        {
          "name": "D#2",
          "midi": 39,
          "time": 64.96147349999953,
          "velocity": 0.7874015748031497,
          "duration": 0.07692299999999364
        },
        {
          "name": "D#2",
          "midi": 39,
          "time": 65.07685799999952,
          "velocity": 0.7874015748031497,
          "duration": 0.07692299999999364
        },
        {
          "name": "D#2",
          "midi": 39,
          "time": 65.19224249999951,
          "velocity": 0.7874015748031497,
          "duration": 0.07692299999999364
        },
        {
          "name": "D#2",
          "midi": 39,
          "time": 65.3076269999995,
          "velocity": 0.7874015748031497,
          "duration": 0.07692299999999364
        },
        {
          "name": "D#2",
          "midi": 39,
          "time": 65.42301149999949,
          "velocity": 0.7874015748031497,
          "duration": 0.07692299999999364
        },
        {
          "name": "D2",
          "midi": 38,
          "time": 65.53839599999948,
          "velocity": 0.7874015748031497,
          "duration": 0.07692299999999364
        },
        {
          "name": "D#2",
          "midi": 39,
          "time": 65.65378049999947,
          "velocity": 0.7874015748031497,
          "duration": 0.07692299999999364
        },
        {
          "name": "D#2",
          "midi": 39,
          "time": 65.76916499999946,
          "velocity": 0.7874015748031497,
          "duration": 0.07692299999999364
        },
        {
          "name": "D#2",
          "midi": 39,
          "time": 65.88454949999945,
          "velocity": 0.7874015748031497,
          "duration": 0.07692299999999364
        },
        {
          "name": "D2",
          "midi": 38,
          "time": 65.99993399999944,
          "velocity": 0.7874015748031497,
          "duration": 0.07692299999999364
        },
        {
          "name": "D#2",
          "midi": 39,
          "time": 66.11531849999943,
          "velocity": 0.7874015748031497,
          "duration": 0.07692299999999364
        },
        {
          "name": "D#2",
          "midi": 39,
          "time": 66.23070299999942,
          "velocity": 0.7874015748031497,
          "duration": 0.07692299999999364
        },
        {
          "name": "D#2",
          "midi": 39,
          "time": 66.34608749999941,
          "velocity": 0.7874015748031497,
          "duration": 0.07692299999999364
        },
        {
          "name": "A#1",
          "midi": 34,
          "time": 66.4614719999994,
          "velocity": 0.7874015748031497,
          "duration": 0.15384600000000148
        },
        {
          "name": "A#1",
          "midi": 34,
          "time": 66.6922409999994,
          "velocity": 0.7874015748031497,
          "duration": 0.15384600000000148
        },
        {
          "name": "A#1",
          "midi": 34,
          "time": 66.9230099999994,
          "velocity": 0.7874015748031497,
          "duration": 0.15384600000000148
        },
        {
          "name": "A#1",
          "midi": 34,
          "time": 67.15377899999939,
          "velocity": 0.7874015748031497,
          "duration": 0.15384600000000148
        },
        {
          "name": "A#1",
          "midi": 34,
          "time": 67.38454799999938,
          "velocity": 0.7874015748031497,
          "duration": 0.15384600000000148
        },
        {
          "name": "A#1",
          "midi": 34,
          "time": 67.61531699999938,
          "velocity": 0.7874015748031497,
          "duration": 0.15384600000000148
        },
        {
          "name": "A#1",
          "midi": 34,
          "time": 67.84608599999937,
          "velocity": 0.7874015748031497,
          "duration": 0.15384600000000148
        },
        {
          "name": "A#1",
          "midi": 34,
          "time": 68.07685499999937,
          "velocity": 0.7874015748031497,
          "duration": 0.15384600000000148
        },
        {
          "name": "A1",
          "midi": 33,
          "time": 68.30762399999936,
          "velocity": 0.7874015748031497,
          "duration": 0.15384600000000148
        },
        {
          "name": "A1",
          "midi": 33,
          "time": 68.53839299999936,
          "velocity": 0.7874015748031497,
          "duration": 0.15384600000000148
        },
        {
          "name": "A1",
          "midi": 33,
          "time": 68.76916199999935,
          "velocity": 0.7874015748031497,
          "duration": 0.15384600000000148
        },
        {
          "name": "A1",
          "midi": 33,
          "time": 68.99993099999935,
          "velocity": 0.7874015748031497,
          "duration": 0.15384600000000148
        },
        {
          "name": "G#1",
          "midi": 32,
          "time": 69.23069999999935,
          "velocity": 0.7874015748031497,
          "duration": 0.15384600000000148
        },
        {
          "name": "G#1",
          "midi": 32,
          "time": 69.46146899999934,
          "velocity": 0.7874015748031497,
          "duration": 0.15384600000000148
        },
        {
          "name": "G#1",
          "midi": 32,
          "time": 69.69223799999934,
          "velocity": 0.7874015748031497,
          "duration": 0.15384600000000148
        },
        {
          "name": "G#1",
          "midi": 32,
          "time": 69.92300699999933,
          "velocity": 0.7874015748031497,
          "duration": 0.15384600000000148
        },
        {
          "name": "D2",
          "midi": 38,
          "time": 70.15377599999933,
          "velocity": 0.7874015748031497,
          "duration": 0.07692299999999364
        },
        {
          "name": "D#2",
          "midi": 39,
          "time": 70.26916049999932,
          "velocity": 0.7874015748031497,
          "duration": 0.07692299999999364
        },
        {
          "name": "D#2",
          "midi": 39,
          "time": 70.3845449999993,
          "velocity": 0.7874015748031497,
          "duration": 0.07692299999999364
        },
        {
          "name": "D#2",
          "midi": 39,
          "time": 70.4999294999993,
          "velocity": 0.7874015748031497,
          "duration": 0.07692299999999364
        },
        {
          "name": "D#2",
          "midi": 39,
          "time": 70.61531399999929,
          "velocity": 0.7874015748031497,
          "duration": 0.07692299999999364
        },
        {
          "name": "D#2",
          "midi": 39,
          "time": 70.73069849999928,
          "velocity": 0.7874015748031497,
          "duration": 0.07692299999999364
        },
        {
          "name": "D#2",
          "midi": 39,
          "time": 70.84608299999927,
          "velocity": 0.7874015748031497,
          "duration": 0.07692299999999364
        },
        {
          "name": "D#2",
          "midi": 39,
          "time": 70.96146749999926,
          "velocity": 0.7874015748031497,
          "duration": 0.07692299999999364
        },
        {
          "name": "D2",
          "midi": 38,
          "time": 71.07685199999925,
          "velocity": 0.7874015748031497,
          "duration": 0.07692299999999364
        },
        {
          "name": "D#2",
          "midi": 39,
          "time": 71.19223649999924,
          "velocity": 0.7874015748031497,
          "duration": 0.07692299999999364
        },
        {
          "name": "D#2",
          "midi": 39,
          "time": 71.30762099999923,
          "velocity": 0.7874015748031497,
          "duration": 0.07692299999999364
        },
        {
          "name": "D#2",
          "midi": 39,
          "time": 71.42300549999922,
          "velocity": 0.7874015748031497,
          "duration": 0.07692299999999364
        },
        {
          "name": "D#2",
          "midi": 39,
          "time": 71.53838999999921,
          "velocity": 0.7874015748031497,
          "duration": 0.07692299999999364
        },
        {
          "name": "D#2",
          "midi": 39,
          "time": 71.6537744999992,
          "velocity": 0.7874015748031497,
          "duration": 0.07692299999999364
        },
        {
          "name": "D#2",
          "midi": 39,
          "time": 71.76915899999919,
          "velocity": 0.7874015748031497,
          "duration": 0.07692299999999364
        },
        {
          "name": "D#2",
          "midi": 39,
          "time": 71.88454349999918,
          "velocity": 0.7874015748031497,
          "duration": 0.07692299999999364
        },
        {
          "name": "D2",
          "midi": 38,
          "time": 71.99992799999917,
          "velocity": 0.7874015748031497,
          "duration": 0.07692299999999364
        },
        {
          "name": "D#2",
          "midi": 39,
          "time": 72.11531249999916,
          "velocity": 0.7874015748031497,
          "duration": 0.07692299999999364
        },
        {
          "name": "D#2",
          "midi": 39,
          "time": 72.23069699999915,
          "velocity": 0.7874015748031497,
          "duration": 0.07692299999999364
        },
        {
          "name": "D#2",
          "midi": 39,
          "time": 72.34608149999914,
          "velocity": 0.7874015748031497,
          "duration": 0.07692299999999364
        },
        {
          "name": "D#2",
          "midi": 39,
          "time": 72.46146599999913,
          "velocity": 0.7874015748031497,
          "duration": 0.07692299999999364
        },
        {
          "name": "D#2",
          "midi": 39,
          "time": 72.57685049999913,
          "velocity": 0.7874015748031497,
          "duration": 0.07692299999999364
        },
        {
          "name": "D#2",
          "midi": 39,
          "time": 72.69223499999912,
          "velocity": 0.7874015748031497,
          "duration": 0.07692299999999364
        },
        {
          "name": "D#2",
          "midi": 39,
          "time": 72.8076194999991,
          "velocity": 0.7874015748031497,
          "duration": 0.07692299999999364
        },
        {
          "name": "D2",
          "midi": 38,
          "time": 72.9230039999991,
          "velocity": 0.7874015748031497,
          "duration": 0.07692299999999364
        },
        {
          "name": "D#2",
          "midi": 39,
          "time": 73.03838849999909,
          "velocity": 0.7874015748031497,
          "duration": 0.07692299999999364
        },
        {
          "name": "D#2",
          "midi": 39,
          "time": 73.15377299999908,
          "velocity": 0.7874015748031497,
          "duration": 0.07692299999999364
        },
        {
          "name": "D#2",
          "midi": 39,
          "time": 73.26915749999907,
          "velocity": 0.7874015748031497,
          "duration": 0.07692299999999364
        },
        {
          "name": "D2",
          "midi": 38,
          "time": 73.38454199999906,
          "velocity": 0.7874015748031497,
          "duration": 0.07692299999999364
        },
        {
          "name": "D#2",
          "midi": 39,
          "time": 73.49992649999905,
          "velocity": 0.7874015748031497,
          "duration": 0.07692299999999364
        },
        {
          "name": "D#2",
          "midi": 39,
          "time": 73.61531099999904,
          "velocity": 0.7874015748031497,
          "duration": 0.07692299999999364
        },
        {
          "name": "D#2",
          "midi": 39,
          "time": 73.73069549999903,
          "velocity": 0.7874015748031497,
          "duration": 0.07692299999999364
        },
        {
          "name": "A#1",
          "midi": 34,
          "time": 73.84607999999902,
          "velocity": 0.7874015748031497,
          "duration": 0.15384600000000148
        },
        {
          "name": "A#1",
          "midi": 34,
          "time": 74.07684899999902,
          "velocity": 0.7874015748031497,
          "duration": 0.15384600000000148
        },
        {
          "name": "A#1",
          "midi": 34,
          "time": 74.30761799999901,
          "velocity": 0.7874015748031497,
          "duration": 0.15384600000000148
        },
        {
          "name": "A#1",
          "midi": 34,
          "time": 74.538386999999,
          "velocity": 0.7874015748031497,
          "duration": 0.15384600000000148
        },
        {
          "name": "A#1",
          "midi": 34,
          "time": 74.769155999999,
          "velocity": 0.7874015748031497,
          "duration": 0.15384600000000148
        },
        {
          "name": "A#1",
          "midi": 34,
          "time": 74.999924999999,
          "velocity": 0.7874015748031497,
          "duration": 0.15384600000000148
        },
        {
          "name": "A#1",
          "midi": 34,
          "time": 75.23069399999899,
          "velocity": 0.7874015748031497,
          "duration": 0.15384600000000148
        },
        {
          "name": "A#1",
          "midi": 34,
          "time": 75.46146299999899,
          "velocity": 0.7874015748031497,
          "duration": 0.15384600000000148
        },
        {
          "name": "A1",
          "midi": 33,
          "time": 75.69223199999898,
          "velocity": 0.7874015748031497,
          "duration": 0.15384600000000148
        },
        {
          "name": "A1",
          "midi": 33,
          "time": 75.92300099999898,
          "velocity": 0.7874015748031497,
          "duration": 0.15384600000000148
        },
        {
          "name": "A1",
          "midi": 33,
          "time": 76.15376999999897,
          "velocity": 0.7874015748031497,
          "duration": 0.15384600000000148
        },
        {
          "name": "A1",
          "midi": 33,
          "time": 76.38453899999897,
          "velocity": 0.7874015748031497,
          "duration": 0.15384600000000148
        },
        {
          "name": "G#1",
          "midi": 32,
          "time": 76.61530799999896,
          "velocity": 0.7874015748031497,
          "duration": 0.15384600000000148
        },
        {
          "name": "G#1",
          "midi": 32,
          "time": 76.84607699999896,
          "velocity": 0.7874015748031497,
          "duration": 0.15384600000000148
        },
        {
          "name": "G#1",
          "midi": 32,
          "time": 77.07684599999895,
          "velocity": 0.7874015748031497,
          "duration": 0.15384600000000148
        },
        {
          "name": "G#1",
          "midi": 32,
          "time": 77.30761499999895,
          "velocity": 0.7874015748031497,
          "duration": 0.15384600000000148
        },
        {
          "name": "D2",
          "midi": 38,
          "time": 77.53838399999894,
          "velocity": 0.7874015748031497,
          "duration": 0.07692299999999364
        },
        {
          "name": "D#2",
          "midi": 39,
          "time": 77.65376849999893,
          "velocity": 0.7874015748031497,
          "duration": 0.07692299999999364
        },
        {
          "name": "D#2",
          "midi": 39,
          "time": 77.76915299999892,
          "velocity": 0.7874015748031497,
          "duration": 0.07692299999999364
        },
        {
          "name": "D#2",
          "midi": 39,
          "time": 77.88453749999891,
          "velocity": 0.7874015748031497,
          "duration": 0.07692299999999364
        },
        {
          "name": "D#2",
          "midi": 39,
          "time": 77.9999219999989,
          "velocity": 0.7874015748031497,
          "duration": 0.07692299999999364
        },
        {
          "name": "D#2",
          "midi": 39,
          "time": 78.1153064999989,
          "velocity": 0.7874015748031497,
          "duration": 0.07692299999999364
        },
        {
          "name": "D#2",
          "midi": 39,
          "time": 78.23069099999888,
          "velocity": 0.7874015748031497,
          "duration": 0.07692299999999364
        },
        {
          "name": "D#2",
          "midi": 39,
          "time": 78.34607549999888,
          "velocity": 0.7874015748031497,
          "duration": 0.07692299999999364
        },
        {
          "name": "D2",
          "midi": 38,
          "time": 78.46145999999887,
          "velocity": 0.7874015748031497,
          "duration": 0.07692299999999364
        },
        {
          "name": "D#2",
          "midi": 39,
          "time": 78.57684449999886,
          "velocity": 0.7874015748031497,
          "duration": 0.07692299999999364
        },
        {
          "name": "D#2",
          "midi": 39,
          "time": 78.69222899999885,
          "velocity": 0.7874015748031497,
          "duration": 0.07692299999999364
        },
        {
          "name": "D#2",
          "midi": 39,
          "time": 78.80761349999884,
          "velocity": 0.7874015748031497,
          "duration": 0.07692299999999364
        },
        {
          "name": "D#2",
          "midi": 39,
          "time": 78.92299799999883,
          "velocity": 0.7874015748031497,
          "duration": 0.07692299999999364
        },
        {
          "name": "D#2",
          "midi": 39,
          "time": 79.03838249999882,
          "velocity": 0.7874015748031497,
          "duration": 0.07692299999999364
        },
        {
          "name": "D#2",
          "midi": 39,
          "time": 79.15376699999881,
          "velocity": 0.7874015748031497,
          "duration": 0.07692299999999364
        },
        {
          "name": "D#2",
          "midi": 39,
          "time": 79.2691514999988,
          "velocity": 0.7874015748031497,
          "duration": 0.07692299999999364
        },
        {
          "name": "D2",
          "midi": 38,
          "time": 79.38453599999879,
          "velocity": 0.7874015748031497,
          "duration": 0.07692299999999364
        },
        {
          "name": "D#2",
          "midi": 39,
          "time": 79.49992049999878,
          "velocity": 0.7874015748031497,
          "duration": 0.07692299999999364
        },
        {
          "name": "D#2",
          "midi": 39,
          "time": 79.61530499999877,
          "velocity": 0.7874015748031497,
          "duration": 0.07692299999999364
        },
        {
          "name": "D#2",
          "midi": 39,
          "time": 79.73068949999876,
          "velocity": 0.7874015748031497,
          "duration": 0.07692299999999364
        },
        {
          "name": "D#2",
          "midi": 39,
          "time": 79.84607399999875,
          "velocity": 0.7874015748031497,
          "duration": 0.07692299999999364
        },
        {
          "name": "D#2",
          "midi": 39,
          "time": 79.96145849999874,
          "velocity": 0.7874015748031497,
          "duration": 0.07692299999999364
        },
        {
          "name": "D#2",
          "midi": 39,
          "time": 80.07684299999873,
          "velocity": 0.7874015748031497,
          "duration": 0.07692299999999364
        },
        {
          "name": "D#2",
          "midi": 39,
          "time": 80.19222749999872,
          "velocity": 0.7874015748031497,
          "duration": 0.07692299999999364
        },
        {
          "name": "D2",
          "midi": 38,
          "time": 80.30761199999871,
          "velocity": 0.7874015748031497,
          "duration": 0.07692299999999364
        },
        {
          "name": "D#2",
          "midi": 39,
          "time": 80.4229964999987,
          "velocity": 0.7874015748031497,
          "duration": 0.07692299999999364
        },
        {
          "name": "D#2",
          "midi": 39,
          "time": 80.5383809999987,
          "velocity": 0.7874015748031497,
          "duration": 0.07692299999999364
        },
        {
          "name": "D#2",
          "midi": 39,
          "time": 80.65376549999868,
          "velocity": 0.7874015748031497,
          "duration": 0.07692299999999364
        },
        {
          "name": "D2",
          "midi": 38,
          "time": 80.76914999999867,
          "velocity": 0.7874015748031497,
          "duration": 0.07692299999999364
        },
        {
          "name": "D#2",
          "midi": 39,
          "time": 80.88453449999867,
          "velocity": 0.7874015748031497,
          "duration": 0.07692299999999364
        },
        {
          "name": "D#2",
          "midi": 39,
          "time": 80.99991899999866,
          "velocity": 0.7874015748031497,
          "duration": 0.07692299999999364
        },
        {
          "name": "D#2",
          "midi": 39,
          "time": 81.11530349999865,
          "velocity": 0.7874015748031497,
          "duration": 0.07692299999999364
        },
        {
          "name": "A#1",
          "midi": 34,
          "time": 81.23068799999864,
          "velocity": 0.7874015748031497,
          "duration": 0.15384600000000148
        },
        {
          "name": "A#1",
          "midi": 34,
          "time": 81.46145699999863,
          "velocity": 0.7874015748031497,
          "duration": 0.15384600000000148
        },
        {
          "name": "A#1",
          "midi": 34,
          "time": 81.69222599999863,
          "velocity": 0.7874015748031497,
          "duration": 0.15384600000000148
        },
        {
          "name": "A#1",
          "midi": 34,
          "time": 81.92299499999862,
          "velocity": 0.7874015748031497,
          "duration": 0.15384600000000148
        },
        {
          "name": "A#1",
          "midi": 34,
          "time": 82.15376399999862,
          "velocity": 0.7874015748031497,
          "duration": 0.15384600000000148
        },
        {
          "name": "A#1",
          "midi": 34,
          "time": 82.38453299999861,
          "velocity": 0.7874015748031497,
          "duration": 0.15384600000000148
        },
        {
          "name": "A#1",
          "midi": 34,
          "time": 82.61530199999861,
          "velocity": 0.7874015748031497,
          "duration": 0.15384600000000148
        },
        {
          "name": "A#1",
          "midi": 34,
          "time": 82.8460709999986,
          "velocity": 0.7874015748031497,
          "duration": 0.15384600000000148
        },
        {
          "name": "A1",
          "midi": 33,
          "time": 83.0768399999986,
          "velocity": 0.7874015748031497,
          "duration": 0.15384600000000148
        },
        {
          "name": "A1",
          "midi": 33,
          "time": 83.30760899999859,
          "velocity": 0.7874015748031497,
          "duration": 0.15384600000000148
        },
        {
          "name": "A1",
          "midi": 33,
          "time": 83.53837799999859,
          "velocity": 0.7874015748031497,
          "duration": 0.15384600000000148
        },
        {
          "name": "A1",
          "midi": 33,
          "time": 83.76914699999858,
          "velocity": 0.7874015748031497,
          "duration": 0.15384600000000148
        },
        {
          "name": "G#1",
          "midi": 32,
          "time": 83.99991599999858,
          "velocity": 0.7874015748031497,
          "duration": 0.15384600000000148
        },
        {
          "name": "G#1",
          "midi": 32,
          "time": 84.23068499999857,
          "velocity": 0.7874015748031497,
          "duration": 0.15384600000000148
        },
        {
          "name": "G#1",
          "midi": 32,
          "time": 84.46145399999857,
          "velocity": 0.7874015748031497,
          "duration": 0.15384600000000148
        },
        {
          "name": "G#1",
          "midi": 32,
          "time": 84.69222299999856,
          "velocity": 0.7874015748031497,
          "duration": 0.15384600000000148
        },
        {
          "name": "D2",
          "midi": 38,
          "time": 84.92299199999856,
          "velocity": 0.7874015748031497,
          "duration": 0.07692299999999364
        },
        {
          "name": "D#2",
          "midi": 39,
          "time": 85.03837649999855,
          "velocity": 0.7874015748031497,
          "duration": 0.07692299999999364
        },
        {
          "name": "D#2",
          "midi": 39,
          "time": 85.15376099999854,
          "velocity": 0.7874015748031497,
          "duration": 0.07692299999999364
        },
        {
          "name": "D#2",
          "midi": 39,
          "time": 85.26914549999853,
          "velocity": 0.7874015748031497,
          "duration": 0.07692299999999364
        },
        {
          "name": "D#2",
          "midi": 39,
          "time": 85.38452999999852,
          "velocity": 0.7874015748031497,
          "duration": 0.07692299999999364
        },
        {
          "name": "D#2",
          "midi": 39,
          "time": 85.49991449999851,
          "velocity": 0.7874015748031497,
          "duration": 0.07692299999999364
        },
        {
          "name": "D#2",
          "midi": 39,
          "time": 85.6152989999985,
          "velocity": 0.7874015748031497,
          "duration": 0.07692299999999364
        },
        {
          "name": "D#2",
          "midi": 39,
          "time": 85.73068349999849,
          "velocity": 0.7874015748031497,
          "duration": 0.07692299999999364
        },
        {
          "name": "D2",
          "midi": 38,
          "time": 85.84606799999848,
          "velocity": 0.7874015748031497,
          "duration": 0.07692299999999364
        },
        {
          "name": "D#2",
          "midi": 39,
          "time": 85.96145249999847,
          "velocity": 0.7874015748031497,
          "duration": 0.07692299999999364
        },
        {
          "name": "D#2",
          "midi": 39,
          "time": 86.07683699999846,
          "velocity": 0.7874015748031497,
          "duration": 0.07692299999999364
        },
        {
          "name": "D#2",
          "midi": 39,
          "time": 86.19222149999845,
          "velocity": 0.7874015748031497,
          "duration": 0.07692299999999364
        },
        {
          "name": "D#2",
          "midi": 39,
          "time": 86.30760599999844,
          "velocity": 0.7874015748031497,
          "duration": 0.07692299999999364
        },
        {
          "name": "D#2",
          "midi": 39,
          "time": 86.42299049999843,
          "velocity": 0.7874015748031497,
          "duration": 0.07692299999999364
        },
        {
          "name": "D#2",
          "midi": 39,
          "time": 86.53837499999842,
          "velocity": 0.7874015748031497,
          "duration": 0.07692299999999364
        },
        {
          "name": "D#2",
          "midi": 39,
          "time": 86.65375949999842,
          "velocity": 0.7874015748031497,
          "duration": 0.07692299999999364
        },
        {
          "name": "D2",
          "midi": 38,
          "time": 86.7691439999984,
          "velocity": 0.7874015748031497,
          "duration": 0.07692299999999364
        },
        {
          "name": "D#2",
          "midi": 39,
          "time": 86.8845284999984,
          "velocity": 0.7874015748031497,
          "duration": 0.07692299999999364
        },
        {
          "name": "D#2",
          "midi": 39,
          "time": 86.99991299999839,
          "velocity": 0.7874015748031497,
          "duration": 0.07692299999999364
        },
        {
          "name": "D#2",
          "midi": 39,
          "time": 87.11529749999838,
          "velocity": 0.7874015748031497,
          "duration": 0.07692299999999364
        },
        {
          "name": "D#2",
          "midi": 39,
          "time": 87.23068199999837,
          "velocity": 0.7874015748031497,
          "duration": 0.07692299999999364
        },
        {
          "name": "D#2",
          "midi": 39,
          "time": 87.34606649999836,
          "velocity": 0.7874015748031497,
          "duration": 0.07692299999999364
        },
        {
          "name": "D#2",
          "midi": 39,
          "time": 87.46145099999835,
          "velocity": 0.7874015748031497,
          "duration": 0.07692299999999364
        },
        {
          "name": "D#2",
          "midi": 39,
          "time": 87.57683549999834,
          "velocity": 0.7874015748031497,
          "duration": 0.07692299999999364
        },
        {
          "name": "D2",
          "midi": 38,
          "time": 87.69221999999833,
          "velocity": 0.7874015748031497,
          "duration": 0.07692299999999364
        },
        {
          "name": "D#2",
          "midi": 39,
          "time": 87.80760449999832,
          "velocity": 0.7874015748031497,
          "duration": 0.07692299999999364
        },
        {
          "name": "D#2",
          "midi": 39,
          "time": 87.92298899999831,
          "velocity": 0.7874015748031497,
          "duration": 0.07692299999999364
        },
        {
          "name": "D#2",
          "midi": 39,
          "time": 88.0383734999983,
          "velocity": 0.7874015748031497,
          "duration": 0.07692299999999364
        },
        {
          "name": "D2",
          "midi": 38,
          "time": 88.15375799999829,
          "velocity": 0.7874015748031497,
          "duration": 0.07692299999999364
        },
        {
          "name": "D#2",
          "midi": 39,
          "time": 88.26914249999828,
          "velocity": 0.7874015748031497,
          "duration": 0.07692299999999364
        },
        {
          "name": "D#2",
          "midi": 39,
          "time": 88.38452699999827,
          "velocity": 0.7874015748031497,
          "duration": 0.07692299999999364
        },
        {
          "name": "D#2",
          "midi": 39,
          "time": 88.49991149999826,
          "velocity": 0.7874015748031497,
          "duration": 0.07692299999999364
        },
        {
          "name": "D2",
          "midi": 38,
          "time": 88.61529599999825,
          "velocity": 0.7874015748031497,
          "duration": 0.07692299999999364
        },
        {
          "name": "D#2",
          "midi": 39,
          "time": 88.73068049999824,
          "velocity": 0.7874015748031497,
          "duration": 0.07692299999999364
        },
        {
          "name": "D#2",
          "midi": 39,
          "time": 88.84606499999823,
          "velocity": 0.7874015748031497,
          "duration": 0.07692299999999364
        },
        {
          "name": "D#2",
          "midi": 39,
          "time": 88.96144949999822,
          "velocity": 0.7874015748031497,
          "duration": 0.07692299999999364
        },
        {
          "name": "D#2",
          "midi": 39,
          "time": 89.07683399999821,
          "velocity": 0.7874015748031497,
          "duration": 0.07692299999999364
        },
        {
          "name": "D#2",
          "midi": 39,
          "time": 89.1922184999982,
          "velocity": 0.7874015748031497,
          "duration": 0.07692299999999364
        },
        {
          "name": "D#2",
          "midi": 39,
          "time": 89.3076029999982,
          "velocity": 0.7874015748031497,
          "duration": 0.07692299999999364
        },
        {
          "name": "D#2",
          "midi": 39,
          "time": 89.42298749999819,
          "velocity": 0.7874015748031497,
          "duration": 0.07692299999999364
        },
        {
          "name": "D2",
          "midi": 38,
          "time": 89.53837199999818,
          "velocity": 0.7874015748031497,
          "duration": 0.07692299999999364
        },
        {
          "name": "D#2",
          "midi": 39,
          "time": 89.65375649999817,
          "velocity": 0.7874015748031497,
          "duration": 0.07692299999999364
        },
        {
          "name": "D#2",
          "midi": 39,
          "time": 89.76914099999816,
          "velocity": 0.7874015748031497,
          "duration": 0.07692299999999364
        },
        {
          "name": "D#2",
          "midi": 39,
          "time": 89.88452549999815,
          "velocity": 0.7874015748031497,
          "duration": 0.07692299999999364
        },
        {
          "name": "D#2",
          "midi": 39,
          "time": 89.99990999999814,
          "velocity": 0.7874015748031497,
          "duration": 0.07692299999999364
        },
        {
          "name": "D#2",
          "midi": 39,
          "time": 90.11529449999813,
          "velocity": 0.7874015748031497,
          "duration": 0.07692299999999364
        },
        {
          "name": "D#2",
          "midi": 39,
          "time": 90.23067899999812,
          "velocity": 0.7874015748031497,
          "duration": 0.07692299999999364
        },
        {
          "name": "D#2",
          "midi": 39,
          "time": 90.34606349999811,
          "velocity": 0.7874015748031497,
          "duration": 0.07692299999999364
        },
        {
          "name": "D2",
          "midi": 38,
          "time": 90.4614479999981,
          "velocity": 0.7874015748031497,
          "duration": 0.07692299999999364
        },
        {
          "name": "D#2",
          "midi": 39,
          "time": 90.57683249999809,
          "velocity": 0.7874015748031497,
          "duration": 0.07692299999999364
        },
        {
          "name": "D#2",
          "midi": 39,
          "time": 90.69221699999808,
          "velocity": 0.7874015748031497,
          "duration": 0.07692299999999364
        },
        {
          "name": "D#2",
          "midi": 39,
          "time": 90.80760149999807,
          "velocity": 0.7874015748031497,
          "duration": 0.07692299999999364
        },
        {
          "name": "D#2",
          "midi": 39,
          "time": 90.92298599999806,
          "velocity": 0.7874015748031497,
          "duration": 0.07692299999999364
        },
        {
          "name": "D#2",
          "midi": 39,
          "time": 91.03837049999805,
          "velocity": 0.7874015748031497,
          "duration": 0.07692299999999364
        },
        {
          "name": "D#2",
          "midi": 39,
          "time": 91.15375499999804,
          "velocity": 0.7874015748031497,
          "duration": 0.07692299999999364
        },
        {
          "name": "D#2",
          "midi": 39,
          "time": 91.26913949999803,
          "velocity": 0.7874015748031497,
          "duration": 0.07692299999999364
        },
        {
          "name": "D2",
          "midi": 38,
          "time": 91.38452399999802,
          "velocity": 0.7874015748031497,
          "duration": 0.07692299999999364
        },
        {
          "name": "D#2",
          "midi": 39,
          "time": 91.49990849999801,
          "velocity": 0.7874015748031497,
          "duration": 0.07692299999999364
        },
        {
          "name": "D#2",
          "midi": 39,
          "time": 91.615292999998,
          "velocity": 0.7874015748031497,
          "duration": 0.07692299999999364
        },
        {
          "name": "D#2",
          "midi": 39,
          "time": 91.730677499998,
          "velocity": 0.7874015748031497,
          "duration": 0.07692299999999364
        },
        {
          "name": "D2",
          "midi": 38,
          "time": 91.84606199999799,
          "velocity": 0.7874015748031497,
          "duration": 0.07692299999999364
        },
        {
          "name": "D#2",
          "midi": 39,
          "time": 91.96144649999798,
          "velocity": 0.7874015748031497,
          "duration": 0.07692299999999364
        },
        {
          "name": "D#2",
          "midi": 39,
          "time": 92.07683099999797,
          "velocity": 0.7874015748031497,
          "duration": 0.07692299999999364
        },
        {
          "name": "D#2",
          "midi": 39,
          "time": 92.19221549999796,
          "velocity": 0.7874015748031497,
          "duration": 0.07692299999999364
        },
        {
          "name": "D#2",
          "midi": 39,
          "time": 92.30759999999795,
          "velocity": 1,
          "duration": 14.769216
        },
        {
          "name": "D2",
          "midi": 38,
          "time": 107.07681599999795,
          "velocity": 0.7874015748031497,
          "duration": 0.07692299999999364
        },
        {
          "name": "D#2",
          "midi": 39,
          "time": 107.19220049999794,
          "velocity": 0.7874015748031497,
          "duration": 0.07692299999999364
        },
        {
          "name": "D#2",
          "midi": 39,
          "time": 107.30758499999793,
          "velocity": 0.7874015748031497,
          "duration": 0.07692299999999364
        },
        {
          "name": "D#2",
          "midi": 39,
          "time": 107.42296949999792,
          "velocity": 0.7874015748031497,
          "duration": 0.07692299999999364
        },
        {
          "name": "D#2",
          "midi": 39,
          "time": 107.53835399999791,
          "velocity": 0.7874015748031497,
          "duration": 0.07692299999999364
        },
        {
          "name": "D#2",
          "midi": 39,
          "time": 107.6537384999979,
          "velocity": 0.7874015748031497,
          "duration": 0.07692299999999364
        },
        {
          "name": "D#2",
          "midi": 39,
          "time": 107.76912299999789,
          "velocity": 0.7874015748031497,
          "duration": 0.07692299999999364
        },
        {
          "name": "D#2",
          "midi": 39,
          "time": 107.88450749999788,
          "velocity": 0.7874015748031497,
          "duration": 0.07692299999999364
        },
        {
          "name": "D2",
          "midi": 38,
          "time": 107.99989199999787,
          "velocity": 0.7874015748031497,
          "duration": 0.07692299999999364
        },
        {
          "name": "D#2",
          "midi": 39,
          "time": 108.11527649999786,
          "velocity": 0.7874015748031497,
          "duration": 0.07692299999999364
        },
        {
          "name": "D#2",
          "midi": 39,
          "time": 108.23066099999785,
          "velocity": 0.7874015748031497,
          "duration": 0.07692299999999364
        },
        {
          "name": "D#2",
          "midi": 39,
          "time": 108.34604549999784,
          "velocity": 0.7874015748031497,
          "duration": 0.07692299999999364
        },
        {
          "name": "D#2",
          "midi": 39,
          "time": 108.46142999999783,
          "velocity": 0.7874015748031497,
          "duration": 0.07692299999999364
        },
        {
          "name": "D#2",
          "midi": 39,
          "time": 108.57681449999782,
          "velocity": 0.7874015748031497,
          "duration": 0.07692299999999364
        },
        {
          "name": "D#2",
          "midi": 39,
          "time": 108.69219899999781,
          "velocity": 0.7874015748031497,
          "duration": 0.07692299999999364
        },
        {
          "name": "D#2",
          "midi": 39,
          "time": 108.8075834999978,
          "velocity": 0.7874015748031497,
          "duration": 0.07692299999999364
        },
        {
          "name": "D2",
          "midi": 38,
          "time": 108.9229679999978,
          "velocity": 0.7874015748031497,
          "duration": 0.07692299999999364
        },
        {
          "name": "D#2",
          "midi": 39,
          "time": 109.03835249999779,
          "velocity": 0.7874015748031497,
          "duration": 0.07692299999999364
        },
        {
          "name": "D#2",
          "midi": 39,
          "time": 109.15373699999778,
          "velocity": 0.7874015748031497,
          "duration": 0.07692299999999364
        },
        {
          "name": "D#2",
          "midi": 39,
          "time": 109.26912149999777,
          "velocity": 0.7874015748031497,
          "duration": 0.07692299999999364
        },
        {
          "name": "D#2",
          "midi": 39,
          "time": 109.38450599999776,
          "velocity": 0.7874015748031497,
          "duration": 0.07692299999999364
        },
        {
          "name": "D#2",
          "midi": 39,
          "time": 109.49989049999775,
          "velocity": 0.7874015748031497,
          "duration": 0.07692299999999364
        },
        {
          "name": "D#2",
          "midi": 39,
          "time": 109.61527499999774,
          "velocity": 0.7874015748031497,
          "duration": 0.07692299999999364
        },
        {
          "name": "D#2",
          "midi": 39,
          "time": 109.73065949999773,
          "velocity": 0.7874015748031497,
          "duration": 0.07692299999999364
        },
        {
          "name": "D2",
          "midi": 38,
          "time": 109.84604399999772,
          "velocity": 0.7874015748031497,
          "duration": 0.07692299999999364
        },
        {
          "name": "D#2",
          "midi": 39,
          "time": 109.96142849999771,
          "velocity": 0.7874015748031497,
          "duration": 0.07692299999999364
        },
        {
          "name": "D#2",
          "midi": 39,
          "time": 110.0768129999977,
          "velocity": 0.7874015748031497,
          "duration": 0.07692299999999364
        },
        {
          "name": "D#2",
          "midi": 39,
          "time": 110.19219749999769,
          "velocity": 0.7874015748031497,
          "duration": 0.07692299999999364
        },
        {
          "name": "D2",
          "midi": 38,
          "time": 110.30758199999768,
          "velocity": 0.7874015748031497,
          "duration": 0.07692299999999364
        },
        {
          "name": "D#2",
          "midi": 39,
          "time": 110.42296649999767,
          "velocity": 0.7874015748031497,
          "duration": 0.07692299999999364
        },
        {
          "name": "D#2",
          "midi": 39,
          "time": 110.53835099999766,
          "velocity": 0.7874015748031497,
          "duration": 0.07692299999999364
        },
        {
          "name": "D#2",
          "midi": 39,
          "time": 110.65373549999765,
          "velocity": 0.7874015748031497,
          "duration": 0.07692299999999364
        },
        {
          "name": "D2",
          "midi": 38,
          "time": 110.76911999999764,
          "velocity": 0.7874015748031497,
          "duration": 0.07692299999999364
        },
        {
          "name": "D#2",
          "midi": 39,
          "time": 110.88450449999763,
          "velocity": 0.7874015748031497,
          "duration": 0.07692299999999364
        },
        {
          "name": "D#2",
          "midi": 39,
          "time": 110.99988899999762,
          "velocity": 0.7874015748031497,
          "duration": 0.07692299999999364
        },
        {
          "name": "D#2",
          "midi": 39,
          "time": 111.11527349999761,
          "velocity": 0.7874015748031497,
          "duration": 0.07692299999999364
        },
        {
          "name": "D#2",
          "midi": 39,
          "time": 111.2306579999976,
          "velocity": 0.7874015748031497,
          "duration": 0.07692299999999364
        },
        {
          "name": "D#2",
          "midi": 39,
          "time": 111.3460424999976,
          "velocity": 0.7874015748031497,
          "duration": 0.07692299999999364
        },
        {
          "name": "D#2",
          "midi": 39,
          "time": 111.46142699999758,
          "velocity": 0.7874015748031497,
          "duration": 0.07692299999999364
        },
        {
          "name": "D#2",
          "midi": 39,
          "time": 111.57681149999758,
          "velocity": 0.7874015748031497,
          "duration": 0.07692299999999364
        },
        {
          "name": "D2",
          "midi": 38,
          "time": 111.69219599999757,
          "velocity": 0.7874015748031497,
          "duration": 0.07692299999999364
        },
        {
          "name": "D#2",
          "midi": 39,
          "time": 111.80758049999756,
          "velocity": 0.7874015748031497,
          "duration": 0.07692299999999364
        },
        {
          "name": "D#2",
          "midi": 39,
          "time": 111.92296499999755,
          "velocity": 0.7874015748031497,
          "duration": 0.07692299999999364
        },
        {
          "name": "D#2",
          "midi": 39,
          "time": 112.03834949999754,
          "velocity": 0.7874015748031497,
          "duration": 0.07692299999999364
        },
        {
          "name": "D#2",
          "midi": 39,
          "time": 112.15373399999753,
          "velocity": 0.7874015748031497,
          "duration": 0.07692299999999364
        },
        {
          "name": "D#2",
          "midi": 39,
          "time": 112.26911849999752,
          "velocity": 0.7874015748031497,
          "duration": 0.07692299999999364
        },
        {
          "name": "D#2",
          "midi": 39,
          "time": 112.38450299999751,
          "velocity": 0.7874015748031497,
          "duration": 0.07692299999999364
        },
        {
          "name": "D#2",
          "midi": 39,
          "time": 112.4998874999975,
          "velocity": 0.7874015748031497,
          "duration": 0.07692299999999364
        },
        {
          "name": "D2",
          "midi": 38,
          "time": 112.61527199999749,
          "velocity": 0.7874015748031497,
          "duration": 0.07692299999999364
        },
        {
          "name": "D#2",
          "midi": 39,
          "time": 112.73065649999748,
          "velocity": 0.7874015748031497,
          "duration": 0.07692299999999364
        },
        {
          "name": "D#2",
          "midi": 39,
          "time": 112.84604099999747,
          "velocity": 0.7874015748031497,
          "duration": 0.07692299999999364
        },
        {
          "name": "D#2",
          "midi": 39,
          "time": 112.96142549999746,
          "velocity": 0.7874015748031497,
          "duration": 0.07692299999999364
        },
        {
          "name": "D#2",
          "midi": 39,
          "time": 113.07680999999745,
          "velocity": 0.7874015748031497,
          "duration": 0.07692299999999364
        },
        {
          "name": "D#2",
          "midi": 39,
          "time": 113.19219449999744,
          "velocity": 0.7874015748031497,
          "duration": 0.07692299999999364
        },
        {
          "name": "D#2",
          "midi": 39,
          "time": 113.30757899999743,
          "velocity": 0.7874015748031497,
          "duration": 0.07692299999999364
        },
        {
          "name": "D#2",
          "midi": 39,
          "time": 113.42296349999742,
          "velocity": 0.7874015748031497,
          "duration": 0.07692299999999364
        },
        {
          "name": "D2",
          "midi": 38,
          "time": 113.53834799999741,
          "velocity": 0.7874015748031497,
          "duration": 0.07692299999999364
        },
        {
          "name": "D#2",
          "midi": 39,
          "time": 113.6537324999974,
          "velocity": 0.7874015748031497,
          "duration": 0.07692299999999364
        },
        {
          "name": "D#2",
          "midi": 39,
          "time": 113.7691169999974,
          "velocity": 0.7874015748031497,
          "duration": 0.07692299999999364
        },
        {
          "name": "D#2",
          "midi": 39,
          "time": 113.88450149999738,
          "velocity": 0.7874015748031497,
          "duration": 0.07692299999999364
        },
        {
          "name": "D2",
          "midi": 38,
          "time": 113.99988599999737,
          "velocity": 0.7874015748031497,
          "duration": 0.07692299999999364
        },
        {
          "name": "D#2",
          "midi": 39,
          "time": 114.11527049999737,
          "velocity": 0.7874015748031497,
          "duration": 0.07692299999999364
        },
        {
          "name": "D#2",
          "midi": 39,
          "time": 114.23065499999736,
          "velocity": 0.7874015748031497,
          "duration": 0.07692299999999364
        },
        {
          "name": "D#2",
          "midi": 39,
          "time": 114.34603949999735,
          "velocity": 0.7874015748031497,
          "duration": 0.07692299999999364
        },
        {
          "name": "D2",
          "midi": 38,
          "time": 114.46142399999734,
          "velocity": 0.7874015748031497,
          "duration": 0.07692299999999364
        },
        {
          "name": "D#2",
          "midi": 39,
          "time": 114.57680849999733,
          "velocity": 0.7874015748031497,
          "duration": 0.07692299999999364
        },
        {
          "name": "D#2",
          "midi": 39,
          "time": 114.69219299999732,
          "velocity": 0.7874015748031497,
          "duration": 0.07692299999999364
        },
        {
          "name": "D#2",
          "midi": 39,
          "time": 114.80757749999731,
          "velocity": 0.7874015748031497,
          "duration": 0.07692299999999364
        },
        {
          "name": "D#2",
          "midi": 39,
          "time": 114.9229619999973,
          "velocity": 0.7874015748031497,
          "duration": 0.07692299999999364
        },
        {
          "name": "D#2",
          "midi": 39,
          "time": 115.03834649999729,
          "velocity": 0.7874015748031497,
          "duration": 0.07692299999999364
        },
        {
          "name": "D#2",
          "midi": 39,
          "time": 115.15373099999728,
          "velocity": 0.7874015748031497,
          "duration": 0.07692299999999364
        },
        {
          "name": "D#2",
          "midi": 39,
          "time": 115.26911549999727,
          "velocity": 0.7874015748031497,
          "duration": 0.07692299999999364
        },
        {
          "name": "D2",
          "midi": 38,
          "time": 115.38449999999726,
          "velocity": 0.7874015748031497,
          "duration": 0.07692299999999364
        },
        {
          "name": "D#2",
          "midi": 39,
          "time": 115.49988449999725,
          "velocity": 0.7874015748031497,
          "duration": 0.07692299999999364
        },
        {
          "name": "D#2",
          "midi": 39,
          "time": 115.61526899999724,
          "velocity": 0.7874015748031497,
          "duration": 0.07692299999999364
        },
        {
          "name": "D#2",
          "midi": 39,
          "time": 115.73065349999723,
          "velocity": 0.7874015748031497,
          "duration": 0.07692299999999364
        },
        {
          "name": "D#2",
          "midi": 39,
          "time": 115.84603799999722,
          "velocity": 0.7874015748031497,
          "duration": 0.07692299999999364
        },
        {
          "name": "D#2",
          "midi": 39,
          "time": 115.96142249999721,
          "velocity": 0.7874015748031497,
          "duration": 0.07692299999999364
        },
        {
          "name": "D#2",
          "midi": 39,
          "time": 116.0768069999972,
          "velocity": 0.7874015748031497,
          "duration": 0.07692299999999364
        },
        {
          "name": "D#2",
          "midi": 39,
          "time": 116.1921914999972,
          "velocity": 0.7874015748031497,
          "duration": 0.07692299999999364
        },
        {
          "name": "D2",
          "midi": 38,
          "time": 116.30757599999718,
          "velocity": 0.7874015748031497,
          "duration": 0.07692299999999364
        },
        {
          "name": "D#2",
          "midi": 39,
          "time": 116.42296049999717,
          "velocity": 0.7874015748031497,
          "duration": 0.07692299999999364
        },
        {
          "name": "D#2",
          "midi": 39,
          "time": 116.53834499999716,
          "velocity": 0.7874015748031497,
          "duration": 0.07692299999999364
        },
        {
          "name": "D#2",
          "midi": 39,
          "time": 116.65372949999716,
          "velocity": 0.7874015748031497,
          "duration": 0.07692299999999364
        },
        {
          "name": "D#2",
          "midi": 39,
          "time": 116.76911399999715,
          "velocity": 0.7874015748031497,
          "duration": 0.07692299999999364
        },
        {
          "name": "D#2",
          "midi": 39,
          "time": 116.88449849999714,
          "velocity": 0.7874015748031497,
          "duration": 0.07692299999999364
        },
        {
          "name": "D#2",
          "midi": 39,
          "time": 116.99988299999713,
          "velocity": 0.7874015748031497,
          "duration": 0.07692299999999364
        },
        {
          "name": "D#2",
          "midi": 39,
          "time": 117.11526749999712,
          "velocity": 0.7874015748031497,
          "duration": 0.07692299999999364
        },
        {
          "name": "D2",
          "midi": 38,
          "time": 117.23065199999711,
          "velocity": 0.7874015748031497,
          "duration": 0.07692299999999364
        },
        {
          "name": "D#2",
          "midi": 39,
          "time": 117.3460364999971,
          "velocity": 0.7874015748031497,
          "duration": 0.07692299999999364
        },
        {
          "name": "D#2",
          "midi": 39,
          "time": 117.46142099999709,
          "velocity": 0.7874015748031497,
          "duration": 0.07692299999999364
        },
        {
          "name": "D#2",
          "midi": 39,
          "time": 117.57680549999708,
          "velocity": 0.7874015748031497,
          "duration": 0.07692299999999364
        },
        {
          "name": "D2",
          "midi": 38,
          "time": 117.69218999999707,
          "velocity": 0.7874015748031497,
          "duration": 0.07692299999999364
        },
        {
          "name": "D#2",
          "midi": 39,
          "time": 117.80757449999706,
          "velocity": 0.7874015748031497,
          "duration": 0.07692299999999364
        },
        {
          "name": "D#2",
          "midi": 39,
          "time": 117.92295899999705,
          "velocity": 0.7874015748031497,
          "duration": 0.07692299999999364
        },
        {
          "name": "D#2",
          "midi": 39,
          "time": 118.03834349999704,
          "velocity": 0.7874015748031497,
          "duration": 0.07692299999999364
        },
        {
          "name": "D2",
          "midi": 38,
          "time": 118.15372799999703,
          "velocity": 0.7874015748031497,
          "duration": 0.07692299999999364
        },
        {
          "name": "D#2",
          "midi": 39,
          "time": 118.26911249999702,
          "velocity": 0.7874015748031497,
          "duration": 0.07692299999999364
        },
        {
          "name": "D#2",
          "midi": 39,
          "time": 118.38449699999701,
          "velocity": 0.7874015748031497,
          "duration": 0.07692299999999364
        },
        {
          "name": "D#2",
          "midi": 39,
          "time": 118.499881499997,
          "velocity": 0.7874015748031497,
          "duration": 0.07692299999999364
        },
        {
          "name": "D#2",
          "midi": 39,
          "time": 118.61526599999699,
          "velocity": 0.7874015748031497,
          "duration": 0.07692299999999364
        },
        {
          "name": "D#2",
          "midi": 39,
          "time": 118.73065049999698,
          "velocity": 0.7874015748031497,
          "duration": 0.07692299999999364
        },
        {
          "name": "D#2",
          "midi": 39,
          "time": 118.84603499999697,
          "velocity": 0.7874015748031497,
          "duration": 0.07692299999999364
        },
        {
          "name": "D#2",
          "midi": 39,
          "time": 118.96141949999696,
          "velocity": 0.7874015748031497,
          "duration": 0.07692299999999364
        },
        {
          "name": "D2",
          "midi": 38,
          "time": 119.07680399999695,
          "velocity": 0.7874015748031497,
          "duration": 0.07692299999999364
        },
        {
          "name": "D#2",
          "midi": 39,
          "time": 119.19218849999694,
          "velocity": 0.7874015748031497,
          "duration": 0.07692299999999364
        },
        {
          "name": "D#2",
          "midi": 39,
          "time": 119.30757299999694,
          "velocity": 0.7874015748031497,
          "duration": 0.07692299999999364
        },
        {
          "name": "D#2",
          "midi": 39,
          "time": 119.42295749999693,
          "velocity": 0.7874015748031497,
          "duration": 0.07692299999999364
        },
        {
          "name": "D#2",
          "midi": 39,
          "time": 119.53834199999692,
          "velocity": 0.7874015748031497,
          "duration": 0.07692299999999364
        },
        {
          "name": "D#2",
          "midi": 39,
          "time": 119.6537264999969,
          "velocity": 0.7874015748031497,
          "duration": 0.07692299999999364
        },
        {
          "name": "D#2",
          "midi": 39,
          "time": 119.7691109999969,
          "velocity": 0.7874015748031497,
          "duration": 0.07692299999999364
        },
        {
          "name": "D#2",
          "midi": 39,
          "time": 119.88449549999689,
          "velocity": 0.7874015748031497,
          "duration": 0.07692299999999364
        },
        {
          "name": "D2",
          "midi": 38,
          "time": 119.99987999999688,
          "velocity": 0.7874015748031497,
          "duration": 0.07692299999999364
        },
        {
          "name": "D#2",
          "midi": 39,
          "time": 120.11526449999687,
          "velocity": 0.7874015748031497,
          "duration": 0.07692299999999364
        },
        {
          "name": "D#2",
          "midi": 39,
          "time": 120.23064899999686,
          "velocity": 0.7874015748031497,
          "duration": 0.07692299999999364
        },
        {
          "name": "D#2",
          "midi": 39,
          "time": 120.34603349999685,
          "velocity": 0.7874015748031497,
          "duration": 0.07692299999999364
        },
        {
          "name": "D#2",
          "midi": 39,
          "time": 120.46141799999684,
          "velocity": 0.7874015748031497,
          "duration": 0.07692299999999364
        },
        {
          "name": "D#2",
          "midi": 39,
          "time": 120.57680249999683,
          "velocity": 0.7874015748031497,
          "duration": 0.07692299999999364
        },
        {
          "name": "D#2",
          "midi": 39,
          "time": 120.69218699999682,
          "velocity": 0.7874015748031497,
          "duration": 0.07692299999999364
        },
        {
          "name": "D#2",
          "midi": 39,
          "time": 120.80757149999681,
          "velocity": 0.7874015748031497,
          "duration": 0.07692299999999364
        },
        {
          "name": "D2",
          "midi": 38,
          "time": 120.9229559999968,
          "velocity": 0.7874015748031497,
          "duration": 0.07692299999999364
        },
        {
          "name": "D#2",
          "midi": 39,
          "time": 121.03834049999679,
          "velocity": 0.7874015748031497,
          "duration": 0.07692299999999364
        },
        {
          "name": "D#2",
          "midi": 39,
          "time": 121.15372499999678,
          "velocity": 0.7874015748031497,
          "duration": 0.07692299999999364
        },
        {
          "name": "D#2",
          "midi": 39,
          "time": 121.26910949999677,
          "velocity": 0.7874015748031497,
          "duration": 0.07692299999999364
        },
        {
          "name": "D2",
          "midi": 38,
          "time": 121.38449399999676,
          "velocity": 0.7874015748031497,
          "duration": 0.07692299999999364
        },
        {
          "name": "D#2",
          "midi": 39,
          "time": 121.49987849999675,
          "velocity": 0.7874015748031497,
          "duration": 0.07692299999999364
        },
        {
          "name": "D#2",
          "midi": 39,
          "time": 121.61526299999674,
          "velocity": 0.7874015748031497,
          "duration": 0.07692299999999364
        },
        {
          "name": "D#2",
          "midi": 39,
          "time": 121.73064749999673,
          "velocity": 0.7874015748031497,
          "duration": 0.07692299999999364
        },
        {
          "name": "A#1",
          "midi": 34,
          "time": 121.84603199999673,
          "velocity": 0.7874015748031497,
          "duration": 0.15384600000000148
        },
        {
          "name": "A#1",
          "midi": 34,
          "time": 122.07680099999672,
          "velocity": 0.7874015748031497,
          "duration": 0.15384600000000148
        },
        {
          "name": "A#1",
          "midi": 34,
          "time": 122.30756999999672,
          "velocity": 0.7874015748031497,
          "duration": 0.15384600000000148
        },
        {
          "name": "A#1",
          "midi": 34,
          "time": 122.53833899999671,
          "velocity": 0.7874015748031497,
          "duration": 0.15384600000000148
        },
        {
          "name": "A#1",
          "midi": 34,
          "time": 122.7691079999967,
          "velocity": 0.7874015748031497,
          "duration": 0.15384600000000148
        },
        {
          "name": "A#1",
          "midi": 34,
          "time": 122.9998769999967,
          "velocity": 0.7874015748031497,
          "duration": 0.15384600000000148
        },
        {
          "name": "A#1",
          "midi": 34,
          "time": 123.2306459999967,
          "velocity": 0.7874015748031497,
          "duration": 0.15384600000000148
        },
        {
          "name": "A#1",
          "midi": 34,
          "time": 123.46141499999669,
          "velocity": 0.7874015748031497,
          "duration": 0.15384600000000148
        },
        {
          "name": "A1",
          "midi": 33,
          "time": 123.69218399999669,
          "velocity": 0.7874015748031497,
          "duration": 0.15384600000000148
        },
        {
          "name": "A1",
          "midi": 33,
          "time": 123.92295299999668,
          "velocity": 0.7874015748031497,
          "duration": 0.15384600000000148
        },
        {
          "name": "A1",
          "midi": 33,
          "time": 124.15372199999668,
          "velocity": 0.7874015748031497,
          "duration": 0.15384600000000148
        },
        {
          "name": "A1",
          "midi": 33,
          "time": 124.38449099999667,
          "velocity": 0.7874015748031497,
          "duration": 0.15384600000000148
        },
        {
          "name": "G#1",
          "midi": 32,
          "time": 124.61525999999667,
          "velocity": 0.7874015748031497,
          "duration": 0.15384600000000148
        },
        {
          "name": "G#1",
          "midi": 32,
          "time": 124.84602899999666,
          "velocity": 0.7874015748031497,
          "duration": 0.15384600000000148
        },
        {
          "name": "G#1",
          "midi": 32,
          "time": 125.07679799999666,
          "velocity": 0.7874015748031497,
          "duration": 0.15384600000000148
        },
        {
          "name": "G#1",
          "midi": 32,
          "time": 125.30756699999665,
          "velocity": 0.7874015748031497,
          "duration": 0.15384600000000148
        },
        {
          "name": "D2",
          "midi": 38,
          "time": 125.53833599999665,
          "velocity": 0.7874015748031497,
          "duration": 0.07692299999999364
        },
        {
          "name": "D#2",
          "midi": 39,
          "time": 125.65372049999664,
          "velocity": 0.7874015748031497,
          "duration": 0.07692299999999364
        },
        {
          "name": "D#2",
          "midi": 39,
          "time": 125.76910499999663,
          "velocity": 0.7874015748031497,
          "duration": 0.07692299999999364
        },
        {
          "name": "D#2",
          "midi": 39,
          "time": 125.88448949999662,
          "velocity": 0.7874015748031497,
          "duration": 0.07692299999999364
        },
        {
          "name": "D#2",
          "midi": 39,
          "time": 125.99987399999661,
          "velocity": 0.7874015748031497,
          "duration": 0.07692299999999364
        },
        {
          "name": "D#2",
          "midi": 39,
          "time": 126.1152584999966,
          "velocity": 0.7874015748031497,
          "duration": 0.07692299999999364
        },
        {
          "name": "D#2",
          "midi": 39,
          "time": 126.23064299999659,
          "velocity": 0.7874015748031497,
          "duration": 0.07692299999999364
        },
        {
          "name": "D#2",
          "midi": 39,
          "time": 126.34602749999658,
          "velocity": 0.7874015748031497,
          "duration": 0.07692299999999364
        },
        {
          "name": "D2",
          "midi": 38,
          "time": 126.46141199999657,
          "velocity": 0.7874015748031497,
          "duration": 0.07692299999999364
        },
        {
          "name": "D#2",
          "midi": 39,
          "time": 126.57679649999656,
          "velocity": 0.7874015748031497,
          "duration": 0.07692299999999364
        },
        {
          "name": "D#2",
          "midi": 39,
          "time": 126.69218099999655,
          "velocity": 0.7874015748031497,
          "duration": 0.07692299999999364
        },
        {
          "name": "D#2",
          "midi": 39,
          "time": 126.80756549999654,
          "velocity": 0.7874015748031497,
          "duration": 0.07692299999999364
        },
        {
          "name": "D#2",
          "midi": 39,
          "time": 126.92294999999653,
          "velocity": 0.7874015748031497,
          "duration": 0.07692299999999364
        },
        {
          "name": "D#2",
          "midi": 39,
          "time": 127.03833449999652,
          "velocity": 0.7874015748031497,
          "duration": 0.07692299999999364
        },
        {
          "name": "D#2",
          "midi": 39,
          "time": 127.15371899999651,
          "velocity": 0.7874015748031497,
          "duration": 0.07692299999999364
        },
        {
          "name": "D#2",
          "midi": 39,
          "time": 127.2691034999965,
          "velocity": 0.7874015748031497,
          "duration": 0.07692299999999364
        },
        {
          "name": "D2",
          "midi": 38,
          "time": 127.3844879999965,
          "velocity": 0.7874015748031497,
          "duration": 0.07692299999999364
        },
        {
          "name": "D#2",
          "midi": 39,
          "time": 127.49987249999648,
          "velocity": 0.7874015748031497,
          "duration": 0.07692299999999364
        },
        {
          "name": "D#2",
          "midi": 39,
          "time": 127.61525699999648,
          "velocity": 0.7874015748031497,
          "duration": 0.07692299999999364
        },
        {
          "name": "D#2",
          "midi": 39,
          "time": 127.73064149999647,
          "velocity": 0.7874015748031497,
          "duration": 0.07692299999999364
        },
        {
          "name": "D#2",
          "midi": 39,
          "time": 127.84602599999646,
          "velocity": 0.7874015748031497,
          "duration": 0.07692299999999364
        },
        {
          "name": "D#2",
          "midi": 39,
          "time": 127.96141049999645,
          "velocity": 0.7874015748031497,
          "duration": 0.07692299999999364
        },
        {
          "name": "D#2",
          "midi": 39,
          "time": 128.07679499999645,
          "velocity": 0.7874015748031497,
          "duration": 0.07692299999999364
        },
        {
          "name": "D#2",
          "midi": 39,
          "time": 128.19217949999646,
          "velocity": 0.7874015748031497,
          "duration": 0.07692299999999364
        },
        {
          "name": "D2",
          "midi": 38,
          "time": 128.30756399999646,
          "velocity": 0.7874015748031497,
          "duration": 0.07692299999999364
        },
        {
          "name": "D#2",
          "midi": 39,
          "time": 128.42294849999647,
          "velocity": 0.7874015748031497,
          "duration": 0.07692299999999364
        },
        {
          "name": "D#2",
          "midi": 39,
          "time": 128.53833299999647,
          "velocity": 0.7874015748031497,
          "duration": 0.07692299999999364
        },
        {
          "name": "D#2",
          "midi": 39,
          "time": 128.65371749999647,
          "velocity": 0.7874015748031497,
          "duration": 0.07692299999999364
        },
        {
          "name": "D2",
          "midi": 38,
          "time": 128.76910199999648,
          "velocity": 0.7874015748031497,
          "duration": 0.07692299999999364
        },
        {
          "name": "D#2",
          "midi": 39,
          "time": 128.88448649999648,
          "velocity": 0.7874015748031497,
          "duration": 0.07692299999999364
        },
        {
          "name": "D#2",
          "midi": 39,
          "time": 128.9998709999965,
          "velocity": 0.7874015748031497,
          "duration": 0.07692299999999364
        },
        {
          "name": "D#2",
          "midi": 39,
          "time": 129.1152554999965,
          "velocity": 0.7874015748031497,
          "duration": 0.07692299999999364
        },
        {
          "name": "A#1",
          "midi": 34,
          "time": 129.2306399999965,
          "velocity": 0.7874015748031497,
          "duration": 0.15384599999998727
        },
        {
          "name": "A#1",
          "midi": 34,
          "time": 129.46140899999648,
          "velocity": 0.7874015748031497,
          "duration": 0.15384599999998727
        },
        {
          "name": "A#1",
          "midi": 34,
          "time": 129.69217799999646,
          "velocity": 0.7874015748031497,
          "duration": 0.15384599999998727
        },
        {
          "name": "A#1",
          "midi": 34,
          "time": 129.92294699999644,
          "velocity": 0.7874015748031497,
          "duration": 0.15384599999998727
        },
        {
          "name": "A#1",
          "midi": 34,
          "time": 130.15371599999642,
          "velocity": 0.7874015748031497,
          "duration": 0.15384599999998727
        },
        {
          "name": "A#1",
          "midi": 34,
          "time": 130.3844849999964,
          "velocity": 0.7874015748031497,
          "duration": 0.15384599999998727
        },
        {
          "name": "A#1",
          "midi": 34,
          "time": 130.61525399999638,
          "velocity": 0.7874015748031497,
          "duration": 0.15384599999998727
        },
        {
          "name": "A#1",
          "midi": 34,
          "time": 130.84602299999636,
          "velocity": 0.7874015748031497,
          "duration": 0.15384599999998727
        },
        {
          "name": "A1",
          "midi": 33,
          "time": 131.07679199999635,
          "velocity": 0.7874015748031497,
          "duration": 0.15384599999998727
        },
        {
          "name": "A1",
          "midi": 33,
          "time": 131.30756099999633,
          "velocity": 0.7874015748031497,
          "duration": 0.15384599999998727
        },
        {
          "name": "A1",
          "midi": 33,
          "time": 131.5383299999963,
          "velocity": 0.7874015748031497,
          "duration": 0.15384599999998727
        },
        {
          "name": "A1",
          "midi": 33,
          "time": 131.7690989999963,
          "velocity": 0.7874015748031497,
          "duration": 0.15384599999998727
        },
        {
          "name": "G#1",
          "midi": 32,
          "time": 131.99986799999627,
          "velocity": 0.7874015748031497,
          "duration": 0.15384599999998727
        },
        {
          "name": "G#1",
          "midi": 32,
          "time": 132.23063699999625,
          "velocity": 0.7874015748031497,
          "duration": 0.15384599999998727
        },
        {
          "name": "G#1",
          "midi": 32,
          "time": 132.46140599999623,
          "velocity": 0.7874015748031497,
          "duration": 0.15384599999998727
        },
        {
          "name": "G#1",
          "midi": 32,
          "time": 132.6921749999962,
          "velocity": 0.7874015748031497,
          "duration": 0.15384599999998727
        },
        {
          "name": "D2",
          "midi": 38,
          "time": 132.9229439999962,
          "velocity": 0.7874015748031497,
          "duration": 0.07692299999999364
        },
        {
          "name": "D#2",
          "midi": 39,
          "time": 133.0383284999962,
          "velocity": 0.7874015748031497,
          "duration": 0.07692299999999364
        },
        {
          "name": "D#2",
          "midi": 39,
          "time": 133.1537129999962,
          "velocity": 0.7874015748031497,
          "duration": 0.07692299999999364
        },
        {
          "name": "D#2",
          "midi": 39,
          "time": 133.2690974999962,
          "velocity": 0.7874015748031497,
          "duration": 0.07692299999999364
        },
        {
          "name": "D#2",
          "midi": 39,
          "time": 133.3844819999962,
          "velocity": 0.7874015748031497,
          "duration": 0.07692299999999364
        },
        {
          "name": "D#2",
          "midi": 39,
          "time": 133.49986649999622,
          "velocity": 0.7874015748031497,
          "duration": 0.07692299999999364
        },
        {
          "name": "D#2",
          "midi": 39,
          "time": 133.61525099999622,
          "velocity": 0.7874015748031497,
          "duration": 0.07692299999999364
        },
        {
          "name": "D#2",
          "midi": 39,
          "time": 133.73063549999623,
          "velocity": 0.7874015748031497,
          "duration": 0.07692299999999364
        },
        {
          "name": "D2",
          "midi": 38,
          "time": 133.84601999999623,
          "velocity": 0.7874015748031497,
          "duration": 0.07692299999999364
        },
        {
          "name": "D#2",
          "midi": 39,
          "time": 133.96140449999623,
          "velocity": 0.7874015748031497,
          "duration": 0.07692299999999364
        },
        {
          "name": "D#2",
          "midi": 39,
          "time": 134.07678899999624,
          "velocity": 0.7874015748031497,
          "duration": 0.07692299999999364
        },
        {
          "name": "D#2",
          "midi": 39,
          "time": 134.19217349999624,
          "velocity": 0.7874015748031497,
          "duration": 0.07692299999999364
        },
        {
          "name": "D#2",
          "midi": 39,
          "time": 134.30755799999625,
          "velocity": 0.7874015748031497,
          "duration": 0.07692299999999364
        },
        {
          "name": "D#2",
          "midi": 39,
          "time": 134.42294249999625,
          "velocity": 0.7874015748031497,
          "duration": 0.07692299999999364
        },
        {
          "name": "D#2",
          "midi": 39,
          "time": 134.53832699999626,
          "velocity": 0.7874015748031497,
          "duration": 0.07692299999999364
        },
        {
          "name": "D#2",
          "midi": 39,
          "time": 134.65371149999626,
          "velocity": 0.7874015748031497,
          "duration": 0.07692299999999364
        },
        {
          "name": "D2",
          "midi": 38,
          "time": 134.76909599999627,
          "velocity": 0.7874015748031497,
          "duration": 0.07692299999999364
        },
        {
          "name": "D#2",
          "midi": 39,
          "time": 134.88448049999627,
          "velocity": 0.7874015748031497,
          "duration": 0.07692299999999364
        },
        {
          "name": "D#2",
          "midi": 39,
          "time": 134.99986499999628,
          "velocity": 0.7874015748031497,
          "duration": 0.07692299999999364
        },
        {
          "name": "D#2",
          "midi": 39,
          "time": 135.11524949999628,
          "velocity": 0.7874015748031497,
          "duration": 0.07692299999999364
        },
        {
          "name": "D#2",
          "midi": 39,
          "time": 135.2306339999963,
          "velocity": 0.7874015748031497,
          "duration": 0.07692299999999364
        },
        {
          "name": "D#2",
          "midi": 39,
          "time": 135.3460184999963,
          "velocity": 0.7874015748031497,
          "duration": 0.07692299999999364
        },
        {
          "name": "D#2",
          "midi": 39,
          "time": 135.4614029999963,
          "velocity": 0.7874015748031497,
          "duration": 0.07692299999999364
        },
        {
          "name": "D#2",
          "midi": 39,
          "time": 135.5767874999963,
          "velocity": 0.7874015748031497,
          "duration": 0.07692299999999364
        },
        {
          "name": "D2",
          "midi": 38,
          "time": 135.6921719999963,
          "velocity": 0.7874015748031497,
          "duration": 0.07692299999999364
        },
        {
          "name": "D#2",
          "midi": 39,
          "time": 135.8075564999963,
          "velocity": 0.7874015748031497,
          "duration": 0.07692299999999364
        },
        {
          "name": "D#2",
          "midi": 39,
          "time": 135.9229409999963,
          "velocity": 0.7874015748031497,
          "duration": 0.07692299999999364
        },
        {
          "name": "D#2",
          "midi": 39,
          "time": 136.03832549999632,
          "velocity": 0.7874015748031497,
          "duration": 0.07692299999999364
        },
        {
          "name": "D2",
          "midi": 38,
          "time": 136.15370999999632,
          "velocity": 0.7874015748031497,
          "duration": 0.07692299999999364
        },
        {
          "name": "D#2",
          "midi": 39,
          "time": 136.26909449999633,
          "velocity": 0.7874015748031497,
          "duration": 0.07692299999999364
        },
        {
          "name": "D#2",
          "midi": 39,
          "time": 136.38447899999633,
          "velocity": 0.7874015748031497,
          "duration": 0.07692299999999364
        },
        {
          "name": "D#2",
          "midi": 39,
          "time": 136.49986349999634,
          "velocity": 0.7874015748031497,
          "duration": 0.07692299999999364
        },
        {
          "name": "A#1",
          "midi": 34,
          "time": 136.61524799999634,
          "velocity": 0.7874015748031497,
          "duration": 0.15384599999998727
        },
        {
          "name": "A#1",
          "midi": 34,
          "time": 136.84601699999632,
          "velocity": 0.7874015748031497,
          "duration": 0.15384599999998727
        },
        {
          "name": "A#1",
          "midi": 34,
          "time": 137.0767859999963,
          "velocity": 0.7874015748031497,
          "duration": 0.15384599999998727
        },
        {
          "name": "A#1",
          "midi": 34,
          "time": 137.30755499999628,
          "velocity": 0.7874015748031497,
          "duration": 0.15384599999998727
        },
        {
          "name": "A#1",
          "midi": 34,
          "time": 137.53832399999627,
          "velocity": 0.7874015748031497,
          "duration": 0.15384599999998727
        },
        {
          "name": "A#1",
          "midi": 34,
          "time": 137.76909299999625,
          "velocity": 0.7874015748031497,
          "duration": 0.15384599999998727
        },
        {
          "name": "A#1",
          "midi": 34,
          "time": 137.99986199999623,
          "velocity": 0.7874015748031497,
          "duration": 0.15384599999998727
        },
        {
          "name": "A#1",
          "midi": 34,
          "time": 138.2306309999962,
          "velocity": 0.7874015748031497,
          "duration": 0.15384599999998727
        },
        {
          "name": "A1",
          "midi": 33,
          "time": 138.4613999999962,
          "velocity": 0.7874015748031497,
          "duration": 0.15384599999998727
        },
        {
          "name": "A1",
          "midi": 33,
          "time": 138.69216899999617,
          "velocity": 0.7874015748031497,
          "duration": 0.15384599999998727
        },
        {
          "name": "A1",
          "midi": 33,
          "time": 138.92293799999615,
          "velocity": 0.7874015748031497,
          "duration": 0.15384599999998727
        },
        {
          "name": "A1",
          "midi": 33,
          "time": 139.15370699999613,
          "velocity": 0.7874015748031497,
          "duration": 0.15384599999998727
        },
        {
          "name": "G#1",
          "midi": 32,
          "time": 139.3844759999961,
          "velocity": 0.7874015748031497,
          "duration": 0.15384599999998727
        },
        {
          "name": "G#1",
          "midi": 32,
          "time": 139.6152449999961,
          "velocity": 0.7874015748031497,
          "duration": 0.15384599999998727
        },
        {
          "name": "G#1",
          "midi": 32,
          "time": 139.84601399999607,
          "velocity": 0.7874015748031497,
          "duration": 0.15384599999998727
        },
        {
          "name": "G#1",
          "midi": 32,
          "time": 140.07678299999606,
          "velocity": 0.7874015748031497,
          "duration": 0.15384599999998727
        },
        {
          "name": "D2",
          "midi": 38,
          "time": 140.30755199999604,
          "velocity": 0.7874015748031497,
          "duration": 0.07692299999999364
        },
        {
          "name": "D#2",
          "midi": 39,
          "time": 140.42293649999604,
          "velocity": 0.7874015748031497,
          "duration": 0.07692299999999364
        },
        {
          "name": "D#2",
          "midi": 39,
          "time": 140.53832099999605,
          "velocity": 0.7874015748031497,
          "duration": 0.07692299999999364
        },
        {
          "name": "D#2",
          "midi": 39,
          "time": 140.65370549999605,
          "velocity": 0.7874015748031497,
          "duration": 0.07692299999999364
        },
        {
          "name": "D#2",
          "midi": 39,
          "time": 140.76908999999605,
          "velocity": 0.7874015748031497,
          "duration": 0.07692299999999364
        },
        {
          "name": "D#2",
          "midi": 39,
          "time": 140.88447449999606,
          "velocity": 0.7874015748031497,
          "duration": 0.07692299999999364
        },
        {
          "name": "D#2",
          "midi": 39,
          "time": 140.99985899999606,
          "velocity": 0.7874015748031497,
          "duration": 0.07692299999999364
        },
        {
          "name": "D#2",
          "midi": 39,
          "time": 141.11524349999607,
          "velocity": 0.7874015748031497,
          "duration": 0.07692299999999364
        },
        {
          "name": "D2",
          "midi": 38,
          "time": 141.23062799999607,
          "velocity": 0.7874015748031497,
          "duration": 0.07692299999999364
        },
        {
          "name": "D#2",
          "midi": 39,
          "time": 141.34601249999608,
          "velocity": 0.7874015748031497,
          "duration": 0.07692299999999364
        },
        {
          "name": "D#2",
          "midi": 39,
          "time": 141.46139699999608,
          "velocity": 0.7874015748031497,
          "duration": 0.07692299999999364
        },
        {
          "name": "D#2",
          "midi": 39,
          "time": 141.5767814999961,
          "velocity": 0.7874015748031497,
          "duration": 0.07692299999999364
        },
        {
          "name": "D#2",
          "midi": 39,
          "time": 141.6921659999961,
          "velocity": 0.7874015748031497,
          "duration": 0.07692299999999364
        },
        {
          "name": "D#2",
          "midi": 39,
          "time": 141.8075504999961,
          "velocity": 0.7874015748031497,
          "duration": 0.07692299999999364
        },
        {
          "name": "D#2",
          "midi": 39,
          "time": 141.9229349999961,
          "velocity": 0.7874015748031497,
          "duration": 0.07692299999999364
        },
        {
          "name": "D#2",
          "midi": 39,
          "time": 142.0383194999961,
          "velocity": 0.7874015748031497,
          "duration": 0.07692299999999364
        },
        {
          "name": "D2",
          "midi": 38,
          "time": 142.1537039999961,
          "velocity": 0.7874015748031497,
          "duration": 0.07692299999999364
        },
        {
          "name": "D#2",
          "midi": 39,
          "time": 142.26908849999612,
          "velocity": 0.7874015748031497,
          "duration": 0.07692299999999364
        },
        {
          "name": "D#2",
          "midi": 39,
          "time": 142.38447299999612,
          "velocity": 0.7874015748031497,
          "duration": 0.07692299999999364
        },
        {
          "name": "D#2",
          "midi": 39,
          "time": 142.49985749999612,
          "velocity": 0.7874015748031497,
          "duration": 0.07692299999999364
        },
        {
          "name": "D#2",
          "midi": 39,
          "time": 142.61524199999613,
          "velocity": 0.7874015748031497,
          "duration": 0.07692299999999364
        },
        {
          "name": "D#2",
          "midi": 39,
          "time": 142.73062649999613,
          "velocity": 0.7874015748031497,
          "duration": 0.07692299999999364
        },
        {
          "name": "D#2",
          "midi": 39,
          "time": 142.84601099999614,
          "velocity": 0.7874015748031497,
          "duration": 0.07692299999999364
        },
        {
          "name": "D#2",
          "midi": 39,
          "time": 142.96139549999614,
          "velocity": 0.7874015748031497,
          "duration": 0.07692299999999364
        },
        {
          "name": "D2",
          "midi": 38,
          "time": 143.07677999999615,
          "velocity": 0.7874015748031497,
          "duration": 0.07692299999999364
        },
        {
          "name": "D#2",
          "midi": 39,
          "time": 143.19216449999615,
          "velocity": 0.7874015748031497,
          "duration": 0.07692299999999364
        },
        {
          "name": "D#2",
          "midi": 39,
          "time": 143.30754899999616,
          "velocity": 0.7874015748031497,
          "duration": 0.07692299999999364
        },
        {
          "name": "D#2",
          "midi": 39,
          "time": 143.42293349999616,
          "velocity": 0.7874015748031497,
          "duration": 0.07692299999999364
        },
        {
          "name": "D2",
          "midi": 38,
          "time": 143.53831799999617,
          "velocity": 0.7874015748031497,
          "duration": 0.07692299999999364
        },
        {
          "name": "D#2",
          "midi": 39,
          "time": 143.65370249999617,
          "velocity": 0.7874015748031497,
          "duration": 0.07692299999999364
        },
        {
          "name": "D#2",
          "midi": 39,
          "time": 143.76908699999618,
          "velocity": 0.7874015748031497,
          "duration": 0.07692299999999364
        },
        {
          "name": "D#2",
          "midi": 39,
          "time": 143.88447149999618,
          "velocity": 0.7874015748031497,
          "duration": 0.07692299999999364
        },
        {
          "name": "A#1",
          "midi": 34,
          "time": 143.99985599999619,
          "velocity": 0.7874015748031497,
          "duration": 0.15384599999998727
        },
        {
          "name": "A#1",
          "midi": 34,
          "time": 144.23062499999617,
          "velocity": 0.7874015748031497,
          "duration": 0.15384599999998727
        },
        {
          "name": "A#1",
          "midi": 34,
          "time": 144.46139399999615,
          "velocity": 0.7874015748031497,
          "duration": 0.15384599999998727
        },
        {
          "name": "A#1",
          "midi": 34,
          "time": 144.69216299999613,
          "velocity": 0.7874015748031497,
          "duration": 0.15384599999998727
        },
        {
          "name": "A#1",
          "midi": 34,
          "time": 144.9229319999961,
          "velocity": 0.7874015748031497,
          "duration": 0.15384599999998727
        },
        {
          "name": "A#1",
          "midi": 34,
          "time": 145.1537009999961,
          "velocity": 0.7874015748031497,
          "duration": 0.15384599999998727
        },
        {
          "name": "A#1",
          "midi": 34,
          "time": 145.38446999999607,
          "velocity": 0.7874015748031497,
          "duration": 0.15384599999998727
        },
        {
          "name": "A#1",
          "midi": 34,
          "time": 145.61523899999605,
          "velocity": 0.7874015748031497,
          "duration": 0.15384599999998727
        },
        {
          "name": "A1",
          "midi": 33,
          "time": 145.84600799999603,
          "velocity": 0.7874015748031497,
          "duration": 0.15384599999998727
        },
        {
          "name": "A1",
          "midi": 33,
          "time": 146.076776999996,
          "velocity": 0.7874015748031497,
          "duration": 0.15384599999998727
        },
        {
          "name": "A1",
          "midi": 33,
          "time": 146.307545999996,
          "velocity": 0.7874015748031497,
          "duration": 0.15384599999998727
        },
        {
          "name": "A1",
          "midi": 33,
          "time": 146.53831499999598,
          "velocity": 0.7874015748031497,
          "duration": 0.15384599999998727
        },
        {
          "name": "G#1",
          "midi": 32,
          "time": 146.76908399999596,
          "velocity": 0.7874015748031497,
          "duration": 0.15384599999998727
        },
        {
          "name": "G#1",
          "midi": 32,
          "time": 146.99985299999594,
          "velocity": 0.7874015748031497,
          "duration": 0.15384599999998727
        },
        {
          "name": "G#1",
          "midi": 32,
          "time": 147.23062199999592,
          "velocity": 0.7874015748031497,
          "duration": 0.15384599999998727
        },
        {
          "name": "G#1",
          "midi": 32,
          "time": 147.4613909999959,
          "velocity": 0.7874015748031497,
          "duration": 0.15384599999998727
        },
        {
          "name": "D2",
          "midi": 38,
          "time": 147.69215999999588,
          "velocity": 0.7874015748031497,
          "duration": 0.07692299999999364
        },
        {
          "name": "D#2",
          "midi": 39,
          "time": 147.80754449999588,
          "velocity": 0.7874015748031497,
          "duration": 0.07692299999999364
        },
        {
          "name": "D#2",
          "midi": 39,
          "time": 147.9229289999959,
          "velocity": 0.7874015748031497,
          "duration": 0.07692299999999364
        },
        {
          "name": "D#2",
          "midi": 39,
          "time": 148.0383134999959,
          "velocity": 0.7874015748031497,
          "duration": 0.07692299999999364
        },
        {
          "name": "D#2",
          "midi": 39,
          "time": 148.1536979999959,
          "velocity": 0.7874015748031497,
          "duration": 0.07692299999999364
        },
        {
          "name": "D#2",
          "midi": 39,
          "time": 148.2690824999959,
          "velocity": 0.7874015748031497,
          "duration": 0.07692299999999364
        },
        {
          "name": "D#2",
          "midi": 39,
          "time": 148.3844669999959,
          "velocity": 0.7874015748031497,
          "duration": 0.07692299999999364
        },
        {
          "name": "D#2",
          "midi": 39,
          "time": 148.4998514999959,
          "velocity": 0.7874015748031497,
          "duration": 0.07692299999999364
        },
        {
          "name": "D2",
          "midi": 38,
          "time": 148.61523599999592,
          "velocity": 0.7874015748031497,
          "duration": 0.07692299999999364
        },
        {
          "name": "D#2",
          "midi": 39,
          "time": 148.73062049999592,
          "velocity": 0.7874015748031497,
          "duration": 0.07692299999999364
        },
        {
          "name": "D#2",
          "midi": 39,
          "time": 148.84600499999593,
          "velocity": 0.7874015748031497,
          "duration": 0.07692299999999364
        },
        {
          "name": "D#2",
          "midi": 39,
          "time": 148.96138949999593,
          "velocity": 0.7874015748031497,
          "duration": 0.07692299999999364
        },
        {
          "name": "D#2",
          "midi": 39,
          "time": 149.07677399999594,
          "velocity": 0.7874015748031497,
          "duration": 0.07692299999999364
        },
        {
          "name": "D#2",
          "midi": 39,
          "time": 149.19215849999594,
          "velocity": 0.7874015748031497,
          "duration": 0.07692299999999364
        },
        {
          "name": "D#2",
          "midi": 39,
          "time": 149.30754299999595,
          "velocity": 0.7874015748031497,
          "duration": 0.07692299999999364
        },
        {
          "name": "D#2",
          "midi": 39,
          "time": 149.42292749999595,
          "velocity": 0.7874015748031497,
          "duration": 0.07692299999999364
        },
        {
          "name": "D2",
          "midi": 38,
          "time": 149.53831199999595,
          "velocity": 0.7874015748031497,
          "duration": 0.07692299999999364
        },
        {
          "name": "D#2",
          "midi": 39,
          "time": 149.65369649999596,
          "velocity": 0.7874015748031497,
          "duration": 0.07692299999999364
        },
        {
          "name": "D#2",
          "midi": 39,
          "time": 149.76908099999596,
          "velocity": 0.7874015748031497,
          "duration": 0.07692299999999364
        },
        {
          "name": "D#2",
          "midi": 39,
          "time": 149.88446549999597,
          "velocity": 0.7874015748031497,
          "duration": 0.07692299999999364
        },
        {
          "name": "D#2",
          "midi": 39,
          "time": 149.99984999999597,
          "velocity": 0.7874015748031497,
          "duration": 0.07692299999999364
        },
        {
          "name": "D#2",
          "midi": 39,
          "time": 150.11523449999598,
          "velocity": 0.7874015748031497,
          "duration": 0.07692299999999364
        },
        {
          "name": "D#2",
          "midi": 39,
          "time": 150.23061899999598,
          "velocity": 0.7874015748031497,
          "duration": 0.07692299999999364
        },
        {
          "name": "D#2",
          "midi": 39,
          "time": 150.346003499996,
          "velocity": 0.7874015748031497,
          "duration": 0.07692299999999364
        },
        {
          "name": "D2",
          "midi": 38,
          "time": 150.461387999996,
          "velocity": 0.7874015748031497,
          "duration": 0.07692299999999364
        },
        {
          "name": "D#2",
          "midi": 39,
          "time": 150.576772499996,
          "velocity": 0.7874015748031497,
          "duration": 0.07692299999999364
        },
        {
          "name": "D#2",
          "midi": 39,
          "time": 150.692156999996,
          "velocity": 0.7874015748031497,
          "duration": 0.07692299999999364
        },
        {
          "name": "D#2",
          "midi": 39,
          "time": 150.807541499996,
          "velocity": 0.7874015748031497,
          "duration": 0.07692299999999364
        },
        {
          "name": "D2",
          "midi": 38,
          "time": 150.922925999996,
          "velocity": 0.7874015748031497,
          "duration": 0.07692299999999364
        },
        {
          "name": "D#2",
          "midi": 39,
          "time": 151.03831049999602,
          "velocity": 0.7874015748031497,
          "duration": 0.07692299999999364
        },
        {
          "name": "D#2",
          "midi": 39,
          "time": 151.15369499999602,
          "velocity": 0.7874015748031497,
          "duration": 0.07692299999999364
        },
        {
          "name": "D#2",
          "midi": 39,
          "time": 151.26907949999602,
          "velocity": 0.7874015748031497,
          "duration": 0.07692299999999364
        },
        {
          "name": "D2",
          "midi": 38,
          "time": 151.38446399999603,
          "velocity": 0.7874015748031497,
          "duration": 0.07692299999999364
        },
        {
          "name": "D#2",
          "midi": 39,
          "time": 151.49984849999603,
          "velocity": 0.7874015748031497,
          "duration": 0.07692299999999364
        },
        {
          "name": "D#2",
          "midi": 39,
          "time": 151.61523299999604,
          "velocity": 0.7874015748031497,
          "duration": 0.07692299999999364
        },
        {
          "name": "D#2",
          "midi": 39,
          "time": 151.73061749999604,
          "velocity": 0.7874015748031497,
          "duration": 0.07692299999999364
        },
        {
          "name": "D#2",
          "midi": 39,
          "time": 151.84600199999605,
          "velocity": 0.7874015748031497,
          "duration": 0.07692299999999364
        },
        {
          "name": "D#2",
          "midi": 39,
          "time": 151.96138649999605,
          "velocity": 0.7874015748031497,
          "duration": 0.07692299999999364
        },
        {
          "name": "D#2",
          "midi": 39,
          "time": 152.07677099999606,
          "velocity": 0.7874015748031497,
          "duration": 0.07692299999999364
        },
        {
          "name": "D#2",
          "midi": 39,
          "time": 152.19215549999606,
          "velocity": 0.7874015748031497,
          "duration": 0.07692299999999364
        },
        {
          "name": "D2",
          "midi": 38,
          "time": 152.30753999999607,
          "velocity": 0.7874015748031497,
          "duration": 0.07692299999999364
        },
        {
          "name": "D#2",
          "midi": 39,
          "time": 152.42292449999607,
          "velocity": 0.7874015748031497,
          "duration": 0.07692299999999364
        },
        {
          "name": "D#2",
          "midi": 39,
          "time": 152.53830899999608,
          "velocity": 0.7874015748031497,
          "duration": 0.07692299999999364
        },
        {
          "name": "D#2",
          "midi": 39,
          "time": 152.65369349999608,
          "velocity": 0.7874015748031497,
          "duration": 0.07692299999999364
        },
        {
          "name": "D#2",
          "midi": 39,
          "time": 152.76907799999609,
          "velocity": 0.7874015748031497,
          "duration": 0.07692299999999364
        },
        {
          "name": "D#2",
          "midi": 39,
          "time": 152.8844624999961,
          "velocity": 0.7874015748031497,
          "duration": 0.07692299999999364
        },
        {
          "name": "D#2",
          "midi": 39,
          "time": 152.9998469999961,
          "velocity": 0.7874015748031497,
          "duration": 0.07692299999999364
        },
        {
          "name": "D#2",
          "midi": 39,
          "time": 153.1152314999961,
          "velocity": 0.7874015748031497,
          "duration": 0.07692299999999364
        },
        {
          "name": "D2",
          "midi": 38,
          "time": 153.2306159999961,
          "velocity": 0.7874015748031497,
          "duration": 0.07692299999999364
        },
        {
          "name": "D#2",
          "midi": 39,
          "time": 153.3460004999961,
          "velocity": 0.7874015748031497,
          "duration": 0.07692299999999364
        },
        {
          "name": "D#2",
          "midi": 39,
          "time": 153.4613849999961,
          "velocity": 0.7874015748031497,
          "duration": 0.07692299999999364
        },
        {
          "name": "D#2",
          "midi": 39,
          "time": 153.57676949999612,
          "velocity": 0.7874015748031497,
          "duration": 0.07692299999999364
        },
        {
          "name": "D#2",
          "midi": 39,
          "time": 153.69215399999612,
          "velocity": 0.7874015748031497,
          "duration": 0.07692299999999364
        },
        {
          "name": "D#2",
          "midi": 39,
          "time": 153.80753849999613,
          "velocity": 0.7874015748031497,
          "duration": 0.07692299999999364
        },
        {
          "name": "D#2",
          "midi": 39,
          "time": 153.92292299999613,
          "velocity": 0.7874015748031497,
          "duration": 0.07692299999999364
        },
        {
          "name": "D#2",
          "midi": 39,
          "time": 154.03830749999614,
          "velocity": 0.7874015748031497,
          "duration": 0.07692299999999364
        },
        {
          "name": "D2",
          "midi": 38,
          "time": 154.15369199999614,
          "velocity": 0.7874015748031497,
          "duration": 0.07692299999999364
        },
        {
          "name": "D#2",
          "midi": 39,
          "time": 154.26907649999615,
          "velocity": 0.7874015748031497,
          "duration": 0.07692299999999364
        },
        {
          "name": "D#2",
          "midi": 39,
          "time": 154.38446099999615,
          "velocity": 0.7874015748031497,
          "duration": 0.07692299999999364
        },
        {
          "name": "D#2",
          "midi": 39,
          "time": 154.49984549999616,
          "velocity": 0.7874015748031497,
          "duration": 0.07692299999999364
        },
        {
          "name": "D2",
          "midi": 38,
          "time": 154.61522999999616,
          "velocity": 0.7874015748031497,
          "duration": 0.07692299999999364
        },
        {
          "name": "D#2",
          "midi": 39,
          "time": 154.73061449999616,
          "velocity": 0.7874015748031497,
          "duration": 0.07692299999999364
        },
        {
          "name": "D#2",
          "midi": 39,
          "time": 154.84599899999617,
          "velocity": 0.7874015748031497,
          "duration": 0.07692299999999364
        },
        {
          "name": "D#2",
          "midi": 39,
          "time": 154.96138349999617,
          "velocity": 0.7874015748031497,
          "duration": 0.07692299999999364
        },
        {
          "name": "D2",
          "midi": 38,
          "time": 155.07676799999618,
          "velocity": 0.7874015748031497,
          "duration": 0.07692299999999364
        },
        {
          "name": "D#2",
          "midi": 39,
          "time": 155.19215249999618,
          "velocity": 0.7874015748031497,
          "duration": 0.07692299999999364
        },
        {
          "name": "D#2",
          "midi": 39,
          "time": 155.3075369999962,
          "velocity": 0.7874015748031497,
          "duration": 0.07692299999999364
        },
        {
          "name": "D#2",
          "midi": 39,
          "time": 155.4229214999962,
          "velocity": 0.7874015748031497,
          "duration": 0.07692299999999364
        },
        {
          "name": "D#2",
          "midi": 39,
          "time": 155.5383059999962,
          "velocity": 0.7874015748031497,
          "duration": 0.07692299999999364
        },
        {
          "name": "D#2",
          "midi": 39,
          "time": 155.6536904999962,
          "velocity": 0.7874015748031497,
          "duration": 0.07692299999999364
        },
        {
          "name": "D#2",
          "midi": 39,
          "time": 155.7690749999962,
          "velocity": 0.7874015748031497,
          "duration": 0.07692299999999364
        },
        {
          "name": "D#2",
          "midi": 39,
          "time": 155.8844594999962,
          "velocity": 0.7874015748031497,
          "duration": 0.07692299999999364
        },
        {
          "name": "D2",
          "midi": 38,
          "time": 155.99984399999622,
          "velocity": 0.7874015748031497,
          "duration": 0.07692299999999364
        },
        {
          "name": "D#2",
          "midi": 39,
          "time": 156.11522849999622,
          "velocity": 0.7874015748031497,
          "duration": 0.07692299999999364
        },
        {
          "name": "D#2",
          "midi": 39,
          "time": 156.23061299999623,
          "velocity": 0.7874015748031497,
          "duration": 0.07692299999999364
        },
        {
          "name": "D#2",
          "midi": 39,
          "time": 156.34599749999623,
          "velocity": 0.7874015748031497,
          "duration": 0.07692299999999364
        },
        {
          "name": "D#2",
          "midi": 39,
          "time": 156.46138199999623,
          "velocity": 0.7874015748031497,
          "duration": 0.07692299999999364
        },
        {
          "name": "D#2",
          "midi": 39,
          "time": 156.57676649999624,
          "velocity": 0.7874015748031497,
          "duration": 0.07692299999999364
        },
        {
          "name": "D#2",
          "midi": 39,
          "time": 156.69215099999624,
          "velocity": 0.7874015748031497,
          "duration": 0.07692299999999364
        },
        {
          "name": "D#2",
          "midi": 39,
          "time": 156.80753549999625,
          "velocity": 0.7874015748031497,
          "duration": 0.07692299999999364
        },
        {
          "name": "D2",
          "midi": 38,
          "time": 156.92291999999625,
          "velocity": 0.7874015748031497,
          "duration": 0.07692299999999364
        },
        {
          "name": "D#2",
          "midi": 39,
          "time": 157.03830449999626,
          "velocity": 0.7874015748031497,
          "duration": 0.07692299999999364
        },
        {
          "name": "D#2",
          "midi": 39,
          "time": 157.15368899999626,
          "velocity": 0.7874015748031497,
          "duration": 0.07692299999999364
        },
        {
          "name": "D#2",
          "midi": 39,
          "time": 157.26907349999627,
          "velocity": 0.7874015748031497,
          "duration": 0.07692299999999364
        },
        {
          "name": "D#2",
          "midi": 39,
          "time": 157.38445799999627,
          "velocity": 0.7874015748031497,
          "duration": 0.07692299999999364
        },
        {
          "name": "D#2",
          "midi": 39,
          "time": 157.49984249999628,
          "velocity": 0.7874015748031497,
          "duration": 0.07692299999999364
        },
        {
          "name": "D#2",
          "midi": 39,
          "time": 157.61522699999628,
          "velocity": 0.7874015748031497,
          "duration": 0.07692299999999364
        },
        {
          "name": "D#2",
          "midi": 39,
          "time": 157.7306114999963,
          "velocity": 0.7874015748031497,
          "duration": 0.07692299999999364
        },
        {
          "name": "D2",
          "midi": 38,
          "time": 157.8459959999963,
          "velocity": 0.7874015748031497,
          "duration": 0.07692299999999364
        },
        {
          "name": "D#2",
          "midi": 39,
          "time": 157.9613804999963,
          "velocity": 0.7874015748031497,
          "duration": 0.07692299999999364
        },
        {
          "name": "D#2",
          "midi": 39,
          "time": 158.0767649999963,
          "velocity": 0.7874015748031497,
          "duration": 0.07692299999999364
        },
        {
          "name": "D#2",
          "midi": 39,
          "time": 158.1921494999963,
          "velocity": 0.7874015748031497,
          "duration": 0.07692299999999364
        },
        {
          "name": "D2",
          "midi": 38,
          "time": 158.3075339999963,
          "velocity": 0.7874015748031497,
          "duration": 0.07692299999999364
        },
        {
          "name": "D#2",
          "midi": 39,
          "time": 158.4229184999963,
          "velocity": 0.7874015748031497,
          "duration": 0.07692299999999364
        },
        {
          "name": "D#2",
          "midi": 39,
          "time": 158.53830299999632,
          "velocity": 0.7874015748031497,
          "duration": 0.07692299999999364
        },
        {
          "name": "D#2",
          "midi": 39,
          "time": 158.65368749999632,
          "velocity": 0.7874015748031497,
          "duration": 0.07692299999999364
        },
        {
          "name": "D2",
          "midi": 38,
          "time": 158.76907199999633,
          "velocity": 0.7874015748031497,
          "duration": 0.07692299999999364
        },
        {
          "name": "D#2",
          "midi": 39,
          "time": 158.88445649999633,
          "velocity": 0.7874015748031497,
          "duration": 0.07692299999999364
        },
        {
          "name": "D#2",
          "midi": 39,
          "time": 158.99984099999634,
          "velocity": 0.7874015748031497,
          "duration": 0.07692299999999364
        },
        {
          "name": "D#2",
          "midi": 39,
          "time": 159.11522549999634,
          "velocity": 0.7874015748031497,
          "duration": 0.07692299999999364
        },
        {
          "name": "D#2",
          "midi": 39,
          "time": 159.23060999999635,
          "velocity": 0.7874015748031497,
          "duration": 0.07692299999999364
        },
        {
          "name": "D#2",
          "midi": 39,
          "time": 159.34599449999635,
          "velocity": 0.7874015748031497,
          "duration": 0.07692299999999364
        },
        {
          "name": "D#2",
          "midi": 39,
          "time": 159.46137899999636,
          "velocity": 0.7874015748031497,
          "duration": 0.07692299999999364
        },
        {
          "name": "D#2",
          "midi": 39,
          "time": 159.57676349999636,
          "velocity": 0.7874015748031497,
          "duration": 0.07692299999999364
        },
        {
          "name": "D2",
          "midi": 38,
          "time": 159.69214799999637,
          "velocity": 0.7874015748031497,
          "duration": 0.07692299999999364
        },
        {
          "name": "D#2",
          "midi": 39,
          "time": 159.80753249999637,
          "velocity": 0.7874015748031497,
          "duration": 0.07692299999999364
        },
        {
          "name": "D#2",
          "midi": 39,
          "time": 159.92291699999637,
          "velocity": 0.7874015748031497,
          "duration": 0.07692299999999364
        },
        {
          "name": "D#2",
          "midi": 39,
          "time": 160.03830149999638,
          "velocity": 0.7874015748031497,
          "duration": 0.07692299999999364
        },
        {
          "name": "D#2",
          "midi": 39,
          "time": 160.15368599999638,
          "velocity": 0.7874015748031497,
          "duration": 0.07692299999999364
        },
        {
          "name": "D#2",
          "midi": 39,
          "time": 160.2690704999964,
          "velocity": 0.7874015748031497,
          "duration": 0.07692299999999364
        },
        {
          "name": "D#2",
          "midi": 39,
          "time": 160.3844549999964,
          "velocity": 0.7874015748031497,
          "duration": 0.07692299999999364
        },
        {
          "name": "D#2",
          "midi": 39,
          "time": 160.4998394999964,
          "velocity": 0.7874015748031497,
          "duration": 0.07692299999999364
        },
        {
          "name": "D2",
          "midi": 38,
          "time": 160.6152239999964,
          "velocity": 0.7874015748031497,
          "duration": 0.07692299999999364
        },
        {
          "name": "D#2",
          "midi": 39,
          "time": 160.7306084999964,
          "velocity": 0.7874015748031497,
          "duration": 0.07692299999999364
        },
        {
          "name": "D#2",
          "midi": 39,
          "time": 160.8459929999964,
          "velocity": 0.7874015748031497,
          "duration": 0.07692299999999364
        },
        {
          "name": "D#2",
          "midi": 39,
          "time": 160.96137749999642,
          "velocity": 0.7874015748031497,
          "duration": 0.07692299999999364
        },
        {
          "name": "D#2",
          "midi": 39,
          "time": 161.07676199999642,
          "velocity": 0.7874015748031497,
          "duration": 0.07692299999999364
        },
        {
          "name": "D#2",
          "midi": 39,
          "time": 161.19214649999643,
          "velocity": 0.7874015748031497,
          "duration": 0.07692299999999364
        },
        {
          "name": "D#2",
          "midi": 39,
          "time": 161.30753099999643,
          "velocity": 0.7874015748031497,
          "duration": 0.07692299999999364
        },
        {
          "name": "D#2",
          "midi": 39,
          "time": 161.42291549999644,
          "velocity": 0.7874015748031497,
          "duration": 0.07692299999999364
        },
        {
          "name": "D2",
          "midi": 38,
          "time": 161.53829999999644,
          "velocity": 0.7874015748031497,
          "duration": 0.07692299999999364
        },
        {
          "name": "D#2",
          "midi": 39,
          "time": 161.65368449999644,
          "velocity": 0.7874015748031497,
          "duration": 0.07692299999999364
        },
        {
          "name": "D#2",
          "midi": 39,
          "time": 161.76906899999645,
          "velocity": 0.7874015748031497,
          "duration": 0.07692299999999364
        },
        {
          "name": "D#2",
          "midi": 39,
          "time": 161.88445349999645,
          "velocity": 0.7874015748031497,
          "duration": 0.07692299999999364
        },
        {
          "name": "D2",
          "midi": 38,
          "time": 161.99983799999646,
          "velocity": 0.7874015748031497,
          "duration": 0.07692299999999364
        },
        {
          "name": "D#2",
          "midi": 39,
          "time": 162.11522249999646,
          "velocity": 0.7874015748031497,
          "duration": 0.07692299999999364
        },
        {
          "name": "D#2",
          "midi": 39,
          "time": 162.23060699999647,
          "velocity": 0.7874015748031497,
          "duration": 0.07692299999999364
        },
        {
          "name": "D#2",
          "midi": 39,
          "time": 162.34599149999647,
          "velocity": 0.7874015748031497,
          "duration": 0.07692299999999364
        },
        {
          "name": "D2",
          "midi": 38,
          "time": 162.46137599999648,
          "velocity": 0.7874015748031497,
          "duration": 0.07692299999999364
        },
        {
          "name": "D#2",
          "midi": 39,
          "time": 162.57676049999648,
          "velocity": 0.7874015748031497,
          "duration": 0.07692299999999364
        },
        {
          "name": "D#2",
          "midi": 39,
          "time": 162.6921449999965,
          "velocity": 0.7874015748031497,
          "duration": 0.07692299999999364
        },
        {
          "name": "D#2",
          "midi": 39,
          "time": 162.8075294999965,
          "velocity": 0.7874015748031497,
          "duration": 0.07692299999999364
        },
        {
          "name": "D#2",
          "midi": 39,
          "time": 162.9229139999965,
          "velocity": 0.7874015748031497,
          "duration": 0.07692299999999364
        },
        {
          "name": "D#2",
          "midi": 39,
          "time": 163.0382984999965,
          "velocity": 0.7874015748031497,
          "duration": 0.07692299999999364
        },
        {
          "name": "D#2",
          "midi": 39,
          "time": 163.1536829999965,
          "velocity": 0.7874015748031497,
          "duration": 0.07692299999999364
        },
        {
          "name": "D#2",
          "midi": 39,
          "time": 163.2690674999965,
          "velocity": 0.7874015748031497,
          "duration": 0.07692299999999364
        },
        {
          "name": "D2",
          "midi": 38,
          "time": 163.38445199999651,
          "velocity": 0.7874015748031497,
          "duration": 0.07692299999999364
        },
        {
          "name": "D#2",
          "midi": 39,
          "time": 163.49983649999652,
          "velocity": 0.7874015748031497,
          "duration": 0.07692299999999364
        },
        {
          "name": "D#2",
          "midi": 39,
          "time": 163.61522099999652,
          "velocity": 0.7874015748031497,
          "duration": 0.07692299999999364
        },
        {
          "name": "D#2",
          "midi": 39,
          "time": 163.73060549999653,
          "velocity": 0.7874015748031497,
          "duration": 0.07692299999999364
        },
        {
          "name": "D#2",
          "midi": 39,
          "time": 163.84598999999653,
          "velocity": 0.7874015748031497,
          "duration": 0.07692299999999364
        },
        {
          "name": "D#2",
          "midi": 39,
          "time": 163.96137449999654,
          "velocity": 0.7874015748031497,
          "duration": 0.07692299999999364
        },
        {
          "name": "D#2",
          "midi": 39,
          "time": 164.07675899999654,
          "velocity": 0.7874015748031497,
          "duration": 0.07692299999999364
        },
        {
          "name": "D#2",
          "midi": 39,
          "time": 164.19214349999655,
          "velocity": 0.7874015748031497,
          "duration": 0.07692299999999364
        },
        {
          "name": "D2",
          "midi": 38,
          "time": 164.30752799999655,
          "velocity": 0.7874015748031497,
          "duration": 0.07692299999999364
        },
        {
          "name": "D#2",
          "midi": 39,
          "time": 164.42291249999656,
          "velocity": 0.7874015748031497,
          "duration": 0.07692299999999364
        },
        {
          "name": "D#2",
          "midi": 39,
          "time": 164.53829699999656,
          "velocity": 0.7874015748031497,
          "duration": 0.07692299999999364
        },
        {
          "name": "D#2",
          "midi": 39,
          "time": 164.65368149999657,
          "velocity": 0.7874015748031497,
          "duration": 0.07692299999999364
        },
        {
          "name": "D#2",
          "midi": 39,
          "time": 164.76906599999657,
          "velocity": 0.7874015748031497,
          "duration": 0.07692299999999364
        },
        {
          "name": "D#2",
          "midi": 39,
          "time": 164.88445049999657,
          "velocity": 0.7874015748031497,
          "duration": 0.07692299999999364
        },
        {
          "name": "D#2",
          "midi": 39,
          "time": 164.99983499999658,
          "velocity": 0.7874015748031497,
          "duration": 0.07692299999999364
        },
        {
          "name": "D#2",
          "midi": 39,
          "time": 165.11521949999658,
          "velocity": 0.7874015748031497,
          "duration": 0.07692299999999364
        },
        {
          "name": "D2",
          "midi": 38,
          "time": 165.2306039999966,
          "velocity": 0.7874015748031497,
          "duration": 0.07692299999999364
        },
        {
          "name": "D#2",
          "midi": 39,
          "time": 165.3459884999966,
          "velocity": 0.7874015748031497,
          "duration": 0.07692299999999364
        },
        {
          "name": "D#2",
          "midi": 39,
          "time": 165.4613729999966,
          "velocity": 0.7874015748031497,
          "duration": 0.07692299999999364
        },
        {
          "name": "D#2",
          "midi": 39,
          "time": 165.5767574999966,
          "velocity": 0.7874015748031497,
          "duration": 0.07692299999999364
        },
        {
          "name": "D2",
          "midi": 38,
          "time": 165.6921419999966,
          "velocity": 0.7874015748031497,
          "duration": 0.07692299999999364
        },
        {
          "name": "D#2",
          "midi": 39,
          "time": 165.8075264999966,
          "velocity": 0.7874015748031497,
          "duration": 0.07692299999999364
        },
        {
          "name": "D#2",
          "midi": 39,
          "time": 165.92291099999662,
          "velocity": 0.7874015748031497,
          "duration": 0.07692299999999364
        },
        {
          "name": "D#2",
          "midi": 39,
          "time": 166.03829549999662,
          "velocity": 0.7874015748031497,
          "duration": 0.07692299999999364
        },
        {
          "name": "D2",
          "midi": 38,
          "time": 166.15367999999663,
          "velocity": 0.7874015748031497,
          "duration": 0.07692299999999364
        },
        {
          "name": "D#2",
          "midi": 39,
          "time": 166.26906449999663,
          "velocity": 0.7874015748031497,
          "duration": 0.07692299999999364
        },
        {
          "name": "D#2",
          "midi": 39,
          "time": 166.38444899999664,
          "velocity": 0.7874015748031497,
          "duration": 0.07692299999999364
        },
        {
          "name": "D#2",
          "midi": 39,
          "time": 166.49983349999664,
          "velocity": 0.7874015748031497,
          "duration": 0.07692299999999364
        },
        {
          "name": "D#2",
          "midi": 39,
          "time": 166.61521799999664,
          "velocity": 0.7874015748031497,
          "duration": 0.07692299999999364
        },
        {
          "name": "D#2",
          "midi": 39,
          "time": 166.73060249999665,
          "velocity": 0.7874015748031497,
          "duration": 0.07692299999999364
        },
        {
          "name": "D#2",
          "midi": 39,
          "time": 166.84598699999665,
          "velocity": 0.7874015748031497,
          "duration": 0.07692299999999364
        },
        {
          "name": "D#2",
          "midi": 39,
          "time": 166.96137149999666,
          "velocity": 0.7874015748031497,
          "duration": 0.07692299999999364
        },
        {
          "name": "D2",
          "midi": 38,
          "time": 167.07675599999666,
          "velocity": 0.7874015748031497,
          "duration": 0.07692299999999364
        },
        {
          "name": "D#2",
          "midi": 39,
          "time": 167.19214049999667,
          "velocity": 0.7874015748031497,
          "duration": 0.07692299999999364
        },
        {
          "name": "D#2",
          "midi": 39,
          "time": 167.30752499999667,
          "velocity": 0.7874015748031497,
          "duration": 0.07692299999999364
        },
        {
          "name": "D#2",
          "midi": 39,
          "time": 167.42290949999668,
          "velocity": 0.7874015748031497,
          "duration": 0.07692299999999364
        },
        {
          "name": "D#2",
          "midi": 39,
          "time": 167.53829399999668,
          "velocity": 0.7874015748031497,
          "duration": 0.07692299999999364
        },
        {
          "name": "D#2",
          "midi": 39,
          "time": 167.6536784999967,
          "velocity": 0.7874015748031497,
          "duration": 0.07692299999999364
        },
        {
          "name": "D#2",
          "midi": 39,
          "time": 167.7690629999967,
          "velocity": 0.7874015748031497,
          "duration": 0.07692299999999364
        },
        {
          "name": "D#2",
          "midi": 39,
          "time": 167.8844474999967,
          "velocity": 0.7874015748031497,
          "duration": 0.07692299999999364
        },
        {
          "name": "D2",
          "midi": 38,
          "time": 167.9998319999967,
          "velocity": 0.7874015748031497,
          "duration": 0.07692299999999364
        },
        {
          "name": "D#2",
          "midi": 39,
          "time": 168.1152164999967,
          "velocity": 0.7874015748031497,
          "duration": 0.07692299999999364
        },
        {
          "name": "D#2",
          "midi": 39,
          "time": 168.2306009999967,
          "velocity": 0.7874015748031497,
          "duration": 0.07692299999999364
        },
        {
          "name": "D#2",
          "midi": 39,
          "time": 168.34598549999671,
          "velocity": 0.7874015748031497,
          "duration": 0.07692299999999364
        },
        {
          "name": "D#2",
          "midi": 39,
          "time": 168.46136999999672,
          "velocity": 0.7874015748031497,
          "duration": 0.07692299999999364
        },
        {
          "name": "D#2",
          "midi": 39,
          "time": 168.57675449999672,
          "velocity": 0.7874015748031497,
          "duration": 0.07692299999999364
        },
        {
          "name": "D#2",
          "midi": 39,
          "time": 168.69213899999673,
          "velocity": 0.7874015748031497,
          "duration": 0.07692299999999364
        },
        {
          "name": "D#2",
          "midi": 39,
          "time": 168.80752349999673,
          "velocity": 0.7874015748031497,
          "duration": 0.07692299999999364
        },
        {
          "name": "D2",
          "midi": 38,
          "time": 168.92290799999674,
          "velocity": 0.7874015748031497,
          "duration": 0.07692299999999364
        },
        {
          "name": "D#2",
          "midi": 39,
          "time": 169.03829249999674,
          "velocity": 0.7874015748031497,
          "duration": 0.07692299999999364
        },
        {
          "name": "D#2",
          "midi": 39,
          "time": 169.15367699999675,
          "velocity": 0.7874015748031497,
          "duration": 0.07692299999999364
        },
        {
          "name": "D#2",
          "midi": 39,
          "time": 169.26906149999675,
          "velocity": 0.7874015748031497,
          "duration": 0.07692299999999364
        },
        {
          "name": "D2",
          "midi": 38,
          "time": 169.38444599999676,
          "velocity": 0.7874015748031497,
          "duration": 0.07692299999999364
        },
        {
          "name": "D#2",
          "midi": 39,
          "time": 169.49983049999676,
          "velocity": 0.7874015748031497,
          "duration": 0.07692299999999364
        },
        {
          "name": "D#2",
          "midi": 39,
          "time": 169.61521499999677,
          "velocity": 0.7874015748031497,
          "duration": 0.07692299999999364
        },
        {
          "name": "D#2",
          "midi": 39,
          "time": 169.73059949999677,
          "velocity": 0.7874015748031497,
          "duration": 0.07692299999999364
        },
        {
          "name": "D2",
          "midi": 38,
          "time": 169.84598399999678,
          "velocity": 0.7874015748031497,
          "duration": 0.07692299999999364
        },
        {
          "name": "D#2",
          "midi": 39,
          "time": 169.96136849999678,
          "velocity": 0.7874015748031497,
          "duration": 0.07692299999999364
        },
        {
          "name": "D#2",
          "midi": 39,
          "time": 170.07675299999678,
          "velocity": 0.7874015748031497,
          "duration": 0.07692299999999364
        },
        {
          "name": "D#2",
          "midi": 39,
          "time": 170.1921374999968,
          "velocity": 0.7874015748031497,
          "duration": 0.07692299999999364
        },
        {
          "name": "D#2",
          "midi": 39,
          "time": 170.3075219999968,
          "velocity": 0.7874015748031497,
          "duration": 0.07692299999999364
        },
        {
          "name": "D#2",
          "midi": 39,
          "time": 170.4229064999968,
          "velocity": 0.7874015748031497,
          "duration": 0.07692299999999364
        },
        {
          "name": "D#2",
          "midi": 39,
          "time": 170.5382909999968,
          "velocity": 0.7874015748031497,
          "duration": 0.07692299999999364
        },
        {
          "name": "D#2",
          "midi": 39,
          "time": 170.6536754999968,
          "velocity": 0.7874015748031497,
          "duration": 0.07692299999999364
        },
        {
          "name": "D2",
          "midi": 38,
          "time": 170.7690599999968,
          "velocity": 0.7874015748031497,
          "duration": 0.07692299999999364
        },
        {
          "name": "D#2",
          "midi": 39,
          "time": 170.88444449999682,
          "velocity": 0.7874015748031497,
          "duration": 0.07692299999999364
        },
        {
          "name": "D#2",
          "midi": 39,
          "time": 170.99982899999682,
          "velocity": 0.7874015748031497,
          "duration": 0.07692299999999364
        },
        {
          "name": "D#2",
          "midi": 39,
          "time": 171.11521349999683,
          "velocity": 0.7874015748031497,
          "duration": 0.07692299999999364
        },
        {
          "name": "D#2",
          "midi": 39,
          "time": 171.23059799999683,
          "velocity": 0.7874015748031497,
          "duration": 0.07692299999999364
        },
        {
          "name": "D#2",
          "midi": 39,
          "time": 171.34598249999684,
          "velocity": 0.7874015748031497,
          "duration": 0.07692299999999364
        },
        {
          "name": "D#2",
          "midi": 39,
          "time": 171.46136699999684,
          "velocity": 0.7874015748031497,
          "duration": 0.07692299999999364
        },
        {
          "name": "D#2",
          "midi": 39,
          "time": 171.57675149999685,
          "velocity": 0.7874015748031497,
          "duration": 0.07692299999999364
        },
        {
          "name": "D2",
          "midi": 38,
          "time": 171.69213599999685,
          "velocity": 0.7874015748031497,
          "duration": 0.07692299999999364
        },
        {
          "name": "D#2",
          "midi": 39,
          "time": 171.80752049999685,
          "velocity": 0.7874015748031497,
          "duration": 0.07692299999999364
        },
        {
          "name": "D#2",
          "midi": 39,
          "time": 171.92290499999686,
          "velocity": 0.7874015748031497,
          "duration": 0.07692299999999364
        },
        {
          "name": "D#2",
          "midi": 39,
          "time": 172.03828949999686,
          "velocity": 0.7874015748031497,
          "duration": 0.07692299999999364
        },
        {
          "name": "D#2",
          "midi": 39,
          "time": 172.15367399999687,
          "velocity": 0.7874015748031497,
          "duration": 0.07692299999999364
        },
        {
          "name": "D#2",
          "midi": 39,
          "time": 172.26905849999687,
          "velocity": 0.7874015748031497,
          "duration": 0.07692299999999364
        },
        {
          "name": "D#2",
          "midi": 39,
          "time": 172.38444299999688,
          "velocity": 0.7874015748031497,
          "duration": 0.07692299999999364
        },
        {
          "name": "D#2",
          "midi": 39,
          "time": 172.49982749999688,
          "velocity": 0.7874015748031497,
          "duration": 0.07692299999999364
        },
        {
          "name": "D2",
          "midi": 38,
          "time": 172.6152119999969,
          "velocity": 0.7874015748031497,
          "duration": 0.07692299999999364
        },
        {
          "name": "D#2",
          "midi": 39,
          "time": 172.7305964999969,
          "velocity": 0.7874015748031497,
          "duration": 0.07692299999999364
        },
        {
          "name": "D#2",
          "midi": 39,
          "time": 172.8459809999969,
          "velocity": 0.7874015748031497,
          "duration": 0.07692299999999364
        },
        {
          "name": "D#2",
          "midi": 39,
          "time": 172.9613654999969,
          "velocity": 0.7874015748031497,
          "duration": 0.07692299999999364
        },
        {
          "name": "D2",
          "midi": 38,
          "time": 173.0767499999969,
          "velocity": 0.7874015748031497,
          "duration": 0.07692299999999364
        },
        {
          "name": "D#2",
          "midi": 39,
          "time": 173.1921344999969,
          "velocity": 0.7874015748031497,
          "duration": 0.07692299999999364
        },
        {
          "name": "D#2",
          "midi": 39,
          "time": 173.30751899999692,
          "velocity": 0.7874015748031497,
          "duration": 0.07692299999999364
        },
        {
          "name": "D#2",
          "midi": 39,
          "time": 173.42290349999692,
          "velocity": 0.7874015748031497,
          "duration": 0.07692299999999364
        },
        {
          "name": "D2",
          "midi": 38,
          "time": 173.53828799999692,
          "velocity": 0.7874015748031497,
          "duration": 0.07692299999999364
        },
        {
          "name": "D#2",
          "midi": 39,
          "time": 173.65367249999693,
          "velocity": 0.7874015748031497,
          "duration": 0.07692299999999364
        },
        {
          "name": "D#2",
          "midi": 39,
          "time": 173.76905699999693,
          "velocity": 0.7874015748031497,
          "duration": 0.07692299999999364
        },
        {
          "name": "D#2",
          "midi": 39,
          "time": 173.88444149999694,
          "velocity": 0.7874015748031497,
          "duration": 0.07692299999999364
        },
        {
          "name": "D#2",
          "midi": 39,
          "time": 173.99982599999694,
          "velocity": 0.7874015748031497,
          "duration": 0.07692299999999364
        },
        {
          "name": "D#2",
          "midi": 39,
          "time": 174.11521049999695,
          "velocity": 0.7874015748031497,
          "duration": 0.07692299999999364
        },
        {
          "name": "D#2",
          "midi": 39,
          "time": 174.23059499999695,
          "velocity": 0.7874015748031497,
          "duration": 0.07692299999999364
        },
        {
          "name": "D#2",
          "midi": 39,
          "time": 174.34597949999696,
          "velocity": 0.7874015748031497,
          "duration": 0.07692299999999364
        },
        {
          "name": "D2",
          "midi": 38,
          "time": 174.46136399999696,
          "velocity": 0.7874015748031497,
          "duration": 0.07692299999999364
        },
        {
          "name": "D#2",
          "midi": 39,
          "time": 174.57674849999697,
          "velocity": 0.7874015748031497,
          "duration": 0.07692299999999364
        },
        {
          "name": "D#2",
          "midi": 39,
          "time": 174.69213299999697,
          "velocity": 0.7874015748031497,
          "duration": 0.07692299999999364
        },
        {
          "name": "D#2",
          "midi": 39,
          "time": 174.80751749999698,
          "velocity": 0.7874015748031497,
          "duration": 0.07692299999999364
        },
        {
          "name": "D#2",
          "midi": 39,
          "time": 174.92290199999698,
          "velocity": 0.7874015748031497,
          "duration": 0.07692299999999364
        },
        {
          "name": "D#2",
          "midi": 39,
          "time": 175.03828649999699,
          "velocity": 0.7874015748031497,
          "duration": 0.07692299999999364
        },
        {
          "name": "D#2",
          "midi": 39,
          "time": 175.153670999997,
          "velocity": 0.7874015748031497,
          "duration": 0.07692299999999364
        },
        {
          "name": "D#2",
          "midi": 39,
          "time": 175.269055499997,
          "velocity": 0.7874015748031497,
          "duration": 0.07692299999999364
        },
        {
          "name": "D2",
          "midi": 38,
          "time": 175.384439999997,
          "velocity": 0.7874015748031497,
          "duration": 0.07692299999999364
        },
        {
          "name": "D#2",
          "midi": 39,
          "time": 175.499824499997,
          "velocity": 0.7874015748031497,
          "duration": 0.07692299999999364
        },
        {
          "name": "D#2",
          "midi": 39,
          "time": 175.615208999997,
          "velocity": 0.7874015748031497,
          "duration": 0.07692299999999364
        },
        {
          "name": "D#2",
          "midi": 39,
          "time": 175.730593499997,
          "velocity": 0.7874015748031497,
          "duration": 0.07692299999999364
        },
        {
          "name": "D#2",
          "midi": 39,
          "time": 175.84597799999702,
          "velocity": 0.7874015748031497,
          "duration": 0.07692299999999364
        },
        {
          "name": "D#2",
          "midi": 39,
          "time": 175.96136249999702,
          "velocity": 0.7874015748031497,
          "duration": 0.07692299999999364
        },
        {
          "name": "D#2",
          "midi": 39,
          "time": 176.07674699999703,
          "velocity": 0.7874015748031497,
          "duration": 0.07692299999999364
        },
        {
          "name": "D#2",
          "midi": 39,
          "time": 176.19213149999703,
          "velocity": 0.7874015748031497,
          "duration": 0.07692299999999364
        },
        {
          "name": "D2",
          "midi": 38,
          "time": 176.30751599999704,
          "velocity": 0.7874015748031497,
          "duration": 0.07692299999999364
        },
        {
          "name": "D#2",
          "midi": 39,
          "time": 176.42290049999704,
          "velocity": 0.7874015748031497,
          "duration": 0.07692299999999364
        },
        {
          "name": "D#2",
          "midi": 39,
          "time": 176.53828499999705,
          "velocity": 0.7874015748031497,
          "duration": 0.07692299999999364
        },
        {
          "name": "D#2",
          "midi": 39,
          "time": 176.65366949999705,
          "velocity": 0.7874015748031497,
          "duration": 0.07692299999999364
        },
        {
          "name": "D2",
          "midi": 38,
          "time": 176.76905399999706,
          "velocity": 0.7874015748031497,
          "duration": 0.07692299999999364
        },
        {
          "name": "D#2",
          "midi": 39,
          "time": 176.88443849999706,
          "velocity": 0.7874015748031497,
          "duration": 0.07692299999999364
        },
        {
          "name": "D#2",
          "midi": 39,
          "time": 176.99982299999706,
          "velocity": 0.7874015748031497,
          "duration": 0.07692299999999364
        },
        {
          "name": "D#2",
          "midi": 39,
          "time": 177.11520749999707,
          "velocity": 0.7874015748031497,
          "duration": 0.07692299999999364
        },
        {
          "name": "D2",
          "midi": 38,
          "time": 177.23059199999707,
          "velocity": 0.7874015748031497,
          "duration": 0.07692299999999364
        },
        {
          "name": "D#2",
          "midi": 39,
          "time": 177.34597649999708,
          "velocity": 0.7874015748031497,
          "duration": 0.07692299999999364
        },
        {
          "name": "D#2",
          "midi": 39,
          "time": 177.46136099999708,
          "velocity": 0.7874015748031497,
          "duration": 0.07692299999999364
        },
        {
          "name": "D#2",
          "midi": 39,
          "time": 177.5767454999971,
          "velocity": 0.7874015748031497,
          "duration": 0.07692299999999364
        },
        {
          "name": "D#2",
          "midi": 39,
          "time": 177.6921299999971,
          "velocity": 0.7874015748031497,
          "duration": 0.07692299999999364
        },
        {
          "name": "D#2",
          "midi": 39,
          "time": 177.8075144999971,
          "velocity": 0.7874015748031497,
          "duration": 0.07692299999999364
        },
        {
          "name": "D#2",
          "midi": 39,
          "time": 177.9228989999971,
          "velocity": 0.7874015748031497,
          "duration": 0.07692299999999364
        },
        {
          "name": "D#2",
          "midi": 39,
          "time": 178.0382834999971,
          "velocity": 0.7874015748031497,
          "duration": 0.07692299999999364
        },
        {
          "name": "D2",
          "midi": 38,
          "time": 178.1536679999971,
          "velocity": 0.7874015748031497,
          "duration": 0.07692299999999364
        },
        {
          "name": "D#2",
          "midi": 39,
          "time": 178.26905249999712,
          "velocity": 0.7874015748031497,
          "duration": 0.07692299999999364
        },
        {
          "name": "D#2",
          "midi": 39,
          "time": 178.38443699999712,
          "velocity": 0.7874015748031497,
          "duration": 0.07692299999999364
        },
        {
          "name": "D#2",
          "midi": 39,
          "time": 178.49982149999713,
          "velocity": 0.7874015748031497,
          "duration": 0.07692299999999364
        },
        {
          "name": "D#2",
          "midi": 39,
          "time": 178.61520599999713,
          "velocity": 0.7874015748031497,
          "duration": 0.07692299999999364
        },
        {
          "name": "D#2",
          "midi": 39,
          "time": 178.73059049999713,
          "velocity": 0.7874015748031497,
          "duration": 0.07692299999999364
        },
        {
          "name": "D#2",
          "midi": 39,
          "time": 178.84597499999714,
          "velocity": 0.7874015748031497,
          "duration": 0.07692299999999364
        },
        {
          "name": "D#2",
          "midi": 39,
          "time": 178.96135949999714,
          "velocity": 0.7874015748031497,
          "duration": 0.07692299999999364
        },
        {
          "name": "D2",
          "midi": 38,
          "time": 179.07674399999715,
          "velocity": 0.7874015748031497,
          "duration": 0.07692299999999364
        },
        {
          "name": "D#2",
          "midi": 39,
          "time": 179.19212849999715,
          "velocity": 0.7874015748031497,
          "duration": 0.07692299999999364
        },
        {
          "name": "D#2",
          "midi": 39,
          "time": 179.30751299999716,
          "velocity": 0.7874015748031497,
          "duration": 0.07692299999999364
        },
        {
          "name": "D#2",
          "midi": 39,
          "time": 179.42289749999716,
          "velocity": 0.7874015748031497,
          "duration": 0.07692299999999364
        },
        {
          "name": "D#2",
          "midi": 39,
          "time": 179.53828199999717,
          "velocity": 0.7874015748031497,
          "duration": 0.07692299999999364
        },
        {
          "name": "D#2",
          "midi": 39,
          "time": 179.65366649999717,
          "velocity": 0.7874015748031497,
          "duration": 0.07692299999999364
        },
        {
          "name": "D#2",
          "midi": 39,
          "time": 179.76905099999718,
          "velocity": 0.7874015748031497,
          "duration": 0.07692299999999364
        },
        {
          "name": "D#2",
          "midi": 39,
          "time": 179.88443549999718,
          "velocity": 0.7874015748031497,
          "duration": 0.07692299999999364
        },
        {
          "name": "D2",
          "midi": 38,
          "time": 179.9998199999972,
          "velocity": 0.7874015748031497,
          "duration": 0.07692299999999364
        },
        {
          "name": "D#2",
          "midi": 39,
          "time": 180.1152044999972,
          "velocity": 0.7874015748031497,
          "duration": 0.07692299999999364
        },
        {
          "name": "D#2",
          "midi": 39,
          "time": 180.2305889999972,
          "velocity": 0.7874015748031497,
          "duration": 0.07692299999999364
        },
        {
          "name": "D#2",
          "midi": 39,
          "time": 180.3459734999972,
          "velocity": 0.7874015748031497,
          "duration": 0.07692299999999364
        },
        {
          "name": "D2",
          "midi": 38,
          "time": 180.4613579999972,
          "velocity": 0.7874015748031497,
          "duration": 0.07692299999999364
        },
        {
          "name": "D#2",
          "midi": 39,
          "time": 180.5767424999972,
          "velocity": 0.7874015748031497,
          "duration": 0.07692299999999364
        },
        {
          "name": "D#2",
          "midi": 39,
          "time": 180.6921269999972,
          "velocity": 0.7874015748031497,
          "duration": 0.07692299999999364
        },
        {
          "name": "D#2",
          "midi": 39,
          "time": 180.80751149999722,
          "velocity": 0.7874015748031497,
          "duration": 0.07692299999999364
        },
        {
          "name": "A#1",
          "midi": 34,
          "time": 180.92289599999722,
          "velocity": 0.7874015748031497,
          "duration": 0.15384599999998727
        },
        {
          "name": "A#1",
          "midi": 34,
          "time": 181.1536649999972,
          "velocity": 0.7874015748031497,
          "duration": 0.15384599999998727
        },
        {
          "name": "A#1",
          "midi": 34,
          "time": 181.38443399999719,
          "velocity": 0.7874015748031497,
          "duration": 0.15384599999998727
        },
        {
          "name": "A#1",
          "midi": 34,
          "time": 181.61520299999717,
          "velocity": 0.7874015748031497,
          "duration": 0.15384599999998727
        },
        {
          "name": "A#1",
          "midi": 34,
          "time": 181.84597199999715,
          "velocity": 0.7874015748031497,
          "duration": 0.15384599999998727
        },
        {
          "name": "A#1",
          "midi": 34,
          "time": 182.07674099999713,
          "velocity": 0.7874015748031497,
          "duration": 0.15384599999998727
        },
        {
          "name": "A#1",
          "midi": 34,
          "time": 182.3075099999971,
          "velocity": 0.7874015748031497,
          "duration": 0.15384599999998727
        },
        {
          "name": "A#1",
          "midi": 34,
          "time": 182.5382789999971,
          "velocity": 0.7874015748031497,
          "duration": 0.15384599999998727
        },
        {
          "name": "A1",
          "midi": 33,
          "time": 182.76904799999707,
          "velocity": 0.7874015748031497,
          "duration": 0.15384599999998727
        },
        {
          "name": "A1",
          "midi": 33,
          "time": 182.99981699999705,
          "velocity": 0.7874015748031497,
          "duration": 0.15384599999998727
        },
        {
          "name": "A1",
          "midi": 33,
          "time": 183.23058599999703,
          "velocity": 0.7874015748031497,
          "duration": 0.15384599999998727
        },
        {
          "name": "A1",
          "midi": 33,
          "time": 183.461354999997,
          "velocity": 0.7874015748031497,
          "duration": 0.15384599999998727
        },
        {
          "name": "G#1",
          "midi": 32,
          "time": 183.692123999997,
          "velocity": 0.7874015748031497,
          "duration": 0.15384599999998727
        },
        {
          "name": "G#1",
          "midi": 32,
          "time": 183.92289299999698,
          "velocity": 0.7874015748031497,
          "duration": 0.15384599999998727
        },
        {
          "name": "G#1",
          "midi": 32,
          "time": 184.15366199999696,
          "velocity": 0.7874015748031497,
          "duration": 0.15384599999998727
        },
        {
          "name": "G#1",
          "midi": 32,
          "time": 184.38443099999694,
          "velocity": 0.7874015748031497,
          "duration": 0.15384599999998727
        },
        {
          "name": "D2",
          "midi": 38,
          "time": 184.61519999999692,
          "velocity": 0.7874015748031497,
          "duration": 0.07692299999999364
        },
        {
          "name": "D#2",
          "midi": 39,
          "time": 184.73058449999692,
          "velocity": 0.7874015748031497,
          "duration": 0.07692299999999364
        },
        {
          "name": "D#2",
          "midi": 39,
          "time": 184.84596899999693,
          "velocity": 0.7874015748031497,
          "duration": 0.07692299999999364
        },
        {
          "name": "D#2",
          "midi": 39,
          "time": 184.96135349999693,
          "velocity": 0.7874015748031497,
          "duration": 0.07692299999999364
        },
        {
          "name": "D#2",
          "midi": 39,
          "time": 185.07673799999694,
          "velocity": 0.7874015748031497,
          "duration": 0.07692299999999364
        },
        {
          "name": "D#2",
          "midi": 39,
          "time": 185.19212249999694,
          "velocity": 0.7874015748031497,
          "duration": 0.07692299999999364
        },
        {
          "name": "D#2",
          "midi": 39,
          "time": 185.30750699999695,
          "velocity": 0.7874015748031497,
          "duration": 0.07692299999999364
        },
        {
          "name": "D#2",
          "midi": 39,
          "time": 185.42289149999695,
          "velocity": 0.7874015748031497,
          "duration": 0.07692299999999364
        },
        {
          "name": "D2",
          "midi": 38,
          "time": 185.53827599999696,
          "velocity": 0.7874015748031497,
          "duration": 0.07692299999999364
        },
        {
          "name": "D#2",
          "midi": 39,
          "time": 185.65366049999696,
          "velocity": 0.7874015748031497,
          "duration": 0.07692299999999364
        },
        {
          "name": "D#2",
          "midi": 39,
          "time": 185.76904499999696,
          "velocity": 0.7874015748031497,
          "duration": 0.07692299999999364
        },
        {
          "name": "D#2",
          "midi": 39,
          "time": 185.88442949999697,
          "velocity": 0.7874015748031497,
          "duration": 0.07692299999999364
        },
        {
          "name": "D#2",
          "midi": 39,
          "time": 185.99981399999697,
          "velocity": 0.7874015748031497,
          "duration": 0.07692299999999364
        },
        {
          "name": "D#2",
          "midi": 39,
          "time": 186.11519849999698,
          "velocity": 0.7874015748031497,
          "duration": 0.07692299999999364
        },
        {
          "name": "D#2",
          "midi": 39,
          "time": 186.23058299999698,
          "velocity": 0.7874015748031497,
          "duration": 0.07692299999999364
        },
        {
          "name": "D#2",
          "midi": 39,
          "time": 186.345967499997,
          "velocity": 0.7874015748031497,
          "duration": 0.07692299999999364
        },
        {
          "name": "D2",
          "midi": 38,
          "time": 186.461351999997,
          "velocity": 0.7874015748031497,
          "duration": 0.07692299999999364
        },
        {
          "name": "D#2",
          "midi": 39,
          "time": 186.576736499997,
          "velocity": 0.7874015748031497,
          "duration": 0.07692299999999364
        },
        {
          "name": "D#2",
          "midi": 39,
          "time": 186.692120999997,
          "velocity": 0.7874015748031497,
          "duration": 0.07692299999999364
        },
        {
          "name": "D#2",
          "midi": 39,
          "time": 186.807505499997,
          "velocity": 0.7874015748031497,
          "duration": 0.07692299999999364
        },
        {
          "name": "D#2",
          "midi": 39,
          "time": 186.922889999997,
          "velocity": 0.7874015748031497,
          "duration": 0.07692299999999364
        },
        {
          "name": "D#2",
          "midi": 39,
          "time": 187.03827449999702,
          "velocity": 0.7874015748031497,
          "duration": 0.07692299999999364
        },
        {
          "name": "D#2",
          "midi": 39,
          "time": 187.15365899999702,
          "velocity": 0.7874015748031497,
          "duration": 0.07692299999999364
        },
        {
          "name": "D#2",
          "midi": 39,
          "time": 187.26904349999703,
          "velocity": 0.7874015748031497,
          "duration": 0.07692299999999364
        },
        {
          "name": "D2",
          "midi": 38,
          "time": 187.38442799999703,
          "velocity": 0.7874015748031497,
          "duration": 0.07692299999999364
        },
        {
          "name": "D#2",
          "midi": 39,
          "time": 187.49981249999703,
          "velocity": 0.7874015748031497,
          "duration": 0.07692299999999364
        },
        {
          "name": "D#2",
          "midi": 39,
          "time": 187.61519699999704,
          "velocity": 0.7874015748031497,
          "duration": 0.07692299999999364
        },
        {
          "name": "D#2",
          "midi": 39,
          "time": 187.73058149999704,
          "velocity": 0.7874015748031497,
          "duration": 0.07692299999999364
        },
        {
          "name": "D2",
          "midi": 38,
          "time": 187.84596599999705,
          "velocity": 0.7874015748031497,
          "duration": 0.07692299999999364
        },
        {
          "name": "D#2",
          "midi": 39,
          "time": 187.96135049999705,
          "velocity": 0.7874015748031497,
          "duration": 0.07692299999999364
        },
        {
          "name": "D#2",
          "midi": 39,
          "time": 188.07673499999706,
          "velocity": 0.7874015748031497,
          "duration": 0.07692299999999364
        },
        {
          "name": "D#2",
          "midi": 39,
          "time": 188.19211949999706,
          "velocity": 0.7874015748031497,
          "duration": 0.07692299999999364
        },
        {
          "name": "A#1",
          "midi": 34,
          "time": 188.30750399999707,
          "velocity": 0.7874015748031497,
          "duration": 0.15384599999998727
        },
        {
          "name": "A#1",
          "midi": 34,
          "time": 188.53827299999705,
          "velocity": 0.7874015748031497,
          "duration": 0.15384599999998727
        },
        {
          "name": "A#1",
          "midi": 34,
          "time": 188.76904199999703,
          "velocity": 0.7874015748031497,
          "duration": 0.15384599999998727
        },
        {
          "name": "A#1",
          "midi": 34,
          "time": 188.999810999997,
          "velocity": 0.7874015748031497,
          "duration": 0.15384599999998727
        },
        {
          "name": "A#1",
          "midi": 34,
          "time": 189.230579999997,
          "velocity": 0.7874015748031497,
          "duration": 0.15384599999998727
        },
        {
          "name": "A#1",
          "midi": 34,
          "time": 189.46134899999697,
          "velocity": 0.7874015748031497,
          "duration": 0.15384599999998727
        },
        {
          "name": "A#1",
          "midi": 34,
          "time": 189.69211799999695,
          "velocity": 0.7874015748031497,
          "duration": 0.15384599999998727
        },
        {
          "name": "A#1",
          "midi": 34,
          "time": 189.92288699999693,
          "velocity": 0.7874015748031497,
          "duration": 0.15384599999998727
        },
        {
          "name": "A1",
          "midi": 33,
          "time": 190.15365599999691,
          "velocity": 0.7874015748031497,
          "duration": 0.15384599999998727
        },
        {
          "name": "A1",
          "midi": 33,
          "time": 190.3844249999969,
          "velocity": 0.7874015748031497,
          "duration": 0.15384599999998727
        },
        {
          "name": "A1",
          "midi": 33,
          "time": 190.61519399999688,
          "velocity": 0.7874015748031497,
          "duration": 0.15384599999998727
        },
        {
          "name": "A1",
          "midi": 33,
          "time": 190.84596299999686,
          "velocity": 0.7874015748031497,
          "duration": 0.15384599999998727
        },
        {
          "name": "G#1",
          "midi": 32,
          "time": 191.07673199999684,
          "velocity": 0.7874015748031497,
          "duration": 0.15384599999998727
        },
        {
          "name": "G#1",
          "midi": 32,
          "time": 191.30750099999682,
          "velocity": 0.7874015748031497,
          "duration": 0.15384599999998727
        },
        {
          "name": "G#1",
          "midi": 32,
          "time": 191.5382699999968,
          "velocity": 0.7874015748031497,
          "duration": 0.15384599999998727
        },
        {
          "name": "G#1",
          "midi": 32,
          "time": 191.76903899999678,
          "velocity": 0.7874015748031497,
          "duration": 0.15384599999998727
        },
        {
          "name": "D2",
          "midi": 38,
          "time": 191.99980799999676,
          "velocity": 0.7874015748031497,
          "duration": 0.07692299999999364
        },
        {
          "name": "D#2",
          "midi": 39,
          "time": 192.11519249999677,
          "velocity": 0.7874015748031497,
          "duration": 0.07692299999999364
        },
        {
          "name": "D#2",
          "midi": 39,
          "time": 192.23057699999677,
          "velocity": 0.7874015748031497,
          "duration": 0.07692299999999364
        },
        {
          "name": "D#2",
          "midi": 39,
          "time": 192.34596149999678,
          "velocity": 0.7874015748031497,
          "duration": 0.07692299999999364
        },
        {
          "name": "D#2",
          "midi": 39,
          "time": 192.46134599999678,
          "velocity": 0.7874015748031497,
          "duration": 0.07692299999999364
        },
        {
          "name": "D#2",
          "midi": 39,
          "time": 192.57673049999678,
          "velocity": 0.7874015748031497,
          "duration": 0.07692299999999364
        },
        {
          "name": "D#2",
          "midi": 39,
          "time": 192.6921149999968,
          "velocity": 0.7874015748031497,
          "duration": 0.07692299999999364
        },
        {
          "name": "D#2",
          "midi": 39,
          "time": 192.8074994999968,
          "velocity": 0.7874015748031497,
          "duration": 0.07692299999999364
        },
        {
          "name": "D2",
          "midi": 38,
          "time": 192.9228839999968,
          "velocity": 0.7874015748031497,
          "duration": 0.07692299999999364
        },
        {
          "name": "D#2",
          "midi": 39,
          "time": 193.0382684999968,
          "velocity": 0.7874015748031497,
          "duration": 0.07692299999999364
        },
        {
          "name": "D#2",
          "midi": 39,
          "time": 193.1536529999968,
          "velocity": 0.7874015748031497,
          "duration": 0.07692299999999364
        },
        {
          "name": "D#2",
          "midi": 39,
          "time": 193.2690374999968,
          "velocity": 0.7874015748031497,
          "duration": 0.07692299999999364
        },
        {
          "name": "D#2",
          "midi": 39,
          "time": 193.38442199999682,
          "velocity": 0.7874015748031497,
          "duration": 0.07692299999999364
        },
        {
          "name": "D#2",
          "midi": 39,
          "time": 193.49980649999682,
          "velocity": 0.7874015748031497,
          "duration": 0.07692299999999364
        },
        {
          "name": "D#2",
          "midi": 39,
          "time": 193.61519099999683,
          "velocity": 0.7874015748031497,
          "duration": 0.07692299999999364
        },
        {
          "name": "D#2",
          "midi": 39,
          "time": 193.73057549999683,
          "velocity": 0.7874015748031497,
          "duration": 0.07692299999999364
        },
        {
          "name": "D2",
          "midi": 38,
          "time": 193.84595999999684,
          "velocity": 0.7874015748031497,
          "duration": 0.07692299999999364
        },
        {
          "name": "D#2",
          "midi": 39,
          "time": 193.96134449999684,
          "velocity": 0.7874015748031497,
          "duration": 0.07692299999999364
        },
        {
          "name": "D#2",
          "midi": 39,
          "time": 194.07672899999685,
          "velocity": 0.7874015748031497,
          "duration": 0.07692299999999364
        },
        {
          "name": "D#2",
          "midi": 39,
          "time": 194.19211349999685,
          "velocity": 0.7874015748031497,
          "duration": 0.07692299999999364
        },
        {
          "name": "D#2",
          "midi": 39,
          "time": 194.30749799999685,
          "velocity": 0.7874015748031497,
          "duration": 0.07692299999999364
        },
        {
          "name": "D#2",
          "midi": 39,
          "time": 194.42288249999686,
          "velocity": 0.7874015748031497,
          "duration": 0.07692299999999364
        },
        {
          "name": "D#2",
          "midi": 39,
          "time": 194.53826699999686,
          "velocity": 0.7874015748031497,
          "duration": 0.07692299999999364
        },
        {
          "name": "D#2",
          "midi": 39,
          "time": 194.65365149999687,
          "velocity": 0.7874015748031497,
          "duration": 0.07692299999999364
        },
        {
          "name": "D2",
          "midi": 38,
          "time": 194.76903599999687,
          "velocity": 0.7874015748031497,
          "duration": 0.07692299999999364
        },
        {
          "name": "D#2",
          "midi": 39,
          "time": 194.88442049999688,
          "velocity": 0.7874015748031497,
          "duration": 0.07692299999999364
        },
        {
          "name": "D#2",
          "midi": 39,
          "time": 194.99980499999688,
          "velocity": 0.7874015748031497,
          "duration": 0.07692299999999364
        },
        {
          "name": "D#2",
          "midi": 39,
          "time": 195.1151894999969,
          "velocity": 0.7874015748031497,
          "duration": 0.07692299999999364
        },
        {
          "name": "D2",
          "midi": 38,
          "time": 195.2305739999969,
          "velocity": 0.7874015748031497,
          "duration": 0.07692299999999364
        },
        {
          "name": "D#2",
          "midi": 39,
          "time": 195.3459584999969,
          "velocity": 0.7874015748031497,
          "duration": 0.07692299999999364
        },
        {
          "name": "D#2",
          "midi": 39,
          "time": 195.4613429999969,
          "velocity": 0.7874015748031497,
          "duration": 0.07692299999999364
        },
        {
          "name": "D#2",
          "midi": 39,
          "time": 195.5767274999969,
          "velocity": 0.7874015748031497,
          "duration": 0.07692299999999364
        },
        {
          "name": "A#1",
          "midi": 34,
          "time": 195.6921119999969,
          "velocity": 0.7874015748031497,
          "duration": 0.15384599999998727
        },
        {
          "name": "A#1",
          "midi": 34,
          "time": 195.9228809999969,
          "velocity": 0.7874015748031497,
          "duration": 0.15384599999998727
        },
        {
          "name": "A#1",
          "midi": 34,
          "time": 196.15364999999687,
          "velocity": 0.7874015748031497,
          "duration": 0.15384599999998727
        },
        {
          "name": "A#1",
          "midi": 34,
          "time": 196.38441899999685,
          "velocity": 0.7874015748031497,
          "duration": 0.15384599999998727
        },
        {
          "name": "A#1",
          "midi": 34,
          "time": 196.61518799999683,
          "velocity": 0.7874015748031497,
          "duration": 0.15384599999998727
        },
        {
          "name": "A#1",
          "midi": 34,
          "time": 196.84595699999682,
          "velocity": 0.7874015748031497,
          "duration": 0.15384599999998727
        },
        {
          "name": "A#1",
          "midi": 34,
          "time": 197.0767259999968,
          "velocity": 0.7874015748031497,
          "duration": 0.15384599999998727
        },
        {
          "name": "A#1",
          "midi": 34,
          "time": 197.30749499999678,
          "velocity": 0.7874015748031497,
          "duration": 0.15384599999998727
        },
        {
          "name": "A1",
          "midi": 33,
          "time": 197.53826399999676,
          "velocity": 0.7874015748031497,
          "duration": 0.15384599999998727
        },
        {
          "name": "A1",
          "midi": 33,
          "time": 197.76903299999674,
          "velocity": 0.7874015748031497,
          "duration": 0.15384599999998727
        },
        {
          "name": "A1",
          "midi": 33,
          "time": 197.99980199999672,
          "velocity": 0.7874015748031497,
          "duration": 0.15384599999998727
        },
        {
          "name": "A1",
          "midi": 33,
          "time": 198.2305709999967,
          "velocity": 0.7874015748031497,
          "duration": 0.15384599999998727
        },
        {
          "name": "G#1",
          "midi": 32,
          "time": 198.46133999999668,
          "velocity": 0.7874015748031497,
          "duration": 0.15384599999998727
        },
        {
          "name": "G#1",
          "midi": 32,
          "time": 198.69210899999666,
          "velocity": 0.7874015748031497,
          "duration": 0.15384599999998727
        },
        {
          "name": "G#1",
          "midi": 32,
          "time": 198.92287799999664,
          "velocity": 0.7874015748031497,
          "duration": 0.15384599999998727
        },
        {
          "name": "G#1",
          "midi": 32,
          "time": 199.15364699999662,
          "velocity": 0.7874015748031497,
          "duration": 0.15384599999998727
        },
        {
          "name": "D2",
          "midi": 38,
          "time": 199.3844159999966,
          "velocity": 0.7874015748031497,
          "duration": 0.07692299999999364
        },
        {
          "name": "D#2",
          "midi": 39,
          "time": 199.4998004999966,
          "velocity": 0.7874015748031497,
          "duration": 0.07692299999999364
        },
        {
          "name": "D#2",
          "midi": 39,
          "time": 199.61518499999661,
          "velocity": 0.7874015748031497,
          "duration": 0.07692299999999364
        },
        {
          "name": "D#2",
          "midi": 39,
          "time": 199.73056949999662,
          "velocity": 0.7874015748031497,
          "duration": 0.07692299999999364
        },
        {
          "name": "D#2",
          "midi": 39,
          "time": 199.84595399999662,
          "velocity": 0.7874015748031497,
          "duration": 0.07692299999999364
        },
        {
          "name": "D#2",
          "midi": 39,
          "time": 199.96133849999663,
          "velocity": 0.7874015748031497,
          "duration": 0.07692299999999364
        },
        {
          "name": "D#2",
          "midi": 39,
          "time": 200.07672299999663,
          "velocity": 0.7874015748031497,
          "duration": 0.07692299999999364
        },
        {
          "name": "D#2",
          "midi": 39,
          "time": 200.19210749999664,
          "velocity": 0.7874015748031497,
          "duration": 0.07692299999999364
        },
        {
          "name": "D2",
          "midi": 38,
          "time": 200.30749199999664,
          "velocity": 0.7874015748031497,
          "duration": 0.07692299999999364
        },
        {
          "name": "D#2",
          "midi": 39,
          "time": 200.42287649999665,
          "velocity": 0.7874015748031497,
          "duration": 0.07692299999999364
        },
        {
          "name": "D#2",
          "midi": 39,
          "time": 200.53826099999665,
          "velocity": 0.7874015748031497,
          "duration": 0.07692299999999364
        },
        {
          "name": "D#2",
          "midi": 39,
          "time": 200.65364549999666,
          "velocity": 0.7874015748031497,
          "duration": 0.07692299999999364
        },
        {
          "name": "D#2",
          "midi": 39,
          "time": 200.76902999999666,
          "velocity": 0.7874015748031497,
          "duration": 0.07692299999999364
        },
        {
          "name": "D#2",
          "midi": 39,
          "time": 200.88441449999667,
          "velocity": 0.7874015748031497,
          "duration": 0.07692299999999364
        },
        {
          "name": "D#2",
          "midi": 39,
          "time": 200.99979899999667,
          "velocity": 0.7874015748031497,
          "duration": 0.07692299999999364
        },
        {
          "name": "D#2",
          "midi": 39,
          "time": 201.11518349999668,
          "velocity": 0.7874015748031497,
          "duration": 0.07692299999999364
        },
        {
          "name": "D2",
          "midi": 38,
          "time": 201.23056799999668,
          "velocity": 0.7874015748031497,
          "duration": 0.07692299999999364
        },
        {
          "name": "D#2",
          "midi": 39,
          "time": 201.34595249999668,
          "velocity": 0.7874015748031497,
          "duration": 0.07692299999999364
        },
        {
          "name": "D#2",
          "midi": 39,
          "time": 201.4613369999967,
          "velocity": 0.7874015748031497,
          "duration": 0.07692299999999364
        },
        {
          "name": "D#2",
          "midi": 39,
          "time": 201.5767214999967,
          "velocity": 0.7874015748031497,
          "duration": 0.07692299999999364
        },
        {
          "name": "D#2",
          "midi": 39,
          "time": 201.6921059999967,
          "velocity": 0.7874015748031497,
          "duration": 0.07692299999999364
        },
        {
          "name": "D#2",
          "midi": 39,
          "time": 201.8074904999967,
          "velocity": 0.7874015748031497,
          "duration": 0.07692299999999364
        },
        {
          "name": "D#2",
          "midi": 39,
          "time": 201.9228749999967,
          "velocity": 0.7874015748031497,
          "duration": 0.07692299999999364
        },
        {
          "name": "D#2",
          "midi": 39,
          "time": 202.0382594999967,
          "velocity": 0.7874015748031497,
          "duration": 0.07692299999999364
        },
        {
          "name": "D2",
          "midi": 38,
          "time": 202.15364399999672,
          "velocity": 0.7874015748031497,
          "duration": 0.07692299999999364
        },
        {
          "name": "D#2",
          "midi": 39,
          "time": 202.26902849999672,
          "velocity": 0.7874015748031497,
          "duration": 0.07692299999999364
        },
        {
          "name": "D#2",
          "midi": 39,
          "time": 202.38441299999673,
          "velocity": 0.7874015748031497,
          "duration": 0.07692299999999364
        },
        {
          "name": "D#2",
          "midi": 39,
          "time": 202.49979749999673,
          "velocity": 0.7874015748031497,
          "duration": 0.07692299999999364
        },
        {
          "name": "D2",
          "midi": 38,
          "time": 202.61518199999674,
          "velocity": 0.7874015748031497,
          "duration": 0.07692299999999364
        },
        {
          "name": "D#2",
          "midi": 39,
          "time": 202.73056649999674,
          "velocity": 0.7874015748031497,
          "duration": 0.07692299999999364
        },
        {
          "name": "D#2",
          "midi": 39,
          "time": 202.84595099999675,
          "velocity": 0.7874015748031497,
          "duration": 0.07692299999999364
        },
        {
          "name": "D#2",
          "midi": 39,
          "time": 202.96133549999675,
          "velocity": 0.7874015748031497,
          "duration": 0.07692299999999364
        },
        {
          "name": "A#1",
          "midi": 34,
          "time": 203.07671999999675,
          "velocity": 0.7874015748031497,
          "duration": 0.15384599999998727
        },
        {
          "name": "A#1",
          "midi": 34,
          "time": 203.30748899999674,
          "velocity": 0.7874015748031497,
          "duration": 0.15384599999998727
        },
        {
          "name": "A#1",
          "midi": 34,
          "time": 203.53825799999672,
          "velocity": 0.7874015748031497,
          "duration": 0.15384599999998727
        },
        {
          "name": "A#1",
          "midi": 34,
          "time": 203.7690269999967,
          "velocity": 0.7874015748031497,
          "duration": 0.15384599999998727
        },
        {
          "name": "A#1",
          "midi": 34,
          "time": 203.99979599999668,
          "velocity": 0.7874015748031497,
          "duration": 0.15384599999998727
        },
        {
          "name": "A#1",
          "midi": 34,
          "time": 204.23056499999666,
          "velocity": 0.7874015748031497,
          "duration": 0.15384599999998727
        },
        {
          "name": "A#1",
          "midi": 34,
          "time": 204.46133399999664,
          "velocity": 0.7874015748031497,
          "duration": 0.15384599999998727
        },
        {
          "name": "A#1",
          "midi": 34,
          "time": 204.69210299999662,
          "velocity": 0.7874015748031497,
          "duration": 0.15384599999998727
        },
        {
          "name": "A1",
          "midi": 33,
          "time": 204.9228719999966,
          "velocity": 0.7874015748031497,
          "duration": 0.15384599999998727
        },
        {
          "name": "A1",
          "midi": 33,
          "time": 205.15364099999658,
          "velocity": 0.7874015748031497,
          "duration": 0.15384599999998727
        },
        {
          "name": "A1",
          "midi": 33,
          "time": 205.38440999999656,
          "velocity": 0.7874015748031497,
          "duration": 0.15384599999998727
        },
        {
          "name": "A1",
          "midi": 33,
          "time": 205.61517899999654,
          "velocity": 0.7874015748031497,
          "duration": 0.15384599999998727
        },
        {
          "name": "G#1",
          "midi": 32,
          "time": 205.84594799999653,
          "velocity": 0.7874015748031497,
          "duration": 0.15384599999998727
        },
        {
          "name": "G#1",
          "midi": 32,
          "time": 206.0767169999965,
          "velocity": 0.7874015748031497,
          "duration": 0.15384599999998727
        },
        {
          "name": "G#1",
          "midi": 32,
          "time": 206.3074859999965,
          "velocity": 0.7874015748031497,
          "duration": 0.15384599999998727
        },
        {
          "name": "G#1",
          "midi": 32,
          "time": 206.53825499999647,
          "velocity": 0.7874015748031497,
          "duration": 0.15384599999998727
        },
        {
          "name": "D2",
          "midi": 38,
          "time": 206.76902399999645,
          "velocity": 0.7874015748031497,
          "duration": 0.07692299999999364
        },
        {
          "name": "D#2",
          "midi": 39,
          "time": 206.88440849999645,
          "velocity": 0.7874015748031497,
          "duration": 0.07692299999999364
        },
        {
          "name": "D#2",
          "midi": 39,
          "time": 206.99979299999646,
          "velocity": 0.7874015748031497,
          "duration": 0.07692299999999364
        },
        {
          "name": "D#2",
          "midi": 39,
          "time": 207.11517749999646,
          "velocity": 0.7874015748031497,
          "duration": 0.07692299999999364
        },
        {
          "name": "D#2",
          "midi": 39,
          "time": 207.23056199999647,
          "velocity": 0.7874015748031497,
          "duration": 0.07692299999999364
        },
        {
          "name": "D#2",
          "midi": 39,
          "time": 207.34594649999647,
          "velocity": 0.7874015748031497,
          "duration": 0.07692299999999364
        },
        {
          "name": "D#2",
          "midi": 39,
          "time": 207.46133099999648,
          "velocity": 0.7874015748031497,
          "duration": 0.07692299999999364
        },
        {
          "name": "D#2",
          "midi": 39,
          "time": 207.57671549999648,
          "velocity": 0.7874015748031497,
          "duration": 0.07692299999999364
        },
        {
          "name": "D2",
          "midi": 38,
          "time": 207.6920999999965,
          "velocity": 0.7874015748031497,
          "duration": 0.07692299999999364
        },
        {
          "name": "D#2",
          "midi": 39,
          "time": 207.8074844999965,
          "velocity": 0.7874015748031497,
          "duration": 0.07692299999999364
        },
        {
          "name": "D#2",
          "midi": 39,
          "time": 207.9228689999965,
          "velocity": 0.7874015748031497,
          "duration": 0.07692299999999364
        },
        {
          "name": "D#2",
          "midi": 39,
          "time": 208.0382534999965,
          "velocity": 0.7874015748031497,
          "duration": 0.07692299999999364
        },
        {
          "name": "D#2",
          "midi": 39,
          "time": 208.1536379999965,
          "velocity": 0.7874015748031497,
          "duration": 0.07692299999999364
        },
        {
          "name": "D#2",
          "midi": 39,
          "time": 208.2690224999965,
          "velocity": 0.7874015748031497,
          "duration": 0.07692299999999364
        },
        {
          "name": "D#2",
          "midi": 39,
          "time": 208.38440699999651,
          "velocity": 0.7874015748031497,
          "duration": 0.07692299999999364
        },
        {
          "name": "D#2",
          "midi": 39,
          "time": 208.49979149999652,
          "velocity": 0.7874015748031497,
          "duration": 0.07692299999999364
        },
        {
          "name": "D2",
          "midi": 38,
          "time": 208.61517599999652,
          "velocity": 0.7874015748031497,
          "duration": 0.07692299999999364
        },
        {
          "name": "D#2",
          "midi": 39,
          "time": 208.73056049999653,
          "velocity": 0.7874015748031497,
          "duration": 0.07692299999999364
        },
        {
          "name": "D#2",
          "midi": 39,
          "time": 208.84594499999653,
          "velocity": 0.7874015748031497,
          "duration": 0.07692299999999364
        },
        {
          "name": "D#2",
          "midi": 39,
          "time": 208.96132949999654,
          "velocity": 0.7874015748031497,
          "duration": 0.07692299999999364
        },
        {
          "name": "D#2",
          "midi": 39,
          "time": 209.07671399999654,
          "velocity": 0.7874015748031497,
          "duration": 0.07692299999999364
        },
        {
          "name": "D#2",
          "midi": 39,
          "time": 209.19209849999655,
          "velocity": 0.7874015748031497,
          "duration": 0.07692299999999364
        },
        {
          "name": "D#2",
          "midi": 39,
          "time": 209.30748299999655,
          "velocity": 0.7874015748031497,
          "duration": 0.07692299999999364
        },
        {
          "name": "D#2",
          "midi": 39,
          "time": 209.42286749999656,
          "velocity": 0.7874015748031497,
          "duration": 0.07692299999999364
        },
        {
          "name": "D2",
          "midi": 38,
          "time": 209.53825199999656,
          "velocity": 0.7874015748031497,
          "duration": 0.07692299999999364
        },
        {
          "name": "D#2",
          "midi": 39,
          "time": 209.65363649999657,
          "velocity": 0.7874015748031497,
          "duration": 0.07692299999999364
        },
        {
          "name": "D#2",
          "midi": 39,
          "time": 209.76902099999657,
          "velocity": 0.7874015748031497,
          "duration": 0.07692299999999364
        },
        {
          "name": "D#2",
          "midi": 39,
          "time": 209.88440549999657,
          "velocity": 0.7874015748031497,
          "duration": 0.07692299999999364
        },
        {
          "name": "D2",
          "midi": 38,
          "time": 209.99978999999658,
          "velocity": 0.7874015748031497,
          "duration": 0.07692299999999364
        },
        {
          "name": "D#2",
          "midi": 39,
          "time": 210.11517449999658,
          "velocity": 0.7874015748031497,
          "duration": 0.07692299999999364
        },
        {
          "name": "D#2",
          "midi": 39,
          "time": 210.2305589999966,
          "velocity": 0.7874015748031497,
          "duration": 0.07692299999999364
        },
        {
          "name": "D#2",
          "midi": 39,
          "time": 210.3459434999966,
          "velocity": 0.7874015748031497,
          "duration": 0.07692299999999364
        },
        {
          "name": "D#2",
          "midi": 39,
          "time": 210.4613279999966,
          "velocity": 0.7874015748031497,
          "duration": 1.8461519999999894
        },
        {
          "name": "D2",
          "midi": 38,
          "time": 273.2304959999966,
          "velocity": 0.7874015748031497,
          "duration": 0.07692300000002206
        },
        {
          "name": "D#2",
          "midi": 39,
          "time": 273.3458804999966,
          "velocity": 0.7874015748031497,
          "duration": 0.07692300000002206
        },
        {
          "name": "D#2",
          "midi": 39,
          "time": 273.4612649999966,
          "velocity": 0.7874015748031497,
          "duration": 0.07692300000002206
        },
        {
          "name": "D#2",
          "midi": 39,
          "time": 273.5766494999966,
          "velocity": 0.7874015748031497,
          "duration": 0.07692300000002206
        },
        {
          "name": "D#2",
          "midi": 39,
          "time": 273.6920339999966,
          "velocity": 0.7874015748031497,
          "duration": 0.07692300000002206
        },
        {
          "name": "D#2",
          "midi": 39,
          "time": 273.80741849999663,
          "velocity": 0.7874015748031497,
          "duration": 0.07692300000002206
        },
        {
          "name": "D#2",
          "midi": 39,
          "time": 273.92280299999663,
          "velocity": 0.7874015748031497,
          "duration": 0.07692300000002206
        },
        {
          "name": "D#2",
          "midi": 39,
          "time": 274.03818749999664,
          "velocity": 0.7874015748031497,
          "duration": 0.07692300000002206
        },
        {
          "name": "D2",
          "midi": 38,
          "time": 274.15357199999664,
          "velocity": 0.7874015748031497,
          "duration": 0.07692300000002206
        },
        {
          "name": "D#2",
          "midi": 39,
          "time": 274.26895649999665,
          "velocity": 0.7874015748031497,
          "duration": 0.07692300000002206
        },
        {
          "name": "D#2",
          "midi": 39,
          "time": 274.38434099999665,
          "velocity": 0.7874015748031497,
          "duration": 0.07692300000002206
        },
        {
          "name": "D#2",
          "midi": 39,
          "time": 274.49972549999666,
          "velocity": 0.7874015748031497,
          "duration": 0.07692300000002206
        },
        {
          "name": "D#2",
          "midi": 39,
          "time": 274.61510999999666,
          "velocity": 0.7874015748031497,
          "duration": 0.07692300000002206
        },
        {
          "name": "D#2",
          "midi": 39,
          "time": 274.73049449999667,
          "velocity": 0.7874015748031497,
          "duration": 0.07692300000002206
        },
        {
          "name": "D#2",
          "midi": 39,
          "time": 274.84587899999667,
          "velocity": 0.7874015748031497,
          "duration": 0.07692300000002206
        },
        {
          "name": "D#2",
          "midi": 39,
          "time": 274.9612634999967,
          "velocity": 0.7874015748031497,
          "duration": 0.07692300000002206
        },
        {
          "name": "D2",
          "midi": 38,
          "time": 275.0766479999967,
          "velocity": 0.7874015748031497,
          "duration": 0.07692300000002206
        },
        {
          "name": "D#2",
          "midi": 39,
          "time": 275.1920324999967,
          "velocity": 0.7874015748031497,
          "duration": 0.07692300000002206
        },
        {
          "name": "D#2",
          "midi": 39,
          "time": 275.3074169999967,
          "velocity": 0.7874015748031497,
          "duration": 0.07692300000002206
        },
        {
          "name": "D#2",
          "midi": 39,
          "time": 275.4228014999967,
          "velocity": 0.7874015748031497,
          "duration": 0.07692300000002206
        },
        {
          "name": "D#2",
          "midi": 39,
          "time": 275.5381859999967,
          "velocity": 0.7874015748031497,
          "duration": 0.07692300000002206
        },
        {
          "name": "D#2",
          "midi": 39,
          "time": 275.6535704999967,
          "velocity": 0.7874015748031497,
          "duration": 0.07692300000002206
        },
        {
          "name": "D#2",
          "midi": 39,
          "time": 275.7689549999967,
          "velocity": 0.7874015748031497,
          "duration": 0.07692300000002206
        },
        {
          "name": "D#2",
          "midi": 39,
          "time": 275.8843394999967,
          "velocity": 0.7874015748031497,
          "duration": 0.07692300000002206
        },
        {
          "name": "D2",
          "midi": 38,
          "time": 275.9997239999967,
          "velocity": 0.7874015748031497,
          "duration": 0.07692300000002206
        },
        {
          "name": "D#2",
          "midi": 39,
          "time": 276.1151084999967,
          "velocity": 0.7874015748031497,
          "duration": 0.07692300000002206
        },
        {
          "name": "D#2",
          "midi": 39,
          "time": 276.2304929999967,
          "velocity": 0.7874015748031497,
          "duration": 0.07692300000002206
        },
        {
          "name": "D#2",
          "midi": 39,
          "time": 276.34587749999673,
          "velocity": 0.7874015748031497,
          "duration": 0.07692300000002206
        },
        {
          "name": "D2",
          "midi": 38,
          "time": 276.46126199999674,
          "velocity": 0.7874015748031497,
          "duration": 0.07692300000002206
        },
        {
          "name": "D#2",
          "midi": 39,
          "time": 276.57664649999674,
          "velocity": 0.7874015748031497,
          "duration": 0.07692300000002206
        },
        {
          "name": "D#2",
          "midi": 39,
          "time": 276.69203099999675,
          "velocity": 0.7874015748031497,
          "duration": 0.07692300000002206
        },
        {
          "name": "D#2",
          "midi": 39,
          "time": 276.80741549999675,
          "velocity": 0.7874015748031497,
          "duration": 0.07692300000002206
        },
        {
          "name": "D2",
          "midi": 38,
          "time": 276.92279999999676,
          "velocity": 0.7874015748031497,
          "duration": 0.07692300000002206
        },
        {
          "name": "D#2",
          "midi": 39,
          "time": 277.03818449999676,
          "velocity": 0.7874015748031497,
          "duration": 0.07692300000002206
        },
        {
          "name": "D#2",
          "midi": 39,
          "time": 277.15356899999676,
          "velocity": 0.7874015748031497,
          "duration": 0.07692300000002206
        },
        {
          "name": "D#2",
          "midi": 39,
          "time": 277.26895349999677,
          "velocity": 0.7874015748031497,
          "duration": 0.07692300000002206
        },
        {
          "name": "D#2",
          "midi": 39,
          "time": 277.3843379999968,
          "velocity": 0.7874015748031497,
          "duration": 0.07692300000002206
        },
        {
          "name": "D#2",
          "midi": 39,
          "time": 277.4997224999968,
          "velocity": 0.7874015748031497,
          "duration": 0.07692300000002206
        },
        {
          "name": "D#2",
          "midi": 39,
          "time": 277.6151069999968,
          "velocity": 0.7874015748031497,
          "duration": 0.07692300000002206
        },
        {
          "name": "D#2",
          "midi": 39,
          "time": 277.7304914999968,
          "velocity": 0.7874015748031497,
          "duration": 0.07692300000002206
        },
        {
          "name": "D2",
          "midi": 38,
          "time": 277.8458759999968,
          "velocity": 0.7874015748031497,
          "duration": 0.07692300000002206
        },
        {
          "name": "D#2",
          "midi": 39,
          "time": 277.9612604999968,
          "velocity": 0.7874015748031497,
          "duration": 0.07692300000002206
        },
        {
          "name": "D#2",
          "midi": 39,
          "time": 278.0766449999968,
          "velocity": 0.7874015748031497,
          "duration": 0.07692300000002206
        },
        {
          "name": "D#2",
          "midi": 39,
          "time": 278.1920294999968,
          "velocity": 0.7874015748031497,
          "duration": 0.07692300000002206
        },
        {
          "name": "D#2",
          "midi": 39,
          "time": 278.3074139999968,
          "velocity": 0.7874015748031497,
          "duration": 0.07692300000002206
        },
        {
          "name": "D#2",
          "midi": 39,
          "time": 278.4227984999968,
          "velocity": 0.7874015748031497,
          "duration": 0.07692300000002206
        },
        {
          "name": "D#2",
          "midi": 39,
          "time": 278.5381829999968,
          "velocity": 0.7874015748031497,
          "duration": 0.07692300000002206
        },
        {
          "name": "D#2",
          "midi": 39,
          "time": 278.6535674999968,
          "velocity": 0.7874015748031497,
          "duration": 0.07692300000002206
        },
        {
          "name": "D2",
          "midi": 38,
          "time": 278.76895199999683,
          "velocity": 0.7874015748031497,
          "duration": 0.07692300000002206
        },
        {
          "name": "D#2",
          "midi": 39,
          "time": 278.88433649999683,
          "velocity": 0.7874015748031497,
          "duration": 0.07692300000002206
        },
        {
          "name": "D#2",
          "midi": 39,
          "time": 278.99972099999684,
          "velocity": 0.7874015748031497,
          "duration": 0.07692300000002206
        },
        {
          "name": "D#2",
          "midi": 39,
          "time": 279.11510549999684,
          "velocity": 0.7874015748031497,
          "duration": 0.07692300000002206
        },
        {
          "name": "D#2",
          "midi": 39,
          "time": 279.23048999999685,
          "velocity": 0.7874015748031497,
          "duration": 0.07692300000002206
        },
        {
          "name": "D#2",
          "midi": 39,
          "time": 279.34587449999685,
          "velocity": 0.7874015748031497,
          "duration": 0.07692300000002206
        },
        {
          "name": "D#2",
          "midi": 39,
          "time": 279.46125899999686,
          "velocity": 0.7874015748031497,
          "duration": 0.07692300000002206
        },
        {
          "name": "D#2",
          "midi": 39,
          "time": 279.57664349999686,
          "velocity": 0.7874015748031497,
          "duration": 0.07692300000002206
        },
        {
          "name": "D2",
          "midi": 38,
          "time": 279.69202799999687,
          "velocity": 0.7874015748031497,
          "duration": 0.07692300000002206
        },
        {
          "name": "D#2",
          "midi": 39,
          "time": 279.8074124999969,
          "velocity": 0.7874015748031497,
          "duration": 0.07692300000002206
        },
        {
          "name": "D#2",
          "midi": 39,
          "time": 279.9227969999969,
          "velocity": 0.7874015748031497,
          "duration": 0.07692300000002206
        },
        {
          "name": "D#2",
          "midi": 39,
          "time": 280.0381814999969,
          "velocity": 0.7874015748031497,
          "duration": 0.07692300000002206
        },
        {
          "name": "D2",
          "midi": 38,
          "time": 280.1535659999969,
          "velocity": 0.7874015748031497,
          "duration": 0.07692300000002206
        },
        {
          "name": "D#2",
          "midi": 39,
          "time": 280.2689504999969,
          "velocity": 0.7874015748031497,
          "duration": 0.07692300000002206
        },
        {
          "name": "D#2",
          "midi": 39,
          "time": 280.3843349999969,
          "velocity": 0.7874015748031497,
          "duration": 0.07692300000002206
        },
        {
          "name": "D#2",
          "midi": 39,
          "time": 280.4997194999969,
          "velocity": 0.7874015748031497,
          "duration": 0.07692300000002206
        },
        {
          "name": "D2",
          "midi": 38,
          "time": 280.6151039999969,
          "velocity": 0.7874015748031497,
          "duration": 0.07692300000002206
        },
        {
          "name": "D#2",
          "midi": 39,
          "time": 280.7304884999969,
          "velocity": 0.7874015748031497,
          "duration": 0.07692300000002206
        },
        {
          "name": "D#2",
          "midi": 39,
          "time": 280.8458729999969,
          "velocity": 0.7874015748031497,
          "duration": 0.07692300000002206
        },
        {
          "name": "D#2",
          "midi": 39,
          "time": 280.9612574999969,
          "velocity": 0.7874015748031497,
          "duration": 0.07692300000002206
        },
        {
          "name": "D#2",
          "midi": 39,
          "time": 281.0766419999969,
          "velocity": 0.7874015748031497,
          "duration": 0.07692300000002206
        },
        {
          "name": "D#2",
          "midi": 39,
          "time": 281.1920264999969,
          "velocity": 0.7874015748031497,
          "duration": 0.07692300000002206
        },
        {
          "name": "D#2",
          "midi": 39,
          "time": 281.30741099999693,
          "velocity": 0.7874015748031497,
          "duration": 0.07692300000002206
        },
        {
          "name": "D#2",
          "midi": 39,
          "time": 281.42279549999694,
          "velocity": 0.7874015748031497,
          "duration": 0.07692300000002206
        },
        {
          "name": "D2",
          "midi": 38,
          "time": 281.53817999999694,
          "velocity": 0.7874015748031497,
          "duration": 0.07692300000002206
        },
        {
          "name": "D#2",
          "midi": 39,
          "time": 281.65356449999695,
          "velocity": 0.7874015748031497,
          "duration": 0.07692300000002206
        },
        {
          "name": "D#2",
          "midi": 39,
          "time": 281.76894899999695,
          "velocity": 0.7874015748031497,
          "duration": 0.07692300000002206
        },
        {
          "name": "D#2",
          "midi": 39,
          "time": 281.88433349999696,
          "velocity": 0.7874015748031497,
          "duration": 0.07692300000002206
        },
        {
          "name": "D#2",
          "midi": 39,
          "time": 281.99971799999696,
          "velocity": 0.7874015748031497,
          "duration": 0.07692300000002206
        },
        {
          "name": "D#2",
          "midi": 39,
          "time": 282.11510249999696,
          "velocity": 0.7874015748031497,
          "duration": 0.07692300000002206
        },
        {
          "name": "D#2",
          "midi": 39,
          "time": 282.23048699999697,
          "velocity": 0.7874015748031497,
          "duration": 0.07692300000002206
        },
        {
          "name": "D#2",
          "midi": 39,
          "time": 282.345871499997,
          "velocity": 0.7874015748031497,
          "duration": 0.07692300000002206
        },
        {
          "name": "D2",
          "midi": 38,
          "time": 282.461255999997,
          "velocity": 0.7874015748031497,
          "duration": 0.07692300000002206
        },
        {
          "name": "D#2",
          "midi": 39,
          "time": 282.576640499997,
          "velocity": 0.7874015748031497,
          "duration": 0.07692300000002206
        },
        {
          "name": "D#2",
          "midi": 39,
          "time": 282.692024999997,
          "velocity": 0.7874015748031497,
          "duration": 0.07692300000002206
        },
        {
          "name": "D#2",
          "midi": 39,
          "time": 282.807409499997,
          "velocity": 0.7874015748031497,
          "duration": 0.07692300000002206
        },
        {
          "name": "D#2",
          "midi": 39,
          "time": 282.922793999997,
          "velocity": 0.7874015748031497,
          "duration": 0.07692300000002206
        },
        {
          "name": "D#2",
          "midi": 39,
          "time": 283.038178499997,
          "velocity": 0.7874015748031497,
          "duration": 0.07692300000002206
        },
        {
          "name": "D#2",
          "midi": 39,
          "time": 283.153562999997,
          "velocity": 0.7874015748031497,
          "duration": 0.07692300000002206
        },
        {
          "name": "D#2",
          "midi": 39,
          "time": 283.268947499997,
          "velocity": 0.7874015748031497,
          "duration": 0.07692300000002206
        },
        {
          "name": "D2",
          "midi": 38,
          "time": 283.384331999997,
          "velocity": 0.7874015748031497,
          "duration": 0.07692300000002206
        },
        {
          "name": "D#2",
          "midi": 39,
          "time": 283.499716499997,
          "velocity": 0.7874015748031497,
          "duration": 0.07692300000002206
        },
        {
          "name": "D#2",
          "midi": 39,
          "time": 283.615100999997,
          "velocity": 0.7874015748031497,
          "duration": 0.07692300000002206
        },
        {
          "name": "D#2",
          "midi": 39,
          "time": 283.73048549999703,
          "velocity": 0.7874015748031497,
          "duration": 0.07692300000002206
        },
        {
          "name": "D2",
          "midi": 38,
          "time": 283.84586999999703,
          "velocity": 0.7874015748031497,
          "duration": 0.07692300000002206
        },
        {
          "name": "D#2",
          "midi": 39,
          "time": 283.96125449999704,
          "velocity": 0.7874015748031497,
          "duration": 0.07692300000002206
        },
        {
          "name": "D#2",
          "midi": 39,
          "time": 284.07663899999704,
          "velocity": 0.7874015748031497,
          "duration": 0.07692300000002206
        },
        {
          "name": "D#2",
          "midi": 39,
          "time": 284.19202349999705,
          "velocity": 0.7874015748031497,
          "duration": 0.07692300000002206
        },
        {
          "name": "D2",
          "midi": 38,
          "time": 284.30740799999705,
          "velocity": 0.7874015748031497,
          "duration": 0.07692300000002206
        },
        {
          "name": "D#2",
          "midi": 39,
          "time": 284.42279249999706,
          "velocity": 0.7874015748031497,
          "duration": 0.07692300000002206
        },
        {
          "name": "D#2",
          "midi": 39,
          "time": 284.53817699999706,
          "velocity": 0.7874015748031497,
          "duration": 0.07692300000002206
        },
        {
          "name": "D#2",
          "midi": 39,
          "time": 284.65356149999707,
          "velocity": 0.7874015748031497,
          "duration": 0.07692300000002206
        },
        {
          "name": "D#2",
          "midi": 39,
          "time": 284.7689459999971,
          "velocity": 0.7874015748031497,
          "duration": 0.07692300000002206
        },
        {
          "name": "D#2",
          "midi": 39,
          "time": 284.8843304999971,
          "velocity": 0.7874015748031497,
          "duration": 0.07692300000002206
        },
        {
          "name": "D#2",
          "midi": 39,
          "time": 284.9997149999971,
          "velocity": 0.7874015748031497,
          "duration": 0.07692300000002206
        },
        {
          "name": "D#2",
          "midi": 39,
          "time": 285.1150994999971,
          "velocity": 0.7874015748031497,
          "duration": 0.07692300000002206
        },
        {
          "name": "D2",
          "midi": 38,
          "time": 285.2304839999971,
          "velocity": 0.7874015748031497,
          "duration": 0.07692300000002206
        },
        {
          "name": "D#2",
          "midi": 39,
          "time": 285.3458684999971,
          "velocity": 0.7874015748031497,
          "duration": 0.07692300000002206
        },
        {
          "name": "D#2",
          "midi": 39,
          "time": 285.4612529999971,
          "velocity": 0.7874015748031497,
          "duration": 0.07692300000002206
        },
        {
          "name": "D#2",
          "midi": 39,
          "time": 285.5766374999971,
          "velocity": 0.7874015748031497,
          "duration": 0.07692300000002206
        },
        {
          "name": "D#2",
          "midi": 39,
          "time": 285.6920219999971,
          "velocity": 0.7874015748031497,
          "duration": 0.07692300000002206
        },
        {
          "name": "D#2",
          "midi": 39,
          "time": 285.8074064999971,
          "velocity": 0.7874015748031497,
          "duration": 0.07692300000002206
        },
        {
          "name": "D#2",
          "midi": 39,
          "time": 285.9227909999971,
          "velocity": 0.7874015748031497,
          "duration": 0.07692300000002206
        },
        {
          "name": "D#2",
          "midi": 39,
          "time": 286.0381754999971,
          "velocity": 0.7874015748031497,
          "duration": 0.07692300000002206
        },
        {
          "name": "D2",
          "midi": 38,
          "time": 286.1535599999971,
          "velocity": 0.7874015748031497,
          "duration": 0.07692300000002206
        },
        {
          "name": "D#2",
          "midi": 39,
          "time": 286.26894449999713,
          "velocity": 0.7874015748031497,
          "duration": 0.07692300000002206
        },
        {
          "name": "D#2",
          "midi": 39,
          "time": 286.38432899999714,
          "velocity": 0.7874015748031497,
          "duration": 0.07692300000002206
        },
        {
          "name": "D#2",
          "midi": 39,
          "time": 286.49971349999714,
          "velocity": 0.7874015748031497,
          "duration": 0.07692300000002206
        },
        {
          "name": "D#2",
          "midi": 39,
          "time": 286.61509799999715,
          "velocity": 0.7874015748031497,
          "duration": 0.07692300000002206
        },
        {
          "name": "D#2",
          "midi": 39,
          "time": 286.73048249999715,
          "velocity": 0.7874015748031497,
          "duration": 0.07692300000002206
        },
        {
          "name": "D#2",
          "midi": 39,
          "time": 286.84586699999716,
          "velocity": 0.7874015748031497,
          "duration": 0.07692300000002206
        },
        {
          "name": "D#2",
          "midi": 39,
          "time": 286.96125149999716,
          "velocity": 0.7874015748031497,
          "duration": 0.07692300000002206
        },
        {
          "name": "D2",
          "midi": 38,
          "time": 287.07663599999717,
          "velocity": 0.7874015748031497,
          "duration": 0.07692300000002206
        },
        {
          "name": "D#2",
          "midi": 39,
          "time": 287.19202049999717,
          "velocity": 0.7874015748031497,
          "duration": 0.07692300000002206
        },
        {
          "name": "D#2",
          "midi": 39,
          "time": 287.3074049999972,
          "velocity": 0.7874015748031497,
          "duration": 0.07692300000002206
        },
        {
          "name": "D#2",
          "midi": 39,
          "time": 287.4227894999972,
          "velocity": 0.7874015748031497,
          "duration": 0.07692300000002206
        },
        {
          "name": "D2",
          "midi": 38,
          "time": 287.5381739999972,
          "velocity": 0.7874015748031497,
          "duration": 0.07692300000002206
        },
        {
          "name": "D#2",
          "midi": 39,
          "time": 287.6535584999972,
          "velocity": 0.7874015748031497,
          "duration": 0.07692300000002206
        },
        {
          "name": "D#2",
          "midi": 39,
          "time": 287.7689429999972,
          "velocity": 0.7874015748031497,
          "duration": 0.07692300000002206
        },
        {
          "name": "D#2",
          "midi": 39,
          "time": 287.8843274999972,
          "velocity": 0.7874015748031497,
          "duration": 0.07692300000002206
        },
        {
          "name": "D2",
          "midi": 38,
          "time": 287.9997119999972,
          "velocity": 0.7874015748031497,
          "duration": 0.07692300000002206
        },
        {
          "name": "D#2",
          "midi": 39,
          "time": 288.1150964999972,
          "velocity": 0.7874015748031497,
          "duration": 0.07692300000002206
        },
        {
          "name": "D#2",
          "midi": 39,
          "time": 288.2304809999972,
          "velocity": 0.7874015748031497,
          "duration": 0.07692300000002206
        },
        {
          "name": "D#2",
          "midi": 39,
          "time": 288.3458654999972,
          "velocity": 0.7874015748031497,
          "duration": 0.07692300000002206
        },
        {
          "name": "D#2",
          "midi": 39,
          "time": 288.4612499999972,
          "velocity": 0.7874015748031497,
          "duration": 0.07692300000002206
        },
        {
          "name": "D#2",
          "midi": 39,
          "time": 288.5766344999972,
          "velocity": 0.7874015748031497,
          "duration": 0.07692300000002206
        },
        {
          "name": "D#2",
          "midi": 39,
          "time": 288.69201899999723,
          "velocity": 0.7874015748031497,
          "duration": 0.07692300000002206
        },
        {
          "name": "D#2",
          "midi": 39,
          "time": 288.80740349999724,
          "velocity": 0.7874015748031497,
          "duration": 0.07692300000002206
        },
        {
          "name": "D2",
          "midi": 38,
          "time": 288.92278799999724,
          "velocity": 0.7874015748031497,
          "duration": 0.07692300000002206
        },
        {
          "name": "D#2",
          "midi": 39,
          "time": 289.03817249999724,
          "velocity": 0.7874015748031497,
          "duration": 0.07692300000002206
        },
        {
          "name": "D#2",
          "midi": 39,
          "time": 289.15355699999725,
          "velocity": 0.7874015748031497,
          "duration": 0.07692300000002206
        },
        {
          "name": "D#2",
          "midi": 39,
          "time": 289.26894149999725,
          "velocity": 0.7874015748031497,
          "duration": 0.07692300000002206
        },
        {
          "name": "D#2",
          "midi": 39,
          "time": 289.38432599999726,
          "velocity": 0.7874015748031497,
          "duration": 0.07692300000002206
        },
        {
          "name": "D#2",
          "midi": 39,
          "time": 289.49971049999726,
          "velocity": 0.7874015748031497,
          "duration": 0.07692300000002206
        },
        {
          "name": "D#2",
          "midi": 39,
          "time": 289.61509499999727,
          "velocity": 0.7874015748031497,
          "duration": 0.07692300000002206
        },
        {
          "name": "D#2",
          "midi": 39,
          "time": 289.7304794999973,
          "velocity": 0.7874015748031497,
          "duration": 0.07692300000002206
        },
        {
          "name": "D2",
          "midi": 38,
          "time": 289.8458639999973,
          "velocity": 0.7874015748031497,
          "duration": 0.07692300000002206
        },
        {
          "name": "D#2",
          "midi": 39,
          "time": 289.9612484999973,
          "velocity": 0.7874015748031497,
          "duration": 0.07692300000002206
        },
        {
          "name": "D#2",
          "midi": 39,
          "time": 290.0766329999973,
          "velocity": 0.7874015748031497,
          "duration": 0.07692300000002206
        },
        {
          "name": "D#2",
          "midi": 39,
          "time": 290.1920174999973,
          "velocity": 0.7874015748031497,
          "duration": 0.07692300000002206
        },
        {
          "name": "D#2",
          "midi": 39,
          "time": 290.3074019999973,
          "velocity": 0.7874015748031497,
          "duration": 0.07692300000002206
        },
        {
          "name": "D#2",
          "midi": 39,
          "time": 290.4227864999973,
          "velocity": 0.7874015748031497,
          "duration": 0.07692300000002206
        },
        {
          "name": "D#2",
          "midi": 39,
          "time": 290.5381709999973,
          "velocity": 0.7874015748031497,
          "duration": 0.07692300000002206
        },
        {
          "name": "D#2",
          "midi": 39,
          "time": 290.6535554999973,
          "velocity": 0.7874015748031497,
          "duration": 0.07692300000002206
        },
        {
          "name": "D2",
          "midi": 38,
          "time": 290.7689399999973,
          "velocity": 0.7874015748031497,
          "duration": 0.07692300000002206
        },
        {
          "name": "D#2",
          "midi": 39,
          "time": 290.8843244999973,
          "velocity": 0.7874015748031497,
          "duration": 0.07692300000002206
        },
        {
          "name": "D#2",
          "midi": 39,
          "time": 290.9997089999973,
          "velocity": 0.7874015748031497,
          "duration": 0.07692300000002206
        },
        {
          "name": "D#2",
          "midi": 39,
          "time": 291.11509349999733,
          "velocity": 0.7874015748031497,
          "duration": 0.07692300000002206
        },
        {
          "name": "D2",
          "midi": 38,
          "time": 291.23047799999733,
          "velocity": 0.7874015748031497,
          "duration": 0.07692300000002206
        },
        {
          "name": "D#2",
          "midi": 39,
          "time": 291.34586249999734,
          "velocity": 0.7874015748031497,
          "duration": 0.07692300000002206
        },
        {
          "name": "D#2",
          "midi": 39,
          "time": 291.46124699999734,
          "velocity": 0.7874015748031497,
          "duration": 0.07692300000002206
        },
        {
          "name": "D#2",
          "midi": 39,
          "time": 291.57663149999735,
          "velocity": 0.7874015748031497,
          "duration": 0.07692300000002206
        },
        {
          "name": "D2",
          "midi": 38,
          "time": 291.69201599999735,
          "velocity": 0.7874015748031497,
          "duration": 0.07692300000002206
        },
        {
          "name": "D#2",
          "midi": 39,
          "time": 291.80740049999736,
          "velocity": 0.7874015748031497,
          "duration": 0.07692300000002206
        },
        {
          "name": "D#2",
          "midi": 39,
          "time": 291.92278499999736,
          "velocity": 0.7874015748031497,
          "duration": 0.07692300000002206
        },
        {
          "name": "D#2",
          "midi": 39,
          "time": 292.03816949999737,
          "velocity": 0.7874015748031497,
          "duration": 0.07692300000002206
        },
        {
          "name": "D#2",
          "midi": 39,
          "time": 292.15355399999737,
          "velocity": 0.7874015748031497,
          "duration": 0.07692300000002206
        },
        {
          "name": "D#2",
          "midi": 39,
          "time": 292.2689384999974,
          "velocity": 0.7874015748031497,
          "duration": 0.07692300000002206
        },
        {
          "name": "D#2",
          "midi": 39,
          "time": 292.3843229999974,
          "velocity": 0.7874015748031497,
          "duration": 0.07692300000002206
        },
        {
          "name": "D#2",
          "midi": 39,
          "time": 292.4997074999974,
          "velocity": 0.7874015748031497,
          "duration": 0.07692300000002206
        },
        {
          "name": "D2",
          "midi": 38,
          "time": 292.6150919999974,
          "velocity": 0.7874015748031497,
          "duration": 0.07692300000002206
        },
        {
          "name": "D#2",
          "midi": 39,
          "time": 292.7304764999974,
          "velocity": 0.7874015748031497,
          "duration": 0.07692300000002206
        },
        {
          "name": "D#2",
          "midi": 39,
          "time": 292.8458609999974,
          "velocity": 0.7874015748031497,
          "duration": 0.07692300000002206
        },
        {
          "name": "D#2",
          "midi": 39,
          "time": 292.9612454999974,
          "velocity": 0.7874015748031497,
          "duration": 0.07692300000002206
        },
        {
          "name": "D#2",
          "midi": 39,
          "time": 293.0766299999974,
          "velocity": 0.7874015748031497,
          "duration": 0.07692300000002206
        },
        {
          "name": "D#2",
          "midi": 39,
          "time": 293.1920144999974,
          "velocity": 0.7874015748031497,
          "duration": 0.07692300000002206
        },
        {
          "name": "D#2",
          "midi": 39,
          "time": 293.3073989999974,
          "velocity": 0.7874015748031497,
          "duration": 0.07692300000002206
        },
        {
          "name": "D#2",
          "midi": 39,
          "time": 293.4227834999974,
          "velocity": 0.7874015748031497,
          "duration": 0.07692300000002206
        },
        {
          "name": "D2",
          "midi": 38,
          "time": 293.5381679999974,
          "velocity": 0.7874015748031497,
          "duration": 0.07692300000002206
        },
        {
          "name": "D#2",
          "midi": 39,
          "time": 293.65355249999743,
          "velocity": 0.7874015748031497,
          "duration": 0.07692300000002206
        },
        {
          "name": "D#2",
          "midi": 39,
          "time": 293.76893699999744,
          "velocity": 0.7874015748031497,
          "duration": 0.07692300000002206
        },
        {
          "name": "D#2",
          "midi": 39,
          "time": 293.88432149999744,
          "velocity": 0.7874015748031497,
          "duration": 0.07692300000002206
        },
        {
          "name": "D#2",
          "midi": 39,
          "time": 293.99970599999745,
          "velocity": 0.7874015748031497,
          "duration": 0.07692300000002206
        },
        {
          "name": "D#2",
          "midi": 39,
          "time": 294.11509049999745,
          "velocity": 0.7874015748031497,
          "duration": 0.07692300000002206
        },
        {
          "name": "D#2",
          "midi": 39,
          "time": 294.23047499999745,
          "velocity": 0.7874015748031497,
          "duration": 0.07692300000002206
        },
        {
          "name": "D#2",
          "midi": 39,
          "time": 294.34585949999746,
          "velocity": 0.7874015748031497,
          "duration": 0.07692300000002206
        },
        {
          "name": "D2",
          "midi": 38,
          "time": 294.46124399999746,
          "velocity": 0.7874015748031497,
          "duration": 0.07692300000002206
        },
        {
          "name": "D#2",
          "midi": 39,
          "time": 294.57662849999747,
          "velocity": 0.7874015748031497,
          "duration": 0.07692300000002206
        },
        {
          "name": "D#2",
          "midi": 39,
          "time": 294.6920129999975,
          "velocity": 0.7874015748031497,
          "duration": 0.07692300000002206
        },
        {
          "name": "D#2",
          "midi": 39,
          "time": 294.8073974999975,
          "velocity": 0.7874015748031497,
          "duration": 0.07692300000002206
        },
        {
          "name": "D2",
          "midi": 38,
          "time": 294.9227819999975,
          "velocity": 0.7874015748031497,
          "duration": 0.07692300000002206
        },
        {
          "name": "D#2",
          "midi": 39,
          "time": 295.0381664999975,
          "velocity": 0.7874015748031497,
          "duration": 0.07692300000002206
        },
        {
          "name": "D#2",
          "midi": 39,
          "time": 295.1535509999975,
          "velocity": 0.7874015748031497,
          "duration": 0.07692300000002206
        },
        {
          "name": "D#2",
          "midi": 39,
          "time": 295.2689354999975,
          "velocity": 0.7874015748031497,
          "duration": 0.07692300000002206
        },
        {
          "name": "D2",
          "midi": 38,
          "time": 295.3843199999975,
          "velocity": 0.7874015748031497,
          "duration": 0.07692300000002206
        },
        {
          "name": "D#2",
          "midi": 39,
          "time": 295.4997044999975,
          "velocity": 0.7874015748031497,
          "duration": 0.07692300000002206
        },
        {
          "name": "D#2",
          "midi": 39,
          "time": 295.6150889999975,
          "velocity": 0.7874015748031497,
          "duration": 0.07692300000002206
        },
        {
          "name": "D#2",
          "midi": 39,
          "time": 295.7304734999975,
          "velocity": 0.7874015748031497,
          "duration": 0.07692300000002206
        },
        {
          "name": "D#2",
          "midi": 39,
          "time": 295.8458579999975,
          "velocity": 0.7874015748031497,
          "duration": 0.07692300000002206
        },
        {
          "name": "D#2",
          "midi": 39,
          "time": 295.9612424999975,
          "velocity": 0.7874015748031497,
          "duration": 0.07692300000002206
        },
        {
          "name": "D#2",
          "midi": 39,
          "time": 296.07662699999753,
          "velocity": 0.7874015748031497,
          "duration": 0.07692300000002206
        },
        {
          "name": "D#2",
          "midi": 39,
          "time": 296.19201149999753,
          "velocity": 0.7874015748031497,
          "duration": 0.07692300000002206
        },
        {
          "name": "D2",
          "midi": 38,
          "time": 296.30739599999754,
          "velocity": 0.7874015748031497,
          "duration": 0.07692300000002206
        },
        {
          "name": "D#2",
          "midi": 39,
          "time": 296.42278049999754,
          "velocity": 0.7874015748031497,
          "duration": 0.07692300000002206
        },
        {
          "name": "D#2",
          "midi": 39,
          "time": 296.53816499999755,
          "velocity": 0.7874015748031497,
          "duration": 0.07692300000002206
        },
        {
          "name": "D#2",
          "midi": 39,
          "time": 296.65354949999755,
          "velocity": 0.7874015748031497,
          "duration": 0.07692300000002206
        },
        {
          "name": "D#2",
          "midi": 39,
          "time": 296.76893399999756,
          "velocity": 0.7874015748031497,
          "duration": 0.07692300000002206
        },
        {
          "name": "D#2",
          "midi": 39,
          "time": 296.88431849999756,
          "velocity": 0.7874015748031497,
          "duration": 0.07692300000002206
        },
        {
          "name": "D#2",
          "midi": 39,
          "time": 296.99970299999757,
          "velocity": 0.7874015748031497,
          "duration": 0.07692300000002206
        },
        {
          "name": "D#2",
          "midi": 39,
          "time": 297.11508749999757,
          "velocity": 0.7874015748031497,
          "duration": 0.07692300000002206
        },
        {
          "name": "D2",
          "midi": 38,
          "time": 297.2304719999976,
          "velocity": 0.7874015748031497,
          "duration": 0.07692300000002206
        },
        {
          "name": "D#2",
          "midi": 39,
          "time": 297.3458564999976,
          "velocity": 0.7874015748031497,
          "duration": 0.07692300000002206
        },
        {
          "name": "D#2",
          "midi": 39,
          "time": 297.4612409999976,
          "velocity": 0.7874015748031497,
          "duration": 0.07692300000002206
        },
        {
          "name": "D#2",
          "midi": 39,
          "time": 297.5766254999976,
          "velocity": 0.7874015748031497,
          "duration": 0.07692300000002206
        },
        {
          "name": "D#2",
          "midi": 39,
          "time": 297.6920099999976,
          "velocity": 0.7874015748031497,
          "duration": 0.07692300000002206
        },
        {
          "name": "D#2",
          "midi": 39,
          "time": 297.8073944999976,
          "velocity": 0.7874015748031497,
          "duration": 0.07692300000002206
        },
        {
          "name": "D#2",
          "midi": 39,
          "time": 297.9227789999976,
          "velocity": 0.7874015748031497,
          "duration": 0.07692300000002206
        },
        {
          "name": "D#2",
          "midi": 39,
          "time": 298.0381634999976,
          "velocity": 0.7874015748031497,
          "duration": 0.07692300000002206
        },
        {
          "name": "D2",
          "midi": 38,
          "time": 298.1535479999976,
          "velocity": 0.7874015748031497,
          "duration": 0.07692300000002206
        },
        {
          "name": "D#2",
          "midi": 39,
          "time": 298.2689324999976,
          "velocity": 0.7874015748031497,
          "duration": 0.07692300000002206
        },
        {
          "name": "D#2",
          "midi": 39,
          "time": 298.3843169999976,
          "velocity": 0.7874015748031497,
          "duration": 0.07692300000002206
        },
        {
          "name": "D#2",
          "midi": 39,
          "time": 298.4997014999976,
          "velocity": 0.7874015748031497,
          "duration": 0.07692300000002206
        },
        {
          "name": "D2",
          "midi": 38,
          "time": 298.61508599999763,
          "velocity": 0.7874015748031497,
          "duration": 0.07692300000002206
        },
        {
          "name": "D#2",
          "midi": 39,
          "time": 298.73047049999764,
          "velocity": 0.7874015748031497,
          "duration": 0.07692300000002206
        },
        {
          "name": "D#2",
          "midi": 39,
          "time": 298.84585499999764,
          "velocity": 0.7874015748031497,
          "duration": 0.07692300000002206
        },
        {
          "name": "D#2",
          "midi": 39,
          "time": 298.96123949999765,
          "velocity": 0.7874015748031497,
          "duration": 0.07692300000002206
        },
        {
          "name": "D2",
          "midi": 38,
          "time": 299.07662399999765,
          "velocity": 0.7874015748031497,
          "duration": 0.07692300000002206
        },
        {
          "name": "D#2",
          "midi": 39,
          "time": 299.19200849999766,
          "velocity": 0.7874015748031497,
          "duration": 0.07692300000002206
        },
        {
          "name": "D#2",
          "midi": 39,
          "time": 299.30739299999766,
          "velocity": 0.7874015748031497,
          "duration": 0.07692300000002206
        },
        {
          "name": "D#2",
          "midi": 39,
          "time": 299.42277749999766,
          "velocity": 0.7874015748031497,
          "duration": 0.07692300000002206
        },
        {
          "name": "D#2",
          "midi": 39,
          "time": 299.53816199999767,
          "velocity": 0.7874015748031497,
          "duration": 0.07692300000002206
        },
        {
          "name": "D#2",
          "midi": 39,
          "time": 299.6535464999977,
          "velocity": 0.7874015748031497,
          "duration": 0.07692300000002206
        },
        {
          "name": "D#2",
          "midi": 39,
          "time": 299.7689309999977,
          "velocity": 0.7874015748031497,
          "duration": 0.07692300000002206
        },
        {
          "name": "D#2",
          "midi": 39,
          "time": 299.8843154999977,
          "velocity": 0.7874015748031497,
          "duration": 0.07692300000002206
        },
        {
          "name": "D2",
          "midi": 38,
          "time": 299.9996999999977,
          "velocity": 0.7874015748031497,
          "duration": 0.07692300000002206
        },
        {
          "name": "D#2",
          "midi": 39,
          "time": 300.1150844999977,
          "velocity": 0.7874015748031497,
          "duration": 0.07692300000002206
        },
        {
          "name": "D#2",
          "midi": 39,
          "time": 300.2304689999977,
          "velocity": 0.7874015748031497,
          "duration": 0.07692300000002206
        },
        {
          "name": "D#2",
          "midi": 39,
          "time": 300.3458534999977,
          "velocity": 0.7874015748031497,
          "duration": 0.07692300000002206
        },
        {
          "name": "D#2",
          "midi": 39,
          "time": 300.4612379999977,
          "velocity": 0.7874015748031497,
          "duration": 0.07692300000002206
        },
        {
          "name": "D#2",
          "midi": 39,
          "time": 300.5766224999977,
          "velocity": 0.7874015748031497,
          "duration": 0.07692300000002206
        },
        {
          "name": "D#2",
          "midi": 39,
          "time": 300.6920069999977,
          "velocity": 0.7874015748031497,
          "duration": 0.07692300000002206
        },
        {
          "name": "D#2",
          "midi": 39,
          "time": 300.8073914999977,
          "velocity": 0.7874015748031497,
          "duration": 0.07692300000002206
        },
        {
          "name": "D2",
          "midi": 38,
          "time": 300.9227759999977,
          "velocity": 0.7874015748031497,
          "duration": 0.07692300000002206
        },
        {
          "name": "D#2",
          "midi": 39,
          "time": 301.03816049999773,
          "velocity": 0.7874015748031497,
          "duration": 0.07692300000002206
        },
        {
          "name": "D#2",
          "midi": 39,
          "time": 301.15354499999773,
          "velocity": 0.7874015748031497,
          "duration": 0.07692300000002206
        },
        {
          "name": "D#2",
          "midi": 39,
          "time": 301.26892949999774,
          "velocity": 0.7874015748031497,
          "duration": 0.07692300000002206
        },
        {
          "name": "D#2",
          "midi": 39,
          "time": 301.38431399999774,
          "velocity": 0.7874015748031497,
          "duration": 0.07692300000002206
        },
        {
          "name": "D#2",
          "midi": 39,
          "time": 301.49969849999775,
          "velocity": 0.7874015748031497,
          "duration": 0.07692300000002206
        },
        {
          "name": "D#2",
          "midi": 39,
          "time": 301.61508299999775,
          "velocity": 0.7874015748031497,
          "duration": 0.07692300000002206
        },
        {
          "name": "D#2",
          "midi": 39,
          "time": 301.73046749999776,
          "velocity": 0.7874015748031497,
          "duration": 0.07692300000002206
        },
        {
          "name": "D2",
          "midi": 38,
          "time": 301.84585199999776,
          "velocity": 0.7874015748031497,
          "duration": 0.07692300000002206
        },
        {
          "name": "D#2",
          "midi": 39,
          "time": 301.96123649999777,
          "velocity": 0.7874015748031497,
          "duration": 0.07692300000002206
        },
        {
          "name": "D#2",
          "midi": 39,
          "time": 302.0766209999978,
          "velocity": 0.7874015748031497,
          "duration": 0.07692300000002206
        },
        {
          "name": "D#2",
          "midi": 39,
          "time": 302.1920054999978,
          "velocity": 0.7874015748031497,
          "duration": 0.07692300000002206
        },
        {
          "name": "D2",
          "midi": 38,
          "time": 302.3073899999978,
          "velocity": 0.7874015748031497,
          "duration": 0.07692300000002206
        },
        {
          "name": "D#2",
          "midi": 39,
          "time": 302.4227744999978,
          "velocity": 0.7874015748031497,
          "duration": 0.07692300000002206
        },
        {
          "name": "D#2",
          "midi": 39,
          "time": 302.5381589999978,
          "velocity": 0.7874015748031497,
          "duration": 0.07692300000002206
        },
        {
          "name": "D#2",
          "midi": 39,
          "time": 302.6535434999978,
          "velocity": 0.7874015748031497,
          "duration": 0.07692300000002206
        },
        {
          "name": "D2",
          "midi": 38,
          "time": 302.7689279999978,
          "velocity": 0.7874015748031497,
          "duration": 0.07692300000002206
        },
        {
          "name": "D#2",
          "midi": 39,
          "time": 302.8843124999978,
          "velocity": 0.7874015748031497,
          "duration": 0.07692300000002206
        },
        {
          "name": "D#2",
          "midi": 39,
          "time": 302.9996969999978,
          "velocity": 0.7874015748031497,
          "duration": 0.07692300000002206
        },
        {
          "name": "D#2",
          "midi": 39,
          "time": 303.1150814999978,
          "velocity": 0.7874015748031497,
          "duration": 0.07692300000002206
        },
        {
          "name": "D#2",
          "midi": 39,
          "time": 303.2304659999978,
          "velocity": 0.7874015748031497,
          "duration": 0.07692300000002206
        },
        {
          "name": "D#2",
          "midi": 39,
          "time": 303.3458504999978,
          "velocity": 0.7874015748031497,
          "duration": 0.07692300000002206
        },
        {
          "name": "D#2",
          "midi": 39,
          "time": 303.4612349999978,
          "velocity": 0.7874015748031497,
          "duration": 0.07692300000002206
        },
        {
          "name": "D#2",
          "midi": 39,
          "time": 303.57661949999783,
          "velocity": 0.7874015748031497,
          "duration": 0.07692300000002206
        },
        {
          "name": "D2",
          "midi": 38,
          "time": 303.69200399999784,
          "velocity": 0.7874015748031497,
          "duration": 0.07692300000002206
        },
        {
          "name": "D#2",
          "midi": 39,
          "time": 303.80738849999784,
          "velocity": 0.7874015748031497,
          "duration": 0.07692300000002206
        },
        {
          "name": "D#2",
          "midi": 39,
          "time": 303.92277299999785,
          "velocity": 0.7874015748031497,
          "duration": 0.07692300000002206
        },
        {
          "name": "D#2",
          "midi": 39,
          "time": 304.03815749999785,
          "velocity": 0.7874015748031497,
          "duration": 0.07692300000002206
        },
        {
          "name": "D#2",
          "midi": 39,
          "time": 304.15354199999786,
          "velocity": 0.7874015748031497,
          "duration": 0.07692300000002206
        },
        {
          "name": "D#2",
          "midi": 39,
          "time": 304.26892649999786,
          "velocity": 0.7874015748031497,
          "duration": 0.07692300000002206
        },
        {
          "name": "D#2",
          "midi": 39,
          "time": 304.38431099999787,
          "velocity": 0.7874015748031497,
          "duration": 0.07692300000002206
        },
        {
          "name": "D#2",
          "midi": 39,
          "time": 304.49969549999787,
          "velocity": 0.7874015748031497,
          "duration": 0.07692300000002206
        },
        {
          "name": "D2",
          "midi": 38,
          "time": 304.6150799999979,
          "velocity": 0.7874015748031497,
          "duration": 0.07692300000002206
        },
        {
          "name": "D#2",
          "midi": 39,
          "time": 304.7304644999979,
          "velocity": 0.7874015748031497,
          "duration": 0.07692300000002206
        },
        {
          "name": "D#2",
          "midi": 39,
          "time": 304.8458489999979,
          "velocity": 0.7874015748031497,
          "duration": 0.07692300000002206
        },
        {
          "name": "D#2",
          "midi": 39,
          "time": 304.9612334999979,
          "velocity": 0.7874015748031497,
          "duration": 0.07692300000002206
        },
        {
          "name": "D#2",
          "midi": 39,
          "time": 305.0766179999979,
          "velocity": 0.7874015748031497,
          "duration": 0.07692300000002206
        },
        {
          "name": "D#2",
          "midi": 39,
          "time": 305.1920024999979,
          "velocity": 0.7874015748031497,
          "duration": 0.07692300000002206
        },
        {
          "name": "D#2",
          "midi": 39,
          "time": 305.3073869999979,
          "velocity": 0.7874015748031497,
          "duration": 0.07692300000002206
        },
        {
          "name": "D#2",
          "midi": 39,
          "time": 305.4227714999979,
          "velocity": 0.7874015748031497,
          "duration": 0.07692300000002206
        },
        {
          "name": "D2",
          "midi": 38,
          "time": 305.5381559999979,
          "velocity": 0.7874015748031497,
          "duration": 0.07692300000002206
        },
        {
          "name": "D#2",
          "midi": 39,
          "time": 305.6535404999979,
          "velocity": 0.7874015748031497,
          "duration": 0.07692300000002206
        },
        {
          "name": "D#2",
          "midi": 39,
          "time": 305.7689249999979,
          "velocity": 0.7874015748031497,
          "duration": 0.07692300000002206
        },
        {
          "name": "D#2",
          "midi": 39,
          "time": 305.8843094999979,
          "velocity": 0.7874015748031497,
          "duration": 0.07692300000002206
        },
        {
          "name": "D2",
          "midi": 38,
          "time": 305.99969399999793,
          "velocity": 0.7874015748031497,
          "duration": 0.07692300000002206
        },
        {
          "name": "D#2",
          "midi": 39,
          "time": 306.11507849999794,
          "velocity": 0.7874015748031497,
          "duration": 0.07692300000002206
        },
        {
          "name": "D#2",
          "midi": 39,
          "time": 306.23046299999794,
          "velocity": 0.7874015748031497,
          "duration": 0.07692300000002206
        },
        {
          "name": "D#2",
          "midi": 39,
          "time": 306.34584749999794,
          "velocity": 0.7874015748031497,
          "duration": 0.07692300000002206
        },
        {
          "name": "D2",
          "midi": 38,
          "time": 306.46123199999795,
          "velocity": 0.7874015748031497,
          "duration": 0.07692300000002206
        },
        {
          "name": "D#2",
          "midi": 39,
          "time": 306.57661649999795,
          "velocity": 0.7874015748031497,
          "duration": 0.07692300000002206
        },
        {
          "name": "D#2",
          "midi": 39,
          "time": 306.69200099999796,
          "velocity": 0.7874015748031497,
          "duration": 0.07692300000002206
        },
        {
          "name": "D#2",
          "midi": 39,
          "time": 306.80738549999796,
          "velocity": 0.7874015748031497,
          "duration": 0.07692300000002206
        },
        {
          "name": "D#2",
          "midi": 39,
          "time": 306.92276999999797,
          "velocity": 0.7874015748031497,
          "duration": 0.07692300000002206
        },
        {
          "name": "D#2",
          "midi": 39,
          "time": 307.038154499998,
          "velocity": 0.7874015748031497,
          "duration": 0.07692300000002206
        },
        {
          "name": "D#2",
          "midi": 39,
          "time": 307.153538999998,
          "velocity": 0.7874015748031497,
          "duration": 0.07692300000002206
        },
        {
          "name": "D#2",
          "midi": 39,
          "time": 307.268923499998,
          "velocity": 0.7874015748031497,
          "duration": 0.07692300000002206
        },
        {
          "name": "D2",
          "midi": 38,
          "time": 307.384307999998,
          "velocity": 0.7874015748031497,
          "duration": 0.07692300000002206
        },
        {
          "name": "D#2",
          "midi": 39,
          "time": 307.499692499998,
          "velocity": 0.7874015748031497,
          "duration": 0.07692300000002206
        },
        {
          "name": "D#2",
          "midi": 39,
          "time": 307.615076999998,
          "velocity": 0.7874015748031497,
          "duration": 0.07692300000002206
        },
        {
          "name": "D#2",
          "midi": 39,
          "time": 307.730461499998,
          "velocity": 0.7874015748031497,
          "duration": 0.07692300000002206
        },
        {
          "name": "D#2",
          "midi": 39,
          "time": 307.845845999998,
          "velocity": 0.7874015748031497,
          "duration": 0.07692300000002206
        },
        {
          "name": "D#2",
          "midi": 39,
          "time": 307.961230499998,
          "velocity": 0.7874015748031497,
          "duration": 0.07692300000002206
        },
        {
          "name": "D#2",
          "midi": 39,
          "time": 308.076614999998,
          "velocity": 0.7874015748031497,
          "duration": 0.07692300000002206
        },
        {
          "name": "D#2",
          "midi": 39,
          "time": 308.191999499998,
          "velocity": 0.7874015748031497,
          "duration": 0.07692300000002206
        },
        {
          "name": "D2",
          "midi": 38,
          "time": 308.307383999998,
          "velocity": 0.7874015748031497,
          "duration": 0.07692300000002206
        },
        {
          "name": "D#2",
          "midi": 39,
          "time": 308.422768499998,
          "velocity": 0.7874015748031497,
          "duration": 0.07692300000002206
        },
        {
          "name": "D#2",
          "midi": 39,
          "time": 308.53815299999803,
          "velocity": 0.7874015748031497,
          "duration": 0.07692300000002206
        },
        {
          "name": "D#2",
          "midi": 39,
          "time": 308.65353749999804,
          "velocity": 0.7874015748031497,
          "duration": 0.07692300000002206
        },
        {
          "name": "D#2",
          "midi": 39,
          "time": 308.76892199999804,
          "velocity": 0.7874015748031497,
          "duration": 0.07692300000002206
        },
        {
          "name": "D#2",
          "midi": 39,
          "time": 308.88430649999805,
          "velocity": 0.7874015748031497,
          "duration": 0.07692300000002206
        },
        {
          "name": "D#2",
          "midi": 39,
          "time": 308.99969099999805,
          "velocity": 0.7874015748031497,
          "duration": 0.07692300000002206
        },
        {
          "name": "D#2",
          "midi": 39,
          "time": 309.11507549999806,
          "velocity": 0.7874015748031497,
          "duration": 0.07692300000002206
        },
        {
          "name": "D2",
          "midi": 38,
          "time": 309.23045999999806,
          "velocity": 0.7874015748031497,
          "duration": 0.07692300000002206
        },
        {
          "name": "D#2",
          "midi": 39,
          "time": 309.34584449999807,
          "velocity": 0.7874015748031497,
          "duration": 0.07692300000002206
        },
        {
          "name": "D#2",
          "midi": 39,
          "time": 309.46122899999807,
          "velocity": 0.7874015748031497,
          "duration": 0.07692300000002206
        },
        {
          "name": "D#2",
          "midi": 39,
          "time": 309.5766134999981,
          "velocity": 0.7874015748031497,
          "duration": 0.07692300000002206
        },
        {
          "name": "D2",
          "midi": 38,
          "time": 309.6919979999981,
          "velocity": 0.7874015748031497,
          "duration": 0.07692300000002206
        },
        {
          "name": "D#2",
          "midi": 39,
          "time": 309.8073824999981,
          "velocity": 0.7874015748031497,
          "duration": 0.07692300000002206
        },
        {
          "name": "D#2",
          "midi": 39,
          "time": 309.9227669999981,
          "velocity": 0.7874015748031497,
          "duration": 0.07692300000002206
        },
        {
          "name": "D#2",
          "midi": 39,
          "time": 310.0381514999981,
          "velocity": 0.7874015748031497,
          "duration": 0.07692300000002206
        },
        {
          "name": "D2",
          "midi": 38,
          "time": 310.1535359999981,
          "velocity": 0.7874015748031497,
          "duration": 0.07692300000002206
        },
        {
          "name": "D#2",
          "midi": 39,
          "time": 310.2689204999981,
          "velocity": 0.7874015748031497,
          "duration": 0.07692300000002206
        },
        {
          "name": "D#2",
          "midi": 39,
          "time": 310.3843049999981,
          "velocity": 0.7874015748031497,
          "duration": 0.07692300000002206
        },
        {
          "name": "D#2",
          "midi": 39,
          "time": 310.4996894999981,
          "velocity": 0.7874015748031497,
          "duration": 0.07692300000002206
        },
        {
          "name": "D#2",
          "midi": 39,
          "time": 310.6150739999981,
          "velocity": 0.7874015748031497,
          "duration": 0.07692300000002206
        },
        {
          "name": "D#2",
          "midi": 39,
          "time": 310.7304584999981,
          "velocity": 0.7874015748031497,
          "duration": 0.07692300000002206
        },
        {
          "name": "D#2",
          "midi": 39,
          "time": 310.8458429999981,
          "velocity": 0.7874015748031497,
          "duration": 0.07692300000002206
        },
        {
          "name": "D#2",
          "midi": 39,
          "time": 310.96122749999813,
          "velocity": 0.7874015748031497,
          "duration": 0.07692300000002206
        },
        {
          "name": "D2",
          "midi": 38,
          "time": 311.07661199999814,
          "velocity": 0.7874015748031497,
          "duration": 0.07692300000002206
        },
        {
          "name": "D#2",
          "midi": 39,
          "time": 311.19199649999814,
          "velocity": 0.7874015748031497,
          "duration": 0.07692300000002206
        },
        {
          "name": "D#2",
          "midi": 39,
          "time": 311.30738099999814,
          "velocity": 0.7874015748031497,
          "duration": 0.07692300000002206
        },
        {
          "name": "D#2",
          "midi": 39,
          "time": 311.42276549999815,
          "velocity": 0.7874015748031497,
          "duration": 0.07692300000002206
        },
        {
          "name": "D#2",
          "midi": 39,
          "time": 311.53814999999815,
          "velocity": 0.7874015748031497,
          "duration": 0.07692300000002206
        },
        {
          "name": "D#2",
          "midi": 39,
          "time": 311.65353449999816,
          "velocity": 0.7874015748031497,
          "duration": 0.07692300000002206
        },
        {
          "name": "D#2",
          "midi": 39,
          "time": 311.76891899999816,
          "velocity": 0.7874015748031497,
          "duration": 0.07692300000002206
        },
        {
          "name": "D#2",
          "midi": 39,
          "time": 311.88430349999817,
          "velocity": 0.7874015748031497,
          "duration": 0.07692300000002206
        },
        {
          "name": "D2",
          "midi": 38,
          "time": 311.9996879999982,
          "velocity": 0.7874015748031497,
          "duration": 0.07692300000002206
        },
        {
          "name": "D#2",
          "midi": 39,
          "time": 312.1150724999982,
          "velocity": 0.7874015748031497,
          "duration": 0.07692300000002206
        },
        {
          "name": "D#2",
          "midi": 39,
          "time": 312.2304569999982,
          "velocity": 0.7874015748031497,
          "duration": 0.07692300000002206
        },
        {
          "name": "D#2",
          "midi": 39,
          "time": 312.3458414999982,
          "velocity": 0.7874015748031497,
          "duration": 0.07692300000002206
        },
        {
          "name": "D#2",
          "midi": 39,
          "time": 312.4612259999982,
          "velocity": 0.7874015748031497,
          "duration": 0.07692300000002206
        },
        {
          "name": "D#2",
          "midi": 39,
          "time": 312.5766104999982,
          "velocity": 0.7874015748031497,
          "duration": 0.07692300000002206
        },
        {
          "name": "D#2",
          "midi": 39,
          "time": 312.6919949999982,
          "velocity": 0.7874015748031497,
          "duration": 0.07692300000002206
        },
        {
          "name": "D#2",
          "midi": 39,
          "time": 312.8073794999982,
          "velocity": 0.7874015748031497,
          "duration": 0.07692300000002206
        },
        {
          "name": "D2",
          "midi": 38,
          "time": 312.9227639999982,
          "velocity": 0.7874015748031497,
          "duration": 0.07692300000002206
        },
        {
          "name": "D#2",
          "midi": 39,
          "time": 313.0381484999982,
          "velocity": 0.7874015748031497,
          "duration": 0.07692300000002206
        },
        {
          "name": "D#2",
          "midi": 39,
          "time": 313.1535329999982,
          "velocity": 0.7874015748031497,
          "duration": 0.07692300000002206
        },
        {
          "name": "D#2",
          "midi": 39,
          "time": 313.2689174999982,
          "velocity": 0.7874015748031497,
          "duration": 0.07692300000002206
        },
        {
          "name": "D2",
          "midi": 38,
          "time": 313.38430199999823,
          "velocity": 0.7874015748031497,
          "duration": 0.07692300000002206
        },
        {
          "name": "D#2",
          "midi": 39,
          "time": 313.49968649999823,
          "velocity": 0.7874015748031497,
          "duration": 0.07692300000002206
        },
        {
          "name": "D#2",
          "midi": 39,
          "time": 313.61507099999824,
          "velocity": 0.7874015748031497,
          "duration": 0.07692300000002206
        },
        {
          "name": "D#2",
          "midi": 39,
          "time": 313.73045549999824,
          "velocity": 0.7874015748031497,
          "duration": 0.07692300000002206
        },
        {
          "name": "D2",
          "midi": 38,
          "time": 313.84583999999825,
          "velocity": 0.7874015748031497,
          "duration": 0.07692300000002206
        },
        {
          "name": "D#2",
          "midi": 39,
          "time": 313.96122449999825,
          "velocity": 0.7874015748031497,
          "duration": 0.07692300000002206
        },
        {
          "name": "D#2",
          "midi": 39,
          "time": 314.07660899999826,
          "velocity": 0.7874015748031497,
          "duration": 0.07692300000002206
        },
        {
          "name": "D#2",
          "midi": 39,
          "time": 314.19199349999826,
          "velocity": 0.7874015748031497,
          "duration": 0.07692300000002206
        },
        {
          "name": "D#2",
          "midi": 39,
          "time": 314.30737799999827,
          "velocity": 0.7874015748031497,
          "duration": 0.07692300000002206
        },
        {
          "name": "D#2",
          "midi": 39,
          "time": 314.42276249999827,
          "velocity": 0.7874015748031497,
          "duration": 0.07692300000002206
        },
        {
          "name": "D#2",
          "midi": 39,
          "time": 314.5381469999983,
          "velocity": 0.7874015748031497,
          "duration": 0.07692300000002206
        },
        {
          "name": "D#2",
          "midi": 39,
          "time": 314.6535314999983,
          "velocity": 0.7874015748031497,
          "duration": 0.07692300000002206
        },
        {
          "name": "D2",
          "midi": 38,
          "time": 314.7689159999983,
          "velocity": 0.7874015748031497,
          "duration": 0.07692300000002206
        },
        {
          "name": "D#2",
          "midi": 39,
          "time": 314.8843004999983,
          "velocity": 0.7874015748031497,
          "duration": 0.07692300000002206
        },
        {
          "name": "D#2",
          "midi": 39,
          "time": 314.9996849999983,
          "velocity": 0.7874015748031497,
          "duration": 0.07692300000002206
        },
        {
          "name": "D#2",
          "midi": 39,
          "time": 315.1150694999983,
          "velocity": 0.7874015748031497,
          "duration": 0.07692300000002206
        },
        {
          "name": "D#2",
          "midi": 39,
          "time": 315.2304539999983,
          "velocity": 0.7874015748031497,
          "duration": 0.07692300000002206
        },
        {
          "name": "D#2",
          "midi": 39,
          "time": 315.3458384999983,
          "velocity": 0.7874015748031497,
          "duration": 0.07692300000002206
        },
        {
          "name": "D#2",
          "midi": 39,
          "time": 315.4612229999983,
          "velocity": 0.7874015748031497,
          "duration": 0.07692300000002206
        },
        {
          "name": "D#2",
          "midi": 39,
          "time": 315.5766074999983,
          "velocity": 0.7874015748031497,
          "duration": 0.07692300000002206
        },
        {
          "name": "D2",
          "midi": 38,
          "time": 315.6919919999983,
          "velocity": 0.7874015748031497,
          "duration": 0.07692300000002206
        },
        {
          "name": "D#2",
          "midi": 39,
          "time": 315.8073764999983,
          "velocity": 0.7874015748031497,
          "duration": 0.07692300000002206
        },
        {
          "name": "D#2",
          "midi": 39,
          "time": 315.92276099999833,
          "velocity": 0.7874015748031497,
          "duration": 0.07692300000002206
        },
        {
          "name": "D#2",
          "midi": 39,
          "time": 316.03814549999834,
          "velocity": 0.7874015748031497,
          "duration": 0.07692300000002206
        },
        {
          "name": "D#2",
          "midi": 39,
          "time": 316.15352999999834,
          "velocity": 0.7874015748031497,
          "duration": 0.07692300000002206
        },
        {
          "name": "D#2",
          "midi": 39,
          "time": 316.26891449999835,
          "velocity": 0.7874015748031497,
          "duration": 0.07692300000002206
        },
        {
          "name": "D#2",
          "midi": 39,
          "time": 316.38429899999835,
          "velocity": 0.7874015748031497,
          "duration": 0.07692300000002206
        },
        {
          "name": "D#2",
          "midi": 39,
          "time": 316.49968349999835,
          "velocity": 0.7874015748031497,
          "duration": 0.07692300000002206
        },
        {
          "name": "D2",
          "midi": 38,
          "time": 316.61506799999836,
          "velocity": 0.7874015748031497,
          "duration": 0.07692300000002206
        },
        {
          "name": "D#2",
          "midi": 39,
          "time": 316.73045249999836,
          "velocity": 0.7874015748031497,
          "duration": 0.07692300000002206
        },
        {
          "name": "D#2",
          "midi": 39,
          "time": 316.84583699999837,
          "velocity": 0.7874015748031497,
          "duration": 0.07692300000002206
        },
        {
          "name": "D#2",
          "midi": 39,
          "time": 316.9612214999984,
          "velocity": 0.7874015748031497,
          "duration": 0.07692300000002206
        },
        {
          "name": "D2",
          "midi": 38,
          "time": 317.0766059999984,
          "velocity": 0.7874015748031497,
          "duration": 0.07692300000002206
        },
        {
          "name": "D#2",
          "midi": 39,
          "time": 317.1919904999984,
          "velocity": 0.7874015748031497,
          "duration": 0.07692300000002206
        },
        {
          "name": "D#2",
          "midi": 39,
          "time": 317.3073749999984,
          "velocity": 0.7874015748031497,
          "duration": 0.07692300000002206
        },
        {
          "name": "D#2",
          "midi": 39,
          "time": 317.4227594999984,
          "velocity": 0.7874015748031497,
          "duration": 0.07692300000002206
        },
        {
          "name": "A#1",
          "midi": 34,
          "time": 317.5381439999984,
          "velocity": 0.7874015748031497,
          "duration": 0.15384599999998727
        },
        {
          "name": "A#1",
          "midi": 34,
          "time": 317.7689129999984,
          "velocity": 0.7874015748031497,
          "duration": 0.15384599999998727
        },
        {
          "name": "A#1",
          "midi": 34,
          "time": 317.9996819999984,
          "velocity": 0.7874015748031497,
          "duration": 0.15384599999998727
        },
        {
          "name": "A#1",
          "midi": 34,
          "time": 318.2304509999984,
          "velocity": 0.7874015748031497,
          "duration": 0.15384599999998727
        },
        {
          "name": "A#1",
          "midi": 34,
          "time": 318.46121999999843,
          "velocity": 0.7874015748031497,
          "duration": 0.15384599999998727
        },
        {
          "name": "A#1",
          "midi": 34,
          "time": 318.69198899999844,
          "velocity": 0.7874015748031497,
          "duration": 0.15384599999998727
        },
        {
          "name": "A#1",
          "midi": 34,
          "time": 318.92275799999845,
          "velocity": 0.7874015748031497,
          "duration": 0.15384599999998727
        },
        {
          "name": "A#1",
          "midi": 34,
          "time": 319.15352699999846,
          "velocity": 0.7874015748031497,
          "duration": 0.15384599999998727
        },
        {
          "name": "A1",
          "midi": 33,
          "time": 319.38429599999847,
          "velocity": 0.7874015748031497,
          "duration": 0.15384599999998727
        },
        {
          "name": "A1",
          "midi": 33,
          "time": 319.6150649999985,
          "velocity": 0.7874015748031497,
          "duration": 0.15384599999998727
        },
        {
          "name": "A1",
          "midi": 33,
          "time": 319.8458339999985,
          "velocity": 0.7874015748031497,
          "duration": 0.15384599999998727
        },
        {
          "name": "A1",
          "midi": 33,
          "time": 320.0766029999985,
          "velocity": 0.7874015748031497,
          "duration": 0.15384599999998727
        },
        {
          "name": "G#1",
          "midi": 32,
          "time": 320.3073719999985,
          "velocity": 0.7874015748031497,
          "duration": 0.15384599999998727
        },
        {
          "name": "G#1",
          "midi": 32,
          "time": 320.5381409999985,
          "velocity": 0.7874015748031497,
          "duration": 0.15384599999998727
        },
        {
          "name": "G#1",
          "midi": 32,
          "time": 320.7689099999985,
          "velocity": 0.7874015748031497,
          "duration": 0.15384599999998727
        },
        {
          "name": "G#1",
          "midi": 32,
          "time": 320.99967899999854,
          "velocity": 0.7874015748031497,
          "duration": 0.15384599999998727
        },
        {
          "name": "D2",
          "midi": 38,
          "time": 321.23044799999855,
          "velocity": 0.7874015748031497,
          "duration": 0.07692300000002206
        },
        {
          "name": "D#2",
          "midi": 39,
          "time": 321.34583249999855,
          "velocity": 0.7874015748031497,
          "duration": 0.07692300000002206
        },
        {
          "name": "D#2",
          "midi": 39,
          "time": 321.46121699999856,
          "velocity": 0.7874015748031497,
          "duration": 0.07692300000002206
        },
        {
          "name": "D#2",
          "midi": 39,
          "time": 321.57660149999856,
          "velocity": 0.7874015748031497,
          "duration": 0.07692300000002206
        },
        {
          "name": "D#2",
          "midi": 39,
          "time": 321.69198599999856,
          "velocity": 0.7874015748031497,
          "duration": 0.07692300000002206
        },
        {
          "name": "D#2",
          "midi": 39,
          "time": 321.80737049999857,
          "velocity": 0.7874015748031497,
          "duration": 0.07692300000002206
        },
        {
          "name": "D#2",
          "midi": 39,
          "time": 321.9227549999986,
          "velocity": 0.7874015748031497,
          "duration": 0.07692300000002206
        },
        {
          "name": "D#2",
          "midi": 39,
          "time": 322.0381394999986,
          "velocity": 0.7874015748031497,
          "duration": 0.07692300000002206
        },
        {
          "name": "D2",
          "midi": 38,
          "time": 322.1535239999986,
          "velocity": 0.7874015748031497,
          "duration": 0.07692300000002206
        },
        {
          "name": "D#2",
          "midi": 39,
          "time": 322.2689084999986,
          "velocity": 0.7874015748031497,
          "duration": 0.07692300000002206
        },
        {
          "name": "D#2",
          "midi": 39,
          "time": 322.3842929999986,
          "velocity": 0.7874015748031497,
          "duration": 0.07692300000002206
        },
        {
          "name": "D#2",
          "midi": 39,
          "time": 322.4996774999986,
          "velocity": 0.7874015748031497,
          "duration": 0.07692300000002206
        },
        {
          "name": "D#2",
          "midi": 39,
          "time": 322.6150619999986,
          "velocity": 0.7874015748031497,
          "duration": 0.07692300000002206
        },
        {
          "name": "D#2",
          "midi": 39,
          "time": 322.7304464999986,
          "velocity": 0.7874015748031497,
          "duration": 0.07692300000002206
        },
        {
          "name": "D#2",
          "midi": 39,
          "time": 322.8458309999986,
          "velocity": 0.7874015748031497,
          "duration": 0.07692300000002206
        },
        {
          "name": "D#2",
          "midi": 39,
          "time": 322.9612154999986,
          "velocity": 0.7874015748031497,
          "duration": 0.07692300000002206
        },
        {
          "name": "D2",
          "midi": 38,
          "time": 323.0765999999986,
          "velocity": 0.7874015748031497,
          "duration": 0.07692300000002206
        },
        {
          "name": "D#2",
          "midi": 39,
          "time": 323.1919844999986,
          "velocity": 0.7874015748031497,
          "duration": 0.07692300000002206
        },
        {
          "name": "D#2",
          "midi": 39,
          "time": 323.30736899999863,
          "velocity": 0.7874015748031497,
          "duration": 0.07692300000002206
        },
        {
          "name": "D#2",
          "midi": 39,
          "time": 323.42275349999863,
          "velocity": 0.7874015748031497,
          "duration": 0.07692300000002206
        },
        {
          "name": "D#2",
          "midi": 39,
          "time": 323.53813799999864,
          "velocity": 0.7874015748031497,
          "duration": 0.07692300000002206
        },
        {
          "name": "D#2",
          "midi": 39,
          "time": 323.65352249999864,
          "velocity": 0.7874015748031497,
          "duration": 0.07692300000002206
        },
        {
          "name": "D#2",
          "midi": 39,
          "time": 323.76890699999865,
          "velocity": 0.7874015748031497,
          "duration": 0.07692300000002206
        },
        {
          "name": "D#2",
          "midi": 39,
          "time": 323.88429149999865,
          "velocity": 0.7874015748031497,
          "duration": 0.07692300000002206
        },
        {
          "name": "D2",
          "midi": 38,
          "time": 323.99967599999866,
          "velocity": 0.7874015748031497,
          "duration": 0.07692300000002206
        },
        {
          "name": "D#2",
          "midi": 39,
          "time": 324.11506049999866,
          "velocity": 0.7874015748031497,
          "duration": 0.07692300000002206
        },
        {
          "name": "D#2",
          "midi": 39,
          "time": 324.23044499999867,
          "velocity": 0.7874015748031497,
          "duration": 0.07692300000002206
        },
        {
          "name": "D#2",
          "midi": 39,
          "time": 324.3458294999987,
          "velocity": 0.7874015748031497,
          "duration": 0.07692300000002206
        },
        {
          "name": "D2",
          "midi": 38,
          "time": 324.4612139999987,
          "velocity": 0.7874015748031497,
          "duration": 0.07692300000002206
        },
        {
          "name": "D#2",
          "midi": 39,
          "time": 324.5765984999987,
          "velocity": 0.7874015748031497,
          "duration": 0.07692300000002206
        },
        {
          "name": "D#2",
          "midi": 39,
          "time": 324.6919829999987,
          "velocity": 0.7874015748031497,
          "duration": 0.07692300000002206
        },
        {
          "name": "D#2",
          "midi": 39,
          "time": 324.8073674999987,
          "velocity": 0.7874015748031497,
          "duration": 0.07692300000002206
        },
        {
          "name": "A#1",
          "midi": 34,
          "time": 324.9227519999987,
          "velocity": 0.7874015748031497,
          "duration": 0.15384599999998727
        },
        {
          "name": "A#1",
          "midi": 34,
          "time": 325.1535209999987,
          "velocity": 0.7874015748031497,
          "duration": 0.15384599999998727
        },
        {
          "name": "A#1",
          "midi": 34,
          "time": 325.3842899999987,
          "velocity": 0.7874015748031497,
          "duration": 0.15384599999998727
        },
        {
          "name": "A#1",
          "midi": 34,
          "time": 325.6150589999987,
          "velocity": 0.7874015748031497,
          "duration": 0.15384599999998727
        },
        {
          "name": "A#1",
          "midi": 34,
          "time": 325.84582799999873,
          "velocity": 0.7874015748031497,
          "duration": 0.15384599999998727
        },
        {
          "name": "A#1",
          "midi": 34,
          "time": 326.07659699999874,
          "velocity": 0.7874015748031497,
          "duration": 0.15384599999998727
        },
        {
          "name": "A#1",
          "midi": 34,
          "time": 326.30736599999875,
          "velocity": 0.7874015748031497,
          "duration": 0.15384599999998727
        },
        {
          "name": "A#1",
          "midi": 34,
          "time": 326.53813499999876,
          "velocity": 0.7874015748031497,
          "duration": 0.15384599999998727
        },
        {
          "name": "A1",
          "midi": 33,
          "time": 326.76890399999877,
          "velocity": 0.7874015748031497,
          "duration": 0.15384599999998727
        },
        {
          "name": "A1",
          "midi": 33,
          "time": 326.9996729999988,
          "velocity": 0.7874015748031497,
          "duration": 0.15384599999998727
        },
        {
          "name": "A1",
          "midi": 33,
          "time": 327.2304419999988,
          "velocity": 0.7874015748031497,
          "duration": 0.15384599999998727
        },
        {
          "name": "A1",
          "midi": 33,
          "time": 327.4612109999988,
          "velocity": 0.7874015748031497,
          "duration": 0.15384599999998727
        },
        {
          "name": "G#1",
          "midi": 32,
          "time": 327.6919799999988,
          "velocity": 0.7874015748031497,
          "duration": 0.15384599999998727
        },
        {
          "name": "G#1",
          "midi": 32,
          "time": 327.9227489999988,
          "velocity": 0.7874015748031497,
          "duration": 0.15384599999998727
        },
        {
          "name": "G#1",
          "midi": 32,
          "time": 328.1535179999988,
          "velocity": 0.7874015748031497,
          "duration": 0.15384599999998727
        },
        {
          "name": "G#1",
          "midi": 32,
          "time": 328.38428699999884,
          "velocity": 0.7874015748031497,
          "duration": 0.15384599999998727
        },
        {
          "name": "D2",
          "midi": 38,
          "time": 328.61505599999884,
          "velocity": 0.7874015748031497,
          "duration": 0.07692300000002206
        },
        {
          "name": "D#2",
          "midi": 39,
          "time": 328.73044049999885,
          "velocity": 0.7874015748031497,
          "duration": 0.07692300000002206
        },
        {
          "name": "D#2",
          "midi": 39,
          "time": 328.84582499999885,
          "velocity": 0.7874015748031497,
          "duration": 0.07692300000002206
        },
        {
          "name": "D#2",
          "midi": 39,
          "time": 328.96120949999886,
          "velocity": 0.7874015748031497,
          "duration": 0.07692300000002206
        },
        {
          "name": "D#2",
          "midi": 39,
          "time": 329.07659399999886,
          "velocity": 0.7874015748031497,
          "duration": 0.07692300000002206
        },
        {
          "name": "D#2",
          "midi": 39,
          "time": 329.19197849999887,
          "velocity": 0.7874015748031497,
          "duration": 0.07692300000002206
        },
        {
          "name": "D#2",
          "midi": 39,
          "time": 329.3073629999989,
          "velocity": 0.7874015748031497,
          "duration": 0.07692300000002206
        },
        {
          "name": "D#2",
          "midi": 39,
          "time": 329.4227474999989,
          "velocity": 0.7874015748031497,
          "duration": 0.07692300000002206
        },
        {
          "name": "D2",
          "midi": 38,
          "time": 329.5381319999989,
          "velocity": 0.7874015748031497,
          "duration": 0.07692300000002206
        },
        {
          "name": "D#2",
          "midi": 39,
          "time": 329.6535164999989,
          "velocity": 0.7874015748031497,
          "duration": 0.07692300000002206
        },
        {
          "name": "D#2",
          "midi": 39,
          "time": 329.7689009999989,
          "velocity": 0.7874015748031497,
          "duration": 0.07692300000002206
        },
        {
          "name": "D#2",
          "midi": 39,
          "time": 329.8842854999989,
          "velocity": 0.7874015748031497,
          "duration": 0.07692300000002206
        },
        {
          "name": "D#2",
          "midi": 39,
          "time": 329.9996699999989,
          "velocity": 0.7874015748031497,
          "duration": 0.07692300000002206
        },
        {
          "name": "D#2",
          "midi": 39,
          "time": 330.1150544999989,
          "velocity": 0.7874015748031497,
          "duration": 0.07692300000002206
        },
        {
          "name": "D#2",
          "midi": 39,
          "time": 330.2304389999989,
          "velocity": 0.7874015748031497,
          "duration": 0.07692300000002206
        },
        {
          "name": "D#2",
          "midi": 39,
          "time": 330.3458234999989,
          "velocity": 0.7874015748031497,
          "duration": 0.07692300000002206
        },
        {
          "name": "D2",
          "midi": 38,
          "time": 330.4612079999989,
          "velocity": 0.7874015748031497,
          "duration": 0.07692300000002206
        },
        {
          "name": "D#2",
          "midi": 39,
          "time": 330.5765924999989,
          "velocity": 0.7874015748031497,
          "duration": 0.07692300000002206
        },
        {
          "name": "D#2",
          "midi": 39,
          "time": 330.69197699999893,
          "velocity": 0.7874015748031497,
          "duration": 0.07692300000002206
        },
        {
          "name": "D#2",
          "midi": 39,
          "time": 330.80736149999893,
          "velocity": 0.7874015748031497,
          "duration": 0.07692300000002206
        },
        {
          "name": "D#2",
          "midi": 39,
          "time": 330.92274599999894,
          "velocity": 0.7874015748031497,
          "duration": 0.07692300000002206
        },
        {
          "name": "D#2",
          "midi": 39,
          "time": 331.03813049999894,
          "velocity": 0.7874015748031497,
          "duration": 0.07692300000002206
        },
        {
          "name": "D#2",
          "midi": 39,
          "time": 331.15351499999895,
          "velocity": 0.7874015748031497,
          "duration": 0.07692300000002206
        },
        {
          "name": "D#2",
          "midi": 39,
          "time": 331.26889949999895,
          "velocity": 0.7874015748031497,
          "duration": 0.07692300000002206
        },
        {
          "name": "D2",
          "midi": 38,
          "time": 331.38428399999896,
          "velocity": 0.7874015748031497,
          "duration": 0.07692300000002206
        },
        {
          "name": "D#2",
          "midi": 39,
          "time": 331.49966849999896,
          "velocity": 0.7874015748031497,
          "duration": 0.07692300000002206
        },
        {
          "name": "D#2",
          "midi": 39,
          "time": 331.61505299999897,
          "velocity": 0.7874015748031497,
          "duration": 0.07692300000002206
        },
        {
          "name": "D#2",
          "midi": 39,
          "time": 331.73043749999897,
          "velocity": 0.7874015748031497,
          "duration": 0.07692300000002206
        },
        {
          "name": "D2",
          "midi": 38,
          "time": 331.845821999999,
          "velocity": 0.7874015748031497,
          "duration": 0.07692300000002206
        },
        {
          "name": "D#2",
          "midi": 39,
          "time": 331.961206499999,
          "velocity": 0.7874015748031497,
          "duration": 0.07692300000002206
        },
        {
          "name": "D#2",
          "midi": 39,
          "time": 332.076590999999,
          "velocity": 0.7874015748031497,
          "duration": 0.07692300000002206
        },
        {
          "name": "D#2",
          "midi": 39,
          "time": 332.191975499999,
          "velocity": 0.7874015748031497,
          "duration": 0.07692300000002206
        },
        {
          "name": "A#1",
          "midi": 34,
          "time": 332.307359999999,
          "velocity": 0.7874015748031497,
          "duration": 0.15384599999998727
        },
        {
          "name": "A#1",
          "midi": 34,
          "time": 332.538128999999,
          "velocity": 0.7874015748031497,
          "duration": 0.15384599999998727
        },
        {
          "name": "A#1",
          "midi": 34,
          "time": 332.768897999999,
          "velocity": 0.7874015748031497,
          "duration": 0.15384599999998727
        },
        {
          "name": "A#1",
          "midi": 34,
          "time": 332.999666999999,
          "velocity": 0.7874015748031497,
          "duration": 0.15384599999998727
        },
        {
          "name": "A#1",
          "midi": 34,
          "time": 333.23043599999903,
          "velocity": 0.7874015748031497,
          "duration": 0.15384599999998727
        },
        {
          "name": "A#1",
          "midi": 34,
          "time": 333.46120499999904,
          "velocity": 0.7874015748031497,
          "duration": 0.15384599999998727
        },
        {
          "name": "A#1",
          "midi": 34,
          "time": 333.69197399999905,
          "velocity": 0.7874015748031497,
          "duration": 0.15384599999998727
        },
        {
          "name": "A#1",
          "midi": 34,
          "time": 333.92274299999906,
          "velocity": 0.7874015748031497,
          "duration": 0.15384599999998727
        },
        {
          "name": "A1",
          "midi": 33,
          "time": 334.15351199999907,
          "velocity": 0.7874015748031497,
          "duration": 0.15384599999998727
        },
        {
          "name": "A1",
          "midi": 33,
          "time": 334.3842809999991,
          "velocity": 0.7874015748031497,
          "duration": 0.15384599999998727
        },
        {
          "name": "A1",
          "midi": 33,
          "time": 334.6150499999991,
          "velocity": 0.7874015748031497,
          "duration": 0.15384599999998727
        },
        {
          "name": "A1",
          "midi": 33,
          "time": 334.8458189999991,
          "velocity": 0.7874015748031497,
          "duration": 0.15384599999998727
        },
        {
          "name": "G#1",
          "midi": 32,
          "time": 335.0765879999991,
          "velocity": 0.7874015748031497,
          "duration": 0.15384599999998727
        },
        {
          "name": "G#1",
          "midi": 32,
          "time": 335.3073569999991,
          "velocity": 0.7874015748031497,
          "duration": 0.15384599999998727
        },
        {
          "name": "G#1",
          "midi": 32,
          "time": 335.5381259999991,
          "velocity": 0.7874015748031497,
          "duration": 0.15384599999998727
        },
        {
          "name": "G#1",
          "midi": 32,
          "time": 335.76889499999913,
          "velocity": 0.7874015748031497,
          "duration": 0.15384599999998727
        },
        {
          "name": "D2",
          "midi": 38,
          "time": 335.99966399999914,
          "velocity": 0.7874015748031497,
          "duration": 0.07692300000002206
        },
        {
          "name": "D#2",
          "midi": 39,
          "time": 336.11504849999915,
          "velocity": 0.7874015748031497,
          "duration": 0.07692300000002206
        },
        {
          "name": "D#2",
          "midi": 39,
          "time": 336.23043299999915,
          "velocity": 0.7874015748031497,
          "duration": 0.07692300000002206
        },
        {
          "name": "D#2",
          "midi": 39,
          "time": 336.34581749999916,
          "velocity": 0.7874015748031497,
          "duration": 0.07692300000002206
        },
        {
          "name": "D#2",
          "midi": 39,
          "time": 336.46120199999916,
          "velocity": 0.7874015748031497,
          "duration": 0.07692300000002206
        },
        {
          "name": "D#2",
          "midi": 39,
          "time": 336.57658649999917,
          "velocity": 0.7874015748031497,
          "duration": 0.07692300000002206
        },
        {
          "name": "D#2",
          "midi": 39,
          "time": 336.69197099999917,
          "velocity": 0.7874015748031497,
          "duration": 0.07692300000002206
        },
        {
          "name": "D#2",
          "midi": 39,
          "time": 336.8073554999992,
          "velocity": 0.7874015748031497,
          "duration": 0.07692300000002206
        },
        {
          "name": "D2",
          "midi": 38,
          "time": 336.9227399999992,
          "velocity": 0.7874015748031497,
          "duration": 0.07692300000002206
        },
        {
          "name": "D#2",
          "midi": 39,
          "time": 337.0381244999992,
          "velocity": 0.7874015748031497,
          "duration": 0.07692300000002206
        },
        {
          "name": "D#2",
          "midi": 39,
          "time": 337.1535089999992,
          "velocity": 0.7874015748031497,
          "duration": 0.07692300000002206
        },
        {
          "name": "D#2",
          "midi": 39,
          "time": 337.2688934999992,
          "velocity": 0.7874015748031497,
          "duration": 0.07692300000002206
        },
        {
          "name": "D#2",
          "midi": 39,
          "time": 337.3842779999992,
          "velocity": 0.7874015748031497,
          "duration": 0.07692300000002206
        },
        {
          "name": "D#2",
          "midi": 39,
          "time": 337.4996624999992,
          "velocity": 0.7874015748031497,
          "duration": 0.07692300000002206
        },
        {
          "name": "D#2",
          "midi": 39,
          "time": 337.6150469999992,
          "velocity": 0.7874015748031497,
          "duration": 0.07692300000002206
        },
        {
          "name": "D#2",
          "midi": 39,
          "time": 337.7304314999992,
          "velocity": 0.7874015748031497,
          "duration": 0.07692300000002206
        },
        {
          "name": "D2",
          "midi": 38,
          "time": 337.8458159999992,
          "velocity": 0.7874015748031497,
          "duration": 0.07692300000002206
        },
        {
          "name": "D#2",
          "midi": 39,
          "time": 337.9612004999992,
          "velocity": 0.7874015748031497,
          "duration": 0.07692300000002206
        },
        {
          "name": "D#2",
          "midi": 39,
          "time": 338.0765849999992,
          "velocity": 0.7874015748031497,
          "duration": 0.07692300000002206
        },
        {
          "name": "D#2",
          "midi": 39,
          "time": 338.19196949999923,
          "velocity": 0.7874015748031497,
          "duration": 0.07692300000002206
        },
        {
          "name": "D#2",
          "midi": 39,
          "time": 338.30735399999924,
          "velocity": 0.7874015748031497,
          "duration": 0.07692300000002206
        },
        {
          "name": "D#2",
          "midi": 39,
          "time": 338.42273849999924,
          "velocity": 0.7874015748031497,
          "duration": 0.07692300000002206
        },
        {
          "name": "D#2",
          "midi": 39,
          "time": 338.53812299999925,
          "velocity": 0.7874015748031497,
          "duration": 0.07692300000002206
        },
        {
          "name": "D#2",
          "midi": 39,
          "time": 338.65350749999925,
          "velocity": 0.7874015748031497,
          "duration": 0.07692300000002206
        },
        {
          "name": "D2",
          "midi": 38,
          "time": 338.76889199999925,
          "velocity": 0.7874015748031497,
          "duration": 0.07692300000002206
        },
        {
          "name": "D#2",
          "midi": 39,
          "time": 338.88427649999926,
          "velocity": 0.7874015748031497,
          "duration": 0.07692300000002206
        },
        {
          "name": "D#2",
          "midi": 39,
          "time": 338.99966099999926,
          "velocity": 0.7874015748031497,
          "duration": 0.07692300000002206
        },
        {
          "name": "D#2",
          "midi": 39,
          "time": 339.11504549999927,
          "velocity": 0.7874015748031497,
          "duration": 0.07692300000002206
        },
        {
          "name": "D2",
          "midi": 38,
          "time": 339.2304299999993,
          "velocity": 0.7874015748031497,
          "duration": 0.07692300000002206
        },
        {
          "name": "D#2",
          "midi": 39,
          "time": 339.3458144999993,
          "velocity": 0.7874015748031497,
          "duration": 0.07692300000002206
        },
        {
          "name": "D#2",
          "midi": 39,
          "time": 339.4611989999993,
          "velocity": 0.7874015748031497,
          "duration": 0.07692300000002206
        },
        {
          "name": "D#2",
          "midi": 39,
          "time": 339.5765834999993,
          "velocity": 0.7874015748031497,
          "duration": 0.07692300000002206
        },
        {
          "name": "A#1",
          "midi": 34,
          "time": 339.6919679999993,
          "velocity": 0.7874015748031497,
          "duration": 0.15384599999998727
        },
        {
          "name": "A#1",
          "midi": 34,
          "time": 339.9227369999993,
          "velocity": 0.7874015748031497,
          "duration": 0.15384599999998727
        },
        {
          "name": "A#1",
          "midi": 34,
          "time": 340.1535059999993,
          "velocity": 0.7874015748031497,
          "duration": 0.15384599999998727
        },
        {
          "name": "A#1",
          "midi": 34,
          "time": 340.3842749999993,
          "velocity": 0.7874015748031497,
          "duration": 0.15384599999998727
        },
        {
          "name": "A#1",
          "midi": 34,
          "time": 340.61504399999933,
          "velocity": 0.7874015748031497,
          "duration": 0.15384599999998727
        },
        {
          "name": "A#1",
          "midi": 34,
          "time": 340.84581299999934,
          "velocity": 0.7874015748031497,
          "duration": 0.15384599999998727
        },
        {
          "name": "A#1",
          "midi": 34,
          "time": 341.07658199999935,
          "velocity": 0.7874015748031497,
          "duration": 0.15384599999998727
        },
        {
          "name": "A#1",
          "midi": 34,
          "time": 341.30735099999936,
          "velocity": 0.7874015748031497,
          "duration": 0.15384599999998727
        },
        {
          "name": "A1",
          "midi": 33,
          "time": 341.53811999999937,
          "velocity": 0.7874015748031497,
          "duration": 0.15384599999998727
        },
        {
          "name": "A1",
          "midi": 33,
          "time": 341.7688889999994,
          "velocity": 0.7874015748031497,
          "duration": 0.15384599999998727
        },
        {
          "name": "A1",
          "midi": 33,
          "time": 341.9996579999994,
          "velocity": 0.7874015748031497,
          "duration": 0.15384599999998727
        },
        {
          "name": "A1",
          "midi": 33,
          "time": 342.2304269999994,
          "velocity": 0.7874015748031497,
          "duration": 0.15384599999998727
        },
        {
          "name": "G#1",
          "midi": 32,
          "time": 342.4611959999994,
          "velocity": 0.7874015748031497,
          "duration": 0.15384599999998727
        },
        {
          "name": "G#1",
          "midi": 32,
          "time": 342.6919649999994,
          "velocity": 0.7874015748031497,
          "duration": 0.15384599999998727
        },
        {
          "name": "G#1",
          "midi": 32,
          "time": 342.9227339999994,
          "velocity": 0.7874015748031497,
          "duration": 0.15384599999998727
        },
        {
          "name": "G#1",
          "midi": 32,
          "time": 343.15350299999943,
          "velocity": 0.7874015748031497,
          "duration": 0.15384599999998727
        },
        {
          "name": "D2",
          "midi": 38,
          "time": 343.38427199999944,
          "velocity": 0.7874015748031497,
          "duration": 0.07692300000002206
        },
        {
          "name": "D#2",
          "midi": 39,
          "time": 343.49965649999945,
          "velocity": 0.7874015748031497,
          "duration": 0.07692300000002206
        },
        {
          "name": "D#2",
          "midi": 39,
          "time": 343.61504099999945,
          "velocity": 0.7874015748031497,
          "duration": 0.07692300000002206
        },
        {
          "name": "D#2",
          "midi": 39,
          "time": 343.73042549999946,
          "velocity": 0.7874015748031497,
          "duration": 0.07692300000002206
        },
        {
          "name": "D#2",
          "midi": 39,
          "time": 343.84580999999946,
          "velocity": 0.7874015748031497,
          "duration": 0.07692300000002206
        },
        {
          "name": "D#2",
          "midi": 39,
          "time": 343.96119449999946,
          "velocity": 0.7874015748031497,
          "duration": 0.07692300000002206
        },
        {
          "name": "D#2",
          "midi": 39,
          "time": 344.07657899999947,
          "velocity": 0.7874015748031497,
          "duration": 0.07692300000002206
        },
        {
          "name": "D#2",
          "midi": 39,
          "time": 344.1919634999995,
          "velocity": 0.7874015748031497,
          "duration": 0.07692300000002206
        },
        {
          "name": "D2",
          "midi": 38,
          "time": 344.3073479999995,
          "velocity": 0.7874015748031497,
          "duration": 0.07692300000002206
        },
        {
          "name": "D#2",
          "midi": 39,
          "time": 344.4227324999995,
          "velocity": 0.7874015748031497,
          "duration": 0.07692300000002206
        },
        {
          "name": "D#2",
          "midi": 39,
          "time": 344.5381169999995,
          "velocity": 0.7874015748031497,
          "duration": 0.07692300000002206
        },
        {
          "name": "D#2",
          "midi": 39,
          "time": 344.6535014999995,
          "velocity": 0.7874015748031497,
          "duration": 0.07692300000002206
        },
        {
          "name": "D#2",
          "midi": 39,
          "time": 344.7688859999995,
          "velocity": 0.7874015748031497,
          "duration": 0.07692300000002206
        },
        {
          "name": "D#2",
          "midi": 39,
          "time": 344.8842704999995,
          "velocity": 0.7874015748031497,
          "duration": 0.07692300000002206
        },
        {
          "name": "D#2",
          "midi": 39,
          "time": 344.9996549999995,
          "velocity": 0.7874015748031497,
          "duration": 0.07692300000002206
        },
        {
          "name": "D#2",
          "midi": 39,
          "time": 345.1150394999995,
          "velocity": 0.7874015748031497,
          "duration": 0.07692300000002206
        },
        {
          "name": "D2",
          "midi": 38,
          "time": 345.2304239999995,
          "velocity": 0.7874015748031497,
          "duration": 0.07692300000002206
        },
        {
          "name": "D#2",
          "midi": 39,
          "time": 345.3458084999995,
          "velocity": 0.7874015748031497,
          "duration": 0.07692300000002206
        },
        {
          "name": "D#2",
          "midi": 39,
          "time": 345.4611929999995,
          "velocity": 0.7874015748031497,
          "duration": 0.07692300000002206
        },
        {
          "name": "D#2",
          "midi": 39,
          "time": 345.57657749999953,
          "velocity": 0.7874015748031497,
          "duration": 0.07692300000002206
        },
        {
          "name": "D#2",
          "midi": 39,
          "time": 345.69196199999953,
          "velocity": 0.7874015748031497,
          "duration": 0.07692300000002206
        },
        {
          "name": "D#2",
          "midi": 39,
          "time": 345.80734649999954,
          "velocity": 0.7874015748031497,
          "duration": 0.07692300000002206
        },
        {
          "name": "D#2",
          "midi": 39,
          "time": 345.92273099999954,
          "velocity": 0.7874015748031497,
          "duration": 0.07692300000002206
        },
        {
          "name": "D#2",
          "midi": 39,
          "time": 346.03811549999955,
          "velocity": 0.7874015748031497,
          "duration": 0.07692300000002206
        },
        {
          "name": "D2",
          "midi": 38,
          "time": 346.15349999999955,
          "velocity": 0.7874015748031497,
          "duration": 0.07692300000002206
        },
        {
          "name": "D#2",
          "midi": 39,
          "time": 346.26888449999956,
          "velocity": 0.7874015748031497,
          "duration": 0.07692300000002206
        },
        {
          "name": "D#2",
          "midi": 39,
          "time": 346.38426899999956,
          "velocity": 0.7874015748031497,
          "duration": 0.07692300000002206
        },
        {
          "name": "D#2",
          "midi": 39,
          "time": 346.49965349999957,
          "velocity": 0.7874015748031497,
          "duration": 0.07692300000002206
        },
        {
          "name": "D2",
          "midi": 38,
          "time": 346.6150379999996,
          "velocity": 0.7874015748031497,
          "duration": 0.07692300000002206
        },
        {
          "name": "D#2",
          "midi": 39,
          "time": 346.7304224999996,
          "velocity": 0.7874015748031497,
          "duration": 0.07692300000002206
        },
        {
          "name": "D#2",
          "midi": 39,
          "time": 346.8458069999996,
          "velocity": 0.7874015748031497,
          "duration": 0.07692300000002206
        },
        {
          "name": "D#2",
          "midi": 39,
          "time": 346.9611914999996,
          "velocity": 0.7874015748031497,
          "duration": 0.07692300000002206
        }
      ],
      "controlChanges": {
        "7": [
          {
            "number": 7,
            "time": 0,
            "value": 0.7637795275590551
          }
        ],
        "10": [
          {
            "number": 10,
            "time": 0,
            "value": 0.8503937007874016
          }
        ]
      },
      "instrument": ""
    },
    {
      "name": "",
      "notes": [
        {
          "name": "D#3",
          "midi": 51,
          "time": 0,
          "velocity": 0.7874015748031497,
          "duration": 0.23076899999999997
        },
        {
          "name": "D#3",
          "midi": 51,
          "time": 0.23076899999999997,
          "velocity": 0.7874015748031497,
          "duration": 0.23076899999999997
        },
        {
          "name": "D#3",
          "midi": 51,
          "time": 0.46153799999999995,
          "velocity": 0.7874015748031497,
          "duration": 0.23076899999999995
        },
        {
          "name": "D#3",
          "midi": 51,
          "time": 0.6923069999999999,
          "velocity": 0.7874015748031497,
          "duration": 0.230769
        },
        {
          "name": "F#3",
          "midi": 54,
          "time": 0.9230759999999999,
          "velocity": 0.7874015748031497,
          "duration": 0.2307689999999999
        },
        {
          "name": "D#3",
          "midi": 51,
          "time": 1.1538449999999998,
          "velocity": 0.7874015748031497,
          "duration": 0.230769
        },
        {
          "name": "F#3",
          "midi": 54,
          "time": 1.3846139999999998,
          "velocity": 0.7874015748031497,
          "duration": 0.230769
        },
        {
          "name": "F3",
          "midi": 53,
          "time": 1.6153829999999998,
          "velocity": 0.7874015748031497,
          "duration": 0.230769
        },
        {
          "name": "D#3",
          "midi": 51,
          "time": 1.8461519999999998,
          "velocity": 0.7874015748031497,
          "duration": 0.23076899999999978
        },
        {
          "name": "F3",
          "midi": 53,
          "time": 2.0769209999999996,
          "velocity": 0.7874015748031497,
          "duration": 0.230769
        },
        {
          "name": "D3",
          "midi": 50,
          "time": 2.3076899999999996,
          "velocity": 0.7874015748031497,
          "duration": 0.230769
        },
        {
          "name": "D3",
          "midi": 50,
          "time": 2.5384589999999996,
          "velocity": 0.7874015748031497,
          "duration": 0.230769
        },
        {
          "name": "D3",
          "midi": 50,
          "time": 2.7692279999999996,
          "velocity": 0.7874015748031497,
          "duration": 0.230769
        },
        {
          "name": "D3",
          "midi": 50,
          "time": 2.9999969999999996,
          "velocity": 0.7874015748031497,
          "duration": 0.230769
        },
        {
          "name": "D3",
          "midi": 50,
          "time": 3.2307659999999996,
          "velocity": 0.7874015748031497,
          "duration": 0.230769
        },
        {
          "name": "D3",
          "midi": 50,
          "time": 3.4615349999999996,
          "velocity": 0.7874015748031497,
          "duration": 0.11538449999999978
        },
        {
          "name": "D3",
          "midi": 50,
          "time": 3.5769194999999994,
          "velocity": 0.7874015748031497,
          "duration": 0.11538449999999978
        },
        {
          "name": "D#3",
          "midi": 51,
          "time": 3.692303999999999,
          "velocity": 0.7874015748031497,
          "duration": 0.230769
        },
        {
          "name": "D#3",
          "midi": 51,
          "time": 3.923072999999999,
          "velocity": 0.7874015748031497,
          "duration": 0.230769
        },
        {
          "name": "D#3",
          "midi": 51,
          "time": 4.153841999999999,
          "velocity": 0.7874015748031497,
          "duration": 0.23076899999999956
        },
        {
          "name": "D#3",
          "midi": 51,
          "time": 4.384610999999999,
          "velocity": 0.7874015748031497,
          "duration": 0.23076899999999956
        },
        {
          "name": "F#3",
          "midi": 54,
          "time": 4.615379999999998,
          "velocity": 0.7874015748031497,
          "duration": 0.23076899999999956
        },
        {
          "name": "D#3",
          "midi": 51,
          "time": 4.846148999999998,
          "velocity": 0.7874015748031497,
          "duration": 0.23076899999999956
        },
        {
          "name": "F#3",
          "midi": 54,
          "time": 5.076917999999997,
          "velocity": 0.7874015748031497,
          "duration": 0.23076899999999956
        },
        {
          "name": "F3",
          "midi": 53,
          "time": 5.307686999999997,
          "velocity": 0.7874015748031497,
          "duration": 0.23076899999999956
        },
        {
          "name": "D#3",
          "midi": 51,
          "time": 5.5384559999999965,
          "velocity": 0.7874015748031497,
          "duration": 0.23076899999999956
        },
        {
          "name": "F3",
          "midi": 53,
          "time": 5.769224999999996,
          "velocity": 0.7874015748031497,
          "duration": 0.23076899999999956
        },
        {
          "name": "D3",
          "midi": 50,
          "time": 5.999993999999996,
          "velocity": 0.7874015748031497,
          "duration": 0.23076899999999956
        },
        {
          "name": "D3",
          "midi": 50,
          "time": 6.230762999999995,
          "velocity": 0.7874015748031497,
          "duration": 0.23076899999999956
        },
        {
          "name": "D3",
          "midi": 50,
          "time": 6.461531999999995,
          "velocity": 0.7874015748031497,
          "duration": 0.23076899999999956
        },
        {
          "name": "D3",
          "midi": 50,
          "time": 6.692300999999994,
          "velocity": 0.7874015748031497,
          "duration": 0.23076899999999956
        },
        {
          "name": "D3",
          "midi": 50,
          "time": 6.923069999999994,
          "velocity": 0.7874015748031497,
          "duration": 0.23076899999999956
        },
        {
          "name": "D3",
          "midi": 50,
          "time": 7.153838999999993,
          "velocity": 0.7874015748031497,
          "duration": 0.11538450000000022
        },
        {
          "name": "D3",
          "midi": 50,
          "time": 7.269223499999994,
          "velocity": 0.7874015748031497,
          "duration": 0.11538450000000022
        },
        {
          "name": "D#3",
          "midi": 51,
          "time": 7.384607999999994,
          "velocity": 0.7874015748031497,
          "duration": 0.23076899999999956
        },
        {
          "name": "D#3",
          "midi": 51,
          "time": 7.615376999999993,
          "velocity": 0.7874015748031497,
          "duration": 0.23076899999999956
        },
        {
          "name": "D#3",
          "midi": 51,
          "time": 7.846145999999993,
          "velocity": 0.7874015748031497,
          "duration": 0.23076899999999956
        },
        {
          "name": "D#3",
          "midi": 51,
          "time": 8.076914999999993,
          "velocity": 0.7874015748031497,
          "duration": 0.23076900000000045
        },
        {
          "name": "F#3",
          "midi": 54,
          "time": 8.307683999999993,
          "velocity": 0.7874015748031497,
          "duration": 0.23076900000000045
        },
        {
          "name": "D#3",
          "midi": 51,
          "time": 8.538452999999993,
          "velocity": 0.7874015748031497,
          "duration": 0.23076900000000045
        },
        {
          "name": "F#3",
          "midi": 54,
          "time": 8.769221999999994,
          "velocity": 0.7874015748031497,
          "duration": 0.23076900000000045
        },
        {
          "name": "F3",
          "midi": 53,
          "time": 8.999990999999994,
          "velocity": 0.7874015748031497,
          "duration": 0.23076900000000045
        },
        {
          "name": "D#3",
          "midi": 51,
          "time": 9.230759999999995,
          "velocity": 0.7874015748031497,
          "duration": 0.23076900000000045
        },
        {
          "name": "F3",
          "midi": 53,
          "time": 9.461528999999995,
          "velocity": 0.7874015748031497,
          "duration": 0.23076900000000045
        },
        {
          "name": "D3",
          "midi": 50,
          "time": 9.692297999999996,
          "velocity": 0.7874015748031497,
          "duration": 0.23076900000000045
        },
        {
          "name": "D3",
          "midi": 50,
          "time": 9.923066999999996,
          "velocity": 0.7874015748031497,
          "duration": 0.23076900000000045
        },
        {
          "name": "D3",
          "midi": 50,
          "time": 10.153835999999997,
          "velocity": 0.7874015748031497,
          "duration": 0.23076900000000045
        },
        {
          "name": "D3",
          "midi": 50,
          "time": 10.384604999999997,
          "velocity": 0.7874015748031497,
          "duration": 0.23076900000000045
        },
        {
          "name": "D3",
          "midi": 50,
          "time": 10.615373999999997,
          "velocity": 0.7874015748031497,
          "duration": 0.23076900000000045
        },
        {
          "name": "D3",
          "midi": 50,
          "time": 10.846142999999998,
          "velocity": 0.7874015748031497,
          "duration": 0.11538449999999933
        },
        {
          "name": "D3",
          "midi": 50,
          "time": 10.961527499999997,
          "velocity": 0.7874015748031497,
          "duration": 0.11538449999999933
        },
        {
          "name": "D#3",
          "midi": 51,
          "time": 11.076911999999997,
          "velocity": 0.7874015748031497,
          "duration": 0.23076900000000045
        },
        {
          "name": "D#3",
          "midi": 51,
          "time": 11.307680999999997,
          "velocity": 0.7874015748031497,
          "duration": 0.23076900000000045
        },
        {
          "name": "D#3",
          "midi": 51,
          "time": 11.538449999999997,
          "velocity": 0.7874015748031497,
          "duration": 0.23076900000000045
        },
        {
          "name": "D#3",
          "midi": 51,
          "time": 11.769218999999998,
          "velocity": 0.7874015748031497,
          "duration": 0.23076900000000045
        },
        {
          "name": "F#3",
          "midi": 54,
          "time": 11.999987999999998,
          "velocity": 0.7874015748031497,
          "duration": 0.23076900000000045
        },
        {
          "name": "D#3",
          "midi": 51,
          "time": 12.230756999999999,
          "velocity": 0.7874015748031497,
          "duration": 0.23076900000000045
        },
        {
          "name": "F#3",
          "midi": 54,
          "time": 12.461526,
          "velocity": 0.7874015748031497,
          "duration": 0.23076900000000045
        },
        {
          "name": "F3",
          "midi": 53,
          "time": 12.692295,
          "velocity": 0.7874015748031497,
          "duration": 0.23076900000000045
        },
        {
          "name": "D#3",
          "midi": 51,
          "time": 12.923064,
          "velocity": 0.7874015748031497,
          "duration": 0.23076900000000045
        },
        {
          "name": "F3",
          "midi": 53,
          "time": 13.153833,
          "velocity": 0.7874015748031497,
          "duration": 0.23076900000000045
        },
        {
          "name": "D3",
          "midi": 50,
          "time": 13.384602000000001,
          "velocity": 0.7874015748031497,
          "duration": 0.23076900000000045
        },
        {
          "name": "D3",
          "midi": 50,
          "time": 13.615371000000001,
          "velocity": 0.7874015748031497,
          "duration": 0.23076900000000045
        },
        {
          "name": "D3",
          "midi": 50,
          "time": 13.846140000000002,
          "velocity": 0.7874015748031497,
          "duration": 0.23076900000000045
        },
        {
          "name": "D3",
          "midi": 50,
          "time": 14.076909000000002,
          "velocity": 0.7874015748031497,
          "duration": 0.23076900000000045
        },
        {
          "name": "D3",
          "midi": 50,
          "time": 14.307678000000003,
          "velocity": 0.7874015748031497,
          "duration": 0.23076900000000045
        },
        {
          "name": "D3",
          "midi": 50,
          "time": 14.538447000000003,
          "velocity": 0.7874015748031497,
          "duration": 0.11538449999999933
        },
        {
          "name": "D3",
          "midi": 50,
          "time": 14.653831500000003,
          "velocity": 0.7874015748031497,
          "duration": 0.11538449999999933
        },
        {
          "name": "D#3",
          "midi": 51,
          "time": 14.769216000000002,
          "velocity": 0.7874015748031497,
          "duration": 0.23076900000000045
        },
        {
          "name": "D#3",
          "midi": 51,
          "time": 14.999985000000002,
          "velocity": 0.7874015748031497,
          "duration": 0.23076900000000045
        },
        {
          "name": "D#3",
          "midi": 51,
          "time": 15.230754000000003,
          "velocity": 0.7874015748031497,
          "duration": 0.23076900000000045
        },
        {
          "name": "D#3",
          "midi": 51,
          "time": 15.461523000000003,
          "velocity": 0.7874015748031497,
          "duration": 0.23076900000000045
        },
        {
          "name": "F#3",
          "midi": 54,
          "time": 15.692292000000004,
          "velocity": 0.7874015748031497,
          "duration": 0.23076900000000045
        },
        {
          "name": "D#3",
          "midi": 51,
          "time": 15.923061000000004,
          "velocity": 0.7874015748031497,
          "duration": 0.23076899999999867
        },
        {
          "name": "F#3",
          "midi": 54,
          "time": 16.153830000000003,
          "velocity": 0.7874015748031497,
          "duration": 0.23076899999999867
        },
        {
          "name": "F3",
          "midi": 53,
          "time": 16.384599,
          "velocity": 0.7874015748031497,
          "duration": 0.23076899999999867
        },
        {
          "name": "D#3",
          "midi": 51,
          "time": 16.615368,
          "velocity": 0.7874015748031497,
          "duration": 0.23076899999999867
        },
        {
          "name": "F3",
          "midi": 53,
          "time": 16.846137,
          "velocity": 0.7874015748031497,
          "duration": 0.23076899999999867
        },
        {
          "name": "D3",
          "midi": 50,
          "time": 17.076905999999997,
          "velocity": 0.7874015748031497,
          "duration": 0.23076899999999867
        },
        {
          "name": "D3",
          "midi": 50,
          "time": 17.307674999999996,
          "velocity": 0.7874015748031497,
          "duration": 0.23076899999999867
        },
        {
          "name": "D3",
          "midi": 50,
          "time": 17.538443999999995,
          "velocity": 0.7874015748031497,
          "duration": 0.23076899999999867
        },
        {
          "name": "D3",
          "midi": 50,
          "time": 17.769212999999993,
          "velocity": 0.7874015748031497,
          "duration": 0.23076899999999867
        },
        {
          "name": "D3",
          "midi": 50,
          "time": 17.999981999999992,
          "velocity": 0.7874015748031497,
          "duration": 0.23076899999999867
        },
        {
          "name": "D3",
          "midi": 50,
          "time": 18.23075099999999,
          "velocity": 0.7874015748031497,
          "duration": 0.11538450000000111
        },
        {
          "name": "D3",
          "midi": 50,
          "time": 18.346135499999992,
          "velocity": 0.7874015748031497,
          "duration": 0.11538450000000111
        },
        {
          "name": "D#3",
          "midi": 51,
          "time": 18.461519999999993,
          "velocity": 0.7874015748031497,
          "duration": 0.23076899999999867
        },
        {
          "name": "D#3",
          "midi": 51,
          "time": 18.69228899999999,
          "velocity": 0.7874015748031497,
          "duration": 0.23076899999999867
        },
        {
          "name": "D#3",
          "midi": 51,
          "time": 18.92305799999999,
          "velocity": 0.7874015748031497,
          "duration": 0.23076899999999867
        },
        {
          "name": "D#3",
          "midi": 51,
          "time": 19.15382699999999,
          "velocity": 0.7874015748031497,
          "duration": 0.23076899999999867
        },
        {
          "name": "F#3",
          "midi": 54,
          "time": 19.384595999999988,
          "velocity": 0.7874015748031497,
          "duration": 0.23076899999999867
        },
        {
          "name": "D#3",
          "midi": 51,
          "time": 19.615364999999986,
          "velocity": 0.7874015748031497,
          "duration": 0.23076899999999867
        },
        {
          "name": "F#3",
          "midi": 54,
          "time": 19.846133999999985,
          "velocity": 0.7874015748031497,
          "duration": 0.23076899999999867
        },
        {
          "name": "F3",
          "midi": 53,
          "time": 20.076902999999984,
          "velocity": 0.7874015748031497,
          "duration": 0.23076899999999867
        },
        {
          "name": "D#3",
          "midi": 51,
          "time": 20.307671999999982,
          "velocity": 0.7874015748031497,
          "duration": 0.23076899999999867
        },
        {
          "name": "F3",
          "midi": 53,
          "time": 20.53844099999998,
          "velocity": 0.7874015748031497,
          "duration": 0.23076899999999867
        },
        {
          "name": "D3",
          "midi": 50,
          "time": 20.76920999999998,
          "velocity": 0.7874015748031497,
          "duration": 0.23076899999999867
        },
        {
          "name": "D3",
          "midi": 50,
          "time": 20.99997899999998,
          "velocity": 0.7874015748031497,
          "duration": 0.23076899999999867
        },
        {
          "name": "D3",
          "midi": 50,
          "time": 21.230747999999977,
          "velocity": 0.7874015748031497,
          "duration": 0.23076899999999867
        },
        {
          "name": "D3",
          "midi": 50,
          "time": 21.461516999999976,
          "velocity": 0.7874015748031497,
          "duration": 0.23076899999999867
        },
        {
          "name": "D3",
          "midi": 50,
          "time": 21.692285999999974,
          "velocity": 0.7874015748031497,
          "duration": 0.23076899999999867
        },
        {
          "name": "D3",
          "midi": 50,
          "time": 21.923054999999973,
          "velocity": 0.7874015748031497,
          "duration": 0.11538450000000111
        },
        {
          "name": "D3",
          "midi": 50,
          "time": 22.038439499999974,
          "velocity": 0.7874015748031497,
          "duration": 0.11538450000000111
        },
        {
          "name": "D#3",
          "midi": 51,
          "time": 22.153823999999975,
          "velocity": 0.7874015748031497,
          "duration": 0.23076899999999867
        },
        {
          "name": "D#3",
          "midi": 51,
          "time": 22.384592999999974,
          "velocity": 0.7874015748031497,
          "duration": 0.23076899999999867
        },
        {
          "name": "D#3",
          "midi": 51,
          "time": 22.615361999999973,
          "velocity": 0.7874015748031497,
          "duration": 0.23076899999999867
        },
        {
          "name": "D#3",
          "midi": 51,
          "time": 22.84613099999997,
          "velocity": 0.7874015748031497,
          "duration": 0.23076899999999867
        },
        {
          "name": "F#3",
          "midi": 54,
          "time": 23.07689999999997,
          "velocity": 0.7874015748031497,
          "duration": 0.23076899999999867
        },
        {
          "name": "D#3",
          "midi": 51,
          "time": 23.30766899999997,
          "velocity": 0.7874015748031497,
          "duration": 0.23076899999999867
        },
        {
          "name": "F#3",
          "midi": 54,
          "time": 23.538437999999967,
          "velocity": 0.7874015748031497,
          "duration": 0.23076899999999867
        },
        {
          "name": "F3",
          "midi": 53,
          "time": 23.769206999999966,
          "velocity": 0.7874015748031497,
          "duration": 0.23076899999999867
        },
        {
          "name": "D#3",
          "midi": 51,
          "time": 23.999975999999965,
          "velocity": 0.7874015748031497,
          "duration": 0.23076899999999867
        },
        {
          "name": "F3",
          "midi": 53,
          "time": 24.230744999999963,
          "velocity": 0.7874015748031497,
          "duration": 0.23076899999999867
        },
        {
          "name": "D3",
          "midi": 50,
          "time": 24.461513999999962,
          "velocity": 0.7874015748031497,
          "duration": 0.23076899999999867
        },
        {
          "name": "D3",
          "midi": 50,
          "time": 24.69228299999996,
          "velocity": 0.7874015748031497,
          "duration": 0.23076899999999867
        },
        {
          "name": "D3",
          "midi": 50,
          "time": 24.92305199999996,
          "velocity": 0.7874015748031497,
          "duration": 0.23076899999999867
        },
        {
          "name": "D3",
          "midi": 50,
          "time": 25.153820999999958,
          "velocity": 0.7874015748031497,
          "duration": 0.23076899999999867
        },
        {
          "name": "D3",
          "midi": 50,
          "time": 25.384589999999957,
          "velocity": 0.7874015748031497,
          "duration": 0.23076899999999867
        },
        {
          "name": "D3",
          "midi": 50,
          "time": 25.615358999999955,
          "velocity": 0.7874015748031497,
          "duration": 0.11538450000000111
        },
        {
          "name": "D3",
          "midi": 50,
          "time": 25.730743499999956,
          "velocity": 0.7874015748031497,
          "duration": 0.11538450000000111
        },
        {
          "name": "D#3",
          "midi": 51,
          "time": 25.846127999999958,
          "velocity": 0.7874015748031497,
          "duration": 0.23076899999999867
        },
        {
          "name": "D#3",
          "midi": 51,
          "time": 26.076896999999956,
          "velocity": 0.7874015748031497,
          "duration": 0.23076899999999867
        },
        {
          "name": "D#3",
          "midi": 51,
          "time": 26.307665999999955,
          "velocity": 0.7874015748031497,
          "duration": 0.23076899999999867
        },
        {
          "name": "D#3",
          "midi": 51,
          "time": 26.538434999999954,
          "velocity": 0.7874015748031497,
          "duration": 0.23076899999999867
        },
        {
          "name": "F#3",
          "midi": 54,
          "time": 26.769203999999952,
          "velocity": 0.7874015748031497,
          "duration": 0.23076899999999867
        },
        {
          "name": "D#3",
          "midi": 51,
          "time": 26.99997299999995,
          "velocity": 0.7874015748031497,
          "duration": 0.23076899999999867
        },
        {
          "name": "F#3",
          "midi": 54,
          "time": 27.23074199999995,
          "velocity": 0.7874015748031497,
          "duration": 0.23076899999999867
        },
        {
          "name": "F3",
          "midi": 53,
          "time": 27.46151099999995,
          "velocity": 0.7874015748031497,
          "duration": 0.23076899999999867
        },
        {
          "name": "D#3",
          "midi": 51,
          "time": 27.692279999999947,
          "velocity": 0.7874015748031497,
          "duration": 0.23076899999999867
        },
        {
          "name": "F3",
          "midi": 53,
          "time": 27.923048999999946,
          "velocity": 0.7874015748031497,
          "duration": 0.23076899999999867
        },
        {
          "name": "D3",
          "midi": 50,
          "time": 28.153817999999944,
          "velocity": 0.7874015748031497,
          "duration": 0.23076899999999867
        },
        {
          "name": "D3",
          "midi": 50,
          "time": 28.384586999999943,
          "velocity": 0.7874015748031497,
          "duration": 0.23076899999999867
        },
        {
          "name": "D3",
          "midi": 50,
          "time": 28.61535599999994,
          "velocity": 0.7874015748031497,
          "duration": 0.23076899999999867
        },
        {
          "name": "D3",
          "midi": 50,
          "time": 28.84612499999994,
          "velocity": 0.7874015748031497,
          "duration": 0.23076899999999867
        },
        {
          "name": "D3",
          "midi": 50,
          "time": 29.07689399999994,
          "velocity": 0.7874015748031497,
          "duration": 0.23076899999999867
        },
        {
          "name": "D3",
          "midi": 50,
          "time": 29.307662999999938,
          "velocity": 0.7874015748031497,
          "duration": 0.11538450000000111
        },
        {
          "name": "D3",
          "midi": 50,
          "time": 29.42304749999994,
          "velocity": 0.7874015748031497,
          "duration": 0.11538450000000111
        },
        {
          "name": "D#3",
          "midi": 51,
          "time": 29.53843199999994,
          "velocity": 0.7874015748031497,
          "duration": 0.23076899999999867
        },
        {
          "name": "D#3",
          "midi": 51,
          "time": 29.76920099999994,
          "velocity": 0.7874015748031497,
          "duration": 0.23076899999999867
        },
        {
          "name": "D#3",
          "midi": 51,
          "time": 29.999969999999937,
          "velocity": 0.7874015748031497,
          "duration": 0.23076899999999867
        },
        {
          "name": "D#3",
          "midi": 51,
          "time": 30.230738999999936,
          "velocity": 0.7874015748031497,
          "duration": 0.23076899999999867
        },
        {
          "name": "F#3",
          "midi": 54,
          "time": 30.461507999999935,
          "velocity": 0.7874015748031497,
          "duration": 0.23076899999999867
        },
        {
          "name": "D#3",
          "midi": 51,
          "time": 30.692276999999933,
          "velocity": 0.7874015748031497,
          "duration": 0.23076899999999867
        },
        {
          "name": "F#3",
          "midi": 54,
          "time": 30.923045999999932,
          "velocity": 0.7874015748031497,
          "duration": 0.23076899999999867
        },
        {
          "name": "F3",
          "midi": 53,
          "time": 31.15381499999993,
          "velocity": 0.7874015748031497,
          "duration": 0.23076899999999867
        },
        {
          "name": "D#3",
          "midi": 51,
          "time": 31.38458399999993,
          "velocity": 0.7874015748031497,
          "duration": 0.23076899999999867
        },
        {
          "name": "F3",
          "midi": 53,
          "time": 31.615352999999928,
          "velocity": 0.7874015748031497,
          "duration": 0.23076899999999867
        },
        {
          "name": "D3",
          "midi": 50,
          "time": 31.846121999999927,
          "velocity": 0.7874015748031497,
          "duration": 0.23076899999999867
        },
        {
          "name": "D3",
          "midi": 50,
          "time": 32.076890999999925,
          "velocity": 0.7874015748031497,
          "duration": 0.23076900000000222
        },
        {
          "name": "D3",
          "midi": 50,
          "time": 32.30765999999993,
          "velocity": 0.7874015748031497,
          "duration": 0.23076900000000222
        },
        {
          "name": "D3",
          "midi": 50,
          "time": 32.53842899999993,
          "velocity": 0.7874015748031497,
          "duration": 0.23076900000000222
        },
        {
          "name": "D3",
          "midi": 50,
          "time": 32.76919799999993,
          "velocity": 0.7874015748031497,
          "duration": 0.23076900000000222
        },
        {
          "name": "D3",
          "midi": 50,
          "time": 32.999966999999934,
          "velocity": 0.7874015748031497,
          "duration": 0.11538449999999756
        },
        {
          "name": "D3",
          "midi": 50,
          "time": 33.11535149999993,
          "velocity": 0.7874015748031497,
          "duration": 0.11538449999999756
        },
        {
          "name": "D#3",
          "midi": 51,
          "time": 33.23073599999993,
          "velocity": 0.7874015748031497,
          "duration": 0.23076900000000222
        },
        {
          "name": "D#3",
          "midi": 51,
          "time": 33.46150499999993,
          "velocity": 0.7874015748031497,
          "duration": 0.23076900000000222
        },
        {
          "name": "D#3",
          "midi": 51,
          "time": 33.692273999999934,
          "velocity": 0.7874015748031497,
          "duration": 0.23076900000000222
        },
        {
          "name": "D#3",
          "midi": 51,
          "time": 33.923042999999936,
          "velocity": 0.7874015748031497,
          "duration": 0.23076900000000222
        },
        {
          "name": "F#3",
          "midi": 54,
          "time": 34.15381199999994,
          "velocity": 0.7874015748031497,
          "duration": 0.23076900000000222
        },
        {
          "name": "D#3",
          "midi": 51,
          "time": 34.38458099999994,
          "velocity": 0.7874015748031497,
          "duration": 0.23076900000000222
        },
        {
          "name": "F#3",
          "midi": 54,
          "time": 34.61534999999994,
          "velocity": 0.7874015748031497,
          "duration": 0.23076900000000222
        },
        {
          "name": "F3",
          "midi": 53,
          "time": 34.846118999999945,
          "velocity": 0.7874015748031497,
          "duration": 0.23076900000000222
        },
        {
          "name": "D#3",
          "midi": 51,
          "time": 35.07688799999995,
          "velocity": 0.7874015748031497,
          "duration": 0.23076900000000222
        },
        {
          "name": "F3",
          "midi": 53,
          "time": 35.30765699999995,
          "velocity": 0.7874015748031497,
          "duration": 0.23076900000000222
        },
        {
          "name": "D3",
          "midi": 50,
          "time": 35.53842599999995,
          "velocity": 0.7874015748031497,
          "duration": 0.23076900000000222
        },
        {
          "name": "D3",
          "midi": 50,
          "time": 35.769194999999954,
          "velocity": 0.7874015748031497,
          "duration": 0.23076900000000222
        },
        {
          "name": "D3",
          "midi": 50,
          "time": 35.999963999999956,
          "velocity": 0.7874015748031497,
          "duration": 0.23076900000000222
        },
        {
          "name": "D3",
          "midi": 50,
          "time": 36.23073299999996,
          "velocity": 0.7874015748031497,
          "duration": 0.23076900000000222
        },
        {
          "name": "D3",
          "midi": 50,
          "time": 36.46150199999996,
          "velocity": 0.7874015748031497,
          "duration": 0.23076900000000222
        },
        {
          "name": "D3",
          "midi": 50,
          "time": 36.69227099999996,
          "velocity": 0.7874015748031497,
          "duration": 0.11538449999999756
        },
        {
          "name": "D3",
          "midi": 50,
          "time": 36.80765549999996,
          "velocity": 0.7874015748031497,
          "duration": 0.11538449999999756
        },
        {
          "name": "D#3",
          "midi": 51,
          "time": 36.92303999999996,
          "velocity": 0.7874015748031497,
          "duration": 0.23076900000000222
        },
        {
          "name": "D#3",
          "midi": 51,
          "time": 37.15380899999996,
          "velocity": 0.7874015748031497,
          "duration": 0.23076900000000222
        },
        {
          "name": "D#3",
          "midi": 51,
          "time": 37.38457799999996,
          "velocity": 0.7874015748031497,
          "duration": 0.23076900000000222
        },
        {
          "name": "D#3",
          "midi": 51,
          "time": 37.615346999999964,
          "velocity": 0.7874015748031497,
          "duration": 0.23076900000000222
        },
        {
          "name": "F#3",
          "midi": 54,
          "time": 37.84611599999997,
          "velocity": 0.7874015748031497,
          "duration": 0.23076900000000222
        },
        {
          "name": "D#3",
          "midi": 51,
          "time": 38.07688499999997,
          "velocity": 0.7874015748031497,
          "duration": 0.23076900000000222
        },
        {
          "name": "F#3",
          "midi": 54,
          "time": 38.30765399999997,
          "velocity": 0.7874015748031497,
          "duration": 0.23076900000000222
        },
        {
          "name": "F3",
          "midi": 53,
          "time": 38.53842299999997,
          "velocity": 0.7874015748031497,
          "duration": 0.23076900000000222
        },
        {
          "name": "D#3",
          "midi": 51,
          "time": 38.769191999999975,
          "velocity": 0.7874015748031497,
          "duration": 0.23076900000000222
        },
        {
          "name": "F3",
          "midi": 53,
          "time": 38.99996099999998,
          "velocity": 0.7874015748031497,
          "duration": 0.23076900000000222
        },
        {
          "name": "D3",
          "midi": 50,
          "time": 39.23072999999998,
          "velocity": 0.7874015748031497,
          "duration": 0.23076900000000222
        },
        {
          "name": "D3",
          "midi": 50,
          "time": 39.46149899999998,
          "velocity": 0.7874015748031497,
          "duration": 0.23076900000000222
        },
        {
          "name": "D3",
          "midi": 50,
          "time": 39.692267999999984,
          "velocity": 0.7874015748031497,
          "duration": 0.23076900000000222
        },
        {
          "name": "D3",
          "midi": 50,
          "time": 39.92303699999999,
          "velocity": 0.7874015748031497,
          "duration": 0.23076900000000222
        },
        {
          "name": "D3",
          "midi": 50,
          "time": 40.15380599999999,
          "velocity": 0.7874015748031497,
          "duration": 0.23076900000000222
        },
        {
          "name": "D3",
          "midi": 50,
          "time": 40.38457499999999,
          "velocity": 0.7874015748031497,
          "duration": 0.11538449999999756
        },
        {
          "name": "D3",
          "midi": 50,
          "time": 40.49995949999999,
          "velocity": 0.7874015748031497,
          "duration": 0.11538449999999756
        },
        {
          "name": "D#3",
          "midi": 51,
          "time": 40.615343999999986,
          "velocity": 0.7874015748031497,
          "duration": 0.23076900000000222
        },
        {
          "name": "D#3",
          "midi": 51,
          "time": 40.84611299999999,
          "velocity": 0.7874015748031497,
          "duration": 0.23076900000000222
        },
        {
          "name": "D#3",
          "midi": 51,
          "time": 41.07688199999999,
          "velocity": 0.7874015748031497,
          "duration": 0.23076900000000222
        },
        {
          "name": "D#3",
          "midi": 51,
          "time": 41.30765099999999,
          "velocity": 0.7874015748031497,
          "duration": 0.23076900000000222
        },
        {
          "name": "F#3",
          "midi": 54,
          "time": 41.538419999999995,
          "velocity": 0.7874015748031497,
          "duration": 0.23076900000000222
        },
        {
          "name": "D#3",
          "midi": 51,
          "time": 41.769189,
          "velocity": 0.7874015748031497,
          "duration": 0.23076900000000222
        },
        {
          "name": "F#3",
          "midi": 54,
          "time": 41.999958,
          "velocity": 0.7874015748031497,
          "duration": 0.23076900000000222
        },
        {
          "name": "F3",
          "midi": 53,
          "time": 42.230727,
          "velocity": 0.7874015748031497,
          "duration": 0.23076900000000222
        },
        {
          "name": "D#3",
          "midi": 51,
          "time": 42.461496000000004,
          "velocity": 0.7874015748031497,
          "duration": 0.23076900000000222
        },
        {
          "name": "F3",
          "midi": 53,
          "time": 42.692265000000006,
          "velocity": 0.7874015748031497,
          "duration": 0.23076900000000222
        },
        {
          "name": "D3",
          "midi": 50,
          "time": 42.92303400000001,
          "velocity": 0.7874015748031497,
          "duration": 0.23076900000000222
        },
        {
          "name": "D3",
          "midi": 50,
          "time": 43.15380300000001,
          "velocity": 0.7874015748031497,
          "duration": 0.23076900000000222
        },
        {
          "name": "D3",
          "midi": 50,
          "time": 43.38457200000001,
          "velocity": 0.7874015748031497,
          "duration": 0.23076900000000222
        },
        {
          "name": "D3",
          "midi": 50,
          "time": 43.615341000000015,
          "velocity": 0.7874015748031497,
          "duration": 0.23076900000000222
        },
        {
          "name": "D3",
          "midi": 50,
          "time": 43.84611000000002,
          "velocity": 0.7874015748031497,
          "duration": 0.23076900000000222
        },
        {
          "name": "D3",
          "midi": 50,
          "time": 44.07687900000002,
          "velocity": 0.7874015748031497,
          "duration": 0.11538449999999756
        },
        {
          "name": "D3",
          "midi": 50,
          "time": 44.19226350000002,
          "velocity": 0.7874015748031497,
          "duration": 0.11538449999999756
        },
        {
          "name": "D#3",
          "midi": 51,
          "time": 44.307648000000015,
          "velocity": 0.7874015748031497,
          "duration": 0.23076900000000222
        },
        {
          "name": "D#3",
          "midi": 51,
          "time": 44.53841700000002,
          "velocity": 0.7874015748031497,
          "duration": 0.23076900000000222
        },
        {
          "name": "D#3",
          "midi": 51,
          "time": 44.76918600000002,
          "velocity": 0.7874015748031497,
          "duration": 0.23076900000000222
        },
        {
          "name": "D#3",
          "midi": 51,
          "time": 44.99995500000002,
          "velocity": 0.7874015748031497,
          "duration": 0.23076900000000222
        },
        {
          "name": "F#3",
          "midi": 54,
          "time": 45.23072400000002,
          "velocity": 0.7874015748031497,
          "duration": 0.23076900000000222
        },
        {
          "name": "D#3",
          "midi": 51,
          "time": 45.461493000000026,
          "velocity": 0.7874015748031497,
          "duration": 0.23076900000000222
        },
        {
          "name": "F#3",
          "midi": 54,
          "time": 45.69226200000003,
          "velocity": 0.7874015748031497,
          "duration": 0.23076900000000222
        },
        {
          "name": "F3",
          "midi": 53,
          "time": 45.92303100000003,
          "velocity": 0.7874015748031497,
          "duration": 0.23076900000000222
        },
        {
          "name": "D#3",
          "midi": 51,
          "time": 46.15380000000003,
          "velocity": 0.7874015748031497,
          "duration": 0.23076900000000222
        },
        {
          "name": "F3",
          "midi": 53,
          "time": 46.384569000000035,
          "velocity": 0.7874015748031497,
          "duration": 0.23076900000000222
        },
        {
          "name": "D3",
          "midi": 50,
          "time": 46.61533800000004,
          "velocity": 0.7874015748031497,
          "duration": 0.23076900000000222
        },
        {
          "name": "D3",
          "midi": 50,
          "time": 46.84610700000004,
          "velocity": 0.7874015748031497,
          "duration": 0.23076900000000222
        },
        {
          "name": "D3",
          "midi": 50,
          "time": 47.07687600000004,
          "velocity": 0.7874015748031497,
          "duration": 0.23076900000000222
        },
        {
          "name": "D3",
          "midi": 50,
          "time": 47.30764500000004,
          "velocity": 0.7874015748031497,
          "duration": 0.23076900000000222
        },
        {
          "name": "D3",
          "midi": 50,
          "time": 47.538414000000046,
          "velocity": 0.7874015748031497,
          "duration": 0.23076900000000222
        },
        {
          "name": "D3",
          "midi": 50,
          "time": 47.76918300000005,
          "velocity": 0.7874015748031497,
          "duration": 0.11538449999999756
        },
        {
          "name": "D3",
          "midi": 50,
          "time": 47.884567500000045,
          "velocity": 0.7874015748031497,
          "duration": 0.11538449999999756
        },
        {
          "name": "D#3",
          "midi": 51,
          "time": 47.99995200000004,
          "velocity": 0.7874015748031497,
          "duration": 0.23076900000000222
        },
        {
          "name": "D#3",
          "midi": 51,
          "time": 48.230721000000045,
          "velocity": 0.7874015748031497,
          "duration": 0.23076900000000222
        },
        {
          "name": "D#3",
          "midi": 51,
          "time": 48.46149000000005,
          "velocity": 0.7874015748031497,
          "duration": 0.23076900000000222
        },
        {
          "name": "D#3",
          "midi": 51,
          "time": 48.69225900000005,
          "velocity": 0.7874015748031497,
          "duration": 0.23076900000000222
        },
        {
          "name": "F#3",
          "midi": 54,
          "time": 48.92302800000005,
          "velocity": 0.7874015748031497,
          "duration": 0.23076900000000222
        },
        {
          "name": "D#3",
          "midi": 51,
          "time": 49.153797000000054,
          "velocity": 0.7874015748031497,
          "duration": 0.23076900000000222
        },
        {
          "name": "F#3",
          "midi": 54,
          "time": 49.384566000000056,
          "velocity": 0.7874015748031497,
          "duration": 0.23076900000000222
        },
        {
          "name": "F3",
          "midi": 53,
          "time": 49.61533500000006,
          "velocity": 0.7874015748031497,
          "duration": 0.23076900000000222
        },
        {
          "name": "D#3",
          "midi": 51,
          "time": 49.84610400000006,
          "velocity": 0.7874015748031497,
          "duration": 0.23076900000000222
        },
        {
          "name": "F3",
          "midi": 53,
          "time": 50.07687300000006,
          "velocity": 0.7874015748031497,
          "duration": 0.23076900000000222
        },
        {
          "name": "D3",
          "midi": 50,
          "time": 50.307642000000065,
          "velocity": 0.7874015748031497,
          "duration": 0.23076900000000222
        },
        {
          "name": "D3",
          "midi": 50,
          "time": 50.53841100000007,
          "velocity": 0.7874015748031497,
          "duration": 0.23076900000000222
        },
        {
          "name": "D3",
          "midi": 50,
          "time": 50.76918000000007,
          "velocity": 0.7874015748031497,
          "duration": 0.23076900000000222
        },
        {
          "name": "D3",
          "midi": 50,
          "time": 50.99994900000007,
          "velocity": 0.7874015748031497,
          "duration": 0.23076900000000222
        },
        {
          "name": "D3",
          "midi": 50,
          "time": 51.230718000000074,
          "velocity": 0.7874015748031497,
          "duration": 0.23076900000000222
        },
        {
          "name": "D3",
          "midi": 50,
          "time": 51.461487000000076,
          "velocity": 0.7874015748031497,
          "duration": 0.11538449999999756
        },
        {
          "name": "D3",
          "midi": 50,
          "time": 51.576871500000074,
          "velocity": 0.7874015748031497,
          "duration": 0.11538449999999756
        },
        {
          "name": "D#3",
          "midi": 51,
          "time": 51.69225600000007,
          "velocity": 0.7874015748031497,
          "duration": 0.23076900000000222
        },
        {
          "name": "D#3",
          "midi": 51,
          "time": 51.923025000000074,
          "velocity": 0.7874015748031497,
          "duration": 0.23076900000000222
        },
        {
          "name": "D#3",
          "midi": 51,
          "time": 52.153794000000076,
          "velocity": 0.7874015748031497,
          "duration": 0.23076900000000222
        },
        {
          "name": "D#3",
          "midi": 51,
          "time": 52.38456300000008,
          "velocity": 0.7874015748031497,
          "duration": 0.23076900000000222
        },
        {
          "name": "F#3",
          "midi": 54,
          "time": 52.61533200000008,
          "velocity": 0.7874015748031497,
          "duration": 0.23076900000000222
        },
        {
          "name": "D#3",
          "midi": 51,
          "time": 52.84610100000008,
          "velocity": 0.7874015748031497,
          "duration": 0.23076900000000222
        },
        {
          "name": "F#3",
          "midi": 54,
          "time": 53.076870000000085,
          "velocity": 0.7874015748031497,
          "duration": 0.23076900000000222
        },
        {
          "name": "F3",
          "midi": 53,
          "time": 53.30763900000009,
          "velocity": 0.7874015748031497,
          "duration": 0.23076900000000222
        },
        {
          "name": "D#3",
          "midi": 51,
          "time": 53.53840800000009,
          "velocity": 0.7874015748031497,
          "duration": 0.23076900000000222
        },
        {
          "name": "F3",
          "midi": 53,
          "time": 53.76917700000009,
          "velocity": 0.7874015748031497,
          "duration": 0.23076900000000222
        },
        {
          "name": "D3",
          "midi": 50,
          "time": 53.999946000000094,
          "velocity": 0.7874015748031497,
          "duration": 0.23076900000000222
        },
        {
          "name": "D3",
          "midi": 50,
          "time": 54.230715000000096,
          "velocity": 0.7874015748031497,
          "duration": 0.23076900000000222
        },
        {
          "name": "D3",
          "midi": 50,
          "time": 54.4614840000001,
          "velocity": 0.7874015748031497,
          "duration": 0.23076900000000222
        },
        {
          "name": "D3",
          "midi": 50,
          "time": 54.6922530000001,
          "velocity": 0.7874015748031497,
          "duration": 0.23076900000000222
        },
        {
          "name": "D3",
          "midi": 50,
          "time": 54.9230220000001,
          "velocity": 0.7874015748031497,
          "duration": 0.23076900000000222
        },
        {
          "name": "D3",
          "midi": 50,
          "time": 55.153791000000105,
          "velocity": 0.7874015748031497,
          "duration": 0.11538449999999756
        },
        {
          "name": "D3",
          "midi": 50,
          "time": 55.2691755000001,
          "velocity": 0.7874015748031497,
          "duration": 0.11538449999999756
        },
        {
          "name": "D#3",
          "midi": 51,
          "time": 55.3845600000001,
          "velocity": 0.7874015748031497,
          "duration": 0.23076900000000222
        },
        {
          "name": "D#3",
          "midi": 51,
          "time": 55.6153290000001,
          "velocity": 0.7874015748031497,
          "duration": 0.23076900000000222
        },
        {
          "name": "D#3",
          "midi": 51,
          "time": 55.846098000000104,
          "velocity": 0.7874015748031497,
          "duration": 0.23076900000000222
        },
        {
          "name": "D#3",
          "midi": 51,
          "time": 56.07686700000011,
          "velocity": 0.7874015748031497,
          "duration": 0.23076900000000222
        },
        {
          "name": "F#3",
          "midi": 54,
          "time": 56.30763600000011,
          "velocity": 0.7874015748031497,
          "duration": 0.23076900000000222
        },
        {
          "name": "D#3",
          "midi": 51,
          "time": 56.53840500000011,
          "velocity": 0.7874015748031497,
          "duration": 0.23076900000000222
        },
        {
          "name": "F#3",
          "midi": 54,
          "time": 56.76917400000011,
          "velocity": 0.7874015748031497,
          "duration": 0.23076900000000222
        },
        {
          "name": "F3",
          "midi": 53,
          "time": 56.999943000000115,
          "velocity": 0.7874015748031497,
          "duration": 0.23076900000000222
        },
        {
          "name": "D#3",
          "midi": 51,
          "time": 57.23071200000012,
          "velocity": 0.7874015748031497,
          "duration": 0.23076900000000222
        },
        {
          "name": "F3",
          "midi": 53,
          "time": 57.46148100000012,
          "velocity": 0.7874015748031497,
          "duration": 0.23076900000000222
        },
        {
          "name": "D3",
          "midi": 50,
          "time": 57.69225000000012,
          "velocity": 0.7874015748031497,
          "duration": 0.23076900000000222
        },
        {
          "name": "D3",
          "midi": 50,
          "time": 57.923019000000124,
          "velocity": 0.7874015748031497,
          "duration": 0.23076900000000222
        },
        {
          "name": "D3",
          "midi": 50,
          "time": 58.15378800000013,
          "velocity": 0.7874015748031497,
          "duration": 0.23076900000000222
        },
        {
          "name": "D3",
          "midi": 50,
          "time": 58.38455700000013,
          "velocity": 0.7874015748031497,
          "duration": 0.23076900000000222
        },
        {
          "name": "D3",
          "midi": 50,
          "time": 58.61532600000013,
          "velocity": 0.7874015748031497,
          "duration": 0.23076900000000222
        },
        {
          "name": "D3",
          "midi": 50,
          "time": 58.84609500000013,
          "velocity": 0.7874015748031497,
          "duration": 0.11538449999999756
        },
        {
          "name": "D3",
          "midi": 50,
          "time": 58.96147950000013,
          "velocity": 0.7874015748031497,
          "duration": 0.11538449999999756
        },
        {
          "name": "D#3",
          "midi": 51,
          "time": 151.38446400000012,
          "velocity": 0.7874015748031497,
          "duration": 0.23076900000000933
        },
        {
          "name": "D#3",
          "midi": 51,
          "time": 151.61523300000013,
          "velocity": 0.7874015748031497,
          "duration": 0.23076900000000933
        },
        {
          "name": "D#3",
          "midi": 51,
          "time": 151.84600200000014,
          "velocity": 0.7874015748031497,
          "duration": 0.23076900000000933
        },
        {
          "name": "D#3",
          "midi": 51,
          "time": 152.07677100000015,
          "velocity": 0.7874015748031497,
          "duration": 0.23076900000000933
        },
        {
          "name": "F#3",
          "midi": 54,
          "time": 152.30754000000016,
          "velocity": 0.7874015748031497,
          "duration": 0.23076900000000933
        },
        {
          "name": "D#3",
          "midi": 51,
          "time": 152.53830900000017,
          "velocity": 0.7874015748031497,
          "duration": 0.23076900000000933
        },
        {
          "name": "F#3",
          "midi": 54,
          "time": 152.76907800000018,
          "velocity": 0.7874015748031497,
          "duration": 0.23076900000000933
        },
        {
          "name": "F3",
          "midi": 53,
          "time": 152.9998470000002,
          "velocity": 0.7874015748031497,
          "duration": 0.23076900000000933
        },
        {
          "name": "D#3",
          "midi": 51,
          "time": 153.2306160000002,
          "velocity": 0.7874015748031497,
          "duration": 0.23076900000000933
        },
        {
          "name": "F3",
          "midi": 53,
          "time": 153.4613850000002,
          "velocity": 0.7874015748031497,
          "duration": 0.23076900000000933
        },
        {
          "name": "D3",
          "midi": 50,
          "time": 153.69215400000022,
          "velocity": 0.7874015748031497,
          "duration": 0.23076900000000933
        },
        {
          "name": "D3",
          "midi": 50,
          "time": 153.92292300000022,
          "velocity": 0.7874015748031497,
          "duration": 0.23076900000000933
        },
        {
          "name": "D3",
          "midi": 50,
          "time": 154.15369200000023,
          "velocity": 0.7874015748031497,
          "duration": 0.23076900000000933
        },
        {
          "name": "D3",
          "midi": 50,
          "time": 154.38446100000024,
          "velocity": 0.7874015748031497,
          "duration": 0.23076900000000933
        },
        {
          "name": "D3",
          "midi": 50,
          "time": 154.61523000000025,
          "velocity": 0.7874015748031497,
          "duration": 0.23076900000000933
        },
        {
          "name": "D3",
          "midi": 50,
          "time": 154.84599900000026,
          "velocity": 0.7874015748031497,
          "duration": 0.11538450000000466
        },
        {
          "name": "D3",
          "midi": 50,
          "time": 154.96138350000027,
          "velocity": 0.7874015748031497,
          "duration": 0.11538450000000466
        },
        {
          "name": "D#3",
          "midi": 51,
          "time": 155.07676800000027,
          "velocity": 0.7874015748031497,
          "duration": 0.23076900000000933
        },
        {
          "name": "D#3",
          "midi": 51,
          "time": 155.30753700000028,
          "velocity": 0.7874015748031497,
          "duration": 0.23076900000000933
        },
        {
          "name": "D#3",
          "midi": 51,
          "time": 155.5383060000003,
          "velocity": 0.7874015748031497,
          "duration": 0.23076900000000933
        },
        {
          "name": "D#3",
          "midi": 51,
          "time": 155.7690750000003,
          "velocity": 0.7874015748031497,
          "duration": 0.23076900000000933
        },
        {
          "name": "F#3",
          "midi": 54,
          "time": 155.9998440000003,
          "velocity": 0.7874015748031497,
          "duration": 0.23076900000000933
        },
        {
          "name": "D#3",
          "midi": 51,
          "time": 156.23061300000032,
          "velocity": 0.7874015748031497,
          "duration": 0.23076900000000933
        },
        {
          "name": "F#3",
          "midi": 54,
          "time": 156.46138200000033,
          "velocity": 0.7874015748031497,
          "duration": 0.23076900000000933
        },
        {
          "name": "F3",
          "midi": 53,
          "time": 156.69215100000034,
          "velocity": 0.7874015748031497,
          "duration": 0.23076900000000933
        },
        {
          "name": "D#3",
          "midi": 51,
          "time": 156.92292000000035,
          "velocity": 0.7874015748031497,
          "duration": 0.23076900000000933
        },
        {
          "name": "F3",
          "midi": 53,
          "time": 157.15368900000036,
          "velocity": 0.7874015748031497,
          "duration": 0.23076900000000933
        },
        {
          "name": "D3",
          "midi": 50,
          "time": 157.38445800000036,
          "velocity": 0.7874015748031497,
          "duration": 0.23076900000000933
        },
        {
          "name": "D3",
          "midi": 50,
          "time": 157.61522700000037,
          "velocity": 0.7874015748031497,
          "duration": 0.23076900000000933
        },
        {
          "name": "D3",
          "midi": 50,
          "time": 157.84599600000038,
          "velocity": 0.7874015748031497,
          "duration": 0.23076900000000933
        },
        {
          "name": "D3",
          "midi": 50,
          "time": 158.0767650000004,
          "velocity": 0.7874015748031497,
          "duration": 0.23076900000000933
        },
        {
          "name": "D3",
          "midi": 50,
          "time": 158.3075340000004,
          "velocity": 0.7874015748031497,
          "duration": 0.23076900000000933
        },
        {
          "name": "D3",
          "midi": 50,
          "time": 158.5383030000004,
          "velocity": 0.7874015748031497,
          "duration": 0.11538450000000466
        },
        {
          "name": "D3",
          "midi": 50,
          "time": 158.65368750000042,
          "velocity": 0.7874015748031497,
          "duration": 0.11538450000000466
        },
        {
          "name": "D#3",
          "midi": 51,
          "time": 158.76907200000042,
          "velocity": 0.7874015748031497,
          "duration": 0.23076900000000933
        },
        {
          "name": "D#3",
          "midi": 51,
          "time": 158.99984100000043,
          "velocity": 0.7874015748031497,
          "duration": 0.23076900000000933
        },
        {
          "name": "D#3",
          "midi": 51,
          "time": 159.23061000000044,
          "velocity": 0.7874015748031497,
          "duration": 0.23076900000000933
        },
        {
          "name": "D#3",
          "midi": 51,
          "time": 159.46137900000045,
          "velocity": 0.7874015748031497,
          "duration": 0.23076900000000933
        },
        {
          "name": "F#3",
          "midi": 54,
          "time": 159.69214800000046,
          "velocity": 0.7874015748031497,
          "duration": 0.23076900000000933
        },
        {
          "name": "D#3",
          "midi": 51,
          "time": 159.92291700000047,
          "velocity": 0.7874015748031497,
          "duration": 0.23076900000000933
        },
        {
          "name": "F#3",
          "midi": 54,
          "time": 160.15368600000048,
          "velocity": 0.7874015748031497,
          "duration": 0.23076900000000933
        },
        {
          "name": "F3",
          "midi": 53,
          "time": 160.3844550000005,
          "velocity": 0.7874015748031497,
          "duration": 0.23076900000000933
        },
        {
          "name": "D#3",
          "midi": 51,
          "time": 160.6152240000005,
          "velocity": 0.7874015748031497,
          "duration": 0.23076900000000933
        },
        {
          "name": "F3",
          "midi": 53,
          "time": 160.8459930000005,
          "velocity": 0.7874015748031497,
          "duration": 0.23076900000000933
        },
        {
          "name": "D3",
          "midi": 50,
          "time": 161.0767620000005,
          "velocity": 0.7874015748031497,
          "duration": 0.23076900000000933
        },
        {
          "name": "D3",
          "midi": 50,
          "time": 161.30753100000052,
          "velocity": 0.7874015748031497,
          "duration": 0.23076900000000933
        },
        {
          "name": "D3",
          "midi": 50,
          "time": 161.53830000000053,
          "velocity": 0.7874015748031497,
          "duration": 0.23076900000000933
        },
        {
          "name": "D3",
          "midi": 50,
          "time": 161.76906900000054,
          "velocity": 0.7874015748031497,
          "duration": 0.23076900000000933
        },
        {
          "name": "D3",
          "midi": 50,
          "time": 161.99983800000055,
          "velocity": 0.7874015748031497,
          "duration": 0.23076900000000933
        },
        {
          "name": "D3",
          "midi": 50,
          "time": 162.23060700000056,
          "velocity": 0.7874015748031497,
          "duration": 0.11538450000000466
        },
        {
          "name": "D3",
          "midi": 50,
          "time": 162.34599150000057,
          "velocity": 0.7874015748031497,
          "duration": 0.11538450000000466
        },
        {
          "name": "D#3",
          "midi": 51,
          "time": 162.46137600000057,
          "velocity": 0.7874015748031497,
          "duration": 0.23076900000000933
        },
        {
          "name": "D#3",
          "midi": 51,
          "time": 162.69214500000058,
          "velocity": 0.7874015748031497,
          "duration": 0.23076900000000933
        },
        {
          "name": "D#3",
          "midi": 51,
          "time": 162.9229140000006,
          "velocity": 0.7874015748031497,
          "duration": 0.23076900000000933
        },
        {
          "name": "D#3",
          "midi": 51,
          "time": 163.1536830000006,
          "velocity": 0.7874015748031497,
          "duration": 0.23076900000000933
        },
        {
          "name": "F#3",
          "midi": 54,
          "time": 163.3844520000006,
          "velocity": 0.7874015748031497,
          "duration": 0.23076900000000933
        },
        {
          "name": "D#3",
          "midi": 51,
          "time": 163.61522100000062,
          "velocity": 0.7874015748031497,
          "duration": 0.23076900000000933
        },
        {
          "name": "F#3",
          "midi": 54,
          "time": 163.84599000000063,
          "velocity": 0.7874015748031497,
          "duration": 0.23076900000000933
        },
        {
          "name": "F3",
          "midi": 53,
          "time": 164.07675900000064,
          "velocity": 0.7874015748031497,
          "duration": 0.23076900000000933
        },
        {
          "name": "D#3",
          "midi": 51,
          "time": 164.30752800000064,
          "velocity": 0.7874015748031497,
          "duration": 0.23076900000000933
        },
        {
          "name": "F3",
          "midi": 53,
          "time": 164.53829700000065,
          "velocity": 0.7874015748031497,
          "duration": 0.23076900000000933
        },
        {
          "name": "D3",
          "midi": 50,
          "time": 164.76906600000066,
          "velocity": 0.7874015748031497,
          "duration": 0.23076900000000933
        },
        {
          "name": "D3",
          "midi": 50,
          "time": 164.99983500000067,
          "velocity": 0.7874015748031497,
          "duration": 0.23076900000000933
        },
        {
          "name": "D3",
          "midi": 50,
          "time": 165.23060400000068,
          "velocity": 0.7874015748031497,
          "duration": 0.23076900000000933
        },
        {
          "name": "D3",
          "midi": 50,
          "time": 165.4613730000007,
          "velocity": 0.7874015748031497,
          "duration": 0.23076900000000933
        },
        {
          "name": "D3",
          "midi": 50,
          "time": 165.6921420000007,
          "velocity": 0.7874015748031497,
          "duration": 0.23076900000000933
        },
        {
          "name": "D3",
          "midi": 50,
          "time": 165.9229110000007,
          "velocity": 0.7874015748031497,
          "duration": 0.11538450000000466
        },
        {
          "name": "D3",
          "midi": 50,
          "time": 166.03829550000071,
          "velocity": 0.7874015748031497,
          "duration": 0.11538450000000466
        },
        {
          "name": "D#3",
          "midi": 51,
          "time": 166.15368000000072,
          "velocity": 0.7874015748031497,
          "duration": 0.23076900000000933
        },
        {
          "name": "D#3",
          "midi": 51,
          "time": 166.38444900000073,
          "velocity": 0.7874015748031497,
          "duration": 0.23076900000000933
        },
        {
          "name": "D#3",
          "midi": 51,
          "time": 166.61521800000074,
          "velocity": 0.7874015748031497,
          "duration": 0.23076900000000933
        },
        {
          "name": "D#3",
          "midi": 51,
          "time": 166.84598700000075,
          "velocity": 0.7874015748031497,
          "duration": 0.23076900000000933
        },
        {
          "name": "F#3",
          "midi": 54,
          "time": 167.07675600000076,
          "velocity": 0.7874015748031497,
          "duration": 0.23076900000000933
        },
        {
          "name": "D#3",
          "midi": 51,
          "time": 167.30752500000077,
          "velocity": 0.7874015748031497,
          "duration": 0.23076900000000933
        },
        {
          "name": "F#3",
          "midi": 54,
          "time": 167.53829400000077,
          "velocity": 0.7874015748031497,
          "duration": 0.23076900000000933
        },
        {
          "name": "F3",
          "midi": 53,
          "time": 167.76906300000078,
          "velocity": 0.7874015748031497,
          "duration": 0.23076900000000933
        },
        {
          "name": "D#3",
          "midi": 51,
          "time": 167.9998320000008,
          "velocity": 0.7874015748031497,
          "duration": 0.23076900000000933
        },
        {
          "name": "F3",
          "midi": 53,
          "time": 168.2306010000008,
          "velocity": 0.7874015748031497,
          "duration": 0.23076900000000933
        },
        {
          "name": "D3",
          "midi": 50,
          "time": 168.4613700000008,
          "velocity": 0.7874015748031497,
          "duration": 0.23076900000000933
        },
        {
          "name": "D3",
          "midi": 50,
          "time": 168.69213900000082,
          "velocity": 0.7874015748031497,
          "duration": 0.23076900000000933
        },
        {
          "name": "D3",
          "midi": 50,
          "time": 168.92290800000083,
          "velocity": 0.7874015748031497,
          "duration": 0.23076900000000933
        },
        {
          "name": "D3",
          "midi": 50,
          "time": 169.15367700000084,
          "velocity": 0.7874015748031497,
          "duration": 0.23076900000000933
        },
        {
          "name": "D3",
          "midi": 50,
          "time": 169.38444600000085,
          "velocity": 0.7874015748031497,
          "duration": 0.23076900000000933
        },
        {
          "name": "D3",
          "midi": 50,
          "time": 169.61521500000086,
          "velocity": 0.7874015748031497,
          "duration": 0.11538450000000466
        },
        {
          "name": "D3",
          "midi": 50,
          "time": 169.73059950000086,
          "velocity": 0.7874015748031497,
          "duration": 0.11538450000000466
        },
        {
          "name": "D#3",
          "midi": 51,
          "time": 169.84598400000087,
          "velocity": 0.7874015748031497,
          "duration": 0.23076900000000933
        },
        {
          "name": "D#3",
          "midi": 51,
          "time": 170.07675300000088,
          "velocity": 0.7874015748031497,
          "duration": 0.23076900000000933
        },
        {
          "name": "D#3",
          "midi": 51,
          "time": 170.3075220000009,
          "velocity": 0.7874015748031497,
          "duration": 0.23076900000000933
        },
        {
          "name": "D#3",
          "midi": 51,
          "time": 170.5382910000009,
          "velocity": 0.7874015748031497,
          "duration": 0.23076900000000933
        },
        {
          "name": "F#3",
          "midi": 54,
          "time": 170.7690600000009,
          "velocity": 0.7874015748031497,
          "duration": 0.23076900000000933
        },
        {
          "name": "D#3",
          "midi": 51,
          "time": 170.99982900000091,
          "velocity": 0.7874015748031497,
          "duration": 0.23076900000000933
        },
        {
          "name": "F#3",
          "midi": 54,
          "time": 171.23059800000092,
          "velocity": 0.7874015748031497,
          "duration": 0.23076900000000933
        },
        {
          "name": "F3",
          "midi": 53,
          "time": 171.46136700000093,
          "velocity": 0.7874015748031497,
          "duration": 0.23076900000000933
        },
        {
          "name": "D#3",
          "midi": 51,
          "time": 171.69213600000094,
          "velocity": 0.7874015748031497,
          "duration": 0.23076900000000933
        },
        {
          "name": "F3",
          "midi": 53,
          "time": 171.92290500000095,
          "velocity": 0.7874015748031497,
          "duration": 0.23076900000000933
        },
        {
          "name": "D3",
          "midi": 50,
          "time": 172.15367400000096,
          "velocity": 0.7874015748031497,
          "duration": 0.23076900000000933
        },
        {
          "name": "D3",
          "midi": 50,
          "time": 172.38444300000097,
          "velocity": 0.7874015748031497,
          "duration": 0.23076900000000933
        },
        {
          "name": "D3",
          "midi": 50,
          "time": 172.61521200000098,
          "velocity": 0.7874015748031497,
          "duration": 0.23076900000000933
        },
        {
          "name": "D3",
          "midi": 50,
          "time": 172.845981000001,
          "velocity": 0.7874015748031497,
          "duration": 0.23076900000000933
        },
        {
          "name": "D3",
          "midi": 50,
          "time": 173.076750000001,
          "velocity": 0.7874015748031497,
          "duration": 0.23076900000000933
        },
        {
          "name": "D3",
          "midi": 50,
          "time": 173.307519000001,
          "velocity": 0.7874015748031497,
          "duration": 0.11538450000000466
        },
        {
          "name": "D3",
          "midi": 50,
          "time": 173.422903500001,
          "velocity": 0.7874015748031497,
          "duration": 0.11538450000000466
        },
        {
          "name": "D#3",
          "midi": 51,
          "time": 173.53828800000102,
          "velocity": 0.7874015748031497,
          "duration": 0.23076900000000933
        },
        {
          "name": "D#3",
          "midi": 51,
          "time": 173.76905700000103,
          "velocity": 0.7874015748031497,
          "duration": 0.23076900000000933
        },
        {
          "name": "D#3",
          "midi": 51,
          "time": 173.99982600000104,
          "velocity": 0.7874015748031497,
          "duration": 0.23076900000000933
        },
        {
          "name": "D#3",
          "midi": 51,
          "time": 174.23059500000105,
          "velocity": 0.7874015748031497,
          "duration": 0.23076900000000933
        },
        {
          "name": "F#3",
          "midi": 54,
          "time": 174.46136400000105,
          "velocity": 0.7874015748031497,
          "duration": 0.23076900000000933
        },
        {
          "name": "D#3",
          "midi": 51,
          "time": 174.69213300000106,
          "velocity": 0.7874015748031497,
          "duration": 0.23076900000000933
        },
        {
          "name": "F#3",
          "midi": 54,
          "time": 174.92290200000107,
          "velocity": 0.7874015748031497,
          "duration": 0.23076900000000933
        },
        {
          "name": "F3",
          "midi": 53,
          "time": 175.15367100000108,
          "velocity": 0.7874015748031497,
          "duration": 0.23076900000000933
        },
        {
          "name": "D#3",
          "midi": 51,
          "time": 175.3844400000011,
          "velocity": 0.7874015748031497,
          "duration": 0.23076900000000933
        },
        {
          "name": "F3",
          "midi": 53,
          "time": 175.6152090000011,
          "velocity": 0.7874015748031497,
          "duration": 0.23076900000000933
        },
        {
          "name": "D3",
          "midi": 50,
          "time": 175.8459780000011,
          "velocity": 0.7874015748031497,
          "duration": 0.23076900000000933
        },
        {
          "name": "D3",
          "midi": 50,
          "time": 176.07674700000112,
          "velocity": 0.7874015748031497,
          "duration": 0.23076900000000933
        },
        {
          "name": "D3",
          "midi": 50,
          "time": 176.30751600000113,
          "velocity": 0.7874015748031497,
          "duration": 0.23076900000000933
        },
        {
          "name": "D3",
          "midi": 50,
          "time": 176.53828500000114,
          "velocity": 0.7874015748031497,
          "duration": 0.23076900000000933
        },
        {
          "name": "D3",
          "midi": 50,
          "time": 176.76905400000115,
          "velocity": 0.7874015748031497,
          "duration": 0.23076900000000933
        },
        {
          "name": "D3",
          "midi": 50,
          "time": 176.99982300000116,
          "velocity": 0.7874015748031497,
          "duration": 0.11538450000000466
        },
        {
          "name": "D3",
          "midi": 50,
          "time": 177.11520750000116,
          "velocity": 0.7874015748031497,
          "duration": 0.11538450000000466
        },
        {
          "name": "D#3",
          "midi": 51,
          "time": 177.23059200000117,
          "velocity": 0.7874015748031497,
          "duration": 0.23076900000000933
        },
        {
          "name": "D#3",
          "midi": 51,
          "time": 177.46136100000118,
          "velocity": 0.7874015748031497,
          "duration": 0.23076900000000933
        },
        {
          "name": "D#3",
          "midi": 51,
          "time": 177.69213000000119,
          "velocity": 0.7874015748031497,
          "duration": 0.23076900000000933
        },
        {
          "name": "D#3",
          "midi": 51,
          "time": 177.9228990000012,
          "velocity": 0.7874015748031497,
          "duration": 0.23076900000000933
        },
        {
          "name": "F#3",
          "midi": 54,
          "time": 178.1536680000012,
          "velocity": 0.7874015748031497,
          "duration": 0.23076900000000933
        },
        {
          "name": "D#3",
          "midi": 51,
          "time": 178.3844370000012,
          "velocity": 0.7874015748031497,
          "duration": 0.23076900000000933
        },
        {
          "name": "F#3",
          "midi": 54,
          "time": 178.61520600000122,
          "velocity": 0.7874015748031497,
          "duration": 0.23076900000000933
        },
        {
          "name": "F3",
          "midi": 53,
          "time": 178.84597500000123,
          "velocity": 0.7874015748031497,
          "duration": 0.23076900000000933
        },
        {
          "name": "D#3",
          "midi": 51,
          "time": 179.07674400000124,
          "velocity": 0.7874015748031497,
          "duration": 0.23076900000000933
        },
        {
          "name": "F3",
          "midi": 53,
          "time": 179.30751300000125,
          "velocity": 0.7874015748031497,
          "duration": 0.23076900000000933
        },
        {
          "name": "D3",
          "midi": 50,
          "time": 179.53828200000126,
          "velocity": 0.7874015748031497,
          "duration": 0.23076900000000933
        },
        {
          "name": "D3",
          "midi": 50,
          "time": 179.76905100000127,
          "velocity": 0.7874015748031497,
          "duration": 0.23076900000000933
        },
        {
          "name": "D3",
          "midi": 50,
          "time": 179.99982000000128,
          "velocity": 0.7874015748031497,
          "duration": 0.23076900000000933
        },
        {
          "name": "D3",
          "midi": 50,
          "time": 180.2305890000013,
          "velocity": 0.7874015748031497,
          "duration": 0.23076900000000933
        },
        {
          "name": "D3",
          "midi": 50,
          "time": 180.4613580000013,
          "velocity": 0.7874015748031497,
          "duration": 0.23076900000000933
        },
        {
          "name": "D3",
          "midi": 50,
          "time": 180.6921270000013,
          "velocity": 0.7874015748031497,
          "duration": 0.11538450000000466
        },
        {
          "name": "D3",
          "midi": 50,
          "time": 180.8075115000013,
          "velocity": 0.7874015748031497,
          "duration": 0.11538450000000466
        },
        {
          "name": "D#3",
          "midi": 51,
          "time": 258.4612800000013,
          "velocity": 0.7874015748031497,
          "duration": 0.23076900000000933
        },
        {
          "name": "D#3",
          "midi": 51,
          "time": 258.6920490000013,
          "velocity": 0.7874015748031497,
          "duration": 0.23076900000000933
        },
        {
          "name": "D#3",
          "midi": 51,
          "time": 258.9228180000013,
          "velocity": 0.7874015748031497,
          "duration": 0.23076900000000933
        },
        {
          "name": "D#3",
          "midi": 51,
          "time": 259.1535870000013,
          "velocity": 0.7874015748031497,
          "duration": 0.23076900000000933
        },
        {
          "name": "F#3",
          "midi": 54,
          "time": 259.38435600000133,
          "velocity": 0.7874015748031497,
          "duration": 0.23076900000000933
        },
        {
          "name": "D#3",
          "midi": 51,
          "time": 259.61512500000134,
          "velocity": 0.7874015748031497,
          "duration": 0.23076900000000933
        },
        {
          "name": "F#3",
          "midi": 54,
          "time": 259.84589400000135,
          "velocity": 0.7874015748031497,
          "duration": 0.23076900000000933
        },
        {
          "name": "F3",
          "midi": 53,
          "time": 260.07666300000136,
          "velocity": 0.7874015748031497,
          "duration": 0.23076900000000933
        },
        {
          "name": "D#3",
          "midi": 51,
          "time": 260.30743200000137,
          "velocity": 0.7874015748031497,
          "duration": 0.23076900000000933
        },
        {
          "name": "F3",
          "midi": 53,
          "time": 260.5382010000014,
          "velocity": 0.7874015748031497,
          "duration": 0.23076900000000933
        },
        {
          "name": "D3",
          "midi": 50,
          "time": 260.7689700000014,
          "velocity": 0.7874015748031497,
          "duration": 0.23076900000000933
        },
        {
          "name": "D3",
          "midi": 50,
          "time": 260.9997390000014,
          "velocity": 0.7874015748031497,
          "duration": 0.23076900000000933
        },
        {
          "name": "D3",
          "midi": 50,
          "time": 261.2305080000014,
          "velocity": 0.7874015748031497,
          "duration": 0.23076900000000933
        },
        {
          "name": "D3",
          "midi": 50,
          "time": 261.4612770000014,
          "velocity": 0.7874015748031497,
          "duration": 0.23076900000000933
        },
        {
          "name": "D3",
          "midi": 50,
          "time": 261.6920460000014,
          "velocity": 0.7874015748031497,
          "duration": 0.23076900000000933
        },
        {
          "name": "D3",
          "midi": 50,
          "time": 261.92281500000144,
          "velocity": 0.7874015748031497,
          "duration": 0.11538450000000466
        },
        {
          "name": "D3",
          "midi": 50,
          "time": 262.03819950000144,
          "velocity": 0.7874015748031497,
          "duration": 0.11538450000000466
        },
        {
          "name": "D#3",
          "midi": 51,
          "time": 262.15358400000144,
          "velocity": 0.7874015748031497,
          "duration": 0.23076900000000933
        },
        {
          "name": "D#3",
          "midi": 51,
          "time": 262.38435300000145,
          "velocity": 0.7874015748031497,
          "duration": 0.23076900000000933
        },
        {
          "name": "D#3",
          "midi": 51,
          "time": 262.61512200000146,
          "velocity": 0.7874015748031497,
          "duration": 0.23076900000000933
        },
        {
          "name": "D#3",
          "midi": 51,
          "time": 262.8458910000015,
          "velocity": 0.7874015748031497,
          "duration": 0.23076900000000933
        },
        {
          "name": "F#3",
          "midi": 54,
          "time": 263.0766600000015,
          "velocity": 0.7874015748031497,
          "duration": 0.23076900000000933
        },
        {
          "name": "D#3",
          "midi": 51,
          "time": 263.3074290000015,
          "velocity": 0.7874015748031497,
          "duration": 0.23076900000000933
        },
        {
          "name": "F#3",
          "midi": 54,
          "time": 263.5381980000015,
          "velocity": 0.7874015748031497,
          "duration": 0.23076900000000933
        },
        {
          "name": "F3",
          "midi": 53,
          "time": 263.7689670000015,
          "velocity": 0.7874015748031497,
          "duration": 0.23076900000000933
        },
        {
          "name": "D#3",
          "midi": 51,
          "time": 263.9997360000015,
          "velocity": 0.7874015748031497,
          "duration": 0.23076900000000933
        },
        {
          "name": "F3",
          "midi": 53,
          "time": 264.23050500000153,
          "velocity": 0.7874015748031497,
          "duration": 0.23076900000000933
        },
        {
          "name": "D3",
          "midi": 50,
          "time": 264.46127400000154,
          "velocity": 0.7874015748031497,
          "duration": 0.23076900000000933
        },
        {
          "name": "D3",
          "midi": 50,
          "time": 264.69204300000155,
          "velocity": 0.7874015748031497,
          "duration": 0.23076900000000933
        },
        {
          "name": "D3",
          "midi": 50,
          "time": 264.92281200000156,
          "velocity": 0.7874015748031497,
          "duration": 0.23076900000000933
        },
        {
          "name": "D3",
          "midi": 50,
          "time": 265.15358100000157,
          "velocity": 0.7874015748031497,
          "duration": 0.23076900000000933
        },
        {
          "name": "D3",
          "midi": 50,
          "time": 265.3843500000016,
          "velocity": 0.7874015748031497,
          "duration": 0.23076900000000933
        },
        {
          "name": "D3",
          "midi": 50,
          "time": 265.6151190000016,
          "velocity": 0.7874015748031497,
          "duration": 0.11538450000000466
        },
        {
          "name": "D3",
          "midi": 50,
          "time": 265.7305035000016,
          "velocity": 0.7874015748031497,
          "duration": 0.11538450000000466
        },
        {
          "name": "D#3",
          "midi": 51,
          "time": 265.8458880000016,
          "velocity": 0.7874015748031497,
          "duration": 0.23076900000000933
        },
        {
          "name": "D#3",
          "midi": 51,
          "time": 266.0766570000016,
          "velocity": 0.7874015748031497,
          "duration": 0.23076900000000933
        },
        {
          "name": "D#3",
          "midi": 51,
          "time": 266.3074260000016,
          "velocity": 0.7874015748031497,
          "duration": 0.23076900000000933
        },
        {
          "name": "D#3",
          "midi": 51,
          "time": 266.5381950000016,
          "velocity": 0.7874015748031497,
          "duration": 0.23076900000000933
        },
        {
          "name": "F#3",
          "midi": 54,
          "time": 266.76896400000163,
          "velocity": 0.7874015748031497,
          "duration": 0.23076900000000933
        },
        {
          "name": "D#3",
          "midi": 51,
          "time": 266.99973300000164,
          "velocity": 0.7874015748031497,
          "duration": 0.23076900000000933
        },
        {
          "name": "F#3",
          "midi": 54,
          "time": 267.23050200000165,
          "velocity": 0.7874015748031497,
          "duration": 0.23076900000000933
        },
        {
          "name": "F3",
          "midi": 53,
          "time": 267.46127100000166,
          "velocity": 0.7874015748031497,
          "duration": 0.23076900000000933
        },
        {
          "name": "D#3",
          "midi": 51,
          "time": 267.69204000000167,
          "velocity": 0.7874015748031497,
          "duration": 0.23076900000000933
        },
        {
          "name": "F3",
          "midi": 53,
          "time": 267.9228090000017,
          "velocity": 0.7874015748031497,
          "duration": 0.23076900000000933
        },
        {
          "name": "D3",
          "midi": 50,
          "time": 268.1535780000017,
          "velocity": 0.7874015748031497,
          "duration": 0.23076900000000933
        },
        {
          "name": "D3",
          "midi": 50,
          "time": 268.3843470000017,
          "velocity": 0.7874015748031497,
          "duration": 0.23076900000000933
        },
        {
          "name": "D3",
          "midi": 50,
          "time": 268.6151160000017,
          "velocity": 0.7874015748031497,
          "duration": 0.23076900000000933
        },
        {
          "name": "D3",
          "midi": 50,
          "time": 268.8458850000017,
          "velocity": 0.7874015748031497,
          "duration": 0.23076900000000933
        },
        {
          "name": "D3",
          "midi": 50,
          "time": 269.0766540000017,
          "velocity": 0.7874015748031497,
          "duration": 0.23076900000000933
        },
        {
          "name": "D3",
          "midi": 50,
          "time": 269.30742300000173,
          "velocity": 0.7874015748031497,
          "duration": 0.11538450000000466
        },
        {
          "name": "D3",
          "midi": 50,
          "time": 269.42280750000174,
          "velocity": 0.7874015748031497,
          "duration": 0.11538450000000466
        },
        {
          "name": "D#3",
          "midi": 51,
          "time": 269.53819200000174,
          "velocity": 0.7874015748031497,
          "duration": 0.23076900000000933
        },
        {
          "name": "D#3",
          "midi": 51,
          "time": 269.76896100000175,
          "velocity": 0.7874015748031497,
          "duration": 0.23076900000000933
        },
        {
          "name": "D#3",
          "midi": 51,
          "time": 269.99973000000176,
          "velocity": 0.7874015748031497,
          "duration": 0.23076900000000933
        },
        {
          "name": "D#3",
          "midi": 51,
          "time": 270.23049900000177,
          "velocity": 0.7874015748031497,
          "duration": 0.23076900000000933
        },
        {
          "name": "F#3",
          "midi": 54,
          "time": 270.4612680000018,
          "velocity": 0.7874015748031497,
          "duration": 0.23076900000000933
        },
        {
          "name": "D#3",
          "midi": 51,
          "time": 270.6920370000018,
          "velocity": 0.7874015748031497,
          "duration": 0.23076900000000933
        },
        {
          "name": "F#3",
          "midi": 54,
          "time": 270.9228060000018,
          "velocity": 0.7874015748031497,
          "duration": 0.23076900000000933
        },
        {
          "name": "F3",
          "midi": 53,
          "time": 271.1535750000018,
          "velocity": 0.7874015748031497,
          "duration": 0.23076900000000933
        },
        {
          "name": "D#3",
          "midi": 51,
          "time": 271.3843440000018,
          "velocity": 0.7874015748031497,
          "duration": 0.23076900000000933
        },
        {
          "name": "F3",
          "midi": 53,
          "time": 271.6151130000018,
          "velocity": 0.7874015748031497,
          "duration": 0.23076900000000933
        },
        {
          "name": "D3",
          "midi": 50,
          "time": 271.84588200000184,
          "velocity": 0.7874015748031497,
          "duration": 0.23076900000000933
        },
        {
          "name": "D3",
          "midi": 50,
          "time": 272.07665100000185,
          "velocity": 0.7874015748031497,
          "duration": 0.23076900000000933
        },
        {
          "name": "D3",
          "midi": 50,
          "time": 272.30742000000185,
          "velocity": 0.7874015748031497,
          "duration": 0.23076900000000933
        },
        {
          "name": "D3",
          "midi": 50,
          "time": 272.53818900000186,
          "velocity": 0.7874015748031497,
          "duration": 0.23076900000000933
        },
        {
          "name": "D3",
          "midi": 50,
          "time": 272.7689580000019,
          "velocity": 0.7874015748031497,
          "duration": 0.23076900000000933
        },
        {
          "name": "D3",
          "midi": 50,
          "time": 272.9997270000019,
          "velocity": 0.7874015748031497,
          "duration": 0.11538450000000466
        },
        {
          "name": "D3",
          "midi": 50,
          "time": 273.1151115000019,
          "velocity": 0.7874015748031497,
          "duration": 0.11538450000000466
        },
        {
          "name": "D#3",
          "midi": 51,
          "time": 273.2304960000019,
          "velocity": 0.7874015748031497,
          "duration": 0.23076900000000933
        },
        {
          "name": "D#3",
          "midi": 51,
          "time": 273.4612650000019,
          "velocity": 0.7874015748031497,
          "duration": 0.23076900000000933
        },
        {
          "name": "D#3",
          "midi": 51,
          "time": 273.6920340000019,
          "velocity": 0.7874015748031497,
          "duration": 0.23076900000000933
        },
        {
          "name": "D#3",
          "midi": 51,
          "time": 273.9228030000019,
          "velocity": 0.7874015748031497,
          "duration": 0.23076900000000933
        },
        {
          "name": "F#3",
          "midi": 54,
          "time": 274.15357200000193,
          "velocity": 0.7874015748031497,
          "duration": 0.23076900000000933
        },
        {
          "name": "D#3",
          "midi": 51,
          "time": 274.38434100000194,
          "velocity": 0.7874015748031497,
          "duration": 0.23076900000000933
        },
        {
          "name": "F#3",
          "midi": 54,
          "time": 274.61511000000195,
          "velocity": 0.7874015748031497,
          "duration": 0.23076900000000933
        },
        {
          "name": "F3",
          "midi": 53,
          "time": 274.84587900000196,
          "velocity": 0.7874015748031497,
          "duration": 0.23076900000000933
        },
        {
          "name": "D#3",
          "midi": 51,
          "time": 275.07664800000197,
          "velocity": 0.7874015748031497,
          "duration": 0.23076900000000933
        },
        {
          "name": "F3",
          "midi": 53,
          "time": 275.307417000002,
          "velocity": 0.7874015748031497,
          "duration": 0.23076900000000933
        },
        {
          "name": "D3",
          "midi": 50,
          "time": 275.538186000002,
          "velocity": 0.7874015748031497,
          "duration": 0.23076900000000933
        },
        {
          "name": "D3",
          "midi": 50,
          "time": 275.768955000002,
          "velocity": 0.7874015748031497,
          "duration": 0.23076900000000933
        },
        {
          "name": "D3",
          "midi": 50,
          "time": 275.999724000002,
          "velocity": 0.7874015748031497,
          "duration": 0.23076900000000933
        },
        {
          "name": "D3",
          "midi": 50,
          "time": 276.230493000002,
          "velocity": 0.7874015748031497,
          "duration": 0.23076900000000933
        },
        {
          "name": "D3",
          "midi": 50,
          "time": 276.461262000002,
          "velocity": 0.7874015748031497,
          "duration": 0.23076900000000933
        },
        {
          "name": "D3",
          "midi": 50,
          "time": 276.69203100000203,
          "velocity": 0.7874015748031497,
          "duration": 0.11538450000000466
        },
        {
          "name": "D3",
          "midi": 50,
          "time": 276.80741550000204,
          "velocity": 0.7874015748031497,
          "duration": 0.11538450000000466
        },
        {
          "name": "D#3",
          "midi": 51,
          "time": 276.92280000000204,
          "velocity": 0.7874015748031497,
          "duration": 0.23076900000000933
        },
        {
          "name": "D#3",
          "midi": 51,
          "time": 277.15356900000205,
          "velocity": 0.7874015748031497,
          "duration": 0.23076900000000933
        },
        {
          "name": "D#3",
          "midi": 51,
          "time": 277.38433800000206,
          "velocity": 0.7874015748031497,
          "duration": 0.23076900000000933
        },
        {
          "name": "D#3",
          "midi": 51,
          "time": 277.61510700000207,
          "velocity": 0.7874015748031497,
          "duration": 0.23076900000000933
        },
        {
          "name": "F#3",
          "midi": 54,
          "time": 277.8458760000021,
          "velocity": 0.7874015748031497,
          "duration": 0.23076900000000933
        },
        {
          "name": "D#3",
          "midi": 51,
          "time": 278.0766450000021,
          "velocity": 0.7874015748031497,
          "duration": 0.23076900000000933
        },
        {
          "name": "F#3",
          "midi": 54,
          "time": 278.3074140000021,
          "velocity": 0.7874015748031497,
          "duration": 0.23076900000000933
        },
        {
          "name": "F3",
          "midi": 53,
          "time": 278.5381830000021,
          "velocity": 0.7874015748031497,
          "duration": 0.23076900000000933
        },
        {
          "name": "D#3",
          "midi": 51,
          "time": 278.7689520000021,
          "velocity": 0.7874015748031497,
          "duration": 0.23076900000000933
        },
        {
          "name": "F3",
          "midi": 53,
          "time": 278.9997210000021,
          "velocity": 0.7874015748031497,
          "duration": 0.23076900000000933
        },
        {
          "name": "D3",
          "midi": 50,
          "time": 279.23049000000213,
          "velocity": 0.7874015748031497,
          "duration": 0.23076900000000933
        },
        {
          "name": "D3",
          "midi": 50,
          "time": 279.46125900000214,
          "velocity": 0.7874015748031497,
          "duration": 0.23076900000000933
        },
        {
          "name": "D3",
          "midi": 50,
          "time": 279.69202800000215,
          "velocity": 0.7874015748031497,
          "duration": 0.23076900000000933
        },
        {
          "name": "D3",
          "midi": 50,
          "time": 279.92279700000216,
          "velocity": 0.7874015748031497,
          "duration": 0.23076900000000933
        },
        {
          "name": "D3",
          "midi": 50,
          "time": 280.1535660000022,
          "velocity": 0.7874015748031497,
          "duration": 0.23076900000000933
        },
        {
          "name": "D3",
          "midi": 50,
          "time": 280.3843350000022,
          "velocity": 0.7874015748031497,
          "duration": 0.11538450000000466
        },
        {
          "name": "D3",
          "midi": 50,
          "time": 280.4997195000022,
          "velocity": 0.7874015748031497,
          "duration": 0.11538450000000466
        },
        {
          "name": "D#3",
          "midi": 51,
          "time": 280.6151040000022,
          "velocity": 0.7874015748031497,
          "duration": 0.23076900000000933
        },
        {
          "name": "D#3",
          "midi": 51,
          "time": 280.8458730000022,
          "velocity": 0.7874015748031497,
          "duration": 0.23076900000000933
        },
        {
          "name": "D#3",
          "midi": 51,
          "time": 281.0766420000022,
          "velocity": 0.7874015748031497,
          "duration": 0.23076900000000933
        },
        {
          "name": "D#3",
          "midi": 51,
          "time": 281.3074110000022,
          "velocity": 0.7874015748031497,
          "duration": 0.23076900000000933
        },
        {
          "name": "F#3",
          "midi": 54,
          "time": 281.5381800000022,
          "velocity": 0.7874015748031497,
          "duration": 0.23076900000000933
        },
        {
          "name": "D#3",
          "midi": 51,
          "time": 281.76894900000224,
          "velocity": 0.7874015748031497,
          "duration": 0.23076900000000933
        },
        {
          "name": "F#3",
          "midi": 54,
          "time": 281.99971800000225,
          "velocity": 0.7874015748031497,
          "duration": 0.23076900000000933
        },
        {
          "name": "F3",
          "midi": 53,
          "time": 282.23048700000226,
          "velocity": 0.7874015748031497,
          "duration": 0.23076900000000933
        },
        {
          "name": "D#3",
          "midi": 51,
          "time": 282.46125600000227,
          "velocity": 0.7874015748031497,
          "duration": 0.23076900000000933
        },
        {
          "name": "F3",
          "midi": 53,
          "time": 282.6920250000023,
          "velocity": 0.7874015748031497,
          "duration": 0.23076900000000933
        },
        {
          "name": "D3",
          "midi": 50,
          "time": 282.9227940000023,
          "velocity": 0.7874015748031497,
          "duration": 0.23076900000000933
        },
        {
          "name": "D3",
          "midi": 50,
          "time": 283.1535630000023,
          "velocity": 0.7874015748031497,
          "duration": 0.23076900000000933
        },
        {
          "name": "D3",
          "midi": 50,
          "time": 283.3843320000023,
          "velocity": 0.7874015748031497,
          "duration": 0.23076900000000933
        },
        {
          "name": "D3",
          "midi": 50,
          "time": 283.6151010000023,
          "velocity": 0.7874015748031497,
          "duration": 0.23076900000000933
        },
        {
          "name": "D3",
          "midi": 50,
          "time": 283.8458700000023,
          "velocity": 0.7874015748031497,
          "duration": 0.23076900000000933
        },
        {
          "name": "D3",
          "midi": 50,
          "time": 284.07663900000233,
          "velocity": 0.7874015748031497,
          "duration": 0.11538450000000466
        },
        {
          "name": "D3",
          "midi": 50,
          "time": 284.19202350000234,
          "velocity": 0.7874015748031497,
          "duration": 0.11538450000000466
        },
        {
          "name": "D#3",
          "midi": 51,
          "time": 284.30740800000234,
          "velocity": 0.7874015748031497,
          "duration": 0.23076900000000933
        },
        {
          "name": "D#3",
          "midi": 51,
          "time": 284.53817700000235,
          "velocity": 0.7874015748031497,
          "duration": 0.23076900000000933
        },
        {
          "name": "D#3",
          "midi": 51,
          "time": 284.76894600000236,
          "velocity": 0.7874015748031497,
          "duration": 0.23076900000000933
        },
        {
          "name": "D#3",
          "midi": 51,
          "time": 284.99971500000237,
          "velocity": 0.7874015748031497,
          "duration": 0.23076900000000933
        },
        {
          "name": "F#3",
          "midi": 54,
          "time": 285.2304840000024,
          "velocity": 0.7874015748031497,
          "duration": 0.23076900000000933
        },
        {
          "name": "D#3",
          "midi": 51,
          "time": 285.4612530000024,
          "velocity": 0.7874015748031497,
          "duration": 0.23076900000000933
        },
        {
          "name": "F#3",
          "midi": 54,
          "time": 285.6920220000024,
          "velocity": 0.7874015748031497,
          "duration": 0.23076900000000933
        },
        {
          "name": "F3",
          "midi": 53,
          "time": 285.9227910000024,
          "velocity": 0.7874015748031497,
          "duration": 0.23076900000000933
        },
        {
          "name": "D#3",
          "midi": 51,
          "time": 286.1535600000024,
          "velocity": 0.7874015748031497,
          "duration": 0.23076900000000933
        },
        {
          "name": "F3",
          "midi": 53,
          "time": 286.3843290000024,
          "velocity": 0.7874015748031497,
          "duration": 0.23076900000000933
        },
        {
          "name": "D3",
          "midi": 50,
          "time": 286.61509800000243,
          "velocity": 0.7874015748031497,
          "duration": 0.23076900000000933
        },
        {
          "name": "D3",
          "midi": 50,
          "time": 286.84586700000244,
          "velocity": 0.7874015748031497,
          "duration": 0.23076900000000933
        },
        {
          "name": "D3",
          "midi": 50,
          "time": 287.07663600000245,
          "velocity": 0.7874015748031497,
          "duration": 0.23076900000000933
        },
        {
          "name": "D3",
          "midi": 50,
          "time": 287.30740500000246,
          "velocity": 0.7874015748031497,
          "duration": 0.23076900000000933
        },
        {
          "name": "D3",
          "midi": 50,
          "time": 287.53817400000247,
          "velocity": 0.7874015748031497,
          "duration": 0.23076900000000933
        },
        {
          "name": "D3",
          "midi": 50,
          "time": 287.7689430000025,
          "velocity": 0.7874015748031497,
          "duration": 0.11538450000000466
        },
        {
          "name": "D3",
          "midi": 50,
          "time": 287.8843275000025,
          "velocity": 0.7874015748031497,
          "duration": 0.11538450000000466
        },
        {
          "name": "D#3",
          "midi": 51,
          "time": 287.9997120000025,
          "velocity": 0.7874015748031497,
          "duration": 0.23076900000000933
        },
        {
          "name": "D#3",
          "midi": 51,
          "time": 288.2304810000025,
          "velocity": 0.7874015748031497,
          "duration": 0.23076900000000933
        },
        {
          "name": "D#3",
          "midi": 51,
          "time": 288.4612500000025,
          "velocity": 0.7874015748031497,
          "duration": 0.23076900000000933
        },
        {
          "name": "D#3",
          "midi": 51,
          "time": 288.6920190000025,
          "velocity": 0.7874015748031497,
          "duration": 0.23076900000000933
        },
        {
          "name": "F#3",
          "midi": 54,
          "time": 288.9227880000025,
          "velocity": 0.7874015748031497,
          "duration": 0.23076900000000933
        },
        {
          "name": "D#3",
          "midi": 51,
          "time": 289.15355700000254,
          "velocity": 0.7874015748031497,
          "duration": 0.23076900000000933
        },
        {
          "name": "F#3",
          "midi": 54,
          "time": 289.38432600000255,
          "velocity": 0.7874015748031497,
          "duration": 0.23076900000000933
        },
        {
          "name": "F3",
          "midi": 53,
          "time": 289.61509500000255,
          "velocity": 0.7874015748031497,
          "duration": 0.23076900000000933
        },
        {
          "name": "D#3",
          "midi": 51,
          "time": 289.84586400000256,
          "velocity": 0.7874015748031497,
          "duration": 0.23076900000000933
        },
        {
          "name": "F3",
          "midi": 53,
          "time": 290.0766330000026,
          "velocity": 0.7874015748031497,
          "duration": 0.23076900000000933
        },
        {
          "name": "D3",
          "midi": 50,
          "time": 290.3074020000026,
          "velocity": 0.7874015748031497,
          "duration": 0.23076900000000933
        },
        {
          "name": "D3",
          "midi": 50,
          "time": 290.5381710000026,
          "velocity": 0.7874015748031497,
          "duration": 0.23076900000000933
        },
        {
          "name": "D3",
          "midi": 50,
          "time": 290.7689400000026,
          "velocity": 0.7874015748031497,
          "duration": 0.23076900000000933
        },
        {
          "name": "D3",
          "midi": 50,
          "time": 290.9997090000026,
          "velocity": 0.7874015748031497,
          "duration": 0.23076900000000933
        },
        {
          "name": "D3",
          "midi": 50,
          "time": 291.2304780000026,
          "velocity": 0.7874015748031497,
          "duration": 0.23076900000000933
        },
        {
          "name": "D3",
          "midi": 50,
          "time": 291.46124700000263,
          "velocity": 0.7874015748031497,
          "duration": 0.11538450000000466
        },
        {
          "name": "D3",
          "midi": 50,
          "time": 291.57663150000263,
          "velocity": 0.7874015748031497,
          "duration": 0.11538450000000466
        },
        {
          "name": "D#3",
          "midi": 51,
          "time": 291.69201600000264,
          "velocity": 0.7874015748031497,
          "duration": 0.23076900000000933
        },
        {
          "name": "D#3",
          "midi": 51,
          "time": 291.92278500000265,
          "velocity": 0.7874015748031497,
          "duration": 0.23076900000000933
        },
        {
          "name": "D#3",
          "midi": 51,
          "time": 292.15355400000266,
          "velocity": 0.7874015748031497,
          "duration": 0.23076900000000933
        },
        {
          "name": "D#3",
          "midi": 51,
          "time": 292.38432300000267,
          "velocity": 0.7874015748031497,
          "duration": 0.23076900000000933
        },
        {
          "name": "F#3",
          "midi": 54,
          "time": 292.6150920000027,
          "velocity": 0.7874015748031497,
          "duration": 0.23076900000000933
        },
        {
          "name": "D#3",
          "midi": 51,
          "time": 292.8458610000027,
          "velocity": 0.7874015748031497,
          "duration": 0.23076900000000933
        },
        {
          "name": "F#3",
          "midi": 54,
          "time": 293.0766300000027,
          "velocity": 0.7874015748031497,
          "duration": 0.23076900000000933
        },
        {
          "name": "F3",
          "midi": 53,
          "time": 293.3073990000027,
          "velocity": 0.7874015748031497,
          "duration": 0.23076900000000933
        },
        {
          "name": "D#3",
          "midi": 51,
          "time": 293.5381680000027,
          "velocity": 0.7874015748031497,
          "duration": 0.23076900000000933
        },
        {
          "name": "F3",
          "midi": 53,
          "time": 293.7689370000027,
          "velocity": 0.7874015748031497,
          "duration": 0.23076900000000933
        },
        {
          "name": "D3",
          "midi": 50,
          "time": 293.99970600000273,
          "velocity": 0.7874015748031497,
          "duration": 0.23076900000000933
        },
        {
          "name": "D3",
          "midi": 50,
          "time": 294.23047500000274,
          "velocity": 0.7874015748031497,
          "duration": 0.23076900000000933
        },
        {
          "name": "D3",
          "midi": 50,
          "time": 294.46124400000275,
          "velocity": 0.7874015748031497,
          "duration": 0.23076900000000933
        },
        {
          "name": "D3",
          "midi": 50,
          "time": 294.69201300000276,
          "velocity": 0.7874015748031497,
          "duration": 0.23076900000000933
        },
        {
          "name": "D3",
          "midi": 50,
          "time": 294.92278200000277,
          "velocity": 0.7874015748031497,
          "duration": 0.23076900000000933
        },
        {
          "name": "D3",
          "midi": 50,
          "time": 295.1535510000028,
          "velocity": 0.7874015748031497,
          "duration": 0.11538450000000466
        },
        {
          "name": "D3",
          "midi": 50,
          "time": 295.2689355000028,
          "velocity": 0.7874015748031497,
          "duration": 0.11538450000000466
        },
        {
          "name": "D#3",
          "midi": 51,
          "time": 295.3843200000028,
          "velocity": 0.7874015748031497,
          "duration": 0.23076900000000933
        },
        {
          "name": "D#3",
          "midi": 51,
          "time": 295.6150890000028,
          "velocity": 0.7874015748031497,
          "duration": 0.23076900000000933
        },
        {
          "name": "D#3",
          "midi": 51,
          "time": 295.8458580000028,
          "velocity": 0.7874015748031497,
          "duration": 0.23076900000000933
        },
        {
          "name": "D#3",
          "midi": 51,
          "time": 296.0766270000028,
          "velocity": 0.7874015748031497,
          "duration": 0.23076900000000933
        },
        {
          "name": "F#3",
          "midi": 54,
          "time": 296.3073960000028,
          "velocity": 0.7874015748031497,
          "duration": 0.23076900000000933
        },
        {
          "name": "D#3",
          "midi": 51,
          "time": 296.53816500000283,
          "velocity": 0.7874015748031497,
          "duration": 0.23076900000000933
        },
        {
          "name": "F#3",
          "midi": 54,
          "time": 296.76893400000284,
          "velocity": 0.7874015748031497,
          "duration": 0.23076900000000933
        },
        {
          "name": "F3",
          "midi": 53,
          "time": 296.99970300000285,
          "velocity": 0.7874015748031497,
          "duration": 0.23076900000000933
        },
        {
          "name": "D#3",
          "midi": 51,
          "time": 297.23047200000286,
          "velocity": 0.7874015748031497,
          "duration": 0.23076900000000933
        },
        {
          "name": "F3",
          "midi": 53,
          "time": 297.4612410000029,
          "velocity": 0.7874015748031497,
          "duration": 0.23076900000000933
        },
        {
          "name": "D3",
          "midi": 50,
          "time": 297.6920100000029,
          "velocity": 0.7874015748031497,
          "duration": 0.23076900000000933
        },
        {
          "name": "D3",
          "midi": 50,
          "time": 297.9227790000029,
          "velocity": 0.7874015748031497,
          "duration": 0.23076900000000933
        },
        {
          "name": "D3",
          "midi": 50,
          "time": 298.1535480000029,
          "velocity": 0.7874015748031497,
          "duration": 0.23076900000000933
        },
        {
          "name": "D3",
          "midi": 50,
          "time": 298.3843170000029,
          "velocity": 0.7874015748031497,
          "duration": 0.23076900000000933
        },
        {
          "name": "D3",
          "midi": 50,
          "time": 298.6150860000029,
          "velocity": 0.7874015748031497,
          "duration": 0.23076900000000933
        },
        {
          "name": "D3",
          "midi": 50,
          "time": 298.8458550000029,
          "velocity": 0.7874015748031497,
          "duration": 0.11538450000000466
        },
        {
          "name": "D3",
          "midi": 50,
          "time": 298.96123950000293,
          "velocity": 0.7874015748031497,
          "duration": 0.11538450000000466
        },
        {
          "name": "D#3",
          "midi": 51,
          "time": 299.07662400000294,
          "velocity": 0.7874015748031497,
          "duration": 0.23076900000000933
        },
        {
          "name": "D#3",
          "midi": 51,
          "time": 299.30739300000295,
          "velocity": 0.7874015748031497,
          "duration": 0.23076900000000933
        },
        {
          "name": "D#3",
          "midi": 51,
          "time": 299.53816200000296,
          "velocity": 0.7874015748031497,
          "duration": 0.23076900000000933
        },
        {
          "name": "D#3",
          "midi": 51,
          "time": 299.76893100000296,
          "velocity": 0.7874015748031497,
          "duration": 0.23076900000000933
        },
        {
          "name": "F#3",
          "midi": 54,
          "time": 299.999700000003,
          "velocity": 0.7874015748031497,
          "duration": 0.23076900000000933
        },
        {
          "name": "D#3",
          "midi": 51,
          "time": 300.230469000003,
          "velocity": 0.7874015748031497,
          "duration": 0.23076900000000933
        },
        {
          "name": "F#3",
          "midi": 54,
          "time": 300.461238000003,
          "velocity": 0.7874015748031497,
          "duration": 0.23076900000000933
        },
        {
          "name": "F3",
          "midi": 53,
          "time": 300.692007000003,
          "velocity": 0.7874015748031497,
          "duration": 0.23076900000000933
        },
        {
          "name": "D#3",
          "midi": 51,
          "time": 300.922776000003,
          "velocity": 0.7874015748031497,
          "duration": 0.23076900000000933
        },
        {
          "name": "F3",
          "midi": 53,
          "time": 301.153545000003,
          "velocity": 0.7874015748031497,
          "duration": 0.23076900000000933
        },
        {
          "name": "D3",
          "midi": 50,
          "time": 301.38431400000303,
          "velocity": 0.7874015748031497,
          "duration": 0.23076900000000933
        },
        {
          "name": "D3",
          "midi": 50,
          "time": 301.61508300000304,
          "velocity": 0.7874015748031497,
          "duration": 0.23076900000000933
        },
        {
          "name": "D3",
          "midi": 50,
          "time": 301.84585200000305,
          "velocity": 0.7874015748031497,
          "duration": 0.23076900000000933
        },
        {
          "name": "D3",
          "midi": 50,
          "time": 302.07662100000306,
          "velocity": 0.7874015748031497,
          "duration": 0.23076900000000933
        },
        {
          "name": "D3",
          "midi": 50,
          "time": 302.30739000000307,
          "velocity": 0.7874015748031497,
          "duration": 0.23076900000000933
        },
        {
          "name": "D3",
          "midi": 50,
          "time": 302.5381590000031,
          "velocity": 0.7874015748031497,
          "duration": 0.11538450000000466
        },
        {
          "name": "D3",
          "midi": 50,
          "time": 302.6535435000031,
          "velocity": 0.7874015748031497,
          "duration": 0.11538450000000466
        },
        {
          "name": "D#3",
          "midi": 51,
          "time": 302.7689280000031,
          "velocity": 0.7874015748031497,
          "duration": 0.23076900000000933
        },
        {
          "name": "D#3",
          "midi": 51,
          "time": 302.9996970000031,
          "velocity": 0.7874015748031497,
          "duration": 0.23076900000000933
        },
        {
          "name": "D#3",
          "midi": 51,
          "time": 303.2304660000031,
          "velocity": 0.7874015748031497,
          "duration": 0.23076900000000933
        },
        {
          "name": "D#3",
          "midi": 51,
          "time": 303.4612350000031,
          "velocity": 0.7874015748031497,
          "duration": 0.23076900000000933
        },
        {
          "name": "F#3",
          "midi": 54,
          "time": 303.6920040000031,
          "velocity": 0.7874015748031497,
          "duration": 0.23076900000000933
        },
        {
          "name": "D#3",
          "midi": 51,
          "time": 303.92277300000313,
          "velocity": 0.7874015748031497,
          "duration": 0.23076900000000933
        },
        {
          "name": "F#3",
          "midi": 54,
          "time": 304.15354200000314,
          "velocity": 0.7874015748031497,
          "duration": 0.23076900000000933
        },
        {
          "name": "F3",
          "midi": 53,
          "time": 304.38431100000315,
          "velocity": 0.7874015748031497,
          "duration": 0.23076900000000933
        },
        {
          "name": "D#3",
          "midi": 51,
          "time": 304.61508000000316,
          "velocity": 0.7874015748031497,
          "duration": 0.23076900000000933
        },
        {
          "name": "F3",
          "midi": 53,
          "time": 304.84584900000317,
          "velocity": 0.7874015748031497,
          "duration": 0.23076900000000933
        },
        {
          "name": "D3",
          "midi": 50,
          "time": 305.0766180000032,
          "velocity": 0.7874015748031497,
          "duration": 0.23076900000000933
        },
        {
          "name": "D3",
          "midi": 50,
          "time": 305.3073870000032,
          "velocity": 0.7874015748031497,
          "duration": 0.23076900000000933
        },
        {
          "name": "D3",
          "midi": 50,
          "time": 305.5381560000032,
          "velocity": 0.7874015748031497,
          "duration": 0.23076900000000933
        },
        {
          "name": "D3",
          "midi": 50,
          "time": 305.7689250000032,
          "velocity": 0.7874015748031497,
          "duration": 0.23076900000000933
        },
        {
          "name": "D3",
          "midi": 50,
          "time": 305.9996940000032,
          "velocity": 0.7874015748031497,
          "duration": 0.23076900000000933
        },
        {
          "name": "D3",
          "midi": 50,
          "time": 306.2304630000032,
          "velocity": 0.7874015748031497,
          "duration": 0.11538450000000466
        },
        {
          "name": "D3",
          "midi": 50,
          "time": 306.34584750000323,
          "velocity": 0.7874015748031497,
          "duration": 0.11538450000000466
        },
        {
          "name": "D#3",
          "midi": 51,
          "time": 306.46123200000324,
          "velocity": 0.7874015748031497,
          "duration": 0.23076900000000933
        },
        {
          "name": "D#3",
          "midi": 51,
          "time": 306.69200100000324,
          "velocity": 0.7874015748031497,
          "duration": 0.23076900000000933
        },
        {
          "name": "D#3",
          "midi": 51,
          "time": 306.92277000000325,
          "velocity": 0.7874015748031497,
          "duration": 0.23076900000000933
        },
        {
          "name": "D#3",
          "midi": 51,
          "time": 307.15353900000326,
          "velocity": 0.7874015748031497,
          "duration": 0.23076900000000933
        },
        {
          "name": "F#3",
          "midi": 54,
          "time": 307.3843080000033,
          "velocity": 0.7874015748031497,
          "duration": 0.23076900000000933
        },
        {
          "name": "D#3",
          "midi": 51,
          "time": 307.6150770000033,
          "velocity": 0.7874015748031497,
          "duration": 0.23076900000000933
        },
        {
          "name": "F#3",
          "midi": 54,
          "time": 307.8458460000033,
          "velocity": 0.7874015748031497,
          "duration": 0.23076900000000933
        },
        {
          "name": "F3",
          "midi": 53,
          "time": 308.0766150000033,
          "velocity": 0.7874015748031497,
          "duration": 0.23076900000000933
        },
        {
          "name": "D#3",
          "midi": 51,
          "time": 308.3073840000033,
          "velocity": 0.7874015748031497,
          "duration": 0.23076900000000933
        },
        {
          "name": "F3",
          "midi": 53,
          "time": 308.5381530000033,
          "velocity": 0.7874015748031497,
          "duration": 0.23076900000000933
        },
        {
          "name": "D3",
          "midi": 50,
          "time": 308.76892200000333,
          "velocity": 0.7874015748031497,
          "duration": 0.23076900000000933
        },
        {
          "name": "D3",
          "midi": 50,
          "time": 308.99969100000334,
          "velocity": 0.7874015748031497,
          "duration": 0.23076900000000933
        },
        {
          "name": "D3",
          "midi": 50,
          "time": 309.23046000000335,
          "velocity": 0.7874015748031497,
          "duration": 0.23076900000000933
        },
        {
          "name": "D3",
          "midi": 50,
          "time": 309.46122900000336,
          "velocity": 0.7874015748031497,
          "duration": 0.23076900000000933
        },
        {
          "name": "D3",
          "midi": 50,
          "time": 309.69199800000337,
          "velocity": 0.7874015748031497,
          "duration": 0.23076900000000933
        },
        {
          "name": "D3",
          "midi": 50,
          "time": 309.9227670000034,
          "velocity": 0.7874015748031497,
          "duration": 0.11538450000000466
        },
        {
          "name": "D3",
          "midi": 50,
          "time": 310.0381515000034,
          "velocity": 0.7874015748031497,
          "duration": 0.11538450000000466
        },
        {
          "name": "D#3",
          "midi": 51,
          "time": 310.1535360000034,
          "velocity": 0.7874015748031497,
          "duration": 0.23076900000000933
        },
        {
          "name": "D#3",
          "midi": 51,
          "time": 310.3843050000034,
          "velocity": 0.7874015748031497,
          "duration": 0.23076900000000933
        },
        {
          "name": "D#3",
          "midi": 51,
          "time": 310.6150740000034,
          "velocity": 0.7874015748031497,
          "duration": 0.23076900000000933
        },
        {
          "name": "D#3",
          "midi": 51,
          "time": 310.8458430000034,
          "velocity": 0.7874015748031497,
          "duration": 0.23076900000000933
        },
        {
          "name": "F#3",
          "midi": 54,
          "time": 311.0766120000034,
          "velocity": 0.7874015748031497,
          "duration": 0.23076900000000933
        },
        {
          "name": "D#3",
          "midi": 51,
          "time": 311.30738100000343,
          "velocity": 0.7874015748031497,
          "duration": 0.23076900000000933
        },
        {
          "name": "F#3",
          "midi": 54,
          "time": 311.53815000000344,
          "velocity": 0.7874015748031497,
          "duration": 0.23076900000000933
        },
        {
          "name": "F3",
          "midi": 53,
          "time": 311.76891900000345,
          "velocity": 0.7874015748031497,
          "duration": 0.23076900000000933
        },
        {
          "name": "D#3",
          "midi": 51,
          "time": 311.99968800000346,
          "velocity": 0.7874015748031497,
          "duration": 0.23076900000000933
        },
        {
          "name": "F3",
          "midi": 53,
          "time": 312.23045700000347,
          "velocity": 0.7874015748031497,
          "duration": 0.23076900000000933
        },
        {
          "name": "D3",
          "midi": 50,
          "time": 312.4612260000035,
          "velocity": 0.7874015748031497,
          "duration": 0.23076900000000933
        },
        {
          "name": "D3",
          "midi": 50,
          "time": 312.6919950000035,
          "velocity": 0.7874015748031497,
          "duration": 0.23076900000000933
        },
        {
          "name": "D3",
          "midi": 50,
          "time": 312.9227640000035,
          "velocity": 0.7874015748031497,
          "duration": 0.23076900000000933
        },
        {
          "name": "D3",
          "midi": 50,
          "time": 313.1535330000035,
          "velocity": 0.7874015748031497,
          "duration": 0.23076900000000933
        },
        {
          "name": "D3",
          "midi": 50,
          "time": 313.3843020000035,
          "velocity": 0.7874015748031497,
          "duration": 0.23076900000000933
        },
        {
          "name": "D3",
          "midi": 50,
          "time": 313.6150710000035,
          "velocity": 0.7874015748031497,
          "duration": 0.11538450000000466
        },
        {
          "name": "D3",
          "midi": 50,
          "time": 313.73045550000353,
          "velocity": 0.7874015748031497,
          "duration": 0.11538450000000466
        },
        {
          "name": "D#3",
          "midi": 51,
          "time": 313.84584000000353,
          "velocity": 0.7874015748031497,
          "duration": 0.23076900000000933
        },
        {
          "name": "D#3",
          "midi": 51,
          "time": 314.07660900000354,
          "velocity": 0.7874015748031497,
          "duration": 0.23076900000000933
        },
        {
          "name": "D#3",
          "midi": 51,
          "time": 314.30737800000355,
          "velocity": 0.7874015748031497,
          "duration": 0.23076900000000933
        },
        {
          "name": "D#3",
          "midi": 51,
          "time": 314.53814700000356,
          "velocity": 0.7874015748031497,
          "duration": 0.23076900000000933
        },
        {
          "name": "F#3",
          "midi": 54,
          "time": 314.76891600000357,
          "velocity": 0.7874015748031497,
          "duration": 0.23076900000000933
        },
        {
          "name": "D#3",
          "midi": 51,
          "time": 314.9996850000036,
          "velocity": 0.7874015748031497,
          "duration": 0.23076900000000933
        },
        {
          "name": "F#3",
          "midi": 54,
          "time": 315.2304540000036,
          "velocity": 0.7874015748031497,
          "duration": 0.23076900000000933
        },
        {
          "name": "F3",
          "midi": 53,
          "time": 315.4612230000036,
          "velocity": 0.7874015748031497,
          "duration": 0.23076900000000933
        },
        {
          "name": "D#3",
          "midi": 51,
          "time": 315.6919920000036,
          "velocity": 0.7874015748031497,
          "duration": 0.23076900000000933
        },
        {
          "name": "F3",
          "midi": 53,
          "time": 315.9227610000036,
          "velocity": 0.7874015748031497,
          "duration": 0.23076900000000933
        },
        {
          "name": "D3",
          "midi": 50,
          "time": 316.1535300000036,
          "velocity": 0.7874015748031497,
          "duration": 0.23076900000000933
        },
        {
          "name": "D3",
          "midi": 50,
          "time": 316.38429900000364,
          "velocity": 0.7874015748031497,
          "duration": 0.23076900000000933
        },
        {
          "name": "D3",
          "midi": 50,
          "time": 316.61506800000365,
          "velocity": 0.7874015748031497,
          "duration": 0.23076900000000933
        },
        {
          "name": "D3",
          "midi": 50,
          "time": 316.84583700000366,
          "velocity": 0.7874015748031497,
          "duration": 0.23076900000000933
        },
        {
          "name": "D3",
          "midi": 50,
          "time": 317.07660600000366,
          "velocity": 0.7874015748031497,
          "duration": 0.23076900000000933
        },
        {
          "name": "D3",
          "midi": 50,
          "time": 317.3073750000037,
          "velocity": 0.7874015748031497,
          "duration": 0.11538450000000466
        },
        {
          "name": "D3",
          "midi": 50,
          "time": 317.4227595000037,
          "velocity": 0.7874015748031497,
          "duration": 0.11538450000000466
        }
      ],
      "controlChanges": {
        "7": [
          {
            "number": 7,
            "time": 0,
            "value": 0.7165354330708661
          }
        ],
        "10": [
          {
            "number": 10,
            "time": 0,
            "value": 0.16535433070866143
          }
        ]
      },
      "instrument": ""
    },
    {
      "name": "",
      "notes": [
        {
          "name": "D#3",
          "midi": 51,
          "time": 0,
          "velocity": 0.7874015748031497,
          "duration": 0.23076899999999997
        },
        {
          "name": "D#3",
          "midi": 51,
          "time": 0.23076899999999997,
          "velocity": 0.7874015748031497,
          "duration": 0.23076899999999997
        },
        {
          "name": "D#3",
          "midi": 51,
          "time": 0.46153799999999995,
          "velocity": 0.7874015748031497,
          "duration": 0.23076899999999995
        },
        {
          "name": "D#3",
          "midi": 51,
          "time": 0.6923069999999999,
          "velocity": 0.7874015748031497,
          "duration": 0.230769
        },
        {
          "name": "F#3",
          "midi": 54,
          "time": 0.9230759999999999,
          "velocity": 0.7874015748031497,
          "duration": 0.2307689999999999
        },
        {
          "name": "D#3",
          "midi": 51,
          "time": 1.1538449999999998,
          "velocity": 0.7874015748031497,
          "duration": 0.230769
        },
        {
          "name": "F#3",
          "midi": 54,
          "time": 1.3846139999999998,
          "velocity": 0.7874015748031497,
          "duration": 0.230769
        },
        {
          "name": "F3",
          "midi": 53,
          "time": 1.6153829999999998,
          "velocity": 0.7874015748031497,
          "duration": 0.230769
        },
        {
          "name": "D#3",
          "midi": 51,
          "time": 1.8461519999999998,
          "velocity": 0.7874015748031497,
          "duration": 0.23076899999999978
        },
        {
          "name": "F3",
          "midi": 53,
          "time": 2.0769209999999996,
          "velocity": 0.7874015748031497,
          "duration": 0.230769
        },
        {
          "name": "D3",
          "midi": 50,
          "time": 2.3076899999999996,
          "velocity": 0.7874015748031497,
          "duration": 0.230769
        },
        {
          "name": "D3",
          "midi": 50,
          "time": 2.5384589999999996,
          "velocity": 0.7874015748031497,
          "duration": 0.230769
        },
        {
          "name": "D3",
          "midi": 50,
          "time": 2.7692279999999996,
          "velocity": 0.7874015748031497,
          "duration": 0.230769
        },
        {
          "name": "D3",
          "midi": 50,
          "time": 2.9999969999999996,
          "velocity": 0.7874015748031497,
          "duration": 0.230769
        },
        {
          "name": "D3",
          "midi": 50,
          "time": 3.2307659999999996,
          "velocity": 0.7874015748031497,
          "duration": 0.230769
        },
        {
          "name": "D3",
          "midi": 50,
          "time": 3.4615349999999996,
          "velocity": 0.7874015748031497,
          "duration": 0.11538449999999978
        },
        {
          "name": "D3",
          "midi": 50,
          "time": 3.5769194999999994,
          "velocity": 0.7874015748031497,
          "duration": 0.11538449999999978
        },
        {
          "name": "D#3",
          "midi": 51,
          "time": 3.692303999999999,
          "velocity": 0.7874015748031497,
          "duration": 0.230769
        },
        {
          "name": "D#3",
          "midi": 51,
          "time": 3.923072999999999,
          "velocity": 0.7874015748031497,
          "duration": 0.230769
        },
        {
          "name": "D#3",
          "midi": 51,
          "time": 4.153841999999999,
          "velocity": 0.7874015748031497,
          "duration": 0.23076899999999956
        },
        {
          "name": "D#3",
          "midi": 51,
          "time": 4.384610999999999,
          "velocity": 0.7874015748031497,
          "duration": 0.23076899999999956
        },
        {
          "name": "F#3",
          "midi": 54,
          "time": 4.615379999999998,
          "velocity": 0.7874015748031497,
          "duration": 0.23076899999999956
        },
        {
          "name": "D#3",
          "midi": 51,
          "time": 4.846148999999998,
          "velocity": 0.7874015748031497,
          "duration": 0.23076899999999956
        },
        {
          "name": "F#3",
          "midi": 54,
          "time": 5.076917999999997,
          "velocity": 0.7874015748031497,
          "duration": 0.23076899999999956
        },
        {
          "name": "F3",
          "midi": 53,
          "time": 5.307686999999997,
          "velocity": 0.7874015748031497,
          "duration": 0.23076899999999956
        },
        {
          "name": "D#3",
          "midi": 51,
          "time": 5.5384559999999965,
          "velocity": 0.7874015748031497,
          "duration": 0.23076899999999956
        },
        {
          "name": "F3",
          "midi": 53,
          "time": 5.769224999999996,
          "velocity": 0.7874015748031497,
          "duration": 0.23076899999999956
        },
        {
          "name": "D3",
          "midi": 50,
          "time": 5.999993999999996,
          "velocity": 0.7874015748031497,
          "duration": 0.23076899999999956
        },
        {
          "name": "D3",
          "midi": 50,
          "time": 6.230762999999995,
          "velocity": 0.7874015748031497,
          "duration": 0.23076899999999956
        },
        {
          "name": "D3",
          "midi": 50,
          "time": 6.461531999999995,
          "velocity": 0.7874015748031497,
          "duration": 0.23076899999999956
        },
        {
          "name": "D3",
          "midi": 50,
          "time": 6.692300999999994,
          "velocity": 0.7874015748031497,
          "duration": 0.23076899999999956
        },
        {
          "name": "D3",
          "midi": 50,
          "time": 6.923069999999994,
          "velocity": 0.7874015748031497,
          "duration": 0.23076899999999956
        },
        {
          "name": "D3",
          "midi": 50,
          "time": 7.153838999999993,
          "velocity": 0.7874015748031497,
          "duration": 0.11538450000000022
        },
        {
          "name": "D3",
          "midi": 50,
          "time": 7.269223499999994,
          "velocity": 0.7874015748031497,
          "duration": 0.11538450000000022
        },
        {
          "name": "D#3",
          "midi": 51,
          "time": 7.384607999999994,
          "velocity": 0.7874015748031497,
          "duration": 0.23076899999999956
        },
        {
          "name": "D#3",
          "midi": 51,
          "time": 7.615376999999993,
          "velocity": 0.7874015748031497,
          "duration": 0.23076899999999956
        },
        {
          "name": "D#3",
          "midi": 51,
          "time": 7.846145999999993,
          "velocity": 0.7874015748031497,
          "duration": 0.23076899999999956
        },
        {
          "name": "D#3",
          "midi": 51,
          "time": 8.076914999999993,
          "velocity": 0.7874015748031497,
          "duration": 0.23076900000000045
        },
        {
          "name": "F#3",
          "midi": 54,
          "time": 8.307683999999993,
          "velocity": 0.7874015748031497,
          "duration": 0.23076900000000045
        },
        {
          "name": "D#3",
          "midi": 51,
          "time": 8.538452999999993,
          "velocity": 0.7874015748031497,
          "duration": 0.23076900000000045
        },
        {
          "name": "F#3",
          "midi": 54,
          "time": 8.769221999999994,
          "velocity": 0.7874015748031497,
          "duration": 0.23076900000000045
        },
        {
          "name": "F3",
          "midi": 53,
          "time": 8.999990999999994,
          "velocity": 0.7874015748031497,
          "duration": 0.23076900000000045
        },
        {
          "name": "D#3",
          "midi": 51,
          "time": 9.230759999999995,
          "velocity": 0.7874015748031497,
          "duration": 0.23076900000000045
        },
        {
          "name": "F3",
          "midi": 53,
          "time": 9.461528999999995,
          "velocity": 0.7874015748031497,
          "duration": 0.23076900000000045
        },
        {
          "name": "D3",
          "midi": 50,
          "time": 9.692297999999996,
          "velocity": 0.7874015748031497,
          "duration": 0.23076900000000045
        },
        {
          "name": "D3",
          "midi": 50,
          "time": 9.923066999999996,
          "velocity": 0.7874015748031497,
          "duration": 0.23076900000000045
        },
        {
          "name": "D3",
          "midi": 50,
          "time": 10.153835999999997,
          "velocity": 0.7874015748031497,
          "duration": 0.23076900000000045
        },
        {
          "name": "D3",
          "midi": 50,
          "time": 10.384604999999997,
          "velocity": 0.7874015748031497,
          "duration": 0.23076900000000045
        },
        {
          "name": "D3",
          "midi": 50,
          "time": 10.615373999999997,
          "velocity": 0.7874015748031497,
          "duration": 0.23076900000000045
        },
        {
          "name": "D3",
          "midi": 50,
          "time": 10.846142999999998,
          "velocity": 0.7874015748031497,
          "duration": 0.11538449999999933
        },
        {
          "name": "D3",
          "midi": 50,
          "time": 10.961527499999997,
          "velocity": 0.7874015748031497,
          "duration": 0.11538449999999933
        },
        {
          "name": "D#3",
          "midi": 51,
          "time": 11.076911999999997,
          "velocity": 0.7874015748031497,
          "duration": 0.23076900000000045
        },
        {
          "name": "D#3",
          "midi": 51,
          "time": 11.307680999999997,
          "velocity": 0.7874015748031497,
          "duration": 0.23076900000000045
        },
        {
          "name": "D#3",
          "midi": 51,
          "time": 11.538449999999997,
          "velocity": 0.7874015748031497,
          "duration": 0.23076900000000045
        },
        {
          "name": "D#3",
          "midi": 51,
          "time": 11.769218999999998,
          "velocity": 0.7874015748031497,
          "duration": 0.23076900000000045
        },
        {
          "name": "F#3",
          "midi": 54,
          "time": 11.999987999999998,
          "velocity": 0.7874015748031497,
          "duration": 0.23076900000000045
        },
        {
          "name": "D#3",
          "midi": 51,
          "time": 12.230756999999999,
          "velocity": 0.7874015748031497,
          "duration": 0.23076900000000045
        },
        {
          "name": "F#3",
          "midi": 54,
          "time": 12.461526,
          "velocity": 0.7874015748031497,
          "duration": 0.23076900000000045
        },
        {
          "name": "F3",
          "midi": 53,
          "time": 12.692295,
          "velocity": 0.7874015748031497,
          "duration": 0.23076900000000045
        },
        {
          "name": "D#3",
          "midi": 51,
          "time": 12.923064,
          "velocity": 0.7874015748031497,
          "duration": 0.23076900000000045
        },
        {
          "name": "F3",
          "midi": 53,
          "time": 13.153833,
          "velocity": 0.7874015748031497,
          "duration": 0.23076900000000045
        },
        {
          "name": "D3",
          "midi": 50,
          "time": 13.384602000000001,
          "velocity": 0.7874015748031497,
          "duration": 0.23076900000000045
        },
        {
          "name": "D3",
          "midi": 50,
          "time": 13.615371000000001,
          "velocity": 0.7874015748031497,
          "duration": 0.23076900000000045
        },
        {
          "name": "D3",
          "midi": 50,
          "time": 13.846140000000002,
          "velocity": 0.7874015748031497,
          "duration": 0.23076900000000045
        },
        {
          "name": "D3",
          "midi": 50,
          "time": 14.076909000000002,
          "velocity": 0.7874015748031497,
          "duration": 0.23076900000000045
        },
        {
          "name": "D3",
          "midi": 50,
          "time": 14.307678000000003,
          "velocity": 0.7874015748031497,
          "duration": 0.23076900000000045
        },
        {
          "name": "D3",
          "midi": 50,
          "time": 14.538447000000003,
          "velocity": 0.7874015748031497,
          "duration": 0.11538449999999933
        },
        {
          "name": "D3",
          "midi": 50,
          "time": 14.653831500000003,
          "velocity": 0.7874015748031497,
          "duration": 0.11538449999999933
        },
        {
          "name": "D#3",
          "midi": 51,
          "time": 14.769216000000002,
          "velocity": 0.7874015748031497,
          "duration": 0.23076900000000045
        },
        {
          "name": "D#3",
          "midi": 51,
          "time": 14.999985000000002,
          "velocity": 0.7874015748031497,
          "duration": 0.23076900000000045
        },
        {
          "name": "D#3",
          "midi": 51,
          "time": 15.230754000000003,
          "velocity": 0.7874015748031497,
          "duration": 0.23076900000000045
        },
        {
          "name": "D#3",
          "midi": 51,
          "time": 15.461523000000003,
          "velocity": 0.7874015748031497,
          "duration": 0.23076900000000045
        },
        {
          "name": "F#3",
          "midi": 54,
          "time": 15.692292000000004,
          "velocity": 0.7874015748031497,
          "duration": 0.23076900000000045
        },
        {
          "name": "D#3",
          "midi": 51,
          "time": 15.923061000000004,
          "velocity": 0.7874015748031497,
          "duration": 0.23076899999999867
        },
        {
          "name": "F#3",
          "midi": 54,
          "time": 16.153830000000003,
          "velocity": 0.7874015748031497,
          "duration": 0.23076899999999867
        },
        {
          "name": "F3",
          "midi": 53,
          "time": 16.384599,
          "velocity": 0.7874015748031497,
          "duration": 0.23076899999999867
        },
        {
          "name": "D#3",
          "midi": 51,
          "time": 16.615368,
          "velocity": 0.7874015748031497,
          "duration": 0.23076899999999867
        },
        {
          "name": "F3",
          "midi": 53,
          "time": 16.846137,
          "velocity": 0.7874015748031497,
          "duration": 0.23076899999999867
        },
        {
          "name": "D3",
          "midi": 50,
          "time": 17.076905999999997,
          "velocity": 0.7874015748031497,
          "duration": 0.23076899999999867
        },
        {
          "name": "D3",
          "midi": 50,
          "time": 17.307674999999996,
          "velocity": 0.7874015748031497,
          "duration": 0.23076899999999867
        },
        {
          "name": "D3",
          "midi": 50,
          "time": 17.538443999999995,
          "velocity": 0.7874015748031497,
          "duration": 0.23076899999999867
        },
        {
          "name": "D3",
          "midi": 50,
          "time": 17.769212999999993,
          "velocity": 0.7874015748031497,
          "duration": 0.23076899999999867
        },
        {
          "name": "D3",
          "midi": 50,
          "time": 17.999981999999992,
          "velocity": 0.7874015748031497,
          "duration": 0.23076899999999867
        },
        {
          "name": "D3",
          "midi": 50,
          "time": 18.23075099999999,
          "velocity": 0.7874015748031497,
          "duration": 0.11538450000000111
        },
        {
          "name": "D3",
          "midi": 50,
          "time": 18.346135499999992,
          "velocity": 0.7874015748031497,
          "duration": 0.11538450000000111
        },
        {
          "name": "D#3",
          "midi": 51,
          "time": 18.461519999999993,
          "velocity": 0.7874015748031497,
          "duration": 0.23076899999999867
        },
        {
          "name": "D#3",
          "midi": 51,
          "time": 18.69228899999999,
          "velocity": 0.7874015748031497,
          "duration": 0.23076899999999867
        },
        {
          "name": "D#3",
          "midi": 51,
          "time": 18.92305799999999,
          "velocity": 0.7874015748031497,
          "duration": 0.23076899999999867
        },
        {
          "name": "D#3",
          "midi": 51,
          "time": 19.15382699999999,
          "velocity": 0.7874015748031497,
          "duration": 0.23076899999999867
        },
        {
          "name": "F#3",
          "midi": 54,
          "time": 19.384595999999988,
          "velocity": 0.7874015748031497,
          "duration": 0.23076899999999867
        },
        {
          "name": "D#3",
          "midi": 51,
          "time": 19.615364999999986,
          "velocity": 0.7874015748031497,
          "duration": 0.23076899999999867
        },
        {
          "name": "F#3",
          "midi": 54,
          "time": 19.846133999999985,
          "velocity": 0.7874015748031497,
          "duration": 0.23076899999999867
        },
        {
          "name": "F3",
          "midi": 53,
          "time": 20.076902999999984,
          "velocity": 0.7874015748031497,
          "duration": 0.23076899999999867
        },
        {
          "name": "D#3",
          "midi": 51,
          "time": 20.307671999999982,
          "velocity": 0.7874015748031497,
          "duration": 0.23076899999999867
        },
        {
          "name": "F3",
          "midi": 53,
          "time": 20.53844099999998,
          "velocity": 0.7874015748031497,
          "duration": 0.23076899999999867
        },
        {
          "name": "D3",
          "midi": 50,
          "time": 20.76920999999998,
          "velocity": 0.7874015748031497,
          "duration": 0.23076899999999867
        },
        {
          "name": "D3",
          "midi": 50,
          "time": 20.99997899999998,
          "velocity": 0.7874015748031497,
          "duration": 0.23076899999999867
        },
        {
          "name": "D3",
          "midi": 50,
          "time": 21.230747999999977,
          "velocity": 0.7874015748031497,
          "duration": 0.23076899999999867
        },
        {
          "name": "D3",
          "midi": 50,
          "time": 21.461516999999976,
          "velocity": 0.7874015748031497,
          "duration": 0.23076899999999867
        },
        {
          "name": "D3",
          "midi": 50,
          "time": 21.692285999999974,
          "velocity": 0.7874015748031497,
          "duration": 0.23076899999999867
        },
        {
          "name": "D3",
          "midi": 50,
          "time": 21.923054999999973,
          "velocity": 0.7874015748031497,
          "duration": 0.11538450000000111
        },
        {
          "name": "D3",
          "midi": 50,
          "time": 22.038439499999974,
          "velocity": 0.7874015748031497,
          "duration": 0.11538450000000111
        },
        {
          "name": "D#3",
          "midi": 51,
          "time": 22.153823999999975,
          "velocity": 0.7874015748031497,
          "duration": 0.23076899999999867
        },
        {
          "name": "D#3",
          "midi": 51,
          "time": 22.384592999999974,
          "velocity": 0.7874015748031497,
          "duration": 0.23076899999999867
        },
        {
          "name": "D#3",
          "midi": 51,
          "time": 22.615361999999973,
          "velocity": 0.7874015748031497,
          "duration": 0.23076899999999867
        },
        {
          "name": "D#3",
          "midi": 51,
          "time": 22.84613099999997,
          "velocity": 0.7874015748031497,
          "duration": 0.23076899999999867
        },
        {
          "name": "F#3",
          "midi": 54,
          "time": 23.07689999999997,
          "velocity": 0.7874015748031497,
          "duration": 0.23076899999999867
        },
        {
          "name": "D#3",
          "midi": 51,
          "time": 23.30766899999997,
          "velocity": 0.7874015748031497,
          "duration": 0.23076899999999867
        },
        {
          "name": "F#3",
          "midi": 54,
          "time": 23.538437999999967,
          "velocity": 0.7874015748031497,
          "duration": 0.23076899999999867
        },
        {
          "name": "F3",
          "midi": 53,
          "time": 23.769206999999966,
          "velocity": 0.7874015748031497,
          "duration": 0.23076899999999867
        },
        {
          "name": "D#3",
          "midi": 51,
          "time": 23.999975999999965,
          "velocity": 0.7874015748031497,
          "duration": 0.23076899999999867
        },
        {
          "name": "F3",
          "midi": 53,
          "time": 24.230744999999963,
          "velocity": 0.7874015748031497,
          "duration": 0.23076899999999867
        },
        {
          "name": "D3",
          "midi": 50,
          "time": 24.461513999999962,
          "velocity": 0.7874015748031497,
          "duration": 0.23076899999999867
        },
        {
          "name": "D3",
          "midi": 50,
          "time": 24.69228299999996,
          "velocity": 0.7874015748031497,
          "duration": 0.23076899999999867
        },
        {
          "name": "D3",
          "midi": 50,
          "time": 24.92305199999996,
          "velocity": 0.7874015748031497,
          "duration": 0.23076899999999867
        },
        {
          "name": "D3",
          "midi": 50,
          "time": 25.153820999999958,
          "velocity": 0.7874015748031497,
          "duration": 0.23076899999999867
        },
        {
          "name": "D3",
          "midi": 50,
          "time": 25.384589999999957,
          "velocity": 0.7874015748031497,
          "duration": 0.23076899999999867
        },
        {
          "name": "D3",
          "midi": 50,
          "time": 25.615358999999955,
          "velocity": 0.7874015748031497,
          "duration": 0.11538450000000111
        },
        {
          "name": "D3",
          "midi": 50,
          "time": 25.730743499999956,
          "velocity": 0.7874015748031497,
          "duration": 0.11538450000000111
        },
        {
          "name": "D#3",
          "midi": 51,
          "time": 25.846127999999958,
          "velocity": 0.7874015748031497,
          "duration": 0.23076899999999867
        },
        {
          "name": "D#3",
          "midi": 51,
          "time": 26.076896999999956,
          "velocity": 0.7874015748031497,
          "duration": 0.23076899999999867
        },
        {
          "name": "D#3",
          "midi": 51,
          "time": 26.307665999999955,
          "velocity": 0.7874015748031497,
          "duration": 0.23076899999999867
        },
        {
          "name": "D#3",
          "midi": 51,
          "time": 26.538434999999954,
          "velocity": 0.7874015748031497,
          "duration": 0.23076899999999867
        },
        {
          "name": "F#3",
          "midi": 54,
          "time": 26.769203999999952,
          "velocity": 0.7874015748031497,
          "duration": 0.23076899999999867
        },
        {
          "name": "D#3",
          "midi": 51,
          "time": 26.99997299999995,
          "velocity": 0.7874015748031497,
          "duration": 0.23076899999999867
        },
        {
          "name": "F#3",
          "midi": 54,
          "time": 27.23074199999995,
          "velocity": 0.7874015748031497,
          "duration": 0.23076899999999867
        },
        {
          "name": "F3",
          "midi": 53,
          "time": 27.46151099999995,
          "velocity": 0.7874015748031497,
          "duration": 0.23076899999999867
        },
        {
          "name": "D#3",
          "midi": 51,
          "time": 27.692279999999947,
          "velocity": 0.7874015748031497,
          "duration": 0.23076899999999867
        },
        {
          "name": "F3",
          "midi": 53,
          "time": 27.923048999999946,
          "velocity": 0.7874015748031497,
          "duration": 0.23076899999999867
        },
        {
          "name": "D3",
          "midi": 50,
          "time": 28.153817999999944,
          "velocity": 0.7874015748031497,
          "duration": 0.23076899999999867
        },
        {
          "name": "D3",
          "midi": 50,
          "time": 28.384586999999943,
          "velocity": 0.7874015748031497,
          "duration": 0.23076899999999867
        },
        {
          "name": "D3",
          "midi": 50,
          "time": 28.61535599999994,
          "velocity": 0.7874015748031497,
          "duration": 0.23076899999999867
        },
        {
          "name": "D3",
          "midi": 50,
          "time": 28.84612499999994,
          "velocity": 0.7874015748031497,
          "duration": 0.23076899999999867
        },
        {
          "name": "D3",
          "midi": 50,
          "time": 29.07689399999994,
          "velocity": 0.7874015748031497,
          "duration": 0.23076899999999867
        },
        {
          "name": "D3",
          "midi": 50,
          "time": 29.307662999999938,
          "velocity": 0.7874015748031497,
          "duration": 0.11538450000000111
        },
        {
          "name": "D3",
          "midi": 50,
          "time": 29.42304749999994,
          "velocity": 0.7874015748031497,
          "duration": 0.11538450000000111
        },
        {
          "name": "D#3",
          "midi": 51,
          "time": 29.53843199999994,
          "velocity": 0.7874015748031497,
          "duration": 0.23076899999999867
        },
        {
          "name": "D#3",
          "midi": 51,
          "time": 29.76920099999994,
          "velocity": 0.7874015748031497,
          "duration": 0.23076899999999867
        },
        {
          "name": "D#3",
          "midi": 51,
          "time": 29.999969999999937,
          "velocity": 0.7874015748031497,
          "duration": 0.23076899999999867
        },
        {
          "name": "D#3",
          "midi": 51,
          "time": 30.230738999999936,
          "velocity": 0.7874015748031497,
          "duration": 0.23076899999999867
        },
        {
          "name": "F#3",
          "midi": 54,
          "time": 30.461507999999935,
          "velocity": 0.7874015748031497,
          "duration": 0.23076899999999867
        },
        {
          "name": "D#3",
          "midi": 51,
          "time": 30.692276999999933,
          "velocity": 0.7874015748031497,
          "duration": 0.23076899999999867
        },
        {
          "name": "F#3",
          "midi": 54,
          "time": 30.923045999999932,
          "velocity": 0.7874015748031497,
          "duration": 0.23076899999999867
        },
        {
          "name": "F3",
          "midi": 53,
          "time": 31.15381499999993,
          "velocity": 0.7874015748031497,
          "duration": 0.23076899999999867
        },
        {
          "name": "D#3",
          "midi": 51,
          "time": 31.38458399999993,
          "velocity": 0.7874015748031497,
          "duration": 0.23076899999999867
        },
        {
          "name": "F3",
          "midi": 53,
          "time": 31.615352999999928,
          "velocity": 0.7874015748031497,
          "duration": 0.23076899999999867
        },
        {
          "name": "D3",
          "midi": 50,
          "time": 31.846121999999927,
          "velocity": 0.7874015748031497,
          "duration": 0.23076899999999867
        },
        {
          "name": "D3",
          "midi": 50,
          "time": 32.076890999999925,
          "velocity": 0.7874015748031497,
          "duration": 0.23076900000000222
        },
        {
          "name": "D3",
          "midi": 50,
          "time": 32.30765999999993,
          "velocity": 0.7874015748031497,
          "duration": 0.23076900000000222
        },
        {
          "name": "D3",
          "midi": 50,
          "time": 32.53842899999993,
          "velocity": 0.7874015748031497,
          "duration": 0.23076900000000222
        },
        {
          "name": "D3",
          "midi": 50,
          "time": 32.76919799999993,
          "velocity": 0.7874015748031497,
          "duration": 0.23076900000000222
        },
        {
          "name": "D3",
          "midi": 50,
          "time": 32.999966999999934,
          "velocity": 0.7874015748031497,
          "duration": 0.11538449999999756
        },
        {
          "name": "D3",
          "midi": 50,
          "time": 33.11535149999993,
          "velocity": 0.7874015748031497,
          "duration": 0.11538449999999756
        },
        {
          "name": "D#3",
          "midi": 51,
          "time": 33.23073599999993,
          "velocity": 0.7874015748031497,
          "duration": 0.23076900000000222
        },
        {
          "name": "D#3",
          "midi": 51,
          "time": 33.46150499999993,
          "velocity": 0.7874015748031497,
          "duration": 0.23076900000000222
        },
        {
          "name": "D#3",
          "midi": 51,
          "time": 33.692273999999934,
          "velocity": 0.7874015748031497,
          "duration": 0.23076900000000222
        },
        {
          "name": "D#3",
          "midi": 51,
          "time": 33.923042999999936,
          "velocity": 0.7874015748031497,
          "duration": 0.23076900000000222
        },
        {
          "name": "F#3",
          "midi": 54,
          "time": 34.15381199999994,
          "velocity": 0.7874015748031497,
          "duration": 0.23076900000000222
        },
        {
          "name": "D#3",
          "midi": 51,
          "time": 34.38458099999994,
          "velocity": 0.7874015748031497,
          "duration": 0.23076900000000222
        },
        {
          "name": "F#3",
          "midi": 54,
          "time": 34.61534999999994,
          "velocity": 0.7874015748031497,
          "duration": 0.23076900000000222
        },
        {
          "name": "F3",
          "midi": 53,
          "time": 34.846118999999945,
          "velocity": 0.7874015748031497,
          "duration": 0.23076900000000222
        },
        {
          "name": "D#3",
          "midi": 51,
          "time": 35.07688799999995,
          "velocity": 0.7874015748031497,
          "duration": 0.23076900000000222
        },
        {
          "name": "F3",
          "midi": 53,
          "time": 35.30765699999995,
          "velocity": 0.7874015748031497,
          "duration": 0.23076900000000222
        },
        {
          "name": "D3",
          "midi": 50,
          "time": 35.53842599999995,
          "velocity": 0.7874015748031497,
          "duration": 0.23076900000000222
        },
        {
          "name": "D3",
          "midi": 50,
          "time": 35.769194999999954,
          "velocity": 0.7874015748031497,
          "duration": 0.23076900000000222
        },
        {
          "name": "D3",
          "midi": 50,
          "time": 35.999963999999956,
          "velocity": 0.7874015748031497,
          "duration": 0.23076900000000222
        },
        {
          "name": "D3",
          "midi": 50,
          "time": 36.23073299999996,
          "velocity": 0.7874015748031497,
          "duration": 0.23076900000000222
        },
        {
          "name": "D3",
          "midi": 50,
          "time": 36.46150199999996,
          "velocity": 0.7874015748031497,
          "duration": 0.23076900000000222
        },
        {
          "name": "D3",
          "midi": 50,
          "time": 36.69227099999996,
          "velocity": 0.7874015748031497,
          "duration": 0.11538449999999756
        },
        {
          "name": "D3",
          "midi": 50,
          "time": 36.80765549999996,
          "velocity": 0.7874015748031497,
          "duration": 0.11538449999999756
        },
        {
          "name": "D#3",
          "midi": 51,
          "time": 36.92303999999996,
          "velocity": 0.7874015748031497,
          "duration": 0.23076900000000222
        },
        {
          "name": "D#3",
          "midi": 51,
          "time": 37.15380899999996,
          "velocity": 0.7874015748031497,
          "duration": 0.23076900000000222
        },
        {
          "name": "D#3",
          "midi": 51,
          "time": 37.38457799999996,
          "velocity": 0.7874015748031497,
          "duration": 0.23076900000000222
        },
        {
          "name": "D#3",
          "midi": 51,
          "time": 37.615346999999964,
          "velocity": 0.7874015748031497,
          "duration": 0.23076900000000222
        },
        {
          "name": "F#3",
          "midi": 54,
          "time": 37.84611599999997,
          "velocity": 0.7874015748031497,
          "duration": 0.23076900000000222
        },
        {
          "name": "D#3",
          "midi": 51,
          "time": 38.07688499999997,
          "velocity": 0.7874015748031497,
          "duration": 0.23076900000000222
        },
        {
          "name": "F#3",
          "midi": 54,
          "time": 38.30765399999997,
          "velocity": 0.7874015748031497,
          "duration": 0.23076900000000222
        },
        {
          "name": "F3",
          "midi": 53,
          "time": 38.53842299999997,
          "velocity": 0.7874015748031497,
          "duration": 0.23076900000000222
        },
        {
          "name": "D#3",
          "midi": 51,
          "time": 38.769191999999975,
          "velocity": 0.7874015748031497,
          "duration": 0.23076900000000222
        },
        {
          "name": "F3",
          "midi": 53,
          "time": 38.99996099999998,
          "velocity": 0.7874015748031497,
          "duration": 0.23076900000000222
        },
        {
          "name": "D3",
          "midi": 50,
          "time": 39.23072999999998,
          "velocity": 0.7874015748031497,
          "duration": 0.23076900000000222
        },
        {
          "name": "D3",
          "midi": 50,
          "time": 39.46149899999998,
          "velocity": 0.7874015748031497,
          "duration": 0.23076900000000222
        },
        {
          "name": "D3",
          "midi": 50,
          "time": 39.692267999999984,
          "velocity": 0.7874015748031497,
          "duration": 0.23076900000000222
        },
        {
          "name": "D3",
          "midi": 50,
          "time": 39.92303699999999,
          "velocity": 0.7874015748031497,
          "duration": 0.23076900000000222
        },
        {
          "name": "D3",
          "midi": 50,
          "time": 40.15380599999999,
          "velocity": 0.7874015748031497,
          "duration": 0.23076900000000222
        },
        {
          "name": "D3",
          "midi": 50,
          "time": 40.38457499999999,
          "velocity": 0.7874015748031497,
          "duration": 0.11538449999999756
        },
        {
          "name": "D3",
          "midi": 50,
          "time": 40.49995949999999,
          "velocity": 0.7874015748031497,
          "duration": 0.11538449999999756
        },
        {
          "name": "D#3",
          "midi": 51,
          "time": 40.615343999999986,
          "velocity": 0.7874015748031497,
          "duration": 0.23076900000000222
        },
        {
          "name": "D#3",
          "midi": 51,
          "time": 40.84611299999999,
          "velocity": 0.7874015748031497,
          "duration": 0.23076900000000222
        },
        {
          "name": "D#3",
          "midi": 51,
          "time": 41.07688199999999,
          "velocity": 0.7874015748031497,
          "duration": 0.23076900000000222
        },
        {
          "name": "D#3",
          "midi": 51,
          "time": 41.30765099999999,
          "velocity": 0.7874015748031497,
          "duration": 0.23076900000000222
        },
        {
          "name": "F#3",
          "midi": 54,
          "time": 41.538419999999995,
          "velocity": 0.7874015748031497,
          "duration": 0.23076900000000222
        },
        {
          "name": "D#3",
          "midi": 51,
          "time": 41.769189,
          "velocity": 0.7874015748031497,
          "duration": 0.23076900000000222
        },
        {
          "name": "F#3",
          "midi": 54,
          "time": 41.999958,
          "velocity": 0.7874015748031497,
          "duration": 0.23076900000000222
        },
        {
          "name": "F3",
          "midi": 53,
          "time": 42.230727,
          "velocity": 0.7874015748031497,
          "duration": 0.23076900000000222
        },
        {
          "name": "D#3",
          "midi": 51,
          "time": 42.461496000000004,
          "velocity": 0.7874015748031497,
          "duration": 0.23076900000000222
        },
        {
          "name": "F3",
          "midi": 53,
          "time": 42.692265000000006,
          "velocity": 0.7874015748031497,
          "duration": 0.23076900000000222
        },
        {
          "name": "D3",
          "midi": 50,
          "time": 42.92303400000001,
          "velocity": 0.7874015748031497,
          "duration": 0.23076900000000222
        },
        {
          "name": "D3",
          "midi": 50,
          "time": 43.15380300000001,
          "velocity": 0.7874015748031497,
          "duration": 0.23076900000000222
        },
        {
          "name": "D3",
          "midi": 50,
          "time": 43.38457200000001,
          "velocity": 0.7874015748031497,
          "duration": 0.23076900000000222
        },
        {
          "name": "D3",
          "midi": 50,
          "time": 43.615341000000015,
          "velocity": 0.7874015748031497,
          "duration": 0.23076900000000222
        },
        {
          "name": "D3",
          "midi": 50,
          "time": 43.84611000000002,
          "velocity": 0.7874015748031497,
          "duration": 0.23076900000000222
        },
        {
          "name": "D3",
          "midi": 50,
          "time": 44.07687900000002,
          "velocity": 0.7874015748031497,
          "duration": 0.11538449999999756
        },
        {
          "name": "D3",
          "midi": 50,
          "time": 44.19226350000002,
          "velocity": 0.7874015748031497,
          "duration": 0.11538449999999756
        },
        {
          "name": "D#3",
          "midi": 51,
          "time": 44.307648000000015,
          "velocity": 0.7874015748031497,
          "duration": 0.23076900000000222
        },
        {
          "name": "D#3",
          "midi": 51,
          "time": 44.53841700000002,
          "velocity": 0.7874015748031497,
          "duration": 0.23076900000000222
        },
        {
          "name": "D#3",
          "midi": 51,
          "time": 44.76918600000002,
          "velocity": 0.7874015748031497,
          "duration": 0.23076900000000222
        },
        {
          "name": "D#3",
          "midi": 51,
          "time": 44.99995500000002,
          "velocity": 0.7874015748031497,
          "duration": 0.23076900000000222
        },
        {
          "name": "F#3",
          "midi": 54,
          "time": 45.23072400000002,
          "velocity": 0.7874015748031497,
          "duration": 0.23076900000000222
        },
        {
          "name": "D#3",
          "midi": 51,
          "time": 45.461493000000026,
          "velocity": 0.7874015748031497,
          "duration": 0.23076900000000222
        },
        {
          "name": "F#3",
          "midi": 54,
          "time": 45.69226200000003,
          "velocity": 0.7874015748031497,
          "duration": 0.23076900000000222
        },
        {
          "name": "F3",
          "midi": 53,
          "time": 45.92303100000003,
          "velocity": 0.7874015748031497,
          "duration": 0.23076900000000222
        },
        {
          "name": "D#3",
          "midi": 51,
          "time": 46.15380000000003,
          "velocity": 0.7874015748031497,
          "duration": 0.23076900000000222
        },
        {
          "name": "F3",
          "midi": 53,
          "time": 46.384569000000035,
          "velocity": 0.7874015748031497,
          "duration": 0.23076900000000222
        },
        {
          "name": "D3",
          "midi": 50,
          "time": 46.61533800000004,
          "velocity": 0.7874015748031497,
          "duration": 0.23076900000000222
        },
        {
          "name": "D3",
          "midi": 50,
          "time": 46.84610700000004,
          "velocity": 0.7874015748031497,
          "duration": 0.23076900000000222
        },
        {
          "name": "D3",
          "midi": 50,
          "time": 47.07687600000004,
          "velocity": 0.7874015748031497,
          "duration": 0.23076900000000222
        },
        {
          "name": "D3",
          "midi": 50,
          "time": 47.30764500000004,
          "velocity": 0.7874015748031497,
          "duration": 0.23076900000000222
        },
        {
          "name": "D3",
          "midi": 50,
          "time": 47.538414000000046,
          "velocity": 0.7874015748031497,
          "duration": 0.23076900000000222
        },
        {
          "name": "D3",
          "midi": 50,
          "time": 47.76918300000005,
          "velocity": 0.7874015748031497,
          "duration": 0.11538449999999756
        },
        {
          "name": "D3",
          "midi": 50,
          "time": 47.884567500000045,
          "velocity": 0.7874015748031497,
          "duration": 0.11538449999999756
        },
        {
          "name": "D#3",
          "midi": 51,
          "time": 47.99995200000004,
          "velocity": 0.7874015748031497,
          "duration": 0.23076900000000222
        },
        {
          "name": "D#3",
          "midi": 51,
          "time": 48.230721000000045,
          "velocity": 0.7874015748031497,
          "duration": 0.23076900000000222
        },
        {
          "name": "D#3",
          "midi": 51,
          "time": 48.46149000000005,
          "velocity": 0.7874015748031497,
          "duration": 0.23076900000000222
        },
        {
          "name": "D#3",
          "midi": 51,
          "time": 48.69225900000005,
          "velocity": 0.7874015748031497,
          "duration": 0.23076900000000222
        },
        {
          "name": "F#3",
          "midi": 54,
          "time": 48.92302800000005,
          "velocity": 0.7874015748031497,
          "duration": 0.23076900000000222
        },
        {
          "name": "D#3",
          "midi": 51,
          "time": 49.153797000000054,
          "velocity": 0.7874015748031497,
          "duration": 0.23076900000000222
        },
        {
          "name": "F#3",
          "midi": 54,
          "time": 49.384566000000056,
          "velocity": 0.7874015748031497,
          "duration": 0.23076900000000222
        },
        {
          "name": "F3",
          "midi": 53,
          "time": 49.61533500000006,
          "velocity": 0.7874015748031497,
          "duration": 0.23076900000000222
        },
        {
          "name": "D#3",
          "midi": 51,
          "time": 49.84610400000006,
          "velocity": 0.7874015748031497,
          "duration": 0.23076900000000222
        },
        {
          "name": "F3",
          "midi": 53,
          "time": 50.07687300000006,
          "velocity": 0.7874015748031497,
          "duration": 0.23076900000000222
        },
        {
          "name": "D3",
          "midi": 50,
          "time": 50.307642000000065,
          "velocity": 0.7874015748031497,
          "duration": 0.23076900000000222
        },
        {
          "name": "D3",
          "midi": 50,
          "time": 50.53841100000007,
          "velocity": 0.7874015748031497,
          "duration": 0.23076900000000222
        },
        {
          "name": "D3",
          "midi": 50,
          "time": 50.76918000000007,
          "velocity": 0.7874015748031497,
          "duration": 0.23076900000000222
        },
        {
          "name": "D3",
          "midi": 50,
          "time": 50.99994900000007,
          "velocity": 0.7874015748031497,
          "duration": 0.23076900000000222
        },
        {
          "name": "D3",
          "midi": 50,
          "time": 51.230718000000074,
          "velocity": 0.7874015748031497,
          "duration": 0.23076900000000222
        },
        {
          "name": "D3",
          "midi": 50,
          "time": 51.461487000000076,
          "velocity": 0.7874015748031497,
          "duration": 0.11538449999999756
        },
        {
          "name": "D3",
          "midi": 50,
          "time": 51.576871500000074,
          "velocity": 0.7874015748031497,
          "duration": 0.11538449999999756
        },
        {
          "name": "D#3",
          "midi": 51,
          "time": 51.69225600000007,
          "velocity": 0.7874015748031497,
          "duration": 0.23076900000000222
        },
        {
          "name": "D#3",
          "midi": 51,
          "time": 51.923025000000074,
          "velocity": 0.7874015748031497,
          "duration": 0.23076900000000222
        },
        {
          "name": "D#3",
          "midi": 51,
          "time": 52.153794000000076,
          "velocity": 0.7874015748031497,
          "duration": 0.23076900000000222
        },
        {
          "name": "D#3",
          "midi": 51,
          "time": 52.38456300000008,
          "velocity": 0.7874015748031497,
          "duration": 0.23076900000000222
        },
        {
          "name": "F#3",
          "midi": 54,
          "time": 52.61533200000008,
          "velocity": 0.7874015748031497,
          "duration": 0.23076900000000222
        },
        {
          "name": "D#3",
          "midi": 51,
          "time": 52.84610100000008,
          "velocity": 0.7874015748031497,
          "duration": 0.23076900000000222
        },
        {
          "name": "F#3",
          "midi": 54,
          "time": 53.076870000000085,
          "velocity": 0.7874015748031497,
          "duration": 0.23076900000000222
        },
        {
          "name": "F3",
          "midi": 53,
          "time": 53.30763900000009,
          "velocity": 0.7874015748031497,
          "duration": 0.23076900000000222
        },
        {
          "name": "D#3",
          "midi": 51,
          "time": 53.53840800000009,
          "velocity": 0.7874015748031497,
          "duration": 0.23076900000000222
        },
        {
          "name": "F3",
          "midi": 53,
          "time": 53.76917700000009,
          "velocity": 0.7874015748031497,
          "duration": 0.23076900000000222
        },
        {
          "name": "D3",
          "midi": 50,
          "time": 53.999946000000094,
          "velocity": 0.7874015748031497,
          "duration": 0.23076900000000222
        },
        {
          "name": "D3",
          "midi": 50,
          "time": 54.230715000000096,
          "velocity": 0.7874015748031497,
          "duration": 0.23076900000000222
        },
        {
          "name": "D3",
          "midi": 50,
          "time": 54.4614840000001,
          "velocity": 0.7874015748031497,
          "duration": 0.23076900000000222
        },
        {
          "name": "D3",
          "midi": 50,
          "time": 54.6922530000001,
          "velocity": 0.7874015748031497,
          "duration": 0.23076900000000222
        },
        {
          "name": "D3",
          "midi": 50,
          "time": 54.9230220000001,
          "velocity": 0.7874015748031497,
          "duration": 0.23076900000000222
        },
        {
          "name": "D3",
          "midi": 50,
          "time": 55.153791000000105,
          "velocity": 0.7874015748031497,
          "duration": 0.11538449999999756
        },
        {
          "name": "D3",
          "midi": 50,
          "time": 55.2691755000001,
          "velocity": 0.7874015748031497,
          "duration": 0.11538449999999756
        },
        {
          "name": "D#3",
          "midi": 51,
          "time": 55.3845600000001,
          "velocity": 0.7874015748031497,
          "duration": 0.23076900000000222
        },
        {
          "name": "D#3",
          "midi": 51,
          "time": 55.6153290000001,
          "velocity": 0.7874015748031497,
          "duration": 0.23076900000000222
        },
        {
          "name": "D#3",
          "midi": 51,
          "time": 55.846098000000104,
          "velocity": 0.7874015748031497,
          "duration": 0.23076900000000222
        },
        {
          "name": "D#3",
          "midi": 51,
          "time": 56.07686700000011,
          "velocity": 0.7874015748031497,
          "duration": 0.23076900000000222
        },
        {
          "name": "F#3",
          "midi": 54,
          "time": 56.30763600000011,
          "velocity": 0.7874015748031497,
          "duration": 0.23076900000000222
        },
        {
          "name": "D#3",
          "midi": 51,
          "time": 56.53840500000011,
          "velocity": 0.7874015748031497,
          "duration": 0.23076900000000222
        },
        {
          "name": "F#3",
          "midi": 54,
          "time": 56.76917400000011,
          "velocity": 0.7874015748031497,
          "duration": 0.23076900000000222
        },
        {
          "name": "F3",
          "midi": 53,
          "time": 56.999943000000115,
          "velocity": 0.7874015748031497,
          "duration": 0.23076900000000222
        },
        {
          "name": "D#3",
          "midi": 51,
          "time": 57.23071200000012,
          "velocity": 0.7874015748031497,
          "duration": 0.23076900000000222
        },
        {
          "name": "F3",
          "midi": 53,
          "time": 57.46148100000012,
          "velocity": 0.7874015748031497,
          "duration": 0.23076900000000222
        },
        {
          "name": "D3",
          "midi": 50,
          "time": 57.69225000000012,
          "velocity": 0.7874015748031497,
          "duration": 0.23076900000000222
        },
        {
          "name": "D3",
          "midi": 50,
          "time": 57.923019000000124,
          "velocity": 0.7874015748031497,
          "duration": 0.23076900000000222
        },
        {
          "name": "D3",
          "midi": 50,
          "time": 58.15378800000013,
          "velocity": 0.7874015748031497,
          "duration": 0.23076900000000222
        },
        {
          "name": "D3",
          "midi": 50,
          "time": 58.38455700000013,
          "velocity": 0.7874015748031497,
          "duration": 0.23076900000000222
        },
        {
          "name": "D3",
          "midi": 50,
          "time": 58.61532600000013,
          "velocity": 0.7874015748031497,
          "duration": 0.23076900000000222
        },
        {
          "name": "D3",
          "midi": 50,
          "time": 58.84609500000013,
          "velocity": 0.7874015748031497,
          "duration": 0.11538449999999756
        },
        {
          "name": "D3",
          "midi": 50,
          "time": 58.96147950000013,
          "velocity": 0.7874015748031497,
          "duration": 0.11538449999999756
        },
        {
          "name": "D#3",
          "midi": 51,
          "time": 151.38446400000012,
          "velocity": 0.7874015748031497,
          "duration": 0.23076900000000933
        },
        {
          "name": "D#3",
          "midi": 51,
          "time": 151.61523300000013,
          "velocity": 0.7874015748031497,
          "duration": 0.23076900000000933
        },
        {
          "name": "D#3",
          "midi": 51,
          "time": 151.84600200000014,
          "velocity": 0.7874015748031497,
          "duration": 0.23076900000000933
        },
        {
          "name": "D#3",
          "midi": 51,
          "time": 152.07677100000015,
          "velocity": 0.7874015748031497,
          "duration": 0.23076900000000933
        },
        {
          "name": "F#3",
          "midi": 54,
          "time": 152.30754000000016,
          "velocity": 0.7874015748031497,
          "duration": 0.23076900000000933
        },
        {
          "name": "D#3",
          "midi": 51,
          "time": 152.53830900000017,
          "velocity": 0.7874015748031497,
          "duration": 0.23076900000000933
        },
        {
          "name": "F#3",
          "midi": 54,
          "time": 152.76907800000018,
          "velocity": 0.7874015748031497,
          "duration": 0.23076900000000933
        },
        {
          "name": "F3",
          "midi": 53,
          "time": 152.9998470000002,
          "velocity": 0.7874015748031497,
          "duration": 0.23076900000000933
        },
        {
          "name": "D#3",
          "midi": 51,
          "time": 153.2306160000002,
          "velocity": 0.7874015748031497,
          "duration": 0.23076900000000933
        },
        {
          "name": "F3",
          "midi": 53,
          "time": 153.4613850000002,
          "velocity": 0.7874015748031497,
          "duration": 0.23076900000000933
        },
        {
          "name": "D3",
          "midi": 50,
          "time": 153.69215400000022,
          "velocity": 0.7874015748031497,
          "duration": 0.23076900000000933
        },
        {
          "name": "D3",
          "midi": 50,
          "time": 153.92292300000022,
          "velocity": 0.7874015748031497,
          "duration": 0.23076900000000933
        },
        {
          "name": "D3",
          "midi": 50,
          "time": 154.15369200000023,
          "velocity": 0.7874015748031497,
          "duration": 0.23076900000000933
        },
        {
          "name": "D3",
          "midi": 50,
          "time": 154.38446100000024,
          "velocity": 0.7874015748031497,
          "duration": 0.23076900000000933
        },
        {
          "name": "D3",
          "midi": 50,
          "time": 154.61523000000025,
          "velocity": 0.7874015748031497,
          "duration": 0.23076900000000933
        },
        {
          "name": "D3",
          "midi": 50,
          "time": 154.84599900000026,
          "velocity": 0.7874015748031497,
          "duration": 0.11538450000000466
        },
        {
          "name": "D3",
          "midi": 50,
          "time": 154.96138350000027,
          "velocity": 0.7874015748031497,
          "duration": 0.11538450000000466
        },
        {
          "name": "D#3",
          "midi": 51,
          "time": 155.07676800000027,
          "velocity": 0.7874015748031497,
          "duration": 0.23076900000000933
        },
        {
          "name": "D#3",
          "midi": 51,
          "time": 155.30753700000028,
          "velocity": 0.7874015748031497,
          "duration": 0.23076900000000933
        },
        {
          "name": "D#3",
          "midi": 51,
          "time": 155.5383060000003,
          "velocity": 0.7874015748031497,
          "duration": 0.23076900000000933
        },
        {
          "name": "D#3",
          "midi": 51,
          "time": 155.7690750000003,
          "velocity": 0.7874015748031497,
          "duration": 0.23076900000000933
        },
        {
          "name": "F#3",
          "midi": 54,
          "time": 155.9998440000003,
          "velocity": 0.7874015748031497,
          "duration": 0.23076900000000933
        },
        {
          "name": "D#3",
          "midi": 51,
          "time": 156.23061300000032,
          "velocity": 0.7874015748031497,
          "duration": 0.23076900000000933
        },
        {
          "name": "F#3",
          "midi": 54,
          "time": 156.46138200000033,
          "velocity": 0.7874015748031497,
          "duration": 0.23076900000000933
        },
        {
          "name": "F3",
          "midi": 53,
          "time": 156.69215100000034,
          "velocity": 0.7874015748031497,
          "duration": 0.23076900000000933
        },
        {
          "name": "D#3",
          "midi": 51,
          "time": 156.92292000000035,
          "velocity": 0.7874015748031497,
          "duration": 0.23076900000000933
        },
        {
          "name": "F3",
          "midi": 53,
          "time": 157.15368900000036,
          "velocity": 0.7874015748031497,
          "duration": 0.23076900000000933
        },
        {
          "name": "D3",
          "midi": 50,
          "time": 157.38445800000036,
          "velocity": 0.7874015748031497,
          "duration": 0.23076900000000933
        },
        {
          "name": "D3",
          "midi": 50,
          "time": 157.61522700000037,
          "velocity": 0.7874015748031497,
          "duration": 0.23076900000000933
        },
        {
          "name": "D3",
          "midi": 50,
          "time": 157.84599600000038,
          "velocity": 0.7874015748031497,
          "duration": 0.23076900000000933
        },
        {
          "name": "D3",
          "midi": 50,
          "time": 158.0767650000004,
          "velocity": 0.7874015748031497,
          "duration": 0.23076900000000933
        },
        {
          "name": "D3",
          "midi": 50,
          "time": 158.3075340000004,
          "velocity": 0.7874015748031497,
          "duration": 0.23076900000000933
        },
        {
          "name": "D3",
          "midi": 50,
          "time": 158.5383030000004,
          "velocity": 0.7874015748031497,
          "duration": 0.11538450000000466
        },
        {
          "name": "D3",
          "midi": 50,
          "time": 158.65368750000042,
          "velocity": 0.7874015748031497,
          "duration": 0.11538450000000466
        },
        {
          "name": "D#3",
          "midi": 51,
          "time": 158.76907200000042,
          "velocity": 0.7874015748031497,
          "duration": 0.23076900000000933
        },
        {
          "name": "D#3",
          "midi": 51,
          "time": 158.99984100000043,
          "velocity": 0.7874015748031497,
          "duration": 0.23076900000000933
        },
        {
          "name": "D#3",
          "midi": 51,
          "time": 159.23061000000044,
          "velocity": 0.7874015748031497,
          "duration": 0.23076900000000933
        },
        {
          "name": "D#3",
          "midi": 51,
          "time": 159.46137900000045,
          "velocity": 0.7874015748031497,
          "duration": 0.23076900000000933
        },
        {
          "name": "F#3",
          "midi": 54,
          "time": 159.69214800000046,
          "velocity": 0.7874015748031497,
          "duration": 0.23076900000000933
        },
        {
          "name": "D#3",
          "midi": 51,
          "time": 159.92291700000047,
          "velocity": 0.7874015748031497,
          "duration": 0.23076900000000933
        },
        {
          "name": "F#3",
          "midi": 54,
          "time": 160.15368600000048,
          "velocity": 0.7874015748031497,
          "duration": 0.23076900000000933
        },
        {
          "name": "F3",
          "midi": 53,
          "time": 160.3844550000005,
          "velocity": 0.7874015748031497,
          "duration": 0.23076900000000933
        },
        {
          "name": "D#3",
          "midi": 51,
          "time": 160.6152240000005,
          "velocity": 0.7874015748031497,
          "duration": 0.23076900000000933
        },
        {
          "name": "F3",
          "midi": 53,
          "time": 160.8459930000005,
          "velocity": 0.7874015748031497,
          "duration": 0.23076900000000933
        },
        {
          "name": "D3",
          "midi": 50,
          "time": 161.0767620000005,
          "velocity": 0.7874015748031497,
          "duration": 0.23076900000000933
        },
        {
          "name": "D3",
          "midi": 50,
          "time": 161.30753100000052,
          "velocity": 0.7874015748031497,
          "duration": 0.23076900000000933
        },
        {
          "name": "D3",
          "midi": 50,
          "time": 161.53830000000053,
          "velocity": 0.7874015748031497,
          "duration": 0.23076900000000933
        },
        {
          "name": "D3",
          "midi": 50,
          "time": 161.76906900000054,
          "velocity": 0.7874015748031497,
          "duration": 0.23076900000000933
        },
        {
          "name": "D3",
          "midi": 50,
          "time": 161.99983800000055,
          "velocity": 0.7874015748031497,
          "duration": 0.23076900000000933
        },
        {
          "name": "D3",
          "midi": 50,
          "time": 162.23060700000056,
          "velocity": 0.7874015748031497,
          "duration": 0.11538450000000466
        },
        {
          "name": "D3",
          "midi": 50,
          "time": 162.34599150000057,
          "velocity": 0.7874015748031497,
          "duration": 0.11538450000000466
        },
        {
          "name": "D#3",
          "midi": 51,
          "time": 162.46137600000057,
          "velocity": 0.7874015748031497,
          "duration": 0.23076900000000933
        },
        {
          "name": "D#3",
          "midi": 51,
          "time": 162.69214500000058,
          "velocity": 0.7874015748031497,
          "duration": 0.23076900000000933
        },
        {
          "name": "D#3",
          "midi": 51,
          "time": 162.9229140000006,
          "velocity": 0.7874015748031497,
          "duration": 0.23076900000000933
        },
        {
          "name": "D#3",
          "midi": 51,
          "time": 163.1536830000006,
          "velocity": 0.7874015748031497,
          "duration": 0.23076900000000933
        },
        {
          "name": "F#3",
          "midi": 54,
          "time": 163.3844520000006,
          "velocity": 0.7874015748031497,
          "duration": 0.23076900000000933
        },
        {
          "name": "D#3",
          "midi": 51,
          "time": 163.61522100000062,
          "velocity": 0.7874015748031497,
          "duration": 0.23076900000000933
        },
        {
          "name": "F#3",
          "midi": 54,
          "time": 163.84599000000063,
          "velocity": 0.7874015748031497,
          "duration": 0.23076900000000933
        },
        {
          "name": "F3",
          "midi": 53,
          "time": 164.07675900000064,
          "velocity": 0.7874015748031497,
          "duration": 0.23076900000000933
        },
        {
          "name": "D#3",
          "midi": 51,
          "time": 164.30752800000064,
          "velocity": 0.7874015748031497,
          "duration": 0.23076900000000933
        },
        {
          "name": "F3",
          "midi": 53,
          "time": 164.53829700000065,
          "velocity": 0.7874015748031497,
          "duration": 0.23076900000000933
        },
        {
          "name": "D3",
          "midi": 50,
          "time": 164.76906600000066,
          "velocity": 0.7874015748031497,
          "duration": 0.23076900000000933
        },
        {
          "name": "D3",
          "midi": 50,
          "time": 164.99983500000067,
          "velocity": 0.7874015748031497,
          "duration": 0.23076900000000933
        },
        {
          "name": "D3",
          "midi": 50,
          "time": 165.23060400000068,
          "velocity": 0.7874015748031497,
          "duration": 0.23076900000000933
        },
        {
          "name": "D3",
          "midi": 50,
          "time": 165.4613730000007,
          "velocity": 0.7874015748031497,
          "duration": 0.23076900000000933
        },
        {
          "name": "D3",
          "midi": 50,
          "time": 165.6921420000007,
          "velocity": 0.7874015748031497,
          "duration": 0.23076900000000933
        },
        {
          "name": "D3",
          "midi": 50,
          "time": 165.9229110000007,
          "velocity": 0.7874015748031497,
          "duration": 0.11538450000000466
        },
        {
          "name": "D3",
          "midi": 50,
          "time": 166.03829550000071,
          "velocity": 0.7874015748031497,
          "duration": 0.11538450000000466
        },
        {
          "name": "D#3",
          "midi": 51,
          "time": 166.15368000000072,
          "velocity": 0.7874015748031497,
          "duration": 0.23076900000000933
        },
        {
          "name": "D#3",
          "midi": 51,
          "time": 166.38444900000073,
          "velocity": 0.7874015748031497,
          "duration": 0.23076900000000933
        },
        {
          "name": "D#3",
          "midi": 51,
          "time": 166.61521800000074,
          "velocity": 0.7874015748031497,
          "duration": 0.23076900000000933
        },
        {
          "name": "D#3",
          "midi": 51,
          "time": 166.84598700000075,
          "velocity": 0.7874015748031497,
          "duration": 0.23076900000000933
        },
        {
          "name": "F#3",
          "midi": 54,
          "time": 167.07675600000076,
          "velocity": 0.7874015748031497,
          "duration": 0.23076900000000933
        },
        {
          "name": "D#3",
          "midi": 51,
          "time": 167.30752500000077,
          "velocity": 0.7874015748031497,
          "duration": 0.23076900000000933
        },
        {
          "name": "F#3",
          "midi": 54,
          "time": 167.53829400000077,
          "velocity": 0.7874015748031497,
          "duration": 0.23076900000000933
        },
        {
          "name": "F3",
          "midi": 53,
          "time": 167.76906300000078,
          "velocity": 0.7874015748031497,
          "duration": 0.23076900000000933
        },
        {
          "name": "D#3",
          "midi": 51,
          "time": 167.9998320000008,
          "velocity": 0.7874015748031497,
          "duration": 0.23076900000000933
        },
        {
          "name": "F3",
          "midi": 53,
          "time": 168.2306010000008,
          "velocity": 0.7874015748031497,
          "duration": 0.23076900000000933
        },
        {
          "name": "D3",
          "midi": 50,
          "time": 168.4613700000008,
          "velocity": 0.7874015748031497,
          "duration": 0.23076900000000933
        },
        {
          "name": "D3",
          "midi": 50,
          "time": 168.69213900000082,
          "velocity": 0.7874015748031497,
          "duration": 0.23076900000000933
        },
        {
          "name": "D3",
          "midi": 50,
          "time": 168.92290800000083,
          "velocity": 0.7874015748031497,
          "duration": 0.23076900000000933
        },
        {
          "name": "D3",
          "midi": 50,
          "time": 169.15367700000084,
          "velocity": 0.7874015748031497,
          "duration": 0.23076900000000933
        },
        {
          "name": "D3",
          "midi": 50,
          "time": 169.38444600000085,
          "velocity": 0.7874015748031497,
          "duration": 0.23076900000000933
        },
        {
          "name": "D3",
          "midi": 50,
          "time": 169.61521500000086,
          "velocity": 0.7874015748031497,
          "duration": 0.11538450000000466
        },
        {
          "name": "D3",
          "midi": 50,
          "time": 169.73059950000086,
          "velocity": 0.7874015748031497,
          "duration": 0.11538450000000466
        },
        {
          "name": "D#3",
          "midi": 51,
          "time": 169.84598400000087,
          "velocity": 0.7874015748031497,
          "duration": 0.23076900000000933
        },
        {
          "name": "D#3",
          "midi": 51,
          "time": 170.07675300000088,
          "velocity": 0.7874015748031497,
          "duration": 0.23076900000000933
        },
        {
          "name": "D#3",
          "midi": 51,
          "time": 170.3075220000009,
          "velocity": 0.7874015748031497,
          "duration": 0.23076900000000933
        },
        {
          "name": "D#3",
          "midi": 51,
          "time": 170.5382910000009,
          "velocity": 0.7874015748031497,
          "duration": 0.23076900000000933
        },
        {
          "name": "F#3",
          "midi": 54,
          "time": 170.7690600000009,
          "velocity": 0.7874015748031497,
          "duration": 0.23076900000000933
        },
        {
          "name": "D#3",
          "midi": 51,
          "time": 170.99982900000091,
          "velocity": 0.7874015748031497,
          "duration": 0.23076900000000933
        },
        {
          "name": "F#3",
          "midi": 54,
          "time": 171.23059800000092,
          "velocity": 0.7874015748031497,
          "duration": 0.23076900000000933
        },
        {
          "name": "F3",
          "midi": 53,
          "time": 171.46136700000093,
          "velocity": 0.7874015748031497,
          "duration": 0.23076900000000933
        },
        {
          "name": "D#3",
          "midi": 51,
          "time": 171.69213600000094,
          "velocity": 0.7874015748031497,
          "duration": 0.23076900000000933
        },
        {
          "name": "F3",
          "midi": 53,
          "time": 171.92290500000095,
          "velocity": 0.7874015748031497,
          "duration": 0.23076900000000933
        },
        {
          "name": "D3",
          "midi": 50,
          "time": 172.15367400000096,
          "velocity": 0.7874015748031497,
          "duration": 0.23076900000000933
        },
        {
          "name": "D3",
          "midi": 50,
          "time": 172.38444300000097,
          "velocity": 0.7874015748031497,
          "duration": 0.23076900000000933
        },
        {
          "name": "D3",
          "midi": 50,
          "time": 172.61521200000098,
          "velocity": 0.7874015748031497,
          "duration": 0.23076900000000933
        },
        {
          "name": "D3",
          "midi": 50,
          "time": 172.845981000001,
          "velocity": 0.7874015748031497,
          "duration": 0.23076900000000933
        },
        {
          "name": "D3",
          "midi": 50,
          "time": 173.076750000001,
          "velocity": 0.7874015748031497,
          "duration": 0.23076900000000933
        },
        {
          "name": "D3",
          "midi": 50,
          "time": 173.307519000001,
          "velocity": 0.7874015748031497,
          "duration": 0.11538450000000466
        },
        {
          "name": "D3",
          "midi": 50,
          "time": 173.422903500001,
          "velocity": 0.7874015748031497,
          "duration": 0.11538450000000466
        },
        {
          "name": "D#3",
          "midi": 51,
          "time": 173.53828800000102,
          "velocity": 0.7874015748031497,
          "duration": 0.23076900000000933
        },
        {
          "name": "D#3",
          "midi": 51,
          "time": 173.76905700000103,
          "velocity": 0.7874015748031497,
          "duration": 0.23076900000000933
        },
        {
          "name": "D#3",
          "midi": 51,
          "time": 173.99982600000104,
          "velocity": 0.7874015748031497,
          "duration": 0.23076900000000933
        },
        {
          "name": "D#3",
          "midi": 51,
          "time": 174.23059500000105,
          "velocity": 0.7874015748031497,
          "duration": 0.23076900000000933
        },
        {
          "name": "F#3",
          "midi": 54,
          "time": 174.46136400000105,
          "velocity": 0.7874015748031497,
          "duration": 0.23076900000000933
        },
        {
          "name": "D#3",
          "midi": 51,
          "time": 174.69213300000106,
          "velocity": 0.7874015748031497,
          "duration": 0.23076900000000933
        },
        {
          "name": "F#3",
          "midi": 54,
          "time": 174.92290200000107,
          "velocity": 0.7874015748031497,
          "duration": 0.23076900000000933
        },
        {
          "name": "F3",
          "midi": 53,
          "time": 175.15367100000108,
          "velocity": 0.7874015748031497,
          "duration": 0.23076900000000933
        },
        {
          "name": "D#3",
          "midi": 51,
          "time": 175.3844400000011,
          "velocity": 0.7874015748031497,
          "duration": 0.23076900000000933
        },
        {
          "name": "F3",
          "midi": 53,
          "time": 175.6152090000011,
          "velocity": 0.7874015748031497,
          "duration": 0.23076900000000933
        },
        {
          "name": "D3",
          "midi": 50,
          "time": 175.8459780000011,
          "velocity": 0.7874015748031497,
          "duration": 0.23076900000000933
        },
        {
          "name": "D3",
          "midi": 50,
          "time": 176.07674700000112,
          "velocity": 0.7874015748031497,
          "duration": 0.23076900000000933
        },
        {
          "name": "D3",
          "midi": 50,
          "time": 176.30751600000113,
          "velocity": 0.7874015748031497,
          "duration": 0.23076900000000933
        },
        {
          "name": "D3",
          "midi": 50,
          "time": 176.53828500000114,
          "velocity": 0.7874015748031497,
          "duration": 0.23076900000000933
        },
        {
          "name": "D3",
          "midi": 50,
          "time": 176.76905400000115,
          "velocity": 0.7874015748031497,
          "duration": 0.23076900000000933
        },
        {
          "name": "D3",
          "midi": 50,
          "time": 176.99982300000116,
          "velocity": 0.7874015748031497,
          "duration": 0.11538450000000466
        },
        {
          "name": "D3",
          "midi": 50,
          "time": 177.11520750000116,
          "velocity": 0.7874015748031497,
          "duration": 0.11538450000000466
        },
        {
          "name": "D#3",
          "midi": 51,
          "time": 177.23059200000117,
          "velocity": 0.7874015748031497,
          "duration": 0.23076900000000933
        },
        {
          "name": "D#3",
          "midi": 51,
          "time": 177.46136100000118,
          "velocity": 0.7874015748031497,
          "duration": 0.23076900000000933
        },
        {
          "name": "D#3",
          "midi": 51,
          "time": 177.69213000000119,
          "velocity": 0.7874015748031497,
          "duration": 0.23076900000000933
        },
        {
          "name": "D#3",
          "midi": 51,
          "time": 177.9228990000012,
          "velocity": 0.7874015748031497,
          "duration": 0.23076900000000933
        },
        {
          "name": "F#3",
          "midi": 54,
          "time": 178.1536680000012,
          "velocity": 0.7874015748031497,
          "duration": 0.23076900000000933
        },
        {
          "name": "D#3",
          "midi": 51,
          "time": 178.3844370000012,
          "velocity": 0.7874015748031497,
          "duration": 0.23076900000000933
        },
        {
          "name": "F#3",
          "midi": 54,
          "time": 178.61520600000122,
          "velocity": 0.7874015748031497,
          "duration": 0.23076900000000933
        },
        {
          "name": "F3",
          "midi": 53,
          "time": 178.84597500000123,
          "velocity": 0.7874015748031497,
          "duration": 0.23076900000000933
        },
        {
          "name": "D#3",
          "midi": 51,
          "time": 179.07674400000124,
          "velocity": 0.7874015748031497,
          "duration": 0.23076900000000933
        },
        {
          "name": "F3",
          "midi": 53,
          "time": 179.30751300000125,
          "velocity": 0.7874015748031497,
          "duration": 0.23076900000000933
        },
        {
          "name": "D3",
          "midi": 50,
          "time": 179.53828200000126,
          "velocity": 0.7874015748031497,
          "duration": 0.23076900000000933
        },
        {
          "name": "D3",
          "midi": 50,
          "time": 179.76905100000127,
          "velocity": 0.7874015748031497,
          "duration": 0.23076900000000933
        },
        {
          "name": "D3",
          "midi": 50,
          "time": 179.99982000000128,
          "velocity": 0.7874015748031497,
          "duration": 0.23076900000000933
        },
        {
          "name": "D3",
          "midi": 50,
          "time": 180.2305890000013,
          "velocity": 0.7874015748031497,
          "duration": 0.23076900000000933
        },
        {
          "name": "D3",
          "midi": 50,
          "time": 180.4613580000013,
          "velocity": 0.7874015748031497,
          "duration": 0.23076900000000933
        },
        {
          "name": "D3",
          "midi": 50,
          "time": 180.6921270000013,
          "velocity": 0.7874015748031497,
          "duration": 0.11538450000000466
        },
        {
          "name": "D3",
          "midi": 50,
          "time": 180.8075115000013,
          "velocity": 0.7874015748031497,
          "duration": 0.11538450000000466
        },
        {
          "name": "D#3",
          "midi": 51,
          "time": 258.4612800000013,
          "velocity": 0.7874015748031497,
          "duration": 0.23076900000000933
        },
        {
          "name": "D#3",
          "midi": 51,
          "time": 258.6920490000013,
          "velocity": 0.7874015748031497,
          "duration": 0.23076900000000933
        },
        {
          "name": "D#3",
          "midi": 51,
          "time": 258.9228180000013,
          "velocity": 0.7874015748031497,
          "duration": 0.23076900000000933
        },
        {
          "name": "D#3",
          "midi": 51,
          "time": 259.1535870000013,
          "velocity": 0.7874015748031497,
          "duration": 0.23076900000000933
        },
        {
          "name": "F#3",
          "midi": 54,
          "time": 259.38435600000133,
          "velocity": 0.7874015748031497,
          "duration": 0.23076900000000933
        },
        {
          "name": "D#3",
          "midi": 51,
          "time": 259.61512500000134,
          "velocity": 0.7874015748031497,
          "duration": 0.23076900000000933
        },
        {
          "name": "F#3",
          "midi": 54,
          "time": 259.84589400000135,
          "velocity": 0.7874015748031497,
          "duration": 0.23076900000000933
        },
        {
          "name": "F3",
          "midi": 53,
          "time": 260.07666300000136,
          "velocity": 0.7874015748031497,
          "duration": 0.23076900000000933
        },
        {
          "name": "D#3",
          "midi": 51,
          "time": 260.30743200000137,
          "velocity": 0.7874015748031497,
          "duration": 0.23076900000000933
        },
        {
          "name": "F3",
          "midi": 53,
          "time": 260.5382010000014,
          "velocity": 0.7874015748031497,
          "duration": 0.23076900000000933
        },
        {
          "name": "D3",
          "midi": 50,
          "time": 260.7689700000014,
          "velocity": 0.7874015748031497,
          "duration": 0.23076900000000933
        },
        {
          "name": "D3",
          "midi": 50,
          "time": 260.9997390000014,
          "velocity": 0.7874015748031497,
          "duration": 0.23076900000000933
        },
        {
          "name": "D3",
          "midi": 50,
          "time": 261.2305080000014,
          "velocity": 0.7874015748031497,
          "duration": 0.23076900000000933
        },
        {
          "name": "D3",
          "midi": 50,
          "time": 261.4612770000014,
          "velocity": 0.7874015748031497,
          "duration": 0.23076900000000933
        },
        {
          "name": "D3",
          "midi": 50,
          "time": 261.6920460000014,
          "velocity": 0.7874015748031497,
          "duration": 0.23076900000000933
        },
        {
          "name": "D3",
          "midi": 50,
          "time": 261.92281500000144,
          "velocity": 0.7874015748031497,
          "duration": 0.11538450000000466
        },
        {
          "name": "D3",
          "midi": 50,
          "time": 262.03819950000144,
          "velocity": 0.7874015748031497,
          "duration": 0.11538450000000466
        },
        {
          "name": "D#3",
          "midi": 51,
          "time": 262.15358400000144,
          "velocity": 0.7874015748031497,
          "duration": 0.23076900000000933
        },
        {
          "name": "D#3",
          "midi": 51,
          "time": 262.38435300000145,
          "velocity": 0.7874015748031497,
          "duration": 0.23076900000000933
        },
        {
          "name": "D#3",
          "midi": 51,
          "time": 262.61512200000146,
          "velocity": 0.7874015748031497,
          "duration": 0.23076900000000933
        },
        {
          "name": "D#3",
          "midi": 51,
          "time": 262.8458910000015,
          "velocity": 0.7874015748031497,
          "duration": 0.23076900000000933
        },
        {
          "name": "F#3",
          "midi": 54,
          "time": 263.0766600000015,
          "velocity": 0.7874015748031497,
          "duration": 0.23076900000000933
        },
        {
          "name": "D#3",
          "midi": 51,
          "time": 263.3074290000015,
          "velocity": 0.7874015748031497,
          "duration": 0.23076900000000933
        },
        {
          "name": "F#3",
          "midi": 54,
          "time": 263.5381980000015,
          "velocity": 0.7874015748031497,
          "duration": 0.23076900000000933
        },
        {
          "name": "F3",
          "midi": 53,
          "time": 263.7689670000015,
          "velocity": 0.7874015748031497,
          "duration": 0.23076900000000933
        },
        {
          "name": "D#3",
          "midi": 51,
          "time": 263.9997360000015,
          "velocity": 0.7874015748031497,
          "duration": 0.23076900000000933
        },
        {
          "name": "F3",
          "midi": 53,
          "time": 264.23050500000153,
          "velocity": 0.7874015748031497,
          "duration": 0.23076900000000933
        },
        {
          "name": "D3",
          "midi": 50,
          "time": 264.46127400000154,
          "velocity": 0.7874015748031497,
          "duration": 0.23076900000000933
        },
        {
          "name": "D3",
          "midi": 50,
          "time": 264.69204300000155,
          "velocity": 0.7874015748031497,
          "duration": 0.23076900000000933
        },
        {
          "name": "D3",
          "midi": 50,
          "time": 264.92281200000156,
          "velocity": 0.7874015748031497,
          "duration": 0.23076900000000933
        },
        {
          "name": "D3",
          "midi": 50,
          "time": 265.15358100000157,
          "velocity": 0.7874015748031497,
          "duration": 0.23076900000000933
        },
        {
          "name": "D3",
          "midi": 50,
          "time": 265.3843500000016,
          "velocity": 0.7874015748031497,
          "duration": 0.23076900000000933
        },
        {
          "name": "D3",
          "midi": 50,
          "time": 265.6151190000016,
          "velocity": 0.7874015748031497,
          "duration": 0.11538450000000466
        },
        {
          "name": "D3",
          "midi": 50,
          "time": 265.7305035000016,
          "velocity": 0.7874015748031497,
          "duration": 0.11538450000000466
        },
        {
          "name": "D#3",
          "midi": 51,
          "time": 265.8458880000016,
          "velocity": 0.7874015748031497,
          "duration": 0.23076900000000933
        },
        {
          "name": "D#3",
          "midi": 51,
          "time": 266.0766570000016,
          "velocity": 0.7874015748031497,
          "duration": 0.23076900000000933
        },
        {
          "name": "D#3",
          "midi": 51,
          "time": 266.3074260000016,
          "velocity": 0.7874015748031497,
          "duration": 0.23076900000000933
        },
        {
          "name": "D#3",
          "midi": 51,
          "time": 266.5381950000016,
          "velocity": 0.7874015748031497,
          "duration": 0.23076900000000933
        },
        {
          "name": "F#3",
          "midi": 54,
          "time": 266.76896400000163,
          "velocity": 0.7874015748031497,
          "duration": 0.23076900000000933
        },
        {
          "name": "D#3",
          "midi": 51,
          "time": 266.99973300000164,
          "velocity": 0.7874015748031497,
          "duration": 0.23076900000000933
        },
        {
          "name": "F#3",
          "midi": 54,
          "time": 267.23050200000165,
          "velocity": 0.7874015748031497,
          "duration": 0.23076900000000933
        },
        {
          "name": "F3",
          "midi": 53,
          "time": 267.46127100000166,
          "velocity": 0.7874015748031497,
          "duration": 0.23076900000000933
        },
        {
          "name": "D#3",
          "midi": 51,
          "time": 267.69204000000167,
          "velocity": 0.7874015748031497,
          "duration": 0.23076900000000933
        },
        {
          "name": "F3",
          "midi": 53,
          "time": 267.9228090000017,
          "velocity": 0.7874015748031497,
          "duration": 0.23076900000000933
        },
        {
          "name": "D3",
          "midi": 50,
          "time": 268.1535780000017,
          "velocity": 0.7874015748031497,
          "duration": 0.23076900000000933
        },
        {
          "name": "D3",
          "midi": 50,
          "time": 268.3843470000017,
          "velocity": 0.7874015748031497,
          "duration": 0.23076900000000933
        },
        {
          "name": "D3",
          "midi": 50,
          "time": 268.6151160000017,
          "velocity": 0.7874015748031497,
          "duration": 0.23076900000000933
        },
        {
          "name": "D3",
          "midi": 50,
          "time": 268.8458850000017,
          "velocity": 0.7874015748031497,
          "duration": 0.23076900000000933
        },
        {
          "name": "D3",
          "midi": 50,
          "time": 269.0766540000017,
          "velocity": 0.7874015748031497,
          "duration": 0.23076900000000933
        },
        {
          "name": "D3",
          "midi": 50,
          "time": 269.30742300000173,
          "velocity": 0.7874015748031497,
          "duration": 0.11538450000000466
        },
        {
          "name": "D3",
          "midi": 50,
          "time": 269.42280750000174,
          "velocity": 0.7874015748031497,
          "duration": 0.11538450000000466
        },
        {
          "name": "D#3",
          "midi": 51,
          "time": 269.53819200000174,
          "velocity": 0.7874015748031497,
          "duration": 0.23076900000000933
        },
        {
          "name": "D#3",
          "midi": 51,
          "time": 269.76896100000175,
          "velocity": 0.7874015748031497,
          "duration": 0.23076900000000933
        },
        {
          "name": "D#3",
          "midi": 51,
          "time": 269.99973000000176,
          "velocity": 0.7874015748031497,
          "duration": 0.23076900000000933
        },
        {
          "name": "D#3",
          "midi": 51,
          "time": 270.23049900000177,
          "velocity": 0.7874015748031497,
          "duration": 0.23076900000000933
        },
        {
          "name": "F#3",
          "midi": 54,
          "time": 270.4612680000018,
          "velocity": 0.7874015748031497,
          "duration": 0.23076900000000933
        },
        {
          "name": "D#3",
          "midi": 51,
          "time": 270.6920370000018,
          "velocity": 0.7874015748031497,
          "duration": 0.23076900000000933
        },
        {
          "name": "F#3",
          "midi": 54,
          "time": 270.9228060000018,
          "velocity": 0.7874015748031497,
          "duration": 0.23076900000000933
        },
        {
          "name": "F3",
          "midi": 53,
          "time": 271.1535750000018,
          "velocity": 0.7874015748031497,
          "duration": 0.23076900000000933
        },
        {
          "name": "D#3",
          "midi": 51,
          "time": 271.3843440000018,
          "velocity": 0.7874015748031497,
          "duration": 0.23076900000000933
        },
        {
          "name": "F3",
          "midi": 53,
          "time": 271.6151130000018,
          "velocity": 0.7874015748031497,
          "duration": 0.23076900000000933
        },
        {
          "name": "D3",
          "midi": 50,
          "time": 271.84588200000184,
          "velocity": 0.7874015748031497,
          "duration": 0.23076900000000933
        },
        {
          "name": "D3",
          "midi": 50,
          "time": 272.07665100000185,
          "velocity": 0.7874015748031497,
          "duration": 0.23076900000000933
        },
        {
          "name": "D3",
          "midi": 50,
          "time": 272.30742000000185,
          "velocity": 0.7874015748031497,
          "duration": 0.23076900000000933
        },
        {
          "name": "D3",
          "midi": 50,
          "time": 272.53818900000186,
          "velocity": 0.7874015748031497,
          "duration": 0.23076900000000933
        },
        {
          "name": "D3",
          "midi": 50,
          "time": 272.7689580000019,
          "velocity": 0.7874015748031497,
          "duration": 0.23076900000000933
        },
        {
          "name": "D3",
          "midi": 50,
          "time": 272.9997270000019,
          "velocity": 0.7874015748031497,
          "duration": 0.11538450000000466
        },
        {
          "name": "D3",
          "midi": 50,
          "time": 273.1151115000019,
          "velocity": 0.7874015748031497,
          "duration": 0.11538450000000466
        },
        {
          "name": "D#3",
          "midi": 51,
          "time": 273.2304960000019,
          "velocity": 0.7874015748031497,
          "duration": 0.23076900000000933
        },
        {
          "name": "D#3",
          "midi": 51,
          "time": 273.4612650000019,
          "velocity": 0.7874015748031497,
          "duration": 0.23076900000000933
        },
        {
          "name": "D#3",
          "midi": 51,
          "time": 273.6920340000019,
          "velocity": 0.7874015748031497,
          "duration": 0.23076900000000933
        },
        {
          "name": "D#3",
          "midi": 51,
          "time": 273.9228030000019,
          "velocity": 0.7874015748031497,
          "duration": 0.23076900000000933
        },
        {
          "name": "F#3",
          "midi": 54,
          "time": 274.15357200000193,
          "velocity": 0.7874015748031497,
          "duration": 0.23076900000000933
        },
        {
          "name": "D#3",
          "midi": 51,
          "time": 274.38434100000194,
          "velocity": 0.7874015748031497,
          "duration": 0.23076900000000933
        },
        {
          "name": "F#3",
          "midi": 54,
          "time": 274.61511000000195,
          "velocity": 0.7874015748031497,
          "duration": 0.23076900000000933
        },
        {
          "name": "F3",
          "midi": 53,
          "time": 274.84587900000196,
          "velocity": 0.7874015748031497,
          "duration": 0.23076900000000933
        },
        {
          "name": "D#3",
          "midi": 51,
          "time": 275.07664800000197,
          "velocity": 0.7874015748031497,
          "duration": 0.23076900000000933
        },
        {
          "name": "F3",
          "midi": 53,
          "time": 275.307417000002,
          "velocity": 0.7874015748031497,
          "duration": 0.23076900000000933
        },
        {
          "name": "D3",
          "midi": 50,
          "time": 275.538186000002,
          "velocity": 0.7874015748031497,
          "duration": 0.23076900000000933
        },
        {
          "name": "D3",
          "midi": 50,
          "time": 275.768955000002,
          "velocity": 0.7874015748031497,
          "duration": 0.23076900000000933
        },
        {
          "name": "D3",
          "midi": 50,
          "time": 275.999724000002,
          "velocity": 0.7874015748031497,
          "duration": 0.23076900000000933
        },
        {
          "name": "D3",
          "midi": 50,
          "time": 276.230493000002,
          "velocity": 0.7874015748031497,
          "duration": 0.23076900000000933
        },
        {
          "name": "D3",
          "midi": 50,
          "time": 276.461262000002,
          "velocity": 0.7874015748031497,
          "duration": 0.23076900000000933
        },
        {
          "name": "D3",
          "midi": 50,
          "time": 276.69203100000203,
          "velocity": 0.7874015748031497,
          "duration": 0.11538450000000466
        },
        {
          "name": "D3",
          "midi": 50,
          "time": 276.80741550000204,
          "velocity": 0.7874015748031497,
          "duration": 0.11538450000000466
        },
        {
          "name": "D#3",
          "midi": 51,
          "time": 276.92280000000204,
          "velocity": 0.7874015748031497,
          "duration": 0.23076900000000933
        },
        {
          "name": "D#3",
          "midi": 51,
          "time": 277.15356900000205,
          "velocity": 0.7874015748031497,
          "duration": 0.23076900000000933
        },
        {
          "name": "D#3",
          "midi": 51,
          "time": 277.38433800000206,
          "velocity": 0.7874015748031497,
          "duration": 0.23076900000000933
        },
        {
          "name": "D#3",
          "midi": 51,
          "time": 277.61510700000207,
          "velocity": 0.7874015748031497,
          "duration": 0.23076900000000933
        },
        {
          "name": "F#3",
          "midi": 54,
          "time": 277.8458760000021,
          "velocity": 0.7874015748031497,
          "duration": 0.23076900000000933
        },
        {
          "name": "D#3",
          "midi": 51,
          "time": 278.0766450000021,
          "velocity": 0.7874015748031497,
          "duration": 0.23076900000000933
        },
        {
          "name": "F#3",
          "midi": 54,
          "time": 278.3074140000021,
          "velocity": 0.7874015748031497,
          "duration": 0.23076900000000933
        },
        {
          "name": "F3",
          "midi": 53,
          "time": 278.5381830000021,
          "velocity": 0.7874015748031497,
          "duration": 0.23076900000000933
        },
        {
          "name": "D#3",
          "midi": 51,
          "time": 278.7689520000021,
          "velocity": 0.7874015748031497,
          "duration": 0.23076900000000933
        },
        {
          "name": "F3",
          "midi": 53,
          "time": 278.9997210000021,
          "velocity": 0.7874015748031497,
          "duration": 0.23076900000000933
        },
        {
          "name": "D3",
          "midi": 50,
          "time": 279.23049000000213,
          "velocity": 0.7874015748031497,
          "duration": 0.23076900000000933
        },
        {
          "name": "D3",
          "midi": 50,
          "time": 279.46125900000214,
          "velocity": 0.7874015748031497,
          "duration": 0.23076900000000933
        },
        {
          "name": "D3",
          "midi": 50,
          "time": 279.69202800000215,
          "velocity": 0.7874015748031497,
          "duration": 0.23076900000000933
        },
        {
          "name": "D3",
          "midi": 50,
          "time": 279.92279700000216,
          "velocity": 0.7874015748031497,
          "duration": 0.23076900000000933
        },
        {
          "name": "D3",
          "midi": 50,
          "time": 280.1535660000022,
          "velocity": 0.7874015748031497,
          "duration": 0.23076900000000933
        },
        {
          "name": "D3",
          "midi": 50,
          "time": 280.3843350000022,
          "velocity": 0.7874015748031497,
          "duration": 0.11538450000000466
        },
        {
          "name": "D3",
          "midi": 50,
          "time": 280.4997195000022,
          "velocity": 0.7874015748031497,
          "duration": 0.11538450000000466
        },
        {
          "name": "D#3",
          "midi": 51,
          "time": 280.6151040000022,
          "velocity": 0.7874015748031497,
          "duration": 0.23076900000000933
        },
        {
          "name": "D#3",
          "midi": 51,
          "time": 280.8458730000022,
          "velocity": 0.7874015748031497,
          "duration": 0.23076900000000933
        },
        {
          "name": "D#3",
          "midi": 51,
          "time": 281.0766420000022,
          "velocity": 0.7874015748031497,
          "duration": 0.23076900000000933
        },
        {
          "name": "D#3",
          "midi": 51,
          "time": 281.3074110000022,
          "velocity": 0.7874015748031497,
          "duration": 0.23076900000000933
        },
        {
          "name": "F#3",
          "midi": 54,
          "time": 281.5381800000022,
          "velocity": 0.7874015748031497,
          "duration": 0.23076900000000933
        },
        {
          "name": "D#3",
          "midi": 51,
          "time": 281.76894900000224,
          "velocity": 0.7874015748031497,
          "duration": 0.23076900000000933
        },
        {
          "name": "F#3",
          "midi": 54,
          "time": 281.99971800000225,
          "velocity": 0.7874015748031497,
          "duration": 0.23076900000000933
        },
        {
          "name": "F3",
          "midi": 53,
          "time": 282.23048700000226,
          "velocity": 0.7874015748031497,
          "duration": 0.23076900000000933
        },
        {
          "name": "D#3",
          "midi": 51,
          "time": 282.46125600000227,
          "velocity": 0.7874015748031497,
          "duration": 0.23076900000000933
        },
        {
          "name": "F3",
          "midi": 53,
          "time": 282.6920250000023,
          "velocity": 0.7874015748031497,
          "duration": 0.23076900000000933
        },
        {
          "name": "D3",
          "midi": 50,
          "time": 282.9227940000023,
          "velocity": 0.7874015748031497,
          "duration": 0.23076900000000933
        },
        {
          "name": "D3",
          "midi": 50,
          "time": 283.1535630000023,
          "velocity": 0.7874015748031497,
          "duration": 0.23076900000000933
        },
        {
          "name": "D3",
          "midi": 50,
          "time": 283.3843320000023,
          "velocity": 0.7874015748031497,
          "duration": 0.23076900000000933
        },
        {
          "name": "D3",
          "midi": 50,
          "time": 283.6151010000023,
          "velocity": 0.7874015748031497,
          "duration": 0.23076900000000933
        },
        {
          "name": "D3",
          "midi": 50,
          "time": 283.8458700000023,
          "velocity": 0.7874015748031497,
          "duration": 0.23076900000000933
        },
        {
          "name": "D3",
          "midi": 50,
          "time": 284.07663900000233,
          "velocity": 0.7874015748031497,
          "duration": 0.11538450000000466
        },
        {
          "name": "D3",
          "midi": 50,
          "time": 284.19202350000234,
          "velocity": 0.7874015748031497,
          "duration": 0.11538450000000466
        },
        {
          "name": "D#3",
          "midi": 51,
          "time": 284.30740800000234,
          "velocity": 0.7874015748031497,
          "duration": 0.23076900000000933
        },
        {
          "name": "D#3",
          "midi": 51,
          "time": 284.53817700000235,
          "velocity": 0.7874015748031497,
          "duration": 0.23076900000000933
        },
        {
          "name": "D#3",
          "midi": 51,
          "time": 284.76894600000236,
          "velocity": 0.7874015748031497,
          "duration": 0.23076900000000933
        },
        {
          "name": "D#3",
          "midi": 51,
          "time": 284.99971500000237,
          "velocity": 0.7874015748031497,
          "duration": 0.23076900000000933
        },
        {
          "name": "F#3",
          "midi": 54,
          "time": 285.2304840000024,
          "velocity": 0.7874015748031497,
          "duration": 0.23076900000000933
        },
        {
          "name": "D#3",
          "midi": 51,
          "time": 285.4612530000024,
          "velocity": 0.7874015748031497,
          "duration": 0.23076900000000933
        },
        {
          "name": "F#3",
          "midi": 54,
          "time": 285.6920220000024,
          "velocity": 0.7874015748031497,
          "duration": 0.23076900000000933
        },
        {
          "name": "F3",
          "midi": 53,
          "time": 285.9227910000024,
          "velocity": 0.7874015748031497,
          "duration": 0.23076900000000933
        },
        {
          "name": "D#3",
          "midi": 51,
          "time": 286.1535600000024,
          "velocity": 0.7874015748031497,
          "duration": 0.23076900000000933
        },
        {
          "name": "F3",
          "midi": 53,
          "time": 286.3843290000024,
          "velocity": 0.7874015748031497,
          "duration": 0.23076900000000933
        },
        {
          "name": "D3",
          "midi": 50,
          "time": 286.61509800000243,
          "velocity": 0.7874015748031497,
          "duration": 0.23076900000000933
        },
        {
          "name": "D3",
          "midi": 50,
          "time": 286.84586700000244,
          "velocity": 0.7874015748031497,
          "duration": 0.23076900000000933
        },
        {
          "name": "D3",
          "midi": 50,
          "time": 287.07663600000245,
          "velocity": 0.7874015748031497,
          "duration": 0.23076900000000933
        },
        {
          "name": "D3",
          "midi": 50,
          "time": 287.30740500000246,
          "velocity": 0.7874015748031497,
          "duration": 0.23076900000000933
        },
        {
          "name": "D3",
          "midi": 50,
          "time": 287.53817400000247,
          "velocity": 0.7874015748031497,
          "duration": 0.23076900000000933
        },
        {
          "name": "D3",
          "midi": 50,
          "time": 287.7689430000025,
          "velocity": 0.7874015748031497,
          "duration": 0.11538450000000466
        },
        {
          "name": "D3",
          "midi": 50,
          "time": 287.8843275000025,
          "velocity": 0.7874015748031497,
          "duration": 0.11538450000000466
        },
        {
          "name": "D#3",
          "midi": 51,
          "time": 287.9997120000025,
          "velocity": 0.7874015748031497,
          "duration": 0.23076900000000933
        },
        {
          "name": "D#3",
          "midi": 51,
          "time": 288.2304810000025,
          "velocity": 0.7874015748031497,
          "duration": 0.23076900000000933
        },
        {
          "name": "D#3",
          "midi": 51,
          "time": 288.4612500000025,
          "velocity": 0.7874015748031497,
          "duration": 0.23076900000000933
        },
        {
          "name": "D#3",
          "midi": 51,
          "time": 288.6920190000025,
          "velocity": 0.7874015748031497,
          "duration": 0.23076900000000933
        },
        {
          "name": "F#3",
          "midi": 54,
          "time": 288.9227880000025,
          "velocity": 0.7874015748031497,
          "duration": 0.23076900000000933
        },
        {
          "name": "D#3",
          "midi": 51,
          "time": 289.15355700000254,
          "velocity": 0.7874015748031497,
          "duration": 0.23076900000000933
        },
        {
          "name": "F#3",
          "midi": 54,
          "time": 289.38432600000255,
          "velocity": 0.7874015748031497,
          "duration": 0.23076900000000933
        },
        {
          "name": "F3",
          "midi": 53,
          "time": 289.61509500000255,
          "velocity": 0.7874015748031497,
          "duration": 0.23076900000000933
        },
        {
          "name": "D#3",
          "midi": 51,
          "time": 289.84586400000256,
          "velocity": 0.7874015748031497,
          "duration": 0.23076900000000933
        },
        {
          "name": "F3",
          "midi": 53,
          "time": 290.0766330000026,
          "velocity": 0.7874015748031497,
          "duration": 0.23076900000000933
        },
        {
          "name": "D3",
          "midi": 50,
          "time": 290.3074020000026,
          "velocity": 0.7874015748031497,
          "duration": 0.23076900000000933
        },
        {
          "name": "D3",
          "midi": 50,
          "time": 290.5381710000026,
          "velocity": 0.7874015748031497,
          "duration": 0.23076900000000933
        },
        {
          "name": "D3",
          "midi": 50,
          "time": 290.7689400000026,
          "velocity": 0.7874015748031497,
          "duration": 0.23076900000000933
        },
        {
          "name": "D3",
          "midi": 50,
          "time": 290.9997090000026,
          "velocity": 0.7874015748031497,
          "duration": 0.23076900000000933
        },
        {
          "name": "D3",
          "midi": 50,
          "time": 291.2304780000026,
          "velocity": 0.7874015748031497,
          "duration": 0.23076900000000933
        },
        {
          "name": "D3",
          "midi": 50,
          "time": 291.46124700000263,
          "velocity": 0.7874015748031497,
          "duration": 0.11538450000000466
        },
        {
          "name": "D3",
          "midi": 50,
          "time": 291.57663150000263,
          "velocity": 0.7874015748031497,
          "duration": 0.11538450000000466
        },
        {
          "name": "D#3",
          "midi": 51,
          "time": 291.69201600000264,
          "velocity": 0.7874015748031497,
          "duration": 0.23076900000000933
        },
        {
          "name": "D#3",
          "midi": 51,
          "time": 291.92278500000265,
          "velocity": 0.7874015748031497,
          "duration": 0.23076900000000933
        },
        {
          "name": "D#3",
          "midi": 51,
          "time": 292.15355400000266,
          "velocity": 0.7874015748031497,
          "duration": 0.23076900000000933
        },
        {
          "name": "D#3",
          "midi": 51,
          "time": 292.38432300000267,
          "velocity": 0.7874015748031497,
          "duration": 0.23076900000000933
        },
        {
          "name": "F#3",
          "midi": 54,
          "time": 292.6150920000027,
          "velocity": 0.7874015748031497,
          "duration": 0.23076900000000933
        },
        {
          "name": "D#3",
          "midi": 51,
          "time": 292.8458610000027,
          "velocity": 0.7874015748031497,
          "duration": 0.23076900000000933
        },
        {
          "name": "F#3",
          "midi": 54,
          "time": 293.0766300000027,
          "velocity": 0.7874015748031497,
          "duration": 0.23076900000000933
        },
        {
          "name": "F3",
          "midi": 53,
          "time": 293.3073990000027,
          "velocity": 0.7874015748031497,
          "duration": 0.23076900000000933
        },
        {
          "name": "D#3",
          "midi": 51,
          "time": 293.5381680000027,
          "velocity": 0.7874015748031497,
          "duration": 0.23076900000000933
        },
        {
          "name": "F3",
          "midi": 53,
          "time": 293.7689370000027,
          "velocity": 0.7874015748031497,
          "duration": 0.23076900000000933
        },
        {
          "name": "D3",
          "midi": 50,
          "time": 293.99970600000273,
          "velocity": 0.7874015748031497,
          "duration": 0.23076900000000933
        },
        {
          "name": "D3",
          "midi": 50,
          "time": 294.23047500000274,
          "velocity": 0.7874015748031497,
          "duration": 0.23076900000000933
        },
        {
          "name": "D3",
          "midi": 50,
          "time": 294.46124400000275,
          "velocity": 0.7874015748031497,
          "duration": 0.23076900000000933
        },
        {
          "name": "D3",
          "midi": 50,
          "time": 294.69201300000276,
          "velocity": 0.7874015748031497,
          "duration": 0.23076900000000933
        },
        {
          "name": "D3",
          "midi": 50,
          "time": 294.92278200000277,
          "velocity": 0.7874015748031497,
          "duration": 0.23076900000000933
        },
        {
          "name": "D3",
          "midi": 50,
          "time": 295.1535510000028,
          "velocity": 0.7874015748031497,
          "duration": 0.11538450000000466
        },
        {
          "name": "D3",
          "midi": 50,
          "time": 295.2689355000028,
          "velocity": 0.7874015748031497,
          "duration": 0.11538450000000466
        },
        {
          "name": "D#3",
          "midi": 51,
          "time": 295.3843200000028,
          "velocity": 0.7874015748031497,
          "duration": 0.23076900000000933
        },
        {
          "name": "D#3",
          "midi": 51,
          "time": 295.6150890000028,
          "velocity": 0.7874015748031497,
          "duration": 0.23076900000000933
        },
        {
          "name": "D#3",
          "midi": 51,
          "time": 295.8458580000028,
          "velocity": 0.7874015748031497,
          "duration": 0.23076900000000933
        },
        {
          "name": "D#3",
          "midi": 51,
          "time": 296.0766270000028,
          "velocity": 0.7874015748031497,
          "duration": 0.23076900000000933
        },
        {
          "name": "F#3",
          "midi": 54,
          "time": 296.3073960000028,
          "velocity": 0.7874015748031497,
          "duration": 0.23076900000000933
        },
        {
          "name": "D#3",
          "midi": 51,
          "time": 296.53816500000283,
          "velocity": 0.7874015748031497,
          "duration": 0.23076900000000933
        },
        {
          "name": "F#3",
          "midi": 54,
          "time": 296.76893400000284,
          "velocity": 0.7874015748031497,
          "duration": 0.23076900000000933
        },
        {
          "name": "F3",
          "midi": 53,
          "time": 296.99970300000285,
          "velocity": 0.7874015748031497,
          "duration": 0.23076900000000933
        },
        {
          "name": "D#3",
          "midi": 51,
          "time": 297.23047200000286,
          "velocity": 0.7874015748031497,
          "duration": 0.23076900000000933
        },
        {
          "name": "F3",
          "midi": 53,
          "time": 297.4612410000029,
          "velocity": 0.7874015748031497,
          "duration": 0.23076900000000933
        },
        {
          "name": "D3",
          "midi": 50,
          "time": 297.6920100000029,
          "velocity": 0.7874015748031497,
          "duration": 0.23076900000000933
        },
        {
          "name": "D3",
          "midi": 50,
          "time": 297.9227790000029,
          "velocity": 0.7874015748031497,
          "duration": 0.23076900000000933
        },
        {
          "name": "D3",
          "midi": 50,
          "time": 298.1535480000029,
          "velocity": 0.7874015748031497,
          "duration": 0.23076900000000933
        },
        {
          "name": "D3",
          "midi": 50,
          "time": 298.3843170000029,
          "velocity": 0.7874015748031497,
          "duration": 0.23076900000000933
        },
        {
          "name": "D3",
          "midi": 50,
          "time": 298.6150860000029,
          "velocity": 0.7874015748031497,
          "duration": 0.23076900000000933
        },
        {
          "name": "D3",
          "midi": 50,
          "time": 298.8458550000029,
          "velocity": 0.7874015748031497,
          "duration": 0.11538450000000466
        },
        {
          "name": "D3",
          "midi": 50,
          "time": 298.96123950000293,
          "velocity": 0.7874015748031497,
          "duration": 0.11538450000000466
        },
        {
          "name": "D#3",
          "midi": 51,
          "time": 299.07662400000294,
          "velocity": 0.7874015748031497,
          "duration": 0.23076900000000933
        },
        {
          "name": "D#3",
          "midi": 51,
          "time": 299.30739300000295,
          "velocity": 0.7874015748031497,
          "duration": 0.23076900000000933
        },
        {
          "name": "D#3",
          "midi": 51,
          "time": 299.53816200000296,
          "velocity": 0.7874015748031497,
          "duration": 0.23076900000000933
        },
        {
          "name": "D#3",
          "midi": 51,
          "time": 299.76893100000296,
          "velocity": 0.7874015748031497,
          "duration": 0.23076900000000933
        },
        {
          "name": "F#3",
          "midi": 54,
          "time": 299.999700000003,
          "velocity": 0.7874015748031497,
          "duration": 0.23076900000000933
        },
        {
          "name": "D#3",
          "midi": 51,
          "time": 300.230469000003,
          "velocity": 0.7874015748031497,
          "duration": 0.23076900000000933
        },
        {
          "name": "F#3",
          "midi": 54,
          "time": 300.461238000003,
          "velocity": 0.7874015748031497,
          "duration": 0.23076900000000933
        },
        {
          "name": "F3",
          "midi": 53,
          "time": 300.692007000003,
          "velocity": 0.7874015748031497,
          "duration": 0.23076900000000933
        },
        {
          "name": "D#3",
          "midi": 51,
          "time": 300.922776000003,
          "velocity": 0.7874015748031497,
          "duration": 0.23076900000000933
        },
        {
          "name": "F3",
          "midi": 53,
          "time": 301.153545000003,
          "velocity": 0.7874015748031497,
          "duration": 0.23076900000000933
        },
        {
          "name": "D3",
          "midi": 50,
          "time": 301.38431400000303,
          "velocity": 0.7874015748031497,
          "duration": 0.23076900000000933
        },
        {
          "name": "D3",
          "midi": 50,
          "time": 301.61508300000304,
          "velocity": 0.7874015748031497,
          "duration": 0.23076900000000933
        },
        {
          "name": "D3",
          "midi": 50,
          "time": 301.84585200000305,
          "velocity": 0.7874015748031497,
          "duration": 0.23076900000000933
        },
        {
          "name": "D3",
          "midi": 50,
          "time": 302.07662100000306,
          "velocity": 0.7874015748031497,
          "duration": 0.23076900000000933
        },
        {
          "name": "D3",
          "midi": 50,
          "time": 302.30739000000307,
          "velocity": 0.7874015748031497,
          "duration": 0.23076900000000933
        },
        {
          "name": "D3",
          "midi": 50,
          "time": 302.5381590000031,
          "velocity": 0.7874015748031497,
          "duration": 0.11538450000000466
        },
        {
          "name": "D3",
          "midi": 50,
          "time": 302.6535435000031,
          "velocity": 0.7874015748031497,
          "duration": 0.11538450000000466
        },
        {
          "name": "D#3",
          "midi": 51,
          "time": 302.7689280000031,
          "velocity": 0.7874015748031497,
          "duration": 0.23076900000000933
        },
        {
          "name": "D#3",
          "midi": 51,
          "time": 302.9996970000031,
          "velocity": 0.7874015748031497,
          "duration": 0.23076900000000933
        },
        {
          "name": "D#3",
          "midi": 51,
          "time": 303.2304660000031,
          "velocity": 0.7874015748031497,
          "duration": 0.23076900000000933
        },
        {
          "name": "D#3",
          "midi": 51,
          "time": 303.4612350000031,
          "velocity": 0.7874015748031497,
          "duration": 0.23076900000000933
        },
        {
          "name": "F#3",
          "midi": 54,
          "time": 303.6920040000031,
          "velocity": 0.7874015748031497,
          "duration": 0.23076900000000933
        },
        {
          "name": "D#3",
          "midi": 51,
          "time": 303.92277300000313,
          "velocity": 0.7874015748031497,
          "duration": 0.23076900000000933
        },
        {
          "name": "F#3",
          "midi": 54,
          "time": 304.15354200000314,
          "velocity": 0.7874015748031497,
          "duration": 0.23076900000000933
        },
        {
          "name": "F3",
          "midi": 53,
          "time": 304.38431100000315,
          "velocity": 0.7874015748031497,
          "duration": 0.23076900000000933
        },
        {
          "name": "D#3",
          "midi": 51,
          "time": 304.61508000000316,
          "velocity": 0.7874015748031497,
          "duration": 0.23076900000000933
        },
        {
          "name": "F3",
          "midi": 53,
          "time": 304.84584900000317,
          "velocity": 0.7874015748031497,
          "duration": 0.23076900000000933
        },
        {
          "name": "D3",
          "midi": 50,
          "time": 305.0766180000032,
          "velocity": 0.7874015748031497,
          "duration": 0.23076900000000933
        },
        {
          "name": "D3",
          "midi": 50,
          "time": 305.3073870000032,
          "velocity": 0.7874015748031497,
          "duration": 0.23076900000000933
        },
        {
          "name": "D3",
          "midi": 50,
          "time": 305.5381560000032,
          "velocity": 0.7874015748031497,
          "duration": 0.23076900000000933
        },
        {
          "name": "D3",
          "midi": 50,
          "time": 305.7689250000032,
          "velocity": 0.7874015748031497,
          "duration": 0.23076900000000933
        },
        {
          "name": "D3",
          "midi": 50,
          "time": 305.9996940000032,
          "velocity": 0.7874015748031497,
          "duration": 0.23076900000000933
        },
        {
          "name": "D3",
          "midi": 50,
          "time": 306.2304630000032,
          "velocity": 0.7874015748031497,
          "duration": 0.11538450000000466
        },
        {
          "name": "D3",
          "midi": 50,
          "time": 306.34584750000323,
          "velocity": 0.7874015748031497,
          "duration": 0.11538450000000466
        },
        {
          "name": "D#3",
          "midi": 51,
          "time": 306.46123200000324,
          "velocity": 0.7874015748031497,
          "duration": 0.23076900000000933
        },
        {
          "name": "D#3",
          "midi": 51,
          "time": 306.69200100000324,
          "velocity": 0.7874015748031497,
          "duration": 0.23076900000000933
        },
        {
          "name": "D#3",
          "midi": 51,
          "time": 306.92277000000325,
          "velocity": 0.7874015748031497,
          "duration": 0.23076900000000933
        },
        {
          "name": "D#3",
          "midi": 51,
          "time": 307.15353900000326,
          "velocity": 0.7874015748031497,
          "duration": 0.23076900000000933
        },
        {
          "name": "F#3",
          "midi": 54,
          "time": 307.3843080000033,
          "velocity": 0.7874015748031497,
          "duration": 0.23076900000000933
        },
        {
          "name": "D#3",
          "midi": 51,
          "time": 307.6150770000033,
          "velocity": 0.7874015748031497,
          "duration": 0.23076900000000933
        },
        {
          "name": "F#3",
          "midi": 54,
          "time": 307.8458460000033,
          "velocity": 0.7874015748031497,
          "duration": 0.23076900000000933
        },
        {
          "name": "F3",
          "midi": 53,
          "time": 308.0766150000033,
          "velocity": 0.7874015748031497,
          "duration": 0.23076900000000933
        },
        {
          "name": "D#3",
          "midi": 51,
          "time": 308.3073840000033,
          "velocity": 0.7874015748031497,
          "duration": 0.23076900000000933
        },
        {
          "name": "F3",
          "midi": 53,
          "time": 308.5381530000033,
          "velocity": 0.7874015748031497,
          "duration": 0.23076900000000933
        },
        {
          "name": "D3",
          "midi": 50,
          "time": 308.76892200000333,
          "velocity": 0.7874015748031497,
          "duration": 0.23076900000000933
        },
        {
          "name": "D3",
          "midi": 50,
          "time": 308.99969100000334,
          "velocity": 0.7874015748031497,
          "duration": 0.23076900000000933
        },
        {
          "name": "D3",
          "midi": 50,
          "time": 309.23046000000335,
          "velocity": 0.7874015748031497,
          "duration": 0.23076900000000933
        },
        {
          "name": "D3",
          "midi": 50,
          "time": 309.46122900000336,
          "velocity": 0.7874015748031497,
          "duration": 0.23076900000000933
        },
        {
          "name": "D3",
          "midi": 50,
          "time": 309.69199800000337,
          "velocity": 0.7874015748031497,
          "duration": 0.23076900000000933
        },
        {
          "name": "D3",
          "midi": 50,
          "time": 309.9227670000034,
          "velocity": 0.7874015748031497,
          "duration": 0.11538450000000466
        },
        {
          "name": "D3",
          "midi": 50,
          "time": 310.0381515000034,
          "velocity": 0.7874015748031497,
          "duration": 0.11538450000000466
        },
        {
          "name": "D#3",
          "midi": 51,
          "time": 310.1535360000034,
          "velocity": 0.7874015748031497,
          "duration": 0.23076900000000933
        },
        {
          "name": "D#3",
          "midi": 51,
          "time": 310.3843050000034,
          "velocity": 0.7874015748031497,
          "duration": 0.23076900000000933
        },
        {
          "name": "D#3",
          "midi": 51,
          "time": 310.6150740000034,
          "velocity": 0.7874015748031497,
          "duration": 0.23076900000000933
        },
        {
          "name": "D#3",
          "midi": 51,
          "time": 310.8458430000034,
          "velocity": 0.7874015748031497,
          "duration": 0.23076900000000933
        },
        {
          "name": "F#3",
          "midi": 54,
          "time": 311.0766120000034,
          "velocity": 0.7874015748031497,
          "duration": 0.23076900000000933
        },
        {
          "name": "D#3",
          "midi": 51,
          "time": 311.30738100000343,
          "velocity": 0.7874015748031497,
          "duration": 0.23076900000000933
        },
        {
          "name": "F#3",
          "midi": 54,
          "time": 311.53815000000344,
          "velocity": 0.7874015748031497,
          "duration": 0.23076900000000933
        },
        {
          "name": "F3",
          "midi": 53,
          "time": 311.76891900000345,
          "velocity": 0.7874015748031497,
          "duration": 0.23076900000000933
        },
        {
          "name": "D#3",
          "midi": 51,
          "time": 311.99968800000346,
          "velocity": 0.7874015748031497,
          "duration": 0.23076900000000933
        },
        {
          "name": "F3",
          "midi": 53,
          "time": 312.23045700000347,
          "velocity": 0.7874015748031497,
          "duration": 0.23076900000000933
        },
        {
          "name": "D3",
          "midi": 50,
          "time": 312.4612260000035,
          "velocity": 0.7874015748031497,
          "duration": 0.23076900000000933
        },
        {
          "name": "D3",
          "midi": 50,
          "time": 312.6919950000035,
          "velocity": 0.7874015748031497,
          "duration": 0.23076900000000933
        },
        {
          "name": "D3",
          "midi": 50,
          "time": 312.9227640000035,
          "velocity": 0.7874015748031497,
          "duration": 0.23076900000000933
        },
        {
          "name": "D3",
          "midi": 50,
          "time": 313.1535330000035,
          "velocity": 0.7874015748031497,
          "duration": 0.23076900000000933
        },
        {
          "name": "D3",
          "midi": 50,
          "time": 313.3843020000035,
          "velocity": 0.7874015748031497,
          "duration": 0.23076900000000933
        },
        {
          "name": "D3",
          "midi": 50,
          "time": 313.6150710000035,
          "velocity": 0.7874015748031497,
          "duration": 0.11538450000000466
        },
        {
          "name": "D3",
          "midi": 50,
          "time": 313.73045550000353,
          "velocity": 0.7874015748031497,
          "duration": 0.11538450000000466
        },
        {
          "name": "D#3",
          "midi": 51,
          "time": 313.84584000000353,
          "velocity": 0.7874015748031497,
          "duration": 0.23076900000000933
        },
        {
          "name": "D#3",
          "midi": 51,
          "time": 314.07660900000354,
          "velocity": 0.7874015748031497,
          "duration": 0.23076900000000933
        },
        {
          "name": "D#3",
          "midi": 51,
          "time": 314.30737800000355,
          "velocity": 0.7874015748031497,
          "duration": 0.23076900000000933
        },
        {
          "name": "D#3",
          "midi": 51,
          "time": 314.53814700000356,
          "velocity": 0.7874015748031497,
          "duration": 0.23076900000000933
        },
        {
          "name": "F#3",
          "midi": 54,
          "time": 314.76891600000357,
          "velocity": 0.7874015748031497,
          "duration": 0.23076900000000933
        },
        {
          "name": "D#3",
          "midi": 51,
          "time": 314.9996850000036,
          "velocity": 0.7874015748031497,
          "duration": 0.23076900000000933
        },
        {
          "name": "F#3",
          "midi": 54,
          "time": 315.2304540000036,
          "velocity": 0.7874015748031497,
          "duration": 0.23076900000000933
        },
        {
          "name": "F3",
          "midi": 53,
          "time": 315.4612230000036,
          "velocity": 0.7874015748031497,
          "duration": 0.23076900000000933
        },
        {
          "name": "D#3",
          "midi": 51,
          "time": 315.6919920000036,
          "velocity": 0.7874015748031497,
          "duration": 0.23076900000000933
        },
        {
          "name": "F3",
          "midi": 53,
          "time": 315.9227610000036,
          "velocity": 0.7874015748031497,
          "duration": 0.23076900000000933
        },
        {
          "name": "D3",
          "midi": 50,
          "time": 316.1535300000036,
          "velocity": 0.7874015748031497,
          "duration": 0.23076900000000933
        },
        {
          "name": "D3",
          "midi": 50,
          "time": 316.38429900000364,
          "velocity": 0.7874015748031497,
          "duration": 0.23076900000000933
        },
        {
          "name": "D3",
          "midi": 50,
          "time": 316.61506800000365,
          "velocity": 0.7874015748031497,
          "duration": 0.23076900000000933
        },
        {
          "name": "D3",
          "midi": 50,
          "time": 316.84583700000366,
          "velocity": 0.7874015748031497,
          "duration": 0.23076900000000933
        },
        {
          "name": "D3",
          "midi": 50,
          "time": 317.07660600000366,
          "velocity": 0.7874015748031497,
          "duration": 0.23076900000000933
        },
        {
          "name": "D3",
          "midi": 50,
          "time": 317.3073750000037,
          "velocity": 0.7874015748031497,
          "duration": 0.11538450000000466
        },
        {
          "name": "D3",
          "midi": 50,
          "time": 317.4227595000037,
          "velocity": 0.7874015748031497,
          "duration": 0.11538450000000466
        }
      ],
      "controlChanges": {
        "7": [
          {
            "number": 7,
            "time": 0,
            "value": 0.6377952755905512
          }
        ],
        "10": [
          {
            "number": 10,
            "time": 0,
            "value": 0.84251968503937
          }
        ]
      },
      "instrument": ""
    },
    {
      "name": "",
      "notes": [
        {
          "name": "C#5",
          "midi": 73,
          "time": 24.923052,
          "velocity": 0.23622047244094488,
          "duration": 3.692304
        },
        {
          "name": "F#5",
          "midi": 78,
          "time": 24.923052,
          "velocity": 0.23622047244094488,
          "duration": 3.692304
        },
        {
          "name": "C#5",
          "midi": 73,
          "time": 39.692268,
          "velocity": 0.23622047244094488,
          "duration": 3.692304
        },
        {
          "name": "F#5",
          "midi": 78,
          "time": 39.692268,
          "velocity": 0.23622047244094488,
          "duration": 3.692304
        },
        {
          "name": "C#5",
          "midi": 73,
          "time": 54.461484,
          "velocity": 0.23622047244094488,
          "duration": 3.692304
        },
        {
          "name": "F#5",
          "midi": 78,
          "time": 54.461484,
          "velocity": 0.23622047244094488,
          "duration": 3.692304
        },
        {
          "name": "C#5",
          "midi": 73,
          "time": 161.5383,
          "velocity": 0.23622047244094488,
          "duration": 3.692304000000007
        },
        {
          "name": "F#5",
          "midi": 78,
          "time": 161.5383,
          "velocity": 0.23622047244094488,
          "duration": 3.692304000000007
        },
        {
          "name": "C#5",
          "midi": 73,
          "time": 176.307516,
          "velocity": 0.23622047244094488,
          "duration": 3.692304000000007
        },
        {
          "name": "F#5",
          "midi": 78,
          "time": 176.307516,
          "velocity": 0.23622047244094488,
          "duration": 3.692304000000007
        },
        {
          "name": "C#5",
          "midi": 73,
          "time": 283.384332,
          "velocity": 0.23622047244094488,
          "duration": 3.6923039999999787
        },
        {
          "name": "F#5",
          "midi": 78,
          "time": 283.384332,
          "velocity": 0.23622047244094488,
          "duration": 3.6923039999999787
        },
        {
          "name": "C#5",
          "midi": 73,
          "time": 298.15354799999994,
          "velocity": 0.23622047244094488,
          "duration": 3.6923039999999787
        },
        {
          "name": "F#5",
          "midi": 78,
          "time": 298.15354799999994,
          "velocity": 0.23622047244094488,
          "duration": 3.6923039999999787
        },
        {
          "name": "C#5",
          "midi": 73,
          "time": 312.9227639999999,
          "velocity": 0.23622047244094488,
          "duration": 3.6923039999999787
        },
        {
          "name": "F#5",
          "midi": 78,
          "time": 312.9227639999999,
          "velocity": 0.23622047244094488,
          "duration": 3.6923039999999787
        }
      ],
      "controlChanges": {
        "7": [
          {
            "number": 7,
            "time": 0,
            "value": 1
          }
        ],
        "10": [
          {
            "number": 10,
            "time": 0,
            "value": 0.5118110236220472
          }
        ]
      },
      "instrument": ""
    },
    {
      "name": "",
      "notes": [
        {
          "name": "A#3",
          "midi": 58,
          "time": 59.07686399999999,
          "velocity": 0.7874015748031497,
          "duration": 1.8461519999999965
        },
        {
          "name": "A#2",
          "midi": 46,
          "time": 59.07686399999999,
          "velocity": 0.7874015748031497,
          "duration": 1.8461519999999965
        },
        {
          "name": "A3",
          "midi": 57,
          "time": 60.92301599999999,
          "velocity": 0.7874015748031497,
          "duration": 0.9230760000000018
        },
        {
          "name": "A2",
          "midi": 45,
          "time": 60.92301599999999,
          "velocity": 0.7874015748031497,
          "duration": 0.9230760000000018
        },
        {
          "name": "G#3",
          "midi": 56,
          "time": 61.84609199999999,
          "velocity": 0.7874015748031497,
          "duration": 0.9230760000000018
        },
        {
          "name": "G#2",
          "midi": 44,
          "time": 61.84609199999999,
          "velocity": 0.7874015748031497,
          "duration": 0.9230760000000018
        },
        {
          "name": "F#3",
          "midi": 54,
          "time": 62.76916799999999,
          "velocity": 0.7874015748031497,
          "duration": 3.692303999999993
        },
        {
          "name": "D#2",
          "midi": 39,
          "time": 62.76916799999999,
          "velocity": 0.7874015748031497,
          "duration": 3.692303999999993
        },
        {
          "name": "A#3",
          "midi": 58,
          "time": 66.46147199999999,
          "velocity": 0.7874015748031497,
          "duration": 1.8461520000000036
        },
        {
          "name": "A#2",
          "midi": 46,
          "time": 66.46147199999999,
          "velocity": 0.7874015748031497,
          "duration": 1.8461520000000036
        },
        {
          "name": "A3",
          "midi": 57,
          "time": 68.30762399999999,
          "velocity": 0.7874015748031497,
          "duration": 0.9230759999999947
        },
        {
          "name": "A2",
          "midi": 45,
          "time": 68.30762399999999,
          "velocity": 0.7874015748031497,
          "duration": 0.9230759999999947
        },
        {
          "name": "G#3",
          "midi": 56,
          "time": 69.23069999999998,
          "velocity": 0.7874015748031497,
          "duration": 0.9230759999999947
        },
        {
          "name": "G#2",
          "midi": 44,
          "time": 69.23069999999998,
          "velocity": 0.7874015748031497,
          "duration": 0.9230759999999947
        },
        {
          "name": "F#3",
          "midi": 54,
          "time": 70.15377599999998,
          "velocity": 0.7874015748031497,
          "duration": 3.692303999999993
        },
        {
          "name": "D#2",
          "midi": 39,
          "time": 70.15377599999998,
          "velocity": 0.7874015748031497,
          "duration": 3.692303999999993
        },
        {
          "name": "A#3",
          "midi": 58,
          "time": 73.84607999999997,
          "velocity": 0.7874015748031497,
          "duration": 1.8461520000000036
        },
        {
          "name": "A#2",
          "midi": 46,
          "time": 73.84607999999997,
          "velocity": 0.7874015748031497,
          "duration": 1.8461520000000036
        },
        {
          "name": "A3",
          "midi": 57,
          "time": 75.69223199999998,
          "velocity": 0.7874015748031497,
          "duration": 0.9230759999999947
        },
        {
          "name": "A2",
          "midi": 45,
          "time": 75.69223199999998,
          "velocity": 0.7874015748031497,
          "duration": 0.9230759999999947
        },
        {
          "name": "G#3",
          "midi": 56,
          "time": 76.61530799999997,
          "velocity": 0.7874015748031497,
          "duration": 0.9230759999999947
        },
        {
          "name": "G#2",
          "midi": 44,
          "time": 76.61530799999997,
          "velocity": 0.7874015748031497,
          "duration": 0.9230759999999947
        },
        {
          "name": "F#3",
          "midi": 54,
          "time": 77.53838399999997,
          "velocity": 0.7874015748031497,
          "duration": 3.692303999999993
        },
        {
          "name": "D#2",
          "midi": 39,
          "time": 77.53838399999997,
          "velocity": 0.7874015748031497,
          "duration": 3.692303999999993
        },
        {
          "name": "A#3",
          "midi": 58,
          "time": 81.23068799999996,
          "velocity": 0.7874015748031497,
          "duration": 1.8461520000000036
        },
        {
          "name": "A#2",
          "midi": 46,
          "time": 81.23068799999996,
          "velocity": 0.7874015748031497,
          "duration": 1.8461520000000036
        },
        {
          "name": "A3",
          "midi": 57,
          "time": 83.07683999999996,
          "velocity": 0.7874015748031497,
          "duration": 0.9230759999999947
        },
        {
          "name": "A2",
          "midi": 45,
          "time": 83.07683999999996,
          "velocity": 0.7874015748031497,
          "duration": 0.9230759999999947
        },
        {
          "name": "G#3",
          "midi": 56,
          "time": 83.99991599999996,
          "velocity": 0.7874015748031497,
          "duration": 0.9230759999999947
        },
        {
          "name": "G#2",
          "midi": 44,
          "time": 83.99991599999996,
          "velocity": 0.7874015748031497,
          "duration": 0.9230759999999947
        },
        {
          "name": "F#3",
          "midi": 54,
          "time": 84.92299199999995,
          "velocity": 0.7874015748031497,
          "duration": 3.692303999999993
        },
        {
          "name": "D#2",
          "midi": 39,
          "time": 84.92299199999995,
          "velocity": 0.7874015748031497,
          "duration": 3.692303999999993
        },
        {
          "name": "A#2",
          "midi": 46,
          "time": 121.84603199999994,
          "velocity": 0.7874015748031497,
          "duration": 1.8461520000000036
        },
        {
          "name": "A#3",
          "midi": 58,
          "time": 121.84603199999994,
          "velocity": 0.7874015748031497,
          "duration": 1.8461520000000036
        },
        {
          "name": "A3",
          "midi": 57,
          "time": 123.69218399999994,
          "velocity": 0.7874015748031497,
          "duration": 0.9230759999999947
        },
        {
          "name": "A2",
          "midi": 45,
          "time": 123.69218399999994,
          "velocity": 0.7874015748031497,
          "duration": 0.9230759999999947
        },
        {
          "name": "G#3",
          "midi": 56,
          "time": 124.61525999999994,
          "velocity": 0.7874015748031497,
          "duration": 0.9230759999999947
        },
        {
          "name": "G#2",
          "midi": 44,
          "time": 124.61525999999994,
          "velocity": 0.7874015748031497,
          "duration": 0.9230759999999947
        },
        {
          "name": "F#3",
          "midi": 54,
          "time": 125.53833599999993,
          "velocity": 0.7874015748031497,
          "duration": 3.692304000000007
        },
        {
          "name": "D#2",
          "midi": 39,
          "time": 125.53833599999993,
          "velocity": 0.7874015748031497,
          "duration": 3.692304000000007
        },
        {
          "name": "A#3",
          "midi": 58,
          "time": 129.23063999999994,
          "velocity": 0.7874015748031497,
          "duration": 1.8461519999999894
        },
        {
          "name": "A#2",
          "midi": 46,
          "time": 129.23063999999994,
          "velocity": 0.7874015748031497,
          "duration": 1.8461519999999894
        },
        {
          "name": "A3",
          "midi": 57,
          "time": 131.07679199999993,
          "velocity": 0.7874015748031497,
          "duration": 0.9230760000000089
        },
        {
          "name": "A2",
          "midi": 45,
          "time": 131.07679199999993,
          "velocity": 0.7874015748031497,
          "duration": 0.9230760000000089
        },
        {
          "name": "G#3",
          "midi": 56,
          "time": 131.99986799999994,
          "velocity": 0.7874015748031497,
          "duration": 0.9230760000000089
        },
        {
          "name": "G#2",
          "midi": 44,
          "time": 131.99986799999994,
          "velocity": 0.7874015748031497,
          "duration": 0.9230760000000089
        },
        {
          "name": "F#3",
          "midi": 54,
          "time": 132.92294399999994,
          "velocity": 0.7874015748031497,
          "duration": 3.692304000000007
        },
        {
          "name": "D#2",
          "midi": 39,
          "time": 132.92294399999994,
          "velocity": 0.7874015748031497,
          "duration": 3.692304000000007
        },
        {
          "name": "A#3",
          "midi": 58,
          "time": 136.61524799999995,
          "velocity": 0.7874015748031497,
          "duration": 1.8461519999999894
        },
        {
          "name": "A#2",
          "midi": 46,
          "time": 136.61524799999995,
          "velocity": 0.7874015748031497,
          "duration": 1.8461519999999894
        },
        {
          "name": "A3",
          "midi": 57,
          "time": 138.46139999999994,
          "velocity": 0.7874015748031497,
          "duration": 0.9230760000000089
        },
        {
          "name": "A2",
          "midi": 45,
          "time": 138.46139999999994,
          "velocity": 0.7874015748031497,
          "duration": 0.9230760000000089
        },
        {
          "name": "G#3",
          "midi": 56,
          "time": 139.38447599999995,
          "velocity": 0.7874015748031497,
          "duration": 0.9230760000000089
        },
        {
          "name": "G#2",
          "midi": 44,
          "time": 139.38447599999995,
          "velocity": 0.7874015748031497,
          "duration": 0.9230760000000089
        },
        {
          "name": "F#3",
          "midi": 54,
          "time": 140.30755199999996,
          "velocity": 0.7874015748031497,
          "duration": 3.692304000000007
        },
        {
          "name": "D#2",
          "midi": 39,
          "time": 140.30755199999996,
          "velocity": 0.7874015748031497,
          "duration": 3.692304000000007
        },
        {
          "name": "A#3",
          "midi": 58,
          "time": 143.99985599999997,
          "velocity": 0.7874015748031497,
          "duration": 1.8461519999999894
        },
        {
          "name": "A#2",
          "midi": 46,
          "time": 143.99985599999997,
          "velocity": 0.7874015748031497,
          "duration": 1.8461519999999894
        },
        {
          "name": "A3",
          "midi": 57,
          "time": 145.84600799999996,
          "velocity": 0.7874015748031497,
          "duration": 0.9230760000000089
        },
        {
          "name": "A2",
          "midi": 45,
          "time": 145.84600799999996,
          "velocity": 0.7874015748031497,
          "duration": 0.9230760000000089
        },
        {
          "name": "G#3",
          "midi": 56,
          "time": 146.76908399999996,
          "velocity": 0.7874015748031497,
          "duration": 0.9230760000000089
        },
        {
          "name": "G#2",
          "midi": 44,
          "time": 146.76908399999996,
          "velocity": 0.7874015748031497,
          "duration": 0.9230760000000089
        },
        {
          "name": "F#3",
          "midi": 54,
          "time": 147.69215999999997,
          "velocity": 0.7874015748031497,
          "duration": 3.692304000000007
        },
        {
          "name": "D#2",
          "midi": 39,
          "time": 147.69215999999997,
          "velocity": 0.7874015748031497,
          "duration": 3.692304000000007
        },
        {
          "name": "A#3",
          "midi": 58,
          "time": 180.92289599999998,
          "velocity": 0.7874015748031497,
          "duration": 1.8461519999999894
        },
        {
          "name": "A#2",
          "midi": 46,
          "time": 180.92289599999998,
          "velocity": 0.7874015748031497,
          "duration": 1.8461519999999894
        },
        {
          "name": "A3",
          "midi": 57,
          "time": 182.76904799999997,
          "velocity": 0.7874015748031497,
          "duration": 0.9230760000000089
        },
        {
          "name": "A2",
          "midi": 45,
          "time": 182.76904799999997,
          "velocity": 0.7874015748031497,
          "duration": 0.9230760000000089
        },
        {
          "name": "G#3",
          "midi": 56,
          "time": 183.69212399999998,
          "velocity": 0.7874015748031497,
          "duration": 0.9230760000000089
        },
        {
          "name": "G#2",
          "midi": 44,
          "time": 183.69212399999998,
          "velocity": 0.7874015748031497,
          "duration": 0.9230760000000089
        },
        {
          "name": "F#3",
          "midi": 54,
          "time": 184.6152,
          "velocity": 0.7874015748031497,
          "duration": 3.692304000000007
        },
        {
          "name": "D#2",
          "midi": 39,
          "time": 184.6152,
          "velocity": 0.7874015748031497,
          "duration": 3.692304000000007
        },
        {
          "name": "A#3",
          "midi": 58,
          "time": 188.307504,
          "velocity": 0.7874015748031497,
          "duration": 1.8461519999999894
        },
        {
          "name": "A#2",
          "midi": 46,
          "time": 188.307504,
          "velocity": 0.7874015748031497,
          "duration": 1.8461519999999894
        },
        {
          "name": "A3",
          "midi": 57,
          "time": 190.15365599999998,
          "velocity": 0.7874015748031497,
          "duration": 0.9230760000000089
        },
        {
          "name": "A2",
          "midi": 45,
          "time": 190.15365599999998,
          "velocity": 0.7874015748031497,
          "duration": 0.9230760000000089
        },
        {
          "name": "G#3",
          "midi": 56,
          "time": 191.076732,
          "velocity": 0.7874015748031497,
          "duration": 0.9230760000000089
        },
        {
          "name": "G#2",
          "midi": 44,
          "time": 191.076732,
          "velocity": 0.7874015748031497,
          "duration": 0.9230760000000089
        },
        {
          "name": "F#3",
          "midi": 54,
          "time": 191.999808,
          "velocity": 0.7874015748031497,
          "duration": 3.692304000000007
        },
        {
          "name": "D#2",
          "midi": 39,
          "time": 191.999808,
          "velocity": 0.7874015748031497,
          "duration": 3.692304000000007
        },
        {
          "name": "A#3",
          "midi": 58,
          "time": 195.692112,
          "velocity": 0.7874015748031497,
          "duration": 1.8461519999999894
        },
        {
          "name": "A#2",
          "midi": 46,
          "time": 195.692112,
          "velocity": 0.7874015748031497,
          "duration": 1.8461519999999894
        },
        {
          "name": "A3",
          "midi": 57,
          "time": 197.538264,
          "velocity": 0.7874015748031497,
          "duration": 0.9230760000000089
        },
        {
          "name": "A2",
          "midi": 45,
          "time": 197.538264,
          "velocity": 0.7874015748031497,
          "duration": 0.9230760000000089
        },
        {
          "name": "G#3",
          "midi": 56,
          "time": 198.46134,
          "velocity": 0.7874015748031497,
          "duration": 0.9230760000000089
        },
        {
          "name": "G#2",
          "midi": 44,
          "time": 198.46134,
          "velocity": 0.7874015748031497,
          "duration": 0.9230760000000089
        },
        {
          "name": "F#3",
          "midi": 54,
          "time": 199.38441600000002,
          "velocity": 0.7874015748031497,
          "duration": 3.692304000000007
        },
        {
          "name": "D#2",
          "midi": 39,
          "time": 199.38441600000002,
          "velocity": 0.7874015748031497,
          "duration": 3.692304000000007
        },
        {
          "name": "A#3",
          "midi": 58,
          "time": 203.07672000000002,
          "velocity": 0.7874015748031497,
          "duration": 1.8461519999999894
        },
        {
          "name": "A#2",
          "midi": 46,
          "time": 203.07672000000002,
          "velocity": 0.7874015748031497,
          "duration": 1.8461519999999894
        },
        {
          "name": "A3",
          "midi": 57,
          "time": 204.922872,
          "velocity": 0.7874015748031497,
          "duration": 0.9230760000000089
        },
        {
          "name": "A2",
          "midi": 45,
          "time": 204.922872,
          "velocity": 0.7874015748031497,
          "duration": 0.9230760000000089
        },
        {
          "name": "G#3",
          "midi": 56,
          "time": 205.84594800000002,
          "velocity": 0.7874015748031497,
          "duration": 0.9230760000000089
        },
        {
          "name": "G#2",
          "midi": 44,
          "time": 205.84594800000002,
          "velocity": 0.7874015748031497,
          "duration": 0.9230760000000089
        },
        {
          "name": "F#3",
          "midi": 54,
          "time": 206.76902400000003,
          "velocity": 0.7874015748031497,
          "duration": 3.692304000000007
        },
        {
          "name": "D#2",
          "midi": 39,
          "time": 206.76902400000003,
          "velocity": 0.7874015748031497,
          "duration": 3.692304000000007
        },
        {
          "name": "A#2",
          "midi": 46,
          "time": 317.53814400000005,
          "velocity": 0.7874015748031497,
          "duration": 1.8461520000000178
        },
        {
          "name": "A#3",
          "midi": 58,
          "time": 317.53814400000005,
          "velocity": 0.7874015748031497,
          "duration": 1.8461520000000178
        },
        {
          "name": "A3",
          "midi": 57,
          "time": 319.38429600000006,
          "velocity": 0.7874015748031497,
          "duration": 0.9230759999999805
        },
        {
          "name": "A2",
          "midi": 45,
          "time": 319.38429600000006,
          "velocity": 0.7874015748031497,
          "duration": 0.9230759999999805
        },
        {
          "name": "G#3",
          "midi": 56,
          "time": 320.30737200000004,
          "velocity": 0.7874015748031497,
          "duration": 0.9230759999999805
        },
        {
          "name": "G#2",
          "midi": 44,
          "time": 320.30737200000004,
          "velocity": 0.7874015748031497,
          "duration": 0.9230759999999805
        },
        {
          "name": "F#3",
          "midi": 54,
          "time": 321.230448,
          "velocity": 0.7874015748031497,
          "duration": 3.6923039999999787
        },
        {
          "name": "D#2",
          "midi": 39,
          "time": 321.230448,
          "velocity": 0.7874015748031497,
          "duration": 3.6923039999999787
        },
        {
          "name": "A#3",
          "midi": 58,
          "time": 324.922752,
          "velocity": 0.7874015748031497,
          "duration": 1.8461520000000178
        },
        {
          "name": "A#2",
          "midi": 46,
          "time": 324.922752,
          "velocity": 0.7874015748031497,
          "duration": 1.8461520000000178
        },
        {
          "name": "A3",
          "midi": 57,
          "time": 326.768904,
          "velocity": 0.7874015748031497,
          "duration": 0.9230759999999805
        },
        {
          "name": "A2",
          "midi": 45,
          "time": 326.768904,
          "velocity": 0.7874015748031497,
          "duration": 0.9230759999999805
        },
        {
          "name": "G#3",
          "midi": 56,
          "time": 327.69198,
          "velocity": 0.7874015748031497,
          "duration": 0.9230759999999805
        },
        {
          "name": "G#2",
          "midi": 44,
          "time": 327.69198,
          "velocity": 0.7874015748031497,
          "duration": 0.9230759999999805
        },
        {
          "name": "F#3",
          "midi": 54,
          "time": 328.615056,
          "velocity": 0.7874015748031497,
          "duration": 3.6923039999999787
        },
        {
          "name": "D#2",
          "midi": 39,
          "time": 328.615056,
          "velocity": 0.7874015748031497,
          "duration": 3.6923039999999787
        },
        {
          "name": "A#3",
          "midi": 58,
          "time": 332.30735999999996,
          "velocity": 0.7874015748031497,
          "duration": 1.8461520000000178
        },
        {
          "name": "A#2",
          "midi": 46,
          "time": 332.30735999999996,
          "velocity": 0.7874015748031497,
          "duration": 1.8461520000000178
        },
        {
          "name": "A3",
          "midi": 57,
          "time": 334.153512,
          "velocity": 0.7874015748031497,
          "duration": 0.9230759999999805
        },
        {
          "name": "A2",
          "midi": 45,
          "time": 334.153512,
          "velocity": 0.7874015748031497,
          "duration": 0.9230759999999805
        },
        {
          "name": "G#3",
          "midi": 56,
          "time": 335.07658799999996,
          "velocity": 0.7874015748031497,
          "duration": 0.9230759999999805
        },
        {
          "name": "G#2",
          "midi": 44,
          "time": 335.07658799999996,
          "velocity": 0.7874015748031497,
          "duration": 0.9230759999999805
        },
        {
          "name": "F#3",
          "midi": 54,
          "time": 335.99966399999994,
          "velocity": 0.7874015748031497,
          "duration": 3.6923039999999787
        },
        {
          "name": "D#2",
          "midi": 39,
          "time": 335.99966399999994,
          "velocity": 0.7874015748031497,
          "duration": 3.6923039999999787
        },
        {
          "name": "A#3",
          "midi": 58,
          "time": 339.6919679999999,
          "velocity": 0.7874015748031497,
          "duration": 1.8461520000000178
        },
        {
          "name": "A#2",
          "midi": 46,
          "time": 339.6919679999999,
          "velocity": 0.7874015748031497,
          "duration": 1.8461520000000178
        },
        {
          "name": "A3",
          "midi": 57,
          "time": 341.53811999999994,
          "velocity": 0.7874015748031497,
          "duration": 0.9230759999999805
        },
        {
          "name": "A2",
          "midi": 45,
          "time": 341.53811999999994,
          "velocity": 0.7874015748031497,
          "duration": 0.9230759999999805
        },
        {
          "name": "G#3",
          "midi": 56,
          "time": 342.4611959999999,
          "velocity": 0.7874015748031497,
          "duration": 0.9230759999999805
        },
        {
          "name": "G#2",
          "midi": 44,
          "time": 342.4611959999999,
          "velocity": 0.7874015748031497,
          "duration": 0.9230759999999805
        },
        {
          "name": "F#3",
          "midi": 54,
          "time": 343.3842719999999,
          "velocity": 0.7874015748031497,
          "duration": 3.6923039999999787
        },
        {
          "name": "D#2",
          "midi": 39,
          "time": 343.3842719999999,
          "velocity": 0.7874015748031497,
          "duration": 3.6923039999999787
        }
      ],
      "controlChanges": {
        "7": [
          {
            "number": 7,
            "time": 0,
            "value": 0.7637795275590551
          }
        ],
        "10": [
          {
            "number": 10,
            "time": 0,
            "value": 0.16535433070866143
          }
        ]
      },
      "instrument": ""
    },
    {
      "name": "",
      "notes": [
        {
          "name": "A#2",
          "midi": 46,
          "time": 59.07686399999999,
          "velocity": 0.7874015748031497,
          "duration": 1.8461519999999965
        },
        {
          "name": "A#1",
          "midi": 34,
          "time": 59.07686399999999,
          "velocity": 0.7874015748031497,
          "duration": 1.8461519999999965
        },
        {
          "name": "A2",
          "midi": 45,
          "time": 60.92301599999999,
          "velocity": 0.7874015748031497,
          "duration": 0.9230760000000018
        },
        {
          "name": "A1",
          "midi": 33,
          "time": 60.92301599999999,
          "velocity": 0.7874015748031497,
          "duration": 0.9230760000000018
        },
        {
          "name": "G#2",
          "midi": 44,
          "time": 61.84609199999999,
          "velocity": 0.7874015748031497,
          "duration": 0.9230760000000018
        },
        {
          "name": "G#1",
          "midi": 32,
          "time": 61.84609199999999,
          "velocity": 0.7874015748031497,
          "duration": 0.9230760000000018
        },
        {
          "name": "D#2",
          "midi": 39,
          "time": 62.76916799999999,
          "velocity": 0.7874015748031497,
          "duration": 3.692303999999993
        },
        {
          "name": "D#1",
          "midi": 27,
          "time": 62.76916799999999,
          "velocity": 0.7874015748031497,
          "duration": 3.692303999999993
        },
        {
          "name": "A#2",
          "midi": 46,
          "time": 66.46147199999999,
          "velocity": 0.7874015748031497,
          "duration": 1.8461520000000036
        },
        {
          "name": "A#1",
          "midi": 34,
          "time": 66.46147199999999,
          "velocity": 0.7874015748031497,
          "duration": 1.8461520000000036
        },
        {
          "name": "A2",
          "midi": 45,
          "time": 68.30762399999999,
          "velocity": 0.7874015748031497,
          "duration": 0.9230759999999947
        },
        {
          "name": "A1",
          "midi": 33,
          "time": 68.30762399999999,
          "velocity": 0.7874015748031497,
          "duration": 0.9230759999999947
        },
        {
          "name": "G#2",
          "midi": 44,
          "time": 69.23069999999998,
          "velocity": 0.7874015748031497,
          "duration": 0.9230759999999947
        },
        {
          "name": "G#1",
          "midi": 32,
          "time": 69.23069999999998,
          "velocity": 0.7874015748031497,
          "duration": 0.9230759999999947
        },
        {
          "name": "D#1",
          "midi": 27,
          "time": 70.15377599999998,
          "velocity": 0.7874015748031497,
          "duration": 3.692303999999993
        },
        {
          "name": "D#2",
          "midi": 39,
          "time": 70.15377599999998,
          "velocity": 0.7874015748031497,
          "duration": 3.692303999999993
        },
        {
          "name": "A#2",
          "midi": 46,
          "time": 73.84607999999997,
          "velocity": 0.7874015748031497,
          "duration": 1.8461520000000036
        },
        {
          "name": "A#1",
          "midi": 34,
          "time": 73.84607999999997,
          "velocity": 0.7874015748031497,
          "duration": 1.8461520000000036
        },
        {
          "name": "A2",
          "midi": 45,
          "time": 75.69223199999998,
          "velocity": 0.7874015748031497,
          "duration": 0.9230759999999947
        },
        {
          "name": "A1",
          "midi": 33,
          "time": 75.69223199999998,
          "velocity": 0.7874015748031497,
          "duration": 0.9230759999999947
        },
        {
          "name": "G#2",
          "midi": 44,
          "time": 76.61530799999997,
          "velocity": 0.7874015748031497,
          "duration": 0.9230759999999947
        },
        {
          "name": "G#1",
          "midi": 32,
          "time": 76.61530799999997,
          "velocity": 0.7874015748031497,
          "duration": 0.9230759999999947
        },
        {
          "name": "D#1",
          "midi": 27,
          "time": 77.53838399999997,
          "velocity": 0.7874015748031497,
          "duration": 3.692303999999993
        },
        {
          "name": "D#2",
          "midi": 39,
          "time": 77.53838399999997,
          "velocity": 0.7874015748031497,
          "duration": 3.692303999999993
        },
        {
          "name": "A#2",
          "midi": 46,
          "time": 81.23068799999996,
          "velocity": 0.7874015748031497,
          "duration": 1.8461520000000036
        },
        {
          "name": "A#1",
          "midi": 34,
          "time": 81.23068799999996,
          "velocity": 0.7874015748031497,
          "duration": 1.8461520000000036
        },
        {
          "name": "A2",
          "midi": 45,
          "time": 83.07683999999996,
          "velocity": 0.7874015748031497,
          "duration": 0.9230759999999947
        },
        {
          "name": "A1",
          "midi": 33,
          "time": 83.07683999999996,
          "velocity": 0.7874015748031497,
          "duration": 0.9230759999999947
        },
        {
          "name": "G#2",
          "midi": 44,
          "time": 83.99991599999996,
          "velocity": 0.7874015748031497,
          "duration": 0.9230759999999947
        },
        {
          "name": "G#1",
          "midi": 32,
          "time": 83.99991599999996,
          "velocity": 0.7874015748031497,
          "duration": 0.9230759999999947
        },
        {
          "name": "D#1",
          "midi": 27,
          "time": 84.92299199999995,
          "velocity": 0.7874015748031497,
          "duration": 3.692303999999993
        },
        {
          "name": "D#2",
          "midi": 39,
          "time": 84.92299199999995,
          "velocity": 0.7874015748031497,
          "duration": 3.692303999999993
        },
        {
          "name": "A#1",
          "midi": 34,
          "time": 121.84603199999994,
          "velocity": 0.7874015748031497,
          "duration": 1.8461520000000036
        },
        {
          "name": "A#2",
          "midi": 46,
          "time": 121.84603199999994,
          "velocity": 0.7874015748031497,
          "duration": 1.8461520000000036
        },
        {
          "name": "A2",
          "midi": 45,
          "time": 123.69218399999994,
          "velocity": 0.7874015748031497,
          "duration": 0.9230759999999947
        },
        {
          "name": "A1",
          "midi": 33,
          "time": 123.69218399999994,
          "velocity": 0.7874015748031497,
          "duration": 0.9230759999999947
        },
        {
          "name": "G#2",
          "midi": 44,
          "time": 124.61525999999994,
          "velocity": 0.7874015748031497,
          "duration": 0.9230759999999947
        },
        {
          "name": "G#1",
          "midi": 32,
          "time": 124.61525999999994,
          "velocity": 0.7874015748031497,
          "duration": 0.9230759999999947
        },
        {
          "name": "D#2",
          "midi": 39,
          "time": 125.53833599999993,
          "velocity": 0.7874015748031497,
          "duration": 3.692304000000007
        },
        {
          "name": "D#1",
          "midi": 27,
          "time": 125.53833599999993,
          "velocity": 0.7874015748031497,
          "duration": 3.692304000000007
        },
        {
          "name": "A#2",
          "midi": 46,
          "time": 129.23063999999994,
          "velocity": 0.7874015748031497,
          "duration": 1.8461519999999894
        },
        {
          "name": "A#1",
          "midi": 34,
          "time": 129.23063999999994,
          "velocity": 0.7874015748031497,
          "duration": 1.8461519999999894
        },
        {
          "name": "A2",
          "midi": 45,
          "time": 131.07679199999993,
          "velocity": 0.7874015748031497,
          "duration": 0.9230760000000089
        },
        {
          "name": "A1",
          "midi": 33,
          "time": 131.07679199999993,
          "velocity": 0.7874015748031497,
          "duration": 0.9230760000000089
        },
        {
          "name": "G#2",
          "midi": 44,
          "time": 131.99986799999994,
          "velocity": 0.7874015748031497,
          "duration": 0.9230760000000089
        },
        {
          "name": "G#1",
          "midi": 32,
          "time": 131.99986799999994,
          "velocity": 0.7874015748031497,
          "duration": 0.9230760000000089
        },
        {
          "name": "D#1",
          "midi": 27,
          "time": 132.92294399999994,
          "velocity": 0.7874015748031497,
          "duration": 3.692304000000007
        },
        {
          "name": "D#2",
          "midi": 39,
          "time": 132.92294399999994,
          "velocity": 0.7874015748031497,
          "duration": 3.692304000000007
        },
        {
          "name": "A#2",
          "midi": 46,
          "time": 136.61524799999995,
          "velocity": 0.7874015748031497,
          "duration": 1.8461519999999894
        },
        {
          "name": "A#1",
          "midi": 34,
          "time": 136.61524799999995,
          "velocity": 0.7874015748031497,
          "duration": 1.8461519999999894
        },
        {
          "name": "A2",
          "midi": 45,
          "time": 138.46139999999994,
          "velocity": 0.7874015748031497,
          "duration": 0.9230760000000089
        },
        {
          "name": "A1",
          "midi": 33,
          "time": 138.46139999999994,
          "velocity": 0.7874015748031497,
          "duration": 0.9230760000000089
        },
        {
          "name": "G#2",
          "midi": 44,
          "time": 139.38447599999995,
          "velocity": 0.7874015748031497,
          "duration": 0.9230760000000089
        },
        {
          "name": "G#1",
          "midi": 32,
          "time": 139.38447599999995,
          "velocity": 0.7874015748031497,
          "duration": 0.9230760000000089
        },
        {
          "name": "D#1",
          "midi": 27,
          "time": 140.30755199999996,
          "velocity": 0.7874015748031497,
          "duration": 3.692304000000007
        },
        {
          "name": "D#2",
          "midi": 39,
          "time": 140.30755199999996,
          "velocity": 0.7874015748031497,
          "duration": 3.692304000000007
        },
        {
          "name": "A#2",
          "midi": 46,
          "time": 143.99985599999997,
          "velocity": 0.7874015748031497,
          "duration": 1.8461519999999894
        },
        {
          "name": "A#1",
          "midi": 34,
          "time": 143.99985599999997,
          "velocity": 0.7874015748031497,
          "duration": 1.8461519999999894
        },
        {
          "name": "A2",
          "midi": 45,
          "time": 145.84600799999996,
          "velocity": 0.7874015748031497,
          "duration": 0.9230760000000089
        },
        {
          "name": "A1",
          "midi": 33,
          "time": 145.84600799999996,
          "velocity": 0.7874015748031497,
          "duration": 0.9230760000000089
        },
        {
          "name": "G#2",
          "midi": 44,
          "time": 146.76908399999996,
          "velocity": 0.7874015748031497,
          "duration": 0.9230760000000089
        },
        {
          "name": "G#1",
          "midi": 32,
          "time": 146.76908399999996,
          "velocity": 0.7874015748031497,
          "duration": 0.9230760000000089
        },
        {
          "name": "D#1",
          "midi": 27,
          "time": 147.69215999999997,
          "velocity": 0.7874015748031497,
          "duration": 3.692304000000007
        },
        {
          "name": "D#2",
          "midi": 39,
          "time": 147.69215999999997,
          "velocity": 0.7874015748031497,
          "duration": 3.692304000000007
        },
        {
          "name": "A#2",
          "midi": 46,
          "time": 180.92289599999998,
          "velocity": 0.7874015748031497,
          "duration": 1.8461519999999894
        },
        {
          "name": "A#1",
          "midi": 34,
          "time": 180.92289599999998,
          "velocity": 0.7874015748031497,
          "duration": 1.8461519999999894
        },
        {
          "name": "A2",
          "midi": 45,
          "time": 182.76904799999997,
          "velocity": 0.7874015748031497,
          "duration": 0.9230760000000089
        },
        {
          "name": "A1",
          "midi": 33,
          "time": 182.76904799999997,
          "velocity": 0.7874015748031497,
          "duration": 0.9230760000000089
        },
        {
          "name": "G#2",
          "midi": 44,
          "time": 183.69212399999998,
          "velocity": 0.7874015748031497,
          "duration": 0.9230760000000089
        },
        {
          "name": "G#1",
          "midi": 32,
          "time": 183.69212399999998,
          "velocity": 0.7874015748031497,
          "duration": 0.9230760000000089
        },
        {
          "name": "D#2",
          "midi": 39,
          "time": 184.6152,
          "velocity": 0.7874015748031497,
          "duration": 3.692304000000007
        },
        {
          "name": "D#1",
          "midi": 27,
          "time": 184.6152,
          "velocity": 0.7874015748031497,
          "duration": 3.692304000000007
        },
        {
          "name": "A#2",
          "midi": 46,
          "time": 188.307504,
          "velocity": 0.7874015748031497,
          "duration": 1.8461519999999894
        },
        {
          "name": "A#1",
          "midi": 34,
          "time": 188.307504,
          "velocity": 0.7874015748031497,
          "duration": 1.8461519999999894
        },
        {
          "name": "A2",
          "midi": 45,
          "time": 190.15365599999998,
          "velocity": 0.7874015748031497,
          "duration": 0.9230760000000089
        },
        {
          "name": "A1",
          "midi": 33,
          "time": 190.15365599999998,
          "velocity": 0.7874015748031497,
          "duration": 0.9230760000000089
        },
        {
          "name": "G#2",
          "midi": 44,
          "time": 191.076732,
          "velocity": 0.7874015748031497,
          "duration": 0.9230760000000089
        },
        {
          "name": "G#1",
          "midi": 32,
          "time": 191.076732,
          "velocity": 0.7874015748031497,
          "duration": 0.9230760000000089
        },
        {
          "name": "D#1",
          "midi": 27,
          "time": 191.999808,
          "velocity": 0.7874015748031497,
          "duration": 3.692304000000007
        },
        {
          "name": "D#2",
          "midi": 39,
          "time": 191.999808,
          "velocity": 0.7874015748031497,
          "duration": 3.692304000000007
        },
        {
          "name": "A#2",
          "midi": 46,
          "time": 195.692112,
          "velocity": 0.7874015748031497,
          "duration": 1.8461519999999894
        },
        {
          "name": "A#1",
          "midi": 34,
          "time": 195.692112,
          "velocity": 0.7874015748031497,
          "duration": 1.8461519999999894
        },
        {
          "name": "A2",
          "midi": 45,
          "time": 197.538264,
          "velocity": 0.7874015748031497,
          "duration": 0.9230760000000089
        },
        {
          "name": "A1",
          "midi": 33,
          "time": 197.538264,
          "velocity": 0.7874015748031497,
          "duration": 0.9230760000000089
        },
        {
          "name": "G#2",
          "midi": 44,
          "time": 198.46134,
          "velocity": 0.7874015748031497,
          "duration": 0.9230760000000089
        },
        {
          "name": "G#1",
          "midi": 32,
          "time": 198.46134,
          "velocity": 0.7874015748031497,
          "duration": 0.9230760000000089
        },
        {
          "name": "D#1",
          "midi": 27,
          "time": 199.38441600000002,
          "velocity": 0.7874015748031497,
          "duration": 3.692304000000007
        },
        {
          "name": "D#2",
          "midi": 39,
          "time": 199.38441600000002,
          "velocity": 0.7874015748031497,
          "duration": 3.692304000000007
        },
        {
          "name": "A#2",
          "midi": 46,
          "time": 203.07672000000002,
          "velocity": 0.7874015748031497,
          "duration": 1.8461519999999894
        },
        {
          "name": "A#1",
          "midi": 34,
          "time": 203.07672000000002,
          "velocity": 0.7874015748031497,
          "duration": 1.8461519999999894
        },
        {
          "name": "A2",
          "midi": 45,
          "time": 204.922872,
          "velocity": 0.7874015748031497,
          "duration": 0.9230760000000089
        },
        {
          "name": "A1",
          "midi": 33,
          "time": 204.922872,
          "velocity": 0.7874015748031497,
          "duration": 0.9230760000000089
        },
        {
          "name": "G#2",
          "midi": 44,
          "time": 205.84594800000002,
          "velocity": 0.7874015748031497,
          "duration": 0.9230760000000089
        },
        {
          "name": "G#1",
          "midi": 32,
          "time": 205.84594800000002,
          "velocity": 0.7874015748031497,
          "duration": 0.9230760000000089
        },
        {
          "name": "D#1",
          "midi": 27,
          "time": 206.76902400000003,
          "velocity": 0.7874015748031497,
          "duration": 3.692304000000007
        },
        {
          "name": "D#2",
          "midi": 39,
          "time": 206.76902400000003,
          "velocity": 0.7874015748031497,
          "duration": 3.692304000000007
        },
        {
          "name": "A#1",
          "midi": 34,
          "time": 317.53814400000005,
          "velocity": 0.7874015748031497,
          "duration": 1.8461520000000178
        },
        {
          "name": "A#2",
          "midi": 46,
          "time": 317.53814400000005,
          "velocity": 0.7874015748031497,
          "duration": 1.8461520000000178
        },
        {
          "name": "A2",
          "midi": 45,
          "time": 319.38429600000006,
          "velocity": 0.7874015748031497,
          "duration": 0.9230759999999805
        },
        {
          "name": "A1",
          "midi": 33,
          "time": 319.38429600000006,
          "velocity": 0.7874015748031497,
          "duration": 0.9230759999999805
        },
        {
          "name": "G#2",
          "midi": 44,
          "time": 320.30737200000004,
          "velocity": 0.7874015748031497,
          "duration": 0.9230759999999805
        },
        {
          "name": "G#1",
          "midi": 32,
          "time": 320.30737200000004,
          "velocity": 0.7874015748031497,
          "duration": 0.9230759999999805
        },
        {
          "name": "D#2",
          "midi": 39,
          "time": 321.230448,
          "velocity": 0.7874015748031497,
          "duration": 3.6923039999999787
        },
        {
          "name": "D#1",
          "midi": 27,
          "time": 321.230448,
          "velocity": 0.7874015748031497,
          "duration": 3.6923039999999787
        },
        {
          "name": "A#2",
          "midi": 46,
          "time": 324.922752,
          "velocity": 0.7874015748031497,
          "duration": 1.8461520000000178
        },
        {
          "name": "A#1",
          "midi": 34,
          "time": 324.922752,
          "velocity": 0.7874015748031497,
          "duration": 1.8461520000000178
        },
        {
          "name": "A2",
          "midi": 45,
          "time": 326.768904,
          "velocity": 0.7874015748031497,
          "duration": 0.9230759999999805
        },
        {
          "name": "A1",
          "midi": 33,
          "time": 326.768904,
          "velocity": 0.7874015748031497,
          "duration": 0.9230759999999805
        },
        {
          "name": "G#2",
          "midi": 44,
          "time": 327.69198,
          "velocity": 0.7874015748031497,
          "duration": 0.9230759999999805
        },
        {
          "name": "G#1",
          "midi": 32,
          "time": 327.69198,
          "velocity": 0.7874015748031497,
          "duration": 0.9230759999999805
        },
        {
          "name": "D#1",
          "midi": 27,
          "time": 328.615056,
          "velocity": 0.7874015748031497,
          "duration": 3.6923039999999787
        },
        {
          "name": "D#2",
          "midi": 39,
          "time": 328.615056,
          "velocity": 0.7874015748031497,
          "duration": 3.6923039999999787
        },
        {
          "name": "A#2",
          "midi": 46,
          "time": 332.30735999999996,
          "velocity": 0.7874015748031497,
          "duration": 1.8461520000000178
        },
        {
          "name": "A#1",
          "midi": 34,
          "time": 332.30735999999996,
          "velocity": 0.7874015748031497,
          "duration": 1.8461520000000178
        },
        {
          "name": "A2",
          "midi": 45,
          "time": 334.153512,
          "velocity": 0.7874015748031497,
          "duration": 0.9230759999999805
        },
        {
          "name": "A1",
          "midi": 33,
          "time": 334.153512,
          "velocity": 0.7874015748031497,
          "duration": 0.9230759999999805
        },
        {
          "name": "G#2",
          "midi": 44,
          "time": 335.07658799999996,
          "velocity": 0.7874015748031497,
          "duration": 0.9230759999999805
        },
        {
          "name": "G#1",
          "midi": 32,
          "time": 335.07658799999996,
          "velocity": 0.7874015748031497,
          "duration": 0.9230759999999805
        },
        {
          "name": "D#1",
          "midi": 27,
          "time": 335.99966399999994,
          "velocity": 0.7874015748031497,
          "duration": 3.6923039999999787
        },
        {
          "name": "D#2",
          "midi": 39,
          "time": 335.99966399999994,
          "velocity": 0.7874015748031497,
          "duration": 3.6923039999999787
        },
        {
          "name": "A#2",
          "midi": 46,
          "time": 339.6919679999999,
          "velocity": 0.7874015748031497,
          "duration": 1.8461520000000178
        },
        {
          "name": "A#1",
          "midi": 34,
          "time": 339.6919679999999,
          "velocity": 0.7874015748031497,
          "duration": 1.8461520000000178
        },
        {
          "name": "A2",
          "midi": 45,
          "time": 341.53811999999994,
          "velocity": 0.7874015748031497,
          "duration": 0.9230759999999805
        },
        {
          "name": "A1",
          "midi": 33,
          "time": 341.53811999999994,
          "velocity": 0.7874015748031497,
          "duration": 0.9230759999999805
        },
        {
          "name": "G#2",
          "midi": 44,
          "time": 342.4611959999999,
          "velocity": 0.7874015748031497,
          "duration": 0.9230759999999805
        },
        {
          "name": "G#1",
          "midi": 32,
          "time": 342.4611959999999,
          "velocity": 0.7874015748031497,
          "duration": 0.9230759999999805
        },
        {
          "name": "D#1",
          "midi": 27,
          "time": 343.3842719999999,
          "velocity": 0.7874015748031497,
          "duration": 3.6923039999999787
        },
        {
          "name": "D#2",
          "midi": 39,
          "time": 343.3842719999999,
          "velocity": 0.7874015748031497,
          "duration": 3.6923039999999787
        }
      ],
      "controlChanges": {
        "7": [
          {
            "number": 7,
            "time": 0,
            "value": 0.7637795275590551
          }
        ],
        "10": [
          {
            "number": 10,
            "time": 0,
            "value": 0.8503937007874016
          }
        ]
      },
      "instrument": ""
    },
    {
      "name": "",
      "notes": [
        {
          "name": "D#3",
          "midi": 51,
          "time": 92.3076,
          "velocity": 0.7874015748031497,
          "duration": 0.46153800000000444
        },
        {
          "name": "D#3",
          "midi": 51,
          "time": 92.769138,
          "velocity": 0.7874015748031497,
          "duration": 0.46153800000000444
        },
        {
          "name": "D#3",
          "midi": 51,
          "time": 93.230676,
          "velocity": 0.7874015748031497,
          "duration": 0.30769199999998875
        },
        {
          "name": "D#3",
          "midi": 51,
          "time": 93.461445,
          "velocity": 0.7874015748031497,
          "duration": 0.46153799999999023
        },
        {
          "name": "D#3",
          "midi": 51,
          "time": 93.92298299999999,
          "velocity": 0.7874015748031497,
          "duration": 0.30769199999998875
        },
        {
          "name": "D#3",
          "midi": 51,
          "time": 94.15375199999998,
          "velocity": 0.7874015748031497,
          "duration": 0.3846149999999966
        },
        {
          "name": "D#3",
          "midi": 51,
          "time": 94.49990549999998,
          "velocity": 0.7874015748031497,
          "duration": 0.11538449999999045
        },
        {
          "name": "D#3",
          "midi": 51,
          "time": 94.61528999999997,
          "velocity": 0.7874015748031497,
          "duration": 0.30769199999998875
        },
        {
          "name": "D#3",
          "midi": 51,
          "time": 94.84605899999997,
          "velocity": 0.7874015748031497,
          "duration": 0.46153800000000444
        },
        {
          "name": "D#3",
          "midi": 51,
          "time": 95.19221249999997,
          "velocity": 0.7874015748031497,
          "duration": 0.11538450000000466
        },
        {
          "name": "D#3",
          "midi": 51,
          "time": 95.30759699999997,
          "velocity": 0.7874015748031497,
          "duration": 0.30769199999998875
        },
        {
          "name": "D#3",
          "midi": 51,
          "time": 95.53836599999997,
          "velocity": 0.7874015748031497,
          "duration": 0.30769199999998875
        },
        {
          "name": "D#3",
          "midi": 51,
          "time": 95.76913499999996,
          "velocity": 0.7874015748031497,
          "duration": 0.09615374999999915
        },
        {
          "name": "D#3",
          "midi": 51,
          "time": 95.88451949999997,
          "velocity": 0.7874015748031497,
          "duration": 0.11538450000000466
        },
        {
          "name": "D#3",
          "midi": 51,
          "time": 95.99990399999997,
          "velocity": 0.7874015748031497,
          "duration": 0.46153800000000444
        },
        {
          "name": "D#3",
          "midi": 51,
          "time": 96.46144199999998,
          "velocity": 0.7874015748031497,
          "duration": 0.46153800000000444
        },
        {
          "name": "D#3",
          "midi": 51,
          "time": 96.92297999999998,
          "velocity": 0.7874015748031497,
          "duration": 0.30769199999998875
        },
        {
          "name": "D#3",
          "midi": 51,
          "time": 97.15374899999998,
          "velocity": 0.7874015748031497,
          "duration": 0.46153799999999023
        },
        {
          "name": "D#3",
          "midi": 51,
          "time": 97.61528699999997,
          "velocity": 0.7874015748031497,
          "duration": 0.30769199999998875
        },
        {
          "name": "D#3",
          "midi": 51,
          "time": 97.84605599999996,
          "velocity": 0.7874015748031497,
          "duration": 0.3846149999999966
        },
        {
          "name": "D#3",
          "midi": 51,
          "time": 98.19220949999996,
          "velocity": 0.7874015748031497,
          "duration": 0.11538449999999045
        },
        {
          "name": "D#3",
          "midi": 51,
          "time": 98.30759399999995,
          "velocity": 0.7874015748031497,
          "duration": 0.30769199999998875
        },
        {
          "name": "D#3",
          "midi": 51,
          "time": 98.53836299999995,
          "velocity": 0.7874015748031497,
          "duration": 0.46153800000000444
        },
        {
          "name": "D#3",
          "midi": 51,
          "time": 98.88451649999995,
          "velocity": 0.7874015748031497,
          "duration": 0.11538450000000466
        },
        {
          "name": "D#3",
          "midi": 51,
          "time": 98.99990099999995,
          "velocity": 0.7874015748031497,
          "duration": 0.30769199999998875
        },
        {
          "name": "D#3",
          "midi": 51,
          "time": 99.23066999999995,
          "velocity": 0.7874015748031497,
          "duration": 0.30769199999998875
        },
        {
          "name": "D#3",
          "midi": 51,
          "time": 99.46143899999994,
          "velocity": 0.7874015748031497,
          "duration": 0.09615374999999915
        },
        {
          "name": "D#3",
          "midi": 51,
          "time": 99.57682349999995,
          "velocity": 0.7874015748031497,
          "duration": 0.11538450000000466
        },
        {
          "name": "D#3",
          "midi": 51,
          "time": 99.69220799999995,
          "velocity": 0.7874015748031497,
          "duration": 0.46153800000000444
        },
        {
          "name": "D#3",
          "midi": 51,
          "time": 100.15374599999996,
          "velocity": 0.7874015748031497,
          "duration": 0.46153800000000444
        },
        {
          "name": "D#3",
          "midi": 51,
          "time": 100.61528399999996,
          "velocity": 0.7874015748031497,
          "duration": 0.30769199999998875
        },
        {
          "name": "D#3",
          "midi": 51,
          "time": 100.84605299999996,
          "velocity": 0.7874015748031497,
          "duration": 0.46153799999999023
        },
        {
          "name": "D#3",
          "midi": 51,
          "time": 101.30759099999995,
          "velocity": 0.7874015748031497,
          "duration": 0.30769199999998875
        },
        {
          "name": "D#3",
          "midi": 51,
          "time": 101.53835999999994,
          "velocity": 0.7874015748031497,
          "duration": 0.3846149999999966
        },
        {
          "name": "D#3",
          "midi": 51,
          "time": 101.88451349999994,
          "velocity": 0.7874015748031497,
          "duration": 0.11538449999999045
        },
        {
          "name": "D#3",
          "midi": 51,
          "time": 101.99989799999993,
          "velocity": 0.7874015748031497,
          "duration": 0.30769199999998875
        },
        {
          "name": "D#3",
          "midi": 51,
          "time": 102.23066699999993,
          "velocity": 0.7874015748031497,
          "duration": 0.46153800000000444
        },
        {
          "name": "D#3",
          "midi": 51,
          "time": 102.57682049999993,
          "velocity": 0.7874015748031497,
          "duration": 0.11538450000000466
        },
        {
          "name": "D#3",
          "midi": 51,
          "time": 102.69220499999993,
          "velocity": 0.7874015748031497,
          "duration": 0.30769199999998875
        },
        {
          "name": "D#3",
          "midi": 51,
          "time": 102.92297399999993,
          "velocity": 0.7874015748031497,
          "duration": 0.30769199999998875
        },
        {
          "name": "D#3",
          "midi": 51,
          "time": 103.15374299999992,
          "velocity": 0.7874015748031497,
          "duration": 0.09615374999999915
        },
        {
          "name": "D#3",
          "midi": 51,
          "time": 103.26912749999993,
          "velocity": 0.7874015748031497,
          "duration": 0.11538450000000466
        },
        {
          "name": "D#3",
          "midi": 51,
          "time": 103.38451199999993,
          "velocity": 0.7874015748031497,
          "duration": 0.46153800000000444
        },
        {
          "name": "D#3",
          "midi": 51,
          "time": 103.84604999999993,
          "velocity": 0.7874015748031497,
          "duration": 0.46153800000000444
        },
        {
          "name": "D#3",
          "midi": 51,
          "time": 104.30758799999994,
          "velocity": 0.7874015748031497,
          "duration": 0.30769199999998875
        },
        {
          "name": "D#3",
          "midi": 51,
          "time": 104.53835699999993,
          "velocity": 0.7874015748031497,
          "duration": 0.46153799999999023
        },
        {
          "name": "D#3",
          "midi": 51,
          "time": 104.99989499999992,
          "velocity": 0.7874015748031497,
          "duration": 0.30769199999998875
        },
        {
          "name": "D#3",
          "midi": 51,
          "time": 105.23066399999992,
          "velocity": 0.7874015748031497,
          "duration": 0.3846149999999966
        },
        {
          "name": "D#3",
          "midi": 51,
          "time": 105.57681749999992,
          "velocity": 0.7874015748031497,
          "duration": 0.11538449999999045
        },
        {
          "name": "D#3",
          "midi": 51,
          "time": 105.69220199999991,
          "velocity": 0.7874015748031497,
          "duration": 0.30769199999998875
        },
        {
          "name": "D#3",
          "midi": 51,
          "time": 105.9229709999999,
          "velocity": 0.7874015748031497,
          "duration": 0.46153800000000444
        },
        {
          "name": "D#3",
          "midi": 51,
          "time": 106.2691244999999,
          "velocity": 0.7874015748031497,
          "duration": 0.11538450000000466
        },
        {
          "name": "D#3",
          "midi": 51,
          "time": 106.38450899999991,
          "velocity": 0.7874015748031497,
          "duration": 0.30769199999998875
        },
        {
          "name": "D#3",
          "midi": 51,
          "time": 106.6152779999999,
          "velocity": 0.7874015748031497,
          "duration": 0.30769199999998875
        },
        {
          "name": "D#3",
          "midi": 51,
          "time": 106.8460469999999,
          "velocity": 0.7874015748031497,
          "duration": 0.09615374999999915
        },
        {
          "name": "D#3",
          "midi": 51,
          "time": 106.9614314999999,
          "velocity": 0.7874015748031497,
          "duration": 0.11538450000000466
        },
        {
          "name": "D#3",
          "midi": 51,
          "time": 107.07681599999991,
          "velocity": 0.7874015748031497,
          "duration": 0.46153800000000444
        },
        {
          "name": "D#3",
          "midi": 51,
          "time": 107.53835399999991,
          "velocity": 0.7874015748031497,
          "duration": 0.46153800000000444
        },
        {
          "name": "D#3",
          "midi": 51,
          "time": 107.99989199999992,
          "velocity": 0.7874015748031497,
          "duration": 0.30769199999998875
        },
        {
          "name": "D#3",
          "midi": 51,
          "time": 108.23066099999991,
          "velocity": 0.7874015748031497,
          "duration": 0.46153799999999023
        },
        {
          "name": "D#3",
          "midi": 51,
          "time": 108.6921989999999,
          "velocity": 0.7874015748031497,
          "duration": 0.30769199999998875
        },
        {
          "name": "D#3",
          "midi": 51,
          "time": 108.9229679999999,
          "velocity": 0.7874015748031497,
          "duration": 0.3846149999999966
        },
        {
          "name": "D#3",
          "midi": 51,
          "time": 109.2691214999999,
          "velocity": 0.7874015748031497,
          "duration": 0.11538449999999045
        },
        {
          "name": "D#3",
          "midi": 51,
          "time": 109.38450599999989,
          "velocity": 0.7874015748031497,
          "duration": 0.30769199999998875
        },
        {
          "name": "D#3",
          "midi": 51,
          "time": 109.61527499999988,
          "velocity": 0.7874015748031497,
          "duration": 0.46153800000000444
        },
        {
          "name": "D#3",
          "midi": 51,
          "time": 109.96142849999988,
          "velocity": 0.7874015748031497,
          "duration": 0.11538450000000466
        },
        {
          "name": "D#3",
          "midi": 51,
          "time": 110.07681299999989,
          "velocity": 0.7874015748031497,
          "duration": 0.30769199999998875
        },
        {
          "name": "D#3",
          "midi": 51,
          "time": 110.30758199999988,
          "velocity": 0.7874015748031497,
          "duration": 0.30769199999998875
        },
        {
          "name": "D#3",
          "midi": 51,
          "time": 110.53835099999988,
          "velocity": 0.7874015748031497,
          "duration": 0.09615374999999915
        },
        {
          "name": "D#3",
          "midi": 51,
          "time": 110.65373549999988,
          "velocity": 0.7874015748031497,
          "duration": 0.11538450000000466
        },
        {
          "name": "D#3",
          "midi": 51,
          "time": 110.76911999999989,
          "velocity": 0.7874015748031497,
          "duration": 0.46153800000000444
        },
        {
          "name": "D#3",
          "midi": 51,
          "time": 111.23065799999989,
          "velocity": 0.7874015748031497,
          "duration": 0.46153800000000444
        },
        {
          "name": "D#3",
          "midi": 51,
          "time": 111.6921959999999,
          "velocity": 0.7874015748031497,
          "duration": 0.30769199999998875
        },
        {
          "name": "D#3",
          "midi": 51,
          "time": 111.92296499999989,
          "velocity": 0.7874015748031497,
          "duration": 0.46153799999999023
        },
        {
          "name": "D#3",
          "midi": 51,
          "time": 112.38450299999988,
          "velocity": 0.7874015748031497,
          "duration": 0.30769199999998875
        },
        {
          "name": "D#3",
          "midi": 51,
          "time": 112.61527199999988,
          "velocity": 0.7874015748031497,
          "duration": 0.3846149999999966
        },
        {
          "name": "D#3",
          "midi": 51,
          "time": 112.96142549999988,
          "velocity": 0.7874015748031497,
          "duration": 0.11538449999999045
        },
        {
          "name": "D#3",
          "midi": 51,
          "time": 113.07680999999987,
          "velocity": 0.7874015748031497,
          "duration": 0.30769199999998875
        },
        {
          "name": "D#3",
          "midi": 51,
          "time": 113.30757899999986,
          "velocity": 0.7874015748031497,
          "duration": 0.46153800000000444
        },
        {
          "name": "D#3",
          "midi": 51,
          "time": 113.65373249999986,
          "velocity": 0.7874015748031497,
          "duration": 0.11538450000000466
        },
        {
          "name": "D#3",
          "midi": 51,
          "time": 113.76911699999987,
          "velocity": 0.7874015748031497,
          "duration": 0.30769199999998875
        },
        {
          "name": "D#3",
          "midi": 51,
          "time": 113.99988599999986,
          "velocity": 0.7874015748031497,
          "duration": 0.30769199999998875
        },
        {
          "name": "D#3",
          "midi": 51,
          "time": 114.23065499999986,
          "velocity": 0.7874015748031497,
          "duration": 0.09615374999999915
        },
        {
          "name": "D#3",
          "midi": 51,
          "time": 114.34603949999986,
          "velocity": 0.7874015748031497,
          "duration": 0.11538450000000466
        },
        {
          "name": "D#3",
          "midi": 51,
          "time": 114.46142399999987,
          "velocity": 0.7874015748031497,
          "duration": 0.46153800000000444
        },
        {
          "name": "D#3",
          "midi": 51,
          "time": 114.92296199999987,
          "velocity": 0.7874015748031497,
          "duration": 0.46153800000000444
        },
        {
          "name": "D#3",
          "midi": 51,
          "time": 115.38449999999987,
          "velocity": 0.7874015748031497,
          "duration": 0.30769199999998875
        },
        {
          "name": "D#3",
          "midi": 51,
          "time": 115.61526899999987,
          "velocity": 0.7874015748031497,
          "duration": 0.46153799999999023
        },
        {
          "name": "D#3",
          "midi": 51,
          "time": 116.07680699999986,
          "velocity": 0.7874015748031497,
          "duration": 0.30769199999998875
        },
        {
          "name": "D#3",
          "midi": 51,
          "time": 116.30757599999986,
          "velocity": 0.7874015748031497,
          "duration": 0.3846149999999966
        },
        {
          "name": "D#3",
          "midi": 51,
          "time": 116.65372949999986,
          "velocity": 0.7874015748031497,
          "duration": 0.11538449999999045
        },
        {
          "name": "D#3",
          "midi": 51,
          "time": 116.76911399999985,
          "velocity": 0.7874015748031497,
          "duration": 0.30769199999998875
        },
        {
          "name": "D#3",
          "midi": 51,
          "time": 116.99988299999984,
          "velocity": 0.7874015748031497,
          "duration": 0.46153800000000444
        },
        {
          "name": "D#3",
          "midi": 51,
          "time": 117.34603649999984,
          "velocity": 0.7874015748031497,
          "duration": 0.11538450000000466
        },
        {
          "name": "D#3",
          "midi": 51,
          "time": 117.46142099999985,
          "velocity": 0.7874015748031497,
          "duration": 0.30769199999998875
        },
        {
          "name": "D#3",
          "midi": 51,
          "time": 117.69218999999984,
          "velocity": 0.7874015748031497,
          "duration": 0.30769199999998875
        },
        {
          "name": "D#3",
          "midi": 51,
          "time": 117.92295899999984,
          "velocity": 0.7874015748031497,
          "duration": 0.09615374999999915
        },
        {
          "name": "D#3",
          "midi": 51,
          "time": 118.03834349999984,
          "velocity": 0.7874015748031497,
          "duration": 0.11538450000000466
        },
        {
          "name": "D#3",
          "midi": 51,
          "time": 118.15372799999984,
          "velocity": 0.7874015748031497,
          "duration": 0.46153800000000444
        },
        {
          "name": "D#3",
          "midi": 51,
          "time": 118.61526599999985,
          "velocity": 0.7874015748031497,
          "duration": 0.46153800000000444
        },
        {
          "name": "D#3",
          "midi": 51,
          "time": 119.07680399999985,
          "velocity": 0.7874015748031497,
          "duration": 0.30769199999998875
        },
        {
          "name": "D#3",
          "midi": 51,
          "time": 119.30757299999985,
          "velocity": 0.7874015748031497,
          "duration": 0.46153799999999023
        },
        {
          "name": "D#3",
          "midi": 51,
          "time": 119.76911099999984,
          "velocity": 0.7874015748031497,
          "duration": 0.30769199999998875
        },
        {
          "name": "D#3",
          "midi": 51,
          "time": 119.99987999999983,
          "velocity": 0.7874015748031497,
          "duration": 0.3846149999999966
        },
        {
          "name": "D#3",
          "midi": 51,
          "time": 120.34603349999983,
          "velocity": 0.7874015748031497,
          "duration": 0.11538449999999045
        },
        {
          "name": "D#3",
          "midi": 51,
          "time": 120.46141799999982,
          "velocity": 0.7874015748031497,
          "duration": 0.30769199999998875
        },
        {
          "name": "D#3",
          "midi": 51,
          "time": 120.69218699999982,
          "velocity": 0.7874015748031497,
          "duration": 0.46153800000000444
        },
        {
          "name": "D#3",
          "midi": 51,
          "time": 121.03834049999982,
          "velocity": 0.7874015748031497,
          "duration": 0.11538450000000466
        },
        {
          "name": "D#3",
          "midi": 51,
          "time": 121.15372499999982,
          "velocity": 0.7874015748031497,
          "duration": 0.30769199999998875
        },
        {
          "name": "D#3",
          "midi": 51,
          "time": 121.38449399999982,
          "velocity": 0.7874015748031497,
          "duration": 0.30769199999998875
        },
        {
          "name": "D#3",
          "midi": 51,
          "time": 121.61526299999981,
          "velocity": 0.7874015748031497,
          "duration": 0.09615374999999915
        },
        {
          "name": "D#3",
          "midi": 51,
          "time": 121.73064749999982,
          "velocity": 0.7874015748031497,
          "duration": 0.11538450000000466
        },
        {
          "name": "D#3",
          "midi": 51,
          "time": 210.4613279999998,
          "velocity": 0.3937007874015748,
          "duration": 0.46153799999999023
        },
        {
          "name": "D#3",
          "midi": 51,
          "time": 210.9228659999998,
          "velocity": 0.3937007874015748,
          "duration": 0.46153799999999023
        },
        {
          "name": "D#3",
          "midi": 51,
          "time": 211.3844039999998,
          "velocity": 0.3937007874015748,
          "duration": 0.30769200000000296
        },
        {
          "name": "D#3",
          "midi": 51,
          "time": 211.6151729999998,
          "velocity": 0.3937007874015748,
          "duration": 0.46153799999999023
        },
        {
          "name": "D#3",
          "midi": 51,
          "time": 212.0767109999998,
          "velocity": 0.3937007874015748,
          "duration": 0.30769200000000296
        },
        {
          "name": "D#3",
          "midi": 51,
          "time": 212.3074799999998,
          "velocity": 0.3937007874015748,
          "duration": 0.3846149999999966
        },
        {
          "name": "D#3",
          "midi": 51,
          "time": 212.65363349999978,
          "velocity": 0.3937007874015748,
          "duration": 0.11538450000000466
        },
        {
          "name": "D#3",
          "midi": 51,
          "time": 212.7690179999998,
          "velocity": 0.4015748031496063,
          "duration": 0.30769200000000296
        },
        {
          "name": "D#3",
          "midi": 51,
          "time": 212.9997869999998,
          "velocity": 0.4094488188976378,
          "duration": 0.46153799999999023
        },
        {
          "name": "D#3",
          "midi": 51,
          "time": 213.34594049999978,
          "velocity": 0.41732283464566927,
          "duration": 0.11538450000000466
        },
        {
          "name": "D#3",
          "midi": 51,
          "time": 213.4613249999998,
          "velocity": 0.4251968503937008,
          "duration": 0.30769200000000296
        },
        {
          "name": "D#3",
          "midi": 51,
          "time": 213.6920939999998,
          "velocity": 0.4330708661417323,
          "duration": 0.30769199999997454
        },
        {
          "name": "D#3",
          "midi": 51,
          "time": 213.92286299999978,
          "velocity": 0.4409448818897638,
          "duration": 0.09615374999998494
        },
        {
          "name": "D#3",
          "midi": 51,
          "time": 214.03824749999976,
          "velocity": 0.44881889763779526,
          "duration": 0.11538450000000466
        },
        {
          "name": "D#3",
          "midi": 51,
          "time": 214.15363199999976,
          "velocity": 0.4566929133858268,
          "duration": 0.46153799999999023
        },
        {
          "name": "D#3",
          "midi": 51,
          "time": 214.61516999999975,
          "velocity": 0.4645669291338583,
          "duration": 0.46153799999999023
        },
        {
          "name": "D#3",
          "midi": 51,
          "time": 215.07670799999974,
          "velocity": 0.47244094488188976,
          "duration": 0.30769200000000296
        },
        {
          "name": "D#3",
          "midi": 51,
          "time": 215.30747699999975,
          "velocity": 0.48031496062992124,
          "duration": 0.46153799999999023
        },
        {
          "name": "D#3",
          "midi": 51,
          "time": 215.76901499999974,
          "velocity": 0.4881889763779528,
          "duration": 0.30769200000000296
        },
        {
          "name": "D#3",
          "midi": 51,
          "time": 215.99978399999975,
          "velocity": 0.49606299212598426,
          "duration": 0.3846149999999966
        },
        {
          "name": "D#3",
          "midi": 51,
          "time": 216.34593749999974,
          "velocity": 0.5039370078740157,
          "duration": 0.11538450000000466
        },
        {
          "name": "D#3",
          "midi": 51,
          "time": 216.46132199999974,
          "velocity": 0.5118110236220472,
          "duration": 0.30769200000000296
        },
        {
          "name": "D#3",
          "midi": 51,
          "time": 216.69209099999975,
          "velocity": 0.5196850393700787,
          "duration": 0.46153799999999023
        },
        {
          "name": "D#3",
          "midi": 51,
          "time": 217.03824449999973,
          "velocity": 0.5275590551181102,
          "duration": 0.11538450000000466
        },
        {
          "name": "D#3",
          "midi": 51,
          "time": 217.15362899999974,
          "velocity": 0.5354330708661418,
          "duration": 0.30769200000000296
        },
        {
          "name": "D#3",
          "midi": 51,
          "time": 217.38439799999975,
          "velocity": 0.5433070866141733,
          "duration": 0.30769199999997454
        },
        {
          "name": "D#3",
          "midi": 51,
          "time": 217.61516699999973,
          "velocity": 0.5511811023622047,
          "duration": 0.09615374999998494
        },
        {
          "name": "D#3",
          "midi": 51,
          "time": 217.7305514999997,
          "velocity": 0.5590551181102362,
          "duration": 0.11538450000000466
        },
        {
          "name": "D#3",
          "midi": 51,
          "time": 217.8459359999997,
          "velocity": 0.5669291338582677,
          "duration": 0.46153799999999023
        },
        {
          "name": "D#3",
          "midi": 51,
          "time": 218.3074739999997,
          "velocity": 0.5748031496062992,
          "duration": 0.46153799999999023
        },
        {
          "name": "D#3",
          "midi": 51,
          "time": 218.7690119999997,
          "velocity": 0.5826771653543307,
          "duration": 0.30769200000000296
        },
        {
          "name": "D#3",
          "midi": 51,
          "time": 218.9997809999997,
          "velocity": 0.5905511811023622,
          "duration": 0.46153799999999023
        },
        {
          "name": "D#3",
          "midi": 51,
          "time": 219.4613189999997,
          "velocity": 0.5984251968503937,
          "duration": 0.30769200000000296
        },
        {
          "name": "D#3",
          "midi": 51,
          "time": 219.6920879999997,
          "velocity": 0.6062992125984252,
          "duration": 0.3846149999999966
        },
        {
          "name": "D#3",
          "midi": 51,
          "time": 220.03824149999969,
          "velocity": 0.6141732283464567,
          "duration": 0.11538450000000466
        },
        {
          "name": "D#3",
          "midi": 51,
          "time": 220.1536259999997,
          "velocity": 0.6220472440944882,
          "duration": 0.30769200000000296
        },
        {
          "name": "D#3",
          "midi": 51,
          "time": 220.3843949999997,
          "velocity": 0.6299212598425197,
          "duration": 0.46153799999999023
        },
        {
          "name": "D#3",
          "midi": 51,
          "time": 220.73054849999968,
          "velocity": 0.6377952755905512,
          "duration": 0.11538450000000466
        },
        {
          "name": "D#3",
          "midi": 51,
          "time": 220.8459329999997,
          "velocity": 0.6456692913385826,
          "duration": 0.30769200000000296
        },
        {
          "name": "D#3",
          "midi": 51,
          "time": 221.0767019999997,
          "velocity": 0.6535433070866141,
          "duration": 0.30769199999997454
        },
        {
          "name": "D#3",
          "midi": 51,
          "time": 221.30747099999968,
          "velocity": 0.6614173228346457,
          "duration": 0.09615374999998494
        },
        {
          "name": "D#3",
          "midi": 51,
          "time": 221.42285549999966,
          "velocity": 0.6692913385826772,
          "duration": 0.11538450000000466
        },
        {
          "name": "D#3",
          "midi": 51,
          "time": 221.53823999999966,
          "velocity": 0.6771653543307087,
          "duration": 0.46153799999999023
        },
        {
          "name": "D#3",
          "midi": 51,
          "time": 221.99977799999965,
          "velocity": 0.6850393700787402,
          "duration": 0.46153799999999023
        },
        {
          "name": "D#3",
          "midi": 51,
          "time": 222.46131599999964,
          "velocity": 0.6929133858267716,
          "duration": 0.30769200000000296
        },
        {
          "name": "D#3",
          "midi": 51,
          "time": 222.69208499999965,
          "velocity": 0.7007874015748031,
          "duration": 0.46153799999999023
        },
        {
          "name": "D#3",
          "midi": 51,
          "time": 223.15362299999964,
          "velocity": 0.7086614173228346,
          "duration": 0.30769200000000296
        },
        {
          "name": "D#3",
          "midi": 51,
          "time": 223.38439199999965,
          "velocity": 0.7165354330708661,
          "duration": 0.3846149999999966
        },
        {
          "name": "D#3",
          "midi": 51,
          "time": 223.73054549999964,
          "velocity": 0.7244094488188977,
          "duration": 0.11538450000000466
        },
        {
          "name": "D#3",
          "midi": 51,
          "time": 223.84592999999964,
          "velocity": 0.7322834645669292,
          "duration": 0.30769200000000296
        },
        {
          "name": "D#3",
          "midi": 51,
          "time": 224.07669899999965,
          "velocity": 0.7401574803149606,
          "duration": 0.46153799999999023
        },
        {
          "name": "D#3",
          "midi": 51,
          "time": 224.42285249999964,
          "velocity": 0.7480314960629921,
          "duration": 0.11538450000000466
        },
        {
          "name": "D#3",
          "midi": 51,
          "time": 224.53823699999964,
          "velocity": 0.7559055118110236,
          "duration": 0.30769200000000296
        },
        {
          "name": "D#3",
          "midi": 51,
          "time": 224.76900599999965,
          "velocity": 0.7637795275590551,
          "duration": 0.30769199999997454
        },
        {
          "name": "D#3",
          "midi": 51,
          "time": 224.99977499999963,
          "velocity": 0.7716535433070866,
          "duration": 0.09615374999998494
        },
        {
          "name": "D#3",
          "midi": 51,
          "time": 225.1151594999996,
          "velocity": 0.7795275590551181,
          "duration": 0.11538450000000466
        },
        {
          "name": "D#3",
          "midi": 51,
          "time": 225.2305439999996,
          "velocity": 0.7874015748031497,
          "duration": 0.46153799999999023
        },
        {
          "name": "D#3",
          "midi": 51,
          "time": 225.6920819999996,
          "velocity": 0.7874015748031497,
          "duration": 0.46153799999999023
        },
        {
          "name": "D#3",
          "midi": 51,
          "time": 226.1536199999996,
          "velocity": 0.7874015748031497,
          "duration": 0.30769200000000296
        },
        {
          "name": "D#3",
          "midi": 51,
          "time": 226.3843889999996,
          "velocity": 0.7874015748031497,
          "duration": 0.46153799999999023
        },
        {
          "name": "D#3",
          "midi": 51,
          "time": 226.8459269999996,
          "velocity": 0.7874015748031497,
          "duration": 0.30769200000000296
        },
        {
          "name": "D#3",
          "midi": 51,
          "time": 227.0766959999996,
          "velocity": 0.7874015748031497,
          "duration": 0.3846149999999966
        },
        {
          "name": "D#3",
          "midi": 51,
          "time": 227.4228494999996,
          "velocity": 0.7874015748031497,
          "duration": 0.11538450000000466
        },
        {
          "name": "D#3",
          "midi": 51,
          "time": 227.5382339999996,
          "velocity": 0.7874015748031497,
          "duration": 0.30769200000000296
        },
        {
          "name": "D#3",
          "midi": 51,
          "time": 227.7690029999996,
          "velocity": 0.7874015748031497,
          "duration": 0.46153799999999023
        },
        {
          "name": "D#3",
          "midi": 51,
          "time": 228.11515649999959,
          "velocity": 0.7874015748031497,
          "duration": 0.11538450000000466
        },
        {
          "name": "D#3",
          "midi": 51,
          "time": 228.2305409999996,
          "velocity": 0.7874015748031497,
          "duration": 0.30769200000000296
        },
        {
          "name": "D#3",
          "midi": 51,
          "time": 228.4613099999996,
          "velocity": 0.7874015748031497,
          "duration": 0.30769199999997454
        },
        {
          "name": "D#3",
          "midi": 51,
          "time": 228.69207899999958,
          "velocity": 0.7874015748031497,
          "duration": 0.09615374999998494
        },
        {
          "name": "D#3",
          "midi": 51,
          "time": 228.80746349999956,
          "velocity": 0.7874015748031497,
          "duration": 0.11538450000000466
        },
        {
          "name": "D#3",
          "midi": 51,
          "time": 228.92284799999956,
          "velocity": 0.7874015748031497,
          "duration": 0.46153799999999023
        },
        {
          "name": "D#3",
          "midi": 51,
          "time": 229.38438599999955,
          "velocity": 0.7874015748031497,
          "duration": 0.46153799999999023
        },
        {
          "name": "D#3",
          "midi": 51,
          "time": 229.84592399999954,
          "velocity": 0.7874015748031497,
          "duration": 0.30769200000000296
        },
        {
          "name": "D#3",
          "midi": 51,
          "time": 230.07669299999955,
          "velocity": 0.7874015748031497,
          "duration": 0.46153799999999023
        },
        {
          "name": "D#3",
          "midi": 51,
          "time": 230.53823099999954,
          "velocity": 0.7874015748031497,
          "duration": 0.30769200000000296
        },
        {
          "name": "D#3",
          "midi": 51,
          "time": 230.76899999999955,
          "velocity": 0.7874015748031497,
          "duration": 0.3846149999999966
        },
        {
          "name": "D#3",
          "midi": 51,
          "time": 231.11515349999954,
          "velocity": 0.7874015748031497,
          "duration": 0.11538450000000466
        },
        {
          "name": "D#3",
          "midi": 51,
          "time": 231.23053799999954,
          "velocity": 0.7874015748031497,
          "duration": 0.30769200000000296
        },
        {
          "name": "D#3",
          "midi": 51,
          "time": 231.46130699999955,
          "velocity": 0.7874015748031497,
          "duration": 0.46153799999999023
        },
        {
          "name": "D#3",
          "midi": 51,
          "time": 231.80746049999954,
          "velocity": 0.7874015748031497,
          "duration": 0.11538450000000466
        },
        {
          "name": "D#3",
          "midi": 51,
          "time": 231.92284499999954,
          "velocity": 0.7874015748031497,
          "duration": 0.30769200000000296
        },
        {
          "name": "D#3",
          "midi": 51,
          "time": 232.15361399999955,
          "velocity": 0.7874015748031497,
          "duration": 0.30769199999997454
        },
        {
          "name": "D#3",
          "midi": 51,
          "time": 232.38438299999953,
          "velocity": 0.7874015748031497,
          "duration": 0.09615374999998494
        },
        {
          "name": "D#3",
          "midi": 51,
          "time": 232.4997674999995,
          "velocity": 0.7874015748031497,
          "duration": 0.11538450000000466
        },
        {
          "name": "D#3",
          "midi": 51,
          "time": 232.6151519999995,
          "velocity": 0.7874015748031497,
          "duration": 0.46153799999999023
        },
        {
          "name": "D#3",
          "midi": 51,
          "time": 233.0766899999995,
          "velocity": 0.7874015748031497,
          "duration": 0.46153799999999023
        },
        {
          "name": "D#3",
          "midi": 51,
          "time": 233.5382279999995,
          "velocity": 0.7874015748031497,
          "duration": 0.30769200000000296
        },
        {
          "name": "D#3",
          "midi": 51,
          "time": 233.7689969999995,
          "velocity": 0.7874015748031497,
          "duration": 0.46153799999999023
        },
        {
          "name": "D#3",
          "midi": 51,
          "time": 234.2305349999995,
          "velocity": 0.7874015748031497,
          "duration": 0.30769200000000296
        },
        {
          "name": "D#3",
          "midi": 51,
          "time": 234.4613039999995,
          "velocity": 0.7874015748031497,
          "duration": 0.3846149999999966
        },
        {
          "name": "D#3",
          "midi": 51,
          "time": 234.8074574999995,
          "velocity": 0.7874015748031497,
          "duration": 0.11538450000000466
        },
        {
          "name": "D#3",
          "midi": 51,
          "time": 234.9228419999995,
          "velocity": 0.7874015748031497,
          "duration": 0.30769200000000296
        },
        {
          "name": "D#3",
          "midi": 51,
          "time": 235.1536109999995,
          "velocity": 0.7874015748031497,
          "duration": 0.46153799999999023
        },
        {
          "name": "D#3",
          "midi": 51,
          "time": 235.4997644999995,
          "velocity": 0.7874015748031497,
          "duration": 0.11538450000000466
        },
        {
          "name": "D#3",
          "midi": 51,
          "time": 235.6151489999995,
          "velocity": 0.7874015748031497,
          "duration": 0.30769200000000296
        },
        {
          "name": "D#3",
          "midi": 51,
          "time": 235.8459179999995,
          "velocity": 0.7874015748031497,
          "duration": 0.30769199999997454
        },
        {
          "name": "D#3",
          "midi": 51,
          "time": 236.07668699999948,
          "velocity": 0.7874015748031497,
          "duration": 0.09615374999998494
        },
        {
          "name": "D#3",
          "midi": 51,
          "time": 236.19207149999946,
          "velocity": 0.7874015748031497,
          "duration": 0.11538450000000466
        },
        {
          "name": "D#3",
          "midi": 51,
          "time": 236.30745599999946,
          "velocity": 0.7874015748031497,
          "duration": 0.46153799999999023
        },
        {
          "name": "D#3",
          "midi": 51,
          "time": 236.76899399999945,
          "velocity": 0.7874015748031497,
          "duration": 0.46153799999999023
        },
        {
          "name": "D#3",
          "midi": 51,
          "time": 237.23053199999944,
          "velocity": 0.7874015748031497,
          "duration": 0.30769200000000296
        },
        {
          "name": "D#3",
          "midi": 51,
          "time": 237.46130099999945,
          "velocity": 0.7874015748031497,
          "duration": 0.46153799999999023
        },
        {
          "name": "D#3",
          "midi": 51,
          "time": 237.92283899999944,
          "velocity": 0.7874015748031497,
          "duration": 0.30769200000000296
        },
        {
          "name": "D#3",
          "midi": 51,
          "time": 238.15360799999945,
          "velocity": 0.7874015748031497,
          "duration": 0.3846149999999966
        },
        {
          "name": "D#3",
          "midi": 51,
          "time": 238.49976149999944,
          "velocity": 0.7874015748031497,
          "duration": 0.11538450000000466
        },
        {
          "name": "D#3",
          "midi": 51,
          "time": 238.61514599999944,
          "velocity": 0.7874015748031497,
          "duration": 0.30769200000000296
        },
        {
          "name": "D#3",
          "midi": 51,
          "time": 238.84591499999945,
          "velocity": 0.7874015748031497,
          "duration": 0.46153799999999023
        },
        {
          "name": "D#3",
          "midi": 51,
          "time": 239.19206849999944,
          "velocity": 0.7874015748031497,
          "duration": 0.11538450000000466
        },
        {
          "name": "D#3",
          "midi": 51,
          "time": 239.30745299999944,
          "velocity": 0.7874015748031497,
          "duration": 0.30769200000000296
        },
        {
          "name": "D#3",
          "midi": 51,
          "time": 239.53822199999945,
          "velocity": 0.7874015748031497,
          "duration": 0.30769199999997454
        },
        {
          "name": "D#3",
          "midi": 51,
          "time": 239.76899099999943,
          "velocity": 0.7874015748031497,
          "duration": 0.09615374999998494
        },
        {
          "name": "D#3",
          "midi": 51,
          "time": 239.8843754999994,
          "velocity": 0.7874015748031497,
          "duration": 0.11538450000000466
        },
        {
          "name": "D#3",
          "midi": 51,
          "time": 239.9997599999994,
          "velocity": 0.7874015748031497,
          "duration": 0.46153799999999023
        },
        {
          "name": "D#3",
          "midi": 51,
          "time": 240.4612979999994,
          "velocity": 0.7874015748031497,
          "duration": 0.46153799999999023
        },
        {
          "name": "D#3",
          "midi": 51,
          "time": 240.9228359999994,
          "velocity": 0.7874015748031497,
          "duration": 0.30769200000000296
        },
        {
          "name": "D#3",
          "midi": 51,
          "time": 241.1536049999994,
          "velocity": 0.7874015748031497,
          "duration": 0.46153799999999023
        },
        {
          "name": "D#3",
          "midi": 51,
          "time": 241.6151429999994,
          "velocity": 0.7874015748031497,
          "duration": 0.30769200000000296
        },
        {
          "name": "D#3",
          "midi": 51,
          "time": 241.8459119999994,
          "velocity": 0.7874015748031497,
          "duration": 0.3846149999999966
        },
        {
          "name": "D#3",
          "midi": 51,
          "time": 242.1920654999994,
          "velocity": 0.7874015748031497,
          "duration": 0.11538450000000466
        },
        {
          "name": "D#3",
          "midi": 51,
          "time": 242.3074499999994,
          "velocity": 0.7874015748031497,
          "duration": 0.30769200000000296
        },
        {
          "name": "D#3",
          "midi": 51,
          "time": 242.5382189999994,
          "velocity": 0.7874015748031497,
          "duration": 0.46153799999999023
        },
        {
          "name": "D#3",
          "midi": 51,
          "time": 242.8843724999994,
          "velocity": 0.7874015748031497,
          "duration": 0.11538450000000466
        },
        {
          "name": "D#3",
          "midi": 51,
          "time": 242.9997569999994,
          "velocity": 0.7874015748031497,
          "duration": 0.30769200000000296
        },
        {
          "name": "D#3",
          "midi": 51,
          "time": 243.2305259999994,
          "velocity": 0.7874015748031497,
          "duration": 0.30769199999997454
        },
        {
          "name": "D#3",
          "midi": 51,
          "time": 243.46129499999938,
          "velocity": 0.7874015748031497,
          "duration": 0.09615374999998494
        },
        {
          "name": "D#3",
          "midi": 51,
          "time": 243.57667949999936,
          "velocity": 0.7874015748031497,
          "duration": 0.11538450000000466
        },
        {
          "name": "D#3",
          "midi": 51,
          "time": 243.69206399999936,
          "velocity": 0.7874015748031497,
          "duration": 0.46153799999999023
        },
        {
          "name": "D#3",
          "midi": 51,
          "time": 244.15360199999935,
          "velocity": 0.7874015748031497,
          "duration": 0.46153799999999023
        },
        {
          "name": "D#3",
          "midi": 51,
          "time": 244.61513999999934,
          "velocity": 0.7874015748031497,
          "duration": 0.30769200000000296
        },
        {
          "name": "D#3",
          "midi": 51,
          "time": 244.84590899999935,
          "velocity": 0.7874015748031497,
          "duration": 0.46153799999999023
        },
        {
          "name": "D#3",
          "midi": 51,
          "time": 245.30744699999934,
          "velocity": 0.7874015748031497,
          "duration": 0.30769200000000296
        },
        {
          "name": "D#3",
          "midi": 51,
          "time": 245.53821599999935,
          "velocity": 0.7874015748031497,
          "duration": 0.3846149999999966
        },
        {
          "name": "D#3",
          "midi": 51,
          "time": 245.88436949999934,
          "velocity": 0.7874015748031497,
          "duration": 0.11538450000000466
        },
        {
          "name": "D#3",
          "midi": 51,
          "time": 245.99975399999934,
          "velocity": 0.7874015748031497,
          "duration": 0.30769200000000296
        },
        {
          "name": "D#3",
          "midi": 51,
          "time": 246.23052299999935,
          "velocity": 0.7874015748031497,
          "duration": 0.46153799999999023
        },
        {
          "name": "D#3",
          "midi": 51,
          "time": 246.57667649999934,
          "velocity": 0.7874015748031497,
          "duration": 0.11538450000000466
        },
        {
          "name": "D#3",
          "midi": 51,
          "time": 246.69206099999934,
          "velocity": 0.7874015748031497,
          "duration": 0.30769200000000296
        },
        {
          "name": "D#3",
          "midi": 51,
          "time": 246.92282999999935,
          "velocity": 0.7874015748031497,
          "duration": 0.30769199999997454
        },
        {
          "name": "D#3",
          "midi": 51,
          "time": 247.15359899999933,
          "velocity": 0.7874015748031497,
          "duration": 0.09615374999998494
        },
        {
          "name": "D#3",
          "midi": 51,
          "time": 247.2689834999993,
          "velocity": 0.7874015748031497,
          "duration": 0.11538450000000466
        },
        {
          "name": "D#3",
          "midi": 51,
          "time": 247.3843679999993,
          "velocity": 0.7874015748031497,
          "duration": 0.46153799999999023
        },
        {
          "name": "D#3",
          "midi": 51,
          "time": 247.8459059999993,
          "velocity": 0.7874015748031497,
          "duration": 0.46153799999999023
        },
        {
          "name": "D#3",
          "midi": 51,
          "time": 248.3074439999993,
          "velocity": 0.7874015748031497,
          "duration": 0.30769200000000296
        },
        {
          "name": "D#3",
          "midi": 51,
          "time": 248.5382129999993,
          "velocity": 0.7874015748031497,
          "duration": 0.46153799999999023
        },
        {
          "name": "D#3",
          "midi": 51,
          "time": 248.9997509999993,
          "velocity": 0.7874015748031497,
          "duration": 0.30769200000000296
        },
        {
          "name": "D#3",
          "midi": 51,
          "time": 249.2305199999993,
          "velocity": 0.7874015748031497,
          "duration": 0.3846149999999966
        },
        {
          "name": "D#3",
          "midi": 51,
          "time": 249.5766734999993,
          "velocity": 0.7874015748031497,
          "duration": 0.11538450000000466
        },
        {
          "name": "D#3",
          "midi": 51,
          "time": 249.6920579999993,
          "velocity": 0.7874015748031497,
          "duration": 0.30769200000000296
        },
        {
          "name": "D#3",
          "midi": 51,
          "time": 249.9228269999993,
          "velocity": 0.7874015748031497,
          "duration": 0.46153799999999023
        },
        {
          "name": "D#3",
          "midi": 51,
          "time": 250.2689804999993,
          "velocity": 0.7874015748031497,
          "duration": 0.11538450000000466
        },
        {
          "name": "D#3",
          "midi": 51,
          "time": 250.3843649999993,
          "velocity": 0.7874015748031497,
          "duration": 0.30769200000000296
        },
        {
          "name": "D#3",
          "midi": 51,
          "time": 250.6151339999993,
          "velocity": 0.7874015748031497,
          "duration": 0.30769199999997454
        },
        {
          "name": "D#3",
          "midi": 51,
          "time": 250.84590299999928,
          "velocity": 0.7874015748031497,
          "duration": 0.09615374999998494
        },
        {
          "name": "D#3",
          "midi": 51,
          "time": 250.96128749999926,
          "velocity": 0.7874015748031497,
          "duration": 0.11538450000000466
        },
        {
          "name": "D#3",
          "midi": 51,
          "time": 251.07667199999926,
          "velocity": 0.7874015748031497,
          "duration": 0.46153799999999023
        },
        {
          "name": "D#3",
          "midi": 51,
          "time": 251.53820999999925,
          "velocity": 0.7874015748031497,
          "duration": 0.46153799999999023
        },
        {
          "name": "D#3",
          "midi": 51,
          "time": 251.99974799999924,
          "velocity": 0.7874015748031497,
          "duration": 0.30769200000000296
        },
        {
          "name": "D#3",
          "midi": 51,
          "time": 252.23051699999925,
          "velocity": 0.7874015748031497,
          "duration": 0.46153799999999023
        },
        {
          "name": "D#3",
          "midi": 51,
          "time": 252.69205499999924,
          "velocity": 0.7874015748031497,
          "duration": 0.30769200000000296
        },
        {
          "name": "D#3",
          "midi": 51,
          "time": 252.92282399999925,
          "velocity": 0.7874015748031497,
          "duration": 0.3846149999999966
        },
        {
          "name": "D#3",
          "midi": 51,
          "time": 253.26897749999924,
          "velocity": 0.7874015748031497,
          "duration": 0.11538450000000466
        },
        {
          "name": "D#3",
          "midi": 51,
          "time": 253.38436199999924,
          "velocity": 0.7874015748031497,
          "duration": 0.30769200000000296
        },
        {
          "name": "D#3",
          "midi": 51,
          "time": 253.61513099999925,
          "velocity": 0.7874015748031497,
          "duration": 0.46153799999999023
        },
        {
          "name": "D#3",
          "midi": 51,
          "time": 253.96128449999924,
          "velocity": 0.7874015748031497,
          "duration": 0.11538450000000466
        },
        {
          "name": "D#3",
          "midi": 51,
          "time": 254.07666899999924,
          "velocity": 0.7874015748031497,
          "duration": 0.30769200000000296
        },
        {
          "name": "D#3",
          "midi": 51,
          "time": 254.30743799999925,
          "velocity": 0.7874015748031497,
          "duration": 0.30769199999997454
        },
        {
          "name": "D#3",
          "midi": 51,
          "time": 254.53820699999923,
          "velocity": 0.7874015748031497,
          "duration": 0.09615374999998494
        },
        {
          "name": "D#3",
          "midi": 51,
          "time": 254.6535914999992,
          "velocity": 0.7874015748031497,
          "duration": 0.11538450000000466
        },
        {
          "name": "D#3",
          "midi": 51,
          "time": 254.7689759999992,
          "velocity": 0.7874015748031497,
          "duration": 0.46153799999999023
        },
        {
          "name": "D#3",
          "midi": 51,
          "time": 255.2305139999992,
          "velocity": 0.7874015748031497,
          "duration": 0.46153799999999023
        },
        {
          "name": "D#3",
          "midi": 51,
          "time": 255.6920519999992,
          "velocity": 0.7874015748031497,
          "duration": 0.30769200000000296
        },
        {
          "name": "D#3",
          "midi": 51,
          "time": 255.9228209999992,
          "velocity": 0.7874015748031497,
          "duration": 0.46153800000001866
        },
        {
          "name": "D#3",
          "midi": 51,
          "time": 256.3843589999992,
          "velocity": 0.7874015748031497,
          "duration": 0.3076920000000314
        },
        {
          "name": "D#3",
          "midi": 51,
          "time": 256.61512799999923,
          "velocity": 0.7874015748031497,
          "duration": 1.8461520000000178
        }
      ],
      "controlChanges": {
        "7": [
          {
            "number": 7,
            "time": 0,
            "value": 0.48031496062992124
          }
        ],
        "10": [
          {
            "number": 10,
            "time": 0,
            "value": 0.16535433070866143
          }
        ]
      },
      "instrument": ""
    },
    {
      "name": "",
      "notes": [
        {
          "name": "F#3",
          "midi": 54,
          "time": 92.3076,
          "velocity": 0.7874015748031497,
          "duration": 0.46153800000000444
        },
        {
          "name": "F#3",
          "midi": 54,
          "time": 92.769138,
          "velocity": 0.7874015748031497,
          "duration": 0.46153800000000444
        },
        {
          "name": "F#3",
          "midi": 54,
          "time": 93.230676,
          "velocity": 0.7874015748031497,
          "duration": 0.30769199999998875
        },
        {
          "name": "D#3",
          "midi": 51,
          "time": 93.461445,
          "velocity": 0.7874015748031497,
          "duration": 0.46153799999999023
        },
        {
          "name": "F#3",
          "midi": 54,
          "time": 93.92298299999999,
          "velocity": 0.7874015748031497,
          "duration": 0.30769199999998875
        },
        {
          "name": "F3",
          "midi": 53,
          "time": 94.15375199999998,
          "velocity": 0.7874015748031497,
          "duration": 0.3846149999999966
        },
        {
          "name": "F3",
          "midi": 53,
          "time": 94.49990549999998,
          "velocity": 0.7874015748031497,
          "duration": 0.11538449999999045
        },
        {
          "name": "F3",
          "midi": 53,
          "time": 94.61528999999997,
          "velocity": 0.7874015748031497,
          "duration": 0.30769199999998875
        },
        {
          "name": "D#3",
          "midi": 51,
          "time": 94.84605899999997,
          "velocity": 0.7874015748031497,
          "duration": 0.46153800000000444
        },
        {
          "name": "D#3",
          "midi": 51,
          "time": 95.19221249999997,
          "velocity": 0.7874015748031497,
          "duration": 0.11538450000000466
        },
        {
          "name": "D#3",
          "midi": 51,
          "time": 95.30759699999997,
          "velocity": 0.7874015748031497,
          "duration": 0.30769199999998875
        },
        {
          "name": "D3",
          "midi": 50,
          "time": 95.53836599999997,
          "velocity": 0.7874015748031497,
          "duration": 0.30769199999998875
        },
        {
          "name": "D#3",
          "midi": 51,
          "time": 95.76913499999996,
          "velocity": 0.7874015748031497,
          "duration": 0.09615374999999915
        },
        {
          "name": "D#3",
          "midi": 51,
          "time": 95.88451949999997,
          "velocity": 0.7874015748031497,
          "duration": 0.11538450000000466
        },
        {
          "name": "F#3",
          "midi": 54,
          "time": 95.99990399999997,
          "velocity": 0.7874015748031497,
          "duration": 0.46153800000000444
        },
        {
          "name": "F#3",
          "midi": 54,
          "time": 96.46144199999998,
          "velocity": 0.7874015748031497,
          "duration": 0.46153800000000444
        },
        {
          "name": "F#3",
          "midi": 54,
          "time": 96.92297999999998,
          "velocity": 0.7874015748031497,
          "duration": 0.30769199999998875
        },
        {
          "name": "D#3",
          "midi": 51,
          "time": 97.15374899999998,
          "velocity": 0.7874015748031497,
          "duration": 0.46153799999999023
        },
        {
          "name": "F#3",
          "midi": 54,
          "time": 97.61528699999997,
          "velocity": 0.7874015748031497,
          "duration": 0.30769199999998875
        },
        {
          "name": "F3",
          "midi": 53,
          "time": 97.84605599999996,
          "velocity": 0.7874015748031497,
          "duration": 0.3846149999999966
        },
        {
          "name": "F3",
          "midi": 53,
          "time": 98.19220949999996,
          "velocity": 0.7874015748031497,
          "duration": 0.11538449999999045
        },
        {
          "name": "F3",
          "midi": 53,
          "time": 98.30759399999995,
          "velocity": 0.7874015748031497,
          "duration": 0.30769199999998875
        },
        {
          "name": "D#3",
          "midi": 51,
          "time": 98.53836299999995,
          "velocity": 0.7874015748031497,
          "duration": 0.46153800000000444
        },
        {
          "name": "D#3",
          "midi": 51,
          "time": 98.88451649999995,
          "velocity": 0.7874015748031497,
          "duration": 0.11538450000000466
        },
        {
          "name": "D#3",
          "midi": 51,
          "time": 98.99990099999995,
          "velocity": 0.7874015748031497,
          "duration": 0.30769199999998875
        },
        {
          "name": "D3",
          "midi": 50,
          "time": 99.23066999999995,
          "velocity": 0.7874015748031497,
          "duration": 0.30769199999998875
        },
        {
          "name": "D#3",
          "midi": 51,
          "time": 99.46143899999994,
          "velocity": 0.7874015748031497,
          "duration": 0.09615374999999915
        },
        {
          "name": "D#3",
          "midi": 51,
          "time": 99.57682349999995,
          "velocity": 0.7874015748031497,
          "duration": 0.11538450000000466
        },
        {
          "name": "F#3",
          "midi": 54,
          "time": 99.69220799999995,
          "velocity": 0.7874015748031497,
          "duration": 0.46153800000000444
        },
        {
          "name": "F#3",
          "midi": 54,
          "time": 100.15374599999996,
          "velocity": 0.7874015748031497,
          "duration": 0.46153800000000444
        },
        {
          "name": "F#3",
          "midi": 54,
          "time": 100.61528399999996,
          "velocity": 0.7874015748031497,
          "duration": 0.30769199999998875
        },
        {
          "name": "D#3",
          "midi": 51,
          "time": 100.84605299999996,
          "velocity": 0.7874015748031497,
          "duration": 0.46153799999999023
        },
        {
          "name": "F#3",
          "midi": 54,
          "time": 101.30759099999995,
          "velocity": 0.7874015748031497,
          "duration": 0.30769199999998875
        },
        {
          "name": "F3",
          "midi": 53,
          "time": 101.53835999999994,
          "velocity": 0.7874015748031497,
          "duration": 0.3846149999999966
        },
        {
          "name": "F3",
          "midi": 53,
          "time": 101.88451349999994,
          "velocity": 0.7874015748031497,
          "duration": 0.11538449999999045
        },
        {
          "name": "F3",
          "midi": 53,
          "time": 101.99989799999993,
          "velocity": 0.7874015748031497,
          "duration": 0.30769199999998875
        },
        {
          "name": "D#3",
          "midi": 51,
          "time": 102.23066699999993,
          "velocity": 0.7874015748031497,
          "duration": 0.46153800000000444
        },
        {
          "name": "D#3",
          "midi": 51,
          "time": 102.57682049999993,
          "velocity": 0.7874015748031497,
          "duration": 0.11538450000000466
        },
        {
          "name": "D#3",
          "midi": 51,
          "time": 102.69220499999993,
          "velocity": 0.7874015748031497,
          "duration": 0.30769199999998875
        },
        {
          "name": "D3",
          "midi": 50,
          "time": 102.92297399999993,
          "velocity": 0.7874015748031497,
          "duration": 0.30769199999998875
        },
        {
          "name": "D#3",
          "midi": 51,
          "time": 103.15374299999992,
          "velocity": 0.7874015748031497,
          "duration": 0.09615374999999915
        },
        {
          "name": "D#3",
          "midi": 51,
          "time": 103.26912749999993,
          "velocity": 0.7874015748031497,
          "duration": 0.11538450000000466
        },
        {
          "name": "F#3",
          "midi": 54,
          "time": 103.38451199999993,
          "velocity": 0.7874015748031497,
          "duration": 0.46153800000000444
        },
        {
          "name": "F#3",
          "midi": 54,
          "time": 103.84604999999993,
          "velocity": 0.7874015748031497,
          "duration": 0.46153800000000444
        },
        {
          "name": "F#3",
          "midi": 54,
          "time": 104.30758799999994,
          "velocity": 0.7874015748031497,
          "duration": 0.30769199999998875
        },
        {
          "name": "D#3",
          "midi": 51,
          "time": 104.53835699999993,
          "velocity": 0.7874015748031497,
          "duration": 0.46153799999999023
        },
        {
          "name": "F#3",
          "midi": 54,
          "time": 104.99989499999992,
          "velocity": 0.7874015748031497,
          "duration": 0.30769199999998875
        },
        {
          "name": "F3",
          "midi": 53,
          "time": 105.23066399999992,
          "velocity": 0.7874015748031497,
          "duration": 0.3846149999999966
        },
        {
          "name": "F3",
          "midi": 53,
          "time": 105.57681749999992,
          "velocity": 0.7874015748031497,
          "duration": 0.11538449999999045
        },
        {
          "name": "F3",
          "midi": 53,
          "time": 105.69220199999991,
          "velocity": 0.7874015748031497,
          "duration": 0.30769199999998875
        },
        {
          "name": "D#3",
          "midi": 51,
          "time": 105.9229709999999,
          "velocity": 0.7874015748031497,
          "duration": 0.46153800000000444
        },
        {
          "name": "D#3",
          "midi": 51,
          "time": 106.2691244999999,
          "velocity": 0.7874015748031497,
          "duration": 0.11538450000000466
        },
        {
          "name": "D#3",
          "midi": 51,
          "time": 106.38450899999991,
          "velocity": 0.7874015748031497,
          "duration": 0.30769199999998875
        },
        {
          "name": "D3",
          "midi": 50,
          "time": 106.6152779999999,
          "velocity": 0.7874015748031497,
          "duration": 0.30769199999998875
        },
        {
          "name": "D#3",
          "midi": 51,
          "time": 106.8460469999999,
          "velocity": 0.7874015748031497,
          "duration": 0.09615374999999915
        },
        {
          "name": "D#3",
          "midi": 51,
          "time": 106.9614314999999,
          "velocity": 0.7874015748031497,
          "duration": 0.11538450000000466
        },
        {
          "name": "F#3",
          "midi": 54,
          "time": 107.07681599999991,
          "velocity": 0.7874015748031497,
          "duration": 0.46153800000000444
        },
        {
          "name": "F#3",
          "midi": 54,
          "time": 107.53835399999991,
          "velocity": 0.7874015748031497,
          "duration": 0.46153800000000444
        },
        {
          "name": "F#3",
          "midi": 54,
          "time": 107.99989199999992,
          "velocity": 0.7874015748031497,
          "duration": 0.30769199999998875
        },
        {
          "name": "D#3",
          "midi": 51,
          "time": 108.23066099999991,
          "velocity": 0.7874015748031497,
          "duration": 0.46153799999999023
        },
        {
          "name": "F#3",
          "midi": 54,
          "time": 108.6921989999999,
          "velocity": 0.7874015748031497,
          "duration": 0.30769199999998875
        },
        {
          "name": "F3",
          "midi": 53,
          "time": 108.9229679999999,
          "velocity": 0.7874015748031497,
          "duration": 0.3846149999999966
        },
        {
          "name": "F3",
          "midi": 53,
          "time": 109.2691214999999,
          "velocity": 0.7874015748031497,
          "duration": 0.11538449999999045
        },
        {
          "name": "F3",
          "midi": 53,
          "time": 109.38450599999989,
          "velocity": 0.7874015748031497,
          "duration": 0.30769199999998875
        },
        {
          "name": "D#3",
          "midi": 51,
          "time": 109.61527499999988,
          "velocity": 0.7874015748031497,
          "duration": 0.46153800000000444
        },
        {
          "name": "D#3",
          "midi": 51,
          "time": 109.96142849999988,
          "velocity": 0.7874015748031497,
          "duration": 0.11538450000000466
        },
        {
          "name": "D#3",
          "midi": 51,
          "time": 110.07681299999989,
          "velocity": 0.7874015748031497,
          "duration": 0.30769199999998875
        },
        {
          "name": "D3",
          "midi": 50,
          "time": 110.30758199999988,
          "velocity": 0.7874015748031497,
          "duration": 0.30769199999998875
        },
        {
          "name": "D#3",
          "midi": 51,
          "time": 110.53835099999988,
          "velocity": 0.7874015748031497,
          "duration": 0.09615374999999915
        },
        {
          "name": "D#3",
          "midi": 51,
          "time": 110.65373549999988,
          "velocity": 0.7874015748031497,
          "duration": 0.11538450000000466
        },
        {
          "name": "F#3",
          "midi": 54,
          "time": 110.76911999999989,
          "velocity": 0.7874015748031497,
          "duration": 0.46153800000000444
        },
        {
          "name": "F#3",
          "midi": 54,
          "time": 111.23065799999989,
          "velocity": 0.7874015748031497,
          "duration": 0.46153800000000444
        },
        {
          "name": "F#3",
          "midi": 54,
          "time": 111.6921959999999,
          "velocity": 0.7874015748031497,
          "duration": 0.30769199999998875
        },
        {
          "name": "D#3",
          "midi": 51,
          "time": 111.92296499999989,
          "velocity": 0.7874015748031497,
          "duration": 0.46153799999999023
        },
        {
          "name": "F#3",
          "midi": 54,
          "time": 112.38450299999988,
          "velocity": 0.7874015748031497,
          "duration": 0.30769199999998875
        },
        {
          "name": "F3",
          "midi": 53,
          "time": 112.61527199999988,
          "velocity": 0.7874015748031497,
          "duration": 0.3846149999999966
        },
        {
          "name": "F3",
          "midi": 53,
          "time": 112.96142549999988,
          "velocity": 0.7874015748031497,
          "duration": 0.11538449999999045
        },
        {
          "name": "F3",
          "midi": 53,
          "time": 113.07680999999987,
          "velocity": 0.7874015748031497,
          "duration": 0.30769199999998875
        },
        {
          "name": "D#3",
          "midi": 51,
          "time": 113.30757899999986,
          "velocity": 0.7874015748031497,
          "duration": 0.46153800000000444
        },
        {
          "name": "D#3",
          "midi": 51,
          "time": 113.65373249999986,
          "velocity": 0.7874015748031497,
          "duration": 0.11538450000000466
        },
        {
          "name": "D#3",
          "midi": 51,
          "time": 113.76911699999987,
          "velocity": 0.7874015748031497,
          "duration": 0.30769199999998875
        },
        {
          "name": "D3",
          "midi": 50,
          "time": 113.99988599999986,
          "velocity": 0.7874015748031497,
          "duration": 0.30769199999998875
        },
        {
          "name": "D#3",
          "midi": 51,
          "time": 114.23065499999986,
          "velocity": 0.7874015748031497,
          "duration": 0.09615374999999915
        },
        {
          "name": "D#3",
          "midi": 51,
          "time": 114.34603949999986,
          "velocity": 0.7874015748031497,
          "duration": 0.11538450000000466
        },
        {
          "name": "F#3",
          "midi": 54,
          "time": 114.46142399999987,
          "velocity": 0.7874015748031497,
          "duration": 0.46153800000000444
        },
        {
          "name": "F#3",
          "midi": 54,
          "time": 114.92296199999987,
          "velocity": 0.7874015748031497,
          "duration": 0.46153800000000444
        },
        {
          "name": "F#3",
          "midi": 54,
          "time": 115.38449999999987,
          "velocity": 0.7874015748031497,
          "duration": 0.30769199999998875
        },
        {
          "name": "D#3",
          "midi": 51,
          "time": 115.61526899999987,
          "velocity": 0.7874015748031497,
          "duration": 0.46153799999999023
        },
        {
          "name": "F#3",
          "midi": 54,
          "time": 116.07680699999986,
          "velocity": 0.7874015748031497,
          "duration": 0.30769199999998875
        },
        {
          "name": "F3",
          "midi": 53,
          "time": 116.30757599999986,
          "velocity": 0.7874015748031497,
          "duration": 0.3846149999999966
        },
        {
          "name": "F3",
          "midi": 53,
          "time": 116.65372949999986,
          "velocity": 0.7874015748031497,
          "duration": 0.11538449999999045
        },
        {
          "name": "F3",
          "midi": 53,
          "time": 116.76911399999985,
          "velocity": 0.7874015748031497,
          "duration": 0.30769199999998875
        },
        {
          "name": "D#3",
          "midi": 51,
          "time": 116.99988299999984,
          "velocity": 0.7874015748031497,
          "duration": 0.46153800000000444
        },
        {
          "name": "D#3",
          "midi": 51,
          "time": 117.34603649999984,
          "velocity": 0.7874015748031497,
          "duration": 0.11538450000000466
        },
        {
          "name": "D#3",
          "midi": 51,
          "time": 117.46142099999985,
          "velocity": 0.7874015748031497,
          "duration": 0.30769199999998875
        },
        {
          "name": "D3",
          "midi": 50,
          "time": 117.69218999999984,
          "velocity": 0.7874015748031497,
          "duration": 0.30769199999998875
        },
        {
          "name": "D#3",
          "midi": 51,
          "time": 117.92295899999984,
          "velocity": 0.7874015748031497,
          "duration": 0.09615374999999915
        },
        {
          "name": "D#3",
          "midi": 51,
          "time": 118.03834349999984,
          "velocity": 0.7874015748031497,
          "duration": 0.11538450000000466
        },
        {
          "name": "F#3",
          "midi": 54,
          "time": 118.15372799999984,
          "velocity": 0.7874015748031497,
          "duration": 0.46153800000000444
        },
        {
          "name": "F#3",
          "midi": 54,
          "time": 118.61526599999985,
          "velocity": 0.7874015748031497,
          "duration": 0.46153800000000444
        },
        {
          "name": "F#3",
          "midi": 54,
          "time": 119.07680399999985,
          "velocity": 0.7874015748031497,
          "duration": 0.30769199999998875
        },
        {
          "name": "D#3",
          "midi": 51,
          "time": 119.30757299999985,
          "velocity": 0.7874015748031497,
          "duration": 0.46153799999999023
        },
        {
          "name": "F#3",
          "midi": 54,
          "time": 119.76911099999984,
          "velocity": 0.7874015748031497,
          "duration": 0.30769199999998875
        },
        {
          "name": "F3",
          "midi": 53,
          "time": 119.99987999999983,
          "velocity": 0.7874015748031497,
          "duration": 0.3846149999999966
        },
        {
          "name": "F3",
          "midi": 53,
          "time": 120.34603349999983,
          "velocity": 0.7874015748031497,
          "duration": 0.11538449999999045
        },
        {
          "name": "F3",
          "midi": 53,
          "time": 120.46141799999982,
          "velocity": 0.7874015748031497,
          "duration": 0.30769199999998875
        },
        {
          "name": "D#3",
          "midi": 51,
          "time": 120.69218699999982,
          "velocity": 0.7874015748031497,
          "duration": 0.46153800000000444
        },
        {
          "name": "D#3",
          "midi": 51,
          "time": 121.03834049999982,
          "velocity": 0.7874015748031497,
          "duration": 0.11538450000000466
        },
        {
          "name": "D#3",
          "midi": 51,
          "time": 121.15372499999982,
          "velocity": 0.7874015748031497,
          "duration": 0.30769199999998875
        },
        {
          "name": "D3",
          "midi": 50,
          "time": 121.38449399999982,
          "velocity": 0.7874015748031497,
          "duration": 0.30769199999998875
        },
        {
          "name": "D#3",
          "midi": 51,
          "time": 121.61526299999981,
          "velocity": 0.7874015748031497,
          "duration": 0.09615374999999915
        },
        {
          "name": "D#3",
          "midi": 51,
          "time": 121.73064749999982,
          "velocity": 0.7874015748031497,
          "duration": 0.11538450000000466
        },
        {
          "name": "F#3",
          "midi": 54,
          "time": 210.4613279999998,
          "velocity": 0.3937007874015748,
          "duration": 0.46153799999999023
        },
        {
          "name": "F#3",
          "midi": 54,
          "time": 210.9228659999998,
          "velocity": 0.3937007874015748,
          "duration": 0.46153799999999023
        },
        {
          "name": "F#3",
          "midi": 54,
          "time": 211.3844039999998,
          "velocity": 0.3937007874015748,
          "duration": 0.30769200000000296
        },
        {
          "name": "D#3",
          "midi": 51,
          "time": 211.6151729999998,
          "velocity": 0.3937007874015748,
          "duration": 0.46153799999999023
        },
        {
          "name": "F#3",
          "midi": 54,
          "time": 212.0767109999998,
          "velocity": 0.3937007874015748,
          "duration": 0.30769200000000296
        },
        {
          "name": "F3",
          "midi": 53,
          "time": 212.3074799999998,
          "velocity": 0.3937007874015748,
          "duration": 0.3846149999999966
        },
        {
          "name": "F3",
          "midi": 53,
          "time": 212.65363349999978,
          "velocity": 0.3937007874015748,
          "duration": 0.11538450000000466
        },
        {
          "name": "F3",
          "midi": 53,
          "time": 212.7690179999998,
          "velocity": 0.4015748031496063,
          "duration": 0.30769200000000296
        },
        {
          "name": "D#3",
          "midi": 51,
          "time": 212.9997869999998,
          "velocity": 0.4094488188976378,
          "duration": 0.46153799999999023
        },
        {
          "name": "D#3",
          "midi": 51,
          "time": 213.34594049999978,
          "velocity": 0.41732283464566927,
          "duration": 0.11538450000000466
        },
        {
          "name": "D#3",
          "midi": 51,
          "time": 213.4613249999998,
          "velocity": 0.4251968503937008,
          "duration": 0.30769200000000296
        },
        {
          "name": "D3",
          "midi": 50,
          "time": 213.6920939999998,
          "velocity": 0.4330708661417323,
          "duration": 0.30769199999997454
        },
        {
          "name": "D#3",
          "midi": 51,
          "time": 213.92286299999978,
          "velocity": 0.4409448818897638,
          "duration": 0.09615374999998494
        },
        {
          "name": "D#3",
          "midi": 51,
          "time": 214.03824749999976,
          "velocity": 0.4566929133858268,
          "duration": 0.11538450000000466
        },
        {
          "name": "F#3",
          "midi": 54,
          "time": 214.15363199999976,
          "velocity": 0.4566929133858268,
          "duration": 0.46153799999999023
        },
        {
          "name": "F#3",
          "midi": 54,
          "time": 214.61516999999975,
          "velocity": 0.4645669291338583,
          "duration": 0.46153799999999023
        },
        {
          "name": "F#3",
          "midi": 54,
          "time": 215.07670799999974,
          "velocity": 0.47244094488188976,
          "duration": 0.30769200000000296
        },
        {
          "name": "D#3",
          "midi": 51,
          "time": 215.30747699999975,
          "velocity": 0.48031496062992124,
          "duration": 0.46153799999999023
        },
        {
          "name": "F#3",
          "midi": 54,
          "time": 215.76901499999974,
          "velocity": 0.4881889763779528,
          "duration": 0.30769200000000296
        },
        {
          "name": "F3",
          "midi": 53,
          "time": 215.99978399999975,
          "velocity": 0.49606299212598426,
          "duration": 0.3846149999999966
        },
        {
          "name": "F3",
          "midi": 53,
          "time": 216.34593749999974,
          "velocity": 0.5039370078740157,
          "duration": 0.11538450000000466
        },
        {
          "name": "F3",
          "midi": 53,
          "time": 216.46132199999974,
          "velocity": 0.5118110236220472,
          "duration": 0.30769200000000296
        },
        {
          "name": "D#3",
          "midi": 51,
          "time": 216.69209099999975,
          "velocity": 0.5196850393700787,
          "duration": 0.46153799999999023
        },
        {
          "name": "D#3",
          "midi": 51,
          "time": 217.03824449999973,
          "velocity": 0.5275590551181102,
          "duration": 0.11538450000000466
        },
        {
          "name": "D#3",
          "midi": 51,
          "time": 217.15362899999974,
          "velocity": 0.5354330708661418,
          "duration": 0.30769200000000296
        },
        {
          "name": "D3",
          "midi": 50,
          "time": 217.38439799999975,
          "velocity": 0.5433070866141733,
          "duration": 0.30769199999997454
        },
        {
          "name": "D#3",
          "midi": 51,
          "time": 217.61516699999973,
          "velocity": 0.5511811023622047,
          "duration": 0.09615374999998494
        },
        {
          "name": "D#3",
          "midi": 51,
          "time": 217.7305514999997,
          "velocity": 0.5590551181102362,
          "duration": 0.11538450000000466
        },
        {
          "name": "F#3",
          "midi": 54,
          "time": 217.8459359999997,
          "velocity": 0.5669291338582677,
          "duration": 0.46153799999999023
        },
        {
          "name": "F#3",
          "midi": 54,
          "time": 218.3074739999997,
          "velocity": 0.5748031496062992,
          "duration": 0.46153799999999023
        },
        {
          "name": "F#3",
          "midi": 54,
          "time": 218.7690119999997,
          "velocity": 0.5826771653543307,
          "duration": 0.30769200000000296
        },
        {
          "name": "D#3",
          "midi": 51,
          "time": 218.9997809999997,
          "velocity": 0.5905511811023622,
          "duration": 0.46153799999999023
        },
        {
          "name": "F#3",
          "midi": 54,
          "time": 219.4613189999997,
          "velocity": 0.5984251968503937,
          "duration": 0.30769200000000296
        },
        {
          "name": "F3",
          "midi": 53,
          "time": 219.6920879999997,
          "velocity": 0.6062992125984252,
          "duration": 0.3846149999999966
        },
        {
          "name": "F3",
          "midi": 53,
          "time": 220.03824149999969,
          "velocity": 0.6141732283464567,
          "duration": 0.11538450000000466
        },
        {
          "name": "F3",
          "midi": 53,
          "time": 220.1536259999997,
          "velocity": 0.6220472440944882,
          "duration": 0.30769200000000296
        },
        {
          "name": "D#3",
          "midi": 51,
          "time": 220.3843949999997,
          "velocity": 0.6299212598425197,
          "duration": 0.46153799999999023
        },
        {
          "name": "D#3",
          "midi": 51,
          "time": 220.73054849999968,
          "velocity": 0.6377952755905512,
          "duration": 0.11538450000000466
        },
        {
          "name": "D#3",
          "midi": 51,
          "time": 220.8459329999997,
          "velocity": 0.6456692913385826,
          "duration": 0.30769200000000296
        },
        {
          "name": "D3",
          "midi": 50,
          "time": 221.0767019999997,
          "velocity": 0.6535433070866141,
          "duration": 0.30769199999997454
        },
        {
          "name": "D#3",
          "midi": 51,
          "time": 221.30747099999968,
          "velocity": 0.6614173228346457,
          "duration": 0.09615374999998494
        },
        {
          "name": "D#3",
          "midi": 51,
          "time": 221.42285549999966,
          "velocity": 0.6692913385826772,
          "duration": 0.11538450000000466
        },
        {
          "name": "F#3",
          "midi": 54,
          "time": 221.53823999999966,
          "velocity": 0.6771653543307087,
          "duration": 0.46153799999999023
        },
        {
          "name": "F#3",
          "midi": 54,
          "time": 221.99977799999965,
          "velocity": 0.6850393700787402,
          "duration": 0.46153799999999023
        },
        {
          "name": "F#3",
          "midi": 54,
          "time": 222.46131599999964,
          "velocity": 0.6929133858267716,
          "duration": 0.30769200000000296
        },
        {
          "name": "D#3",
          "midi": 51,
          "time": 222.69208499999965,
          "velocity": 0.7007874015748031,
          "duration": 0.46153799999999023
        },
        {
          "name": "F#3",
          "midi": 54,
          "time": 223.15362299999964,
          "velocity": 0.7086614173228346,
          "duration": 0.30769200000000296
        },
        {
          "name": "F3",
          "midi": 53,
          "time": 223.38439199999965,
          "velocity": 0.7165354330708661,
          "duration": 0.3846149999999966
        },
        {
          "name": "F3",
          "midi": 53,
          "time": 223.73054549999964,
          "velocity": 0.7244094488188977,
          "duration": 0.11538450000000466
        },
        {
          "name": "F3",
          "midi": 53,
          "time": 223.84592999999964,
          "velocity": 0.7322834645669292,
          "duration": 0.30769200000000296
        },
        {
          "name": "D#3",
          "midi": 51,
          "time": 224.07669899999965,
          "velocity": 0.7401574803149606,
          "duration": 0.46153799999999023
        },
        {
          "name": "D#3",
          "midi": 51,
          "time": 224.42285249999964,
          "velocity": 0.7480314960629921,
          "duration": 0.11538450000000466
        },
        {
          "name": "D#3",
          "midi": 51,
          "time": 224.53823699999964,
          "velocity": 0.7559055118110236,
          "duration": 0.30769200000000296
        },
        {
          "name": "D3",
          "midi": 50,
          "time": 224.76900599999965,
          "velocity": 0.7637795275590551,
          "duration": 0.30769199999997454
        },
        {
          "name": "D#3",
          "midi": 51,
          "time": 224.99977499999963,
          "velocity": 0.7716535433070866,
          "duration": 0.09615374999998494
        },
        {
          "name": "D#3",
          "midi": 51,
          "time": 225.1151594999996,
          "velocity": 0.7795275590551181,
          "duration": 0.11538450000000466
        },
        {
          "name": "F#3",
          "midi": 54,
          "time": 225.2305439999996,
          "velocity": 0.7874015748031497,
          "duration": 0.46153799999999023
        },
        {
          "name": "F#3",
          "midi": 54,
          "time": 225.6920819999996,
          "velocity": 0.7874015748031497,
          "duration": 0.46153799999999023
        },
        {
          "name": "F#3",
          "midi": 54,
          "time": 226.1536199999996,
          "velocity": 0.7874015748031497,
          "duration": 0.30769200000000296
        },
        {
          "name": "D#3",
          "midi": 51,
          "time": 226.3843889999996,
          "velocity": 0.7874015748031497,
          "duration": 0.46153799999999023
        },
        {
          "name": "F#3",
          "midi": 54,
          "time": 226.8459269999996,
          "velocity": 0.7874015748031497,
          "duration": 0.30769200000000296
        },
        {
          "name": "F3",
          "midi": 53,
          "time": 227.0766959999996,
          "velocity": 0.7874015748031497,
          "duration": 0.3846149999999966
        },
        {
          "name": "F3",
          "midi": 53,
          "time": 227.4228494999996,
          "velocity": 0.7874015748031497,
          "duration": 0.11538450000000466
        },
        {
          "name": "F3",
          "midi": 53,
          "time": 227.5382339999996,
          "velocity": 0.7874015748031497,
          "duration": 0.30769200000000296
        },
        {
          "name": "D#3",
          "midi": 51,
          "time": 227.7690029999996,
          "velocity": 0.7874015748031497,
          "duration": 0.46153799999999023
        },
        {
          "name": "D#3",
          "midi": 51,
          "time": 228.11515649999959,
          "velocity": 0.7874015748031497,
          "duration": 0.11538450000000466
        },
        {
          "name": "D#3",
          "midi": 51,
          "time": 228.2305409999996,
          "velocity": 0.7874015748031497,
          "duration": 0.30769200000000296
        },
        {
          "name": "D3",
          "midi": 50,
          "time": 228.4613099999996,
          "velocity": 0.7874015748031497,
          "duration": 0.30769199999997454
        },
        {
          "name": "D#3",
          "midi": 51,
          "time": 228.69207899999958,
          "velocity": 0.7874015748031497,
          "duration": 0.09615374999998494
        },
        {
          "name": "D#3",
          "midi": 51,
          "time": 228.80746349999956,
          "velocity": 0.7874015748031497,
          "duration": 0.11538450000000466
        },
        {
          "name": "F#3",
          "midi": 54,
          "time": 228.92284799999956,
          "velocity": 0.7874015748031497,
          "duration": 0.46153799999999023
        },
        {
          "name": "F#3",
          "midi": 54,
          "time": 229.38438599999955,
          "velocity": 0.7874015748031497,
          "duration": 0.46153799999999023
        },
        {
          "name": "F#3",
          "midi": 54,
          "time": 229.84592399999954,
          "velocity": 0.7874015748031497,
          "duration": 0.30769200000000296
        },
        {
          "name": "D#3",
          "midi": 51,
          "time": 230.07669299999955,
          "velocity": 0.7874015748031497,
          "duration": 0.46153799999999023
        },
        {
          "name": "F#3",
          "midi": 54,
          "time": 230.53823099999954,
          "velocity": 0.7874015748031497,
          "duration": 0.30769200000000296
        },
        {
          "name": "F3",
          "midi": 53,
          "time": 230.76899999999955,
          "velocity": 0.7874015748031497,
          "duration": 0.3846149999999966
        },
        {
          "name": "F3",
          "midi": 53,
          "time": 231.11515349999954,
          "velocity": 0.7874015748031497,
          "duration": 0.11538450000000466
        },
        {
          "name": "F3",
          "midi": 53,
          "time": 231.23053799999954,
          "velocity": 0.7874015748031497,
          "duration": 0.30769200000000296
        },
        {
          "name": "D#3",
          "midi": 51,
          "time": 231.46130699999955,
          "velocity": 0.7874015748031497,
          "duration": 0.46153799999999023
        },
        {
          "name": "D#3",
          "midi": 51,
          "time": 231.80746049999954,
          "velocity": 0.7874015748031497,
          "duration": 0.11538450000000466
        },
        {
          "name": "D#3",
          "midi": 51,
          "time": 231.92284499999954,
          "velocity": 0.7874015748031497,
          "duration": 0.30769200000000296
        },
        {
          "name": "D3",
          "midi": 50,
          "time": 232.15361399999955,
          "velocity": 0.7874015748031497,
          "duration": 0.30769199999997454
        },
        {
          "name": "D#3",
          "midi": 51,
          "time": 232.38438299999953,
          "velocity": 0.7874015748031497,
          "duration": 0.09615374999998494
        },
        {
          "name": "D#3",
          "midi": 51,
          "time": 232.4997674999995,
          "velocity": 0.7874015748031497,
          "duration": 0.11538450000000466
        },
        {
          "name": "F#3",
          "midi": 54,
          "time": 232.6151519999995,
          "velocity": 0.7874015748031497,
          "duration": 0.46153799999999023
        },
        {
          "name": "F#3",
          "midi": 54,
          "time": 233.0766899999995,
          "velocity": 0.7874015748031497,
          "duration": 0.46153799999999023
        },
        {
          "name": "F#3",
          "midi": 54,
          "time": 233.5382279999995,
          "velocity": 0.7874015748031497,
          "duration": 0.30769200000000296
        },
        {
          "name": "D#3",
          "midi": 51,
          "time": 233.7689969999995,
          "velocity": 0.7874015748031497,
          "duration": 0.46153799999999023
        },
        {
          "name": "F#3",
          "midi": 54,
          "time": 234.2305349999995,
          "velocity": 0.7874015748031497,
          "duration": 0.30769200000000296
        },
        {
          "name": "F3",
          "midi": 53,
          "time": 234.4613039999995,
          "velocity": 0.7874015748031497,
          "duration": 0.3846149999999966
        },
        {
          "name": "F3",
          "midi": 53,
          "time": 234.8074574999995,
          "velocity": 0.7874015748031497,
          "duration": 0.11538450000000466
        },
        {
          "name": "F3",
          "midi": 53,
          "time": 234.9228419999995,
          "velocity": 0.7874015748031497,
          "duration": 0.30769200000000296
        },
        {
          "name": "D#3",
          "midi": 51,
          "time": 235.1536109999995,
          "velocity": 0.7874015748031497,
          "duration": 0.46153799999999023
        },
        {
          "name": "D#3",
          "midi": 51,
          "time": 235.4997644999995,
          "velocity": 0.7874015748031497,
          "duration": 0.11538450000000466
        },
        {
          "name": "D#3",
          "midi": 51,
          "time": 235.6151489999995,
          "velocity": 0.7874015748031497,
          "duration": 0.30769200000000296
        },
        {
          "name": "D3",
          "midi": 50,
          "time": 235.8459179999995,
          "velocity": 0.7874015748031497,
          "duration": 0.30769199999997454
        },
        {
          "name": "D#3",
          "midi": 51,
          "time": 236.07668699999948,
          "velocity": 0.7874015748031497,
          "duration": 0.09615374999998494
        },
        {
          "name": "D#3",
          "midi": 51,
          "time": 236.19207149999946,
          "velocity": 0.7874015748031497,
          "duration": 0.11538450000000466
        },
        {
          "name": "F#3",
          "midi": 54,
          "time": 236.30745599999946,
          "velocity": 0.7874015748031497,
          "duration": 0.46153799999999023
        },
        {
          "name": "F#3",
          "midi": 54,
          "time": 236.76899399999945,
          "velocity": 0.7874015748031497,
          "duration": 0.46153799999999023
        },
        {
          "name": "F#3",
          "midi": 54,
          "time": 237.23053199999944,
          "velocity": 0.7874015748031497,
          "duration": 0.30769200000000296
        },
        {
          "name": "D#3",
          "midi": 51,
          "time": 237.46130099999945,
          "velocity": 0.7874015748031497,
          "duration": 0.46153799999999023
        },
        {
          "name": "F#3",
          "midi": 54,
          "time": 237.92283899999944,
          "velocity": 0.7874015748031497,
          "duration": 0.30769200000000296
        },
        {
          "name": "F3",
          "midi": 53,
          "time": 238.15360799999945,
          "velocity": 0.7874015748031497,
          "duration": 0.3846149999999966
        },
        {
          "name": "F3",
          "midi": 53,
          "time": 238.49976149999944,
          "velocity": 0.7874015748031497,
          "duration": 0.11538450000000466
        },
        {
          "name": "F3",
          "midi": 53,
          "time": 238.61514599999944,
          "velocity": 0.7874015748031497,
          "duration": 0.30769200000000296
        },
        {
          "name": "D#3",
          "midi": 51,
          "time": 238.84591499999945,
          "velocity": 0.7874015748031497,
          "duration": 0.46153799999999023
        },
        {
          "name": "D#3",
          "midi": 51,
          "time": 239.19206849999944,
          "velocity": 0.7874015748031497,
          "duration": 0.11538450000000466
        },
        {
          "name": "D#3",
          "midi": 51,
          "time": 239.30745299999944,
          "velocity": 0.7874015748031497,
          "duration": 0.30769200000000296
        },
        {
          "name": "D3",
          "midi": 50,
          "time": 239.53822199999945,
          "velocity": 0.7874015748031497,
          "duration": 0.30769199999997454
        },
        {
          "name": "D#3",
          "midi": 51,
          "time": 239.76899099999943,
          "velocity": 0.7874015748031497,
          "duration": 0.09615374999998494
        },
        {
          "name": "D#3",
          "midi": 51,
          "time": 239.8843754999994,
          "velocity": 0.7874015748031497,
          "duration": 0.11538450000000466
        },
        {
          "name": "F#3",
          "midi": 54,
          "time": 239.9997599999994,
          "velocity": 0.7874015748031497,
          "duration": 0.46153799999999023
        },
        {
          "name": "F#3",
          "midi": 54,
          "time": 240.4612979999994,
          "velocity": 0.7874015748031497,
          "duration": 0.46153799999999023
        },
        {
          "name": "F#3",
          "midi": 54,
          "time": 240.9228359999994,
          "velocity": 0.7874015748031497,
          "duration": 0.30769200000000296
        },
        {
          "name": "D#3",
          "midi": 51,
          "time": 241.1536049999994,
          "velocity": 0.7874015748031497,
          "duration": 0.46153799999999023
        },
        {
          "name": "F#3",
          "midi": 54,
          "time": 241.6151429999994,
          "velocity": 0.7874015748031497,
          "duration": 0.30769200000000296
        },
        {
          "name": "F3",
          "midi": 53,
          "time": 241.8459119999994,
          "velocity": 0.7874015748031497,
          "duration": 0.3846149999999966
        },
        {
          "name": "F3",
          "midi": 53,
          "time": 242.1920654999994,
          "velocity": 0.7874015748031497,
          "duration": 0.11538450000000466
        },
        {
          "name": "F3",
          "midi": 53,
          "time": 242.3074499999994,
          "velocity": 0.7874015748031497,
          "duration": 0.30769200000000296
        },
        {
          "name": "D#3",
          "midi": 51,
          "time": 242.5382189999994,
          "velocity": 0.7874015748031497,
          "duration": 0.46153799999999023
        },
        {
          "name": "D#3",
          "midi": 51,
          "time": 242.8843724999994,
          "velocity": 0.7874015748031497,
          "duration": 0.11538450000000466
        },
        {
          "name": "D#3",
          "midi": 51,
          "time": 242.9997569999994,
          "velocity": 0.7874015748031497,
          "duration": 0.30769200000000296
        },
        {
          "name": "D3",
          "midi": 50,
          "time": 243.2305259999994,
          "velocity": 0.7874015748031497,
          "duration": 0.30769199999997454
        },
        {
          "name": "D#3",
          "midi": 51,
          "time": 243.46129499999938,
          "velocity": 0.7874015748031497,
          "duration": 0.09615374999998494
        },
        {
          "name": "D#3",
          "midi": 51,
          "time": 243.57667949999936,
          "velocity": 0.7874015748031497,
          "duration": 0.11538450000000466
        },
        {
          "name": "F#3",
          "midi": 54,
          "time": 243.69206399999936,
          "velocity": 0.7874015748031497,
          "duration": 0.46153799999999023
        },
        {
          "name": "F#3",
          "midi": 54,
          "time": 244.15360199999935,
          "velocity": 0.7874015748031497,
          "duration": 0.46153799999999023
        },
        {
          "name": "F#3",
          "midi": 54,
          "time": 244.61513999999934,
          "velocity": 0.7874015748031497,
          "duration": 0.30769200000000296
        },
        {
          "name": "D#3",
          "midi": 51,
          "time": 244.84590899999935,
          "velocity": 0.7874015748031497,
          "duration": 0.46153799999999023
        },
        {
          "name": "F#3",
          "midi": 54,
          "time": 245.30744699999934,
          "velocity": 0.7874015748031497,
          "duration": 0.30769200000000296
        },
        {
          "name": "F3",
          "midi": 53,
          "time": 245.53821599999935,
          "velocity": 0.7874015748031497,
          "duration": 0.3846149999999966
        },
        {
          "name": "F3",
          "midi": 53,
          "time": 245.88436949999934,
          "velocity": 0.7874015748031497,
          "duration": 0.11538450000000466
        },
        {
          "name": "F3",
          "midi": 53,
          "time": 245.99975399999934,
          "velocity": 0.7874015748031497,
          "duration": 0.30769200000000296
        },
        {
          "name": "D#3",
          "midi": 51,
          "time": 246.23052299999935,
          "velocity": 0.7874015748031497,
          "duration": 0.46153799999999023
        },
        {
          "name": "D#3",
          "midi": 51,
          "time": 246.57667649999934,
          "velocity": 0.7874015748031497,
          "duration": 0.11538450000000466
        },
        {
          "name": "D#3",
          "midi": 51,
          "time": 246.69206099999934,
          "velocity": 0.7874015748031497,
          "duration": 0.30769200000000296
        },
        {
          "name": "D3",
          "midi": 50,
          "time": 246.92282999999935,
          "velocity": 0.7874015748031497,
          "duration": 0.30769199999997454
        },
        {
          "name": "D#3",
          "midi": 51,
          "time": 247.15359899999933,
          "velocity": 0.7874015748031497,
          "duration": 0.09615374999998494
        },
        {
          "name": "D#3",
          "midi": 51,
          "time": 247.2689834999993,
          "velocity": 0.7874015748031497,
          "duration": 0.11538450000000466
        },
        {
          "name": "F#3",
          "midi": 54,
          "time": 247.3843679999993,
          "velocity": 0.7874015748031497,
          "duration": 0.46153799999999023
        },
        {
          "name": "F#3",
          "midi": 54,
          "time": 247.8459059999993,
          "velocity": 0.7874015748031497,
          "duration": 0.46153799999999023
        },
        {
          "name": "F#3",
          "midi": 54,
          "time": 248.3074439999993,
          "velocity": 0.7874015748031497,
          "duration": 0.30769200000000296
        },
        {
          "name": "D#3",
          "midi": 51,
          "time": 248.5382129999993,
          "velocity": 0.7874015748031497,
          "duration": 0.46153799999999023
        },
        {
          "name": "F#3",
          "midi": 54,
          "time": 248.9997509999993,
          "velocity": 0.7874015748031497,
          "duration": 0.30769200000000296
        },
        {
          "name": "F3",
          "midi": 53,
          "time": 249.2305199999993,
          "velocity": 0.7874015748031497,
          "duration": 0.3846149999999966
        },
        {
          "name": "F3",
          "midi": 53,
          "time": 249.5766734999993,
          "velocity": 0.7874015748031497,
          "duration": 0.11538450000000466
        },
        {
          "name": "F3",
          "midi": 53,
          "time": 249.6920579999993,
          "velocity": 0.7874015748031497,
          "duration": 0.30769200000000296
        },
        {
          "name": "D#3",
          "midi": 51,
          "time": 249.9228269999993,
          "velocity": 0.7874015748031497,
          "duration": 0.46153799999999023
        },
        {
          "name": "D#3",
          "midi": 51,
          "time": 250.2689804999993,
          "velocity": 0.7874015748031497,
          "duration": 0.11538450000000466
        },
        {
          "name": "D#3",
          "midi": 51,
          "time": 250.3843649999993,
          "velocity": 0.7874015748031497,
          "duration": 0.30769200000000296
        },
        {
          "name": "D3",
          "midi": 50,
          "time": 250.6151339999993,
          "velocity": 0.7874015748031497,
          "duration": 0.30769199999997454
        },
        {
          "name": "D#3",
          "midi": 51,
          "time": 250.84590299999928,
          "velocity": 0.7874015748031497,
          "duration": 0.09615374999998494
        },
        {
          "name": "D#3",
          "midi": 51,
          "time": 250.96128749999926,
          "velocity": 0.7874015748031497,
          "duration": 0.11538450000000466
        },
        {
          "name": "F#3",
          "midi": 54,
          "time": 251.07667199999926,
          "velocity": 0.7874015748031497,
          "duration": 0.46153799999999023
        },
        {
          "name": "F#3",
          "midi": 54,
          "time": 251.53820999999925,
          "velocity": 0.7874015748031497,
          "duration": 0.46153799999999023
        },
        {
          "name": "F#3",
          "midi": 54,
          "time": 251.99974799999924,
          "velocity": 0.7874015748031497,
          "duration": 0.30769200000000296
        },
        {
          "name": "D#3",
          "midi": 51,
          "time": 252.23051699999925,
          "velocity": 0.7874015748031497,
          "duration": 0.46153799999999023
        },
        {
          "name": "F#3",
          "midi": 54,
          "time": 252.69205499999924,
          "velocity": 0.7874015748031497,
          "duration": 0.30769200000000296
        },
        {
          "name": "F3",
          "midi": 53,
          "time": 252.92282399999925,
          "velocity": 0.7874015748031497,
          "duration": 0.3846149999999966
        },
        {
          "name": "F3",
          "midi": 53,
          "time": 253.26897749999924,
          "velocity": 0.7874015748031497,
          "duration": 0.11538450000000466
        },
        {
          "name": "F3",
          "midi": 53,
          "time": 253.38436199999924,
          "velocity": 0.7874015748031497,
          "duration": 0.30769200000000296
        },
        {
          "name": "D#3",
          "midi": 51,
          "time": 253.61513099999925,
          "velocity": 0.7874015748031497,
          "duration": 0.46153799999999023
        },
        {
          "name": "D#3",
          "midi": 51,
          "time": 253.96128449999924,
          "velocity": 0.7874015748031497,
          "duration": 0.11538450000000466
        },
        {
          "name": "D#3",
          "midi": 51,
          "time": 254.07666899999924,
          "velocity": 0.7874015748031497,
          "duration": 0.30769200000000296
        },
        {
          "name": "D3",
          "midi": 50,
          "time": 254.30743799999925,
          "velocity": 0.7874015748031497,
          "duration": 0.30769199999997454
        },
        {
          "name": "D#3",
          "midi": 51,
          "time": 254.53820699999923,
          "velocity": 0.7874015748031497,
          "duration": 0.09615374999998494
        },
        {
          "name": "D#3",
          "midi": 51,
          "time": 254.6535914999992,
          "velocity": 0.7874015748031497,
          "duration": 0.11538450000000466
        },
        {
          "name": "F#3",
          "midi": 54,
          "time": 254.7689759999992,
          "velocity": 0.7874015748031497,
          "duration": 0.46153799999999023
        },
        {
          "name": "F#3",
          "midi": 54,
          "time": 255.2305139999992,
          "velocity": 0.7874015748031497,
          "duration": 0.46153799999999023
        },
        {
          "name": "F#3",
          "midi": 54,
          "time": 255.6920519999992,
          "velocity": 0.7874015748031497,
          "duration": 0.30769200000000296
        },
        {
          "name": "D#3",
          "midi": 51,
          "time": 255.9228209999992,
          "velocity": 0.7874015748031497,
          "duration": 0.46153800000001866
        },
        {
          "name": "F#3",
          "midi": 54,
          "time": 256.3843589999992,
          "velocity": 0.7874015748031497,
          "duration": 0.3076920000000314
        },
        {
          "name": "D#3",
          "midi": 51,
          "time": 256.61512799999923,
          "velocity": 0.7874015748031497,
          "duration": 1.8461520000000178
        }
      ],
      "controlChanges": {
        "7": [
          {
            "number": 7,
            "time": 0,
            "value": 0.44881889763779526
          }
        ],
        "10": [
          {
            "number": 10,
            "time": 0,
            "value": 0.8503937007874016
          }
        ]
      },
      "instrument": ""
    },
    {
      "name": "",
      "notes": [
        {
          "name": "E2",
          "midi": 40,
          "time": 13.384602,
          "velocity": 0.7874015748031497,
          "duration": 0.03846150000000037
        },
        {
          "name": "D2",
          "midi": 38,
          "time": 13.384602,
          "velocity": 0.7874015748031497,
          "duration": 0.03846150000000037
        },
        {
          "name": "C2",
          "midi": 36,
          "time": 13.384602,
          "velocity": 0.7874015748031497,
          "duration": 0.07692300000000074
        },
        {
          "name": "E2",
          "midi": 40,
          "time": 13.7307555,
          "velocity": 0.7874015748031497,
          "duration": 0.03846150000000037
        },
        {
          "name": "E2",
          "midi": 40,
          "time": 13.788447750000001,
          "velocity": 0.7874015748031497,
          "duration": 0.03846150000000037
        },
        {
          "name": "D2",
          "midi": 38,
          "time": 13.846140000000002,
          "velocity": 0.7874015748031497,
          "duration": 0.07692300000000074
        },
        {
          "name": "E2",
          "midi": 40,
          "time": 13.846140000000002,
          "velocity": 0.7874015748031497,
          "duration": 0.07692300000000074
        },
        {
          "name": "C2",
          "midi": 36,
          "time": 13.846140000000002,
          "velocity": 0.7874015748031497,
          "duration": 0.07692300000000074
        },
        {
          "name": "E2",
          "midi": 40,
          "time": 13.961524500000003,
          "velocity": 0.7874015748031497,
          "duration": 0.03846150000000037
        },
        {
          "name": "D2",
          "midi": 38,
          "time": 13.961524500000003,
          "velocity": 0.7874015748031497,
          "duration": 0.03846150000000037
        },
        {
          "name": "C2",
          "midi": 36,
          "time": 13.961524500000003,
          "velocity": 0.7874015748031497,
          "duration": 0.07692300000000074
        },
        {
          "name": "E2",
          "midi": 40,
          "time": 14.192293500000003,
          "velocity": 0.7874015748031497,
          "duration": 0.03846150000000037
        },
        {
          "name": "D2",
          "midi": 38,
          "time": 14.192293500000003,
          "velocity": 0.7874015748031497,
          "duration": 0.03846150000000037
        },
        {
          "name": "C2",
          "midi": 36,
          "time": 14.192293500000003,
          "velocity": 0.7874015748031497,
          "duration": 0.07692300000000074
        },
        {
          "name": "E2",
          "midi": 40,
          "time": 14.423062500000004,
          "velocity": 0.7874015748031497,
          "duration": 0.03846150000000037
        },
        {
          "name": "D2",
          "midi": 38,
          "time": 14.423062500000004,
          "velocity": 0.7874015748031497,
          "duration": 0.03846150000000037
        },
        {
          "name": "C2",
          "midi": 36,
          "time": 14.423062500000004,
          "velocity": 0.7874015748031497,
          "duration": 0.07692300000000074
        },
        {
          "name": "E2",
          "midi": 40,
          "time": 14.653831500000004,
          "velocity": 0.7874015748031497,
          "duration": 0.03846150000000037
        },
        {
          "name": "D2",
          "midi": 38,
          "time": 14.653831500000004,
          "velocity": 0.7874015748031497,
          "duration": 0.03846150000000037
        },
        {
          "name": "C2",
          "midi": 36,
          "time": 14.653831500000004,
          "velocity": 0.7874015748031497,
          "duration": 0.07692300000000074
        },
        {
          "name": "C2",
          "midi": 36,
          "time": 14.769216000000005,
          "velocity": 0.7874015748031497,
          "duration": 0.07692300000000074
        },
        {
          "name": "B1",
          "midi": 35,
          "time": 14.769216000000005,
          "velocity": 0.7874015748031497,
          "duration": 0.07692300000000074
        },
        {
          "name": "A3",
          "midi": 57,
          "time": 14.769216000000005,
          "velocity": 0.7874015748031497,
          "duration": 0.07692300000000074
        },
        {
          "name": "A#2",
          "midi": 46,
          "time": 14.769216000000005,
          "velocity": 0.7874015748031497,
          "duration": 0.07692300000000074
        },
        {
          "name": "C2",
          "midi": 36,
          "time": 14.999985000000006,
          "velocity": 0.7874015748031497,
          "duration": 0.07692300000000074
        },
        {
          "name": "B1",
          "midi": 35,
          "time": 14.999985000000006,
          "velocity": 0.7874015748031497,
          "duration": 0.07692300000000074
        },
        {
          "name": "A#2",
          "midi": 46,
          "time": 14.999985000000006,
          "velocity": 0.7874015748031497,
          "duration": 0.07692300000000074
        },
        {
          "name": "D2",
          "midi": 38,
          "time": 15.230754000000006,
          "velocity": 0.7874015748031497,
          "duration": 0.07692300000000074
        },
        {
          "name": "E2",
          "midi": 40,
          "time": 15.230754000000006,
          "velocity": 0.7874015748031497,
          "duration": 0.07692300000000074
        },
        {
          "name": "A3",
          "midi": 57,
          "time": 15.230754000000006,
          "velocity": 0.7874015748031497,
          "duration": 0.07692300000000074
        },
        {
          "name": "A#2",
          "midi": 46,
          "time": 15.230754000000006,
          "velocity": 0.7874015748031497,
          "duration": 0.07692300000000074
        },
        {
          "name": "A#2",
          "midi": 46,
          "time": 15.461523000000007,
          "velocity": 0.7874015748031497,
          "duration": 0.07692300000000074
        },
        {
          "name": "C2",
          "midi": 36,
          "time": 15.576907500000008,
          "velocity": 0.7874015748031497,
          "duration": 0.07692300000000074
        },
        {
          "name": "B1",
          "midi": 35,
          "time": 15.576907500000008,
          "velocity": 0.7874015748031497,
          "duration": 0.07692300000000074
        },
        {
          "name": "E2",
          "midi": 40,
          "time": 15.576907500000008,
          "velocity": 0.7874015748031497,
          "duration": 0.07692300000000074
        },
        {
          "name": "A#2",
          "midi": 46,
          "time": 15.692292000000009,
          "velocity": 0.7874015748031497,
          "duration": 0.07692300000000074
        },
        {
          "name": "G#2",
          "midi": 44,
          "time": 15.80767650000001,
          "velocity": 0.7874015748031497,
          "duration": 0.07692300000000074
        },
        {
          "name": "C2",
          "midi": 36,
          "time": 15.923061000000011,
          "velocity": 0.7874015748031497,
          "duration": 0.07692300000000074
        },
        {
          "name": "B1",
          "midi": 35,
          "time": 15.923061000000011,
          "velocity": 0.7874015748031497,
          "duration": 0.07692300000000074
        },
        {
          "name": "A#2",
          "midi": 46,
          "time": 15.923061000000011,
          "velocity": 0.7874015748031497,
          "duration": 0.07692300000000074
        },
        {
          "name": "D2",
          "midi": 38,
          "time": 16.153830000000013,
          "velocity": 0.7874015748031497,
          "duration": 0.07692300000000074
        },
        {
          "name": "E2",
          "midi": 40,
          "time": 16.153830000000013,
          "velocity": 0.7874015748031497,
          "duration": 0.07692300000000074
        },
        {
          "name": "A3",
          "midi": 57,
          "time": 16.153830000000013,
          "velocity": 0.7874015748031497,
          "duration": 0.07692300000000074
        },
        {
          "name": "A#2",
          "midi": 46,
          "time": 16.153830000000013,
          "velocity": 0.7874015748031497,
          "duration": 0.07692300000000074
        },
        {
          "name": "A#2",
          "midi": 46,
          "time": 16.384599000000016,
          "velocity": 0.7874015748031497,
          "duration": 0.07692300000000074
        },
        {
          "name": "C2",
          "midi": 36,
          "time": 16.499983500000017,
          "velocity": 0.7874015748031497,
          "duration": 0.07692300000000074
        },
        {
          "name": "B1",
          "midi": 35,
          "time": 16.499983500000017,
          "velocity": 0.7874015748031497,
          "duration": 0.07692300000000074
        },
        {
          "name": "C2",
          "midi": 36,
          "time": 16.615368000000018,
          "velocity": 0.7874015748031497,
          "duration": 0.07692300000000074
        },
        {
          "name": "B1",
          "midi": 35,
          "time": 16.615368000000018,
          "velocity": 0.7874015748031497,
          "duration": 0.07692300000000074
        },
        {
          "name": "A3",
          "midi": 57,
          "time": 16.615368000000018,
          "velocity": 0.7874015748031497,
          "duration": 0.07692300000000074
        },
        {
          "name": "A#2",
          "midi": 46,
          "time": 16.615368000000018,
          "velocity": 0.7874015748031497,
          "duration": 0.07692300000000074
        },
        {
          "name": "C2",
          "midi": 36,
          "time": 16.84613700000002,
          "velocity": 0.7874015748031497,
          "duration": 0.07692300000000074
        },
        {
          "name": "B1",
          "midi": 35,
          "time": 16.84613700000002,
          "velocity": 0.7874015748031497,
          "duration": 0.07692300000000074
        },
        {
          "name": "A#2",
          "midi": 46,
          "time": 16.84613700000002,
          "velocity": 0.7874015748031497,
          "duration": 0.07692300000000074
        },
        {
          "name": "D2",
          "midi": 38,
          "time": 17.076906000000022,
          "velocity": 0.7874015748031497,
          "duration": 0.07692300000000074
        },
        {
          "name": "E2",
          "midi": 40,
          "time": 17.076906000000022,
          "velocity": 0.7874015748031497,
          "duration": 0.07692300000000074
        },
        {
          "name": "A3",
          "midi": 57,
          "time": 17.076906000000022,
          "velocity": 0.7874015748031497,
          "duration": 0.07692300000000074
        },
        {
          "name": "A#2",
          "midi": 46,
          "time": 17.076906000000022,
          "velocity": 0.7874015748031497,
          "duration": 0.07692300000000074
        },
        {
          "name": "A#2",
          "midi": 46,
          "time": 17.307675000000025,
          "velocity": 0.7874015748031497,
          "duration": 0.07692300000000074
        },
        {
          "name": "C2",
          "midi": 36,
          "time": 17.423059500000026,
          "velocity": 0.7874015748031497,
          "duration": 0.07692300000000074
        },
        {
          "name": "B1",
          "midi": 35,
          "time": 17.423059500000026,
          "velocity": 0.7874015748031497,
          "duration": 0.07692300000000074
        },
        {
          "name": "E2",
          "midi": 40,
          "time": 17.423059500000026,
          "velocity": 0.7874015748031497,
          "duration": 0.07692300000000074
        },
        {
          "name": "A#2",
          "midi": 46,
          "time": 17.538444000000027,
          "velocity": 0.7874015748031497,
          "duration": 0.07692300000000074
        },
        {
          "name": "G#2",
          "midi": 44,
          "time": 17.653828500000028,
          "velocity": 0.7874015748031497,
          "duration": 0.07692300000000074
        },
        {
          "name": "C2",
          "midi": 36,
          "time": 17.76921300000003,
          "velocity": 0.7874015748031497,
          "duration": 0.07692300000000074
        },
        {
          "name": "B1",
          "midi": 35,
          "time": 17.76921300000003,
          "velocity": 0.7874015748031497,
          "duration": 0.07692300000000074
        },
        {
          "name": "A#2",
          "midi": 46,
          "time": 17.76921300000003,
          "velocity": 0.7874015748031497,
          "duration": 0.07692300000000074
        },
        {
          "name": "D2",
          "midi": 38,
          "time": 17.99998200000003,
          "velocity": 0.7874015748031497,
          "duration": 0.07692300000000074
        },
        {
          "name": "E2",
          "midi": 40,
          "time": 17.99998200000003,
          "velocity": 0.7874015748031497,
          "duration": 0.07692300000000074
        },
        {
          "name": "A3",
          "midi": 57,
          "time": 17.99998200000003,
          "velocity": 0.7874015748031497,
          "duration": 0.07692300000000074
        },
        {
          "name": "A#2",
          "midi": 46,
          "time": 17.99998200000003,
          "velocity": 0.7874015748031497,
          "duration": 0.07692300000000074
        },
        {
          "name": "A#2",
          "midi": 46,
          "time": 18.230751000000033,
          "velocity": 0.7874015748031497,
          "duration": 0.07692300000000074
        },
        {
          "name": "C2",
          "midi": 36,
          "time": 18.346135500000035,
          "velocity": 0.7874015748031497,
          "duration": 0.07692300000000074
        },
        {
          "name": "B1",
          "midi": 35,
          "time": 18.346135500000035,
          "velocity": 0.7874015748031497,
          "duration": 0.07692300000000074
        },
        {
          "name": "C2",
          "midi": 36,
          "time": 18.461520000000036,
          "velocity": 0.7874015748031497,
          "duration": 0.07692300000000074
        },
        {
          "name": "B1",
          "midi": 35,
          "time": 18.461520000000036,
          "velocity": 0.7874015748031497,
          "duration": 0.07692300000000074
        },
        {
          "name": "A3",
          "midi": 57,
          "time": 18.461520000000036,
          "velocity": 0.7874015748031497,
          "duration": 0.07692300000000074
        },
        {
          "name": "A#2",
          "midi": 46,
          "time": 18.461520000000036,
          "velocity": 0.7874015748031497,
          "duration": 0.07692300000000074
        },
        {
          "name": "C2",
          "midi": 36,
          "time": 18.692289000000038,
          "velocity": 0.7874015748031497,
          "duration": 0.07692300000000074
        },
        {
          "name": "B1",
          "midi": 35,
          "time": 18.692289000000038,
          "velocity": 0.7874015748031497,
          "duration": 0.07692300000000074
        },
        {
          "name": "A#2",
          "midi": 46,
          "time": 18.692289000000038,
          "velocity": 0.7874015748031497,
          "duration": 0.07692300000000074
        },
        {
          "name": "D2",
          "midi": 38,
          "time": 18.92305800000004,
          "velocity": 0.7874015748031497,
          "duration": 0.07692300000000074
        },
        {
          "name": "E2",
          "midi": 40,
          "time": 18.92305800000004,
          "velocity": 0.7874015748031497,
          "duration": 0.07692300000000074
        },
        {
          "name": "A3",
          "midi": 57,
          "time": 18.92305800000004,
          "velocity": 0.7874015748031497,
          "duration": 0.07692300000000074
        },
        {
          "name": "A#2",
          "midi": 46,
          "time": 18.92305800000004,
          "velocity": 0.7874015748031497,
          "duration": 0.07692300000000074
        },
        {
          "name": "A#2",
          "midi": 46,
          "time": 19.153827000000042,
          "velocity": 0.7874015748031497,
          "duration": 0.07692300000000074
        },
        {
          "name": "C2",
          "midi": 36,
          "time": 19.269211500000043,
          "velocity": 0.7874015748031497,
          "duration": 0.07692300000000074
        },
        {
          "name": "B1",
          "midi": 35,
          "time": 19.269211500000043,
          "velocity": 0.7874015748031497,
          "duration": 0.07692300000000074
        },
        {
          "name": "E2",
          "midi": 40,
          "time": 19.269211500000043,
          "velocity": 0.7874015748031497,
          "duration": 0.07692300000000074
        },
        {
          "name": "A#2",
          "midi": 46,
          "time": 19.384596000000045,
          "velocity": 0.7874015748031497,
          "duration": 0.07692300000000074
        },
        {
          "name": "G#2",
          "midi": 44,
          "time": 19.499980500000046,
          "velocity": 0.7874015748031497,
          "duration": 0.07692300000000074
        },
        {
          "name": "C2",
          "midi": 36,
          "time": 19.615365000000047,
          "velocity": 0.7874015748031497,
          "duration": 0.07692300000000074
        },
        {
          "name": "B1",
          "midi": 35,
          "time": 19.615365000000047,
          "velocity": 0.7874015748031497,
          "duration": 0.07692300000000074
        },
        {
          "name": "A#2",
          "midi": 46,
          "time": 19.615365000000047,
          "velocity": 0.7874015748031497,
          "duration": 0.07692300000000074
        },
        {
          "name": "D2",
          "midi": 38,
          "time": 19.84613400000005,
          "velocity": 0.7874015748031497,
          "duration": 0.07692300000000074
        },
        {
          "name": "E2",
          "midi": 40,
          "time": 19.84613400000005,
          "velocity": 0.7874015748031497,
          "duration": 0.07692300000000074
        },
        {
          "name": "A3",
          "midi": 57,
          "time": 19.84613400000005,
          "velocity": 0.7874015748031497,
          "duration": 0.07692300000000074
        },
        {
          "name": "A#2",
          "midi": 46,
          "time": 19.84613400000005,
          "velocity": 0.7874015748031497,
          "duration": 0.07692300000000074
        },
        {
          "name": "A#2",
          "midi": 46,
          "time": 20.07690300000005,
          "velocity": 0.7874015748031497,
          "duration": 0.07692300000000074
        },
        {
          "name": "C2",
          "midi": 36,
          "time": 20.192287500000052,
          "velocity": 0.7874015748031497,
          "duration": 0.07692300000000074
        },
        {
          "name": "B1",
          "midi": 35,
          "time": 20.192287500000052,
          "velocity": 0.7874015748031497,
          "duration": 0.07692300000000074
        },
        {
          "name": "C2",
          "midi": 36,
          "time": 20.307672000000053,
          "velocity": 0.7874015748031497,
          "duration": 0.07692300000000074
        },
        {
          "name": "B1",
          "midi": 35,
          "time": 20.307672000000053,
          "velocity": 0.7874015748031497,
          "duration": 0.07692300000000074
        },
        {
          "name": "A3",
          "midi": 57,
          "time": 20.307672000000053,
          "velocity": 0.7874015748031497,
          "duration": 0.07692300000000074
        },
        {
          "name": "A#2",
          "midi": 46,
          "time": 20.307672000000053,
          "velocity": 0.7874015748031497,
          "duration": 0.07692300000000074
        },
        {
          "name": "C2",
          "midi": 36,
          "time": 20.538441000000056,
          "velocity": 0.7874015748031497,
          "duration": 0.07692300000000074
        },
        {
          "name": "B1",
          "midi": 35,
          "time": 20.538441000000056,
          "velocity": 0.7874015748031497,
          "duration": 0.07692300000000074
        },
        {
          "name": "A#2",
          "midi": 46,
          "time": 20.538441000000056,
          "velocity": 0.7874015748031497,
          "duration": 0.07692300000000074
        },
        {
          "name": "D2",
          "midi": 38,
          "time": 20.769210000000058,
          "velocity": 0.7874015748031497,
          "duration": 0.07692300000000074
        },
        {
          "name": "E2",
          "midi": 40,
          "time": 20.769210000000058,
          "velocity": 0.7874015748031497,
          "duration": 0.07692300000000074
        },
        {
          "name": "A3",
          "midi": 57,
          "time": 20.769210000000058,
          "velocity": 0.7874015748031497,
          "duration": 0.07692300000000074
        },
        {
          "name": "A#2",
          "midi": 46,
          "time": 20.769210000000058,
          "velocity": 0.7874015748031497,
          "duration": 0.07692300000000074
        },
        {
          "name": "A#2",
          "midi": 46,
          "time": 20.99997900000006,
          "velocity": 0.7874015748031497,
          "duration": 0.07692300000000074
        },
        {
          "name": "C2",
          "midi": 36,
          "time": 21.11536350000006,
          "velocity": 0.7874015748031497,
          "duration": 0.07692300000000074
        },
        {
          "name": "B1",
          "midi": 35,
          "time": 21.11536350000006,
          "velocity": 0.7874015748031497,
          "duration": 0.07692300000000074
        },
        {
          "name": "E2",
          "midi": 40,
          "time": 21.11536350000006,
          "velocity": 0.7874015748031497,
          "duration": 0.07692300000000074
        },
        {
          "name": "A#2",
          "midi": 46,
          "time": 21.230748000000062,
          "velocity": 0.7874015748031497,
          "duration": 0.07692300000000074
        },
        {
          "name": "G#2",
          "midi": 44,
          "time": 21.346132500000063,
          "velocity": 0.7874015748031497,
          "duration": 0.07692300000000074
        },
        {
          "name": "C2",
          "midi": 36,
          "time": 21.461517000000065,
          "velocity": 0.7874015748031497,
          "duration": 0.07692300000000074
        },
        {
          "name": "B1",
          "midi": 35,
          "time": 21.461517000000065,
          "velocity": 0.7874015748031497,
          "duration": 0.07692300000000074
        },
        {
          "name": "A#2",
          "midi": 46,
          "time": 21.461517000000065,
          "velocity": 0.7874015748031497,
          "duration": 0.07692300000000074
        },
        {
          "name": "D2",
          "midi": 38,
          "time": 21.692286000000067,
          "velocity": 0.7874015748031497,
          "duration": 0.07692300000000074
        },
        {
          "name": "E2",
          "midi": 40,
          "time": 21.692286000000067,
          "velocity": 0.7874015748031497,
          "duration": 0.07692300000000074
        },
        {
          "name": "A3",
          "midi": 57,
          "time": 21.692286000000067,
          "velocity": 0.7874015748031497,
          "duration": 0.07692300000000074
        },
        {
          "name": "A#2",
          "midi": 46,
          "time": 21.692286000000067,
          "velocity": 0.7874015748031497,
          "duration": 0.07692300000000074
        },
        {
          "name": "A#2",
          "midi": 46,
          "time": 21.92305500000007,
          "velocity": 0.7874015748031497,
          "duration": 0.07692300000000074
        },
        {
          "name": "A3",
          "midi": 57,
          "time": 21.92305500000007,
          "velocity": 0.7874015748031497,
          "duration": 0.07692300000000074
        },
        {
          "name": "C2",
          "midi": 36,
          "time": 22.03843950000007,
          "velocity": 0.7874015748031497,
          "duration": 0.07692300000000074
        },
        {
          "name": "B1",
          "midi": 35,
          "time": 22.03843950000007,
          "velocity": 0.7874015748031497,
          "duration": 0.07692300000000074
        },
        {
          "name": "C2",
          "midi": 36,
          "time": 22.15382400000007,
          "velocity": 0.7874015748031497,
          "duration": 0.07692300000000074
        },
        {
          "name": "B1",
          "midi": 35,
          "time": 22.15382400000007,
          "velocity": 0.7874015748031497,
          "duration": 0.07692300000000074
        },
        {
          "name": "A3",
          "midi": 57,
          "time": 22.15382400000007,
          "velocity": 0.7874015748031497,
          "duration": 0.07692300000000074
        },
        {
          "name": "A#2",
          "midi": 46,
          "time": 22.15382400000007,
          "velocity": 0.7874015748031497,
          "duration": 0.07692300000000074
        },
        {
          "name": "C2",
          "midi": 36,
          "time": 22.384593000000073,
          "velocity": 0.7874015748031497,
          "duration": 0.07692300000000074
        },
        {
          "name": "B1",
          "midi": 35,
          "time": 22.384593000000073,
          "velocity": 0.7874015748031497,
          "duration": 0.07692300000000074
        },
        {
          "name": "A#2",
          "midi": 46,
          "time": 22.384593000000073,
          "velocity": 0.7874015748031497,
          "duration": 0.07692300000000074
        },
        {
          "name": "D2",
          "midi": 38,
          "time": 22.615362000000076,
          "velocity": 0.7874015748031497,
          "duration": 0.07692300000000074
        },
        {
          "name": "E2",
          "midi": 40,
          "time": 22.615362000000076,
          "velocity": 0.7874015748031497,
          "duration": 0.07692300000000074
        },
        {
          "name": "A3",
          "midi": 57,
          "time": 22.615362000000076,
          "velocity": 0.7874015748031497,
          "duration": 0.07692300000000074
        },
        {
          "name": "A#2",
          "midi": 46,
          "time": 22.615362000000076,
          "velocity": 0.7874015748031497,
          "duration": 0.07692300000000074
        },
        {
          "name": "A#2",
          "midi": 46,
          "time": 22.846131000000078,
          "velocity": 0.7874015748031497,
          "duration": 0.07692300000000074
        },
        {
          "name": "C2",
          "midi": 36,
          "time": 22.96151550000008,
          "velocity": 0.7874015748031497,
          "duration": 0.07692300000000074
        },
        {
          "name": "B1",
          "midi": 35,
          "time": 22.96151550000008,
          "velocity": 0.7874015748031497,
          "duration": 0.07692300000000074
        },
        {
          "name": "E2",
          "midi": 40,
          "time": 22.96151550000008,
          "velocity": 0.7874015748031497,
          "duration": 0.07692300000000074
        },
        {
          "name": "A#2",
          "midi": 46,
          "time": 23.07690000000008,
          "velocity": 0.7874015748031497,
          "duration": 0.07692300000000074
        },
        {
          "name": "G#2",
          "midi": 44,
          "time": 23.19228450000008,
          "velocity": 0.7874015748031497,
          "duration": 0.07692300000000074
        },
        {
          "name": "C2",
          "midi": 36,
          "time": 23.307669000000082,
          "velocity": 0.7874015748031497,
          "duration": 0.07692300000000074
        },
        {
          "name": "B1",
          "midi": 35,
          "time": 23.307669000000082,
          "velocity": 0.7874015748031497,
          "duration": 0.07692300000000074
        },
        {
          "name": "A#2",
          "midi": 46,
          "time": 23.307669000000082,
          "velocity": 0.7874015748031497,
          "duration": 0.07692300000000074
        },
        {
          "name": "D2",
          "midi": 38,
          "time": 23.538438000000085,
          "velocity": 0.7874015748031497,
          "duration": 0.07692300000000074
        },
        {
          "name": "E2",
          "midi": 40,
          "time": 23.538438000000085,
          "velocity": 0.7874015748031497,
          "duration": 0.07692300000000074
        },
        {
          "name": "A3",
          "midi": 57,
          "time": 23.538438000000085,
          "velocity": 0.7874015748031497,
          "duration": 0.07692300000000074
        },
        {
          "name": "A#2",
          "midi": 46,
          "time": 23.538438000000085,
          "velocity": 0.7874015748031497,
          "duration": 0.07692300000000074
        },
        {
          "name": "A#2",
          "midi": 46,
          "time": 23.769207000000087,
          "velocity": 0.7874015748031497,
          "duration": 0.07692300000000074
        },
        {
          "name": "C2",
          "midi": 36,
          "time": 23.884591500000088,
          "velocity": 0.7874015748031497,
          "duration": 0.07692300000000074
        },
        {
          "name": "B1",
          "midi": 35,
          "time": 23.884591500000088,
          "velocity": 0.7874015748031497,
          "duration": 0.07692300000000074
        },
        {
          "name": "C2",
          "midi": 36,
          "time": 23.99997600000009,
          "velocity": 0.7874015748031497,
          "duration": 0.07692300000000074
        },
        {
          "name": "B1",
          "midi": 35,
          "time": 23.99997600000009,
          "velocity": 0.7874015748031497,
          "duration": 0.07692300000000074
        },
        {
          "name": "A3",
          "midi": 57,
          "time": 23.99997600000009,
          "velocity": 0.7874015748031497,
          "duration": 0.07692300000000074
        },
        {
          "name": "A#2",
          "midi": 46,
          "time": 23.99997600000009,
          "velocity": 0.7874015748031497,
          "duration": 0.07692300000000074
        },
        {
          "name": "C2",
          "midi": 36,
          "time": 24.23074500000009,
          "velocity": 0.7874015748031497,
          "duration": 0.07692300000000074
        },
        {
          "name": "B1",
          "midi": 35,
          "time": 24.23074500000009,
          "velocity": 0.7874015748031497,
          "duration": 0.07692300000000074
        },
        {
          "name": "A#2",
          "midi": 46,
          "time": 24.23074500000009,
          "velocity": 0.7874015748031497,
          "duration": 0.07692300000000074
        },
        {
          "name": "D2",
          "midi": 38,
          "time": 24.461514000000093,
          "velocity": 0.7874015748031497,
          "duration": 0.07692300000000074
        },
        {
          "name": "E2",
          "midi": 40,
          "time": 24.461514000000093,
          "velocity": 0.7874015748031497,
          "duration": 0.07692300000000074
        },
        {
          "name": "A3",
          "midi": 57,
          "time": 24.461514000000093,
          "velocity": 0.7874015748031497,
          "duration": 0.07692300000000074
        },
        {
          "name": "A#2",
          "midi": 46,
          "time": 24.461514000000093,
          "velocity": 0.7874015748031497,
          "duration": 0.07692300000000074
        },
        {
          "name": "A#2",
          "midi": 46,
          "time": 24.692283000000096,
          "velocity": 0.7874015748031497,
          "duration": 0.07692300000000074
        },
        {
          "name": "C2",
          "midi": 36,
          "time": 24.807667500000097,
          "velocity": 0.7874015748031497,
          "duration": 0.07692300000000074
        },
        {
          "name": "B1",
          "midi": 35,
          "time": 24.807667500000097,
          "velocity": 0.7874015748031497,
          "duration": 0.07692300000000074
        },
        {
          "name": "E2",
          "midi": 40,
          "time": 24.807667500000097,
          "velocity": 0.7874015748031497,
          "duration": 0.07692300000000074
        },
        {
          "name": "A#2",
          "midi": 46,
          "time": 24.923052000000098,
          "velocity": 0.7874015748031497,
          "duration": 0.07692300000000074
        },
        {
          "name": "G#2",
          "midi": 44,
          "time": 25.0384365000001,
          "velocity": 0.7874015748031497,
          "duration": 0.07692300000000074
        },
        {
          "name": "C2",
          "midi": 36,
          "time": 25.1538210000001,
          "velocity": 0.7874015748031497,
          "duration": 0.07692300000000074
        },
        {
          "name": "B1",
          "midi": 35,
          "time": 25.1538210000001,
          "velocity": 0.7874015748031497,
          "duration": 0.07692300000000074
        },
        {
          "name": "A#2",
          "midi": 46,
          "time": 25.1538210000001,
          "velocity": 0.7874015748031497,
          "duration": 0.07692300000000074
        },
        {
          "name": "D2",
          "midi": 38,
          "time": 25.384590000000102,
          "velocity": 0.7874015748031497,
          "duration": 0.07692300000000074
        },
        {
          "name": "E2",
          "midi": 40,
          "time": 25.384590000000102,
          "velocity": 0.7874015748031497,
          "duration": 0.07692300000000074
        },
        {
          "name": "A3",
          "midi": 57,
          "time": 25.384590000000102,
          "velocity": 0.7874015748031497,
          "duration": 0.07692300000000074
        },
        {
          "name": "A#2",
          "midi": 46,
          "time": 25.384590000000102,
          "velocity": 0.7874015748031497,
          "duration": 0.07692300000000074
        },
        {
          "name": "A#2",
          "midi": 46,
          "time": 25.615359000000105,
          "velocity": 0.7874015748031497,
          "duration": 0.07692300000000074
        },
        {
          "name": "C2",
          "midi": 36,
          "time": 25.730743500000106,
          "velocity": 0.7874015748031497,
          "duration": 0.07692300000000074
        },
        {
          "name": "B1",
          "midi": 35,
          "time": 25.730743500000106,
          "velocity": 0.7874015748031497,
          "duration": 0.07692300000000074
        },
        {
          "name": "C2",
          "midi": 36,
          "time": 25.846128000000107,
          "velocity": 0.7874015748031497,
          "duration": 0.07692300000000074
        },
        {
          "name": "B1",
          "midi": 35,
          "time": 25.846128000000107,
          "velocity": 0.7874015748031497,
          "duration": 0.07692300000000074
        },
        {
          "name": "A3",
          "midi": 57,
          "time": 25.846128000000107,
          "velocity": 0.7874015748031497,
          "duration": 0.07692300000000074
        },
        {
          "name": "A#2",
          "midi": 46,
          "time": 25.846128000000107,
          "velocity": 0.7874015748031497,
          "duration": 0.07692300000000074
        },
        {
          "name": "C2",
          "midi": 36,
          "time": 26.07689700000011,
          "velocity": 0.7874015748031497,
          "duration": 0.07692300000000074
        },
        {
          "name": "B1",
          "midi": 35,
          "time": 26.07689700000011,
          "velocity": 0.7874015748031497,
          "duration": 0.07692300000000074
        },
        {
          "name": "A#2",
          "midi": 46,
          "time": 26.07689700000011,
          "velocity": 0.7874015748031497,
          "duration": 0.07692300000000074
        },
        {
          "name": "D2",
          "midi": 38,
          "time": 26.30766600000011,
          "velocity": 0.7874015748031497,
          "duration": 0.07692300000000074
        },
        {
          "name": "E2",
          "midi": 40,
          "time": 26.30766600000011,
          "velocity": 0.7874015748031497,
          "duration": 0.07692300000000074
        },
        {
          "name": "A3",
          "midi": 57,
          "time": 26.30766600000011,
          "velocity": 0.7874015748031497,
          "duration": 0.07692300000000074
        },
        {
          "name": "A#2",
          "midi": 46,
          "time": 26.30766600000011,
          "velocity": 0.7874015748031497,
          "duration": 0.07692300000000074
        },
        {
          "name": "A#2",
          "midi": 46,
          "time": 26.538435000000113,
          "velocity": 0.7874015748031497,
          "duration": 0.07692300000000074
        },
        {
          "name": "C2",
          "midi": 36,
          "time": 26.653819500000115,
          "velocity": 0.7874015748031497,
          "duration": 0.07692300000000074
        },
        {
          "name": "B1",
          "midi": 35,
          "time": 26.653819500000115,
          "velocity": 0.7874015748031497,
          "duration": 0.07692300000000074
        },
        {
          "name": "E2",
          "midi": 40,
          "time": 26.653819500000115,
          "velocity": 0.7874015748031497,
          "duration": 0.07692300000000074
        },
        {
          "name": "A#2",
          "midi": 46,
          "time": 26.769204000000116,
          "velocity": 0.7874015748031497,
          "duration": 0.07692300000000074
        },
        {
          "name": "G#2",
          "midi": 44,
          "time": 26.884588500000117,
          "velocity": 0.7874015748031497,
          "duration": 0.07692300000000074
        },
        {
          "name": "C2",
          "midi": 36,
          "time": 26.999973000000118,
          "velocity": 0.7874015748031497,
          "duration": 0.07692300000000074
        },
        {
          "name": "B1",
          "midi": 35,
          "time": 26.999973000000118,
          "velocity": 0.7874015748031497,
          "duration": 0.07692300000000074
        },
        {
          "name": "A#2",
          "midi": 46,
          "time": 26.999973000000118,
          "velocity": 0.7874015748031497,
          "duration": 0.07692300000000074
        },
        {
          "name": "D2",
          "midi": 38,
          "time": 27.23074200000012,
          "velocity": 0.7874015748031497,
          "duration": 0.07692300000000074
        },
        {
          "name": "E2",
          "midi": 40,
          "time": 27.23074200000012,
          "velocity": 0.7874015748031497,
          "duration": 0.07692300000000074
        },
        {
          "name": "A3",
          "midi": 57,
          "time": 27.23074200000012,
          "velocity": 0.7874015748031497,
          "duration": 0.07692300000000074
        },
        {
          "name": "A#2",
          "midi": 46,
          "time": 27.23074200000012,
          "velocity": 0.7874015748031497,
          "duration": 0.07692300000000074
        },
        {
          "name": "A#2",
          "midi": 46,
          "time": 27.461511000000122,
          "velocity": 0.7874015748031497,
          "duration": 0.07692300000000074
        },
        {
          "name": "C2",
          "midi": 36,
          "time": 27.576895500000123,
          "velocity": 0.7874015748031497,
          "duration": 0.07692300000000074
        },
        {
          "name": "B1",
          "midi": 35,
          "time": 27.576895500000123,
          "velocity": 0.7874015748031497,
          "duration": 0.07692300000000074
        },
        {
          "name": "C2",
          "midi": 36,
          "time": 27.692280000000125,
          "velocity": 0.7874015748031497,
          "duration": 0.07692300000000074
        },
        {
          "name": "B1",
          "midi": 35,
          "time": 27.692280000000125,
          "velocity": 0.7874015748031497,
          "duration": 0.07692300000000074
        },
        {
          "name": "A3",
          "midi": 57,
          "time": 27.692280000000125,
          "velocity": 0.7874015748031497,
          "duration": 0.07692300000000074
        },
        {
          "name": "A#2",
          "midi": 46,
          "time": 27.692280000000125,
          "velocity": 0.7874015748031497,
          "duration": 0.07692300000000074
        },
        {
          "name": "C2",
          "midi": 36,
          "time": 27.923049000000127,
          "velocity": 0.7874015748031497,
          "duration": 0.07692300000000074
        },
        {
          "name": "B1",
          "midi": 35,
          "time": 27.923049000000127,
          "velocity": 0.7874015748031497,
          "duration": 0.07692300000000074
        },
        {
          "name": "A#2",
          "midi": 46,
          "time": 27.923049000000127,
          "velocity": 0.7874015748031497,
          "duration": 0.07692300000000074
        },
        {
          "name": "D2",
          "midi": 38,
          "time": 28.15381800000013,
          "velocity": 0.7874015748031497,
          "duration": 0.07692300000000074
        },
        {
          "name": "E2",
          "midi": 40,
          "time": 28.15381800000013,
          "velocity": 0.7874015748031497,
          "duration": 0.07692300000000074
        },
        {
          "name": "A3",
          "midi": 57,
          "time": 28.15381800000013,
          "velocity": 0.7874015748031497,
          "duration": 0.07692300000000074
        },
        {
          "name": "A#2",
          "midi": 46,
          "time": 28.15381800000013,
          "velocity": 0.7874015748031497,
          "duration": 0.07692300000000074
        },
        {
          "name": "A#2",
          "midi": 46,
          "time": 28.38458700000013,
          "velocity": 0.7874015748031497,
          "duration": 0.07692300000000074
        },
        {
          "name": "A#2",
          "midi": 46,
          "time": 28.615356000000133,
          "velocity": 0.7874015748031497,
          "duration": 0.07692300000000074
        },
        {
          "name": "E2",
          "midi": 40,
          "time": 28.615356000000133,
          "velocity": 0.7874015748031497,
          "duration": 0.03846150000000037
        },
        {
          "name": "D2",
          "midi": 38,
          "time": 28.615356000000133,
          "velocity": 0.7874015748031497,
          "duration": 0.03846150000000037
        },
        {
          "name": "C2",
          "midi": 36,
          "time": 28.615356000000133,
          "velocity": 0.7874015748031497,
          "duration": 0.07692300000000074
        },
        {
          "name": "E2",
          "midi": 40,
          "time": 28.730740500000135,
          "velocity": 0.7874015748031497,
          "duration": 0.03846150000000037
        },
        {
          "name": "D2",
          "midi": 38,
          "time": 28.730740500000135,
          "velocity": 0.7874015748031497,
          "duration": 0.03846150000000037
        },
        {
          "name": "C2",
          "midi": 36,
          "time": 28.730740500000135,
          "velocity": 0.7874015748031497,
          "duration": 0.07692300000000074
        },
        {
          "name": "G#2",
          "midi": 44,
          "time": 28.730740500000135,
          "velocity": 0.7874015748031497,
          "duration": 0.07692300000000074
        },
        {
          "name": "A#2",
          "midi": 46,
          "time": 28.846125000000136,
          "velocity": 0.7874015748031497,
          "duration": 0.07692300000000074
        },
        {
          "name": "E2",
          "midi": 40,
          "time": 28.961509500000137,
          "velocity": 0.7874015748031497,
          "duration": 0.03846150000000037
        },
        {
          "name": "E2",
          "midi": 40,
          "time": 29.019201750000136,
          "velocity": 0.7874015748031497,
          "duration": 0.03846150000000037
        },
        {
          "name": "A#2",
          "midi": 46,
          "time": 29.076894000000134,
          "velocity": 0.7874015748031497,
          "duration": 0.07692300000000074
        },
        {
          "name": "D2",
          "midi": 38,
          "time": 29.076894000000134,
          "velocity": 0.7874015748031497,
          "duration": 0.07692300000000074
        },
        {
          "name": "E2",
          "midi": 40,
          "time": 29.076894000000134,
          "velocity": 0.7874015748031497,
          "duration": 0.07692300000000074
        },
        {
          "name": "C2",
          "midi": 36,
          "time": 29.076894000000134,
          "velocity": 0.7874015748031497,
          "duration": 0.07692300000000074
        },
        {
          "name": "E2",
          "midi": 40,
          "time": 29.192278500000135,
          "velocity": 0.7874015748031497,
          "duration": 0.03846150000000037
        },
        {
          "name": "D2",
          "midi": 38,
          "time": 29.192278500000135,
          "velocity": 0.7874015748031497,
          "duration": 0.03846150000000037
        },
        {
          "name": "C2",
          "midi": 36,
          "time": 29.192278500000135,
          "velocity": 0.7874015748031497,
          "duration": 0.07692300000000074
        },
        {
          "name": "A#2",
          "midi": 46,
          "time": 29.307663000000137,
          "velocity": 0.7874015748031497,
          "duration": 0.07692300000000074
        },
        {
          "name": "E2",
          "midi": 40,
          "time": 29.423047500000138,
          "velocity": 0.7874015748031497,
          "duration": 0.03846150000000037
        },
        {
          "name": "D2",
          "midi": 38,
          "time": 29.423047500000138,
          "velocity": 0.7874015748031497,
          "duration": 0.03846150000000037
        },
        {
          "name": "C2",
          "midi": 36,
          "time": 29.423047500000138,
          "velocity": 0.7874015748031497,
          "duration": 0.07692300000000074
        },
        {
          "name": "C2",
          "midi": 36,
          "time": 29.53843200000014,
          "velocity": 0.7874015748031497,
          "duration": 0.07692300000000074
        },
        {
          "name": "B1",
          "midi": 35,
          "time": 29.53843200000014,
          "velocity": 0.7874015748031497,
          "duration": 0.07692300000000074
        },
        {
          "name": "A3",
          "midi": 57,
          "time": 29.53843200000014,
          "velocity": 0.7874015748031497,
          "duration": 0.07692300000000074
        },
        {
          "name": "A#2",
          "midi": 46,
          "time": 29.53843200000014,
          "velocity": 0.7874015748031497,
          "duration": 0.07692300000000074
        },
        {
          "name": "C2",
          "midi": 36,
          "time": 29.76920100000014,
          "velocity": 0.7874015748031497,
          "duration": 0.07692300000000074
        },
        {
          "name": "B1",
          "midi": 35,
          "time": 29.76920100000014,
          "velocity": 0.7874015748031497,
          "duration": 0.07692300000000074
        },
        {
          "name": "A#2",
          "midi": 46,
          "time": 29.76920100000014,
          "velocity": 0.7874015748031497,
          "duration": 0.07692300000000074
        },
        {
          "name": "D2",
          "midi": 38,
          "time": 29.999970000000143,
          "velocity": 0.7874015748031497,
          "duration": 0.07692300000000074
        },
        {
          "name": "E2",
          "midi": 40,
          "time": 29.999970000000143,
          "velocity": 0.7874015748031497,
          "duration": 0.07692300000000074
        },
        {
          "name": "A3",
          "midi": 57,
          "time": 29.999970000000143,
          "velocity": 0.7874015748031497,
          "duration": 0.07692300000000074
        },
        {
          "name": "A#2",
          "midi": 46,
          "time": 29.999970000000143,
          "velocity": 0.7874015748031497,
          "duration": 0.07692300000000074
        },
        {
          "name": "A#2",
          "midi": 46,
          "time": 30.230739000000145,
          "velocity": 0.7874015748031497,
          "duration": 0.07692300000000074
        },
        {
          "name": "C2",
          "midi": 36,
          "time": 30.346123500000147,
          "velocity": 0.7874015748031497,
          "duration": 0.07692300000000074
        },
        {
          "name": "B1",
          "midi": 35,
          "time": 30.346123500000147,
          "velocity": 0.7874015748031497,
          "duration": 0.07692300000000074
        },
        {
          "name": "E2",
          "midi": 40,
          "time": 30.346123500000147,
          "velocity": 0.7874015748031497,
          "duration": 0.07692300000000074
        },
        {
          "name": "A#2",
          "midi": 46,
          "time": 30.461508000000148,
          "velocity": 0.7874015748031497,
          "duration": 0.07692300000000074
        },
        {
          "name": "G#2",
          "midi": 44,
          "time": 30.57689250000015,
          "velocity": 0.7874015748031497,
          "duration": 0.07692300000000074
        },
        {
          "name": "C2",
          "midi": 36,
          "time": 30.69227700000015,
          "velocity": 0.7874015748031497,
          "duration": 0.07692300000000074
        },
        {
          "name": "B1",
          "midi": 35,
          "time": 30.69227700000015,
          "velocity": 0.7874015748031497,
          "duration": 0.07692300000000074
        },
        {
          "name": "A#2",
          "midi": 46,
          "time": 30.69227700000015,
          "velocity": 0.7874015748031497,
          "duration": 0.07692300000000074
        },
        {
          "name": "D2",
          "midi": 38,
          "time": 30.923046000000152,
          "velocity": 0.7874015748031497,
          "duration": 0.07692300000000074
        },
        {
          "name": "E2",
          "midi": 40,
          "time": 30.923046000000152,
          "velocity": 0.7874015748031497,
          "duration": 0.07692300000000074
        },
        {
          "name": "A3",
          "midi": 57,
          "time": 30.923046000000152,
          "velocity": 0.7874015748031497,
          "duration": 0.07692300000000074
        },
        {
          "name": "A#2",
          "midi": 46,
          "time": 30.923046000000152,
          "velocity": 0.7874015748031497,
          "duration": 0.07692300000000074
        },
        {
          "name": "A#2",
          "midi": 46,
          "time": 31.153815000000154,
          "velocity": 0.7874015748031497,
          "duration": 0.07692300000000074
        },
        {
          "name": "C2",
          "midi": 36,
          "time": 31.269199500000155,
          "velocity": 0.7874015748031497,
          "duration": 0.07692300000000074
        },
        {
          "name": "B1",
          "midi": 35,
          "time": 31.269199500000155,
          "velocity": 0.7874015748031497,
          "duration": 0.07692300000000074
        },
        {
          "name": "C2",
          "midi": 36,
          "time": 31.384584000000157,
          "velocity": 0.7874015748031497,
          "duration": 0.07692300000000074
        },
        {
          "name": "B1",
          "midi": 35,
          "time": 31.384584000000157,
          "velocity": 0.7874015748031497,
          "duration": 0.07692300000000074
        },
        {
          "name": "A3",
          "midi": 57,
          "time": 31.384584000000157,
          "velocity": 0.7874015748031497,
          "duration": 0.07692300000000074
        },
        {
          "name": "A#2",
          "midi": 46,
          "time": 31.384584000000157,
          "velocity": 0.7874015748031497,
          "duration": 0.07692300000000074
        },
        {
          "name": "C2",
          "midi": 36,
          "time": 31.61535300000016,
          "velocity": 0.7874015748031497,
          "duration": 0.07692300000000074
        },
        {
          "name": "B1",
          "midi": 35,
          "time": 31.61535300000016,
          "velocity": 0.7874015748031497,
          "duration": 0.07692300000000074
        },
        {
          "name": "A#2",
          "midi": 46,
          "time": 31.61535300000016,
          "velocity": 0.7874015748031497,
          "duration": 0.07692300000000074
        },
        {
          "name": "D2",
          "midi": 38,
          "time": 31.84612200000016,
          "velocity": 0.7874015748031497,
          "duration": 0.07692300000000074
        },
        {
          "name": "E2",
          "midi": 40,
          "time": 31.84612200000016,
          "velocity": 0.7874015748031497,
          "duration": 0.07692300000000074
        },
        {
          "name": "A3",
          "midi": 57,
          "time": 31.84612200000016,
          "velocity": 0.7874015748031497,
          "duration": 0.07692300000000074
        },
        {
          "name": "A#2",
          "midi": 46,
          "time": 31.84612200000016,
          "velocity": 0.7874015748031497,
          "duration": 0.07692300000000074
        },
        {
          "name": "A#2",
          "midi": 46,
          "time": 32.07689100000016,
          "velocity": 0.7874015748031497,
          "duration": 0.07692300000000074
        },
        {
          "name": "C2",
          "midi": 36,
          "time": 32.19227550000016,
          "velocity": 0.7874015748031497,
          "duration": 0.07692300000000074
        },
        {
          "name": "B1",
          "midi": 35,
          "time": 32.19227550000016,
          "velocity": 0.7874015748031497,
          "duration": 0.07692300000000074
        },
        {
          "name": "E2",
          "midi": 40,
          "time": 32.19227550000016,
          "velocity": 0.7874015748031497,
          "duration": 0.07692300000000074
        },
        {
          "name": "A#2",
          "midi": 46,
          "time": 32.307660000000155,
          "velocity": 0.7874015748031497,
          "duration": 0.07692300000000074
        },
        {
          "name": "G#2",
          "midi": 44,
          "time": 32.42304450000015,
          "velocity": 0.7874015748031497,
          "duration": 0.07692300000000074
        },
        {
          "name": "C2",
          "midi": 36,
          "time": 32.53842900000015,
          "velocity": 0.7874015748031497,
          "duration": 0.07692300000000074
        },
        {
          "name": "B1",
          "midi": 35,
          "time": 32.53842900000015,
          "velocity": 0.7874015748031497,
          "duration": 0.07692300000000074
        },
        {
          "name": "A#2",
          "midi": 46,
          "time": 32.53842900000015,
          "velocity": 0.7874015748031497,
          "duration": 0.07692300000000074
        },
        {
          "name": "D2",
          "midi": 38,
          "time": 32.76919800000015,
          "velocity": 0.7874015748031497,
          "duration": 0.07692300000000074
        },
        {
          "name": "E2",
          "midi": 40,
          "time": 32.76919800000015,
          "velocity": 0.7874015748031497,
          "duration": 0.07692300000000074
        },
        {
          "name": "A3",
          "midi": 57,
          "time": 32.76919800000015,
          "velocity": 0.7874015748031497,
          "duration": 0.07692300000000074
        },
        {
          "name": "A#2",
          "midi": 46,
          "time": 32.76919800000015,
          "velocity": 0.7874015748031497,
          "duration": 0.07692300000000074
        },
        {
          "name": "A#2",
          "midi": 46,
          "time": 32.999967000000154,
          "velocity": 0.7874015748031497,
          "duration": 0.07692300000000074
        },
        {
          "name": "C2",
          "midi": 36,
          "time": 33.11535150000015,
          "velocity": 0.7874015748031497,
          "duration": 0.07692300000000074
        },
        {
          "name": "B1",
          "midi": 35,
          "time": 33.11535150000015,
          "velocity": 0.7874015748031497,
          "duration": 0.07692300000000074
        },
        {
          "name": "C2",
          "midi": 36,
          "time": 33.23073600000015,
          "velocity": 0.7874015748031497,
          "duration": 0.07692300000000074
        },
        {
          "name": "B1",
          "midi": 35,
          "time": 33.23073600000015,
          "velocity": 0.7874015748031497,
          "duration": 0.07692300000000074
        },
        {
          "name": "A3",
          "midi": 57,
          "time": 33.23073600000015,
          "velocity": 0.7874015748031497,
          "duration": 0.07692300000000074
        },
        {
          "name": "A#2",
          "midi": 46,
          "time": 33.23073600000015,
          "velocity": 0.7874015748031497,
          "duration": 0.07692300000000074
        },
        {
          "name": "C2",
          "midi": 36,
          "time": 33.46150500000015,
          "velocity": 0.7874015748031497,
          "duration": 0.07692300000000074
        },
        {
          "name": "B1",
          "midi": 35,
          "time": 33.46150500000015,
          "velocity": 0.7874015748031497,
          "duration": 0.07692300000000074
        },
        {
          "name": "A#2",
          "midi": 46,
          "time": 33.46150500000015,
          "velocity": 0.7874015748031497,
          "duration": 0.07692300000000074
        },
        {
          "name": "D2",
          "midi": 38,
          "time": 33.692274000000154,
          "velocity": 0.7874015748031497,
          "duration": 0.07692300000000074
        },
        {
          "name": "E2",
          "midi": 40,
          "time": 33.692274000000154,
          "velocity": 0.7874015748031497,
          "duration": 0.07692300000000074
        },
        {
          "name": "A3",
          "midi": 57,
          "time": 33.692274000000154,
          "velocity": 0.7874015748031497,
          "duration": 0.07692300000000074
        },
        {
          "name": "A#2",
          "midi": 46,
          "time": 33.692274000000154,
          "velocity": 0.7874015748031497,
          "duration": 0.07692300000000074
        },
        {
          "name": "A#2",
          "midi": 46,
          "time": 33.923043000000156,
          "velocity": 0.7874015748031497,
          "duration": 0.07692300000000074
        },
        {
          "name": "C2",
          "midi": 36,
          "time": 34.038427500000154,
          "velocity": 0.7874015748031497,
          "duration": 0.07692300000000074
        },
        {
          "name": "B1",
          "midi": 35,
          "time": 34.038427500000154,
          "velocity": 0.7874015748031497,
          "duration": 0.07692300000000074
        },
        {
          "name": "E2",
          "midi": 40,
          "time": 34.038427500000154,
          "velocity": 0.7874015748031497,
          "duration": 0.07692300000000074
        },
        {
          "name": "A#2",
          "midi": 46,
          "time": 34.15381200000015,
          "velocity": 0.7874015748031497,
          "duration": 0.07692300000000074
        },
        {
          "name": "G#2",
          "midi": 44,
          "time": 34.26919650000015,
          "velocity": 0.7874015748031497,
          "duration": 0.07692300000000074
        },
        {
          "name": "C2",
          "midi": 36,
          "time": 34.384581000000146,
          "velocity": 0.7874015748031497,
          "duration": 0.07692300000000074
        },
        {
          "name": "B1",
          "midi": 35,
          "time": 34.384581000000146,
          "velocity": 0.7874015748031497,
          "duration": 0.07692300000000074
        },
        {
          "name": "A#2",
          "midi": 46,
          "time": 34.384581000000146,
          "velocity": 0.7874015748031497,
          "duration": 0.07692300000000074
        },
        {
          "name": "D2",
          "midi": 38,
          "time": 34.61535000000015,
          "velocity": 0.7874015748031497,
          "duration": 0.07692300000000074
        },
        {
          "name": "E2",
          "midi": 40,
          "time": 34.61535000000015,
          "velocity": 0.7874015748031497,
          "duration": 0.07692300000000074
        },
        {
          "name": "A3",
          "midi": 57,
          "time": 34.61535000000015,
          "velocity": 0.7874015748031497,
          "duration": 0.07692300000000074
        },
        {
          "name": "A#2",
          "midi": 46,
          "time": 34.61535000000015,
          "velocity": 0.7874015748031497,
          "duration": 0.07692300000000074
        },
        {
          "name": "A#2",
          "midi": 46,
          "time": 34.84611900000015,
          "velocity": 0.7874015748031497,
          "duration": 0.07692300000000074
        },
        {
          "name": "C2",
          "midi": 36,
          "time": 34.96150350000015,
          "velocity": 0.7874015748031497,
          "duration": 0.07692300000000074
        },
        {
          "name": "B1",
          "midi": 35,
          "time": 34.96150350000015,
          "velocity": 0.7874015748031497,
          "duration": 0.07692300000000074
        },
        {
          "name": "C2",
          "midi": 36,
          "time": 35.076888000000146,
          "velocity": 0.7874015748031497,
          "duration": 0.07692300000000074
        },
        {
          "name": "B1",
          "midi": 35,
          "time": 35.076888000000146,
          "velocity": 0.7874015748031497,
          "duration": 0.07692300000000074
        },
        {
          "name": "A3",
          "midi": 57,
          "time": 35.076888000000146,
          "velocity": 0.7874015748031497,
          "duration": 0.07692300000000074
        },
        {
          "name": "A#2",
          "midi": 46,
          "time": 35.076888000000146,
          "velocity": 0.7874015748031497,
          "duration": 0.07692300000000074
        },
        {
          "name": "C2",
          "midi": 36,
          "time": 35.30765700000015,
          "velocity": 0.7874015748031497,
          "duration": 0.07692300000000074
        },
        {
          "name": "B1",
          "midi": 35,
          "time": 35.30765700000015,
          "velocity": 0.7874015748031497,
          "duration": 0.07692300000000074
        },
        {
          "name": "A#2",
          "midi": 46,
          "time": 35.30765700000015,
          "velocity": 0.7874015748031497,
          "duration": 0.07692300000000074
        },
        {
          "name": "D2",
          "midi": 38,
          "time": 35.53842600000015,
          "velocity": 0.7874015748031497,
          "duration": 0.07692300000000074
        },
        {
          "name": "E2",
          "midi": 40,
          "time": 35.53842600000015,
          "velocity": 0.7874015748031497,
          "duration": 0.07692300000000074
        },
        {
          "name": "A3",
          "midi": 57,
          "time": 35.53842600000015,
          "velocity": 0.7874015748031497,
          "duration": 0.07692300000000074
        },
        {
          "name": "A#2",
          "midi": 46,
          "time": 35.53842600000015,
          "velocity": 0.7874015748031497,
          "duration": 0.07692300000000074
        },
        {
          "name": "A#2",
          "midi": 46,
          "time": 35.76919500000015,
          "velocity": 0.7874015748031497,
          "duration": 0.07692300000000074
        },
        {
          "name": "C2",
          "midi": 36,
          "time": 35.88457950000015,
          "velocity": 0.7874015748031497,
          "duration": 0.07692300000000074
        },
        {
          "name": "B1",
          "midi": 35,
          "time": 35.88457950000015,
          "velocity": 0.7874015748031497,
          "duration": 0.07692300000000074
        },
        {
          "name": "E2",
          "midi": 40,
          "time": 35.88457950000015,
          "velocity": 0.7874015748031497,
          "duration": 0.07692300000000074
        },
        {
          "name": "A#2",
          "midi": 46,
          "time": 35.99996400000015,
          "velocity": 0.7874015748031497,
          "duration": 0.07692300000000074
        },
        {
          "name": "G#2",
          "midi": 44,
          "time": 36.115348500000145,
          "velocity": 0.7874015748031497,
          "duration": 0.07692300000000074
        },
        {
          "name": "C2",
          "midi": 36,
          "time": 36.23073300000014,
          "velocity": 0.7874015748031497,
          "duration": 0.07692300000000074
        },
        {
          "name": "B1",
          "midi": 35,
          "time": 36.23073300000014,
          "velocity": 0.7874015748031497,
          "duration": 0.07692300000000074
        },
        {
          "name": "A#2",
          "midi": 46,
          "time": 36.23073300000014,
          "velocity": 0.7874015748031497,
          "duration": 0.07692300000000074
        },
        {
          "name": "D2",
          "midi": 38,
          "time": 36.461502000000145,
          "velocity": 0.7874015748031497,
          "duration": 0.07692300000000074
        },
        {
          "name": "E2",
          "midi": 40,
          "time": 36.461502000000145,
          "velocity": 0.7874015748031497,
          "duration": 0.07692300000000074
        },
        {
          "name": "A3",
          "midi": 57,
          "time": 36.461502000000145,
          "velocity": 0.7874015748031497,
          "duration": 0.07692300000000074
        },
        {
          "name": "A#2",
          "midi": 46,
          "time": 36.461502000000145,
          "velocity": 0.7874015748031497,
          "duration": 0.07692300000000074
        },
        {
          "name": "A#2",
          "midi": 46,
          "time": 36.69227100000015,
          "velocity": 0.7874015748031497,
          "duration": 0.07692300000000074
        },
        {
          "name": "A3",
          "midi": 57,
          "time": 36.69227100000015,
          "velocity": 0.7874015748031497,
          "duration": 0.07692300000000074
        },
        {
          "name": "C2",
          "midi": 36,
          "time": 36.807655500000145,
          "velocity": 0.7874015748031497,
          "duration": 0.07692300000000074
        },
        {
          "name": "B1",
          "midi": 35,
          "time": 36.807655500000145,
          "velocity": 0.7874015748031497,
          "duration": 0.07692300000000074
        },
        {
          "name": "C2",
          "midi": 36,
          "time": 36.92304000000014,
          "velocity": 0.7874015748031497,
          "duration": 0.07692300000000074
        },
        {
          "name": "B1",
          "midi": 35,
          "time": 36.92304000000014,
          "velocity": 0.7874015748031497,
          "duration": 0.07692300000000074
        },
        {
          "name": "A3",
          "midi": 57,
          "time": 36.92304000000014,
          "velocity": 0.7874015748031497,
          "duration": 0.07692300000000074
        },
        {
          "name": "A#2",
          "midi": 46,
          "time": 36.92304000000014,
          "velocity": 0.7874015748031497,
          "duration": 0.07692300000000074
        },
        {
          "name": "C2",
          "midi": 36,
          "time": 37.153809000000145,
          "velocity": 0.7874015748031497,
          "duration": 0.07692300000000074
        },
        {
          "name": "B1",
          "midi": 35,
          "time": 37.153809000000145,
          "velocity": 0.7874015748031497,
          "duration": 0.07692300000000074
        },
        {
          "name": "A#2",
          "midi": 46,
          "time": 37.153809000000145,
          "velocity": 0.7874015748031497,
          "duration": 0.07692300000000074
        },
        {
          "name": "D2",
          "midi": 38,
          "time": 37.38457800000015,
          "velocity": 0.7874015748031497,
          "duration": 0.07692300000000074
        },
        {
          "name": "E2",
          "midi": 40,
          "time": 37.38457800000015,
          "velocity": 0.7874015748031497,
          "duration": 0.07692300000000074
        },
        {
          "name": "A3",
          "midi": 57,
          "time": 37.38457800000015,
          "velocity": 0.7874015748031497,
          "duration": 0.07692300000000074
        },
        {
          "name": "A#2",
          "midi": 46,
          "time": 37.38457800000015,
          "velocity": 0.7874015748031497,
          "duration": 0.07692300000000074
        },
        {
          "name": "A#2",
          "midi": 46,
          "time": 37.61534700000015,
          "velocity": 0.7874015748031497,
          "duration": 0.07692300000000074
        },
        {
          "name": "C2",
          "midi": 36,
          "time": 37.73073150000015,
          "velocity": 0.7874015748031497,
          "duration": 0.07692300000000074
        },
        {
          "name": "B1",
          "midi": 35,
          "time": 37.73073150000015,
          "velocity": 0.7874015748031497,
          "duration": 0.07692300000000074
        },
        {
          "name": "E2",
          "midi": 40,
          "time": 37.73073150000015,
          "velocity": 0.7874015748031497,
          "duration": 0.07692300000000074
        },
        {
          "name": "A#2",
          "midi": 46,
          "time": 37.846116000000144,
          "velocity": 0.7874015748031497,
          "duration": 0.07692300000000074
        },
        {
          "name": "G#2",
          "midi": 44,
          "time": 37.96150050000014,
          "velocity": 0.7874015748031497,
          "duration": 0.07692300000000074
        },
        {
          "name": "C2",
          "midi": 36,
          "time": 38.07688500000014,
          "velocity": 0.7874015748031497,
          "duration": 0.07692300000000074
        },
        {
          "name": "B1",
          "midi": 35,
          "time": 38.07688500000014,
          "velocity": 0.7874015748031497,
          "duration": 0.07692300000000074
        },
        {
          "name": "A#2",
          "midi": 46,
          "time": 38.07688500000014,
          "velocity": 0.7874015748031497,
          "duration": 0.07692300000000074
        },
        {
          "name": "D2",
          "midi": 38,
          "time": 38.30765400000014,
          "velocity": 0.7874015748031497,
          "duration": 0.07692300000000074
        },
        {
          "name": "E2",
          "midi": 40,
          "time": 38.30765400000014,
          "velocity": 0.7874015748031497,
          "duration": 0.07692300000000074
        },
        {
          "name": "A3",
          "midi": 57,
          "time": 38.30765400000014,
          "velocity": 0.7874015748031497,
          "duration": 0.07692300000000074
        },
        {
          "name": "A#2",
          "midi": 46,
          "time": 38.30765400000014,
          "velocity": 0.7874015748031497,
          "duration": 0.07692300000000074
        },
        {
          "name": "A#2",
          "midi": 46,
          "time": 38.538423000000144,
          "velocity": 0.7874015748031497,
          "duration": 0.07692300000000074
        },
        {
          "name": "C2",
          "midi": 36,
          "time": 38.65380750000014,
          "velocity": 0.7874015748031497,
          "duration": 0.07692300000000074
        },
        {
          "name": "B1",
          "midi": 35,
          "time": 38.65380750000014,
          "velocity": 0.7874015748031497,
          "duration": 0.07692300000000074
        },
        {
          "name": "C2",
          "midi": 36,
          "time": 38.76919200000014,
          "velocity": 0.7874015748031497,
          "duration": 0.07692300000000074
        },
        {
          "name": "B1",
          "midi": 35,
          "time": 38.76919200000014,
          "velocity": 0.7874015748031497,
          "duration": 0.07692300000000074
        },
        {
          "name": "A3",
          "midi": 57,
          "time": 38.76919200000014,
          "velocity": 0.7874015748031497,
          "duration": 0.07692300000000074
        },
        {
          "name": "A#2",
          "midi": 46,
          "time": 38.76919200000014,
          "velocity": 0.7874015748031497,
          "duration": 0.07692300000000074
        },
        {
          "name": "C2",
          "midi": 36,
          "time": 38.99996100000014,
          "velocity": 0.7874015748031497,
          "duration": 0.07692300000000074
        },
        {
          "name": "B1",
          "midi": 35,
          "time": 38.99996100000014,
          "velocity": 0.7874015748031497,
          "duration": 0.07692300000000074
        },
        {
          "name": "A#2",
          "midi": 46,
          "time": 38.99996100000014,
          "velocity": 0.7874015748031497,
          "duration": 0.07692300000000074
        },
        {
          "name": "D2",
          "midi": 38,
          "time": 39.23073000000014,
          "velocity": 0.7874015748031497,
          "duration": 0.07692300000000074
        },
        {
          "name": "E2",
          "midi": 40,
          "time": 39.23073000000014,
          "velocity": 0.7874015748031497,
          "duration": 0.07692300000000074
        },
        {
          "name": "A3",
          "midi": 57,
          "time": 39.23073000000014,
          "velocity": 0.7874015748031497,
          "duration": 0.07692300000000074
        },
        {
          "name": "A#2",
          "midi": 46,
          "time": 39.23073000000014,
          "velocity": 0.7874015748031497,
          "duration": 0.07692300000000074
        },
        {
          "name": "A#2",
          "midi": 46,
          "time": 39.461499000000146,
          "velocity": 0.7874015748031497,
          "duration": 0.07692300000000074
        },
        {
          "name": "C2",
          "midi": 36,
          "time": 39.57688350000014,
          "velocity": 0.7874015748031497,
          "duration": 0.07692300000000074
        },
        {
          "name": "B1",
          "midi": 35,
          "time": 39.57688350000014,
          "velocity": 0.7874015748031497,
          "duration": 0.07692300000000074
        },
        {
          "name": "E2",
          "midi": 40,
          "time": 39.57688350000014,
          "velocity": 0.7874015748031497,
          "duration": 0.07692300000000074
        },
        {
          "name": "A#2",
          "midi": 46,
          "time": 39.69226800000014,
          "velocity": 0.7874015748031497,
          "duration": 0.07692300000000074
        },
        {
          "name": "G#2",
          "midi": 44,
          "time": 39.80765250000014,
          "velocity": 0.7874015748031497,
          "duration": 0.07692300000000074
        },
        {
          "name": "C2",
          "midi": 36,
          "time": 39.923037000000136,
          "velocity": 0.7874015748031497,
          "duration": 0.07692300000000074
        },
        {
          "name": "B1",
          "midi": 35,
          "time": 39.923037000000136,
          "velocity": 0.7874015748031497,
          "duration": 0.07692300000000074
        },
        {
          "name": "A#2",
          "midi": 46,
          "time": 39.923037000000136,
          "velocity": 0.7874015748031497,
          "duration": 0.07692300000000074
        },
        {
          "name": "D2",
          "midi": 38,
          "time": 40.15380600000014,
          "velocity": 0.7874015748031497,
          "duration": 0.07692300000000074
        },
        {
          "name": "E2",
          "midi": 40,
          "time": 40.15380600000014,
          "velocity": 0.7874015748031497,
          "duration": 0.07692300000000074
        },
        {
          "name": "A3",
          "midi": 57,
          "time": 40.15380600000014,
          "velocity": 0.7874015748031497,
          "duration": 0.07692300000000074
        },
        {
          "name": "A#2",
          "midi": 46,
          "time": 40.15380600000014,
          "velocity": 0.7874015748031497,
          "duration": 0.07692300000000074
        },
        {
          "name": "A#2",
          "midi": 46,
          "time": 40.38457500000014,
          "velocity": 0.7874015748031497,
          "duration": 0.07692300000000074
        },
        {
          "name": "C2",
          "midi": 36,
          "time": 40.49995950000014,
          "velocity": 0.7874015748031497,
          "duration": 0.07692300000000074
        },
        {
          "name": "B1",
          "midi": 35,
          "time": 40.49995950000014,
          "velocity": 0.7874015748031497,
          "duration": 0.07692300000000074
        },
        {
          "name": "C2",
          "midi": 36,
          "time": 40.615344000000135,
          "velocity": 0.7874015748031497,
          "duration": 0.07692300000000074
        },
        {
          "name": "B1",
          "midi": 35,
          "time": 40.615344000000135,
          "velocity": 0.7874015748031497,
          "duration": 0.07692300000000074
        },
        {
          "name": "A3",
          "midi": 57,
          "time": 40.615344000000135,
          "velocity": 0.7874015748031497,
          "duration": 0.07692300000000074
        },
        {
          "name": "A#2",
          "midi": 46,
          "time": 40.615344000000135,
          "velocity": 0.7874015748031497,
          "duration": 0.07692300000000074
        },
        {
          "name": "C2",
          "midi": 36,
          "time": 40.84611300000014,
          "velocity": 0.7874015748031497,
          "duration": 0.07692300000000074
        },
        {
          "name": "B1",
          "midi": 35,
          "time": 40.84611300000014,
          "velocity": 0.7874015748031497,
          "duration": 0.07692300000000074
        },
        {
          "name": "A#2",
          "midi": 46,
          "time": 40.84611300000014,
          "velocity": 0.7874015748031497,
          "duration": 0.07692300000000074
        },
        {
          "name": "D2",
          "midi": 38,
          "time": 41.07688200000014,
          "velocity": 0.7874015748031497,
          "duration": 0.07692300000000074
        },
        {
          "name": "E2",
          "midi": 40,
          "time": 41.07688200000014,
          "velocity": 0.7874015748031497,
          "duration": 0.07692300000000074
        },
        {
          "name": "A3",
          "midi": 57,
          "time": 41.07688200000014,
          "velocity": 0.7874015748031497,
          "duration": 0.07692300000000074
        },
        {
          "name": "A#2",
          "midi": 46,
          "time": 41.07688200000014,
          "velocity": 0.7874015748031497,
          "duration": 0.07692300000000074
        },
        {
          "name": "A#2",
          "midi": 46,
          "time": 41.30765100000014,
          "velocity": 0.7874015748031497,
          "duration": 0.07692300000000074
        },
        {
          "name": "C2",
          "midi": 36,
          "time": 41.42303550000014,
          "velocity": 0.7874015748031497,
          "duration": 0.07692300000000074
        },
        {
          "name": "B1",
          "midi": 35,
          "time": 41.42303550000014,
          "velocity": 0.7874015748031497,
          "duration": 0.07692300000000074
        },
        {
          "name": "E2",
          "midi": 40,
          "time": 41.42303550000014,
          "velocity": 0.7874015748031497,
          "duration": 0.07692300000000074
        },
        {
          "name": "A#2",
          "midi": 46,
          "time": 41.53842000000014,
          "velocity": 0.7874015748031497,
          "duration": 0.07692300000000074
        },
        {
          "name": "G#2",
          "midi": 44,
          "time": 41.653804500000135,
          "velocity": 0.7874015748031497,
          "duration": 0.07692300000000074
        },
        {
          "name": "C2",
          "midi": 36,
          "time": 41.76918900000013,
          "velocity": 0.7874015748031497,
          "duration": 0.07692300000000074
        },
        {
          "name": "B1",
          "midi": 35,
          "time": 41.76918900000013,
          "velocity": 0.7874015748031497,
          "duration": 0.07692300000000074
        },
        {
          "name": "A#2",
          "midi": 46,
          "time": 41.76918900000013,
          "velocity": 0.7874015748031497,
          "duration": 0.07692300000000074
        },
        {
          "name": "D2",
          "midi": 38,
          "time": 41.999958000000134,
          "velocity": 0.7874015748031497,
          "duration": 0.07692300000000074
        },
        {
          "name": "E2",
          "midi": 40,
          "time": 41.999958000000134,
          "velocity": 0.7874015748031497,
          "duration": 0.07692300000000074
        },
        {
          "name": "A3",
          "midi": 57,
          "time": 41.999958000000134,
          "velocity": 0.7874015748031497,
          "duration": 0.07692300000000074
        },
        {
          "name": "A#2",
          "midi": 46,
          "time": 41.999958000000134,
          "velocity": 0.7874015748031497,
          "duration": 0.07692300000000074
        },
        {
          "name": "A#2",
          "midi": 46,
          "time": 42.23072700000014,
          "velocity": 0.7874015748031497,
          "duration": 0.07692300000000074
        },
        {
          "name": "C2",
          "midi": 36,
          "time": 42.346111500000134,
          "velocity": 0.7874015748031497,
          "duration": 0.07692300000000074
        },
        {
          "name": "B1",
          "midi": 35,
          "time": 42.346111500000134,
          "velocity": 0.7874015748031497,
          "duration": 0.07692300000000074
        },
        {
          "name": "C2",
          "midi": 36,
          "time": 42.46149600000013,
          "velocity": 0.7874015748031497,
          "duration": 0.07692300000000074
        },
        {
          "name": "B1",
          "midi": 35,
          "time": 42.46149600000013,
          "velocity": 0.7874015748031497,
          "duration": 0.07692300000000074
        },
        {
          "name": "A3",
          "midi": 57,
          "time": 42.46149600000013,
          "velocity": 0.7874015748031497,
          "duration": 0.07692300000000074
        },
        {
          "name": "A#2",
          "midi": 46,
          "time": 42.46149600000013,
          "velocity": 0.7874015748031497,
          "duration": 0.07692300000000074
        },
        {
          "name": "C2",
          "midi": 36,
          "time": 42.692265000000134,
          "velocity": 0.7874015748031497,
          "duration": 0.07692300000000074
        },
        {
          "name": "B1",
          "midi": 35,
          "time": 42.692265000000134,
          "velocity": 0.7874015748031497,
          "duration": 0.07692300000000074
        },
        {
          "name": "A#2",
          "midi": 46,
          "time": 42.692265000000134,
          "velocity": 0.7874015748031497,
          "duration": 0.07692300000000074
        },
        {
          "name": "D2",
          "midi": 38,
          "time": 42.923034000000136,
          "velocity": 0.7874015748031497,
          "duration": 0.07692300000000074
        },
        {
          "name": "E2",
          "midi": 40,
          "time": 42.923034000000136,
          "velocity": 0.7874015748031497,
          "duration": 0.07692300000000074
        },
        {
          "name": "A3",
          "midi": 57,
          "time": 42.923034000000136,
          "velocity": 0.7874015748031497,
          "duration": 0.07692300000000074
        },
        {
          "name": "A#2",
          "midi": 46,
          "time": 42.923034000000136,
          "velocity": 0.7874015748031497,
          "duration": 0.07692300000000074
        },
        {
          "name": "A#2",
          "midi": 46,
          "time": 43.15380300000014,
          "velocity": 0.7874015748031497,
          "duration": 0.07692300000000074
        },
        {
          "name": "A#2",
          "midi": 46,
          "time": 43.38457200000014,
          "velocity": 0.7874015748031497,
          "duration": 0.07692299999999364
        },
        {
          "name": "E2",
          "midi": 40,
          "time": 43.38457200000014,
          "velocity": 0.7874015748031497,
          "duration": 0.03846149999999682
        },
        {
          "name": "D2",
          "midi": 38,
          "time": 43.38457200000014,
          "velocity": 0.7874015748031497,
          "duration": 0.03846149999999682
        },
        {
          "name": "C2",
          "midi": 36,
          "time": 43.38457200000014,
          "velocity": 0.7874015748031497,
          "duration": 0.07692299999999364
        },
        {
          "name": "E2",
          "midi": 40,
          "time": 43.49995650000013,
          "velocity": 0.7874015748031497,
          "duration": 0.03846149999999682
        },
        {
          "name": "D2",
          "midi": 38,
          "time": 43.49995650000013,
          "velocity": 0.7874015748031497,
          "duration": 0.03846149999999682
        },
        {
          "name": "C2",
          "midi": 36,
          "time": 43.49995650000013,
          "velocity": 0.7874015748031497,
          "duration": 0.07692299999999364
        },
        {
          "name": "G#2",
          "midi": 44,
          "time": 43.49995650000013,
          "velocity": 0.7874015748031497,
          "duration": 0.07692299999999364
        },
        {
          "name": "A#2",
          "midi": 46,
          "time": 43.61534100000012,
          "velocity": 0.7874015748031497,
          "duration": 0.07692300000000074
        },
        {
          "name": "E2",
          "midi": 40,
          "time": 43.73072550000012,
          "velocity": 0.7874015748031497,
          "duration": 0.03846149999999682
        },
        {
          "name": "E2",
          "midi": 40,
          "time": 43.788417750000114,
          "velocity": 0.7874015748031497,
          "duration": 0.03846149999999682
        },
        {
          "name": "A#2",
          "midi": 46,
          "time": 43.84611000000011,
          "velocity": 0.7874015748031497,
          "duration": 0.07692300000000074
        },
        {
          "name": "D2",
          "midi": 38,
          "time": 43.84611000000011,
          "velocity": 0.7874015748031497,
          "duration": 0.07692300000000074
        },
        {
          "name": "E2",
          "midi": 40,
          "time": 43.84611000000011,
          "velocity": 0.7874015748031497,
          "duration": 0.07692300000000074
        },
        {
          "name": "C2",
          "midi": 36,
          "time": 43.84611000000011,
          "velocity": 0.7874015748031497,
          "duration": 0.07692300000000074
        },
        {
          "name": "E2",
          "midi": 40,
          "time": 43.96149450000011,
          "velocity": 0.7874015748031497,
          "duration": 0.03846149999999682
        },
        {
          "name": "D2",
          "midi": 38,
          "time": 43.96149450000011,
          "velocity": 0.7874015748031497,
          "duration": 0.03846149999999682
        },
        {
          "name": "C2",
          "midi": 36,
          "time": 43.96149450000011,
          "velocity": 0.7874015748031497,
          "duration": 0.07692299999999364
        },
        {
          "name": "A#2",
          "midi": 46,
          "time": 44.0768790000001,
          "velocity": 0.7874015748031497,
          "duration": 0.07692300000000074
        },
        {
          "name": "E2",
          "midi": 40,
          "time": 44.192263500000095,
          "velocity": 0.7874015748031497,
          "duration": 0.03846149999999682
        },
        {
          "name": "D2",
          "midi": 38,
          "time": 44.192263500000095,
          "velocity": 0.7874015748031497,
          "duration": 0.03846149999999682
        },
        {
          "name": "C2",
          "midi": 36,
          "time": 44.192263500000095,
          "velocity": 0.7874015748031497,
          "duration": 0.07692299999999364
        },
        {
          "name": "C2",
          "midi": 36,
          "time": 44.307648000000086,
          "velocity": 0.7874015748031497,
          "duration": 0.07692300000000074
        },
        {
          "name": "B1",
          "midi": 35,
          "time": 44.307648000000086,
          "velocity": 0.7874015748031497,
          "duration": 0.07692300000000074
        },
        {
          "name": "A3",
          "midi": 57,
          "time": 44.307648000000086,
          "velocity": 0.7874015748031497,
          "duration": 0.07692300000000074
        },
        {
          "name": "A#2",
          "midi": 46,
          "time": 44.307648000000086,
          "velocity": 0.7874015748031497,
          "duration": 0.07692300000000074
        },
        {
          "name": "C2",
          "midi": 36,
          "time": 44.53841700000009,
          "velocity": 0.7874015748031497,
          "duration": 0.07692300000000074
        },
        {
          "name": "B1",
          "midi": 35,
          "time": 44.53841700000009,
          "velocity": 0.7874015748031497,
          "duration": 0.07692300000000074
        },
        {
          "name": "A#2",
          "midi": 46,
          "time": 44.53841700000009,
          "velocity": 0.7874015748031497,
          "duration": 0.07692300000000074
        },
        {
          "name": "D2",
          "midi": 38,
          "time": 44.76918600000009,
          "velocity": 0.7874015748031497,
          "duration": 0.07692300000000074
        },
        {
          "name": "E2",
          "midi": 40,
          "time": 44.76918600000009,
          "velocity": 0.7874015748031497,
          "duration": 0.07692300000000074
        },
        {
          "name": "A3",
          "midi": 57,
          "time": 44.76918600000009,
          "velocity": 0.7874015748031497,
          "duration": 0.07692300000000074
        },
        {
          "name": "A#2",
          "midi": 46,
          "time": 44.76918600000009,
          "velocity": 0.7874015748031497,
          "duration": 0.07692300000000074
        },
        {
          "name": "A#2",
          "midi": 46,
          "time": 44.99995500000009,
          "velocity": 0.7874015748031497,
          "duration": 0.07692300000000074
        },
        {
          "name": "C2",
          "midi": 36,
          "time": 45.11533950000009,
          "velocity": 0.7874015748031497,
          "duration": 0.07692300000000074
        },
        {
          "name": "B1",
          "midi": 35,
          "time": 45.11533950000009,
          "velocity": 0.7874015748031497,
          "duration": 0.07692300000000074
        },
        {
          "name": "E2",
          "midi": 40,
          "time": 45.11533950000009,
          "velocity": 0.7874015748031497,
          "duration": 0.07692300000000074
        },
        {
          "name": "A#2",
          "midi": 46,
          "time": 45.23072400000009,
          "velocity": 0.7874015748031497,
          "duration": 0.07692300000000074
        },
        {
          "name": "G#2",
          "midi": 44,
          "time": 45.346108500000085,
          "velocity": 0.7874015748031497,
          "duration": 0.07692300000000074
        },
        {
          "name": "C2",
          "midi": 36,
          "time": 45.46149300000008,
          "velocity": 0.7874015748031497,
          "duration": 0.07692300000000074
        },
        {
          "name": "B1",
          "midi": 35,
          "time": 45.46149300000008,
          "velocity": 0.7874015748031497,
          "duration": 0.07692300000000074
        },
        {
          "name": "A#2",
          "midi": 46,
          "time": 45.46149300000008,
          "velocity": 0.7874015748031497,
          "duration": 0.07692300000000074
        },
        {
          "name": "D2",
          "midi": 38,
          "time": 45.692262000000085,
          "velocity": 0.7874015748031497,
          "duration": 0.07692300000000074
        },
        {
          "name": "E2",
          "midi": 40,
          "time": 45.692262000000085,
          "velocity": 0.7874015748031497,
          "duration": 0.07692300000000074
        },
        {
          "name": "A3",
          "midi": 57,
          "time": 45.692262000000085,
          "velocity": 0.7874015748031497,
          "duration": 0.07692300000000074
        },
        {
          "name": "A#2",
          "midi": 46,
          "time": 45.692262000000085,
          "velocity": 0.7874015748031497,
          "duration": 0.07692300000000074
        },
        {
          "name": "A#2",
          "midi": 46,
          "time": 45.92303100000009,
          "velocity": 0.7874015748031497,
          "duration": 0.07692300000000074
        },
        {
          "name": "C2",
          "midi": 36,
          "time": 46.038415500000085,
          "velocity": 0.7874015748031497,
          "duration": 0.07692300000000074
        },
        {
          "name": "B1",
          "midi": 35,
          "time": 46.038415500000085,
          "velocity": 0.7874015748031497,
          "duration": 0.07692300000000074
        },
        {
          "name": "C2",
          "midi": 36,
          "time": 46.15380000000008,
          "velocity": 0.7874015748031497,
          "duration": 0.07692300000000074
        },
        {
          "name": "B1",
          "midi": 35,
          "time": 46.15380000000008,
          "velocity": 0.7874015748031497,
          "duration": 0.07692300000000074
        },
        {
          "name": "A3",
          "midi": 57,
          "time": 46.15380000000008,
          "velocity": 0.7874015748031497,
          "duration": 0.07692300000000074
        },
        {
          "name": "A#2",
          "midi": 46,
          "time": 46.15380000000008,
          "velocity": 0.7874015748031497,
          "duration": 0.07692300000000074
        },
        {
          "name": "C2",
          "midi": 36,
          "time": 46.384569000000084,
          "velocity": 0.7874015748031497,
          "duration": 0.07692300000000074
        },
        {
          "name": "B1",
          "midi": 35,
          "time": 46.384569000000084,
          "velocity": 0.7874015748031497,
          "duration": 0.07692300000000074
        },
        {
          "name": "A#2",
          "midi": 46,
          "time": 46.384569000000084,
          "velocity": 0.7874015748031497,
          "duration": 0.07692300000000074
        },
        {
          "name": "D2",
          "midi": 38,
          "time": 46.61533800000009,
          "velocity": 0.7874015748031497,
          "duration": 0.07692300000000074
        },
        {
          "name": "E2",
          "midi": 40,
          "time": 46.61533800000009,
          "velocity": 0.7874015748031497,
          "duration": 0.07692300000000074
        },
        {
          "name": "A3",
          "midi": 57,
          "time": 46.61533800000009,
          "velocity": 0.7874015748031497,
          "duration": 0.07692300000000074
        },
        {
          "name": "A#2",
          "midi": 46,
          "time": 46.61533800000009,
          "velocity": 0.7874015748031497,
          "duration": 0.07692300000000074
        },
        {
          "name": "A#2",
          "midi": 46,
          "time": 46.84610700000009,
          "velocity": 0.7874015748031497,
          "duration": 0.07692300000000074
        },
        {
          "name": "C2",
          "midi": 36,
          "time": 46.961491500000086,
          "velocity": 0.7874015748031497,
          "duration": 0.07692300000000074
        },
        {
          "name": "B1",
          "midi": 35,
          "time": 46.961491500000086,
          "velocity": 0.7874015748031497,
          "duration": 0.07692300000000074
        },
        {
          "name": "E2",
          "midi": 40,
          "time": 46.961491500000086,
          "velocity": 0.7874015748031497,
          "duration": 0.07692300000000074
        },
        {
          "name": "A#2",
          "midi": 46,
          "time": 47.076876000000084,
          "velocity": 0.7874015748031497,
          "duration": 0.07692300000000074
        },
        {
          "name": "G#2",
          "midi": 44,
          "time": 47.19226050000008,
          "velocity": 0.7874015748031497,
          "duration": 0.07692300000000074
        },
        {
          "name": "C2",
          "midi": 36,
          "time": 47.30764500000008,
          "velocity": 0.7874015748031497,
          "duration": 0.07692300000000074
        },
        {
          "name": "B1",
          "midi": 35,
          "time": 47.30764500000008,
          "velocity": 0.7874015748031497,
          "duration": 0.07692300000000074
        },
        {
          "name": "A#2",
          "midi": 46,
          "time": 47.30764500000008,
          "velocity": 0.7874015748031497,
          "duration": 0.07692300000000074
        },
        {
          "name": "D2",
          "midi": 38,
          "time": 47.53841400000008,
          "velocity": 0.7874015748031497,
          "duration": 0.07692300000000074
        },
        {
          "name": "E2",
          "midi": 40,
          "time": 47.53841400000008,
          "velocity": 0.7874015748031497,
          "duration": 0.07692300000000074
        },
        {
          "name": "A3",
          "midi": 57,
          "time": 47.53841400000008,
          "velocity": 0.7874015748031497,
          "duration": 0.07692300000000074
        },
        {
          "name": "A#2",
          "midi": 46,
          "time": 47.53841400000008,
          "velocity": 0.7874015748031497,
          "duration": 0.07692300000000074
        },
        {
          "name": "A#2",
          "midi": 46,
          "time": 47.76918300000008,
          "velocity": 0.7874015748031497,
          "duration": 0.07692300000000074
        },
        {
          "name": "C2",
          "midi": 36,
          "time": 47.88456750000008,
          "velocity": 0.7874015748031497,
          "duration": 0.07692300000000074
        },
        {
          "name": "B1",
          "midi": 35,
          "time": 47.88456750000008,
          "velocity": 0.7874015748031497,
          "duration": 0.07692300000000074
        },
        {
          "name": "C2",
          "midi": 36,
          "time": 47.99995200000008,
          "velocity": 0.7874015748031497,
          "duration": 0.07692300000000074
        },
        {
          "name": "B1",
          "midi": 35,
          "time": 47.99995200000008,
          "velocity": 0.7874015748031497,
          "duration": 0.07692300000000074
        },
        {
          "name": "A3",
          "midi": 57,
          "time": 47.99995200000008,
          "velocity": 0.7874015748031497,
          "duration": 0.07692300000000074
        },
        {
          "name": "A#2",
          "midi": 46,
          "time": 47.99995200000008,
          "velocity": 0.7874015748031497,
          "duration": 0.07692300000000074
        },
        {
          "name": "C2",
          "midi": 36,
          "time": 48.23072100000008,
          "velocity": 0.7874015748031497,
          "duration": 0.07692300000000074
        },
        {
          "name": "B1",
          "midi": 35,
          "time": 48.23072100000008,
          "velocity": 0.7874015748031497,
          "duration": 0.07692300000000074
        },
        {
          "name": "A#2",
          "midi": 46,
          "time": 48.23072100000008,
          "velocity": 0.7874015748031497,
          "duration": 0.07692300000000074
        },
        {
          "name": "D2",
          "midi": 38,
          "time": 48.46149000000008,
          "velocity": 0.7874015748031497,
          "duration": 0.07692300000000074
        },
        {
          "name": "E2",
          "midi": 40,
          "time": 48.46149000000008,
          "velocity": 0.7874015748031497,
          "duration": 0.07692300000000074
        },
        {
          "name": "A3",
          "midi": 57,
          "time": 48.46149000000008,
          "velocity": 0.7874015748031497,
          "duration": 0.07692300000000074
        },
        {
          "name": "A#2",
          "midi": 46,
          "time": 48.46149000000008,
          "velocity": 0.7874015748031497,
          "duration": 0.07692300000000074
        },
        {
          "name": "A#2",
          "midi": 46,
          "time": 48.692259000000085,
          "velocity": 0.7874015748031497,
          "duration": 0.07692300000000074
        },
        {
          "name": "C2",
          "midi": 36,
          "time": 48.80764350000008,
          "velocity": 0.7874015748031497,
          "duration": 0.07692300000000074
        },
        {
          "name": "B1",
          "midi": 35,
          "time": 48.80764350000008,
          "velocity": 0.7874015748031497,
          "duration": 0.07692300000000074
        },
        {
          "name": "E2",
          "midi": 40,
          "time": 48.80764350000008,
          "velocity": 0.7874015748031497,
          "duration": 0.07692300000000074
        },
        {
          "name": "A#2",
          "midi": 46,
          "time": 48.92302800000008,
          "velocity": 0.7874015748031497,
          "duration": 0.07692300000000074
        },
        {
          "name": "G#2",
          "midi": 44,
          "time": 49.03841250000008,
          "velocity": 0.7874015748031497,
          "duration": 0.07692300000000074
        },
        {
          "name": "C2",
          "midi": 36,
          "time": 49.153797000000075,
          "velocity": 0.7874015748031497,
          "duration": 0.07692300000000074
        },
        {
          "name": "B1",
          "midi": 35,
          "time": 49.153797000000075,
          "velocity": 0.7874015748031497,
          "duration": 0.07692300000000074
        },
        {
          "name": "A#2",
          "midi": 46,
          "time": 49.153797000000075,
          "velocity": 0.7874015748031497,
          "duration": 0.07692300000000074
        },
        {
          "name": "D2",
          "midi": 38,
          "time": 49.38456600000008,
          "velocity": 0.7874015748031497,
          "duration": 0.07692300000000074
        },
        {
          "name": "E2",
          "midi": 40,
          "time": 49.38456600000008,
          "velocity": 0.7874015748031497,
          "duration": 0.07692300000000074
        },
        {
          "name": "A3",
          "midi": 57,
          "time": 49.38456600000008,
          "velocity": 0.7874015748031497,
          "duration": 0.07692300000000074
        },
        {
          "name": "A#2",
          "midi": 46,
          "time": 49.38456600000008,
          "velocity": 0.7874015748031497,
          "duration": 0.07692300000000074
        },
        {
          "name": "A#2",
          "midi": 46,
          "time": 49.61533500000008,
          "velocity": 0.7874015748031497,
          "duration": 0.07692300000000074
        },
        {
          "name": "C2",
          "midi": 36,
          "time": 49.73071950000008,
          "velocity": 0.7874015748031497,
          "duration": 0.07692300000000074
        },
        {
          "name": "B1",
          "midi": 35,
          "time": 49.73071950000008,
          "velocity": 0.7874015748031497,
          "duration": 0.07692300000000074
        },
        {
          "name": "C2",
          "midi": 36,
          "time": 49.846104000000075,
          "velocity": 0.7874015748031497,
          "duration": 0.07692300000000074
        },
        {
          "name": "B1",
          "midi": 35,
          "time": 49.846104000000075,
          "velocity": 0.7874015748031497,
          "duration": 0.07692300000000074
        },
        {
          "name": "A3",
          "midi": 57,
          "time": 49.846104000000075,
          "velocity": 0.7874015748031497,
          "duration": 0.07692300000000074
        },
        {
          "name": "A#2",
          "midi": 46,
          "time": 49.846104000000075,
          "velocity": 0.7874015748031497,
          "duration": 0.07692300000000074
        },
        {
          "name": "C2",
          "midi": 36,
          "time": 50.07687300000008,
          "velocity": 0.7874015748031497,
          "duration": 0.07692300000000074
        },
        {
          "name": "B1",
          "midi": 35,
          "time": 50.07687300000008,
          "velocity": 0.7874015748031497,
          "duration": 0.07692300000000074
        },
        {
          "name": "A#2",
          "midi": 46,
          "time": 50.07687300000008,
          "velocity": 0.7874015748031497,
          "duration": 0.07692300000000074
        },
        {
          "name": "D2",
          "midi": 38,
          "time": 50.30764200000008,
          "velocity": 0.7874015748031497,
          "duration": 0.07692300000000074
        },
        {
          "name": "E2",
          "midi": 40,
          "time": 50.30764200000008,
          "velocity": 0.7874015748031497,
          "duration": 0.07692300000000074
        },
        {
          "name": "A3",
          "midi": 57,
          "time": 50.30764200000008,
          "velocity": 0.7874015748031497,
          "duration": 0.07692300000000074
        },
        {
          "name": "A#2",
          "midi": 46,
          "time": 50.30764200000008,
          "velocity": 0.7874015748031497,
          "duration": 0.07692300000000074
        },
        {
          "name": "A#2",
          "midi": 46,
          "time": 50.53841100000008,
          "velocity": 0.7874015748031497,
          "duration": 0.07692300000000074
        },
        {
          "name": "C2",
          "midi": 36,
          "time": 50.65379550000008,
          "velocity": 0.7874015748031497,
          "duration": 0.07692300000000074
        },
        {
          "name": "B1",
          "midi": 35,
          "time": 50.65379550000008,
          "velocity": 0.7874015748031497,
          "duration": 0.07692300000000074
        },
        {
          "name": "E2",
          "midi": 40,
          "time": 50.65379550000008,
          "velocity": 0.7874015748031497,
          "duration": 0.07692300000000074
        },
        {
          "name": "A#2",
          "midi": 46,
          "time": 50.76918000000008,
          "velocity": 0.7874015748031497,
          "duration": 0.07692300000000074
        },
        {
          "name": "G#2",
          "midi": 44,
          "time": 50.884564500000074,
          "velocity": 0.7874015748031497,
          "duration": 0.07692300000000074
        },
        {
          "name": "C2",
          "midi": 36,
          "time": 50.99994900000007,
          "velocity": 0.7874015748031497,
          "duration": 0.07692300000000074
        },
        {
          "name": "B1",
          "midi": 35,
          "time": 50.99994900000007,
          "velocity": 0.7874015748031497,
          "duration": 0.07692300000000074
        },
        {
          "name": "A#2",
          "midi": 46,
          "time": 50.99994900000007,
          "velocity": 0.7874015748031497,
          "duration": 0.07692300000000074
        },
        {
          "name": "D2",
          "midi": 38,
          "time": 51.230718000000074,
          "velocity": 0.7874015748031497,
          "duration": 0.07692300000000074
        },
        {
          "name": "E2",
          "midi": 40,
          "time": 51.230718000000074,
          "velocity": 0.7874015748031497,
          "duration": 0.07692300000000074
        },
        {
          "name": "A3",
          "midi": 57,
          "time": 51.230718000000074,
          "velocity": 0.7874015748031497,
          "duration": 0.07692300000000074
        },
        {
          "name": "A#2",
          "midi": 46,
          "time": 51.230718000000074,
          "velocity": 0.7874015748031497,
          "duration": 0.07692300000000074
        },
        {
          "name": "A#2",
          "midi": 46,
          "time": 51.461487000000076,
          "velocity": 0.7874015748031497,
          "duration": 0.07692300000000074
        },
        {
          "name": "A3",
          "midi": 57,
          "time": 51.461487000000076,
          "velocity": 0.7874015748031497,
          "duration": 0.07692300000000074
        },
        {
          "name": "C2",
          "midi": 36,
          "time": 51.576871500000074,
          "velocity": 0.7874015748031497,
          "duration": 0.07692300000000074
        },
        {
          "name": "B1",
          "midi": 35,
          "time": 51.576871500000074,
          "velocity": 0.7874015748031497,
          "duration": 0.07692300000000074
        },
        {
          "name": "C2",
          "midi": 36,
          "time": 51.69225600000007,
          "velocity": 0.7874015748031497,
          "duration": 0.07692300000000074
        },
        {
          "name": "B1",
          "midi": 35,
          "time": 51.69225600000007,
          "velocity": 0.7874015748031497,
          "duration": 0.07692300000000074
        },
        {
          "name": "A3",
          "midi": 57,
          "time": 51.69225600000007,
          "velocity": 0.7874015748031497,
          "duration": 0.07692300000000074
        },
        {
          "name": "A#2",
          "midi": 46,
          "time": 51.69225600000007,
          "velocity": 0.7874015748031497,
          "duration": 0.07692300000000074
        },
        {
          "name": "C2",
          "midi": 36,
          "time": 51.923025000000074,
          "velocity": 0.7874015748031497,
          "duration": 0.07692300000000074
        },
        {
          "name": "B1",
          "midi": 35,
          "time": 51.923025000000074,
          "velocity": 0.7874015748031497,
          "duration": 0.07692300000000074
        },
        {
          "name": "A#2",
          "midi": 46,
          "time": 51.923025000000074,
          "velocity": 0.7874015748031497,
          "duration": 0.07692300000000074
        },
        {
          "name": "D2",
          "midi": 38,
          "time": 52.153794000000076,
          "velocity": 0.7874015748031497,
          "duration": 0.07692300000000074
        },
        {
          "name": "E2",
          "midi": 40,
          "time": 52.153794000000076,
          "velocity": 0.7874015748031497,
          "duration": 0.07692300000000074
        },
        {
          "name": "A3",
          "midi": 57,
          "time": 52.153794000000076,
          "velocity": 0.7874015748031497,
          "duration": 0.07692300000000074
        },
        {
          "name": "A#2",
          "midi": 46,
          "time": 52.153794000000076,
          "velocity": 0.7874015748031497,
          "duration": 0.07692300000000074
        },
        {
          "name": "A#2",
          "midi": 46,
          "time": 52.38456300000008,
          "velocity": 0.7874015748031497,
          "duration": 0.07692300000000074
        },
        {
          "name": "C2",
          "midi": 36,
          "time": 52.499947500000076,
          "velocity": 0.7874015748031497,
          "duration": 0.07692300000000074
        },
        {
          "name": "B1",
          "midi": 35,
          "time": 52.499947500000076,
          "velocity": 0.7874015748031497,
          "duration": 0.07692300000000074
        },
        {
          "name": "E2",
          "midi": 40,
          "time": 52.499947500000076,
          "velocity": 0.7874015748031497,
          "duration": 0.07692300000000074
        },
        {
          "name": "A#2",
          "midi": 46,
          "time": 52.61533200000007,
          "velocity": 0.7874015748031497,
          "duration": 0.07692300000000074
        },
        {
          "name": "G#2",
          "midi": 44,
          "time": 52.73071650000007,
          "velocity": 0.7874015748031497,
          "duration": 0.07692300000000074
        },
        {
          "name": "C2",
          "midi": 36,
          "time": 52.84610100000007,
          "velocity": 0.7874015748031497,
          "duration": 0.07692300000000074
        },
        {
          "name": "B1",
          "midi": 35,
          "time": 52.84610100000007,
          "velocity": 0.7874015748031497,
          "duration": 0.07692300000000074
        },
        {
          "name": "A#2",
          "midi": 46,
          "time": 52.84610100000007,
          "velocity": 0.7874015748031497,
          "duration": 0.07692300000000074
        },
        {
          "name": "D2",
          "midi": 38,
          "time": 53.07687000000007,
          "velocity": 0.7874015748031497,
          "duration": 0.07692300000000074
        },
        {
          "name": "E2",
          "midi": 40,
          "time": 53.07687000000007,
          "velocity": 0.7874015748031497,
          "duration": 0.07692300000000074
        },
        {
          "name": "A3",
          "midi": 57,
          "time": 53.07687000000007,
          "velocity": 0.7874015748031497,
          "duration": 0.07692300000000074
        },
        {
          "name": "A#2",
          "midi": 46,
          "time": 53.07687000000007,
          "velocity": 0.7874015748031497,
          "duration": 0.07692300000000074
        },
        {
          "name": "A#2",
          "midi": 46,
          "time": 53.30763900000007,
          "velocity": 0.7874015748031497,
          "duration": 0.07692300000000074
        },
        {
          "name": "C2",
          "midi": 36,
          "time": 53.42302350000007,
          "velocity": 0.7874015748031497,
          "duration": 0.07692300000000074
        },
        {
          "name": "B1",
          "midi": 35,
          "time": 53.42302350000007,
          "velocity": 0.7874015748031497,
          "duration": 0.07692300000000074
        },
        {
          "name": "C2",
          "midi": 36,
          "time": 53.53840800000007,
          "velocity": 0.7874015748031497,
          "duration": 0.07692300000000074
        },
        {
          "name": "B1",
          "midi": 35,
          "time": 53.53840800000007,
          "velocity": 0.7874015748031497,
          "duration": 0.07692300000000074
        },
        {
          "name": "A3",
          "midi": 57,
          "time": 53.53840800000007,
          "velocity": 0.7874015748031497,
          "duration": 0.07692300000000074
        },
        {
          "name": "A#2",
          "midi": 46,
          "time": 53.53840800000007,
          "velocity": 0.7874015748031497,
          "duration": 0.07692300000000074
        },
        {
          "name": "C2",
          "midi": 36,
          "time": 53.76917700000007,
          "velocity": 0.7874015748031497,
          "duration": 0.07692300000000074
        },
        {
          "name": "B1",
          "midi": 35,
          "time": 53.76917700000007,
          "velocity": 0.7874015748031497,
          "duration": 0.07692300000000074
        },
        {
          "name": "A#2",
          "midi": 46,
          "time": 53.76917700000007,
          "velocity": 0.7874015748031497,
          "duration": 0.07692300000000074
        },
        {
          "name": "D2",
          "midi": 38,
          "time": 53.99994600000007,
          "velocity": 0.7874015748031497,
          "duration": 0.07692300000000074
        },
        {
          "name": "E2",
          "midi": 40,
          "time": 53.99994600000007,
          "velocity": 0.7874015748031497,
          "duration": 0.07692300000000074
        },
        {
          "name": "A3",
          "midi": 57,
          "time": 53.99994600000007,
          "velocity": 0.7874015748031497,
          "duration": 0.07692300000000074
        },
        {
          "name": "A#2",
          "midi": 46,
          "time": 53.99994600000007,
          "velocity": 0.7874015748031497,
          "duration": 0.07692300000000074
        },
        {
          "name": "A#2",
          "midi": 46,
          "time": 54.230715000000075,
          "velocity": 0.7874015748031497,
          "duration": 0.07692300000000074
        },
        {
          "name": "C2",
          "midi": 36,
          "time": 54.34609950000007,
          "velocity": 0.7874015748031497,
          "duration": 0.07692300000000074
        },
        {
          "name": "B1",
          "midi": 35,
          "time": 54.34609950000007,
          "velocity": 0.7874015748031497,
          "duration": 0.07692300000000074
        },
        {
          "name": "E2",
          "midi": 40,
          "time": 54.34609950000007,
          "velocity": 0.7874015748031497,
          "duration": 0.07692300000000074
        },
        {
          "name": "A#2",
          "midi": 46,
          "time": 54.46148400000007,
          "velocity": 0.7874015748031497,
          "duration": 0.07692300000000074
        },
        {
          "name": "G#2",
          "midi": 44,
          "time": 54.57686850000007,
          "velocity": 0.7874015748031497,
          "duration": 0.07692300000000074
        },
        {
          "name": "C2",
          "midi": 36,
          "time": 54.692253000000065,
          "velocity": 0.7874015748031497,
          "duration": 0.07692300000000074
        },
        {
          "name": "B1",
          "midi": 35,
          "time": 54.692253000000065,
          "velocity": 0.7874015748031497,
          "duration": 0.07692300000000074
        },
        {
          "name": "A#2",
          "midi": 46,
          "time": 54.692253000000065,
          "velocity": 0.7874015748031497,
          "duration": 0.07692300000000074
        },
        {
          "name": "D2",
          "midi": 38,
          "time": 54.92302200000007,
          "velocity": 0.7874015748031497,
          "duration": 0.07692300000000074
        },
        {
          "name": "E2",
          "midi": 40,
          "time": 54.92302200000007,
          "velocity": 0.7874015748031497,
          "duration": 0.07692300000000074
        },
        {
          "name": "A3",
          "midi": 57,
          "time": 54.92302200000007,
          "velocity": 0.7874015748031497,
          "duration": 0.07692300000000074
        },
        {
          "name": "A#2",
          "midi": 46,
          "time": 54.92302200000007,
          "velocity": 0.7874015748031497,
          "duration": 0.07692300000000074
        },
        {
          "name": "A#2",
          "midi": 46,
          "time": 55.15379100000007,
          "velocity": 0.7874015748031497,
          "duration": 0.07692300000000074
        },
        {
          "name": "C2",
          "midi": 36,
          "time": 55.26917550000007,
          "velocity": 0.7874015748031497,
          "duration": 0.07692300000000074
        },
        {
          "name": "B1",
          "midi": 35,
          "time": 55.26917550000007,
          "velocity": 0.7874015748031497,
          "duration": 0.07692300000000074
        },
        {
          "name": "C2",
          "midi": 36,
          "time": 55.384560000000064,
          "velocity": 0.7874015748031497,
          "duration": 0.07692300000000074
        },
        {
          "name": "B1",
          "midi": 35,
          "time": 55.384560000000064,
          "velocity": 0.7874015748031497,
          "duration": 0.07692300000000074
        },
        {
          "name": "A3",
          "midi": 57,
          "time": 55.384560000000064,
          "velocity": 0.7874015748031497,
          "duration": 0.07692300000000074
        },
        {
          "name": "A#2",
          "midi": 46,
          "time": 55.384560000000064,
          "velocity": 0.7874015748031497,
          "duration": 0.07692300000000074
        },
        {
          "name": "C2",
          "midi": 36,
          "time": 55.61532900000007,
          "velocity": 0.7874015748031497,
          "duration": 0.07692300000000074
        },
        {
          "name": "B1",
          "midi": 35,
          "time": 55.61532900000007,
          "velocity": 0.7874015748031497,
          "duration": 0.07692300000000074
        },
        {
          "name": "A#2",
          "midi": 46,
          "time": 55.61532900000007,
          "velocity": 0.7874015748031497,
          "duration": 0.07692300000000074
        },
        {
          "name": "D2",
          "midi": 38,
          "time": 55.84609800000007,
          "velocity": 0.7874015748031497,
          "duration": 0.07692300000000074
        },
        {
          "name": "E2",
          "midi": 40,
          "time": 55.84609800000007,
          "velocity": 0.7874015748031497,
          "duration": 0.07692300000000074
        },
        {
          "name": "A3",
          "midi": 57,
          "time": 55.84609800000007,
          "velocity": 0.7874015748031497,
          "duration": 0.07692300000000074
        },
        {
          "name": "A#2",
          "midi": 46,
          "time": 55.84609800000007,
          "velocity": 0.7874015748031497,
          "duration": 0.07692300000000074
        },
        {
          "name": "A#2",
          "midi": 46,
          "time": 56.07686700000007,
          "velocity": 0.7874015748031497,
          "duration": 0.07692300000000074
        },
        {
          "name": "C2",
          "midi": 36,
          "time": 56.19225150000007,
          "velocity": 0.7874015748031497,
          "duration": 0.07692300000000074
        },
        {
          "name": "B1",
          "midi": 35,
          "time": 56.19225150000007,
          "velocity": 0.7874015748031497,
          "duration": 0.07692300000000074
        },
        {
          "name": "E2",
          "midi": 40,
          "time": 56.19225150000007,
          "velocity": 0.7874015748031497,
          "duration": 0.07692300000000074
        },
        {
          "name": "A#2",
          "midi": 46,
          "time": 56.307636000000066,
          "velocity": 0.7874015748031497,
          "duration": 0.07692300000000074
        },
        {
          "name": "G#2",
          "midi": 44,
          "time": 56.423020500000064,
          "velocity": 0.7874015748031497,
          "duration": 0.07692300000000074
        },
        {
          "name": "C2",
          "midi": 36,
          "time": 56.53840500000006,
          "velocity": 0.7874015748031497,
          "duration": 0.07692300000000074
        },
        {
          "name": "B1",
          "midi": 35,
          "time": 56.53840500000006,
          "velocity": 0.7874015748031497,
          "duration": 0.07692300000000074
        },
        {
          "name": "A#2",
          "midi": 46,
          "time": 56.53840500000006,
          "velocity": 0.7874015748031497,
          "duration": 0.07692300000000074
        },
        {
          "name": "D2",
          "midi": 38,
          "time": 56.76917400000006,
          "velocity": 0.7874015748031497,
          "duration": 0.07692300000000074
        },
        {
          "name": "E2",
          "midi": 40,
          "time": 56.76917400000006,
          "velocity": 0.7874015748031497,
          "duration": 0.07692300000000074
        },
        {
          "name": "A3",
          "midi": 57,
          "time": 56.76917400000006,
          "velocity": 0.7874015748031497,
          "duration": 0.07692300000000074
        },
        {
          "name": "A#2",
          "midi": 46,
          "time": 56.76917400000006,
          "velocity": 0.7874015748031497,
          "duration": 0.07692300000000074
        },
        {
          "name": "A#2",
          "midi": 46,
          "time": 56.999943000000066,
          "velocity": 0.7874015748031497,
          "duration": 0.07692300000000074
        },
        {
          "name": "C2",
          "midi": 36,
          "time": 57.11532750000006,
          "velocity": 0.7874015748031497,
          "duration": 0.07692300000000074
        },
        {
          "name": "B1",
          "midi": 35,
          "time": 57.11532750000006,
          "velocity": 0.7874015748031497,
          "duration": 0.07692300000000074
        },
        {
          "name": "C2",
          "midi": 36,
          "time": 57.23071200000006,
          "velocity": 0.7874015748031497,
          "duration": 0.07692300000000074
        },
        {
          "name": "B1",
          "midi": 35,
          "time": 57.23071200000006,
          "velocity": 0.7874015748031497,
          "duration": 0.07692300000000074
        },
        {
          "name": "A3",
          "midi": 57,
          "time": 57.23071200000006,
          "velocity": 0.7874015748031497,
          "duration": 0.07692300000000074
        },
        {
          "name": "A#2",
          "midi": 46,
          "time": 57.23071200000006,
          "velocity": 0.7874015748031497,
          "duration": 0.07692300000000074
        },
        {
          "name": "C2",
          "midi": 36,
          "time": 57.46148100000006,
          "velocity": 0.7874015748031497,
          "duration": 0.07692300000000074
        },
        {
          "name": "B1",
          "midi": 35,
          "time": 57.46148100000006,
          "velocity": 0.7874015748031497,
          "duration": 0.07692300000000074
        },
        {
          "name": "A#2",
          "midi": 46,
          "time": 57.46148100000006,
          "velocity": 0.7874015748031497,
          "duration": 0.07692300000000074
        },
        {
          "name": "A3",
          "midi": 57,
          "time": 57.692250000000065,
          "velocity": 0.7874015748031497,
          "duration": 0.07692299999999364
        },
        {
          "name": "A#2",
          "midi": 46,
          "time": 57.692250000000065,
          "velocity": 0.7874015748031497,
          "duration": 0.07692299999999364
        },
        {
          "name": "E2",
          "midi": 40,
          "time": 57.692250000000065,
          "velocity": 0.7874015748031497,
          "duration": 0.03846149999999682
        },
        {
          "name": "D2",
          "midi": 38,
          "time": 57.692250000000065,
          "velocity": 0.7874015748031497,
          "duration": 0.03846149999999682
        },
        {
          "name": "C2",
          "midi": 36,
          "time": 57.692250000000065,
          "velocity": 0.7874015748031497,
          "duration": 0.07692299999999364
        },
        {
          "name": "A#2",
          "midi": 46,
          "time": 57.92301900000006,
          "velocity": 0.7874015748031497,
          "duration": 0.07692300000000074
        },
        {
          "name": "E2",
          "midi": 40,
          "time": 58.03840350000006,
          "velocity": 0.7874015748031497,
          "duration": 0.03846149999999682
        },
        {
          "name": "E2",
          "midi": 40,
          "time": 58.09609575000005,
          "velocity": 0.7874015748031497,
          "duration": 0.03846149999999682
        },
        {
          "name": "A#2",
          "midi": 46,
          "time": 58.15378800000005,
          "velocity": 0.7874015748031497,
          "duration": 0.07692300000000074
        },
        {
          "name": "D2",
          "midi": 38,
          "time": 58.15378800000005,
          "velocity": 0.7874015748031497,
          "duration": 0.07692300000000074
        },
        {
          "name": "E2",
          "midi": 40,
          "time": 58.15378800000005,
          "velocity": 0.7874015748031497,
          "duration": 0.07692300000000074
        },
        {
          "name": "C2",
          "midi": 36,
          "time": 58.15378800000005,
          "velocity": 0.7874015748031497,
          "duration": 0.07692300000000074
        },
        {
          "name": "G#2",
          "midi": 44,
          "time": 58.269172500000046,
          "velocity": 0.7874015748031497,
          "duration": 0.07692299999999364
        },
        {
          "name": "E2",
          "midi": 40,
          "time": 58.269172500000046,
          "velocity": 0.7874015748031497,
          "duration": 0.03846149999999682
        },
        {
          "name": "D2",
          "midi": 38,
          "time": 58.269172500000046,
          "velocity": 0.7874015748031497,
          "duration": 0.03846149999999682
        },
        {
          "name": "C2",
          "midi": 36,
          "time": 58.269172500000046,
          "velocity": 0.7874015748031497,
          "duration": 0.07692299999999364
        },
        {
          "name": "A#2",
          "midi": 46,
          "time": 58.38455700000004,
          "velocity": 0.7874015748031497,
          "duration": 0.07692300000000074
        },
        {
          "name": "E2",
          "midi": 40,
          "time": 58.499941500000034,
          "velocity": 0.7874015748031497,
          "duration": 0.03846149999999682
        },
        {
          "name": "D2",
          "midi": 38,
          "time": 58.499941500000034,
          "velocity": 0.7874015748031497,
          "duration": 0.03846149999999682
        },
        {
          "name": "C2",
          "midi": 36,
          "time": 58.499941500000034,
          "velocity": 0.7874015748031497,
          "duration": 0.07692299999999364
        },
        {
          "name": "A#2",
          "midi": 46,
          "time": 58.615326000000024,
          "velocity": 0.7874015748031497,
          "duration": 0.07692300000000074
        },
        {
          "name": "E2",
          "midi": 40,
          "time": 58.73071050000002,
          "velocity": 0.7874015748031497,
          "duration": 0.03846149999999682
        },
        {
          "name": "D2",
          "midi": 38,
          "time": 58.73071050000002,
          "velocity": 0.7874015748031497,
          "duration": 0.03846149999999682
        },
        {
          "name": "C2",
          "midi": 36,
          "time": 58.73071050000002,
          "velocity": 0.7874015748031497,
          "duration": 0.07692299999999364
        },
        {
          "name": "A#2",
          "midi": 46,
          "time": 58.84609500000001,
          "velocity": 0.7874015748031497,
          "duration": 0.07692300000000074
        },
        {
          "name": "E2",
          "midi": 40,
          "time": 58.96147950000001,
          "velocity": 0.7874015748031497,
          "duration": 0.03846149999999682
        },
        {
          "name": "D2",
          "midi": 38,
          "time": 58.96147950000001,
          "velocity": 0.7874015748031497,
          "duration": 0.03846149999999682
        },
        {
          "name": "C2",
          "midi": 36,
          "time": 58.96147950000001,
          "velocity": 0.7874015748031497,
          "duration": 0.07692299999999364
        },
        {
          "name": "C2",
          "midi": 36,
          "time": 59.076864,
          "velocity": 0.7874015748031497,
          "duration": 0.07692300000000074
        },
        {
          "name": "B1",
          "midi": 35,
          "time": 59.076864,
          "velocity": 0.7874015748031497,
          "duration": 0.07692300000000074
        },
        {
          "name": "A3",
          "midi": 57,
          "time": 59.076864,
          "velocity": 0.7874015748031497,
          "duration": 0.07692300000000074
        },
        {
          "name": "A#2",
          "midi": 46,
          "time": 59.076864,
          "velocity": 0.7874015748031497,
          "duration": 0.07692300000000074
        },
        {
          "name": "C2",
          "midi": 36,
          "time": 59.307633,
          "velocity": 0.7874015748031497,
          "duration": 0.07692300000000074
        },
        {
          "name": "B1",
          "midi": 35,
          "time": 59.307633,
          "velocity": 0.7874015748031497,
          "duration": 0.07692300000000074
        },
        {
          "name": "A#2",
          "midi": 46,
          "time": 59.307633,
          "velocity": 0.7874015748031497,
          "duration": 0.07692300000000074
        },
        {
          "name": "D2",
          "midi": 38,
          "time": 59.538402000000005,
          "velocity": 0.7874015748031497,
          "duration": 0.07692300000000074
        },
        {
          "name": "E2",
          "midi": 40,
          "time": 59.538402000000005,
          "velocity": 0.7874015748031497,
          "duration": 0.07692300000000074
        },
        {
          "name": "A3",
          "midi": 57,
          "time": 59.538402000000005,
          "velocity": 0.7874015748031497,
          "duration": 0.07692300000000074
        },
        {
          "name": "A#2",
          "midi": 46,
          "time": 59.538402000000005,
          "velocity": 0.7874015748031497,
          "duration": 0.07692300000000074
        },
        {
          "name": "A#2",
          "midi": 46,
          "time": 59.76917100000001,
          "velocity": 0.7874015748031497,
          "duration": 0.07692300000000074
        },
        {
          "name": "C2",
          "midi": 36,
          "time": 59.884555500000005,
          "velocity": 0.7874015748031497,
          "duration": 0.07692300000000074
        },
        {
          "name": "B1",
          "midi": 35,
          "time": 59.884555500000005,
          "velocity": 0.7874015748031497,
          "duration": 0.07692300000000074
        },
        {
          "name": "E2",
          "midi": 40,
          "time": 59.884555500000005,
          "velocity": 0.7874015748031497,
          "duration": 0.07692300000000074
        },
        {
          "name": "A#2",
          "midi": 46,
          "time": 59.99994,
          "velocity": 0.7874015748031497,
          "duration": 0.07692300000000074
        },
        {
          "name": "G#2",
          "midi": 44,
          "time": 60.1153245,
          "velocity": 0.7874015748031497,
          "duration": 0.07692300000000074
        },
        {
          "name": "C2",
          "midi": 36,
          "time": 60.230709,
          "velocity": 0.7874015748031497,
          "duration": 0.07692300000000074
        },
        {
          "name": "B1",
          "midi": 35,
          "time": 60.230709,
          "velocity": 0.7874015748031497,
          "duration": 0.07692300000000074
        },
        {
          "name": "A#2",
          "midi": 46,
          "time": 60.230709,
          "velocity": 0.7874015748031497,
          "duration": 0.07692300000000074
        },
        {
          "name": "D2",
          "midi": 38,
          "time": 60.461478,
          "velocity": 0.7874015748031497,
          "duration": 0.07692300000000074
        },
        {
          "name": "E2",
          "midi": 40,
          "time": 60.461478,
          "velocity": 0.7874015748031497,
          "duration": 0.07692300000000074
        },
        {
          "name": "A3",
          "midi": 57,
          "time": 60.461478,
          "velocity": 0.7874015748031497,
          "duration": 0.07692300000000074
        },
        {
          "name": "A#2",
          "midi": 46,
          "time": 60.461478,
          "velocity": 0.7874015748031497,
          "duration": 0.07692300000000074
        },
        {
          "name": "A#2",
          "midi": 46,
          "time": 60.692247,
          "velocity": 0.7874015748031497,
          "duration": 0.07692300000000074
        },
        {
          "name": "C2",
          "midi": 36,
          "time": 60.8076315,
          "velocity": 0.7874015748031497,
          "duration": 0.07692300000000074
        },
        {
          "name": "B1",
          "midi": 35,
          "time": 60.8076315,
          "velocity": 0.7874015748031497,
          "duration": 0.07692300000000074
        },
        {
          "name": "C2",
          "midi": 36,
          "time": 60.923016,
          "velocity": 0.7874015748031497,
          "duration": 0.07692300000000074
        },
        {
          "name": "B1",
          "midi": 35,
          "time": 60.923016,
          "velocity": 0.7874015748031497,
          "duration": 0.07692300000000074
        },
        {
          "name": "A3",
          "midi": 57,
          "time": 60.923016,
          "velocity": 0.7874015748031497,
          "duration": 0.07692300000000074
        },
        {
          "name": "A#2",
          "midi": 46,
          "time": 60.923016,
          "velocity": 0.7874015748031497,
          "duration": 0.07692300000000074
        },
        {
          "name": "C2",
          "midi": 36,
          "time": 61.153785,
          "velocity": 0.7874015748031497,
          "duration": 0.07692300000000074
        },
        {
          "name": "B1",
          "midi": 35,
          "time": 61.153785,
          "velocity": 0.7874015748031497,
          "duration": 0.07692300000000074
        },
        {
          "name": "A#2",
          "midi": 46,
          "time": 61.153785,
          "velocity": 0.7874015748031497,
          "duration": 0.07692300000000074
        },
        {
          "name": "D2",
          "midi": 38,
          "time": 61.384554,
          "velocity": 0.7874015748031497,
          "duration": 0.07692300000000074
        },
        {
          "name": "E2",
          "midi": 40,
          "time": 61.384554,
          "velocity": 0.7874015748031497,
          "duration": 0.07692300000000074
        },
        {
          "name": "A3",
          "midi": 57,
          "time": 61.384554,
          "velocity": 0.7874015748031497,
          "duration": 0.07692300000000074
        },
        {
          "name": "A#2",
          "midi": 46,
          "time": 61.384554,
          "velocity": 0.7874015748031497,
          "duration": 0.07692300000000074
        },
        {
          "name": "A#2",
          "midi": 46,
          "time": 61.615323000000004,
          "velocity": 0.7874015748031497,
          "duration": 0.07692300000000074
        },
        {
          "name": "C2",
          "midi": 36,
          "time": 61.7307075,
          "velocity": 0.7874015748031497,
          "duration": 0.07692300000000074
        },
        {
          "name": "B1",
          "midi": 35,
          "time": 61.7307075,
          "velocity": 0.7874015748031497,
          "duration": 0.07692300000000074
        },
        {
          "name": "E2",
          "midi": 40,
          "time": 61.7307075,
          "velocity": 0.7874015748031497,
          "duration": 0.07692300000000074
        },
        {
          "name": "A#2",
          "midi": 46,
          "time": 61.846092,
          "velocity": 0.7874015748031497,
          "duration": 0.07692300000000074
        },
        {
          "name": "G#2",
          "midi": 44,
          "time": 61.961476499999996,
          "velocity": 0.7874015748031497,
          "duration": 0.07692300000000074
        },
        {
          "name": "C2",
          "midi": 36,
          "time": 62.076860999999994,
          "velocity": 0.7874015748031497,
          "duration": 0.07692300000000074
        },
        {
          "name": "B1",
          "midi": 35,
          "time": 62.076860999999994,
          "velocity": 0.7874015748031497,
          "duration": 0.07692300000000074
        },
        {
          "name": "A#2",
          "midi": 46,
          "time": 62.076860999999994,
          "velocity": 0.7874015748031497,
          "duration": 0.07692300000000074
        },
        {
          "name": "D2",
          "midi": 38,
          "time": 62.307629999999996,
          "velocity": 0.7874015748031497,
          "duration": 0.07692300000000074
        },
        {
          "name": "E2",
          "midi": 40,
          "time": 62.307629999999996,
          "velocity": 0.7874015748031497,
          "duration": 0.07692300000000074
        },
        {
          "name": "A3",
          "midi": 57,
          "time": 62.307629999999996,
          "velocity": 0.7874015748031497,
          "duration": 0.07692300000000074
        },
        {
          "name": "A#2",
          "midi": 46,
          "time": 62.307629999999996,
          "velocity": 0.7874015748031497,
          "duration": 0.07692300000000074
        },
        {
          "name": "A#2",
          "midi": 46,
          "time": 62.538399,
          "velocity": 0.7874015748031497,
          "duration": 0.07692300000000074
        },
        {
          "name": "C2",
          "midi": 36,
          "time": 62.653783499999996,
          "velocity": 0.7874015748031497,
          "duration": 0.07692300000000074
        },
        {
          "name": "B1",
          "midi": 35,
          "time": 62.653783499999996,
          "velocity": 0.7874015748031497,
          "duration": 0.07692300000000074
        },
        {
          "name": "C2",
          "midi": 36,
          "time": 62.76916799999999,
          "velocity": 0.7874015748031497,
          "duration": 0.07692300000000074
        },
        {
          "name": "B1",
          "midi": 35,
          "time": 62.76916799999999,
          "velocity": 0.7874015748031497,
          "duration": 0.07692300000000074
        },
        {
          "name": "A3",
          "midi": 57,
          "time": 62.76916799999999,
          "velocity": 0.7874015748031497,
          "duration": 0.07692300000000074
        },
        {
          "name": "A#2",
          "midi": 46,
          "time": 62.76916799999999,
          "velocity": 0.7874015748031497,
          "duration": 0.07692300000000074
        },
        {
          "name": "C2",
          "midi": 36,
          "time": 62.999936999999996,
          "velocity": 0.7874015748031497,
          "duration": 0.07692300000000074
        },
        {
          "name": "B1",
          "midi": 35,
          "time": 62.999936999999996,
          "velocity": 0.7874015748031497,
          "duration": 0.07692300000000074
        },
        {
          "name": "A#2",
          "midi": 46,
          "time": 62.999936999999996,
          "velocity": 0.7874015748031497,
          "duration": 0.07692300000000074
        },
        {
          "name": "D2",
          "midi": 38,
          "time": 63.230706,
          "velocity": 0.7874015748031497,
          "duration": 0.07692300000000074
        },
        {
          "name": "E2",
          "midi": 40,
          "time": 63.230706,
          "velocity": 0.7874015748031497,
          "duration": 0.07692300000000074
        },
        {
          "name": "A3",
          "midi": 57,
          "time": 63.230706,
          "velocity": 0.7874015748031497,
          "duration": 0.07692300000000074
        },
        {
          "name": "A#2",
          "midi": 46,
          "time": 63.230706,
          "velocity": 0.7874015748031497,
          "duration": 0.07692300000000074
        },
        {
          "name": "A#2",
          "midi": 46,
          "time": 63.461475,
          "velocity": 0.7874015748031497,
          "duration": 0.07692300000000074
        },
        {
          "name": "C2",
          "midi": 36,
          "time": 63.5768595,
          "velocity": 0.7874015748031497,
          "duration": 0.07692300000000074
        },
        {
          "name": "B1",
          "midi": 35,
          "time": 63.5768595,
          "velocity": 0.7874015748031497,
          "duration": 0.07692300000000074
        },
        {
          "name": "E2",
          "midi": 40,
          "time": 63.5768595,
          "velocity": 0.7874015748031497,
          "duration": 0.07692300000000074
        },
        {
          "name": "A#2",
          "midi": 46,
          "time": 63.692243999999995,
          "velocity": 0.7874015748031497,
          "duration": 0.07692300000000074
        },
        {
          "name": "G#2",
          "midi": 44,
          "time": 63.80762849999999,
          "velocity": 0.7874015748031497,
          "duration": 0.07692300000000074
        },
        {
          "name": "C2",
          "midi": 36,
          "time": 63.92301299999999,
          "velocity": 0.7874015748031497,
          "duration": 0.07692300000000074
        },
        {
          "name": "B1",
          "midi": 35,
          "time": 63.92301299999999,
          "velocity": 0.7874015748031497,
          "duration": 0.07692300000000074
        },
        {
          "name": "A#2",
          "midi": 46,
          "time": 63.92301299999999,
          "velocity": 0.7874015748031497,
          "duration": 0.07692300000000074
        },
        {
          "name": "D2",
          "midi": 38,
          "time": 64.15378199999999,
          "velocity": 0.7874015748031497,
          "duration": 0.07692299999999364
        },
        {
          "name": "E2",
          "midi": 40,
          "time": 64.15378199999999,
          "velocity": 0.7874015748031497,
          "duration": 0.07692299999999364
        },
        {
          "name": "A3",
          "midi": 57,
          "time": 64.15378199999999,
          "velocity": 0.7874015748031497,
          "duration": 0.07692299999999364
        },
        {
          "name": "A#2",
          "midi": 46,
          "time": 64.15378199999999,
          "velocity": 0.7874015748031497,
          "duration": 0.07692299999999364
        },
        {
          "name": "A#2",
          "midi": 46,
          "time": 64.38455099999999,
          "velocity": 0.7874015748031497,
          "duration": 0.07692299999999364
        },
        {
          "name": "C2",
          "midi": 36,
          "time": 64.49993549999998,
          "velocity": 0.7874015748031497,
          "duration": 0.07692299999999364
        },
        {
          "name": "B1",
          "midi": 35,
          "time": 64.49993549999998,
          "velocity": 0.7874015748031497,
          "duration": 0.07692299999999364
        },
        {
          "name": "C2",
          "midi": 36,
          "time": 64.61531999999997,
          "velocity": 0.7874015748031497,
          "duration": 0.07692299999999364
        },
        {
          "name": "B1",
          "midi": 35,
          "time": 64.61531999999997,
          "velocity": 0.7874015748031497,
          "duration": 0.07692299999999364
        },
        {
          "name": "A3",
          "midi": 57,
          "time": 64.61531999999997,
          "velocity": 0.7874015748031497,
          "duration": 0.07692299999999364
        },
        {
          "name": "A#2",
          "midi": 46,
          "time": 64.61531999999997,
          "velocity": 0.7874015748031497,
          "duration": 0.07692299999999364
        },
        {
          "name": "C2",
          "midi": 36,
          "time": 64.84608899999996,
          "velocity": 0.7874015748031497,
          "duration": 0.07692299999999364
        },
        {
          "name": "B1",
          "midi": 35,
          "time": 64.84608899999996,
          "velocity": 0.7874015748031497,
          "duration": 0.07692299999999364
        },
        {
          "name": "A#2",
          "midi": 46,
          "time": 64.84608899999996,
          "velocity": 0.7874015748031497,
          "duration": 0.07692299999999364
        },
        {
          "name": "D2",
          "midi": 38,
          "time": 65.07685799999996,
          "velocity": 0.7874015748031497,
          "duration": 0.07692299999999364
        },
        {
          "name": "E2",
          "midi": 40,
          "time": 65.07685799999996,
          "velocity": 0.7874015748031497,
          "duration": 0.07692299999999364
        },
        {
          "name": "A3",
          "midi": 57,
          "time": 65.07685799999996,
          "velocity": 0.7874015748031497,
          "duration": 0.07692299999999364
        },
        {
          "name": "A#2",
          "midi": 46,
          "time": 65.07685799999996,
          "velocity": 0.7874015748031497,
          "duration": 0.07692299999999364
        },
        {
          "name": "A#2",
          "midi": 46,
          "time": 65.30762699999995,
          "velocity": 0.7874015748031497,
          "duration": 0.07692299999999364
        },
        {
          "name": "C2",
          "midi": 36,
          "time": 65.42301149999994,
          "velocity": 0.7874015748031497,
          "duration": 0.07692299999999364
        },
        {
          "name": "B1",
          "midi": 35,
          "time": 65.42301149999994,
          "velocity": 0.7874015748031497,
          "duration": 0.07692299999999364
        },
        {
          "name": "E2",
          "midi": 40,
          "time": 65.42301149999994,
          "velocity": 0.7874015748031497,
          "duration": 0.07692299999999364
        },
        {
          "name": "A#2",
          "midi": 46,
          "time": 65.53839599999993,
          "velocity": 0.7874015748031497,
          "duration": 0.07692299999999364
        },
        {
          "name": "G#2",
          "midi": 44,
          "time": 65.65378049999993,
          "velocity": 0.7874015748031497,
          "duration": 0.07692299999999364
        },
        {
          "name": "C2",
          "midi": 36,
          "time": 65.76916499999992,
          "velocity": 0.7874015748031497,
          "duration": 0.07692299999999364
        },
        {
          "name": "B1",
          "midi": 35,
          "time": 65.76916499999992,
          "velocity": 0.7874015748031497,
          "duration": 0.07692299999999364
        },
        {
          "name": "A#2",
          "midi": 46,
          "time": 65.76916499999992,
          "velocity": 0.7874015748031497,
          "duration": 0.07692299999999364
        },
        {
          "name": "D2",
          "midi": 38,
          "time": 65.99993399999991,
          "velocity": 0.7874015748031497,
          "duration": 0.07692299999999364
        },
        {
          "name": "E2",
          "midi": 40,
          "time": 65.99993399999991,
          "velocity": 0.7874015748031497,
          "duration": 0.07692299999999364
        },
        {
          "name": "A3",
          "midi": 57,
          "time": 65.99993399999991,
          "velocity": 0.7874015748031497,
          "duration": 0.07692299999999364
        },
        {
          "name": "A#2",
          "midi": 46,
          "time": 65.99993399999991,
          "velocity": 0.7874015748031497,
          "duration": 0.07692299999999364
        },
        {
          "name": "A#2",
          "midi": 46,
          "time": 66.2307029999999,
          "velocity": 0.7874015748031497,
          "duration": 0.07692299999999364
        },
        {
          "name": "A3",
          "midi": 57,
          "time": 66.2307029999999,
          "velocity": 0.7874015748031497,
          "duration": 0.07692299999999364
        },
        {
          "name": "C2",
          "midi": 36,
          "time": 66.3460874999999,
          "velocity": 0.7874015748031497,
          "duration": 0.07692299999999364
        },
        {
          "name": "B1",
          "midi": 35,
          "time": 66.3460874999999,
          "velocity": 0.7874015748031497,
          "duration": 0.07692299999999364
        },
        {
          "name": "C2",
          "midi": 36,
          "time": 66.46147199999989,
          "velocity": 0.7874015748031497,
          "duration": 0.07692299999999364
        },
        {
          "name": "B1",
          "midi": 35,
          "time": 66.46147199999989,
          "velocity": 0.7874015748031497,
          "duration": 0.07692299999999364
        },
        {
          "name": "A3",
          "midi": 57,
          "time": 66.46147199999989,
          "velocity": 0.7874015748031497,
          "duration": 0.07692299999999364
        },
        {
          "name": "A#2",
          "midi": 46,
          "time": 66.46147199999989,
          "velocity": 0.7874015748031497,
          "duration": 0.07692299999999364
        },
        {
          "name": "C2",
          "midi": 36,
          "time": 66.69224099999988,
          "velocity": 0.7874015748031497,
          "duration": 0.07692299999999364
        },
        {
          "name": "B1",
          "midi": 35,
          "time": 66.69224099999988,
          "velocity": 0.7874015748031497,
          "duration": 0.07692299999999364
        },
        {
          "name": "A#2",
          "midi": 46,
          "time": 66.69224099999988,
          "velocity": 0.7874015748031497,
          "duration": 0.07692299999999364
        },
        {
          "name": "D2",
          "midi": 38,
          "time": 66.92300999999988,
          "velocity": 0.7874015748031497,
          "duration": 0.07692299999999364
        },
        {
          "name": "E2",
          "midi": 40,
          "time": 66.92300999999988,
          "velocity": 0.7874015748031497,
          "duration": 0.07692299999999364
        },
        {
          "name": "A3",
          "midi": 57,
          "time": 66.92300999999988,
          "velocity": 0.7874015748031497,
          "duration": 0.07692299999999364
        },
        {
          "name": "A#2",
          "midi": 46,
          "time": 66.92300999999988,
          "velocity": 0.7874015748031497,
          "duration": 0.07692299999999364
        },
        {
          "name": "A#2",
          "midi": 46,
          "time": 67.15377899999987,
          "velocity": 0.7874015748031497,
          "duration": 0.07692299999999364
        },
        {
          "name": "C2",
          "midi": 36,
          "time": 67.26916349999986,
          "velocity": 0.7874015748031497,
          "duration": 0.07692299999999364
        },
        {
          "name": "B1",
          "midi": 35,
          "time": 67.26916349999986,
          "velocity": 0.7874015748031497,
          "duration": 0.07692299999999364
        },
        {
          "name": "E2",
          "midi": 40,
          "time": 67.26916349999986,
          "velocity": 0.7874015748031497,
          "duration": 0.07692299999999364
        },
        {
          "name": "A#2",
          "midi": 46,
          "time": 67.38454799999985,
          "velocity": 0.7874015748031497,
          "duration": 0.07692299999999364
        },
        {
          "name": "G#2",
          "midi": 44,
          "time": 67.49993249999984,
          "velocity": 0.7874015748031497,
          "duration": 0.07692299999999364
        },
        {
          "name": "C2",
          "midi": 36,
          "time": 67.61531699999983,
          "velocity": 0.7874015748031497,
          "duration": 0.07692299999999364
        },
        {
          "name": "B1",
          "midi": 35,
          "time": 67.61531699999983,
          "velocity": 0.7874015748031497,
          "duration": 0.07692299999999364
        },
        {
          "name": "A#2",
          "midi": 46,
          "time": 67.61531699999983,
          "velocity": 0.7874015748031497,
          "duration": 0.07692299999999364
        },
        {
          "name": "D2",
          "midi": 38,
          "time": 67.84608599999983,
          "velocity": 0.7874015748031497,
          "duration": 0.07692299999999364
        },
        {
          "name": "E2",
          "midi": 40,
          "time": 67.84608599999983,
          "velocity": 0.7874015748031497,
          "duration": 0.07692299999999364
        },
        {
          "name": "A3",
          "midi": 57,
          "time": 67.84608599999983,
          "velocity": 0.7874015748031497,
          "duration": 0.07692299999999364
        },
        {
          "name": "A#2",
          "midi": 46,
          "time": 67.84608599999983,
          "velocity": 0.7874015748031497,
          "duration": 0.07692299999999364
        },
        {
          "name": "A#2",
          "midi": 46,
          "time": 68.07685499999982,
          "velocity": 0.7874015748031497,
          "duration": 0.07692299999999364
        },
        {
          "name": "C2",
          "midi": 36,
          "time": 68.19223949999981,
          "velocity": 0.7874015748031497,
          "duration": 0.07692299999999364
        },
        {
          "name": "B1",
          "midi": 35,
          "time": 68.19223949999981,
          "velocity": 0.7874015748031497,
          "duration": 0.07692299999999364
        },
        {
          "name": "C2",
          "midi": 36,
          "time": 68.3076239999998,
          "velocity": 0.7874015748031497,
          "duration": 0.07692299999999364
        },
        {
          "name": "B1",
          "midi": 35,
          "time": 68.3076239999998,
          "velocity": 0.7874015748031497,
          "duration": 0.07692299999999364
        },
        {
          "name": "A3",
          "midi": 57,
          "time": 68.3076239999998,
          "velocity": 0.7874015748031497,
          "duration": 0.07692299999999364
        },
        {
          "name": "A#2",
          "midi": 46,
          "time": 68.3076239999998,
          "velocity": 0.7874015748031497,
          "duration": 0.07692299999999364
        },
        {
          "name": "C2",
          "midi": 36,
          "time": 68.5383929999998,
          "velocity": 0.7874015748031497,
          "duration": 0.07692299999999364
        },
        {
          "name": "B1",
          "midi": 35,
          "time": 68.5383929999998,
          "velocity": 0.7874015748031497,
          "duration": 0.07692299999999364
        },
        {
          "name": "A#2",
          "midi": 46,
          "time": 68.5383929999998,
          "velocity": 0.7874015748031497,
          "duration": 0.07692299999999364
        },
        {
          "name": "D2",
          "midi": 38,
          "time": 68.7691619999998,
          "velocity": 0.7874015748031497,
          "duration": 0.07692299999999364
        },
        {
          "name": "E2",
          "midi": 40,
          "time": 68.7691619999998,
          "velocity": 0.7874015748031497,
          "duration": 0.07692299999999364
        },
        {
          "name": "A3",
          "midi": 57,
          "time": 68.7691619999998,
          "velocity": 0.7874015748031497,
          "duration": 0.07692299999999364
        },
        {
          "name": "A#2",
          "midi": 46,
          "time": 68.7691619999998,
          "velocity": 0.7874015748031497,
          "duration": 0.07692299999999364
        },
        {
          "name": "A#2",
          "midi": 46,
          "time": 68.99993099999979,
          "velocity": 0.7874015748031497,
          "duration": 0.07692299999999364
        },
        {
          "name": "C2",
          "midi": 36,
          "time": 69.11531549999978,
          "velocity": 0.7874015748031497,
          "duration": 0.07692299999999364
        },
        {
          "name": "B1",
          "midi": 35,
          "time": 69.11531549999978,
          "velocity": 0.7874015748031497,
          "duration": 0.07692299999999364
        },
        {
          "name": "E2",
          "midi": 40,
          "time": 69.11531549999978,
          "velocity": 0.7874015748031497,
          "duration": 0.07692299999999364
        },
        {
          "name": "A#2",
          "midi": 46,
          "time": 69.23069999999977,
          "velocity": 0.7874015748031497,
          "duration": 0.07692299999999364
        },
        {
          "name": "G#2",
          "midi": 44,
          "time": 69.34608449999976,
          "velocity": 0.7874015748031497,
          "duration": 0.07692299999999364
        },
        {
          "name": "C2",
          "midi": 36,
          "time": 69.46146899999975,
          "velocity": 0.7874015748031497,
          "duration": 0.07692299999999364
        },
        {
          "name": "B1",
          "midi": 35,
          "time": 69.46146899999975,
          "velocity": 0.7874015748031497,
          "duration": 0.07692299999999364
        },
        {
          "name": "A#2",
          "midi": 46,
          "time": 69.46146899999975,
          "velocity": 0.7874015748031497,
          "duration": 0.07692299999999364
        },
        {
          "name": "D2",
          "midi": 38,
          "time": 69.69223799999975,
          "velocity": 0.7874015748031497,
          "duration": 0.07692299999999364
        },
        {
          "name": "E2",
          "midi": 40,
          "time": 69.69223799999975,
          "velocity": 0.7874015748031497,
          "duration": 0.07692299999999364
        },
        {
          "name": "A3",
          "midi": 57,
          "time": 69.69223799999975,
          "velocity": 0.7874015748031497,
          "duration": 0.07692299999999364
        },
        {
          "name": "A#2",
          "midi": 46,
          "time": 69.69223799999975,
          "velocity": 0.7874015748031497,
          "duration": 0.07692299999999364
        },
        {
          "name": "A#2",
          "midi": 46,
          "time": 69.92300699999974,
          "velocity": 0.7874015748031497,
          "duration": 0.07692299999999364
        },
        {
          "name": "C2",
          "midi": 36,
          "time": 70.03839149999973,
          "velocity": 0.7874015748031497,
          "duration": 0.07692299999999364
        },
        {
          "name": "B1",
          "midi": 35,
          "time": 70.03839149999973,
          "velocity": 0.7874015748031497,
          "duration": 0.07692299999999364
        },
        {
          "name": "C2",
          "midi": 36,
          "time": 70.15377599999972,
          "velocity": 0.7874015748031497,
          "duration": 0.07692299999999364
        },
        {
          "name": "B1",
          "midi": 35,
          "time": 70.15377599999972,
          "velocity": 0.7874015748031497,
          "duration": 0.07692299999999364
        },
        {
          "name": "A3",
          "midi": 57,
          "time": 70.15377599999972,
          "velocity": 0.7874015748031497,
          "duration": 0.07692299999999364
        },
        {
          "name": "A#2",
          "midi": 46,
          "time": 70.15377599999972,
          "velocity": 0.7874015748031497,
          "duration": 0.07692299999999364
        },
        {
          "name": "C2",
          "midi": 36,
          "time": 70.38454499999972,
          "velocity": 0.7874015748031497,
          "duration": 0.07692299999999364
        },
        {
          "name": "B1",
          "midi": 35,
          "time": 70.38454499999972,
          "velocity": 0.7874015748031497,
          "duration": 0.07692299999999364
        },
        {
          "name": "A#2",
          "midi": 46,
          "time": 70.38454499999972,
          "velocity": 0.7874015748031497,
          "duration": 0.07692299999999364
        },
        {
          "name": "D2",
          "midi": 38,
          "time": 70.61531399999971,
          "velocity": 0.7874015748031497,
          "duration": 0.07692299999999364
        },
        {
          "name": "E2",
          "midi": 40,
          "time": 70.61531399999971,
          "velocity": 0.7874015748031497,
          "duration": 0.07692299999999364
        },
        {
          "name": "A3",
          "midi": 57,
          "time": 70.61531399999971,
          "velocity": 0.7874015748031497,
          "duration": 0.07692299999999364
        },
        {
          "name": "A#2",
          "midi": 46,
          "time": 70.61531399999971,
          "velocity": 0.7874015748031497,
          "duration": 0.07692299999999364
        },
        {
          "name": "A#2",
          "midi": 46,
          "time": 70.84608299999971,
          "velocity": 0.7874015748031497,
          "duration": 0.07692299999999364
        },
        {
          "name": "C2",
          "midi": 36,
          "time": 70.9614674999997,
          "velocity": 0.7874015748031497,
          "duration": 0.07692299999999364
        },
        {
          "name": "B1",
          "midi": 35,
          "time": 70.9614674999997,
          "velocity": 0.7874015748031497,
          "duration": 0.07692299999999364
        },
        {
          "name": "E2",
          "midi": 40,
          "time": 70.9614674999997,
          "velocity": 0.7874015748031497,
          "duration": 0.07692299999999364
        },
        {
          "name": "A#2",
          "midi": 46,
          "time": 71.07685199999969,
          "velocity": 0.7874015748031497,
          "duration": 0.07692299999999364
        },
        {
          "name": "G#2",
          "midi": 44,
          "time": 71.19223649999968,
          "velocity": 0.7874015748031497,
          "duration": 0.07692299999999364
        },
        {
          "name": "C2",
          "midi": 36,
          "time": 71.30762099999967,
          "velocity": 0.7874015748031497,
          "duration": 0.07692299999999364
        },
        {
          "name": "B1",
          "midi": 35,
          "time": 71.30762099999967,
          "velocity": 0.7874015748031497,
          "duration": 0.07692299999999364
        },
        {
          "name": "A#2",
          "midi": 46,
          "time": 71.30762099999967,
          "velocity": 0.7874015748031497,
          "duration": 0.07692299999999364
        },
        {
          "name": "D2",
          "midi": 38,
          "time": 71.53838999999967,
          "velocity": 0.7874015748031497,
          "duration": 0.07692299999999364
        },
        {
          "name": "E2",
          "midi": 40,
          "time": 71.53838999999967,
          "velocity": 0.7874015748031497,
          "duration": 0.07692299999999364
        },
        {
          "name": "A3",
          "midi": 57,
          "time": 71.53838999999967,
          "velocity": 0.7874015748031497,
          "duration": 0.07692299999999364
        },
        {
          "name": "A#2",
          "midi": 46,
          "time": 71.53838999999967,
          "velocity": 0.7874015748031497,
          "duration": 0.07692299999999364
        },
        {
          "name": "A#2",
          "midi": 46,
          "time": 71.76915899999966,
          "velocity": 0.7874015748031497,
          "duration": 0.07692299999999364
        },
        {
          "name": "C2",
          "midi": 36,
          "time": 71.88454349999965,
          "velocity": 0.7874015748031497,
          "duration": 0.07692299999999364
        },
        {
          "name": "B1",
          "midi": 35,
          "time": 71.88454349999965,
          "velocity": 0.7874015748031497,
          "duration": 0.07692299999999364
        },
        {
          "name": "C2",
          "midi": 36,
          "time": 71.99992799999964,
          "velocity": 0.7874015748031497,
          "duration": 0.07692299999999364
        },
        {
          "name": "B1",
          "midi": 35,
          "time": 71.99992799999964,
          "velocity": 0.7874015748031497,
          "duration": 0.07692299999999364
        },
        {
          "name": "A3",
          "midi": 57,
          "time": 71.99992799999964,
          "velocity": 0.7874015748031497,
          "duration": 0.07692299999999364
        },
        {
          "name": "A#2",
          "midi": 46,
          "time": 71.99992799999964,
          "velocity": 0.7874015748031497,
          "duration": 0.07692299999999364
        },
        {
          "name": "C2",
          "midi": 36,
          "time": 72.23069699999964,
          "velocity": 0.7874015748031497,
          "duration": 0.07692299999999364
        },
        {
          "name": "B1",
          "midi": 35,
          "time": 72.23069699999964,
          "velocity": 0.7874015748031497,
          "duration": 0.07692299999999364
        },
        {
          "name": "A#2",
          "midi": 46,
          "time": 72.23069699999964,
          "velocity": 0.7874015748031497,
          "duration": 0.07692299999999364
        },
        {
          "name": "D2",
          "midi": 38,
          "time": 72.46146599999963,
          "velocity": 0.7874015748031497,
          "duration": 0.07692299999999364
        },
        {
          "name": "E2",
          "midi": 40,
          "time": 72.46146599999963,
          "velocity": 0.7874015748031497,
          "duration": 0.07692299999999364
        },
        {
          "name": "A3",
          "midi": 57,
          "time": 72.46146599999963,
          "velocity": 0.7874015748031497,
          "duration": 0.07692299999999364
        },
        {
          "name": "A#2",
          "midi": 46,
          "time": 72.46146599999963,
          "velocity": 0.7874015748031497,
          "duration": 0.07692299999999364
        },
        {
          "name": "A#2",
          "midi": 46,
          "time": 72.69223499999963,
          "velocity": 0.7874015748031497,
          "duration": 0.07692299999999364
        },
        {
          "name": "A#2",
          "midi": 46,
          "time": 72.92300399999962,
          "velocity": 0.7874015748031497,
          "duration": 0.07692299999999364
        },
        {
          "name": "E2",
          "midi": 40,
          "time": 72.92300399999962,
          "velocity": 0.7874015748031497,
          "duration": 0.03846149999999682
        },
        {
          "name": "D2",
          "midi": 38,
          "time": 72.92300399999962,
          "velocity": 0.7874015748031497,
          "duration": 0.03846149999999682
        },
        {
          "name": "C2",
          "midi": 36,
          "time": 72.92300399999962,
          "velocity": 0.7874015748031497,
          "duration": 0.07692299999999364
        },
        {
          "name": "E2",
          "midi": 40,
          "time": 73.03838849999961,
          "velocity": 0.7874015748031497,
          "duration": 0.03846149999999682
        },
        {
          "name": "D2",
          "midi": 38,
          "time": 73.03838849999961,
          "velocity": 0.7874015748031497,
          "duration": 0.03846149999999682
        },
        {
          "name": "C2",
          "midi": 36,
          "time": 73.03838849999961,
          "velocity": 0.7874015748031497,
          "duration": 0.07692299999999364
        },
        {
          "name": "G#2",
          "midi": 44,
          "time": 73.03838849999961,
          "velocity": 0.7874015748031497,
          "duration": 0.07692299999999364
        },
        {
          "name": "A#2",
          "midi": 46,
          "time": 73.1537729999996,
          "velocity": 0.7874015748031497,
          "duration": 0.07692299999999364
        },
        {
          "name": "E2",
          "midi": 40,
          "time": 73.2691574999996,
          "velocity": 0.7874015748031497,
          "duration": 0.03846149999999682
        },
        {
          "name": "E2",
          "midi": 40,
          "time": 73.3268497499996,
          "velocity": 0.7874015748031497,
          "duration": 0.03846149999999682
        },
        {
          "name": "A#2",
          "midi": 46,
          "time": 73.3845419999996,
          "velocity": 0.7874015748031497,
          "duration": 0.07692299999999364
        },
        {
          "name": "D2",
          "midi": 38,
          "time": 73.3845419999996,
          "velocity": 0.7874015748031497,
          "duration": 0.07692299999999364
        },
        {
          "name": "E2",
          "midi": 40,
          "time": 73.3845419999996,
          "velocity": 0.7874015748031497,
          "duration": 0.07692299999999364
        },
        {
          "name": "C2",
          "midi": 36,
          "time": 73.3845419999996,
          "velocity": 0.7874015748031497,
          "duration": 0.07692299999999364
        },
        {
          "name": "E2",
          "midi": 40,
          "time": 73.49992649999959,
          "velocity": 0.7874015748031497,
          "duration": 0.03846149999999682
        },
        {
          "name": "D2",
          "midi": 38,
          "time": 73.49992649999959,
          "velocity": 0.7874015748031497,
          "duration": 0.03846149999999682
        },
        {
          "name": "C2",
          "midi": 36,
          "time": 73.49992649999959,
          "velocity": 0.7874015748031497,
          "duration": 0.07692299999999364
        },
        {
          "name": "A#2",
          "midi": 46,
          "time": 73.61531099999958,
          "velocity": 0.7874015748031497,
          "duration": 0.07692299999999364
        },
        {
          "name": "E2",
          "midi": 40,
          "time": 73.73069549999957,
          "velocity": 0.7874015748031497,
          "duration": 0.03846149999999682
        },
        {
          "name": "D2",
          "midi": 38,
          "time": 73.73069549999957,
          "velocity": 0.7874015748031497,
          "duration": 0.03846149999999682
        },
        {
          "name": "C2",
          "midi": 36,
          "time": 73.73069549999957,
          "velocity": 0.7874015748031497,
          "duration": 0.07692299999999364
        },
        {
          "name": "C2",
          "midi": 36,
          "time": 73.84607999999956,
          "velocity": 0.7874015748031497,
          "duration": 0.07692299999999364
        },
        {
          "name": "B1",
          "midi": 35,
          "time": 73.84607999999956,
          "velocity": 0.7874015748031497,
          "duration": 0.07692299999999364
        },
        {
          "name": "A3",
          "midi": 57,
          "time": 73.84607999999956,
          "velocity": 0.7874015748031497,
          "duration": 0.07692299999999364
        },
        {
          "name": "A#2",
          "midi": 46,
          "time": 73.84607999999956,
          "velocity": 0.7874015748031497,
          "duration": 0.07692299999999364
        },
        {
          "name": "C2",
          "midi": 36,
          "time": 74.07684899999956,
          "velocity": 0.7874015748031497,
          "duration": 0.07692299999999364
        },
        {
          "name": "B1",
          "midi": 35,
          "time": 74.07684899999956,
          "velocity": 0.7874015748031497,
          "duration": 0.07692299999999364
        },
        {
          "name": "A#2",
          "midi": 46,
          "time": 74.07684899999956,
          "velocity": 0.7874015748031497,
          "duration": 0.07692299999999364
        },
        {
          "name": "D2",
          "midi": 38,
          "time": 74.30761799999955,
          "velocity": 0.7874015748031497,
          "duration": 0.07692299999999364
        },
        {
          "name": "E2",
          "midi": 40,
          "time": 74.30761799999955,
          "velocity": 0.7874015748031497,
          "duration": 0.07692299999999364
        },
        {
          "name": "A3",
          "midi": 57,
          "time": 74.30761799999955,
          "velocity": 0.7874015748031497,
          "duration": 0.07692299999999364
        },
        {
          "name": "A#2",
          "midi": 46,
          "time": 74.30761799999955,
          "velocity": 0.7874015748031497,
          "duration": 0.07692299999999364
        },
        {
          "name": "A#2",
          "midi": 46,
          "time": 74.53838699999955,
          "velocity": 0.7874015748031497,
          "duration": 0.07692299999999364
        },
        {
          "name": "C2",
          "midi": 36,
          "time": 74.65377149999954,
          "velocity": 0.7874015748031497,
          "duration": 0.07692299999999364
        },
        {
          "name": "B1",
          "midi": 35,
          "time": 74.65377149999954,
          "velocity": 0.7874015748031497,
          "duration": 0.07692299999999364
        },
        {
          "name": "E2",
          "midi": 40,
          "time": 74.65377149999954,
          "velocity": 0.7874015748031497,
          "duration": 0.07692299999999364
        },
        {
          "name": "A#2",
          "midi": 46,
          "time": 74.76915599999953,
          "velocity": 0.7874015748031497,
          "duration": 0.07692299999999364
        },
        {
          "name": "G#2",
          "midi": 44,
          "time": 74.88454049999952,
          "velocity": 0.7874015748031497,
          "duration": 0.07692299999999364
        },
        {
          "name": "C2",
          "midi": 36,
          "time": 74.99992499999951,
          "velocity": 0.7874015748031497,
          "duration": 0.07692299999999364
        },
        {
          "name": "B1",
          "midi": 35,
          "time": 74.99992499999951,
          "velocity": 0.7874015748031497,
          "duration": 0.07692299999999364
        },
        {
          "name": "A#2",
          "midi": 46,
          "time": 74.99992499999951,
          "velocity": 0.7874015748031497,
          "duration": 0.07692299999999364
        },
        {
          "name": "D2",
          "midi": 38,
          "time": 75.2306939999995,
          "velocity": 0.7874015748031497,
          "duration": 0.07692299999999364
        },
        {
          "name": "E2",
          "midi": 40,
          "time": 75.2306939999995,
          "velocity": 0.7874015748031497,
          "duration": 0.07692299999999364
        },
        {
          "name": "A3",
          "midi": 57,
          "time": 75.2306939999995,
          "velocity": 0.7874015748031497,
          "duration": 0.07692299999999364
        },
        {
          "name": "A#2",
          "midi": 46,
          "time": 75.2306939999995,
          "velocity": 0.7874015748031497,
          "duration": 0.07692299999999364
        },
        {
          "name": "A#2",
          "midi": 46,
          "time": 75.4614629999995,
          "velocity": 0.7874015748031497,
          "duration": 0.07692299999999364
        },
        {
          "name": "C2",
          "midi": 36,
          "time": 75.57684749999949,
          "velocity": 0.7874015748031497,
          "duration": 0.07692299999999364
        },
        {
          "name": "B1",
          "midi": 35,
          "time": 75.57684749999949,
          "velocity": 0.7874015748031497,
          "duration": 0.07692299999999364
        },
        {
          "name": "C2",
          "midi": 36,
          "time": 75.69223199999948,
          "velocity": 0.7874015748031497,
          "duration": 0.07692299999999364
        },
        {
          "name": "B1",
          "midi": 35,
          "time": 75.69223199999948,
          "velocity": 0.7874015748031497,
          "duration": 0.07692299999999364
        },
        {
          "name": "A3",
          "midi": 57,
          "time": 75.69223199999948,
          "velocity": 0.7874015748031497,
          "duration": 0.07692299999999364
        },
        {
          "name": "A#2",
          "midi": 46,
          "time": 75.69223199999948,
          "velocity": 0.7874015748031497,
          "duration": 0.07692299999999364
        },
        {
          "name": "C2",
          "midi": 36,
          "time": 75.92300099999947,
          "velocity": 0.7874015748031497,
          "duration": 0.07692299999999364
        },
        {
          "name": "B1",
          "midi": 35,
          "time": 75.92300099999947,
          "velocity": 0.7874015748031497,
          "duration": 0.07692299999999364
        },
        {
          "name": "A#2",
          "midi": 46,
          "time": 75.92300099999947,
          "velocity": 0.7874015748031497,
          "duration": 0.07692299999999364
        },
        {
          "name": "D2",
          "midi": 38,
          "time": 76.15376999999947,
          "velocity": 0.7874015748031497,
          "duration": 0.07692299999999364
        },
        {
          "name": "E2",
          "midi": 40,
          "time": 76.15376999999947,
          "velocity": 0.7874015748031497,
          "duration": 0.07692299999999364
        },
        {
          "name": "A3",
          "midi": 57,
          "time": 76.15376999999947,
          "velocity": 0.7874015748031497,
          "duration": 0.07692299999999364
        },
        {
          "name": "A#2",
          "midi": 46,
          "time": 76.15376999999947,
          "velocity": 0.7874015748031497,
          "duration": 0.07692299999999364
        },
        {
          "name": "A#2",
          "midi": 46,
          "time": 76.38453899999946,
          "velocity": 0.7874015748031497,
          "duration": 0.07692299999999364
        },
        {
          "name": "C2",
          "midi": 36,
          "time": 76.49992349999945,
          "velocity": 0.7874015748031497,
          "duration": 0.07692299999999364
        },
        {
          "name": "B1",
          "midi": 35,
          "time": 76.49992349999945,
          "velocity": 0.7874015748031497,
          "duration": 0.07692299999999364
        },
        {
          "name": "E2",
          "midi": 40,
          "time": 76.49992349999945,
          "velocity": 0.7874015748031497,
          "duration": 0.07692299999999364
        },
        {
          "name": "A#2",
          "midi": 46,
          "time": 76.61530799999944,
          "velocity": 0.7874015748031497,
          "duration": 0.07692299999999364
        },
        {
          "name": "G#2",
          "midi": 44,
          "time": 76.73069249999944,
          "velocity": 0.7874015748031497,
          "duration": 0.07692299999999364
        },
        {
          "name": "C2",
          "midi": 36,
          "time": 76.84607699999943,
          "velocity": 0.7874015748031497,
          "duration": 0.07692299999999364
        },
        {
          "name": "B1",
          "midi": 35,
          "time": 76.84607699999943,
          "velocity": 0.7874015748031497,
          "duration": 0.07692299999999364
        },
        {
          "name": "A#2",
          "midi": 46,
          "time": 76.84607699999943,
          "velocity": 0.7874015748031497,
          "duration": 0.07692299999999364
        },
        {
          "name": "D2",
          "midi": 38,
          "time": 77.07684599999942,
          "velocity": 0.7874015748031497,
          "duration": 0.07692299999999364
        },
        {
          "name": "E2",
          "midi": 40,
          "time": 77.07684599999942,
          "velocity": 0.7874015748031497,
          "duration": 0.07692299999999364
        },
        {
          "name": "A3",
          "midi": 57,
          "time": 77.07684599999942,
          "velocity": 0.7874015748031497,
          "duration": 0.07692299999999364
        },
        {
          "name": "A#2",
          "midi": 46,
          "time": 77.07684599999942,
          "velocity": 0.7874015748031497,
          "duration": 0.07692299999999364
        },
        {
          "name": "A#2",
          "midi": 46,
          "time": 77.30761499999942,
          "velocity": 0.7874015748031497,
          "duration": 0.07692299999999364
        },
        {
          "name": "C2",
          "midi": 36,
          "time": 77.4229994999994,
          "velocity": 0.7874015748031497,
          "duration": 0.07692299999999364
        },
        {
          "name": "B1",
          "midi": 35,
          "time": 77.4229994999994,
          "velocity": 0.7874015748031497,
          "duration": 0.07692299999999364
        },
        {
          "name": "C2",
          "midi": 36,
          "time": 77.5383839999994,
          "velocity": 0.7874015748031497,
          "duration": 0.07692299999999364
        },
        {
          "name": "B1",
          "midi": 35,
          "time": 77.5383839999994,
          "velocity": 0.7874015748031497,
          "duration": 0.07692299999999364
        },
        {
          "name": "A3",
          "midi": 57,
          "time": 77.5383839999994,
          "velocity": 0.7874015748031497,
          "duration": 0.07692299999999364
        },
        {
          "name": "A#2",
          "midi": 46,
          "time": 77.5383839999994,
          "velocity": 0.7874015748031497,
          "duration": 0.07692299999999364
        },
        {
          "name": "C2",
          "midi": 36,
          "time": 77.76915299999939,
          "velocity": 0.7874015748031497,
          "duration": 0.07692299999999364
        },
        {
          "name": "B1",
          "midi": 35,
          "time": 77.76915299999939,
          "velocity": 0.7874015748031497,
          "duration": 0.07692299999999364
        },
        {
          "name": "A#2",
          "midi": 46,
          "time": 77.76915299999939,
          "velocity": 0.7874015748031497,
          "duration": 0.07692299999999364
        },
        {
          "name": "D2",
          "midi": 38,
          "time": 77.99992199999939,
          "velocity": 0.7874015748031497,
          "duration": 0.07692299999999364
        },
        {
          "name": "E2",
          "midi": 40,
          "time": 77.99992199999939,
          "velocity": 0.7874015748031497,
          "duration": 0.07692299999999364
        },
        {
          "name": "A3",
          "midi": 57,
          "time": 77.99992199999939,
          "velocity": 0.7874015748031497,
          "duration": 0.07692299999999364
        },
        {
          "name": "A#2",
          "midi": 46,
          "time": 77.99992199999939,
          "velocity": 0.7874015748031497,
          "duration": 0.07692299999999364
        },
        {
          "name": "A#2",
          "midi": 46,
          "time": 78.23069099999938,
          "velocity": 0.7874015748031497,
          "duration": 0.07692299999999364
        },
        {
          "name": "C2",
          "midi": 36,
          "time": 78.34607549999937,
          "velocity": 0.7874015748031497,
          "duration": 0.07692299999999364
        },
        {
          "name": "B1",
          "midi": 35,
          "time": 78.34607549999937,
          "velocity": 0.7874015748031497,
          "duration": 0.07692299999999364
        },
        {
          "name": "E2",
          "midi": 40,
          "time": 78.34607549999937,
          "velocity": 0.7874015748031497,
          "duration": 0.07692299999999364
        },
        {
          "name": "A#2",
          "midi": 46,
          "time": 78.46145999999936,
          "velocity": 0.7874015748031497,
          "duration": 0.07692299999999364
        },
        {
          "name": "G#2",
          "midi": 44,
          "time": 78.57684449999935,
          "velocity": 0.7874015748031497,
          "duration": 0.07692299999999364
        },
        {
          "name": "C2",
          "midi": 36,
          "time": 78.69222899999934,
          "velocity": 0.7874015748031497,
          "duration": 0.07692299999999364
        },
        {
          "name": "B1",
          "midi": 35,
          "time": 78.69222899999934,
          "velocity": 0.7874015748031497,
          "duration": 0.07692299999999364
        },
        {
          "name": "A#2",
          "midi": 46,
          "time": 78.69222899999934,
          "velocity": 0.7874015748031497,
          "duration": 0.07692299999999364
        },
        {
          "name": "D2",
          "midi": 38,
          "time": 78.92299799999934,
          "velocity": 0.7874015748031497,
          "duration": 0.07692299999999364
        },
        {
          "name": "E2",
          "midi": 40,
          "time": 78.92299799999934,
          "velocity": 0.7874015748031497,
          "duration": 0.07692299999999364
        },
        {
          "name": "A3",
          "midi": 57,
          "time": 78.92299799999934,
          "velocity": 0.7874015748031497,
          "duration": 0.07692299999999364
        },
        {
          "name": "A#2",
          "midi": 46,
          "time": 78.92299799999934,
          "velocity": 0.7874015748031497,
          "duration": 0.07692299999999364
        },
        {
          "name": "A#2",
          "midi": 46,
          "time": 79.15376699999933,
          "velocity": 0.7874015748031497,
          "duration": 0.07692299999999364
        },
        {
          "name": "C2",
          "midi": 36,
          "time": 79.26915149999932,
          "velocity": 0.7874015748031497,
          "duration": 0.07692299999999364
        },
        {
          "name": "B1",
          "midi": 35,
          "time": 79.26915149999932,
          "velocity": 0.7874015748031497,
          "duration": 0.07692299999999364
        },
        {
          "name": "C2",
          "midi": 36,
          "time": 79.38453599999931,
          "velocity": 0.7874015748031497,
          "duration": 0.07692299999999364
        },
        {
          "name": "B1",
          "midi": 35,
          "time": 79.38453599999931,
          "velocity": 0.7874015748031497,
          "duration": 0.07692299999999364
        },
        {
          "name": "A3",
          "midi": 57,
          "time": 79.38453599999931,
          "velocity": 0.7874015748031497,
          "duration": 0.07692299999999364
        },
        {
          "name": "A#2",
          "midi": 46,
          "time": 79.38453599999931,
          "velocity": 0.7874015748031497,
          "duration": 0.07692299999999364
        },
        {
          "name": "C2",
          "midi": 36,
          "time": 79.61530499999931,
          "velocity": 0.7874015748031497,
          "duration": 0.07692299999999364
        },
        {
          "name": "B1",
          "midi": 35,
          "time": 79.61530499999931,
          "velocity": 0.7874015748031497,
          "duration": 0.07692299999999364
        },
        {
          "name": "A#2",
          "midi": 46,
          "time": 79.61530499999931,
          "velocity": 0.7874015748031497,
          "duration": 0.07692299999999364
        },
        {
          "name": "D2",
          "midi": 38,
          "time": 79.8460739999993,
          "velocity": 0.7874015748031497,
          "duration": 0.07692299999999364
        },
        {
          "name": "E2",
          "midi": 40,
          "time": 79.8460739999993,
          "velocity": 0.7874015748031497,
          "duration": 0.07692299999999364
        },
        {
          "name": "A3",
          "midi": 57,
          "time": 79.8460739999993,
          "velocity": 0.7874015748031497,
          "duration": 0.07692299999999364
        },
        {
          "name": "A#2",
          "midi": 46,
          "time": 79.8460739999993,
          "velocity": 0.7874015748031497,
          "duration": 0.07692299999999364
        },
        {
          "name": "A#2",
          "midi": 46,
          "time": 80.0768429999993,
          "velocity": 0.7874015748031497,
          "duration": 0.07692299999999364
        },
        {
          "name": "C2",
          "midi": 36,
          "time": 80.19222749999929,
          "velocity": 0.7874015748031497,
          "duration": 0.07692299999999364
        },
        {
          "name": "B1",
          "midi": 35,
          "time": 80.19222749999929,
          "velocity": 0.7874015748031497,
          "duration": 0.07692299999999364
        },
        {
          "name": "E2",
          "midi": 40,
          "time": 80.19222749999929,
          "velocity": 0.7874015748031497,
          "duration": 0.07692299999999364
        },
        {
          "name": "A#2",
          "midi": 46,
          "time": 80.30761199999928,
          "velocity": 0.7874015748031497,
          "duration": 0.07692299999999364
        },
        {
          "name": "G#2",
          "midi": 44,
          "time": 80.42299649999927,
          "velocity": 0.7874015748031497,
          "duration": 0.07692299999999364
        },
        {
          "name": "C2",
          "midi": 36,
          "time": 80.53838099999926,
          "velocity": 0.7874015748031497,
          "duration": 0.07692299999999364
        },
        {
          "name": "B1",
          "midi": 35,
          "time": 80.53838099999926,
          "velocity": 0.7874015748031497,
          "duration": 0.07692299999999364
        },
        {
          "name": "A#2",
          "midi": 46,
          "time": 80.53838099999926,
          "velocity": 0.7874015748031497,
          "duration": 0.07692299999999364
        },
        {
          "name": "D2",
          "midi": 38,
          "time": 80.76914999999926,
          "velocity": 0.7874015748031497,
          "duration": 0.07692299999999364
        },
        {
          "name": "E2",
          "midi": 40,
          "time": 80.76914999999926,
          "velocity": 0.7874015748031497,
          "duration": 0.07692299999999364
        },
        {
          "name": "A3",
          "midi": 57,
          "time": 80.76914999999926,
          "velocity": 0.7874015748031497,
          "duration": 0.07692299999999364
        },
        {
          "name": "A#2",
          "midi": 46,
          "time": 80.76914999999926,
          "velocity": 0.7874015748031497,
          "duration": 0.07692299999999364
        },
        {
          "name": "A#2",
          "midi": 46,
          "time": 80.99991899999925,
          "velocity": 0.7874015748031497,
          "duration": 0.07692299999999364
        },
        {
          "name": "A3",
          "midi": 57,
          "time": 80.99991899999925,
          "velocity": 0.7874015748031497,
          "duration": 0.07692299999999364
        },
        {
          "name": "C2",
          "midi": 36,
          "time": 81.11530349999924,
          "velocity": 0.7874015748031497,
          "duration": 0.07692299999999364
        },
        {
          "name": "B1",
          "midi": 35,
          "time": 81.11530349999924,
          "velocity": 0.7874015748031497,
          "duration": 0.07692299999999364
        },
        {
          "name": "C2",
          "midi": 36,
          "time": 81.23068799999923,
          "velocity": 0.7874015748031497,
          "duration": 0.07692299999999364
        },
        {
          "name": "B1",
          "midi": 35,
          "time": 81.23068799999923,
          "velocity": 0.7874015748031497,
          "duration": 0.07692299999999364
        },
        {
          "name": "A3",
          "midi": 57,
          "time": 81.23068799999923,
          "velocity": 0.7874015748031497,
          "duration": 0.07692299999999364
        },
        {
          "name": "A#2",
          "midi": 46,
          "time": 81.23068799999923,
          "velocity": 0.7874015748031497,
          "duration": 0.07692299999999364
        },
        {
          "name": "C2",
          "midi": 36,
          "time": 81.46145699999923,
          "velocity": 0.7874015748031497,
          "duration": 0.07692299999999364
        },
        {
          "name": "B1",
          "midi": 35,
          "time": 81.46145699999923,
          "velocity": 0.7874015748031497,
          "duration": 0.07692299999999364
        },
        {
          "name": "A#2",
          "midi": 46,
          "time": 81.46145699999923,
          "velocity": 0.7874015748031497,
          "duration": 0.07692299999999364
        },
        {
          "name": "D2",
          "midi": 38,
          "time": 81.69222599999922,
          "velocity": 0.7874015748031497,
          "duration": 0.07692299999999364
        },
        {
          "name": "E2",
          "midi": 40,
          "time": 81.69222599999922,
          "velocity": 0.7874015748031497,
          "duration": 0.07692299999999364
        },
        {
          "name": "A3",
          "midi": 57,
          "time": 81.69222599999922,
          "velocity": 0.7874015748031497,
          "duration": 0.07692299999999364
        },
        {
          "name": "A#2",
          "midi": 46,
          "time": 81.69222599999922,
          "velocity": 0.7874015748031497,
          "duration": 0.07692299999999364
        },
        {
          "name": "A#2",
          "midi": 46,
          "time": 81.92299499999922,
          "velocity": 0.7874015748031497,
          "duration": 0.07692299999999364
        },
        {
          "name": "C2",
          "midi": 36,
          "time": 82.03837949999921,
          "velocity": 0.7874015748031497,
          "duration": 0.07692299999999364
        },
        {
          "name": "B1",
          "midi": 35,
          "time": 82.03837949999921,
          "velocity": 0.7874015748031497,
          "duration": 0.07692299999999364
        },
        {
          "name": "E2",
          "midi": 40,
          "time": 82.03837949999921,
          "velocity": 0.7874015748031497,
          "duration": 0.07692299999999364
        },
        {
          "name": "A#2",
          "midi": 46,
          "time": 82.1537639999992,
          "velocity": 0.7874015748031497,
          "duration": 0.07692299999999364
        },
        {
          "name": "G#2",
          "midi": 44,
          "time": 82.26914849999919,
          "velocity": 0.7874015748031497,
          "duration": 0.07692299999999364
        },
        {
          "name": "C2",
          "midi": 36,
          "time": 82.38453299999918,
          "velocity": 0.7874015748031497,
          "duration": 0.07692299999999364
        },
        {
          "name": "B1",
          "midi": 35,
          "time": 82.38453299999918,
          "velocity": 0.7874015748031497,
          "duration": 0.07692299999999364
        },
        {
          "name": "A#2",
          "midi": 46,
          "time": 82.38453299999918,
          "velocity": 0.7874015748031497,
          "duration": 0.07692299999999364
        },
        {
          "name": "D2",
          "midi": 38,
          "time": 82.61530199999918,
          "velocity": 0.7874015748031497,
          "duration": 0.07692299999999364
        },
        {
          "name": "E2",
          "midi": 40,
          "time": 82.61530199999918,
          "velocity": 0.7874015748031497,
          "duration": 0.07692299999999364
        },
        {
          "name": "A3",
          "midi": 57,
          "time": 82.61530199999918,
          "velocity": 0.7874015748031497,
          "duration": 0.07692299999999364
        },
        {
          "name": "A#2",
          "midi": 46,
          "time": 82.61530199999918,
          "velocity": 0.7874015748031497,
          "duration": 0.07692299999999364
        },
        {
          "name": "A#2",
          "midi": 46,
          "time": 82.84607099999917,
          "velocity": 0.7874015748031497,
          "duration": 0.07692299999999364
        },
        {
          "name": "C2",
          "midi": 36,
          "time": 82.96145549999916,
          "velocity": 0.7874015748031497,
          "duration": 0.07692299999999364
        },
        {
          "name": "B1",
          "midi": 35,
          "time": 82.96145549999916,
          "velocity": 0.7874015748031497,
          "duration": 0.07692299999999364
        },
        {
          "name": "C2",
          "midi": 36,
          "time": 83.07683999999915,
          "velocity": 0.7874015748031497,
          "duration": 0.07692299999999364
        },
        {
          "name": "B1",
          "midi": 35,
          "time": 83.07683999999915,
          "velocity": 0.7874015748031497,
          "duration": 0.07692299999999364
        },
        {
          "name": "A3",
          "midi": 57,
          "time": 83.07683999999915,
          "velocity": 0.7874015748031497,
          "duration": 0.07692299999999364
        },
        {
          "name": "A#2",
          "midi": 46,
          "time": 83.07683999999915,
          "velocity": 0.7874015748031497,
          "duration": 0.07692299999999364
        },
        {
          "name": "C2",
          "midi": 36,
          "time": 83.30760899999915,
          "velocity": 0.7874015748031497,
          "duration": 0.07692299999999364
        },
        {
          "name": "B1",
          "midi": 35,
          "time": 83.30760899999915,
          "velocity": 0.7874015748031497,
          "duration": 0.07692299999999364
        },
        {
          "name": "A#2",
          "midi": 46,
          "time": 83.30760899999915,
          "velocity": 0.7874015748031497,
          "duration": 0.07692299999999364
        },
        {
          "name": "D2",
          "midi": 38,
          "time": 83.53837799999914,
          "velocity": 0.7874015748031497,
          "duration": 0.07692299999999364
        },
        {
          "name": "E2",
          "midi": 40,
          "time": 83.53837799999914,
          "velocity": 0.7874015748031497,
          "duration": 0.07692299999999364
        },
        {
          "name": "A3",
          "midi": 57,
          "time": 83.53837799999914,
          "velocity": 0.7874015748031497,
          "duration": 0.07692299999999364
        },
        {
          "name": "A#2",
          "midi": 46,
          "time": 83.53837799999914,
          "velocity": 0.7874015748031497,
          "duration": 0.07692299999999364
        },
        {
          "name": "A#2",
          "midi": 46,
          "time": 83.76914699999914,
          "velocity": 0.7874015748031497,
          "duration": 0.07692299999999364
        },
        {
          "name": "C2",
          "midi": 36,
          "time": 83.88453149999913,
          "velocity": 0.7874015748031497,
          "duration": 0.07692299999999364
        },
        {
          "name": "B1",
          "midi": 35,
          "time": 83.88453149999913,
          "velocity": 0.7874015748031497,
          "duration": 0.07692299999999364
        },
        {
          "name": "E2",
          "midi": 40,
          "time": 83.88453149999913,
          "velocity": 0.7874015748031497,
          "duration": 0.07692299999999364
        },
        {
          "name": "A#2",
          "midi": 46,
          "time": 83.99991599999912,
          "velocity": 0.7874015748031497,
          "duration": 0.07692299999999364
        },
        {
          "name": "G#2",
          "midi": 44,
          "time": 84.11530049999911,
          "velocity": 0.7874015748031497,
          "duration": 0.07692299999999364
        },
        {
          "name": "C2",
          "midi": 36,
          "time": 84.2306849999991,
          "velocity": 0.7874015748031497,
          "duration": 0.07692299999999364
        },
        {
          "name": "B1",
          "midi": 35,
          "time": 84.2306849999991,
          "velocity": 0.7874015748031497,
          "duration": 0.07692299999999364
        },
        {
          "name": "A#2",
          "midi": 46,
          "time": 84.2306849999991,
          "velocity": 0.7874015748031497,
          "duration": 0.07692299999999364
        },
        {
          "name": "D2",
          "midi": 38,
          "time": 84.4614539999991,
          "velocity": 0.7874015748031497,
          "duration": 0.07692299999999364
        },
        {
          "name": "E2",
          "midi": 40,
          "time": 84.4614539999991,
          "velocity": 0.7874015748031497,
          "duration": 0.07692299999999364
        },
        {
          "name": "A3",
          "midi": 57,
          "time": 84.4614539999991,
          "velocity": 0.7874015748031497,
          "duration": 0.07692299999999364
        },
        {
          "name": "A#2",
          "midi": 46,
          "time": 84.4614539999991,
          "velocity": 0.7874015748031497,
          "duration": 0.07692299999999364
        },
        {
          "name": "A#2",
          "midi": 46,
          "time": 84.69222299999909,
          "velocity": 0.7874015748031497,
          "duration": 0.07692299999999364
        },
        {
          "name": "C2",
          "midi": 36,
          "time": 84.80760749999908,
          "velocity": 0.7874015748031497,
          "duration": 0.07692299999999364
        },
        {
          "name": "B1",
          "midi": 35,
          "time": 84.80760749999908,
          "velocity": 0.7874015748031497,
          "duration": 0.07692299999999364
        },
        {
          "name": "C2",
          "midi": 36,
          "time": 84.92299199999907,
          "velocity": 0.7874015748031497,
          "duration": 0.07692299999999364
        },
        {
          "name": "B1",
          "midi": 35,
          "time": 84.92299199999907,
          "velocity": 0.7874015748031497,
          "duration": 0.07692299999999364
        },
        {
          "name": "A3",
          "midi": 57,
          "time": 84.92299199999907,
          "velocity": 0.7874015748031497,
          "duration": 0.07692299999999364
        },
        {
          "name": "A#2",
          "midi": 46,
          "time": 84.92299199999907,
          "velocity": 0.7874015748031497,
          "duration": 0.07692299999999364
        },
        {
          "name": "C2",
          "midi": 36,
          "time": 85.15376099999907,
          "velocity": 0.7874015748031497,
          "duration": 0.07692299999999364
        },
        {
          "name": "B1",
          "midi": 35,
          "time": 85.15376099999907,
          "velocity": 0.7874015748031497,
          "duration": 0.07692299999999364
        },
        {
          "name": "A#2",
          "midi": 46,
          "time": 85.15376099999907,
          "velocity": 0.7874015748031497,
          "duration": 0.07692299999999364
        },
        {
          "name": "D2",
          "midi": 38,
          "time": 85.38452999999906,
          "velocity": 0.7874015748031497,
          "duration": 0.07692299999999364
        },
        {
          "name": "E2",
          "midi": 40,
          "time": 85.38452999999906,
          "velocity": 0.7874015748031497,
          "duration": 0.07692299999999364
        },
        {
          "name": "A3",
          "midi": 57,
          "time": 85.38452999999906,
          "velocity": 0.7874015748031497,
          "duration": 0.07692299999999364
        },
        {
          "name": "A#2",
          "midi": 46,
          "time": 85.38452999999906,
          "velocity": 0.7874015748031497,
          "duration": 0.07692299999999364
        },
        {
          "name": "A#2",
          "midi": 46,
          "time": 85.61529899999906,
          "velocity": 0.7874015748031497,
          "duration": 0.07692299999999364
        },
        {
          "name": "C2",
          "midi": 36,
          "time": 85.73068349999905,
          "velocity": 0.7874015748031497,
          "duration": 0.07692299999999364
        },
        {
          "name": "B1",
          "midi": 35,
          "time": 85.73068349999905,
          "velocity": 0.7874015748031497,
          "duration": 0.07692299999999364
        },
        {
          "name": "E2",
          "midi": 40,
          "time": 85.73068349999905,
          "velocity": 0.7874015748031497,
          "duration": 0.07692299999999364
        },
        {
          "name": "A#2",
          "midi": 46,
          "time": 85.84606799999904,
          "velocity": 0.7874015748031497,
          "duration": 0.07692299999999364
        },
        {
          "name": "G#2",
          "midi": 44,
          "time": 85.96145249999903,
          "velocity": 0.7874015748031497,
          "duration": 0.07692299999999364
        },
        {
          "name": "C2",
          "midi": 36,
          "time": 86.07683699999902,
          "velocity": 0.7874015748031497,
          "duration": 0.07692299999999364
        },
        {
          "name": "B1",
          "midi": 35,
          "time": 86.07683699999902,
          "velocity": 0.7874015748031497,
          "duration": 0.07692299999999364
        },
        {
          "name": "A#2",
          "midi": 46,
          "time": 86.07683699999902,
          "velocity": 0.7874015748031497,
          "duration": 0.07692299999999364
        },
        {
          "name": "D2",
          "midi": 38,
          "time": 86.30760599999901,
          "velocity": 0.7874015748031497,
          "duration": 0.07692299999999364
        },
        {
          "name": "E2",
          "midi": 40,
          "time": 86.30760599999901,
          "velocity": 0.7874015748031497,
          "duration": 0.07692299999999364
        },
        {
          "name": "A3",
          "midi": 57,
          "time": 86.30760599999901,
          "velocity": 0.7874015748031497,
          "duration": 0.07692299999999364
        },
        {
          "name": "A#2",
          "midi": 46,
          "time": 86.30760599999901,
          "velocity": 0.7874015748031497,
          "duration": 0.07692299999999364
        },
        {
          "name": "A#2",
          "midi": 46,
          "time": 86.53837499999901,
          "velocity": 0.7874015748031497,
          "duration": 0.07692299999999364
        },
        {
          "name": "C2",
          "midi": 36,
          "time": 86.653759499999,
          "velocity": 0.7874015748031497,
          "duration": 0.07692299999999364
        },
        {
          "name": "B1",
          "midi": 35,
          "time": 86.653759499999,
          "velocity": 0.7874015748031497,
          "duration": 0.07692299999999364
        },
        {
          "name": "C2",
          "midi": 36,
          "time": 86.76914399999899,
          "velocity": 0.7874015748031497,
          "duration": 0.07692299999999364
        },
        {
          "name": "B1",
          "midi": 35,
          "time": 86.76914399999899,
          "velocity": 0.7874015748031497,
          "duration": 0.07692299999999364
        },
        {
          "name": "A3",
          "midi": 57,
          "time": 86.76914399999899,
          "velocity": 0.7874015748031497,
          "duration": 0.07692299999999364
        },
        {
          "name": "A#2",
          "midi": 46,
          "time": 86.76914399999899,
          "velocity": 0.7874015748031497,
          "duration": 0.07692299999999364
        },
        {
          "name": "C2",
          "midi": 36,
          "time": 86.99991299999898,
          "velocity": 0.7874015748031497,
          "duration": 0.07692299999999364
        },
        {
          "name": "B1",
          "midi": 35,
          "time": 86.99991299999898,
          "velocity": 0.7874015748031497,
          "duration": 0.07692299999999364
        },
        {
          "name": "A#2",
          "midi": 46,
          "time": 86.99991299999898,
          "velocity": 0.7874015748031497,
          "duration": 0.07692299999999364
        },
        {
          "name": "D2",
          "midi": 38,
          "time": 87.23068199999898,
          "velocity": 0.7874015748031497,
          "duration": 0.07692299999999364
        },
        {
          "name": "E2",
          "midi": 40,
          "time": 87.23068199999898,
          "velocity": 0.7874015748031497,
          "duration": 0.07692299999999364
        },
        {
          "name": "A3",
          "midi": 57,
          "time": 87.23068199999898,
          "velocity": 0.7874015748031497,
          "duration": 0.07692299999999364
        },
        {
          "name": "A#2",
          "midi": 46,
          "time": 87.23068199999898,
          "velocity": 0.7874015748031497,
          "duration": 0.07692299999999364
        },
        {
          "name": "A#2",
          "midi": 46,
          "time": 87.46145099999897,
          "velocity": 0.7874015748031497,
          "duration": 0.07692299999999364
        },
        {
          "name": "A#2",
          "midi": 46,
          "time": 87.69221999999897,
          "velocity": 0.7874015748031497,
          "duration": 0.07692299999999364
        },
        {
          "name": "E2",
          "midi": 40,
          "time": 87.69221999999897,
          "velocity": 0.7874015748031497,
          "duration": 0.03846149999999682
        },
        {
          "name": "D2",
          "midi": 38,
          "time": 87.69221999999897,
          "velocity": 0.7874015748031497,
          "duration": 0.03846149999999682
        },
        {
          "name": "C2",
          "midi": 36,
          "time": 87.69221999999897,
          "velocity": 0.7874015748031497,
          "duration": 0.07692299999999364
        },
        {
          "name": "E2",
          "midi": 40,
          "time": 87.80760449999896,
          "velocity": 0.7874015748031497,
          "duration": 0.03846149999999682
        },
        {
          "name": "D2",
          "midi": 38,
          "time": 87.80760449999896,
          "velocity": 0.7874015748031497,
          "duration": 0.03846149999999682
        },
        {
          "name": "C2",
          "midi": 36,
          "time": 87.80760449999896,
          "velocity": 0.7874015748031497,
          "duration": 0.07692299999999364
        },
        {
          "name": "G#2",
          "midi": 44,
          "time": 87.80760449999896,
          "velocity": 0.7874015748031497,
          "duration": 0.07692299999999364
        },
        {
          "name": "A#2",
          "midi": 46,
          "time": 87.92298899999895,
          "velocity": 0.7874015748031497,
          "duration": 0.07692299999999364
        },
        {
          "name": "E2",
          "midi": 40,
          "time": 88.03837349999894,
          "velocity": 0.7874015748031497,
          "duration": 0.03846149999999682
        },
        {
          "name": "E2",
          "midi": 40,
          "time": 88.09606574999894,
          "velocity": 0.7874015748031497,
          "duration": 0.03846149999999682
        },
        {
          "name": "A#2",
          "midi": 46,
          "time": 88.15375799999894,
          "velocity": 0.7874015748031497,
          "duration": 0.07692299999999364
        },
        {
          "name": "D2",
          "midi": 38,
          "time": 88.15375799999894,
          "velocity": 0.7874015748031497,
          "duration": 0.07692299999999364
        },
        {
          "name": "E2",
          "midi": 40,
          "time": 88.15375799999894,
          "velocity": 0.7874015748031497,
          "duration": 0.07692299999999364
        },
        {
          "name": "C2",
          "midi": 36,
          "time": 88.15375799999894,
          "velocity": 0.7874015748031497,
          "duration": 0.07692299999999364
        },
        {
          "name": "E2",
          "midi": 40,
          "time": 88.26914249999894,
          "velocity": 0.7874015748031497,
          "duration": 0.03846149999999682
        },
        {
          "name": "D2",
          "midi": 38,
          "time": 88.26914249999894,
          "velocity": 0.7874015748031497,
          "duration": 0.03846149999999682
        },
        {
          "name": "C2",
          "midi": 36,
          "time": 88.26914249999894,
          "velocity": 0.7874015748031497,
          "duration": 0.07692299999999364
        },
        {
          "name": "A#2",
          "midi": 46,
          "time": 88.38452699999893,
          "velocity": 0.7874015748031497,
          "duration": 0.07692299999999364
        },
        {
          "name": "E2",
          "midi": 40,
          "time": 88.49991149999892,
          "velocity": 0.7874015748031497,
          "duration": 0.03846149999999682
        },
        {
          "name": "D2",
          "midi": 38,
          "time": 88.49991149999892,
          "velocity": 0.7874015748031497,
          "duration": 0.03846149999999682
        },
        {
          "name": "C2",
          "midi": 36,
          "time": 88.49991149999892,
          "velocity": 0.7874015748031497,
          "duration": 0.07692299999999364
        },
        {
          "name": "C2",
          "midi": 36,
          "time": 88.6152959999989,
          "velocity": 0.7874015748031497,
          "duration": 0.07692299999999364
        },
        {
          "name": "B1",
          "midi": 35,
          "time": 88.6152959999989,
          "velocity": 0.7874015748031497,
          "duration": 0.07692299999999364
        },
        {
          "name": "A3",
          "midi": 57,
          "time": 88.6152959999989,
          "velocity": 0.7874015748031497,
          "duration": 0.07692299999999364
        },
        {
          "name": "A#2",
          "midi": 46,
          "time": 88.6152959999989,
          "velocity": 0.7874015748031497,
          "duration": 0.07692299999999364
        },
        {
          "name": "C2",
          "midi": 36,
          "time": 88.8460649999989,
          "velocity": 0.7874015748031497,
          "duration": 0.07692299999999364
        },
        {
          "name": "B1",
          "midi": 35,
          "time": 88.8460649999989,
          "velocity": 0.7874015748031497,
          "duration": 0.07692299999999364
        },
        {
          "name": "A#2",
          "midi": 46,
          "time": 88.8460649999989,
          "velocity": 0.7874015748031497,
          "duration": 0.07692299999999364
        },
        {
          "name": "D2",
          "midi": 38,
          "time": 89.0768339999989,
          "velocity": 0.7874015748031497,
          "duration": 0.07692299999999364
        },
        {
          "name": "E2",
          "midi": 40,
          "time": 89.0768339999989,
          "velocity": 0.7874015748031497,
          "duration": 0.07692299999999364
        },
        {
          "name": "A3",
          "midi": 57,
          "time": 89.0768339999989,
          "velocity": 0.7874015748031497,
          "duration": 0.07692299999999364
        },
        {
          "name": "A#2",
          "midi": 46,
          "time": 89.0768339999989,
          "velocity": 0.7874015748031497,
          "duration": 0.07692299999999364
        },
        {
          "name": "A#2",
          "midi": 46,
          "time": 89.30760299999889,
          "velocity": 0.7874015748031497,
          "duration": 0.07692299999999364
        },
        {
          "name": "C2",
          "midi": 36,
          "time": 89.42298749999888,
          "velocity": 0.7874015748031497,
          "duration": 0.07692299999999364
        },
        {
          "name": "B1",
          "midi": 35,
          "time": 89.42298749999888,
          "velocity": 0.7874015748031497,
          "duration": 0.07692299999999364
        },
        {
          "name": "E2",
          "midi": 40,
          "time": 89.42298749999888,
          "velocity": 0.7874015748031497,
          "duration": 0.07692299999999364
        },
        {
          "name": "A#2",
          "midi": 46,
          "time": 89.53837199999887,
          "velocity": 0.7874015748031497,
          "duration": 0.07692299999999364
        },
        {
          "name": "G#2",
          "midi": 44,
          "time": 89.65375649999886,
          "velocity": 0.7874015748031497,
          "duration": 0.07692299999999364
        },
        {
          "name": "C2",
          "midi": 36,
          "time": 89.76914099999885,
          "velocity": 0.7874015748031497,
          "duration": 0.07692299999999364
        },
        {
          "name": "B1",
          "midi": 35,
          "time": 89.76914099999885,
          "velocity": 0.7874015748031497,
          "duration": 0.07692299999999364
        },
        {
          "name": "A#2",
          "midi": 46,
          "time": 89.76914099999885,
          "velocity": 0.7874015748031497,
          "duration": 0.07692299999999364
        },
        {
          "name": "D2",
          "midi": 38,
          "time": 89.99990999999885,
          "velocity": 0.7874015748031497,
          "duration": 0.07692299999999364
        },
        {
          "name": "E2",
          "midi": 40,
          "time": 89.99990999999885,
          "velocity": 0.7874015748031497,
          "duration": 0.07692299999999364
        },
        {
          "name": "A3",
          "midi": 57,
          "time": 89.99990999999885,
          "velocity": 0.7874015748031497,
          "duration": 0.07692299999999364
        },
        {
          "name": "A#2",
          "midi": 46,
          "time": 89.99990999999885,
          "velocity": 0.7874015748031497,
          "duration": 0.07692299999999364
        },
        {
          "name": "A#2",
          "midi": 46,
          "time": 90.23067899999884,
          "velocity": 0.7874015748031497,
          "duration": 0.07692299999999364
        },
        {
          "name": "C2",
          "midi": 36,
          "time": 90.34606349999883,
          "velocity": 0.7874015748031497,
          "duration": 0.07692299999999364
        },
        {
          "name": "B1",
          "midi": 35,
          "time": 90.34606349999883,
          "velocity": 0.7874015748031497,
          "duration": 0.07692299999999364
        },
        {
          "name": "C2",
          "midi": 36,
          "time": 90.46144799999882,
          "velocity": 0.7874015748031497,
          "duration": 0.07692299999999364
        },
        {
          "name": "B1",
          "midi": 35,
          "time": 90.46144799999882,
          "velocity": 0.7874015748031497,
          "duration": 0.07692299999999364
        },
        {
          "name": "A3",
          "midi": 57,
          "time": 90.46144799999882,
          "velocity": 0.7874015748031497,
          "duration": 0.07692299999999364
        },
        {
          "name": "A#2",
          "midi": 46,
          "time": 90.46144799999882,
          "velocity": 0.7874015748031497,
          "duration": 0.07692299999999364
        },
        {
          "name": "C2",
          "midi": 36,
          "time": 90.69221699999882,
          "velocity": 0.7874015748031497,
          "duration": 0.07692299999999364
        },
        {
          "name": "B1",
          "midi": 35,
          "time": 90.69221699999882,
          "velocity": 0.7874015748031497,
          "duration": 0.07692299999999364
        },
        {
          "name": "A#2",
          "midi": 46,
          "time": 90.69221699999882,
          "velocity": 0.7874015748031497,
          "duration": 0.07692299999999364
        },
        {
          "name": "D2",
          "midi": 38,
          "time": 90.92298599999882,
          "velocity": 0.7874015748031497,
          "duration": 0.07692299999999364
        },
        {
          "name": "E2",
          "midi": 40,
          "time": 90.92298599999882,
          "velocity": 0.7874015748031497,
          "duration": 0.07692299999999364
        },
        {
          "name": "A3",
          "midi": 57,
          "time": 90.92298599999882,
          "velocity": 0.7874015748031497,
          "duration": 0.07692299999999364
        },
        {
          "name": "A#2",
          "midi": 46,
          "time": 90.92298599999882,
          "velocity": 0.7874015748031497,
          "duration": 0.07692299999999364
        },
        {
          "name": "A#2",
          "midi": 46,
          "time": 91.15375499999881,
          "velocity": 0.7874015748031497,
          "duration": 0.07692299999999364
        },
        {
          "name": "A#2",
          "midi": 46,
          "time": 91.3845239999988,
          "velocity": 0.7874015748031497,
          "duration": 0.07692299999999364
        },
        {
          "name": "E2",
          "midi": 40,
          "time": 91.3845239999988,
          "velocity": 0.7874015748031497,
          "duration": 0.03846149999999682
        },
        {
          "name": "D2",
          "midi": 38,
          "time": 91.3845239999988,
          "velocity": 0.7874015748031497,
          "duration": 0.03846149999999682
        },
        {
          "name": "C2",
          "midi": 36,
          "time": 91.3845239999988,
          "velocity": 0.7874015748031497,
          "duration": 0.07692299999999364
        },
        {
          "name": "E2",
          "midi": 40,
          "time": 91.4999084999988,
          "velocity": 0.7874015748031497,
          "duration": 0.03846149999999682
        },
        {
          "name": "D2",
          "midi": 38,
          "time": 91.4999084999988,
          "velocity": 0.7874015748031497,
          "duration": 0.03846149999999682
        },
        {
          "name": "C2",
          "midi": 36,
          "time": 91.4999084999988,
          "velocity": 0.7874015748031497,
          "duration": 0.07692299999999364
        },
        {
          "name": "G#2",
          "midi": 44,
          "time": 91.4999084999988,
          "velocity": 0.7874015748031497,
          "duration": 0.07692299999999364
        },
        {
          "name": "A#2",
          "midi": 46,
          "time": 91.61529299999879,
          "velocity": 0.7874015748031497,
          "duration": 0.07692299999999364
        },
        {
          "name": "E2",
          "midi": 40,
          "time": 91.73067749999878,
          "velocity": 0.7874015748031497,
          "duration": 0.03846149999999682
        },
        {
          "name": "E2",
          "midi": 40,
          "time": 91.78836974999878,
          "velocity": 0.7874015748031497,
          "duration": 0.03846149999999682
        },
        {
          "name": "A#2",
          "midi": 46,
          "time": 91.84606199999878,
          "velocity": 0.7874015748031497,
          "duration": 0.07692299999999364
        },
        {
          "name": "D2",
          "midi": 38,
          "time": 91.84606199999878,
          "velocity": 0.7874015748031497,
          "duration": 0.07692299999999364
        },
        {
          "name": "E2",
          "midi": 40,
          "time": 91.84606199999878,
          "velocity": 0.7874015748031497,
          "duration": 0.07692299999999364
        },
        {
          "name": "C2",
          "midi": 36,
          "time": 91.84606199999878,
          "velocity": 0.7874015748031497,
          "duration": 0.07692299999999364
        },
        {
          "name": "E2",
          "midi": 40,
          "time": 91.96144649999877,
          "velocity": 0.7874015748031497,
          "duration": 0.03846149999999682
        },
        {
          "name": "D2",
          "midi": 38,
          "time": 91.96144649999877,
          "velocity": 0.7874015748031497,
          "duration": 0.03846149999999682
        },
        {
          "name": "C2",
          "midi": 36,
          "time": 91.96144649999877,
          "velocity": 0.7874015748031497,
          "duration": 0.07692299999999364
        },
        {
          "name": "A#2",
          "midi": 46,
          "time": 92.07683099999876,
          "velocity": 0.7874015748031497,
          "duration": 0.07692299999999364
        },
        {
          "name": "E2",
          "midi": 40,
          "time": 92.19221549999875,
          "velocity": 0.7874015748031497,
          "duration": 0.03846149999999682
        },
        {
          "name": "D2",
          "midi": 38,
          "time": 92.19221549999875,
          "velocity": 0.7874015748031497,
          "duration": 0.03846149999999682
        },
        {
          "name": "C2",
          "midi": 36,
          "time": 92.19221549999875,
          "velocity": 0.7874015748031497,
          "duration": 0.07692299999999364
        },
        {
          "name": "E2",
          "midi": 40,
          "time": 105.69220199999874,
          "velocity": 0.7874015748031497,
          "duration": 0.03846149999999682
        },
        {
          "name": "D2",
          "midi": 38,
          "time": 105.69220199999874,
          "velocity": 0.7874015748031497,
          "duration": 0.03846149999999682
        },
        {
          "name": "C2",
          "midi": 36,
          "time": 105.69220199999874,
          "velocity": 0.7874015748031497,
          "duration": 0.07692299999999364
        },
        {
          "name": "E2",
          "midi": 40,
          "time": 106.03835549999874,
          "velocity": 0.7874015748031497,
          "duration": 0.03846149999999682
        },
        {
          "name": "E2",
          "midi": 40,
          "time": 106.09604774999875,
          "velocity": 0.7874015748031497,
          "duration": 0.03846149999999682
        },
        {
          "name": "D2",
          "midi": 38,
          "time": 106.15373999999875,
          "velocity": 0.7874015748031497,
          "duration": 0.07692299999999364
        },
        {
          "name": "E2",
          "midi": 40,
          "time": 106.15373999999875,
          "velocity": 0.7874015748031497,
          "duration": 0.07692299999999364
        },
        {
          "name": "C2",
          "midi": 36,
          "time": 106.15373999999875,
          "velocity": 0.7874015748031497,
          "duration": 0.07692299999999364
        },
        {
          "name": "E2",
          "midi": 40,
          "time": 106.26912449999874,
          "velocity": 0.7874015748031497,
          "duration": 0.03846149999999682
        },
        {
          "name": "D2",
          "midi": 38,
          "time": 106.26912449999874,
          "velocity": 0.7874015748031497,
          "duration": 0.03846149999999682
        },
        {
          "name": "C2",
          "midi": 36,
          "time": 106.26912449999874,
          "velocity": 0.7874015748031497,
          "duration": 0.07692299999999364
        },
        {
          "name": "E2",
          "midi": 40,
          "time": 106.49989349999873,
          "velocity": 0.7874015748031497,
          "duration": 0.03846149999999682
        },
        {
          "name": "D2",
          "midi": 38,
          "time": 106.49989349999873,
          "velocity": 0.7874015748031497,
          "duration": 0.03846149999999682
        },
        {
          "name": "C2",
          "midi": 36,
          "time": 106.49989349999873,
          "velocity": 0.7874015748031497,
          "duration": 0.07692299999999364
        },
        {
          "name": "E2",
          "midi": 40,
          "time": 106.73066249999873,
          "velocity": 0.7874015748031497,
          "duration": 0.03846149999999682
        },
        {
          "name": "D2",
          "midi": 38,
          "time": 106.73066249999873,
          "velocity": 0.7874015748031497,
          "duration": 0.03846149999999682
        },
        {
          "name": "C2",
          "midi": 36,
          "time": 106.73066249999873,
          "velocity": 0.7874015748031497,
          "duration": 0.07692299999999364
        },
        {
          "name": "E2",
          "midi": 40,
          "time": 106.96143149999872,
          "velocity": 0.7874015748031497,
          "duration": 0.03846149999999682
        },
        {
          "name": "D2",
          "midi": 38,
          "time": 106.96143149999872,
          "velocity": 0.7874015748031497,
          "duration": 0.03846149999999682
        },
        {
          "name": "C2",
          "midi": 36,
          "time": 106.96143149999872,
          "velocity": 0.7874015748031497,
          "duration": 0.07692299999999364
        },
        {
          "name": "C2",
          "midi": 36,
          "time": 107.07681599999871,
          "velocity": 0.7874015748031497,
          "duration": 0.07692299999999364
        },
        {
          "name": "B1",
          "midi": 35,
          "time": 107.07681599999871,
          "velocity": 0.7874015748031497,
          "duration": 0.07692299999999364
        },
        {
          "name": "A3",
          "midi": 57,
          "time": 107.07681599999871,
          "velocity": 0.7874015748031497,
          "duration": 0.07692299999999364
        },
        {
          "name": "A#2",
          "midi": 46,
          "time": 107.07681599999871,
          "velocity": 0.7874015748031497,
          "duration": 0.07692299999999364
        },
        {
          "name": "C2",
          "midi": 36,
          "time": 107.30758499999871,
          "velocity": 0.7874015748031497,
          "duration": 0.07692299999999364
        },
        {
          "name": "B1",
          "midi": 35,
          "time": 107.30758499999871,
          "velocity": 0.7874015748031497,
          "duration": 0.07692299999999364
        },
        {
          "name": "A#2",
          "midi": 46,
          "time": 107.30758499999871,
          "velocity": 0.7874015748031497,
          "duration": 0.07692299999999364
        },
        {
          "name": "D2",
          "midi": 38,
          "time": 107.5383539999987,
          "velocity": 0.7874015748031497,
          "duration": 0.07692299999999364
        },
        {
          "name": "E2",
          "midi": 40,
          "time": 107.5383539999987,
          "velocity": 0.7874015748031497,
          "duration": 0.07692299999999364
        },
        {
          "name": "A#2",
          "midi": 46,
          "time": 107.5383539999987,
          "velocity": 0.7874015748031497,
          "duration": 0.07692299999999364
        },
        {
          "name": "A#2",
          "midi": 46,
          "time": 107.7691229999987,
          "velocity": 0.7874015748031497,
          "duration": 0.07692299999999364
        },
        {
          "name": "C2",
          "midi": 36,
          "time": 107.88450749999869,
          "velocity": 0.7874015748031497,
          "duration": 0.07692299999999364
        },
        {
          "name": "B1",
          "midi": 35,
          "time": 107.88450749999869,
          "velocity": 0.7874015748031497,
          "duration": 0.07692299999999364
        },
        {
          "name": "E2",
          "midi": 40,
          "time": 107.88450749999869,
          "velocity": 0.7874015748031497,
          "duration": 0.07692299999999364
        },
        {
          "name": "A#2",
          "midi": 46,
          "time": 107.99989199999868,
          "velocity": 0.7874015748031497,
          "duration": 0.07692299999999364
        },
        {
          "name": "G#2",
          "midi": 44,
          "time": 108.11527649999867,
          "velocity": 0.7874015748031497,
          "duration": 0.07692299999999364
        },
        {
          "name": "C2",
          "midi": 36,
          "time": 108.23066099999866,
          "velocity": 0.7874015748031497,
          "duration": 0.07692299999999364
        },
        {
          "name": "B1",
          "midi": 35,
          "time": 108.23066099999866,
          "velocity": 0.7874015748031497,
          "duration": 0.07692299999999364
        },
        {
          "name": "A#2",
          "midi": 46,
          "time": 108.23066099999866,
          "velocity": 0.7874015748031497,
          "duration": 0.07692299999999364
        },
        {
          "name": "D2",
          "midi": 38,
          "time": 108.46142999999866,
          "velocity": 0.7874015748031497,
          "duration": 0.07692299999999364
        },
        {
          "name": "E2",
          "midi": 40,
          "time": 108.46142999999866,
          "velocity": 0.7874015748031497,
          "duration": 0.07692299999999364
        },
        {
          "name": "A#2",
          "midi": 46,
          "time": 108.46142999999866,
          "velocity": 0.7874015748031497,
          "duration": 0.07692299999999364
        },
        {
          "name": "A#2",
          "midi": 46,
          "time": 108.69219899999865,
          "velocity": 0.7874015748031497,
          "duration": 0.07692299999999364
        },
        {
          "name": "C2",
          "midi": 36,
          "time": 108.80758349999864,
          "velocity": 0.7874015748031497,
          "duration": 0.07692299999999364
        },
        {
          "name": "B1",
          "midi": 35,
          "time": 108.80758349999864,
          "velocity": 0.7874015748031497,
          "duration": 0.07692299999999364
        },
        {
          "name": "C2",
          "midi": 36,
          "time": 108.92296799999863,
          "velocity": 0.7874015748031497,
          "duration": 0.07692299999999364
        },
        {
          "name": "B1",
          "midi": 35,
          "time": 108.92296799999863,
          "velocity": 0.7874015748031497,
          "duration": 0.07692299999999364
        },
        {
          "name": "A#2",
          "midi": 46,
          "time": 108.92296799999863,
          "velocity": 0.7874015748031497,
          "duration": 0.07692299999999364
        },
        {
          "name": "C2",
          "midi": 36,
          "time": 109.15373699999863,
          "velocity": 0.7874015748031497,
          "duration": 0.07692299999999364
        },
        {
          "name": "B1",
          "midi": 35,
          "time": 109.15373699999863,
          "velocity": 0.7874015748031497,
          "duration": 0.07692299999999364
        },
        {
          "name": "A#2",
          "midi": 46,
          "time": 109.15373699999863,
          "velocity": 0.7874015748031497,
          "duration": 0.07692299999999364
        },
        {
          "name": "D2",
          "midi": 38,
          "time": 109.38450599999862,
          "velocity": 0.7874015748031497,
          "duration": 0.07692299999999364
        },
        {
          "name": "E2",
          "midi": 40,
          "time": 109.38450599999862,
          "velocity": 0.7874015748031497,
          "duration": 0.07692299999999364
        },
        {
          "name": "A#2",
          "midi": 46,
          "time": 109.38450599999862,
          "velocity": 0.7874015748031497,
          "duration": 0.07692299999999364
        },
        {
          "name": "A#2",
          "midi": 46,
          "time": 109.61527499999862,
          "velocity": 0.7874015748031497,
          "duration": 0.07692299999999364
        },
        {
          "name": "C2",
          "midi": 36,
          "time": 109.73065949999861,
          "velocity": 0.7874015748031497,
          "duration": 0.07692299999999364
        },
        {
          "name": "B1",
          "midi": 35,
          "time": 109.73065949999861,
          "velocity": 0.7874015748031497,
          "duration": 0.07692299999999364
        },
        {
          "name": "E2",
          "midi": 40,
          "time": 109.73065949999861,
          "velocity": 0.7874015748031497,
          "duration": 0.07692299999999364
        },
        {
          "name": "A#2",
          "midi": 46,
          "time": 109.8460439999986,
          "velocity": 0.7874015748031497,
          "duration": 0.07692299999999364
        },
        {
          "name": "G#2",
          "midi": 44,
          "time": 109.96142849999859,
          "velocity": 0.7874015748031497,
          "duration": 0.07692299999999364
        },
        {
          "name": "C2",
          "midi": 36,
          "time": 110.07681299999858,
          "velocity": 0.7874015748031497,
          "duration": 0.07692299999999364
        },
        {
          "name": "B1",
          "midi": 35,
          "time": 110.07681299999858,
          "velocity": 0.7874015748031497,
          "duration": 0.07692299999999364
        },
        {
          "name": "A#2",
          "midi": 46,
          "time": 110.07681299999858,
          "velocity": 0.7874015748031497,
          "duration": 0.07692299999999364
        },
        {
          "name": "D2",
          "midi": 38,
          "time": 110.30758199999858,
          "velocity": 0.7874015748031497,
          "duration": 0.07692299999999364
        },
        {
          "name": "E2",
          "midi": 40,
          "time": 110.30758199999858,
          "velocity": 0.7874015748031497,
          "duration": 0.07692299999999364
        },
        {
          "name": "A#2",
          "midi": 46,
          "time": 110.30758199999858,
          "velocity": 0.7874015748031497,
          "duration": 0.07692299999999364
        },
        {
          "name": "A#2",
          "midi": 46,
          "time": 110.53835099999857,
          "velocity": 0.7874015748031497,
          "duration": 0.07692299999999364
        },
        {
          "name": "C2",
          "midi": 36,
          "time": 110.65373549999856,
          "velocity": 0.7874015748031497,
          "duration": 0.07692299999999364
        },
        {
          "name": "B1",
          "midi": 35,
          "time": 110.65373549999856,
          "velocity": 0.7874015748031497,
          "duration": 0.07692299999999364
        },
        {
          "name": "C2",
          "midi": 36,
          "time": 110.76911999999855,
          "velocity": 0.7874015748031497,
          "duration": 0.07692299999999364
        },
        {
          "name": "B1",
          "midi": 35,
          "time": 110.76911999999855,
          "velocity": 0.7874015748031497,
          "duration": 0.07692299999999364
        },
        {
          "name": "A#2",
          "midi": 46,
          "time": 110.76911999999855,
          "velocity": 0.7874015748031497,
          "duration": 0.07692299999999364
        },
        {
          "name": "C2",
          "midi": 36,
          "time": 110.99988899999855,
          "velocity": 0.7874015748031497,
          "duration": 0.07692299999999364
        },
        {
          "name": "B1",
          "midi": 35,
          "time": 110.99988899999855,
          "velocity": 0.7874015748031497,
          "duration": 0.07692299999999364
        },
        {
          "name": "A#2",
          "midi": 46,
          "time": 110.99988899999855,
          "velocity": 0.7874015748031497,
          "duration": 0.07692299999999364
        },
        {
          "name": "D2",
          "midi": 38,
          "time": 111.23065799999854,
          "velocity": 0.7874015748031497,
          "duration": 0.07692299999999364
        },
        {
          "name": "E2",
          "midi": 40,
          "time": 111.23065799999854,
          "velocity": 0.7874015748031497,
          "duration": 0.07692299999999364
        },
        {
          "name": "A#2",
          "midi": 46,
          "time": 111.23065799999854,
          "velocity": 0.7874015748031497,
          "duration": 0.07692299999999364
        },
        {
          "name": "A#2",
          "midi": 46,
          "time": 111.46142699999854,
          "velocity": 0.7874015748031497,
          "duration": 0.07692299999999364
        },
        {
          "name": "C2",
          "midi": 36,
          "time": 111.57681149999853,
          "velocity": 0.7874015748031497,
          "duration": 0.07692299999999364
        },
        {
          "name": "B1",
          "midi": 35,
          "time": 111.57681149999853,
          "velocity": 0.7874015748031497,
          "duration": 0.07692299999999364
        },
        {
          "name": "E2",
          "midi": 40,
          "time": 111.57681149999853,
          "velocity": 0.7874015748031497,
          "duration": 0.07692299999999364
        },
        {
          "name": "A#2",
          "midi": 46,
          "time": 111.69219599999852,
          "velocity": 0.7874015748031497,
          "duration": 0.07692299999999364
        },
        {
          "name": "G#2",
          "midi": 44,
          "time": 111.80758049999851,
          "velocity": 0.7874015748031497,
          "duration": 0.07692299999999364
        },
        {
          "name": "C2",
          "midi": 36,
          "time": 111.9229649999985,
          "velocity": 0.7874015748031497,
          "duration": 0.07692299999999364
        },
        {
          "name": "B1",
          "midi": 35,
          "time": 111.9229649999985,
          "velocity": 0.7874015748031497,
          "duration": 0.07692299999999364
        },
        {
          "name": "A#2",
          "midi": 46,
          "time": 111.9229649999985,
          "velocity": 0.7874015748031497,
          "duration": 0.07692299999999364
        },
        {
          "name": "D2",
          "midi": 38,
          "time": 112.1537339999985,
          "velocity": 0.7874015748031497,
          "duration": 0.07692299999999364
        },
        {
          "name": "E2",
          "midi": 40,
          "time": 112.1537339999985,
          "velocity": 0.7874015748031497,
          "duration": 0.07692299999999364
        },
        {
          "name": "A#2",
          "midi": 46,
          "time": 112.1537339999985,
          "velocity": 0.7874015748031497,
          "duration": 0.07692299999999364
        },
        {
          "name": "A#2",
          "midi": 46,
          "time": 112.38450299999849,
          "velocity": 0.7874015748031497,
          "duration": 0.07692299999999364
        },
        {
          "name": "C2",
          "midi": 36,
          "time": 112.49988749999848,
          "velocity": 0.7874015748031497,
          "duration": 0.07692299999999364
        },
        {
          "name": "B1",
          "midi": 35,
          "time": 112.49988749999848,
          "velocity": 0.7874015748031497,
          "duration": 0.07692299999999364
        },
        {
          "name": "C2",
          "midi": 36,
          "time": 112.61527199999847,
          "velocity": 0.7874015748031497,
          "duration": 0.07692299999999364
        },
        {
          "name": "B1",
          "midi": 35,
          "time": 112.61527199999847,
          "velocity": 0.7874015748031497,
          "duration": 0.07692299999999364
        },
        {
          "name": "A#2",
          "midi": 46,
          "time": 112.61527199999847,
          "velocity": 0.7874015748031497,
          "duration": 0.07692299999999364
        },
        {
          "name": "C2",
          "midi": 36,
          "time": 112.84604099999846,
          "velocity": 0.7874015748031497,
          "duration": 0.07692299999999364
        },
        {
          "name": "B1",
          "midi": 35,
          "time": 112.84604099999846,
          "velocity": 0.7874015748031497,
          "duration": 0.07692299999999364
        },
        {
          "name": "A#2",
          "midi": 46,
          "time": 112.84604099999846,
          "velocity": 0.7874015748031497,
          "duration": 0.07692299999999364
        },
        {
          "name": "D2",
          "midi": 38,
          "time": 113.07680999999846,
          "velocity": 0.7874015748031497,
          "duration": 0.07692299999999364
        },
        {
          "name": "E2",
          "midi": 40,
          "time": 113.07680999999846,
          "velocity": 0.7874015748031497,
          "duration": 0.07692299999999364
        },
        {
          "name": "A#2",
          "midi": 46,
          "time": 113.07680999999846,
          "velocity": 0.7874015748031497,
          "duration": 0.07692299999999364
        },
        {
          "name": "A#2",
          "midi": 46,
          "time": 113.30757899999846,
          "velocity": 0.7874015748031497,
          "duration": 0.07692299999999364
        },
        {
          "name": "C2",
          "midi": 36,
          "time": 113.42296349999845,
          "velocity": 0.7874015748031497,
          "duration": 0.07692299999999364
        },
        {
          "name": "B1",
          "midi": 35,
          "time": 113.42296349999845,
          "velocity": 0.7874015748031497,
          "duration": 0.07692299999999364
        },
        {
          "name": "E2",
          "midi": 40,
          "time": 113.42296349999845,
          "velocity": 0.7874015748031497,
          "duration": 0.07692299999999364
        },
        {
          "name": "A#2",
          "midi": 46,
          "time": 113.53834799999844,
          "velocity": 0.7874015748031497,
          "duration": 0.07692299999999364
        },
        {
          "name": "G#2",
          "midi": 44,
          "time": 113.65373249999843,
          "velocity": 0.7874015748031497,
          "duration": 0.07692299999999364
        },
        {
          "name": "C2",
          "midi": 36,
          "time": 113.76911699999842,
          "velocity": 0.7874015748031497,
          "duration": 0.07692299999999364
        },
        {
          "name": "B1",
          "midi": 35,
          "time": 113.76911699999842,
          "velocity": 0.7874015748031497,
          "duration": 0.07692299999999364
        },
        {
          "name": "A#2",
          "midi": 46,
          "time": 113.76911699999842,
          "velocity": 0.7874015748031497,
          "duration": 0.07692299999999364
        },
        {
          "name": "D2",
          "midi": 38,
          "time": 113.99988599999841,
          "velocity": 0.7874015748031497,
          "duration": 0.07692299999999364
        },
        {
          "name": "E2",
          "midi": 40,
          "time": 113.99988599999841,
          "velocity": 0.7874015748031497,
          "duration": 0.07692299999999364
        },
        {
          "name": "A3",
          "midi": 57,
          "time": 113.99988599999841,
          "velocity": 0.7874015748031497,
          "duration": 0.07692299999999364
        },
        {
          "name": "A#2",
          "midi": 46,
          "time": 113.99988599999841,
          "velocity": 0.7874015748031497,
          "duration": 0.07692299999999364
        },
        {
          "name": "A#2",
          "midi": 46,
          "time": 114.23065499999841,
          "velocity": 0.7874015748031497,
          "duration": 0.07692299999999364
        },
        {
          "name": "A3",
          "midi": 57,
          "time": 114.23065499999841,
          "velocity": 0.7874015748031497,
          "duration": 0.07692299999999364
        },
        {
          "name": "C2",
          "midi": 36,
          "time": 114.3460394999984,
          "velocity": 0.7874015748031497,
          "duration": 0.07692299999999364
        },
        {
          "name": "B1",
          "midi": 35,
          "time": 114.3460394999984,
          "velocity": 0.7874015748031497,
          "duration": 0.07692299999999364
        },
        {
          "name": "C2",
          "midi": 36,
          "time": 114.46142399999839,
          "velocity": 0.7874015748031497,
          "duration": 0.07692299999999364
        },
        {
          "name": "B1",
          "midi": 35,
          "time": 114.46142399999839,
          "velocity": 0.7874015748031497,
          "duration": 0.07692299999999364
        },
        {
          "name": "A3",
          "midi": 57,
          "time": 114.46142399999839,
          "velocity": 0.7874015748031497,
          "duration": 0.07692299999999364
        },
        {
          "name": "A#2",
          "midi": 46,
          "time": 114.46142399999839,
          "velocity": 0.7874015748031497,
          "duration": 0.07692299999999364
        },
        {
          "name": "C2",
          "midi": 36,
          "time": 114.69219299999838,
          "velocity": 0.7874015748031497,
          "duration": 0.07692299999999364
        },
        {
          "name": "B1",
          "midi": 35,
          "time": 114.69219299999838,
          "velocity": 0.7874015748031497,
          "duration": 0.07692299999999364
        },
        {
          "name": "A#2",
          "midi": 46,
          "time": 114.69219299999838,
          "velocity": 0.7874015748031497,
          "duration": 0.07692299999999364
        },
        {
          "name": "D2",
          "midi": 38,
          "time": 114.92296199999838,
          "velocity": 0.7874015748031497,
          "duration": 0.07692299999999364
        },
        {
          "name": "E2",
          "midi": 40,
          "time": 114.92296199999838,
          "velocity": 0.7874015748031497,
          "duration": 0.07692299999999364
        },
        {
          "name": "A#2",
          "midi": 46,
          "time": 114.92296199999838,
          "velocity": 0.7874015748031497,
          "duration": 0.07692299999999364
        },
        {
          "name": "A#2",
          "midi": 46,
          "time": 115.15373099999837,
          "velocity": 0.7874015748031497,
          "duration": 0.07692299999999364
        },
        {
          "name": "C2",
          "midi": 36,
          "time": 115.26911549999836,
          "velocity": 0.7874015748031497,
          "duration": 0.07692299999999364
        },
        {
          "name": "B1",
          "midi": 35,
          "time": 115.26911549999836,
          "velocity": 0.7874015748031497,
          "duration": 0.07692299999999364
        },
        {
          "name": "E2",
          "midi": 40,
          "time": 115.26911549999836,
          "velocity": 0.7874015748031497,
          "duration": 0.07692299999999364
        },
        {
          "name": "A#2",
          "midi": 46,
          "time": 115.38449999999835,
          "velocity": 0.7874015748031497,
          "duration": 0.07692299999999364
        },
        {
          "name": "G#2",
          "midi": 44,
          "time": 115.49988449999834,
          "velocity": 0.7874015748031497,
          "duration": 0.07692299999999364
        },
        {
          "name": "C2",
          "midi": 36,
          "time": 115.61526899999834,
          "velocity": 0.7874015748031497,
          "duration": 0.07692299999999364
        },
        {
          "name": "B1",
          "midi": 35,
          "time": 115.61526899999834,
          "velocity": 0.7874015748031497,
          "duration": 0.07692299999999364
        },
        {
          "name": "A#2",
          "midi": 46,
          "time": 115.61526899999834,
          "velocity": 0.7874015748031497,
          "duration": 0.07692299999999364
        },
        {
          "name": "D2",
          "midi": 38,
          "time": 115.84603799999833,
          "velocity": 0.7874015748031497,
          "duration": 0.07692299999999364
        },
        {
          "name": "E2",
          "midi": 40,
          "time": 115.84603799999833,
          "velocity": 0.7874015748031497,
          "duration": 0.07692299999999364
        },
        {
          "name": "A#2",
          "midi": 46,
          "time": 115.84603799999833,
          "velocity": 0.7874015748031497,
          "duration": 0.07692299999999364
        },
        {
          "name": "A#2",
          "midi": 46,
          "time": 116.07680699999833,
          "velocity": 0.7874015748031497,
          "duration": 0.07692299999999364
        },
        {
          "name": "C2",
          "midi": 36,
          "time": 116.19219149999832,
          "velocity": 0.7874015748031497,
          "duration": 0.07692299999999364
        },
        {
          "name": "B1",
          "midi": 35,
          "time": 116.19219149999832,
          "velocity": 0.7874015748031497,
          "duration": 0.07692299999999364
        },
        {
          "name": "C2",
          "midi": 36,
          "time": 116.3075759999983,
          "velocity": 0.7874015748031497,
          "duration": 0.07692299999999364
        },
        {
          "name": "B1",
          "midi": 35,
          "time": 116.3075759999983,
          "velocity": 0.7874015748031497,
          "duration": 0.07692299999999364
        },
        {
          "name": "A#2",
          "midi": 46,
          "time": 116.3075759999983,
          "velocity": 0.7874015748031497,
          "duration": 0.07692299999999364
        },
        {
          "name": "C2",
          "midi": 36,
          "time": 116.5383449999983,
          "velocity": 0.7874015748031497,
          "duration": 0.07692299999999364
        },
        {
          "name": "B1",
          "midi": 35,
          "time": 116.5383449999983,
          "velocity": 0.7874015748031497,
          "duration": 0.07692299999999364
        },
        {
          "name": "A#2",
          "midi": 46,
          "time": 116.5383449999983,
          "velocity": 0.7874015748031497,
          "duration": 0.07692299999999364
        },
        {
          "name": "D2",
          "midi": 38,
          "time": 116.7691139999983,
          "velocity": 0.7874015748031497,
          "duration": 0.07692299999999364
        },
        {
          "name": "E2",
          "midi": 40,
          "time": 116.7691139999983,
          "velocity": 0.7874015748031497,
          "duration": 0.07692299999999364
        },
        {
          "name": "A#2",
          "midi": 46,
          "time": 116.7691139999983,
          "velocity": 0.7874015748031497,
          "duration": 0.07692299999999364
        },
        {
          "name": "A#2",
          "midi": 46,
          "time": 116.99988299999829,
          "velocity": 0.7874015748031497,
          "duration": 0.07692299999999364
        },
        {
          "name": "C2",
          "midi": 36,
          "time": 117.11526749999828,
          "velocity": 0.7874015748031497,
          "duration": 0.07692299999999364
        },
        {
          "name": "B1",
          "midi": 35,
          "time": 117.11526749999828,
          "velocity": 0.7874015748031497,
          "duration": 0.07692299999999364
        },
        {
          "name": "E2",
          "midi": 40,
          "time": 117.11526749999828,
          "velocity": 0.7874015748031497,
          "duration": 0.07692299999999364
        },
        {
          "name": "A#2",
          "midi": 46,
          "time": 117.23065199999827,
          "velocity": 0.7874015748031497,
          "duration": 0.07692299999999364
        },
        {
          "name": "G#2",
          "midi": 44,
          "time": 117.34603649999826,
          "velocity": 0.7874015748031497,
          "duration": 0.07692299999999364
        },
        {
          "name": "C2",
          "midi": 36,
          "time": 117.46142099999825,
          "velocity": 0.7874015748031497,
          "duration": 0.07692299999999364
        },
        {
          "name": "B1",
          "midi": 35,
          "time": 117.46142099999825,
          "velocity": 0.7874015748031497,
          "duration": 0.07692299999999364
        },
        {
          "name": "A#2",
          "midi": 46,
          "time": 117.46142099999825,
          "velocity": 0.7874015748031497,
          "duration": 0.07692299999999364
        },
        {
          "name": "D2",
          "midi": 38,
          "time": 117.69218999999825,
          "velocity": 0.7874015748031497,
          "duration": 0.07692299999999364
        },
        {
          "name": "E2",
          "midi": 40,
          "time": 117.69218999999825,
          "velocity": 0.7874015748031497,
          "duration": 0.07692299999999364
        },
        {
          "name": "A#2",
          "midi": 46,
          "time": 117.69218999999825,
          "velocity": 0.7874015748031497,
          "duration": 0.07692299999999364
        },
        {
          "name": "A#2",
          "midi": 46,
          "time": 117.92295899999824,
          "velocity": 0.7874015748031497,
          "duration": 0.07692299999999364
        },
        {
          "name": "C2",
          "midi": 36,
          "time": 118.03834349999823,
          "velocity": 0.7874015748031497,
          "duration": 0.07692299999999364
        },
        {
          "name": "B1",
          "midi": 35,
          "time": 118.03834349999823,
          "velocity": 0.7874015748031497,
          "duration": 0.07692299999999364
        },
        {
          "name": "C2",
          "midi": 36,
          "time": 118.15372799999822,
          "velocity": 0.7874015748031497,
          "duration": 0.07692299999999364
        },
        {
          "name": "B1",
          "midi": 35,
          "time": 118.15372799999822,
          "velocity": 0.7874015748031497,
          "duration": 0.07692299999999364
        },
        {
          "name": "A#2",
          "midi": 46,
          "time": 118.15372799999822,
          "velocity": 0.7874015748031497,
          "duration": 0.07692299999999364
        },
        {
          "name": "C2",
          "midi": 36,
          "time": 118.38449699999822,
          "velocity": 0.7874015748031497,
          "duration": 0.07692299999999364
        },
        {
          "name": "B1",
          "midi": 35,
          "time": 118.38449699999822,
          "velocity": 0.7874015748031497,
          "duration": 0.07692299999999364
        },
        {
          "name": "A#2",
          "midi": 46,
          "time": 118.38449699999822,
          "velocity": 0.7874015748031497,
          "duration": 0.07692299999999364
        },
        {
          "name": "D2",
          "midi": 38,
          "time": 118.61526599999821,
          "velocity": 0.7874015748031497,
          "duration": 0.07692299999999364
        },
        {
          "name": "E2",
          "midi": 40,
          "time": 118.61526599999821,
          "velocity": 0.7874015748031497,
          "duration": 0.07692299999999364
        },
        {
          "name": "A#2",
          "midi": 46,
          "time": 118.61526599999821,
          "velocity": 0.7874015748031497,
          "duration": 0.07692299999999364
        },
        {
          "name": "A#2",
          "midi": 46,
          "time": 118.84603499999821,
          "velocity": 0.7874015748031497,
          "duration": 0.07692299999999364
        },
        {
          "name": "C2",
          "midi": 36,
          "time": 118.9614194999982,
          "velocity": 0.7874015748031497,
          "duration": 0.07692299999999364
        },
        {
          "name": "B1",
          "midi": 35,
          "time": 118.9614194999982,
          "velocity": 0.7874015748031497,
          "duration": 0.07692299999999364
        },
        {
          "name": "E2",
          "midi": 40,
          "time": 118.9614194999982,
          "velocity": 0.7874015748031497,
          "duration": 0.07692299999999364
        },
        {
          "name": "A#2",
          "midi": 46,
          "time": 119.07680399999819,
          "velocity": 0.7874015748031497,
          "duration": 0.07692299999999364
        },
        {
          "name": "G#2",
          "midi": 44,
          "time": 119.19218849999818,
          "velocity": 0.7874015748031497,
          "duration": 0.07692299999999364
        },
        {
          "name": "C2",
          "midi": 36,
          "time": 119.30757299999817,
          "velocity": 0.7874015748031497,
          "duration": 0.07692299999999364
        },
        {
          "name": "B1",
          "midi": 35,
          "time": 119.30757299999817,
          "velocity": 0.7874015748031497,
          "duration": 0.07692299999999364
        },
        {
          "name": "A#2",
          "midi": 46,
          "time": 119.30757299999817,
          "velocity": 0.7874015748031497,
          "duration": 0.07692299999999364
        },
        {
          "name": "D2",
          "midi": 38,
          "time": 119.53834199999817,
          "velocity": 0.7874015748031497,
          "duration": 0.07692299999999364
        },
        {
          "name": "E2",
          "midi": 40,
          "time": 119.53834199999817,
          "velocity": 0.7874015748031497,
          "duration": 0.07692299999999364
        },
        {
          "name": "A#2",
          "midi": 46,
          "time": 119.53834199999817,
          "velocity": 0.7874015748031497,
          "duration": 0.07692299999999364
        },
        {
          "name": "A#2",
          "midi": 46,
          "time": 119.76911099999816,
          "velocity": 0.7874015748031497,
          "duration": 0.07692299999999364
        },
        {
          "name": "C2",
          "midi": 36,
          "time": 119.88449549999815,
          "velocity": 0.7874015748031497,
          "duration": 0.07692299999999364
        },
        {
          "name": "B1",
          "midi": 35,
          "time": 119.88449549999815,
          "velocity": 0.7874015748031497,
          "duration": 0.07692299999999364
        },
        {
          "name": "C2",
          "midi": 36,
          "time": 119.99987999999814,
          "velocity": 0.7874015748031497,
          "duration": 0.07692299999999364
        },
        {
          "name": "B1",
          "midi": 35,
          "time": 119.99987999999814,
          "velocity": 0.7874015748031497,
          "duration": 0.07692299999999364
        },
        {
          "name": "A#2",
          "midi": 46,
          "time": 119.99987999999814,
          "velocity": 0.7874015748031497,
          "duration": 0.07692299999999364
        },
        {
          "name": "C2",
          "midi": 36,
          "time": 120.23064899999814,
          "velocity": 0.7874015748031497,
          "duration": 0.07692299999999364
        },
        {
          "name": "B1",
          "midi": 35,
          "time": 120.23064899999814,
          "velocity": 0.7874015748031497,
          "duration": 0.07692299999999364
        },
        {
          "name": "A#2",
          "midi": 46,
          "time": 120.23064899999814,
          "velocity": 0.7874015748031497,
          "duration": 0.07692299999999364
        },
        {
          "name": "D2",
          "midi": 38,
          "time": 120.46141799999813,
          "velocity": 0.7874015748031497,
          "duration": 0.07692299999999364
        },
        {
          "name": "E2",
          "midi": 40,
          "time": 120.46141799999813,
          "velocity": 0.7874015748031497,
          "duration": 0.07692299999999364
        },
        {
          "name": "A#2",
          "midi": 46,
          "time": 120.46141799999813,
          "velocity": 0.7874015748031497,
          "duration": 0.07692299999999364
        },
        {
          "name": "A#2",
          "midi": 46,
          "time": 120.69218699999813,
          "velocity": 0.7874015748031497,
          "duration": 0.07692299999999364
        },
        {
          "name": "A#2",
          "midi": 46,
          "time": 120.92295599999812,
          "velocity": 0.7874015748031497,
          "duration": 0.07692299999999364
        },
        {
          "name": "E2",
          "midi": 40,
          "time": 120.92295599999812,
          "velocity": 0.7874015748031497,
          "duration": 0.03846149999999682
        },
        {
          "name": "D2",
          "midi": 38,
          "time": 120.92295599999812,
          "velocity": 0.7874015748031497,
          "duration": 0.03846149999999682
        },
        {
          "name": "C2",
          "midi": 36,
          "time": 120.92295599999812,
          "velocity": 0.7874015748031497,
          "duration": 0.07692299999999364
        },
        {
          "name": "E2",
          "midi": 40,
          "time": 121.03834049999811,
          "velocity": 0.7874015748031497,
          "duration": 0.03846149999999682
        },
        {
          "name": "D2",
          "midi": 38,
          "time": 121.03834049999811,
          "velocity": 0.7874015748031497,
          "duration": 0.03846149999999682
        },
        {
          "name": "C2",
          "midi": 36,
          "time": 121.03834049999811,
          "velocity": 0.7874015748031497,
          "duration": 0.07692299999999364
        },
        {
          "name": "G#2",
          "midi": 44,
          "time": 121.03834049999811,
          "velocity": 0.7874015748031497,
          "duration": 0.07692299999999364
        },
        {
          "name": "A#2",
          "midi": 46,
          "time": 121.1537249999981,
          "velocity": 0.7874015748031497,
          "duration": 0.07692299999999364
        },
        {
          "name": "E2",
          "midi": 40,
          "time": 121.2691094999981,
          "velocity": 0.7874015748031497,
          "duration": 0.03846149999999682
        },
        {
          "name": "E2",
          "midi": 40,
          "time": 121.3268017499981,
          "velocity": 0.7874015748031497,
          "duration": 0.03846149999999682
        },
        {
          "name": "A#2",
          "midi": 46,
          "time": 121.3844939999981,
          "velocity": 0.7874015748031497,
          "duration": 0.07692299999999364
        },
        {
          "name": "D2",
          "midi": 38,
          "time": 121.3844939999981,
          "velocity": 0.7874015748031497,
          "duration": 0.07692299999999364
        },
        {
          "name": "E2",
          "midi": 40,
          "time": 121.3844939999981,
          "velocity": 0.7874015748031497,
          "duration": 0.07692299999999364
        },
        {
          "name": "C2",
          "midi": 36,
          "time": 121.3844939999981,
          "velocity": 0.7874015748031497,
          "duration": 0.07692299999999364
        },
        {
          "name": "E2",
          "midi": 40,
          "time": 121.49987849999809,
          "velocity": 0.7874015748031497,
          "duration": 0.03846149999999682
        },
        {
          "name": "D2",
          "midi": 38,
          "time": 121.49987849999809,
          "velocity": 0.7874015748031497,
          "duration": 0.03846149999999682
        },
        {
          "name": "C2",
          "midi": 36,
          "time": 121.49987849999809,
          "velocity": 0.7874015748031497,
          "duration": 0.07692299999999364
        },
        {
          "name": "A#2",
          "midi": 46,
          "time": 121.61526299999808,
          "velocity": 0.7874015748031497,
          "duration": 0.07692299999999364
        },
        {
          "name": "E2",
          "midi": 40,
          "time": 121.73064749999807,
          "velocity": 0.7874015748031497,
          "duration": 0.03846149999999682
        },
        {
          "name": "D2",
          "midi": 38,
          "time": 121.73064749999807,
          "velocity": 0.7874015748031497,
          "duration": 0.03846149999999682
        },
        {
          "name": "C2",
          "midi": 36,
          "time": 121.73064749999807,
          "velocity": 0.7874015748031497,
          "duration": 0.07692299999999364
        },
        {
          "name": "C2",
          "midi": 36,
          "time": 121.84603199999806,
          "velocity": 0.7874015748031497,
          "duration": 0.07692299999999364
        },
        {
          "name": "B1",
          "midi": 35,
          "time": 121.84603199999806,
          "velocity": 0.7874015748031497,
          "duration": 0.07692299999999364
        },
        {
          "name": "A3",
          "midi": 57,
          "time": 121.84603199999806,
          "velocity": 0.7874015748031497,
          "duration": 0.07692299999999364
        },
        {
          "name": "A#2",
          "midi": 46,
          "time": 121.84603199999806,
          "velocity": 0.7874015748031497,
          "duration": 0.07692299999999364
        },
        {
          "name": "C2",
          "midi": 36,
          "time": 122.07680099999806,
          "velocity": 0.7874015748031497,
          "duration": 0.07692299999999364
        },
        {
          "name": "B1",
          "midi": 35,
          "time": 122.07680099999806,
          "velocity": 0.7874015748031497,
          "duration": 0.07692299999999364
        },
        {
          "name": "A#2",
          "midi": 46,
          "time": 122.07680099999806,
          "velocity": 0.7874015748031497,
          "duration": 0.07692299999999364
        },
        {
          "name": "D2",
          "midi": 38,
          "time": 122.30756999999805,
          "velocity": 0.7874015748031497,
          "duration": 0.07692299999999364
        },
        {
          "name": "E2",
          "midi": 40,
          "time": 122.30756999999805,
          "velocity": 0.7874015748031497,
          "duration": 0.07692299999999364
        },
        {
          "name": "A3",
          "midi": 57,
          "time": 122.30756999999805,
          "velocity": 0.7874015748031497,
          "duration": 0.07692299999999364
        },
        {
          "name": "A#2",
          "midi": 46,
          "time": 122.30756999999805,
          "velocity": 0.7874015748031497,
          "duration": 0.07692299999999364
        },
        {
          "name": "A#2",
          "midi": 46,
          "time": 122.53833899999805,
          "velocity": 0.7874015748031497,
          "duration": 0.07692299999999364
        },
        {
          "name": "C2",
          "midi": 36,
          "time": 122.65372349999804,
          "velocity": 0.7874015748031497,
          "duration": 0.07692299999999364
        },
        {
          "name": "B1",
          "midi": 35,
          "time": 122.65372349999804,
          "velocity": 0.7874015748031497,
          "duration": 0.07692299999999364
        },
        {
          "name": "E2",
          "midi": 40,
          "time": 122.65372349999804,
          "velocity": 0.7874015748031497,
          "duration": 0.07692299999999364
        },
        {
          "name": "A#2",
          "midi": 46,
          "time": 122.76910799999803,
          "velocity": 0.7874015748031497,
          "duration": 0.07692299999999364
        },
        {
          "name": "G#2",
          "midi": 44,
          "time": 122.88449249999802,
          "velocity": 0.7874015748031497,
          "duration": 0.07692299999999364
        },
        {
          "name": "C2",
          "midi": 36,
          "time": 122.99987699999801,
          "velocity": 0.7874015748031497,
          "duration": 0.07692299999999364
        },
        {
          "name": "B1",
          "midi": 35,
          "time": 122.99987699999801,
          "velocity": 0.7874015748031497,
          "duration": 0.07692299999999364
        },
        {
          "name": "A#2",
          "midi": 46,
          "time": 122.99987699999801,
          "velocity": 0.7874015748031497,
          "duration": 0.07692299999999364
        },
        {
          "name": "D2",
          "midi": 38,
          "time": 123.230645999998,
          "velocity": 0.7874015748031497,
          "duration": 0.07692299999999364
        },
        {
          "name": "E2",
          "midi": 40,
          "time": 123.230645999998,
          "velocity": 0.7874015748031497,
          "duration": 0.07692299999999364
        },
        {
          "name": "A3",
          "midi": 57,
          "time": 123.230645999998,
          "velocity": 0.7874015748031497,
          "duration": 0.07692299999999364
        },
        {
          "name": "A#2",
          "midi": 46,
          "time": 123.230645999998,
          "velocity": 0.7874015748031497,
          "duration": 0.07692299999999364
        },
        {
          "name": "A#2",
          "midi": 46,
          "time": 123.461414999998,
          "velocity": 0.7874015748031497,
          "duration": 0.07692299999999364
        },
        {
          "name": "C2",
          "midi": 36,
          "time": 123.57679949999799,
          "velocity": 0.7874015748031497,
          "duration": 0.07692299999999364
        },
        {
          "name": "B1",
          "midi": 35,
          "time": 123.57679949999799,
          "velocity": 0.7874015748031497,
          "duration": 0.07692299999999364
        },
        {
          "name": "C2",
          "midi": 36,
          "time": 123.69218399999798,
          "velocity": 0.7874015748031497,
          "duration": 0.07692299999999364
        },
        {
          "name": "B1",
          "midi": 35,
          "time": 123.69218399999798,
          "velocity": 0.7874015748031497,
          "duration": 0.07692299999999364
        },
        {
          "name": "A3",
          "midi": 57,
          "time": 123.69218399999798,
          "velocity": 0.7874015748031497,
          "duration": 0.07692299999999364
        },
        {
          "name": "A#2",
          "midi": 46,
          "time": 123.69218399999798,
          "velocity": 0.7874015748031497,
          "duration": 0.07692299999999364
        },
        {
          "name": "C2",
          "midi": 36,
          "time": 123.92295299999797,
          "velocity": 0.7874015748031497,
          "duration": 0.07692299999999364
        },
        {
          "name": "B1",
          "midi": 35,
          "time": 123.92295299999797,
          "velocity": 0.7874015748031497,
          "duration": 0.07692299999999364
        },
        {
          "name": "A#2",
          "midi": 46,
          "time": 123.92295299999797,
          "velocity": 0.7874015748031497,
          "duration": 0.07692299999999364
        },
        {
          "name": "D2",
          "midi": 38,
          "time": 124.15372199999797,
          "velocity": 0.7874015748031497,
          "duration": 0.07692299999999364
        },
        {
          "name": "E2",
          "midi": 40,
          "time": 124.15372199999797,
          "velocity": 0.7874015748031497,
          "duration": 0.07692299999999364
        },
        {
          "name": "A3",
          "midi": 57,
          "time": 124.15372199999797,
          "velocity": 0.7874015748031497,
          "duration": 0.07692299999999364
        },
        {
          "name": "A#2",
          "midi": 46,
          "time": 124.15372199999797,
          "velocity": 0.7874015748031497,
          "duration": 0.07692299999999364
        },
        {
          "name": "A#2",
          "midi": 46,
          "time": 124.38449099999796,
          "velocity": 0.7874015748031497,
          "duration": 0.07692299999999364
        },
        {
          "name": "C2",
          "midi": 36,
          "time": 124.49987549999796,
          "velocity": 0.7874015748031497,
          "duration": 0.07692299999999364
        },
        {
          "name": "B1",
          "midi": 35,
          "time": 124.49987549999796,
          "velocity": 0.7874015748031497,
          "duration": 0.07692299999999364
        },
        {
          "name": "E2",
          "midi": 40,
          "time": 124.49987549999796,
          "velocity": 0.7874015748031497,
          "duration": 0.07692299999999364
        },
        {
          "name": "A#2",
          "midi": 46,
          "time": 124.61525999999795,
          "velocity": 0.7874015748031497,
          "duration": 0.07692299999999364
        },
        {
          "name": "G#2",
          "midi": 44,
          "time": 124.73064449999794,
          "velocity": 0.7874015748031497,
          "duration": 0.07692299999999364
        },
        {
          "name": "C2",
          "midi": 36,
          "time": 124.84602899999793,
          "velocity": 0.7874015748031497,
          "duration": 0.07692299999999364
        },
        {
          "name": "B1",
          "midi": 35,
          "time": 124.84602899999793,
          "velocity": 0.7874015748031497,
          "duration": 0.07692299999999364
        },
        {
          "name": "A#2",
          "midi": 46,
          "time": 124.84602899999793,
          "velocity": 0.7874015748031497,
          "duration": 0.07692299999999364
        },
        {
          "name": "D2",
          "midi": 38,
          "time": 125.07679799999792,
          "velocity": 0.7874015748031497,
          "duration": 0.07692299999999364
        },
        {
          "name": "E2",
          "midi": 40,
          "time": 125.07679799999792,
          "velocity": 0.7874015748031497,
          "duration": 0.07692299999999364
        },
        {
          "name": "A3",
          "midi": 57,
          "time": 125.07679799999792,
          "velocity": 0.7874015748031497,
          "duration": 0.07692299999999364
        },
        {
          "name": "A#2",
          "midi": 46,
          "time": 125.07679799999792,
          "velocity": 0.7874015748031497,
          "duration": 0.07692299999999364
        },
        {
          "name": "A#2",
          "midi": 46,
          "time": 125.30756699999792,
          "velocity": 0.7874015748031497,
          "duration": 0.07692299999999364
        },
        {
          "name": "C2",
          "midi": 36,
          "time": 125.42295149999791,
          "velocity": 0.7874015748031497,
          "duration": 0.07692299999999364
        },
        {
          "name": "B1",
          "midi": 35,
          "time": 125.42295149999791,
          "velocity": 0.7874015748031497,
          "duration": 0.07692299999999364
        },
        {
          "name": "C2",
          "midi": 36,
          "time": 125.5383359999979,
          "velocity": 0.7874015748031497,
          "duration": 0.07692299999999364
        },
        {
          "name": "B1",
          "midi": 35,
          "time": 125.5383359999979,
          "velocity": 0.7874015748031497,
          "duration": 0.07692299999999364
        },
        {
          "name": "A3",
          "midi": 57,
          "time": 125.5383359999979,
          "velocity": 0.7874015748031497,
          "duration": 0.07692299999999364
        },
        {
          "name": "A#2",
          "midi": 46,
          "time": 125.5383359999979,
          "velocity": 0.7874015748031497,
          "duration": 0.07692299999999364
        },
        {
          "name": "C2",
          "midi": 36,
          "time": 125.7691049999979,
          "velocity": 0.7874015748031497,
          "duration": 0.07692299999999364
        },
        {
          "name": "B1",
          "midi": 35,
          "time": 125.7691049999979,
          "velocity": 0.7874015748031497,
          "duration": 0.07692299999999364
        },
        {
          "name": "A#2",
          "midi": 46,
          "time": 125.7691049999979,
          "velocity": 0.7874015748031497,
          "duration": 0.07692299999999364
        },
        {
          "name": "D2",
          "midi": 38,
          "time": 125.99987399999789,
          "velocity": 0.7874015748031497,
          "duration": 0.07692299999999364
        },
        {
          "name": "E2",
          "midi": 40,
          "time": 125.99987399999789,
          "velocity": 0.7874015748031497,
          "duration": 0.07692299999999364
        },
        {
          "name": "A3",
          "midi": 57,
          "time": 125.99987399999789,
          "velocity": 0.7874015748031497,
          "duration": 0.07692299999999364
        },
        {
          "name": "A#2",
          "midi": 46,
          "time": 125.99987399999789,
          "velocity": 0.7874015748031497,
          "duration": 0.07692299999999364
        },
        {
          "name": "A#2",
          "midi": 46,
          "time": 126.23064299999788,
          "velocity": 0.7874015748031497,
          "duration": 0.07692299999999364
        },
        {
          "name": "C2",
          "midi": 36,
          "time": 126.34602749999787,
          "velocity": 0.7874015748031497,
          "duration": 0.07692299999999364
        },
        {
          "name": "B1",
          "midi": 35,
          "time": 126.34602749999787,
          "velocity": 0.7874015748031497,
          "duration": 0.07692299999999364
        },
        {
          "name": "E2",
          "midi": 40,
          "time": 126.34602749999787,
          "velocity": 0.7874015748031497,
          "duration": 0.07692299999999364
        },
        {
          "name": "A#2",
          "midi": 46,
          "time": 126.46141199999786,
          "velocity": 0.7874015748031497,
          "duration": 0.07692299999999364
        },
        {
          "name": "G#2",
          "midi": 44,
          "time": 126.57679649999785,
          "velocity": 0.7874015748031497,
          "duration": 0.07692299999999364
        },
        {
          "name": "C2",
          "midi": 36,
          "time": 126.69218099999784,
          "velocity": 0.7874015748031497,
          "duration": 0.07692299999999364
        },
        {
          "name": "B1",
          "midi": 35,
          "time": 126.69218099999784,
          "velocity": 0.7874015748031497,
          "duration": 0.07692299999999364
        },
        {
          "name": "A#2",
          "midi": 46,
          "time": 126.69218099999784,
          "velocity": 0.7874015748031497,
          "duration": 0.07692299999999364
        },
        {
          "name": "D2",
          "midi": 38,
          "time": 126.92294999999784,
          "velocity": 0.7874015748031497,
          "duration": 0.07692299999999364
        },
        {
          "name": "E2",
          "midi": 40,
          "time": 126.92294999999784,
          "velocity": 0.7874015748031497,
          "duration": 0.07692299999999364
        },
        {
          "name": "A3",
          "midi": 57,
          "time": 126.92294999999784,
          "velocity": 0.7874015748031497,
          "duration": 0.07692299999999364
        },
        {
          "name": "A#2",
          "midi": 46,
          "time": 126.92294999999784,
          "velocity": 0.7874015748031497,
          "duration": 0.07692299999999364
        },
        {
          "name": "A#2",
          "midi": 46,
          "time": 127.15371899999784,
          "velocity": 0.7874015748031497,
          "duration": 0.07692299999999364
        },
        {
          "name": "C2",
          "midi": 36,
          "time": 127.26910349999783,
          "velocity": 0.7874015748031497,
          "duration": 0.07692299999999364
        },
        {
          "name": "B1",
          "midi": 35,
          "time": 127.26910349999783,
          "velocity": 0.7874015748031497,
          "duration": 0.07692299999999364
        },
        {
          "name": "C2",
          "midi": 36,
          "time": 127.38448799999782,
          "velocity": 0.7874015748031497,
          "duration": 0.07692299999999364
        },
        {
          "name": "B1",
          "midi": 35,
          "time": 127.38448799999782,
          "velocity": 0.7874015748031497,
          "duration": 0.07692299999999364
        },
        {
          "name": "A3",
          "midi": 57,
          "time": 127.38448799999782,
          "velocity": 0.7874015748031497,
          "duration": 0.07692299999999364
        },
        {
          "name": "A#2",
          "midi": 46,
          "time": 127.38448799999782,
          "velocity": 0.7874015748031497,
          "duration": 0.07692299999999364
        },
        {
          "name": "C2",
          "midi": 36,
          "time": 127.61525699999781,
          "velocity": 0.7874015748031497,
          "duration": 0.07692299999999364
        },
        {
          "name": "B1",
          "midi": 35,
          "time": 127.61525699999781,
          "velocity": 0.7874015748031497,
          "duration": 0.07692299999999364
        },
        {
          "name": "A#2",
          "midi": 46,
          "time": 127.61525699999781,
          "velocity": 0.7874015748031497,
          "duration": 0.07692299999999364
        },
        {
          "name": "D2",
          "midi": 38,
          "time": 127.8460259999978,
          "velocity": 0.7874015748031497,
          "duration": 0.07692299999999364
        },
        {
          "name": "E2",
          "midi": 40,
          "time": 127.8460259999978,
          "velocity": 0.7874015748031497,
          "duration": 0.07692299999999364
        },
        {
          "name": "A3",
          "midi": 57,
          "time": 127.8460259999978,
          "velocity": 0.7874015748031497,
          "duration": 0.07692299999999364
        },
        {
          "name": "A#2",
          "midi": 46,
          "time": 127.8460259999978,
          "velocity": 0.7874015748031497,
          "duration": 0.07692299999999364
        },
        {
          "name": "A#2",
          "midi": 46,
          "time": 128.0767949999978,
          "velocity": 0.7874015748031497,
          "duration": 0.07692299999999364
        },
        {
          "name": "C2",
          "midi": 36,
          "time": 128.1921794999978,
          "velocity": 0.7874015748031497,
          "duration": 0.07692299999999364
        },
        {
          "name": "B1",
          "midi": 35,
          "time": 128.1921794999978,
          "velocity": 0.7874015748031497,
          "duration": 0.07692299999999364
        },
        {
          "name": "E2",
          "midi": 40,
          "time": 128.1921794999978,
          "velocity": 0.7874015748031497,
          "duration": 0.07692299999999364
        },
        {
          "name": "A#2",
          "midi": 46,
          "time": 128.3075639999978,
          "velocity": 0.7874015748031497,
          "duration": 0.07692299999999364
        },
        {
          "name": "G#2",
          "midi": 44,
          "time": 128.4229484999978,
          "velocity": 0.7874015748031497,
          "duration": 0.07692299999999364
        },
        {
          "name": "C2",
          "midi": 36,
          "time": 128.5383329999978,
          "velocity": 0.7874015748031497,
          "duration": 0.07692299999999364
        },
        {
          "name": "B1",
          "midi": 35,
          "time": 128.5383329999978,
          "velocity": 0.7874015748031497,
          "duration": 0.07692299999999364
        },
        {
          "name": "A#2",
          "midi": 46,
          "time": 128.5383329999978,
          "velocity": 0.7874015748031497,
          "duration": 0.07692299999999364
        },
        {
          "name": "D2",
          "midi": 38,
          "time": 128.7691019999978,
          "velocity": 0.7874015748031497,
          "duration": 0.07692299999999364
        },
        {
          "name": "E2",
          "midi": 40,
          "time": 128.7691019999978,
          "velocity": 0.7874015748031497,
          "duration": 0.07692299999999364
        },
        {
          "name": "A3",
          "midi": 57,
          "time": 128.7691019999978,
          "velocity": 0.7874015748031497,
          "duration": 0.07692299999999364
        },
        {
          "name": "A#2",
          "midi": 46,
          "time": 128.7691019999978,
          "velocity": 0.7874015748031497,
          "duration": 0.07692299999999364
        },
        {
          "name": "A#2",
          "midi": 46,
          "time": 128.99987099999777,
          "velocity": 0.7874015748031497,
          "duration": 0.07692299999999364
        },
        {
          "name": "A3",
          "midi": 57,
          "time": 128.99987099999777,
          "velocity": 0.7874015748031497,
          "duration": 0.07692299999999364
        },
        {
          "name": "C2",
          "midi": 36,
          "time": 129.11525549999777,
          "velocity": 0.7874015748031497,
          "duration": 0.07692299999999364
        },
        {
          "name": "B1",
          "midi": 35,
          "time": 129.11525549999777,
          "velocity": 0.7874015748031497,
          "duration": 0.07692299999999364
        },
        {
          "name": "C2",
          "midi": 36,
          "time": 129.23063999999778,
          "velocity": 0.7874015748031497,
          "duration": 0.07692299999999364
        },
        {
          "name": "B1",
          "midi": 35,
          "time": 129.23063999999778,
          "velocity": 0.7874015748031497,
          "duration": 0.07692299999999364
        },
        {
          "name": "A3",
          "midi": 57,
          "time": 129.23063999999778,
          "velocity": 0.7874015748031497,
          "duration": 0.07692299999999364
        },
        {
          "name": "A#2",
          "midi": 46,
          "time": 129.23063999999778,
          "velocity": 0.7874015748031497,
          "duration": 0.07692299999999364
        },
        {
          "name": "C2",
          "midi": 36,
          "time": 129.46140899999776,
          "velocity": 0.7874015748031497,
          "duration": 0.07692299999999364
        },
        {
          "name": "B1",
          "midi": 35,
          "time": 129.46140899999776,
          "velocity": 0.7874015748031497,
          "duration": 0.07692299999999364
        },
        {
          "name": "A#2",
          "midi": 46,
          "time": 129.46140899999776,
          "velocity": 0.7874015748031497,
          "duration": 0.07692299999999364
        },
        {
          "name": "D2",
          "midi": 38,
          "time": 129.69217799999774,
          "velocity": 0.7874015748031497,
          "duration": 0.07692299999999364
        },
        {
          "name": "E2",
          "midi": 40,
          "time": 129.69217799999774,
          "velocity": 0.7874015748031497,
          "duration": 0.07692299999999364
        },
        {
          "name": "A3",
          "midi": 57,
          "time": 129.69217799999774,
          "velocity": 0.7874015748031497,
          "duration": 0.07692299999999364
        },
        {
          "name": "A#2",
          "midi": 46,
          "time": 129.69217799999774,
          "velocity": 0.7874015748031497,
          "duration": 0.07692299999999364
        },
        {
          "name": "A#2",
          "midi": 46,
          "time": 129.92294699999772,
          "velocity": 0.7874015748031497,
          "duration": 0.07692299999999364
        },
        {
          "name": "C2",
          "midi": 36,
          "time": 130.03833149999772,
          "velocity": 0.7874015748031497,
          "duration": 0.07692299999999364
        },
        {
          "name": "B1",
          "midi": 35,
          "time": 130.03833149999772,
          "velocity": 0.7874015748031497,
          "duration": 0.07692299999999364
        },
        {
          "name": "E2",
          "midi": 40,
          "time": 130.03833149999772,
          "velocity": 0.7874015748031497,
          "duration": 0.07692299999999364
        },
        {
          "name": "A#2",
          "midi": 46,
          "time": 130.15371599999773,
          "velocity": 0.7874015748031497,
          "duration": 0.07692299999999364
        },
        {
          "name": "G#2",
          "midi": 44,
          "time": 130.26910049999773,
          "velocity": 0.7874015748031497,
          "duration": 0.07692299999999364
        },
        {
          "name": "C2",
          "midi": 36,
          "time": 130.38448499999774,
          "velocity": 0.7874015748031497,
          "duration": 0.07692299999999364
        },
        {
          "name": "B1",
          "midi": 35,
          "time": 130.38448499999774,
          "velocity": 0.7874015748031497,
          "duration": 0.07692299999999364
        },
        {
          "name": "A#2",
          "midi": 46,
          "time": 130.38448499999774,
          "velocity": 0.7874015748031497,
          "duration": 0.07692299999999364
        },
        {
          "name": "D2",
          "midi": 38,
          "time": 130.61525399999772,
          "velocity": 0.7874015748031497,
          "duration": 0.07692299999999364
        },
        {
          "name": "E2",
          "midi": 40,
          "time": 130.61525399999772,
          "velocity": 0.7874015748031497,
          "duration": 0.07692299999999364
        },
        {
          "name": "A3",
          "midi": 57,
          "time": 130.61525399999772,
          "velocity": 0.7874015748031497,
          "duration": 0.07692299999999364
        },
        {
          "name": "A#2",
          "midi": 46,
          "time": 130.61525399999772,
          "velocity": 0.7874015748031497,
          "duration": 0.07692299999999364
        },
        {
          "name": "A#2",
          "midi": 46,
          "time": 130.8460229999977,
          "velocity": 0.7874015748031497,
          "duration": 0.07692299999999364
        },
        {
          "name": "C2",
          "midi": 36,
          "time": 130.9614074999977,
          "velocity": 0.7874015748031497,
          "duration": 0.07692299999999364
        },
        {
          "name": "B1",
          "midi": 35,
          "time": 130.9614074999977,
          "velocity": 0.7874015748031497,
          "duration": 0.07692299999999364
        },
        {
          "name": "C2",
          "midi": 36,
          "time": 131.0767919999977,
          "velocity": 0.7874015748031497,
          "duration": 0.07692299999999364
        },
        {
          "name": "B1",
          "midi": 35,
          "time": 131.0767919999977,
          "velocity": 0.7874015748031497,
          "duration": 0.07692299999999364
        },
        {
          "name": "A3",
          "midi": 57,
          "time": 131.0767919999977,
          "velocity": 0.7874015748031497,
          "duration": 0.07692299999999364
        },
        {
          "name": "A#2",
          "midi": 46,
          "time": 131.0767919999977,
          "velocity": 0.7874015748031497,
          "duration": 0.07692299999999364
        },
        {
          "name": "C2",
          "midi": 36,
          "time": 131.3075609999977,
          "velocity": 0.7874015748031497,
          "duration": 0.07692299999999364
        },
        {
          "name": "B1",
          "midi": 35,
          "time": 131.3075609999977,
          "velocity": 0.7874015748031497,
          "duration": 0.07692299999999364
        },
        {
          "name": "A#2",
          "midi": 46,
          "time": 131.3075609999977,
          "velocity": 0.7874015748031497,
          "duration": 0.07692299999999364
        },
        {
          "name": "D2",
          "midi": 38,
          "time": 131.53832999999767,
          "velocity": 0.7874015748031497,
          "duration": 0.07692299999999364
        },
        {
          "name": "E2",
          "midi": 40,
          "time": 131.53832999999767,
          "velocity": 0.7874015748031497,
          "duration": 0.07692299999999364
        },
        {
          "name": "A3",
          "midi": 57,
          "time": 131.53832999999767,
          "velocity": 0.7874015748031497,
          "duration": 0.07692299999999364
        },
        {
          "name": "A#2",
          "midi": 46,
          "time": 131.53832999999767,
          "velocity": 0.7874015748031497,
          "duration": 0.07692299999999364
        },
        {
          "name": "A#2",
          "midi": 46,
          "time": 131.76909899999765,
          "velocity": 0.7874015748031497,
          "duration": 0.07692299999999364
        },
        {
          "name": "C2",
          "midi": 36,
          "time": 131.88448349999766,
          "velocity": 0.7874015748031497,
          "duration": 0.07692299999999364
        },
        {
          "name": "B1",
          "midi": 35,
          "time": 131.88448349999766,
          "velocity": 0.7874015748031497,
          "duration": 0.07692299999999364
        },
        {
          "name": "E2",
          "midi": 40,
          "time": 131.88448349999766,
          "velocity": 0.7874015748031497,
          "duration": 0.07692299999999364
        },
        {
          "name": "A#2",
          "midi": 46,
          "time": 131.99986799999766,
          "velocity": 0.7874015748031497,
          "duration": 0.07692299999999364
        },
        {
          "name": "G#2",
          "midi": 44,
          "time": 132.11525249999767,
          "velocity": 0.7874015748031497,
          "duration": 0.07692299999999364
        },
        {
          "name": "C2",
          "midi": 36,
          "time": 132.23063699999767,
          "velocity": 0.7874015748031497,
          "duration": 0.07692299999999364
        },
        {
          "name": "B1",
          "midi": 35,
          "time": 132.23063699999767,
          "velocity": 0.7874015748031497,
          "duration": 0.07692299999999364
        },
        {
          "name": "A#2",
          "midi": 46,
          "time": 132.23063699999767,
          "velocity": 0.7874015748031497,
          "duration": 0.07692299999999364
        },
        {
          "name": "D2",
          "midi": 38,
          "time": 132.46140599999765,
          "velocity": 0.7874015748031497,
          "duration": 0.07692299999999364
        },
        {
          "name": "E2",
          "midi": 40,
          "time": 132.46140599999765,
          "velocity": 0.7874015748031497,
          "duration": 0.07692299999999364
        },
        {
          "name": "A3",
          "midi": 57,
          "time": 132.46140599999765,
          "velocity": 0.7874015748031497,
          "duration": 0.07692299999999364
        },
        {
          "name": "A#2",
          "midi": 46,
          "time": 132.46140599999765,
          "velocity": 0.7874015748031497,
          "duration": 0.07692299999999364
        },
        {
          "name": "A#2",
          "midi": 46,
          "time": 132.69217499999763,
          "velocity": 0.7874015748031497,
          "duration": 0.07692299999999364
        },
        {
          "name": "C2",
          "midi": 36,
          "time": 132.80755949999764,
          "velocity": 0.7874015748031497,
          "duration": 0.07692299999999364
        },
        {
          "name": "B1",
          "midi": 35,
          "time": 132.80755949999764,
          "velocity": 0.7874015748031497,
          "duration": 0.07692299999999364
        },
        {
          "name": "C2",
          "midi": 36,
          "time": 132.92294399999764,
          "velocity": 0.7874015748031497,
          "duration": 0.07692299999999364
        },
        {
          "name": "B1",
          "midi": 35,
          "time": 132.92294399999764,
          "velocity": 0.7874015748031497,
          "duration": 0.07692299999999364
        },
        {
          "name": "A3",
          "midi": 57,
          "time": 132.92294399999764,
          "velocity": 0.7874015748031497,
          "duration": 0.07692299999999364
        },
        {
          "name": "A#2",
          "midi": 46,
          "time": 132.92294399999764,
          "velocity": 0.7874015748031497,
          "duration": 0.07692299999999364
        },
        {
          "name": "C2",
          "midi": 36,
          "time": 133.15371299999762,
          "velocity": 0.7874015748031497,
          "duration": 0.07692299999999364
        },
        {
          "name": "B1",
          "midi": 35,
          "time": 133.15371299999762,
          "velocity": 0.7874015748031497,
          "duration": 0.07692299999999364
        },
        {
          "name": "A#2",
          "midi": 46,
          "time": 133.15371299999762,
          "velocity": 0.7874015748031497,
          "duration": 0.07692299999999364
        },
        {
          "name": "D2",
          "midi": 38,
          "time": 133.3844819999976,
          "velocity": 0.7874015748031497,
          "duration": 0.07692299999999364
        },
        {
          "name": "E2",
          "midi": 40,
          "time": 133.3844819999976,
          "velocity": 0.7874015748031497,
          "duration": 0.07692299999999364
        },
        {
          "name": "A3",
          "midi": 57,
          "time": 133.3844819999976,
          "velocity": 0.7874015748031497,
          "duration": 0.07692299999999364
        },
        {
          "name": "A#2",
          "midi": 46,
          "time": 133.3844819999976,
          "velocity": 0.7874015748031497,
          "duration": 0.07692299999999364
        },
        {
          "name": "A#2",
          "midi": 46,
          "time": 133.61525099999758,
          "velocity": 0.7874015748031497,
          "duration": 0.07692299999999364
        },
        {
          "name": "C2",
          "midi": 36,
          "time": 133.7306354999976,
          "velocity": 0.7874015748031497,
          "duration": 0.07692299999999364
        },
        {
          "name": "B1",
          "midi": 35,
          "time": 133.7306354999976,
          "velocity": 0.7874015748031497,
          "duration": 0.07692299999999364
        },
        {
          "name": "E2",
          "midi": 40,
          "time": 133.7306354999976,
          "velocity": 0.7874015748031497,
          "duration": 0.07692299999999364
        },
        {
          "name": "A#2",
          "midi": 46,
          "time": 133.8460199999976,
          "velocity": 0.7874015748031497,
          "duration": 0.07692299999999364
        },
        {
          "name": "G#2",
          "midi": 44,
          "time": 133.9614044999976,
          "velocity": 0.7874015748031497,
          "duration": 0.07692299999999364
        },
        {
          "name": "C2",
          "midi": 36,
          "time": 134.0767889999976,
          "velocity": 0.7874015748031497,
          "duration": 0.07692299999999364
        },
        {
          "name": "B1",
          "midi": 35,
          "time": 134.0767889999976,
          "velocity": 0.7874015748031497,
          "duration": 0.07692299999999364
        },
        {
          "name": "A#2",
          "midi": 46,
          "time": 134.0767889999976,
          "velocity": 0.7874015748031497,
          "duration": 0.07692299999999364
        },
        {
          "name": "D2",
          "midi": 38,
          "time": 134.30755799999758,
          "velocity": 0.7874015748031497,
          "duration": 0.07692299999999364
        },
        {
          "name": "E2",
          "midi": 40,
          "time": 134.30755799999758,
          "velocity": 0.7874015748031497,
          "duration": 0.07692299999999364
        },
        {
          "name": "A3",
          "midi": 57,
          "time": 134.30755799999758,
          "velocity": 0.7874015748031497,
          "duration": 0.07692299999999364
        },
        {
          "name": "A#2",
          "midi": 46,
          "time": 134.30755799999758,
          "velocity": 0.7874015748031497,
          "duration": 0.07692299999999364
        },
        {
          "name": "A#2",
          "midi": 46,
          "time": 134.53832699999757,
          "velocity": 0.7874015748031497,
          "duration": 0.07692299999999364
        },
        {
          "name": "C2",
          "midi": 36,
          "time": 134.65371149999757,
          "velocity": 0.7874015748031497,
          "duration": 0.07692299999999364
        },
        {
          "name": "B1",
          "midi": 35,
          "time": 134.65371149999757,
          "velocity": 0.7874015748031497,
          "duration": 0.07692299999999364
        },
        {
          "name": "C2",
          "midi": 36,
          "time": 134.76909599999757,
          "velocity": 0.7874015748031497,
          "duration": 0.07692299999999364
        },
        {
          "name": "B1",
          "midi": 35,
          "time": 134.76909599999757,
          "velocity": 0.7874015748031497,
          "duration": 0.07692299999999364
        },
        {
          "name": "A3",
          "midi": 57,
          "time": 134.76909599999757,
          "velocity": 0.7874015748031497,
          "duration": 0.07692299999999364
        },
        {
          "name": "A#2",
          "midi": 46,
          "time": 134.76909599999757,
          "velocity": 0.7874015748031497,
          "duration": 0.07692299999999364
        },
        {
          "name": "C2",
          "midi": 36,
          "time": 134.99986499999756,
          "velocity": 0.7874015748031497,
          "duration": 0.07692299999999364
        },
        {
          "name": "B1",
          "midi": 35,
          "time": 134.99986499999756,
          "velocity": 0.7874015748031497,
          "duration": 0.07692299999999364
        },
        {
          "name": "A#2",
          "midi": 46,
          "time": 134.99986499999756,
          "velocity": 0.7874015748031497,
          "duration": 0.07692299999999364
        },
        {
          "name": "D2",
          "midi": 38,
          "time": 135.23063399999754,
          "velocity": 0.7874015748031497,
          "duration": 0.07692299999999364
        },
        {
          "name": "E2",
          "midi": 40,
          "time": 135.23063399999754,
          "velocity": 0.7874015748031497,
          "duration": 0.07692299999999364
        },
        {
          "name": "A3",
          "midi": 57,
          "time": 135.23063399999754,
          "velocity": 0.7874015748031497,
          "duration": 0.07692299999999364
        },
        {
          "name": "A#2",
          "midi": 46,
          "time": 135.23063399999754,
          "velocity": 0.7874015748031497,
          "duration": 0.07692299999999364
        },
        {
          "name": "A#2",
          "midi": 46,
          "time": 135.46140299999752,
          "velocity": 0.7874015748031497,
          "duration": 0.07692299999999364
        },
        {
          "name": "A#2",
          "midi": 46,
          "time": 135.6921719999975,
          "velocity": 0.7874015748031497,
          "duration": 0.07692300000002206
        },
        {
          "name": "E2",
          "midi": 40,
          "time": 135.6921719999975,
          "velocity": 0.7874015748031497,
          "duration": 0.03846150000001103
        },
        {
          "name": "D2",
          "midi": 38,
          "time": 135.6921719999975,
          "velocity": 0.7874015748031497,
          "duration": 0.03846150000001103
        },
        {
          "name": "C2",
          "midi": 36,
          "time": 135.6921719999975,
          "velocity": 0.7874015748031497,
          "duration": 0.07692300000002206
        },
        {
          "name": "E2",
          "midi": 40,
          "time": 135.80755649999753,
          "velocity": 0.7874015748031497,
          "duration": 0.03846150000001103
        },
        {
          "name": "D2",
          "midi": 38,
          "time": 135.80755649999753,
          "velocity": 0.7874015748031497,
          "duration": 0.03846150000001103
        },
        {
          "name": "C2",
          "midi": 36,
          "time": 135.80755649999753,
          "velocity": 0.7874015748031497,
          "duration": 0.07692300000002206
        },
        {
          "name": "G#2",
          "midi": 44,
          "time": 135.80755649999753,
          "velocity": 0.7874015748031497,
          "duration": 0.07692300000002206
        },
        {
          "name": "A#2",
          "midi": 46,
          "time": 135.92294099999756,
          "velocity": 0.7874015748031497,
          "duration": 0.07692299999999364
        },
        {
          "name": "E2",
          "midi": 40,
          "time": 136.03832549999757,
          "velocity": 0.7874015748031497,
          "duration": 0.03846150000001103
        },
        {
          "name": "E2",
          "midi": 40,
          "time": 136.09601774999757,
          "velocity": 0.7874015748031497,
          "duration": 0.03846150000001103
        },
        {
          "name": "A#2",
          "midi": 46,
          "time": 136.15370999999757,
          "velocity": 0.7874015748031497,
          "duration": 0.07692299999999364
        },
        {
          "name": "D2",
          "midi": 38,
          "time": 136.15370999999757,
          "velocity": 0.7874015748031497,
          "duration": 0.07692299999999364
        },
        {
          "name": "E2",
          "midi": 40,
          "time": 136.15370999999757,
          "velocity": 0.7874015748031497,
          "duration": 0.07692299999999364
        },
        {
          "name": "C2",
          "midi": 36,
          "time": 136.15370999999757,
          "velocity": 0.7874015748031497,
          "duration": 0.07692299999999364
        },
        {
          "name": "E2",
          "midi": 40,
          "time": 136.26909449999758,
          "velocity": 0.7874015748031497,
          "duration": 0.03846150000001103
        },
        {
          "name": "D2",
          "midi": 38,
          "time": 136.26909449999758,
          "velocity": 0.7874015748031497,
          "duration": 0.03846150000001103
        },
        {
          "name": "C2",
          "midi": 36,
          "time": 136.26909449999758,
          "velocity": 0.7874015748031497,
          "duration": 0.07692300000002206
        },
        {
          "name": "A#2",
          "midi": 46,
          "time": 136.3844789999976,
          "velocity": 0.7874015748031497,
          "duration": 0.07692299999999364
        },
        {
          "name": "E2",
          "midi": 40,
          "time": 136.49986349999762,
          "velocity": 0.7874015748031497,
          "duration": 0.03846150000001103
        },
        {
          "name": "D2",
          "midi": 38,
          "time": 136.49986349999762,
          "velocity": 0.7874015748031497,
          "duration": 0.03846150000001103
        },
        {
          "name": "C2",
          "midi": 36,
          "time": 136.49986349999762,
          "velocity": 0.7874015748031497,
          "duration": 0.07692300000002206
        },
        {
          "name": "C2",
          "midi": 36,
          "time": 136.61524799999765,
          "velocity": 0.7874015748031497,
          "duration": 0.07692299999999364
        },
        {
          "name": "B1",
          "midi": 35,
          "time": 136.61524799999765,
          "velocity": 0.7874015748031497,
          "duration": 0.07692299999999364
        },
        {
          "name": "A3",
          "midi": 57,
          "time": 136.61524799999765,
          "velocity": 0.7874015748031497,
          "duration": 0.07692299999999364
        },
        {
          "name": "A#2",
          "midi": 46,
          "time": 136.61524799999765,
          "velocity": 0.7874015748031497,
          "duration": 0.07692299999999364
        },
        {
          "name": "C2",
          "midi": 36,
          "time": 136.84601699999763,
          "velocity": 0.7874015748031497,
          "duration": 0.07692299999999364
        },
        {
          "name": "B1",
          "midi": 35,
          "time": 136.84601699999763,
          "velocity": 0.7874015748031497,
          "duration": 0.07692299999999364
        },
        {
          "name": "A#2",
          "midi": 46,
          "time": 136.84601699999763,
          "velocity": 0.7874015748031497,
          "duration": 0.07692299999999364
        },
        {
          "name": "D2",
          "midi": 38,
          "time": 137.0767859999976,
          "velocity": 0.7874015748031497,
          "duration": 0.07692299999999364
        },
        {
          "name": "E2",
          "midi": 40,
          "time": 137.0767859999976,
          "velocity": 0.7874015748031497,
          "duration": 0.07692299999999364
        },
        {
          "name": "A3",
          "midi": 57,
          "time": 137.0767859999976,
          "velocity": 0.7874015748031497,
          "duration": 0.07692299999999364
        },
        {
          "name": "A#2",
          "midi": 46,
          "time": 137.0767859999976,
          "velocity": 0.7874015748031497,
          "duration": 0.07692299999999364
        },
        {
          "name": "A#2",
          "midi": 46,
          "time": 137.3075549999976,
          "velocity": 0.7874015748031497,
          "duration": 0.07692299999999364
        },
        {
          "name": "C2",
          "midi": 36,
          "time": 137.4229394999976,
          "velocity": 0.7874015748031497,
          "duration": 0.07692299999999364
        },
        {
          "name": "B1",
          "midi": 35,
          "time": 137.4229394999976,
          "velocity": 0.7874015748031497,
          "duration": 0.07692299999999364
        },
        {
          "name": "E2",
          "midi": 40,
          "time": 137.4229394999976,
          "velocity": 0.7874015748031497,
          "duration": 0.07692299999999364
        },
        {
          "name": "A#2",
          "midi": 46,
          "time": 137.5383239999976,
          "velocity": 0.7874015748031497,
          "duration": 0.07692299999999364
        },
        {
          "name": "G#2",
          "midi": 44,
          "time": 137.6537084999976,
          "velocity": 0.7874015748031497,
          "duration": 0.07692299999999364
        },
        {
          "name": "C2",
          "midi": 36,
          "time": 137.7690929999976,
          "velocity": 0.7874015748031497,
          "duration": 0.07692299999999364
        },
        {
          "name": "B1",
          "midi": 35,
          "time": 137.7690929999976,
          "velocity": 0.7874015748031497,
          "duration": 0.07692299999999364
        },
        {
          "name": "A#2",
          "midi": 46,
          "time": 137.7690929999976,
          "velocity": 0.7874015748031497,
          "duration": 0.07692299999999364
        },
        {
          "name": "D2",
          "midi": 38,
          "time": 137.9998619999976,
          "velocity": 0.7874015748031497,
          "duration": 0.07692299999999364
        },
        {
          "name": "E2",
          "midi": 40,
          "time": 137.9998619999976,
          "velocity": 0.7874015748031497,
          "duration": 0.07692299999999364
        },
        {
          "name": "A3",
          "midi": 57,
          "time": 137.9998619999976,
          "velocity": 0.7874015748031497,
          "duration": 0.07692299999999364
        },
        {
          "name": "A#2",
          "midi": 46,
          "time": 137.9998619999976,
          "velocity": 0.7874015748031497,
          "duration": 0.07692299999999364
        },
        {
          "name": "A#2",
          "midi": 46,
          "time": 138.23063099999757,
          "velocity": 0.7874015748031497,
          "duration": 0.07692299999999364
        },
        {
          "name": "C2",
          "midi": 36,
          "time": 138.34601549999758,
          "velocity": 0.7874015748031497,
          "duration": 0.07692299999999364
        },
        {
          "name": "B1",
          "midi": 35,
          "time": 138.34601549999758,
          "velocity": 0.7874015748031497,
          "duration": 0.07692299999999364
        },
        {
          "name": "C2",
          "midi": 36,
          "time": 138.46139999999758,
          "velocity": 0.7874015748031497,
          "duration": 0.07692299999999364
        },
        {
          "name": "B1",
          "midi": 35,
          "time": 138.46139999999758,
          "velocity": 0.7874015748031497,
          "duration": 0.07692299999999364
        },
        {
          "name": "A3",
          "midi": 57,
          "time": 138.46139999999758,
          "velocity": 0.7874015748031497,
          "duration": 0.07692299999999364
        },
        {
          "name": "A#2",
          "midi": 46,
          "time": 138.46139999999758,
          "velocity": 0.7874015748031497,
          "duration": 0.07692299999999364
        },
        {
          "name": "C2",
          "midi": 36,
          "time": 138.69216899999756,
          "velocity": 0.7874015748031497,
          "duration": 0.07692299999999364
        },
        {
          "name": "B1",
          "midi": 35,
          "time": 138.69216899999756,
          "velocity": 0.7874015748031497,
          "duration": 0.07692299999999364
        },
        {
          "name": "A#2",
          "midi": 46,
          "time": 138.69216899999756,
          "velocity": 0.7874015748031497,
          "duration": 0.07692299999999364
        },
        {
          "name": "D2",
          "midi": 38,
          "time": 138.92293799999754,
          "velocity": 0.7874015748031497,
          "duration": 0.07692299999999364
        },
        {
          "name": "E2",
          "midi": 40,
          "time": 138.92293799999754,
          "velocity": 0.7874015748031497,
          "duration": 0.07692299999999364
        },
        {
          "name": "A3",
          "midi": 57,
          "time": 138.92293799999754,
          "velocity": 0.7874015748031497,
          "duration": 0.07692299999999364
        },
        {
          "name": "A#2",
          "midi": 46,
          "time": 138.92293799999754,
          "velocity": 0.7874015748031497,
          "duration": 0.07692299999999364
        },
        {
          "name": "A#2",
          "midi": 46,
          "time": 139.15370699999752,
          "velocity": 0.7874015748031497,
          "duration": 0.07692299999999364
        },
        {
          "name": "C2",
          "midi": 36,
          "time": 139.26909149999753,
          "velocity": 0.7874015748031497,
          "duration": 0.07692299999999364
        },
        {
          "name": "B1",
          "midi": 35,
          "time": 139.26909149999753,
          "velocity": 0.7874015748031497,
          "duration": 0.07692299999999364
        },
        {
          "name": "E2",
          "midi": 40,
          "time": 139.26909149999753,
          "velocity": 0.7874015748031497,
          "duration": 0.07692299999999364
        },
        {
          "name": "A#2",
          "midi": 46,
          "time": 139.38447599999753,
          "velocity": 0.7874015748031497,
          "duration": 0.07692299999999364
        },
        {
          "name": "G#2",
          "midi": 44,
          "time": 139.49986049999754,
          "velocity": 0.7874015748031497,
          "duration": 0.07692299999999364
        },
        {
          "name": "C2",
          "midi": 36,
          "time": 139.61524499999754,
          "velocity": 0.7874015748031497,
          "duration": 0.07692299999999364
        },
        {
          "name": "B1",
          "midi": 35,
          "time": 139.61524499999754,
          "velocity": 0.7874015748031497,
          "duration": 0.07692299999999364
        },
        {
          "name": "A#2",
          "midi": 46,
          "time": 139.61524499999754,
          "velocity": 0.7874015748031497,
          "duration": 0.07692299999999364
        },
        {
          "name": "D2",
          "midi": 38,
          "time": 139.84601399999752,
          "velocity": 0.7874015748031497,
          "duration": 0.07692299999999364
        },
        {
          "name": "E2",
          "midi": 40,
          "time": 139.84601399999752,
          "velocity": 0.7874015748031497,
          "duration": 0.07692299999999364
        },
        {
          "name": "A3",
          "midi": 57,
          "time": 139.84601399999752,
          "velocity": 0.7874015748031497,
          "duration": 0.07692299999999364
        },
        {
          "name": "A#2",
          "midi": 46,
          "time": 139.84601399999752,
          "velocity": 0.7874015748031497,
          "duration": 0.07692299999999364
        },
        {
          "name": "A#2",
          "midi": 46,
          "time": 140.0767829999975,
          "velocity": 0.7874015748031497,
          "duration": 0.07692299999999364
        },
        {
          "name": "C2",
          "midi": 36,
          "time": 140.1921674999975,
          "velocity": 0.7874015748031497,
          "duration": 0.07692299999999364
        },
        {
          "name": "B1",
          "midi": 35,
          "time": 140.1921674999975,
          "velocity": 0.7874015748031497,
          "duration": 0.07692299999999364
        },
        {
          "name": "C2",
          "midi": 36,
          "time": 140.30755199999751,
          "velocity": 0.7874015748031497,
          "duration": 0.07692299999999364
        },
        {
          "name": "B1",
          "midi": 35,
          "time": 140.30755199999751,
          "velocity": 0.7874015748031497,
          "duration": 0.07692299999999364
        },
        {
          "name": "A3",
          "midi": 57,
          "time": 140.30755199999751,
          "velocity": 0.7874015748031497,
          "duration": 0.07692299999999364
        },
        {
          "name": "A#2",
          "midi": 46,
          "time": 140.30755199999751,
          "velocity": 0.7874015748031497,
          "duration": 0.07692299999999364
        },
        {
          "name": "C2",
          "midi": 36,
          "time": 140.5383209999975,
          "velocity": 0.7874015748031497,
          "duration": 0.07692299999999364
        },
        {
          "name": "B1",
          "midi": 35,
          "time": 140.5383209999975,
          "velocity": 0.7874015748031497,
          "duration": 0.07692299999999364
        },
        {
          "name": "A#2",
          "midi": 46,
          "time": 140.5383209999975,
          "velocity": 0.7874015748031497,
          "duration": 0.07692299999999364
        },
        {
          "name": "D2",
          "midi": 38,
          "time": 140.76908999999748,
          "velocity": 0.7874015748031497,
          "duration": 0.07692299999999364
        },
        {
          "name": "E2",
          "midi": 40,
          "time": 140.76908999999748,
          "velocity": 0.7874015748031497,
          "duration": 0.07692299999999364
        },
        {
          "name": "A3",
          "midi": 57,
          "time": 140.76908999999748,
          "velocity": 0.7874015748031497,
          "duration": 0.07692299999999364
        },
        {
          "name": "A#2",
          "midi": 46,
          "time": 140.76908999999748,
          "velocity": 0.7874015748031497,
          "duration": 0.07692299999999364
        },
        {
          "name": "A#2",
          "midi": 46,
          "time": 140.99985899999746,
          "velocity": 0.7874015748031497,
          "duration": 0.07692299999999364
        },
        {
          "name": "C2",
          "midi": 36,
          "time": 141.11524349999746,
          "velocity": 0.7874015748031497,
          "duration": 0.07692299999999364
        },
        {
          "name": "B1",
          "midi": 35,
          "time": 141.11524349999746,
          "velocity": 0.7874015748031497,
          "duration": 0.07692299999999364
        },
        {
          "name": "E2",
          "midi": 40,
          "time": 141.11524349999746,
          "velocity": 0.7874015748031497,
          "duration": 0.07692299999999364
        },
        {
          "name": "A#2",
          "midi": 46,
          "time": 141.23062799999747,
          "velocity": 0.7874015748031497,
          "duration": 0.07692299999999364
        },
        {
          "name": "G#2",
          "midi": 44,
          "time": 141.34601249999747,
          "velocity": 0.7874015748031497,
          "duration": 0.07692299999999364
        },
        {
          "name": "C2",
          "midi": 36,
          "time": 141.46139699999748,
          "velocity": 0.7874015748031497,
          "duration": 0.07692299999999364
        },
        {
          "name": "B1",
          "midi": 35,
          "time": 141.46139699999748,
          "velocity": 0.7874015748031497,
          "duration": 0.07692299999999364
        },
        {
          "name": "A#2",
          "midi": 46,
          "time": 141.46139699999748,
          "velocity": 0.7874015748031497,
          "duration": 0.07692299999999364
        },
        {
          "name": "D2",
          "midi": 38,
          "time": 141.69216599999746,
          "velocity": 0.7874015748031497,
          "duration": 0.07692299999999364
        },
        {
          "name": "E2",
          "midi": 40,
          "time": 141.69216599999746,
          "velocity": 0.7874015748031497,
          "duration": 0.07692299999999364
        },
        {
          "name": "A3",
          "midi": 57,
          "time": 141.69216599999746,
          "velocity": 0.7874015748031497,
          "duration": 0.07692299999999364
        },
        {
          "name": "A#2",
          "midi": 46,
          "time": 141.69216599999746,
          "velocity": 0.7874015748031497,
          "duration": 0.07692299999999364
        },
        {
          "name": "A#2",
          "midi": 46,
          "time": 141.92293499999744,
          "velocity": 0.7874015748031497,
          "duration": 0.07692299999999364
        },
        {
          "name": "C2",
          "midi": 36,
          "time": 142.03831949999744,
          "velocity": 0.7874015748031497,
          "duration": 0.07692299999999364
        },
        {
          "name": "B1",
          "midi": 35,
          "time": 142.03831949999744,
          "velocity": 0.7874015748031497,
          "duration": 0.07692299999999364
        },
        {
          "name": "C2",
          "midi": 36,
          "time": 142.15370399999745,
          "velocity": 0.7874015748031497,
          "duration": 0.07692299999999364
        },
        {
          "name": "B1",
          "midi": 35,
          "time": 142.15370399999745,
          "velocity": 0.7874015748031497,
          "duration": 0.07692299999999364
        },
        {
          "name": "A3",
          "midi": 57,
          "time": 142.15370399999745,
          "velocity": 0.7874015748031497,
          "duration": 0.07692299999999364
        },
        {
          "name": "A#2",
          "midi": 46,
          "time": 142.15370399999745,
          "velocity": 0.7874015748031497,
          "duration": 0.07692299999999364
        },
        {
          "name": "C2",
          "midi": 36,
          "time": 142.38447299999743,
          "velocity": 0.7874015748031497,
          "duration": 0.07692299999999364
        },
        {
          "name": "B1",
          "midi": 35,
          "time": 142.38447299999743,
          "velocity": 0.7874015748031497,
          "duration": 0.07692299999999364
        },
        {
          "name": "A#2",
          "midi": 46,
          "time": 142.38447299999743,
          "velocity": 0.7874015748031497,
          "duration": 0.07692299999999364
        },
        {
          "name": "D2",
          "midi": 38,
          "time": 142.6152419999974,
          "velocity": 0.7874015748031497,
          "duration": 0.07692299999999364
        },
        {
          "name": "E2",
          "midi": 40,
          "time": 142.6152419999974,
          "velocity": 0.7874015748031497,
          "duration": 0.07692299999999364
        },
        {
          "name": "A3",
          "midi": 57,
          "time": 142.6152419999974,
          "velocity": 0.7874015748031497,
          "duration": 0.07692299999999364
        },
        {
          "name": "A#2",
          "midi": 46,
          "time": 142.6152419999974,
          "velocity": 0.7874015748031497,
          "duration": 0.07692299999999364
        },
        {
          "name": "A#2",
          "midi": 46,
          "time": 142.8460109999974,
          "velocity": 0.7874015748031497,
          "duration": 0.07692299999999364
        },
        {
          "name": "C2",
          "midi": 36,
          "time": 142.9613954999974,
          "velocity": 0.7874015748031497,
          "duration": 0.07692299999999364
        },
        {
          "name": "B1",
          "midi": 35,
          "time": 142.9613954999974,
          "velocity": 0.7874015748031497,
          "duration": 0.07692299999999364
        },
        {
          "name": "E2",
          "midi": 40,
          "time": 142.9613954999974,
          "velocity": 0.7874015748031497,
          "duration": 0.07692299999999364
        },
        {
          "name": "A#2",
          "midi": 46,
          "time": 143.0767799999974,
          "velocity": 0.7874015748031497,
          "duration": 0.07692299999999364
        },
        {
          "name": "G#2",
          "midi": 44,
          "time": 143.1921644999974,
          "velocity": 0.7874015748031497,
          "duration": 0.07692299999999364
        },
        {
          "name": "C2",
          "midi": 36,
          "time": 143.3075489999974,
          "velocity": 0.7874015748031497,
          "duration": 0.07692299999999364
        },
        {
          "name": "B1",
          "midi": 35,
          "time": 143.3075489999974,
          "velocity": 0.7874015748031497,
          "duration": 0.07692299999999364
        },
        {
          "name": "A#2",
          "midi": 46,
          "time": 143.3075489999974,
          "velocity": 0.7874015748031497,
          "duration": 0.07692299999999364
        },
        {
          "name": "D2",
          "midi": 38,
          "time": 143.5383179999974,
          "velocity": 0.7874015748031497,
          "duration": 0.07692299999999364
        },
        {
          "name": "E2",
          "midi": 40,
          "time": 143.5383179999974,
          "velocity": 0.7874015748031497,
          "duration": 0.07692299999999364
        },
        {
          "name": "A3",
          "midi": 57,
          "time": 143.5383179999974,
          "velocity": 0.7874015748031497,
          "duration": 0.07692299999999364
        },
        {
          "name": "A#2",
          "midi": 46,
          "time": 143.5383179999974,
          "velocity": 0.7874015748031497,
          "duration": 0.07692299999999364
        },
        {
          "name": "A#2",
          "midi": 46,
          "time": 143.76908699999737,
          "velocity": 0.7874015748031497,
          "duration": 0.07692299999999364
        },
        {
          "name": "A3",
          "midi": 57,
          "time": 143.76908699999737,
          "velocity": 0.7874015748031497,
          "duration": 0.07692299999999364
        },
        {
          "name": "C2",
          "midi": 36,
          "time": 143.88447149999737,
          "velocity": 0.7874015748031497,
          "duration": 0.07692299999999364
        },
        {
          "name": "B1",
          "midi": 35,
          "time": 143.88447149999737,
          "velocity": 0.7874015748031497,
          "duration": 0.07692299999999364
        },
        {
          "name": "C2",
          "midi": 36,
          "time": 143.99985599999738,
          "velocity": 0.7874015748031497,
          "duration": 0.07692299999999364
        },
        {
          "name": "B1",
          "midi": 35,
          "time": 143.99985599999738,
          "velocity": 0.7874015748031497,
          "duration": 0.07692299999999364
        },
        {
          "name": "A3",
          "midi": 57,
          "time": 143.99985599999738,
          "velocity": 0.7874015748031497,
          "duration": 0.07692299999999364
        },
        {
          "name": "A#2",
          "midi": 46,
          "time": 143.99985599999738,
          "velocity": 0.7874015748031497,
          "duration": 0.07692299999999364
        },
        {
          "name": "C2",
          "midi": 36,
          "time": 144.23062499999736,
          "velocity": 0.7874015748031497,
          "duration": 0.07692299999999364
        },
        {
          "name": "B1",
          "midi": 35,
          "time": 144.23062499999736,
          "velocity": 0.7874015748031497,
          "duration": 0.07692299999999364
        },
        {
          "name": "A#2",
          "midi": 46,
          "time": 144.23062499999736,
          "velocity": 0.7874015748031497,
          "duration": 0.07692299999999364
        },
        {
          "name": "D2",
          "midi": 38,
          "time": 144.46139399999734,
          "velocity": 0.7874015748031497,
          "duration": 0.07692299999999364
        },
        {
          "name": "E2",
          "midi": 40,
          "time": 144.46139399999734,
          "velocity": 0.7874015748031497,
          "duration": 0.07692299999999364
        },
        {
          "name": "A3",
          "midi": 57,
          "time": 144.46139399999734,
          "velocity": 0.7874015748031497,
          "duration": 0.07692299999999364
        },
        {
          "name": "A#2",
          "midi": 46,
          "time": 144.46139399999734,
          "velocity": 0.7874015748031497,
          "duration": 0.07692299999999364
        },
        {
          "name": "A#2",
          "midi": 46,
          "time": 144.69216299999732,
          "velocity": 0.7874015748031497,
          "duration": 0.07692299999999364
        },
        {
          "name": "C2",
          "midi": 36,
          "time": 144.80754749999733,
          "velocity": 0.7874015748031497,
          "duration": 0.07692299999999364
        },
        {
          "name": "B1",
          "midi": 35,
          "time": 144.80754749999733,
          "velocity": 0.7874015748031497,
          "duration": 0.07692299999999364
        },
        {
          "name": "E2",
          "midi": 40,
          "time": 144.80754749999733,
          "velocity": 0.7874015748031497,
          "duration": 0.07692299999999364
        },
        {
          "name": "A#2",
          "midi": 46,
          "time": 144.92293199999733,
          "velocity": 0.7874015748031497,
          "duration": 0.07692299999999364
        },
        {
          "name": "G#2",
          "midi": 44,
          "time": 145.03831649999734,
          "velocity": 0.7874015748031497,
          "duration": 0.07692299999999364
        },
        {
          "name": "C2",
          "midi": 36,
          "time": 145.15370099999734,
          "velocity": 0.7874015748031497,
          "duration": 0.07692299999999364
        },
        {
          "name": "B1",
          "midi": 35,
          "time": 145.15370099999734,
          "velocity": 0.7874015748031497,
          "duration": 0.07692299999999364
        },
        {
          "name": "A#2",
          "midi": 46,
          "time": 145.15370099999734,
          "velocity": 0.7874015748031497,
          "duration": 0.07692299999999364
        },
        {
          "name": "D2",
          "midi": 38,
          "time": 145.38446999999732,
          "velocity": 0.7874015748031497,
          "duration": 0.07692299999999364
        },
        {
          "name": "E2",
          "midi": 40,
          "time": 145.38446999999732,
          "velocity": 0.7874015748031497,
          "duration": 0.07692299999999364
        },
        {
          "name": "A3",
          "midi": 57,
          "time": 145.38446999999732,
          "velocity": 0.7874015748031497,
          "duration": 0.07692299999999364
        },
        {
          "name": "A#2",
          "midi": 46,
          "time": 145.38446999999732,
          "velocity": 0.7874015748031497,
          "duration": 0.07692299999999364
        },
        {
          "name": "A#2",
          "midi": 46,
          "time": 145.6152389999973,
          "velocity": 0.7874015748031497,
          "duration": 0.07692299999999364
        },
        {
          "name": "C2",
          "midi": 36,
          "time": 145.7306234999973,
          "velocity": 0.7874015748031497,
          "duration": 0.07692299999999364
        },
        {
          "name": "B1",
          "midi": 35,
          "time": 145.7306234999973,
          "velocity": 0.7874015748031497,
          "duration": 0.07692299999999364
        },
        {
          "name": "C2",
          "midi": 36,
          "time": 145.8460079999973,
          "velocity": 0.7874015748031497,
          "duration": 0.07692299999999364
        },
        {
          "name": "B1",
          "midi": 35,
          "time": 145.8460079999973,
          "velocity": 0.7874015748031497,
          "duration": 0.07692299999999364
        },
        {
          "name": "A3",
          "midi": 57,
          "time": 145.8460079999973,
          "velocity": 0.7874015748031497,
          "duration": 0.07692299999999364
        },
        {
          "name": "A#2",
          "midi": 46,
          "time": 145.8460079999973,
          "velocity": 0.7874015748031497,
          "duration": 0.07692299999999364
        },
        {
          "name": "C2",
          "midi": 36,
          "time": 146.0767769999973,
          "velocity": 0.7874015748031497,
          "duration": 0.07692299999999364
        },
        {
          "name": "B1",
          "midi": 35,
          "time": 146.0767769999973,
          "velocity": 0.7874015748031497,
          "duration": 0.07692299999999364
        },
        {
          "name": "A#2",
          "midi": 46,
          "time": 146.0767769999973,
          "velocity": 0.7874015748031497,
          "duration": 0.07692299999999364
        },
        {
          "name": "D2",
          "midi": 38,
          "time": 146.30754599999727,
          "velocity": 0.7874015748031497,
          "duration": 0.07692299999999364
        },
        {
          "name": "E2",
          "midi": 40,
          "time": 146.30754599999727,
          "velocity": 0.7874015748031497,
          "duration": 0.07692299999999364
        },
        {
          "name": "A3",
          "midi": 57,
          "time": 146.30754599999727,
          "velocity": 0.7874015748031497,
          "duration": 0.07692299999999364
        },
        {
          "name": "A#2",
          "midi": 46,
          "time": 146.30754599999727,
          "velocity": 0.7874015748031497,
          "duration": 0.07692299999999364
        },
        {
          "name": "A#2",
          "midi": 46,
          "time": 146.53831499999725,
          "velocity": 0.7874015748031497,
          "duration": 0.07692299999999364
        },
        {
          "name": "C2",
          "midi": 36,
          "time": 146.65369949999726,
          "velocity": 0.7874015748031497,
          "duration": 0.07692299999999364
        },
        {
          "name": "B1",
          "midi": 35,
          "time": 146.65369949999726,
          "velocity": 0.7874015748031497,
          "duration": 0.07692299999999364
        },
        {
          "name": "E2",
          "midi": 40,
          "time": 146.65369949999726,
          "velocity": 0.7874015748031497,
          "duration": 0.07692299999999364
        },
        {
          "name": "A#2",
          "midi": 46,
          "time": 146.76908399999726,
          "velocity": 0.7874015748031497,
          "duration": 0.07692299999999364
        },
        {
          "name": "G#2",
          "midi": 44,
          "time": 146.88446849999727,
          "velocity": 0.7874015748031497,
          "duration": 0.07692299999999364
        },
        {
          "name": "C2",
          "midi": 36,
          "time": 146.99985299999727,
          "velocity": 0.7874015748031497,
          "duration": 0.07692299999999364
        },
        {
          "name": "B1",
          "midi": 35,
          "time": 146.99985299999727,
          "velocity": 0.7874015748031497,
          "duration": 0.07692299999999364
        },
        {
          "name": "A#2",
          "midi": 46,
          "time": 146.99985299999727,
          "velocity": 0.7874015748031497,
          "duration": 0.07692299999999364
        },
        {
          "name": "D2",
          "midi": 38,
          "time": 147.23062199999725,
          "velocity": 0.7874015748031497,
          "duration": 0.07692299999999364
        },
        {
          "name": "E2",
          "midi": 40,
          "time": 147.23062199999725,
          "velocity": 0.7874015748031497,
          "duration": 0.07692299999999364
        },
        {
          "name": "A3",
          "midi": 57,
          "time": 147.23062199999725,
          "velocity": 0.7874015748031497,
          "duration": 0.07692299999999364
        },
        {
          "name": "A#2",
          "midi": 46,
          "time": 147.23062199999725,
          "velocity": 0.7874015748031497,
          "duration": 0.07692299999999364
        },
        {
          "name": "A#2",
          "midi": 46,
          "time": 147.46139099999723,
          "velocity": 0.7874015748031497,
          "duration": 0.07692299999999364
        },
        {
          "name": "C2",
          "midi": 36,
          "time": 147.57677549999724,
          "velocity": 0.7874015748031497,
          "duration": 0.07692299999999364
        },
        {
          "name": "B1",
          "midi": 35,
          "time": 147.57677549999724,
          "velocity": 0.7874015748031497,
          "duration": 0.07692299999999364
        },
        {
          "name": "C2",
          "midi": 36,
          "time": 147.69215999999724,
          "velocity": 0.7874015748031497,
          "duration": 0.07692299999999364
        },
        {
          "name": "B1",
          "midi": 35,
          "time": 147.69215999999724,
          "velocity": 0.7874015748031497,
          "duration": 0.07692299999999364
        },
        {
          "name": "A3",
          "midi": 57,
          "time": 147.69215999999724,
          "velocity": 0.7874015748031497,
          "duration": 0.07692299999999364
        },
        {
          "name": "A#2",
          "midi": 46,
          "time": 147.69215999999724,
          "velocity": 0.7874015748031497,
          "duration": 0.07692299999999364
        },
        {
          "name": "C2",
          "midi": 36,
          "time": 147.92292899999723,
          "velocity": 0.7874015748031497,
          "duration": 0.07692299999999364
        },
        {
          "name": "B1",
          "midi": 35,
          "time": 147.92292899999723,
          "velocity": 0.7874015748031497,
          "duration": 0.07692299999999364
        },
        {
          "name": "A#2",
          "midi": 46,
          "time": 147.92292899999723,
          "velocity": 0.7874015748031497,
          "duration": 0.07692299999999364
        },
        {
          "name": "D2",
          "midi": 38,
          "time": 148.1536979999972,
          "velocity": 0.7874015748031497,
          "duration": 0.07692299999999364
        },
        {
          "name": "E2",
          "midi": 40,
          "time": 148.1536979999972,
          "velocity": 0.7874015748031497,
          "duration": 0.07692299999999364
        },
        {
          "name": "A3",
          "midi": 57,
          "time": 148.1536979999972,
          "velocity": 0.7874015748031497,
          "duration": 0.07692299999999364
        },
        {
          "name": "A#2",
          "midi": 46,
          "time": 148.1536979999972,
          "velocity": 0.7874015748031497,
          "duration": 0.07692299999999364
        },
        {
          "name": "A#2",
          "midi": 46,
          "time": 148.3844669999972,
          "velocity": 0.7874015748031497,
          "duration": 0.07692299999999364
        },
        {
          "name": "C2",
          "midi": 36,
          "time": 148.4998514999972,
          "velocity": 0.7874015748031497,
          "duration": 0.07692299999999364
        },
        {
          "name": "B1",
          "midi": 35,
          "time": 148.4998514999972,
          "velocity": 0.7874015748031497,
          "duration": 0.07692299999999364
        },
        {
          "name": "E2",
          "midi": 40,
          "time": 148.4998514999972,
          "velocity": 0.7874015748031497,
          "duration": 0.07692299999999364
        },
        {
          "name": "A#2",
          "midi": 46,
          "time": 148.6152359999972,
          "velocity": 0.7874015748031497,
          "duration": 0.07692299999999364
        },
        {
          "name": "G#2",
          "midi": 44,
          "time": 148.7306204999972,
          "velocity": 0.7874015748031497,
          "duration": 0.07692299999999364
        },
        {
          "name": "C2",
          "midi": 36,
          "time": 148.8460049999972,
          "velocity": 0.7874015748031497,
          "duration": 0.07692299999999364
        },
        {
          "name": "B1",
          "midi": 35,
          "time": 148.8460049999972,
          "velocity": 0.7874015748031497,
          "duration": 0.07692299999999364
        },
        {
          "name": "A#2",
          "midi": 46,
          "time": 148.8460049999972,
          "velocity": 0.7874015748031497,
          "duration": 0.07692299999999364
        },
        {
          "name": "D2",
          "midi": 38,
          "time": 149.0767739999972,
          "velocity": 0.7874015748031497,
          "duration": 0.07692299999999364
        },
        {
          "name": "E2",
          "midi": 40,
          "time": 149.0767739999972,
          "velocity": 0.7874015748031497,
          "duration": 0.07692299999999364
        },
        {
          "name": "A3",
          "midi": 57,
          "time": 149.0767739999972,
          "velocity": 0.7874015748031497,
          "duration": 0.07692299999999364
        },
        {
          "name": "A#2",
          "midi": 46,
          "time": 149.0767739999972,
          "velocity": 0.7874015748031497,
          "duration": 0.07692299999999364
        },
        {
          "name": "A#2",
          "midi": 46,
          "time": 149.30754299999717,
          "velocity": 0.7874015748031497,
          "duration": 0.07692299999999364
        },
        {
          "name": "C2",
          "midi": 36,
          "time": 149.42292749999717,
          "velocity": 0.7874015748031497,
          "duration": 0.07692299999999364
        },
        {
          "name": "B1",
          "midi": 35,
          "time": 149.42292749999717,
          "velocity": 0.7874015748031497,
          "duration": 0.07692299999999364
        },
        {
          "name": "C2",
          "midi": 36,
          "time": 149.53831199999718,
          "velocity": 0.7874015748031497,
          "duration": 0.07692299999999364
        },
        {
          "name": "B1",
          "midi": 35,
          "time": 149.53831199999718,
          "velocity": 0.7874015748031497,
          "duration": 0.07692299999999364
        },
        {
          "name": "A3",
          "midi": 57,
          "time": 149.53831199999718,
          "velocity": 0.7874015748031497,
          "duration": 0.07692299999999364
        },
        {
          "name": "A#2",
          "midi": 46,
          "time": 149.53831199999718,
          "velocity": 0.7874015748031497,
          "duration": 0.07692299999999364
        },
        {
          "name": "C2",
          "midi": 36,
          "time": 149.76908099999716,
          "velocity": 0.7874015748031497,
          "duration": 0.07692299999999364
        },
        {
          "name": "B1",
          "midi": 35,
          "time": 149.76908099999716,
          "velocity": 0.7874015748031497,
          "duration": 0.07692299999999364
        },
        {
          "name": "A#2",
          "midi": 46,
          "time": 149.76908099999716,
          "velocity": 0.7874015748031497,
          "duration": 0.07692299999999364
        },
        {
          "name": "D2",
          "midi": 38,
          "time": 149.99984999999714,
          "velocity": 0.7874015748031497,
          "duration": 0.07692299999999364
        },
        {
          "name": "E2",
          "midi": 40,
          "time": 149.99984999999714,
          "velocity": 0.7874015748031497,
          "duration": 0.07692299999999364
        },
        {
          "name": "A3",
          "midi": 57,
          "time": 149.99984999999714,
          "velocity": 0.7874015748031497,
          "duration": 0.07692299999999364
        },
        {
          "name": "A#2",
          "midi": 46,
          "time": 149.99984999999714,
          "velocity": 0.7874015748031497,
          "duration": 0.07692299999999364
        },
        {
          "name": "A#2",
          "midi": 46,
          "time": 150.23061899999712,
          "velocity": 0.7874015748031497,
          "duration": 0.07692299999999364
        },
        {
          "name": "A#2",
          "midi": 46,
          "time": 150.4613879999971,
          "velocity": 0.7874015748031497,
          "duration": 0.07692300000002206
        },
        {
          "name": "E2",
          "midi": 40,
          "time": 150.4613879999971,
          "velocity": 0.7874015748031497,
          "duration": 0.03846150000001103
        },
        {
          "name": "D2",
          "midi": 38,
          "time": 150.4613879999971,
          "velocity": 0.7874015748031497,
          "duration": 0.03846150000001103
        },
        {
          "name": "C2",
          "midi": 36,
          "time": 150.4613879999971,
          "velocity": 0.7874015748031497,
          "duration": 0.07692300000002206
        },
        {
          "name": "E2",
          "midi": 40,
          "time": 150.57677249999713,
          "velocity": 0.7874015748031497,
          "duration": 0.03846150000001103
        },
        {
          "name": "D2",
          "midi": 38,
          "time": 150.57677249999713,
          "velocity": 0.7874015748031497,
          "duration": 0.03846150000001103
        },
        {
          "name": "C2",
          "midi": 36,
          "time": 150.57677249999713,
          "velocity": 0.7874015748031497,
          "duration": 0.07692300000002206
        },
        {
          "name": "G#2",
          "midi": 44,
          "time": 150.57677249999713,
          "velocity": 0.7874015748031497,
          "duration": 0.07692300000002206
        },
        {
          "name": "A#2",
          "midi": 46,
          "time": 150.69215699999717,
          "velocity": 0.7874015748031497,
          "duration": 0.07692299999999364
        },
        {
          "name": "E2",
          "midi": 40,
          "time": 150.80754149999717,
          "velocity": 0.7874015748031497,
          "duration": 0.03846150000001103
        },
        {
          "name": "E2",
          "midi": 40,
          "time": 150.86523374999717,
          "velocity": 0.7874015748031497,
          "duration": 0.03846150000001103
        },
        {
          "name": "A#2",
          "midi": 46,
          "time": 150.92292599999718,
          "velocity": 0.7874015748031497,
          "duration": 0.07692299999999364
        },
        {
          "name": "D2",
          "midi": 38,
          "time": 150.92292599999718,
          "velocity": 0.7874015748031497,
          "duration": 0.07692299999999364
        },
        {
          "name": "E2",
          "midi": 40,
          "time": 150.92292599999718,
          "velocity": 0.7874015748031497,
          "duration": 0.07692299999999364
        },
        {
          "name": "C2",
          "midi": 36,
          "time": 150.92292599999718,
          "velocity": 0.7874015748031497,
          "duration": 0.07692299999999364
        },
        {
          "name": "E2",
          "midi": 40,
          "time": 151.03831049999718,
          "velocity": 0.7874015748031497,
          "duration": 0.03846150000001103
        },
        {
          "name": "D2",
          "midi": 38,
          "time": 151.03831049999718,
          "velocity": 0.7874015748031497,
          "duration": 0.03846150000001103
        },
        {
          "name": "C2",
          "midi": 36,
          "time": 151.03831049999718,
          "velocity": 0.7874015748031497,
          "duration": 0.07692300000002206
        },
        {
          "name": "A#2",
          "midi": 46,
          "time": 151.1536949999972,
          "velocity": 0.7874015748031497,
          "duration": 0.07692299999999364
        },
        {
          "name": "E2",
          "midi": 40,
          "time": 151.26907949999722,
          "velocity": 0.7874015748031497,
          "duration": 0.03846150000001103
        },
        {
          "name": "D2",
          "midi": 38,
          "time": 151.26907949999722,
          "velocity": 0.7874015748031497,
          "duration": 0.03846150000001103
        },
        {
          "name": "C2",
          "midi": 36,
          "time": 151.26907949999722,
          "velocity": 0.7874015748031497,
          "duration": 0.07692300000002206
        },
        {
          "name": "C2",
          "midi": 36,
          "time": 151.38446399999725,
          "velocity": 0.7874015748031497,
          "duration": 0.07692299999999364
        },
        {
          "name": "B1",
          "midi": 35,
          "time": 151.38446399999725,
          "velocity": 0.7874015748031497,
          "duration": 0.07692299999999364
        },
        {
          "name": "A3",
          "midi": 57,
          "time": 151.38446399999725,
          "velocity": 0.7874015748031497,
          "duration": 0.07692299999999364
        },
        {
          "name": "A#2",
          "midi": 46,
          "time": 151.38446399999725,
          "velocity": 0.7874015748031497,
          "duration": 0.07692299999999364
        },
        {
          "name": "C2",
          "midi": 36,
          "time": 151.61523299999723,
          "velocity": 0.7874015748031497,
          "duration": 0.07692299999999364
        },
        {
          "name": "B1",
          "midi": 35,
          "time": 151.61523299999723,
          "velocity": 0.7874015748031497,
          "duration": 0.07692299999999364
        },
        {
          "name": "A#2",
          "midi": 46,
          "time": 151.61523299999723,
          "velocity": 0.7874015748031497,
          "duration": 0.07692299999999364
        },
        {
          "name": "D2",
          "midi": 38,
          "time": 151.8460019999972,
          "velocity": 0.7874015748031497,
          "duration": 0.07692299999999364
        },
        {
          "name": "E2",
          "midi": 40,
          "time": 151.8460019999972,
          "velocity": 0.7874015748031497,
          "duration": 0.07692299999999364
        },
        {
          "name": "A3",
          "midi": 57,
          "time": 151.8460019999972,
          "velocity": 0.7874015748031497,
          "duration": 0.07692299999999364
        },
        {
          "name": "A#2",
          "midi": 46,
          "time": 151.8460019999972,
          "velocity": 0.7874015748031497,
          "duration": 0.07692299999999364
        },
        {
          "name": "A#2",
          "midi": 46,
          "time": 152.0767709999972,
          "velocity": 0.7874015748031497,
          "duration": 0.07692299999999364
        },
        {
          "name": "C2",
          "midi": 36,
          "time": 152.1921554999972,
          "velocity": 0.7874015748031497,
          "duration": 0.07692299999999364
        },
        {
          "name": "B1",
          "midi": 35,
          "time": 152.1921554999972,
          "velocity": 0.7874015748031497,
          "duration": 0.07692299999999364
        },
        {
          "name": "E2",
          "midi": 40,
          "time": 152.1921554999972,
          "velocity": 0.7874015748031497,
          "duration": 0.07692299999999364
        },
        {
          "name": "A#2",
          "midi": 46,
          "time": 152.3075399999972,
          "velocity": 0.7874015748031497,
          "duration": 0.07692299999999364
        },
        {
          "name": "G#2",
          "midi": 44,
          "time": 152.4229244999972,
          "velocity": 0.7874015748031497,
          "duration": 0.07692299999999364
        },
        {
          "name": "C2",
          "midi": 36,
          "time": 152.5383089999972,
          "velocity": 0.7874015748031497,
          "duration": 0.07692299999999364
        },
        {
          "name": "B1",
          "midi": 35,
          "time": 152.5383089999972,
          "velocity": 0.7874015748031497,
          "duration": 0.07692299999999364
        },
        {
          "name": "A#2",
          "midi": 46,
          "time": 152.5383089999972,
          "velocity": 0.7874015748031497,
          "duration": 0.07692299999999364
        },
        {
          "name": "D2",
          "midi": 38,
          "time": 152.7690779999972,
          "velocity": 0.7874015748031497,
          "duration": 0.07692299999999364
        },
        {
          "name": "E2",
          "midi": 40,
          "time": 152.7690779999972,
          "velocity": 0.7874015748031497,
          "duration": 0.07692299999999364
        },
        {
          "name": "A3",
          "midi": 57,
          "time": 152.7690779999972,
          "velocity": 0.7874015748031497,
          "duration": 0.07692299999999364
        },
        {
          "name": "A#2",
          "midi": 46,
          "time": 152.7690779999972,
          "velocity": 0.7874015748031497,
          "duration": 0.07692299999999364
        },
        {
          "name": "A#2",
          "midi": 46,
          "time": 152.99984699999717,
          "velocity": 0.7874015748031497,
          "duration": 0.07692299999999364
        },
        {
          "name": "C2",
          "midi": 36,
          "time": 153.11523149999718,
          "velocity": 0.7874015748031497,
          "duration": 0.07692299999999364
        },
        {
          "name": "B1",
          "midi": 35,
          "time": 153.11523149999718,
          "velocity": 0.7874015748031497,
          "duration": 0.07692299999999364
        },
        {
          "name": "C2",
          "midi": 36,
          "time": 153.23061599999718,
          "velocity": 0.7874015748031497,
          "duration": 0.07692299999999364
        },
        {
          "name": "B1",
          "midi": 35,
          "time": 153.23061599999718,
          "velocity": 0.7874015748031497,
          "duration": 0.07692299999999364
        },
        {
          "name": "A3",
          "midi": 57,
          "time": 153.23061599999718,
          "velocity": 0.7874015748031497,
          "duration": 0.07692299999999364
        },
        {
          "name": "A#2",
          "midi": 46,
          "time": 153.23061599999718,
          "velocity": 0.7874015748031497,
          "duration": 0.07692299999999364
        },
        {
          "name": "C2",
          "midi": 36,
          "time": 153.46138499999716,
          "velocity": 0.7874015748031497,
          "duration": 0.07692299999999364
        },
        {
          "name": "B1",
          "midi": 35,
          "time": 153.46138499999716,
          "velocity": 0.7874015748031497,
          "duration": 0.07692299999999364
        },
        {
          "name": "A#2",
          "midi": 46,
          "time": 153.46138499999716,
          "velocity": 0.7874015748031497,
          "duration": 0.07692299999999364
        },
        {
          "name": "D2",
          "midi": 38,
          "time": 153.69215399999715,
          "velocity": 0.7874015748031497,
          "duration": 0.07692299999999364
        },
        {
          "name": "E2",
          "midi": 40,
          "time": 153.69215399999715,
          "velocity": 0.7874015748031497,
          "duration": 0.07692299999999364
        },
        {
          "name": "A3",
          "midi": 57,
          "time": 153.69215399999715,
          "velocity": 0.7874015748031497,
          "duration": 0.07692299999999364
        },
        {
          "name": "A#2",
          "midi": 46,
          "time": 153.69215399999715,
          "velocity": 0.7874015748031497,
          "duration": 0.07692299999999364
        },
        {
          "name": "A#2",
          "midi": 46,
          "time": 153.92292299999713,
          "velocity": 0.7874015748031497,
          "duration": 0.07692299999999364
        },
        {
          "name": "C2",
          "midi": 36,
          "time": 154.03830749999713,
          "velocity": 0.7874015748031497,
          "duration": 0.07692299999999364
        },
        {
          "name": "B1",
          "midi": 35,
          "time": 154.03830749999713,
          "velocity": 0.7874015748031497,
          "duration": 0.07692299999999364
        },
        {
          "name": "E2",
          "midi": 40,
          "time": 154.03830749999713,
          "velocity": 0.7874015748031497,
          "duration": 0.07692299999999364
        },
        {
          "name": "A#2",
          "midi": 46,
          "time": 154.15369199999714,
          "velocity": 0.7874015748031497,
          "duration": 0.07692299999999364
        },
        {
          "name": "G#2",
          "midi": 44,
          "time": 154.26907649999714,
          "velocity": 0.7874015748031497,
          "duration": 0.07692299999999364
        },
        {
          "name": "C2",
          "midi": 36,
          "time": 154.38446099999715,
          "velocity": 0.7874015748031497,
          "duration": 0.07692299999999364
        },
        {
          "name": "B1",
          "midi": 35,
          "time": 154.38446099999715,
          "velocity": 0.7874015748031497,
          "duration": 0.07692299999999364
        },
        {
          "name": "A#2",
          "midi": 46,
          "time": 154.38446099999715,
          "velocity": 0.7874015748031497,
          "duration": 0.07692299999999364
        },
        {
          "name": "D2",
          "midi": 38,
          "time": 154.61522999999713,
          "velocity": 0.7874015748031497,
          "duration": 0.07692299999999364
        },
        {
          "name": "E2",
          "midi": 40,
          "time": 154.61522999999713,
          "velocity": 0.7874015748031497,
          "duration": 0.07692299999999364
        },
        {
          "name": "A3",
          "midi": 57,
          "time": 154.61522999999713,
          "velocity": 0.7874015748031497,
          "duration": 0.07692299999999364
        },
        {
          "name": "A#2",
          "midi": 46,
          "time": 154.61522999999713,
          "velocity": 0.7874015748031497,
          "duration": 0.07692299999999364
        },
        {
          "name": "A#2",
          "midi": 46,
          "time": 154.8459989999971,
          "velocity": 0.7874015748031497,
          "duration": 0.07692299999999364
        },
        {
          "name": "C2",
          "midi": 36,
          "time": 154.9613834999971,
          "velocity": 0.7874015748031497,
          "duration": 0.07692299999999364
        },
        {
          "name": "B1",
          "midi": 35,
          "time": 154.9613834999971,
          "velocity": 0.7874015748031497,
          "duration": 0.07692299999999364
        },
        {
          "name": "C2",
          "midi": 36,
          "time": 155.07676799999712,
          "velocity": 0.7874015748031497,
          "duration": 0.07692299999999364
        },
        {
          "name": "B1",
          "midi": 35,
          "time": 155.07676799999712,
          "velocity": 0.7874015748031497,
          "duration": 0.07692299999999364
        },
        {
          "name": "A3",
          "midi": 57,
          "time": 155.07676799999712,
          "velocity": 0.7874015748031497,
          "duration": 0.07692299999999364
        },
        {
          "name": "A#2",
          "midi": 46,
          "time": 155.07676799999712,
          "velocity": 0.7874015748031497,
          "duration": 0.07692299999999364
        },
        {
          "name": "C2",
          "midi": 36,
          "time": 155.3075369999971,
          "velocity": 0.7874015748031497,
          "duration": 0.07692299999999364
        },
        {
          "name": "B1",
          "midi": 35,
          "time": 155.3075369999971,
          "velocity": 0.7874015748031497,
          "duration": 0.07692299999999364
        },
        {
          "name": "A#2",
          "midi": 46,
          "time": 155.3075369999971,
          "velocity": 0.7874015748031497,
          "duration": 0.07692299999999364
        },
        {
          "name": "D2",
          "midi": 38,
          "time": 155.53830599999708,
          "velocity": 0.7874015748031497,
          "duration": 0.07692299999999364
        },
        {
          "name": "E2",
          "midi": 40,
          "time": 155.53830599999708,
          "velocity": 0.7874015748031497,
          "duration": 0.07692299999999364
        },
        {
          "name": "A3",
          "midi": 57,
          "time": 155.53830599999708,
          "velocity": 0.7874015748031497,
          "duration": 0.07692299999999364
        },
        {
          "name": "A#2",
          "midi": 46,
          "time": 155.53830599999708,
          "velocity": 0.7874015748031497,
          "duration": 0.07692299999999364
        },
        {
          "name": "A#2",
          "midi": 46,
          "time": 155.76907499999706,
          "velocity": 0.7874015748031497,
          "duration": 0.07692299999999364
        },
        {
          "name": "C2",
          "midi": 36,
          "time": 155.88445949999706,
          "velocity": 0.7874015748031497,
          "duration": 0.07692299999999364
        },
        {
          "name": "B1",
          "midi": 35,
          "time": 155.88445949999706,
          "velocity": 0.7874015748031497,
          "duration": 0.07692299999999364
        },
        {
          "name": "E2",
          "midi": 40,
          "time": 155.88445949999706,
          "velocity": 0.7874015748031497,
          "duration": 0.07692299999999364
        },
        {
          "name": "A#2",
          "midi": 46,
          "time": 155.99984399999707,
          "velocity": 0.7874015748031497,
          "duration": 0.07692299999999364
        },
        {
          "name": "G#2",
          "midi": 44,
          "time": 156.11522849999707,
          "velocity": 0.7874015748031497,
          "duration": 0.07692299999999364
        },
        {
          "name": "C2",
          "midi": 36,
          "time": 156.23061299999708,
          "velocity": 0.7874015748031497,
          "duration": 0.07692299999999364
        },
        {
          "name": "B1",
          "midi": 35,
          "time": 156.23061299999708,
          "velocity": 0.7874015748031497,
          "duration": 0.07692299999999364
        },
        {
          "name": "A#2",
          "midi": 46,
          "time": 156.23061299999708,
          "velocity": 0.7874015748031497,
          "duration": 0.07692299999999364
        },
        {
          "name": "D2",
          "midi": 38,
          "time": 156.46138199999706,
          "velocity": 0.7874015748031497,
          "duration": 0.07692299999999364
        },
        {
          "name": "E2",
          "midi": 40,
          "time": 156.46138199999706,
          "velocity": 0.7874015748031497,
          "duration": 0.07692299999999364
        },
        {
          "name": "A3",
          "midi": 57,
          "time": 156.46138199999706,
          "velocity": 0.7874015748031497,
          "duration": 0.07692299999999364
        },
        {
          "name": "A#2",
          "midi": 46,
          "time": 156.46138199999706,
          "velocity": 0.7874015748031497,
          "duration": 0.07692299999999364
        },
        {
          "name": "A#2",
          "midi": 46,
          "time": 156.69215099999704,
          "velocity": 0.7874015748031497,
          "duration": 0.07692299999999364
        },
        {
          "name": "C2",
          "midi": 36,
          "time": 156.80753549999704,
          "velocity": 0.7874015748031497,
          "duration": 0.07692299999999364
        },
        {
          "name": "B1",
          "midi": 35,
          "time": 156.80753549999704,
          "velocity": 0.7874015748031497,
          "duration": 0.07692299999999364
        },
        {
          "name": "C2",
          "midi": 36,
          "time": 156.92291999999705,
          "velocity": 0.7874015748031497,
          "duration": 0.07692299999999364
        },
        {
          "name": "B1",
          "midi": 35,
          "time": 156.92291999999705,
          "velocity": 0.7874015748031497,
          "duration": 0.07692299999999364
        },
        {
          "name": "A3",
          "midi": 57,
          "time": 156.92291999999705,
          "velocity": 0.7874015748031497,
          "duration": 0.07692299999999364
        },
        {
          "name": "A#2",
          "midi": 46,
          "time": 156.92291999999705,
          "velocity": 0.7874015748031497,
          "duration": 0.07692299999999364
        },
        {
          "name": "C2",
          "midi": 36,
          "time": 157.15368899999703,
          "velocity": 0.7874015748031497,
          "duration": 0.07692299999999364
        },
        {
          "name": "B1",
          "midi": 35,
          "time": 157.15368899999703,
          "velocity": 0.7874015748031497,
          "duration": 0.07692299999999364
        },
        {
          "name": "A#2",
          "midi": 46,
          "time": 157.15368899999703,
          "velocity": 0.7874015748031497,
          "duration": 0.07692299999999364
        },
        {
          "name": "D2",
          "midi": 38,
          "time": 157.384457999997,
          "velocity": 0.7874015748031497,
          "duration": 0.07692299999999364
        },
        {
          "name": "E2",
          "midi": 40,
          "time": 157.384457999997,
          "velocity": 0.7874015748031497,
          "duration": 0.07692299999999364
        },
        {
          "name": "A3",
          "midi": 57,
          "time": 157.384457999997,
          "velocity": 0.7874015748031497,
          "duration": 0.07692299999999364
        },
        {
          "name": "A#2",
          "midi": 46,
          "time": 157.384457999997,
          "velocity": 0.7874015748031497,
          "duration": 0.07692299999999364
        },
        {
          "name": "A#2",
          "midi": 46,
          "time": 157.615226999997,
          "velocity": 0.7874015748031497,
          "duration": 0.07692299999999364
        },
        {
          "name": "C2",
          "midi": 36,
          "time": 157.730611499997,
          "velocity": 0.7874015748031497,
          "duration": 0.07692299999999364
        },
        {
          "name": "B1",
          "midi": 35,
          "time": 157.730611499997,
          "velocity": 0.7874015748031497,
          "duration": 0.07692299999999364
        },
        {
          "name": "E2",
          "midi": 40,
          "time": 157.730611499997,
          "velocity": 0.7874015748031497,
          "duration": 0.07692299999999364
        },
        {
          "name": "A#2",
          "midi": 46,
          "time": 157.845995999997,
          "velocity": 0.7874015748031497,
          "duration": 0.07692299999999364
        },
        {
          "name": "G#2",
          "midi": 44,
          "time": 157.961380499997,
          "velocity": 0.7874015748031497,
          "duration": 0.07692299999999364
        },
        {
          "name": "C2",
          "midi": 36,
          "time": 158.076764999997,
          "velocity": 0.7874015748031497,
          "duration": 0.07692299999999364
        },
        {
          "name": "B1",
          "midi": 35,
          "time": 158.076764999997,
          "velocity": 0.7874015748031497,
          "duration": 0.07692299999999364
        },
        {
          "name": "A#2",
          "midi": 46,
          "time": 158.076764999997,
          "velocity": 0.7874015748031497,
          "duration": 0.07692299999999364
        },
        {
          "name": "D2",
          "midi": 38,
          "time": 158.307533999997,
          "velocity": 0.7874015748031497,
          "duration": 0.07692299999999364
        },
        {
          "name": "E2",
          "midi": 40,
          "time": 158.307533999997,
          "velocity": 0.7874015748031497,
          "duration": 0.07692299999999364
        },
        {
          "name": "A3",
          "midi": 57,
          "time": 158.307533999997,
          "velocity": 0.7874015748031497,
          "duration": 0.07692299999999364
        },
        {
          "name": "A#2",
          "midi": 46,
          "time": 158.307533999997,
          "velocity": 0.7874015748031497,
          "duration": 0.07692299999999364
        },
        {
          "name": "A#2",
          "midi": 46,
          "time": 158.53830299999697,
          "velocity": 0.7874015748031497,
          "duration": 0.07692299999999364
        },
        {
          "name": "A3",
          "midi": 57,
          "time": 158.53830299999697,
          "velocity": 0.7874015748031497,
          "duration": 0.07692299999999364
        },
        {
          "name": "C2",
          "midi": 36,
          "time": 158.65368749999698,
          "velocity": 0.7874015748031497,
          "duration": 0.07692299999999364
        },
        {
          "name": "B1",
          "midi": 35,
          "time": 158.65368749999698,
          "velocity": 0.7874015748031497,
          "duration": 0.07692299999999364
        },
        {
          "name": "C2",
          "midi": 36,
          "time": 158.76907199999698,
          "velocity": 0.7874015748031497,
          "duration": 0.07692299999999364
        },
        {
          "name": "B1",
          "midi": 35,
          "time": 158.76907199999698,
          "velocity": 0.7874015748031497,
          "duration": 0.07692299999999364
        },
        {
          "name": "A3",
          "midi": 57,
          "time": 158.76907199999698,
          "velocity": 0.7874015748031497,
          "duration": 0.07692299999999364
        },
        {
          "name": "A#2",
          "midi": 46,
          "time": 158.76907199999698,
          "velocity": 0.7874015748031497,
          "duration": 0.07692299999999364
        },
        {
          "name": "C2",
          "midi": 36,
          "time": 158.99984099999696,
          "velocity": 0.7874015748031497,
          "duration": 0.07692299999999364
        },
        {
          "name": "B1",
          "midi": 35,
          "time": 158.99984099999696,
          "velocity": 0.7874015748031497,
          "duration": 0.07692299999999364
        },
        {
          "name": "A#2",
          "midi": 46,
          "time": 158.99984099999696,
          "velocity": 0.7874015748031497,
          "duration": 0.07692299999999364
        },
        {
          "name": "D2",
          "midi": 38,
          "time": 159.23060999999694,
          "velocity": 0.7874015748031497,
          "duration": 0.07692299999999364
        },
        {
          "name": "E2",
          "midi": 40,
          "time": 159.23060999999694,
          "velocity": 0.7874015748031497,
          "duration": 0.07692299999999364
        },
        {
          "name": "A3",
          "midi": 57,
          "time": 159.23060999999694,
          "velocity": 0.7874015748031497,
          "duration": 0.07692299999999364
        },
        {
          "name": "A#2",
          "midi": 46,
          "time": 159.23060999999694,
          "velocity": 0.7874015748031497,
          "duration": 0.07692299999999364
        },
        {
          "name": "A#2",
          "midi": 46,
          "time": 159.46137899999692,
          "velocity": 0.7874015748031497,
          "duration": 0.07692299999999364
        },
        {
          "name": "C2",
          "midi": 36,
          "time": 159.57676349999693,
          "velocity": 0.7874015748031497,
          "duration": 0.07692299999999364
        },
        {
          "name": "B1",
          "midi": 35,
          "time": 159.57676349999693,
          "velocity": 0.7874015748031497,
          "duration": 0.07692299999999364
        },
        {
          "name": "E2",
          "midi": 40,
          "time": 159.57676349999693,
          "velocity": 0.7874015748031497,
          "duration": 0.07692299999999364
        },
        {
          "name": "A#2",
          "midi": 46,
          "time": 159.69214799999693,
          "velocity": 0.7874015748031497,
          "duration": 0.07692299999999364
        },
        {
          "name": "G#2",
          "midi": 44,
          "time": 159.80753249999694,
          "velocity": 0.7874015748031497,
          "duration": 0.07692299999999364
        },
        {
          "name": "C2",
          "midi": 36,
          "time": 159.92291699999694,
          "velocity": 0.7874015748031497,
          "duration": 0.07692299999999364
        },
        {
          "name": "B1",
          "midi": 35,
          "time": 159.92291699999694,
          "velocity": 0.7874015748031497,
          "duration": 0.07692299999999364
        },
        {
          "name": "A#2",
          "midi": 46,
          "time": 159.92291699999694,
          "velocity": 0.7874015748031497,
          "duration": 0.07692299999999364
        },
        {
          "name": "D2",
          "midi": 38,
          "time": 160.15368599999692,
          "velocity": 0.7874015748031497,
          "duration": 0.07692299999999364
        },
        {
          "name": "E2",
          "midi": 40,
          "time": 160.15368599999692,
          "velocity": 0.7874015748031497,
          "duration": 0.07692299999999364
        },
        {
          "name": "A3",
          "midi": 57,
          "time": 160.15368599999692,
          "velocity": 0.7874015748031497,
          "duration": 0.07692299999999364
        },
        {
          "name": "A#2",
          "midi": 46,
          "time": 160.15368599999692,
          "velocity": 0.7874015748031497,
          "duration": 0.07692299999999364
        },
        {
          "name": "A#2",
          "midi": 46,
          "time": 160.3844549999969,
          "velocity": 0.7874015748031497,
          "duration": 0.07692299999999364
        },
        {
          "name": "C2",
          "midi": 36,
          "time": 160.4998394999969,
          "velocity": 0.7874015748031497,
          "duration": 0.07692299999999364
        },
        {
          "name": "B1",
          "midi": 35,
          "time": 160.4998394999969,
          "velocity": 0.7874015748031497,
          "duration": 0.07692299999999364
        },
        {
          "name": "C2",
          "midi": 36,
          "time": 160.6152239999969,
          "velocity": 0.7874015748031497,
          "duration": 0.07692299999999364
        },
        {
          "name": "B1",
          "midi": 35,
          "time": 160.6152239999969,
          "velocity": 0.7874015748031497,
          "duration": 0.07692299999999364
        },
        {
          "name": "A3",
          "midi": 57,
          "time": 160.6152239999969,
          "velocity": 0.7874015748031497,
          "duration": 0.07692299999999364
        },
        {
          "name": "A#2",
          "midi": 46,
          "time": 160.6152239999969,
          "velocity": 0.7874015748031497,
          "duration": 0.07692299999999364
        },
        {
          "name": "C2",
          "midi": 36,
          "time": 160.8459929999969,
          "velocity": 0.7874015748031497,
          "duration": 0.07692299999999364
        },
        {
          "name": "B1",
          "midi": 35,
          "time": 160.8459929999969,
          "velocity": 0.7874015748031497,
          "duration": 0.07692299999999364
        },
        {
          "name": "A#2",
          "midi": 46,
          "time": 160.8459929999969,
          "velocity": 0.7874015748031497,
          "duration": 0.07692299999999364
        },
        {
          "name": "D2",
          "midi": 38,
          "time": 161.07676199999688,
          "velocity": 0.7874015748031497,
          "duration": 0.07692299999999364
        },
        {
          "name": "E2",
          "midi": 40,
          "time": 161.07676199999688,
          "velocity": 0.7874015748031497,
          "duration": 0.07692299999999364
        },
        {
          "name": "A3",
          "midi": 57,
          "time": 161.07676199999688,
          "velocity": 0.7874015748031497,
          "duration": 0.07692299999999364
        },
        {
          "name": "A#2",
          "midi": 46,
          "time": 161.07676199999688,
          "velocity": 0.7874015748031497,
          "duration": 0.07692299999999364
        },
        {
          "name": "A#2",
          "midi": 46,
          "time": 161.30753099999686,
          "velocity": 0.7874015748031497,
          "duration": 0.07692299999999364
        },
        {
          "name": "C2",
          "midi": 36,
          "time": 161.42291549999686,
          "velocity": 0.7874015748031497,
          "duration": 0.07692299999999364
        },
        {
          "name": "B1",
          "midi": 35,
          "time": 161.42291549999686,
          "velocity": 0.7874015748031497,
          "duration": 0.07692299999999364
        },
        {
          "name": "E2",
          "midi": 40,
          "time": 161.42291549999686,
          "velocity": 0.7874015748031497,
          "duration": 0.07692299999999364
        },
        {
          "name": "A#2",
          "midi": 46,
          "time": 161.53829999999687,
          "velocity": 0.7874015748031497,
          "duration": 0.07692299999999364
        },
        {
          "name": "G#2",
          "midi": 44,
          "time": 161.65368449999687,
          "velocity": 0.7874015748031497,
          "duration": 0.07692299999999364
        },
        {
          "name": "C2",
          "midi": 36,
          "time": 161.76906899999688,
          "velocity": 0.7874015748031497,
          "duration": 0.07692299999999364
        },
        {
          "name": "B1",
          "midi": 35,
          "time": 161.76906899999688,
          "velocity": 0.7874015748031497,
          "duration": 0.07692299999999364
        },
        {
          "name": "A#2",
          "midi": 46,
          "time": 161.76906899999688,
          "velocity": 0.7874015748031497,
          "duration": 0.07692299999999364
        },
        {
          "name": "D2",
          "midi": 38,
          "time": 161.99983799999686,
          "velocity": 0.7874015748031497,
          "duration": 0.07692299999999364
        },
        {
          "name": "E2",
          "midi": 40,
          "time": 161.99983799999686,
          "velocity": 0.7874015748031497,
          "duration": 0.07692299999999364
        },
        {
          "name": "A3",
          "midi": 57,
          "time": 161.99983799999686,
          "velocity": 0.7874015748031497,
          "duration": 0.07692299999999364
        },
        {
          "name": "A#2",
          "midi": 46,
          "time": 161.99983799999686,
          "velocity": 0.7874015748031497,
          "duration": 0.07692299999999364
        },
        {
          "name": "A#2",
          "midi": 46,
          "time": 162.23060699999684,
          "velocity": 0.7874015748031497,
          "duration": 0.07692299999999364
        },
        {
          "name": "C2",
          "midi": 36,
          "time": 162.34599149999684,
          "velocity": 0.7874015748031497,
          "duration": 0.07692299999999364
        },
        {
          "name": "B1",
          "midi": 35,
          "time": 162.34599149999684,
          "velocity": 0.7874015748031497,
          "duration": 0.07692299999999364
        },
        {
          "name": "C2",
          "midi": 36,
          "time": 162.46137599999685,
          "velocity": 0.7874015748031497,
          "duration": 0.07692299999999364
        },
        {
          "name": "B1",
          "midi": 35,
          "time": 162.46137599999685,
          "velocity": 0.7874015748031497,
          "duration": 0.07692299999999364
        },
        {
          "name": "A3",
          "midi": 57,
          "time": 162.46137599999685,
          "velocity": 0.7874015748031497,
          "duration": 0.07692299999999364
        },
        {
          "name": "A#2",
          "midi": 46,
          "time": 162.46137599999685,
          "velocity": 0.7874015748031497,
          "duration": 0.07692299999999364
        },
        {
          "name": "C2",
          "midi": 36,
          "time": 162.69214499999683,
          "velocity": 0.7874015748031497,
          "duration": 0.07692299999999364
        },
        {
          "name": "B1",
          "midi": 35,
          "time": 162.69214499999683,
          "velocity": 0.7874015748031497,
          "duration": 0.07692299999999364
        },
        {
          "name": "A#2",
          "midi": 46,
          "time": 162.69214499999683,
          "velocity": 0.7874015748031497,
          "duration": 0.07692299999999364
        },
        {
          "name": "D2",
          "midi": 38,
          "time": 162.9229139999968,
          "velocity": 0.7874015748031497,
          "duration": 0.07692299999999364
        },
        {
          "name": "E2",
          "midi": 40,
          "time": 162.9229139999968,
          "velocity": 0.7874015748031497,
          "duration": 0.07692299999999364
        },
        {
          "name": "A3",
          "midi": 57,
          "time": 162.9229139999968,
          "velocity": 0.7874015748031497,
          "duration": 0.07692299999999364
        },
        {
          "name": "A#2",
          "midi": 46,
          "time": 162.9229139999968,
          "velocity": 0.7874015748031497,
          "duration": 0.07692299999999364
        },
        {
          "name": "A#2",
          "midi": 46,
          "time": 163.1536829999968,
          "velocity": 0.7874015748031497,
          "duration": 0.07692299999999364
        },
        {
          "name": "C2",
          "midi": 36,
          "time": 163.2690674999968,
          "velocity": 0.7874015748031497,
          "duration": 0.07692299999999364
        },
        {
          "name": "B1",
          "midi": 35,
          "time": 163.2690674999968,
          "velocity": 0.7874015748031497,
          "duration": 0.07692299999999364
        },
        {
          "name": "E2",
          "midi": 40,
          "time": 163.2690674999968,
          "velocity": 0.7874015748031497,
          "duration": 0.07692299999999364
        },
        {
          "name": "A#2",
          "midi": 46,
          "time": 163.3844519999968,
          "velocity": 0.7874015748031497,
          "duration": 0.07692299999999364
        },
        {
          "name": "G#2",
          "midi": 44,
          "time": 163.4998364999968,
          "velocity": 0.7874015748031497,
          "duration": 0.07692299999999364
        },
        {
          "name": "C2",
          "midi": 36,
          "time": 163.6152209999968,
          "velocity": 0.7874015748031497,
          "duration": 0.07692299999999364
        },
        {
          "name": "B1",
          "midi": 35,
          "time": 163.6152209999968,
          "velocity": 0.7874015748031497,
          "duration": 0.07692299999999364
        },
        {
          "name": "A#2",
          "midi": 46,
          "time": 163.6152209999968,
          "velocity": 0.7874015748031497,
          "duration": 0.07692299999999364
        },
        {
          "name": "D2",
          "midi": 38,
          "time": 163.8459899999968,
          "velocity": 0.7874015748031497,
          "duration": 0.07692299999999364
        },
        {
          "name": "E2",
          "midi": 40,
          "time": 163.8459899999968,
          "velocity": 0.7874015748031497,
          "duration": 0.07692299999999364
        },
        {
          "name": "A3",
          "midi": 57,
          "time": 163.8459899999968,
          "velocity": 0.7874015748031497,
          "duration": 0.07692299999999364
        },
        {
          "name": "A#2",
          "midi": 46,
          "time": 163.8459899999968,
          "velocity": 0.7874015748031497,
          "duration": 0.07692299999999364
        },
        {
          "name": "A#2",
          "midi": 46,
          "time": 164.07675899999677,
          "velocity": 0.7874015748031497,
          "duration": 0.07692299999999364
        },
        {
          "name": "C2",
          "midi": 36,
          "time": 164.19214349999677,
          "velocity": 0.7874015748031497,
          "duration": 0.07692299999999364
        },
        {
          "name": "B1",
          "midi": 35,
          "time": 164.19214349999677,
          "velocity": 0.7874015748031497,
          "duration": 0.07692299999999364
        },
        {
          "name": "C2",
          "midi": 36,
          "time": 164.30752799999678,
          "velocity": 0.7874015748031497,
          "duration": 0.07692299999999364
        },
        {
          "name": "B1",
          "midi": 35,
          "time": 164.30752799999678,
          "velocity": 0.7874015748031497,
          "duration": 0.07692299999999364
        },
        {
          "name": "A3",
          "midi": 57,
          "time": 164.30752799999678,
          "velocity": 0.7874015748031497,
          "duration": 0.07692299999999364
        },
        {
          "name": "A#2",
          "midi": 46,
          "time": 164.30752799999678,
          "velocity": 0.7874015748031497,
          "duration": 0.07692299999999364
        },
        {
          "name": "C2",
          "midi": 36,
          "time": 164.53829699999676,
          "velocity": 0.7874015748031497,
          "duration": 0.07692299999999364
        },
        {
          "name": "B1",
          "midi": 35,
          "time": 164.53829699999676,
          "velocity": 0.7874015748031497,
          "duration": 0.07692299999999364
        },
        {
          "name": "A#2",
          "midi": 46,
          "time": 164.53829699999676,
          "velocity": 0.7874015748031497,
          "duration": 0.07692299999999364
        },
        {
          "name": "D2",
          "midi": 38,
          "time": 164.76906599999674,
          "velocity": 0.7874015748031497,
          "duration": 0.07692299999999364
        },
        {
          "name": "E2",
          "midi": 40,
          "time": 164.76906599999674,
          "velocity": 0.7874015748031497,
          "duration": 0.07692299999999364
        },
        {
          "name": "A3",
          "midi": 57,
          "time": 164.76906599999674,
          "velocity": 0.7874015748031497,
          "duration": 0.07692299999999364
        },
        {
          "name": "A#2",
          "midi": 46,
          "time": 164.76906599999674,
          "velocity": 0.7874015748031497,
          "duration": 0.07692299999999364
        },
        {
          "name": "A#2",
          "midi": 46,
          "time": 164.99983499999672,
          "velocity": 0.7874015748031497,
          "duration": 0.07692299999999364
        },
        {
          "name": "A#2",
          "midi": 46,
          "time": 165.2306039999967,
          "velocity": 0.7874015748031497,
          "duration": 0.07692300000002206
        },
        {
          "name": "E2",
          "midi": 40,
          "time": 165.2306039999967,
          "velocity": 0.7874015748031497,
          "duration": 0.03846150000001103
        },
        {
          "name": "D2",
          "midi": 38,
          "time": 165.2306039999967,
          "velocity": 0.7874015748031497,
          "duration": 0.03846150000001103
        },
        {
          "name": "C2",
          "midi": 36,
          "time": 165.2306039999967,
          "velocity": 0.7874015748031497,
          "duration": 0.07692300000002206
        },
        {
          "name": "E2",
          "midi": 40,
          "time": 165.34598849999674,
          "velocity": 0.7874015748031497,
          "duration": 0.03846150000001103
        },
        {
          "name": "D2",
          "midi": 38,
          "time": 165.34598849999674,
          "velocity": 0.7874015748031497,
          "duration": 0.03846150000001103
        },
        {
          "name": "C2",
          "midi": 36,
          "time": 165.34598849999674,
          "velocity": 0.7874015748031497,
          "duration": 0.07692300000002206
        },
        {
          "name": "G#2",
          "midi": 44,
          "time": 165.34598849999674,
          "velocity": 0.7874015748031497,
          "duration": 0.07692300000002206
        },
        {
          "name": "A#2",
          "midi": 46,
          "time": 165.46137299999677,
          "velocity": 0.7874015748031497,
          "duration": 0.07692299999999364
        },
        {
          "name": "E2",
          "midi": 40,
          "time": 165.57675749999677,
          "velocity": 0.7874015748031497,
          "duration": 0.03846150000001103
        },
        {
          "name": "E2",
          "midi": 40,
          "time": 165.63444974999678,
          "velocity": 0.7874015748031497,
          "duration": 0.03846150000001103
        },
        {
          "name": "A#2",
          "midi": 46,
          "time": 165.69214199999678,
          "velocity": 0.7874015748031497,
          "duration": 0.07692299999999364
        },
        {
          "name": "D2",
          "midi": 38,
          "time": 165.69214199999678,
          "velocity": 0.7874015748031497,
          "duration": 0.07692299999999364
        },
        {
          "name": "E2",
          "midi": 40,
          "time": 165.69214199999678,
          "velocity": 0.7874015748031497,
          "duration": 0.07692299999999364
        },
        {
          "name": "C2",
          "midi": 36,
          "time": 165.69214199999678,
          "velocity": 0.7874015748031497,
          "duration": 0.07692299999999364
        },
        {
          "name": "E2",
          "midi": 40,
          "time": 165.80752649999678,
          "velocity": 0.7874015748031497,
          "duration": 0.03846150000001103
        },
        {
          "name": "D2",
          "midi": 38,
          "time": 165.80752649999678,
          "velocity": 0.7874015748031497,
          "duration": 0.03846150000001103
        },
        {
          "name": "C2",
          "midi": 36,
          "time": 165.80752649999678,
          "velocity": 0.7874015748031497,
          "duration": 0.07692300000002206
        },
        {
          "name": "A#2",
          "midi": 46,
          "time": 165.92291099999682,
          "velocity": 0.7874015748031497,
          "duration": 0.07692299999999364
        },
        {
          "name": "E2",
          "midi": 40,
          "time": 166.03829549999682,
          "velocity": 0.7874015748031497,
          "duration": 0.03846150000001103
        },
        {
          "name": "D2",
          "midi": 38,
          "time": 166.03829549999682,
          "velocity": 0.7874015748031497,
          "duration": 0.03846150000001103
        },
        {
          "name": "C2",
          "midi": 36,
          "time": 166.03829549999682,
          "velocity": 0.7874015748031497,
          "duration": 0.07692300000002206
        },
        {
          "name": "C2",
          "midi": 36,
          "time": 166.15367999999685,
          "velocity": 0.7874015748031497,
          "duration": 0.07692299999999364
        },
        {
          "name": "B1",
          "midi": 35,
          "time": 166.15367999999685,
          "velocity": 0.7874015748031497,
          "duration": 0.07692299999999364
        },
        {
          "name": "A3",
          "midi": 57,
          "time": 166.15367999999685,
          "velocity": 0.7874015748031497,
          "duration": 0.07692299999999364
        },
        {
          "name": "A#2",
          "midi": 46,
          "time": 166.15367999999685,
          "velocity": 0.7874015748031497,
          "duration": 0.07692299999999364
        },
        {
          "name": "C2",
          "midi": 36,
          "time": 166.38444899999683,
          "velocity": 0.7874015748031497,
          "duration": 0.07692299999999364
        },
        {
          "name": "B1",
          "midi": 35,
          "time": 166.38444899999683,
          "velocity": 0.7874015748031497,
          "duration": 0.07692299999999364
        },
        {
          "name": "A#2",
          "midi": 46,
          "time": 166.38444899999683,
          "velocity": 0.7874015748031497,
          "duration": 0.07692299999999364
        },
        {
          "name": "D2",
          "midi": 38,
          "time": 166.61521799999682,
          "velocity": 0.7874015748031497,
          "duration": 0.07692299999999364
        },
        {
          "name": "E2",
          "midi": 40,
          "time": 166.61521799999682,
          "velocity": 0.7874015748031497,
          "duration": 0.07692299999999364
        },
        {
          "name": "A3",
          "midi": 57,
          "time": 166.61521799999682,
          "velocity": 0.7874015748031497,
          "duration": 0.07692299999999364
        },
        {
          "name": "A#2",
          "midi": 46,
          "time": 166.61521799999682,
          "velocity": 0.7874015748031497,
          "duration": 0.07692299999999364
        },
        {
          "name": "A#2",
          "midi": 46,
          "time": 166.8459869999968,
          "velocity": 0.7874015748031497,
          "duration": 0.07692299999999364
        },
        {
          "name": "C2",
          "midi": 36,
          "time": 166.9613714999968,
          "velocity": 0.7874015748031497,
          "duration": 0.07692299999999364
        },
        {
          "name": "B1",
          "midi": 35,
          "time": 166.9613714999968,
          "velocity": 0.7874015748031497,
          "duration": 0.07692299999999364
        },
        {
          "name": "E2",
          "midi": 40,
          "time": 166.9613714999968,
          "velocity": 0.7874015748031497,
          "duration": 0.07692299999999364
        },
        {
          "name": "A#2",
          "midi": 46,
          "time": 167.0767559999968,
          "velocity": 0.7874015748031497,
          "duration": 0.07692299999999364
        },
        {
          "name": "G#2",
          "midi": 44,
          "time": 167.1921404999968,
          "velocity": 0.7874015748031497,
          "duration": 0.07692299999999364
        },
        {
          "name": "C2",
          "midi": 36,
          "time": 167.30752499999682,
          "velocity": 0.7874015748031497,
          "duration": 0.07692299999999364
        },
        {
          "name": "B1",
          "midi": 35,
          "time": 167.30752499999682,
          "velocity": 0.7874015748031497,
          "duration": 0.07692299999999364
        },
        {
          "name": "A#2",
          "midi": 46,
          "time": 167.30752499999682,
          "velocity": 0.7874015748031497,
          "duration": 0.07692299999999364
        },
        {
          "name": "D2",
          "midi": 38,
          "time": 167.5382939999968,
          "velocity": 0.7874015748031497,
          "duration": 0.07692299999999364
        },
        {
          "name": "E2",
          "midi": 40,
          "time": 167.5382939999968,
          "velocity": 0.7874015748031497,
          "duration": 0.07692299999999364
        },
        {
          "name": "A3",
          "midi": 57,
          "time": 167.5382939999968,
          "velocity": 0.7874015748031497,
          "duration": 0.07692299999999364
        },
        {
          "name": "A#2",
          "midi": 46,
          "time": 167.5382939999968,
          "velocity": 0.7874015748031497,
          "duration": 0.07692299999999364
        },
        {
          "name": "A#2",
          "midi": 46,
          "time": 167.76906299999678,
          "velocity": 0.7874015748031497,
          "duration": 0.07692299999999364
        },
        {
          "name": "C2",
          "midi": 36,
          "time": 167.88444749999678,
          "velocity": 0.7874015748031497,
          "duration": 0.07692299999999364
        },
        {
          "name": "B1",
          "midi": 35,
          "time": 167.88444749999678,
          "velocity": 0.7874015748031497,
          "duration": 0.07692299999999364
        },
        {
          "name": "C2",
          "midi": 36,
          "time": 167.9998319999968,
          "velocity": 0.7874015748031497,
          "duration": 0.07692299999999364
        },
        {
          "name": "B1",
          "midi": 35,
          "time": 167.9998319999968,
          "velocity": 0.7874015748031497,
          "duration": 0.07692299999999364
        },
        {
          "name": "A3",
          "midi": 57,
          "time": 167.9998319999968,
          "velocity": 0.7874015748031497,
          "duration": 0.07692299999999364
        },
        {
          "name": "A#2",
          "midi": 46,
          "time": 167.9998319999968,
          "velocity": 0.7874015748031497,
          "duration": 0.07692299999999364
        },
        {
          "name": "C2",
          "midi": 36,
          "time": 168.23060099999677,
          "velocity": 0.7874015748031497,
          "duration": 0.07692299999999364
        },
        {
          "name": "B1",
          "midi": 35,
          "time": 168.23060099999677,
          "velocity": 0.7874015748031497,
          "duration": 0.07692299999999364
        },
        {
          "name": "A#2",
          "midi": 46,
          "time": 168.23060099999677,
          "velocity": 0.7874015748031497,
          "duration": 0.07692299999999364
        },
        {
          "name": "D2",
          "midi": 38,
          "time": 168.46136999999675,
          "velocity": 0.7874015748031497,
          "duration": 0.07692299999999364
        },
        {
          "name": "E2",
          "midi": 40,
          "time": 168.46136999999675,
          "velocity": 0.7874015748031497,
          "duration": 0.07692299999999364
        },
        {
          "name": "A3",
          "midi": 57,
          "time": 168.46136999999675,
          "velocity": 0.7874015748031497,
          "duration": 0.07692299999999364
        },
        {
          "name": "A#2",
          "midi": 46,
          "time": 168.46136999999675,
          "velocity": 0.7874015748031497,
          "duration": 0.07692299999999364
        },
        {
          "name": "A#2",
          "midi": 46,
          "time": 168.69213899999673,
          "velocity": 0.7874015748031497,
          "duration": 0.07692299999999364
        },
        {
          "name": "C2",
          "midi": 36,
          "time": 168.80752349999673,
          "velocity": 0.7874015748031497,
          "duration": 0.07692299999999364
        },
        {
          "name": "B1",
          "midi": 35,
          "time": 168.80752349999673,
          "velocity": 0.7874015748031497,
          "duration": 0.07692299999999364
        },
        {
          "name": "E2",
          "midi": 40,
          "time": 168.80752349999673,
          "velocity": 0.7874015748031497,
          "duration": 0.07692299999999364
        },
        {
          "name": "A#2",
          "midi": 46,
          "time": 168.92290799999674,
          "velocity": 0.7874015748031497,
          "duration": 0.07692299999999364
        },
        {
          "name": "G#2",
          "midi": 44,
          "time": 169.03829249999674,
          "velocity": 0.7874015748031497,
          "duration": 0.07692299999999364
        },
        {
          "name": "C2",
          "midi": 36,
          "time": 169.15367699999675,
          "velocity": 0.7874015748031497,
          "duration": 0.07692299999999364
        },
        {
          "name": "B1",
          "midi": 35,
          "time": 169.15367699999675,
          "velocity": 0.7874015748031497,
          "duration": 0.07692299999999364
        },
        {
          "name": "A#2",
          "midi": 46,
          "time": 169.15367699999675,
          "velocity": 0.7874015748031497,
          "duration": 0.07692299999999364
        },
        {
          "name": "D2",
          "midi": 38,
          "time": 169.38444599999673,
          "velocity": 0.7874015748031497,
          "duration": 0.07692299999999364
        },
        {
          "name": "E2",
          "midi": 40,
          "time": 169.38444599999673,
          "velocity": 0.7874015748031497,
          "duration": 0.07692299999999364
        },
        {
          "name": "A3",
          "midi": 57,
          "time": 169.38444599999673,
          "velocity": 0.7874015748031497,
          "duration": 0.07692299999999364
        },
        {
          "name": "A#2",
          "midi": 46,
          "time": 169.38444599999673,
          "velocity": 0.7874015748031497,
          "duration": 0.07692299999999364
        },
        {
          "name": "A#2",
          "midi": 46,
          "time": 169.6152149999967,
          "velocity": 0.7874015748031497,
          "duration": 0.07692299999999364
        },
        {
          "name": "C2",
          "midi": 36,
          "time": 169.7305994999967,
          "velocity": 0.7874015748031497,
          "duration": 0.07692299999999364
        },
        {
          "name": "B1",
          "midi": 35,
          "time": 169.7305994999967,
          "velocity": 0.7874015748031497,
          "duration": 0.07692299999999364
        },
        {
          "name": "C2",
          "midi": 36,
          "time": 169.84598399999672,
          "velocity": 0.7874015748031497,
          "duration": 0.07692299999999364
        },
        {
          "name": "B1",
          "midi": 35,
          "time": 169.84598399999672,
          "velocity": 0.7874015748031497,
          "duration": 0.07692299999999364
        },
        {
          "name": "A3",
          "midi": 57,
          "time": 169.84598399999672,
          "velocity": 0.7874015748031497,
          "duration": 0.07692299999999364
        },
        {
          "name": "A#2",
          "midi": 46,
          "time": 169.84598399999672,
          "velocity": 0.7874015748031497,
          "duration": 0.07692299999999364
        },
        {
          "name": "C2",
          "midi": 36,
          "time": 170.0767529999967,
          "velocity": 0.7874015748031497,
          "duration": 0.07692299999999364
        },
        {
          "name": "B1",
          "midi": 35,
          "time": 170.0767529999967,
          "velocity": 0.7874015748031497,
          "duration": 0.07692299999999364
        },
        {
          "name": "A#2",
          "midi": 46,
          "time": 170.0767529999967,
          "velocity": 0.7874015748031497,
          "duration": 0.07692299999999364
        },
        {
          "name": "D2",
          "midi": 38,
          "time": 170.30752199999668,
          "velocity": 0.7874015748031497,
          "duration": 0.07692299999999364
        },
        {
          "name": "E2",
          "midi": 40,
          "time": 170.30752199999668,
          "velocity": 0.7874015748031497,
          "duration": 0.07692299999999364
        },
        {
          "name": "A3",
          "midi": 57,
          "time": 170.30752199999668,
          "velocity": 0.7874015748031497,
          "duration": 0.07692299999999364
        },
        {
          "name": "A#2",
          "midi": 46,
          "time": 170.30752199999668,
          "velocity": 0.7874015748031497,
          "duration": 0.07692299999999364
        },
        {
          "name": "A#2",
          "midi": 46,
          "time": 170.53829099999666,
          "velocity": 0.7874015748031497,
          "duration": 0.07692299999999364
        },
        {
          "name": "C2",
          "midi": 36,
          "time": 170.65367549999667,
          "velocity": 0.7874015748031497,
          "duration": 0.07692299999999364
        },
        {
          "name": "B1",
          "midi": 35,
          "time": 170.65367549999667,
          "velocity": 0.7874015748031497,
          "duration": 0.07692299999999364
        },
        {
          "name": "E2",
          "midi": 40,
          "time": 170.65367549999667,
          "velocity": 0.7874015748031497,
          "duration": 0.07692299999999364
        },
        {
          "name": "A#2",
          "midi": 46,
          "time": 170.76905999999667,
          "velocity": 0.7874015748031497,
          "duration": 0.07692299999999364
        },
        {
          "name": "G#2",
          "midi": 44,
          "time": 170.88444449999668,
          "velocity": 0.7874015748031497,
          "duration": 0.07692299999999364
        },
        {
          "name": "C2",
          "midi": 36,
          "time": 170.99982899999668,
          "velocity": 0.7874015748031497,
          "duration": 0.07692299999999364
        },
        {
          "name": "B1",
          "midi": 35,
          "time": 170.99982899999668,
          "velocity": 0.7874015748031497,
          "duration": 0.07692299999999364
        },
        {
          "name": "A#2",
          "midi": 46,
          "time": 170.99982899999668,
          "velocity": 0.7874015748031497,
          "duration": 0.07692299999999364
        },
        {
          "name": "D2",
          "midi": 38,
          "time": 171.23059799999666,
          "velocity": 0.7874015748031497,
          "duration": 0.07692299999999364
        },
        {
          "name": "E2",
          "midi": 40,
          "time": 171.23059799999666,
          "velocity": 0.7874015748031497,
          "duration": 0.07692299999999364
        },
        {
          "name": "A3",
          "midi": 57,
          "time": 171.23059799999666,
          "velocity": 0.7874015748031497,
          "duration": 0.07692299999999364
        },
        {
          "name": "A#2",
          "midi": 46,
          "time": 171.23059799999666,
          "velocity": 0.7874015748031497,
          "duration": 0.07692299999999364
        },
        {
          "name": "A#2",
          "midi": 46,
          "time": 171.46136699999664,
          "velocity": 0.7874015748031497,
          "duration": 0.07692299999999364
        },
        {
          "name": "C2",
          "midi": 36,
          "time": 171.57675149999665,
          "velocity": 0.7874015748031497,
          "duration": 0.07692299999999364
        },
        {
          "name": "B1",
          "midi": 35,
          "time": 171.57675149999665,
          "velocity": 0.7874015748031497,
          "duration": 0.07692299999999364
        },
        {
          "name": "C2",
          "midi": 36,
          "time": 171.69213599999665,
          "velocity": 0.7874015748031497,
          "duration": 0.07692299999999364
        },
        {
          "name": "B1",
          "midi": 35,
          "time": 171.69213599999665,
          "velocity": 0.7874015748031497,
          "duration": 0.07692299999999364
        },
        {
          "name": "A3",
          "midi": 57,
          "time": 171.69213599999665,
          "velocity": 0.7874015748031497,
          "duration": 0.07692299999999364
        },
        {
          "name": "A#2",
          "midi": 46,
          "time": 171.69213599999665,
          "velocity": 0.7874015748031497,
          "duration": 0.07692299999999364
        },
        {
          "name": "C2",
          "midi": 36,
          "time": 171.92290499999663,
          "velocity": 0.7874015748031497,
          "duration": 0.07692299999999364
        },
        {
          "name": "B1",
          "midi": 35,
          "time": 171.92290499999663,
          "velocity": 0.7874015748031497,
          "duration": 0.07692299999999364
        },
        {
          "name": "A#2",
          "midi": 46,
          "time": 171.92290499999663,
          "velocity": 0.7874015748031497,
          "duration": 0.07692299999999364
        },
        {
          "name": "D2",
          "midi": 38,
          "time": 172.1536739999966,
          "velocity": 0.7874015748031497,
          "duration": 0.07692299999999364
        },
        {
          "name": "E2",
          "midi": 40,
          "time": 172.1536739999966,
          "velocity": 0.7874015748031497,
          "duration": 0.07692299999999364
        },
        {
          "name": "A3",
          "midi": 57,
          "time": 172.1536739999966,
          "velocity": 0.7874015748031497,
          "duration": 0.07692299999999364
        },
        {
          "name": "A#2",
          "midi": 46,
          "time": 172.1536739999966,
          "velocity": 0.7874015748031497,
          "duration": 0.07692299999999364
        },
        {
          "name": "A#2",
          "midi": 46,
          "time": 172.3844429999966,
          "velocity": 0.7874015748031497,
          "duration": 0.07692299999999364
        },
        {
          "name": "C2",
          "midi": 36,
          "time": 172.4998274999966,
          "velocity": 0.7874015748031497,
          "duration": 0.07692299999999364
        },
        {
          "name": "B1",
          "midi": 35,
          "time": 172.4998274999966,
          "velocity": 0.7874015748031497,
          "duration": 0.07692299999999364
        },
        {
          "name": "E2",
          "midi": 40,
          "time": 172.4998274999966,
          "velocity": 0.7874015748031497,
          "duration": 0.07692299999999364
        },
        {
          "name": "A#2",
          "midi": 46,
          "time": 172.6152119999966,
          "velocity": 0.7874015748031497,
          "duration": 0.07692299999999364
        },
        {
          "name": "G#2",
          "midi": 44,
          "time": 172.7305964999966,
          "velocity": 0.7874015748031497,
          "duration": 0.07692299999999364
        },
        {
          "name": "C2",
          "midi": 36,
          "time": 172.8459809999966,
          "velocity": 0.7874015748031497,
          "duration": 0.07692299999999364
        },
        {
          "name": "B1",
          "midi": 35,
          "time": 172.8459809999966,
          "velocity": 0.7874015748031497,
          "duration": 0.07692299999999364
        },
        {
          "name": "A#2",
          "midi": 46,
          "time": 172.8459809999966,
          "velocity": 0.7874015748031497,
          "duration": 0.07692299999999364
        },
        {
          "name": "D2",
          "midi": 38,
          "time": 173.0767499999966,
          "velocity": 0.7874015748031497,
          "duration": 0.07692299999999364
        },
        {
          "name": "E2",
          "midi": 40,
          "time": 173.0767499999966,
          "velocity": 0.7874015748031497,
          "duration": 0.07692299999999364
        },
        {
          "name": "A3",
          "midi": 57,
          "time": 173.0767499999966,
          "velocity": 0.7874015748031497,
          "duration": 0.07692299999999364
        },
        {
          "name": "A#2",
          "midi": 46,
          "time": 173.0767499999966,
          "velocity": 0.7874015748031497,
          "duration": 0.07692299999999364
        },
        {
          "name": "A#2",
          "midi": 46,
          "time": 173.30751899999657,
          "velocity": 0.7874015748031497,
          "duration": 0.07692299999999364
        },
        {
          "name": "A3",
          "midi": 57,
          "time": 173.30751899999657,
          "velocity": 0.7874015748031497,
          "duration": 0.07692299999999364
        },
        {
          "name": "C2",
          "midi": 36,
          "time": 173.42290349999658,
          "velocity": 0.7874015748031497,
          "duration": 0.07692299999999364
        },
        {
          "name": "B1",
          "midi": 35,
          "time": 173.42290349999658,
          "velocity": 0.7874015748031497,
          "duration": 0.07692299999999364
        },
        {
          "name": "C2",
          "midi": 36,
          "time": 173.53828799999658,
          "velocity": 0.7874015748031497,
          "duration": 0.07692299999999364
        },
        {
          "name": "B1",
          "midi": 35,
          "time": 173.53828799999658,
          "velocity": 0.7874015748031497,
          "duration": 0.07692299999999364
        },
        {
          "name": "A3",
          "midi": 57,
          "time": 173.53828799999658,
          "velocity": 0.7874015748031497,
          "duration": 0.07692299999999364
        },
        {
          "name": "A#2",
          "midi": 46,
          "time": 173.53828799999658,
          "velocity": 0.7874015748031497,
          "duration": 0.07692299999999364
        },
        {
          "name": "C2",
          "midi": 36,
          "time": 173.76905699999656,
          "velocity": 0.7874015748031497,
          "duration": 0.07692299999999364
        },
        {
          "name": "B1",
          "midi": 35,
          "time": 173.76905699999656,
          "velocity": 0.7874015748031497,
          "duration": 0.07692299999999364
        },
        {
          "name": "A#2",
          "midi": 46,
          "time": 173.76905699999656,
          "velocity": 0.7874015748031497,
          "duration": 0.07692299999999364
        },
        {
          "name": "D2",
          "midi": 38,
          "time": 173.99982599999655,
          "velocity": 0.7874015748031497,
          "duration": 0.07692299999999364
        },
        {
          "name": "E2",
          "midi": 40,
          "time": 173.99982599999655,
          "velocity": 0.7874015748031497,
          "duration": 0.07692299999999364
        },
        {
          "name": "A3",
          "midi": 57,
          "time": 173.99982599999655,
          "velocity": 0.7874015748031497,
          "duration": 0.07692299999999364
        },
        {
          "name": "A#2",
          "midi": 46,
          "time": 173.99982599999655,
          "velocity": 0.7874015748031497,
          "duration": 0.07692299999999364
        },
        {
          "name": "A#2",
          "midi": 46,
          "time": 174.23059499999653,
          "velocity": 0.7874015748031497,
          "duration": 0.07692299999999364
        },
        {
          "name": "C2",
          "midi": 36,
          "time": 174.34597949999653,
          "velocity": 0.7874015748031497,
          "duration": 0.07692299999999364
        },
        {
          "name": "B1",
          "midi": 35,
          "time": 174.34597949999653,
          "velocity": 0.7874015748031497,
          "duration": 0.07692299999999364
        },
        {
          "name": "E2",
          "midi": 40,
          "time": 174.34597949999653,
          "velocity": 0.7874015748031497,
          "duration": 0.07692299999999364
        },
        {
          "name": "A#2",
          "midi": 46,
          "time": 174.46136399999654,
          "velocity": 0.7874015748031497,
          "duration": 0.07692299999999364
        },
        {
          "name": "G#2",
          "midi": 44,
          "time": 174.57674849999654,
          "velocity": 0.7874015748031497,
          "duration": 0.07692299999999364
        },
        {
          "name": "C2",
          "midi": 36,
          "time": 174.69213299999655,
          "velocity": 0.7874015748031497,
          "duration": 0.07692299999999364
        },
        {
          "name": "B1",
          "midi": 35,
          "time": 174.69213299999655,
          "velocity": 0.7874015748031497,
          "duration": 0.07692299999999364
        },
        {
          "name": "A#2",
          "midi": 46,
          "time": 174.69213299999655,
          "velocity": 0.7874015748031497,
          "duration": 0.07692299999999364
        },
        {
          "name": "D2",
          "midi": 38,
          "time": 174.92290199999653,
          "velocity": 0.7874015748031497,
          "duration": 0.07692299999999364
        },
        {
          "name": "E2",
          "midi": 40,
          "time": 174.92290199999653,
          "velocity": 0.7874015748031497,
          "duration": 0.07692299999999364
        },
        {
          "name": "A3",
          "midi": 57,
          "time": 174.92290199999653,
          "velocity": 0.7874015748031497,
          "duration": 0.07692299999999364
        },
        {
          "name": "A#2",
          "midi": 46,
          "time": 174.92290199999653,
          "velocity": 0.7874015748031497,
          "duration": 0.07692299999999364
        },
        {
          "name": "A#2",
          "midi": 46,
          "time": 175.1536709999965,
          "velocity": 0.7874015748031497,
          "duration": 0.07692299999999364
        },
        {
          "name": "C2",
          "midi": 36,
          "time": 175.2690554999965,
          "velocity": 0.7874015748031497,
          "duration": 0.07692299999999364
        },
        {
          "name": "B1",
          "midi": 35,
          "time": 175.2690554999965,
          "velocity": 0.7874015748031497,
          "duration": 0.07692299999999364
        },
        {
          "name": "C2",
          "midi": 36,
          "time": 175.38443999999652,
          "velocity": 0.7874015748031497,
          "duration": 0.07692299999999364
        },
        {
          "name": "B1",
          "midi": 35,
          "time": 175.38443999999652,
          "velocity": 0.7874015748031497,
          "duration": 0.07692299999999364
        },
        {
          "name": "A3",
          "midi": 57,
          "time": 175.38443999999652,
          "velocity": 0.7874015748031497,
          "duration": 0.07692299999999364
        },
        {
          "name": "A#2",
          "midi": 46,
          "time": 175.38443999999652,
          "velocity": 0.7874015748031497,
          "duration": 0.07692299999999364
        },
        {
          "name": "C2",
          "midi": 36,
          "time": 175.6152089999965,
          "velocity": 0.7874015748031497,
          "duration": 0.07692299999999364
        },
        {
          "name": "B1",
          "midi": 35,
          "time": 175.6152089999965,
          "velocity": 0.7874015748031497,
          "duration": 0.07692299999999364
        },
        {
          "name": "A#2",
          "midi": 46,
          "time": 175.6152089999965,
          "velocity": 0.7874015748031497,
          "duration": 0.07692299999999364
        },
        {
          "name": "D2",
          "midi": 38,
          "time": 175.84597799999648,
          "velocity": 0.7874015748031497,
          "duration": 0.07692299999999364
        },
        {
          "name": "E2",
          "midi": 40,
          "time": 175.84597799999648,
          "velocity": 0.7874015748031497,
          "duration": 0.07692299999999364
        },
        {
          "name": "A3",
          "midi": 57,
          "time": 175.84597799999648,
          "velocity": 0.7874015748031497,
          "duration": 0.07692299999999364
        },
        {
          "name": "A#2",
          "midi": 46,
          "time": 175.84597799999648,
          "velocity": 0.7874015748031497,
          "duration": 0.07692299999999364
        },
        {
          "name": "A#2",
          "midi": 46,
          "time": 176.07674699999646,
          "velocity": 0.7874015748031497,
          "duration": 0.07692299999999364
        },
        {
          "name": "C2",
          "midi": 36,
          "time": 176.19213149999646,
          "velocity": 0.7874015748031497,
          "duration": 0.07692299999999364
        },
        {
          "name": "B1",
          "midi": 35,
          "time": 176.19213149999646,
          "velocity": 0.7874015748031497,
          "duration": 0.07692299999999364
        },
        {
          "name": "E2",
          "midi": 40,
          "time": 176.19213149999646,
          "velocity": 0.7874015748031497,
          "duration": 0.07692299999999364
        },
        {
          "name": "A#2",
          "midi": 46,
          "time": 176.30751599999647,
          "velocity": 0.7874015748031497,
          "duration": 0.07692299999999364
        },
        {
          "name": "G#2",
          "midi": 44,
          "time": 176.42290049999647,
          "velocity": 0.7874015748031497,
          "duration": 0.07692299999999364
        },
        {
          "name": "C2",
          "midi": 36,
          "time": 176.53828499999648,
          "velocity": 0.7874015748031497,
          "duration": 0.07692299999999364
        },
        {
          "name": "B1",
          "midi": 35,
          "time": 176.53828499999648,
          "velocity": 0.7874015748031497,
          "duration": 0.07692299999999364
        },
        {
          "name": "A#2",
          "midi": 46,
          "time": 176.53828499999648,
          "velocity": 0.7874015748031497,
          "duration": 0.07692299999999364
        },
        {
          "name": "D2",
          "midi": 38,
          "time": 176.76905399999646,
          "velocity": 0.7874015748031497,
          "duration": 0.07692299999999364
        },
        {
          "name": "E2",
          "midi": 40,
          "time": 176.76905399999646,
          "velocity": 0.7874015748031497,
          "duration": 0.07692299999999364
        },
        {
          "name": "A3",
          "midi": 57,
          "time": 176.76905399999646,
          "velocity": 0.7874015748031497,
          "duration": 0.07692299999999364
        },
        {
          "name": "A#2",
          "midi": 46,
          "time": 176.76905399999646,
          "velocity": 0.7874015748031497,
          "duration": 0.07692299999999364
        },
        {
          "name": "A#2",
          "midi": 46,
          "time": 176.99982299999644,
          "velocity": 0.7874015748031497,
          "duration": 0.07692299999999364
        },
        {
          "name": "C2",
          "midi": 36,
          "time": 177.11520749999644,
          "velocity": 0.7874015748031497,
          "duration": 0.07692299999999364
        },
        {
          "name": "B1",
          "midi": 35,
          "time": 177.11520749999644,
          "velocity": 0.7874015748031497,
          "duration": 0.07692299999999364
        },
        {
          "name": "C2",
          "midi": 36,
          "time": 177.23059199999645,
          "velocity": 0.7874015748031497,
          "duration": 0.07692299999999364
        },
        {
          "name": "B1",
          "midi": 35,
          "time": 177.23059199999645,
          "velocity": 0.7874015748031497,
          "duration": 0.07692299999999364
        },
        {
          "name": "A3",
          "midi": 57,
          "time": 177.23059199999645,
          "velocity": 0.7874015748031497,
          "duration": 0.07692299999999364
        },
        {
          "name": "A#2",
          "midi": 46,
          "time": 177.23059199999645,
          "velocity": 0.7874015748031497,
          "duration": 0.07692299999999364
        },
        {
          "name": "C2",
          "midi": 36,
          "time": 177.46136099999643,
          "velocity": 0.7874015748031497,
          "duration": 0.07692299999999364
        },
        {
          "name": "B1",
          "midi": 35,
          "time": 177.46136099999643,
          "velocity": 0.7874015748031497,
          "duration": 0.07692299999999364
        },
        {
          "name": "A#2",
          "midi": 46,
          "time": 177.46136099999643,
          "velocity": 0.7874015748031497,
          "duration": 0.07692299999999364
        },
        {
          "name": "D2",
          "midi": 38,
          "time": 177.6921299999964,
          "velocity": 0.7874015748031497,
          "duration": 0.07692299999999364
        },
        {
          "name": "E2",
          "midi": 40,
          "time": 177.6921299999964,
          "velocity": 0.7874015748031497,
          "duration": 0.07692299999999364
        },
        {
          "name": "A3",
          "midi": 57,
          "time": 177.6921299999964,
          "velocity": 0.7874015748031497,
          "duration": 0.07692299999999364
        },
        {
          "name": "A#2",
          "midi": 46,
          "time": 177.6921299999964,
          "velocity": 0.7874015748031497,
          "duration": 0.07692299999999364
        },
        {
          "name": "A#2",
          "midi": 46,
          "time": 177.9228989999964,
          "velocity": 0.7874015748031497,
          "duration": 0.07692299999999364
        },
        {
          "name": "C2",
          "midi": 36,
          "time": 178.0382834999964,
          "velocity": 0.7874015748031497,
          "duration": 0.07692299999999364
        },
        {
          "name": "B1",
          "midi": 35,
          "time": 178.0382834999964,
          "velocity": 0.7874015748031497,
          "duration": 0.07692299999999364
        },
        {
          "name": "E2",
          "midi": 40,
          "time": 178.0382834999964,
          "velocity": 0.7874015748031497,
          "duration": 0.07692299999999364
        },
        {
          "name": "A#2",
          "midi": 46,
          "time": 178.1536679999964,
          "velocity": 0.7874015748031497,
          "duration": 0.07692299999999364
        },
        {
          "name": "G#2",
          "midi": 44,
          "time": 178.2690524999964,
          "velocity": 0.7874015748031497,
          "duration": 0.07692299999999364
        },
        {
          "name": "C2",
          "midi": 36,
          "time": 178.3844369999964,
          "velocity": 0.7874015748031497,
          "duration": 0.07692299999999364
        },
        {
          "name": "B1",
          "midi": 35,
          "time": 178.3844369999964,
          "velocity": 0.7874015748031497,
          "duration": 0.07692299999999364
        },
        {
          "name": "A#2",
          "midi": 46,
          "time": 178.3844369999964,
          "velocity": 0.7874015748031497,
          "duration": 0.07692299999999364
        },
        {
          "name": "D2",
          "midi": 38,
          "time": 178.6152059999964,
          "velocity": 0.7874015748031497,
          "duration": 0.07692299999999364
        },
        {
          "name": "E2",
          "midi": 40,
          "time": 178.6152059999964,
          "velocity": 0.7874015748031497,
          "duration": 0.07692299999999364
        },
        {
          "name": "A3",
          "midi": 57,
          "time": 178.6152059999964,
          "velocity": 0.7874015748031497,
          "duration": 0.07692299999999364
        },
        {
          "name": "A#2",
          "midi": 46,
          "time": 178.6152059999964,
          "velocity": 0.7874015748031497,
          "duration": 0.07692299999999364
        },
        {
          "name": "A#2",
          "midi": 46,
          "time": 178.84597499999637,
          "velocity": 0.7874015748031497,
          "duration": 0.07692299999999364
        },
        {
          "name": "C2",
          "midi": 36,
          "time": 178.96135949999638,
          "velocity": 0.7874015748031497,
          "duration": 0.07692299999999364
        },
        {
          "name": "B1",
          "midi": 35,
          "time": 178.96135949999638,
          "velocity": 0.7874015748031497,
          "duration": 0.07692299999999364
        },
        {
          "name": "C2",
          "midi": 36,
          "time": 179.07674399999638,
          "velocity": 0.7874015748031497,
          "duration": 0.07692299999999364
        },
        {
          "name": "B1",
          "midi": 35,
          "time": 179.07674399999638,
          "velocity": 0.7874015748031497,
          "duration": 0.07692299999999364
        },
        {
          "name": "A3",
          "midi": 57,
          "time": 179.07674399999638,
          "velocity": 0.7874015748031497,
          "duration": 0.07692299999999364
        },
        {
          "name": "A#2",
          "midi": 46,
          "time": 179.07674399999638,
          "velocity": 0.7874015748031497,
          "duration": 0.07692299999999364
        },
        {
          "name": "C2",
          "midi": 36,
          "time": 179.30751299999636,
          "velocity": 0.7874015748031497,
          "duration": 0.07692299999999364
        },
        {
          "name": "B1",
          "midi": 35,
          "time": 179.30751299999636,
          "velocity": 0.7874015748031497,
          "duration": 0.07692299999999364
        },
        {
          "name": "A#2",
          "midi": 46,
          "time": 179.30751299999636,
          "velocity": 0.7874015748031497,
          "duration": 0.07692299999999364
        },
        {
          "name": "A3",
          "midi": 57,
          "time": 179.53828199999634,
          "velocity": 0.7874015748031497,
          "duration": 0.07692300000002206
        },
        {
          "name": "A#2",
          "midi": 46,
          "time": 179.53828199999634,
          "velocity": 0.7874015748031497,
          "duration": 0.07692300000002206
        },
        {
          "name": "E2",
          "midi": 40,
          "time": 179.53828199999634,
          "velocity": 0.7874015748031497,
          "duration": 0.03846150000001103
        },
        {
          "name": "D2",
          "midi": 38,
          "time": 179.53828199999634,
          "velocity": 0.7874015748031497,
          "duration": 0.03846150000001103
        },
        {
          "name": "C2",
          "midi": 36,
          "time": 179.53828199999634,
          "velocity": 0.7874015748031497,
          "duration": 0.07692300000002206
        },
        {
          "name": "A#2",
          "midi": 46,
          "time": 179.76905099999635,
          "velocity": 0.7874015748031497,
          "duration": 0.07692299999999364
        },
        {
          "name": "E2",
          "midi": 40,
          "time": 179.88443549999636,
          "velocity": 0.7874015748031497,
          "duration": 0.03846150000001103
        },
        {
          "name": "E2",
          "midi": 40,
          "time": 179.94212774999636,
          "velocity": 0.7874015748031497,
          "duration": 0.03846150000001103
        },
        {
          "name": "A#2",
          "midi": 46,
          "time": 179.99981999999636,
          "velocity": 0.7874015748031497,
          "duration": 0.07692299999999364
        },
        {
          "name": "D2",
          "midi": 38,
          "time": 179.99981999999636,
          "velocity": 0.7874015748031497,
          "duration": 0.07692299999999364
        },
        {
          "name": "E2",
          "midi": 40,
          "time": 179.99981999999636,
          "velocity": 0.7874015748031497,
          "duration": 0.07692299999999364
        },
        {
          "name": "C2",
          "midi": 36,
          "time": 179.99981999999636,
          "velocity": 0.7874015748031497,
          "duration": 0.07692299999999364
        },
        {
          "name": "G#2",
          "midi": 44,
          "time": 180.11520449999637,
          "velocity": 0.7874015748031497,
          "duration": 0.07692300000002206
        },
        {
          "name": "E2",
          "midi": 40,
          "time": 180.11520449999637,
          "velocity": 0.7874015748031497,
          "duration": 0.03846150000001103
        },
        {
          "name": "D2",
          "midi": 38,
          "time": 180.11520449999637,
          "velocity": 0.7874015748031497,
          "duration": 0.03846150000001103
        },
        {
          "name": "C2",
          "midi": 36,
          "time": 180.11520449999637,
          "velocity": 0.7874015748031497,
          "duration": 0.07692300000002206
        },
        {
          "name": "A#2",
          "midi": 46,
          "time": 180.2305889999964,
          "velocity": 0.7874015748031497,
          "duration": 0.07692299999999364
        },
        {
          "name": "E2",
          "midi": 40,
          "time": 180.3459734999964,
          "velocity": 0.7874015748031497,
          "duration": 0.03846150000001103
        },
        {
          "name": "D2",
          "midi": 38,
          "time": 180.3459734999964,
          "velocity": 0.7874015748031497,
          "duration": 0.03846150000001103
        },
        {
          "name": "C2",
          "midi": 36,
          "time": 180.3459734999964,
          "velocity": 0.7874015748031497,
          "duration": 0.07692300000002206
        },
        {
          "name": "A#2",
          "midi": 46,
          "time": 180.46135799999644,
          "velocity": 0.7874015748031497,
          "duration": 0.07692299999999364
        },
        {
          "name": "E2",
          "midi": 40,
          "time": 180.57674249999644,
          "velocity": 0.7874015748031497,
          "duration": 0.03846150000001103
        },
        {
          "name": "D2",
          "midi": 38,
          "time": 180.57674249999644,
          "velocity": 0.7874015748031497,
          "duration": 0.03846150000001103
        },
        {
          "name": "C2",
          "midi": 36,
          "time": 180.57674249999644,
          "velocity": 0.7874015748031497,
          "duration": 0.07692300000002206
        },
        {
          "name": "A#2",
          "midi": 46,
          "time": 180.69212699999647,
          "velocity": 0.7874015748031497,
          "duration": 0.07692299999999364
        },
        {
          "name": "E2",
          "midi": 40,
          "time": 180.80751149999648,
          "velocity": 0.7874015748031497,
          "duration": 0.03846150000001103
        },
        {
          "name": "D2",
          "midi": 38,
          "time": 180.80751149999648,
          "velocity": 0.7874015748031497,
          "duration": 0.03846150000001103
        },
        {
          "name": "C2",
          "midi": 36,
          "time": 180.80751149999648,
          "velocity": 0.7874015748031497,
          "duration": 0.07692300000002206
        },
        {
          "name": "C2",
          "midi": 36,
          "time": 180.9228959999965,
          "velocity": 0.7874015748031497,
          "duration": 0.07692299999999364
        },
        {
          "name": "B1",
          "midi": 35,
          "time": 180.9228959999965,
          "velocity": 0.7874015748031497,
          "duration": 0.07692299999999364
        },
        {
          "name": "A3",
          "midi": 57,
          "time": 180.9228959999965,
          "velocity": 0.7874015748031497,
          "duration": 0.07692299999999364
        },
        {
          "name": "A#2",
          "midi": 46,
          "time": 180.9228959999965,
          "velocity": 0.7874015748031497,
          "duration": 0.07692299999999364
        },
        {
          "name": "C2",
          "midi": 36,
          "time": 181.1536649999965,
          "velocity": 0.7874015748031497,
          "duration": 0.07692299999999364
        },
        {
          "name": "B1",
          "midi": 35,
          "time": 181.1536649999965,
          "velocity": 0.7874015748031497,
          "duration": 0.07692299999999364
        },
        {
          "name": "A#2",
          "midi": 46,
          "time": 181.1536649999965,
          "velocity": 0.7874015748031497,
          "duration": 0.07692299999999364
        },
        {
          "name": "D2",
          "midi": 38,
          "time": 181.38443399999647,
          "velocity": 0.7874015748031497,
          "duration": 0.07692299999999364
        },
        {
          "name": "E2",
          "midi": 40,
          "time": 181.38443399999647,
          "velocity": 0.7874015748031497,
          "duration": 0.07692299999999364
        },
        {
          "name": "A3",
          "midi": 57,
          "time": 181.38443399999647,
          "velocity": 0.7874015748031497,
          "duration": 0.07692299999999364
        },
        {
          "name": "A#2",
          "midi": 46,
          "time": 181.38443399999647,
          "velocity": 0.7874015748031497,
          "duration": 0.07692299999999364
        },
        {
          "name": "A#2",
          "midi": 46,
          "time": 181.61520299999646,
          "velocity": 0.7874015748031497,
          "duration": 0.07692299999999364
        },
        {
          "name": "C2",
          "midi": 36,
          "time": 181.73058749999646,
          "velocity": 0.7874015748031497,
          "duration": 0.07692299999999364
        },
        {
          "name": "B1",
          "midi": 35,
          "time": 181.73058749999646,
          "velocity": 0.7874015748031497,
          "duration": 0.07692299999999364
        },
        {
          "name": "E2",
          "midi": 40,
          "time": 181.73058749999646,
          "velocity": 0.7874015748031497,
          "duration": 0.07692299999999364
        },
        {
          "name": "A#2",
          "midi": 46,
          "time": 181.84597199999646,
          "velocity": 0.7874015748031497,
          "duration": 0.07692299999999364
        },
        {
          "name": "G#2",
          "midi": 44,
          "time": 181.96135649999647,
          "velocity": 0.7874015748031497,
          "duration": 0.07692299999999364
        },
        {
          "name": "C2",
          "midi": 36,
          "time": 182.07674099999647,
          "velocity": 0.7874015748031497,
          "duration": 0.07692299999999364
        },
        {
          "name": "B1",
          "midi": 35,
          "time": 182.07674099999647,
          "velocity": 0.7874015748031497,
          "duration": 0.07692299999999364
        },
        {
          "name": "A#2",
          "midi": 46,
          "time": 182.07674099999647,
          "velocity": 0.7874015748031497,
          "duration": 0.07692299999999364
        },
        {
          "name": "D2",
          "midi": 38,
          "time": 182.30750999999646,
          "velocity": 0.7874015748031497,
          "duration": 0.07692299999999364
        },
        {
          "name": "E2",
          "midi": 40,
          "time": 182.30750999999646,
          "velocity": 0.7874015748031497,
          "duration": 0.07692299999999364
        },
        {
          "name": "A3",
          "midi": 57,
          "time": 182.30750999999646,
          "velocity": 0.7874015748031497,
          "duration": 0.07692299999999364
        },
        {
          "name": "A#2",
          "midi": 46,
          "time": 182.30750999999646,
          "velocity": 0.7874015748031497,
          "duration": 0.07692299999999364
        },
        {
          "name": "A#2",
          "midi": 46,
          "time": 182.53827899999644,
          "velocity": 0.7874015748031497,
          "duration": 0.07692299999999364
        },
        {
          "name": "C2",
          "midi": 36,
          "time": 182.65366349999644,
          "velocity": 0.7874015748031497,
          "duration": 0.07692299999999364
        },
        {
          "name": "B1",
          "midi": 35,
          "time": 182.65366349999644,
          "velocity": 0.7874015748031497,
          "duration": 0.07692299999999364
        },
        {
          "name": "C2",
          "midi": 36,
          "time": 182.76904799999645,
          "velocity": 0.7874015748031497,
          "duration": 0.07692299999999364
        },
        {
          "name": "B1",
          "midi": 35,
          "time": 182.76904799999645,
          "velocity": 0.7874015748031497,
          "duration": 0.07692299999999364
        },
        {
          "name": "A3",
          "midi": 57,
          "time": 182.76904799999645,
          "velocity": 0.7874015748031497,
          "duration": 0.07692299999999364
        },
        {
          "name": "A#2",
          "midi": 46,
          "time": 182.76904799999645,
          "velocity": 0.7874015748031497,
          "duration": 0.07692299999999364
        },
        {
          "name": "C2",
          "midi": 36,
          "time": 182.99981699999643,
          "velocity": 0.7874015748031497,
          "duration": 0.07692299999999364
        },
        {
          "name": "B1",
          "midi": 35,
          "time": 182.99981699999643,
          "velocity": 0.7874015748031497,
          "duration": 0.07692299999999364
        },
        {
          "name": "A#2",
          "midi": 46,
          "time": 182.99981699999643,
          "velocity": 0.7874015748031497,
          "duration": 0.07692299999999364
        },
        {
          "name": "D2",
          "midi": 38,
          "time": 183.2305859999964,
          "velocity": 0.7874015748031497,
          "duration": 0.07692299999999364
        },
        {
          "name": "E2",
          "midi": 40,
          "time": 183.2305859999964,
          "velocity": 0.7874015748031497,
          "duration": 0.07692299999999364
        },
        {
          "name": "A3",
          "midi": 57,
          "time": 183.2305859999964,
          "velocity": 0.7874015748031497,
          "duration": 0.07692299999999364
        },
        {
          "name": "A#2",
          "midi": 46,
          "time": 183.2305859999964,
          "velocity": 0.7874015748031497,
          "duration": 0.07692299999999364
        },
        {
          "name": "A#2",
          "midi": 46,
          "time": 183.4613549999964,
          "velocity": 0.7874015748031497,
          "duration": 0.07692299999999364
        },
        {
          "name": "C2",
          "midi": 36,
          "time": 183.5767394999964,
          "velocity": 0.7874015748031497,
          "duration": 0.07692299999999364
        },
        {
          "name": "B1",
          "midi": 35,
          "time": 183.5767394999964,
          "velocity": 0.7874015748031497,
          "duration": 0.07692299999999364
        },
        {
          "name": "E2",
          "midi": 40,
          "time": 183.5767394999964,
          "velocity": 0.7874015748031497,
          "duration": 0.07692299999999364
        },
        {
          "name": "A#2",
          "midi": 46,
          "time": 183.6921239999964,
          "velocity": 0.7874015748031497,
          "duration": 0.07692299999999364
        },
        {
          "name": "G#2",
          "midi": 44,
          "time": 183.8075084999964,
          "velocity": 0.7874015748031497,
          "duration": 0.07692299999999364
        },
        {
          "name": "C2",
          "midi": 36,
          "time": 183.9228929999964,
          "velocity": 0.7874015748031497,
          "duration": 0.07692299999999364
        },
        {
          "name": "B1",
          "midi": 35,
          "time": 183.9228929999964,
          "velocity": 0.7874015748031497,
          "duration": 0.07692299999999364
        },
        {
          "name": "A#2",
          "midi": 46,
          "time": 183.9228929999964,
          "velocity": 0.7874015748031497,
          "duration": 0.07692299999999364
        },
        {
          "name": "D2",
          "midi": 38,
          "time": 184.1536619999964,
          "velocity": 0.7874015748031497,
          "duration": 0.07692299999999364
        },
        {
          "name": "E2",
          "midi": 40,
          "time": 184.1536619999964,
          "velocity": 0.7874015748031497,
          "duration": 0.07692299999999364
        },
        {
          "name": "A3",
          "midi": 57,
          "time": 184.1536619999964,
          "velocity": 0.7874015748031497,
          "duration": 0.07692299999999364
        },
        {
          "name": "A#2",
          "midi": 46,
          "time": 184.1536619999964,
          "velocity": 0.7874015748031497,
          "duration": 0.07692299999999364
        },
        {
          "name": "A#2",
          "midi": 46,
          "time": 184.38443099999637,
          "velocity": 0.7874015748031497,
          "duration": 0.07692299999999364
        },
        {
          "name": "C2",
          "midi": 36,
          "time": 184.49981549999637,
          "velocity": 0.7874015748031497,
          "duration": 0.07692299999999364
        },
        {
          "name": "B1",
          "midi": 35,
          "time": 184.49981549999637,
          "velocity": 0.7874015748031497,
          "duration": 0.07692299999999364
        },
        {
          "name": "C2",
          "midi": 36,
          "time": 184.61519999999638,
          "velocity": 0.7874015748031497,
          "duration": 0.07692299999999364
        },
        {
          "name": "B1",
          "midi": 35,
          "time": 184.61519999999638,
          "velocity": 0.7874015748031497,
          "duration": 0.07692299999999364
        },
        {
          "name": "A3",
          "midi": 57,
          "time": 184.61519999999638,
          "velocity": 0.7874015748031497,
          "duration": 0.07692299999999364
        },
        {
          "name": "A#2",
          "midi": 46,
          "time": 184.61519999999638,
          "velocity": 0.7874015748031497,
          "duration": 0.07692299999999364
        },
        {
          "name": "C2",
          "midi": 36,
          "time": 184.84596899999636,
          "velocity": 0.7874015748031497,
          "duration": 0.07692299999999364
        },
        {
          "name": "B1",
          "midi": 35,
          "time": 184.84596899999636,
          "velocity": 0.7874015748031497,
          "duration": 0.07692299999999364
        },
        {
          "name": "A#2",
          "midi": 46,
          "time": 184.84596899999636,
          "velocity": 0.7874015748031497,
          "duration": 0.07692299999999364
        },
        {
          "name": "D2",
          "midi": 38,
          "time": 185.07673799999634,
          "velocity": 0.7874015748031497,
          "duration": 0.07692299999999364
        },
        {
          "name": "E2",
          "midi": 40,
          "time": 185.07673799999634,
          "velocity": 0.7874015748031497,
          "duration": 0.07692299999999364
        },
        {
          "name": "A3",
          "midi": 57,
          "time": 185.07673799999634,
          "velocity": 0.7874015748031497,
          "duration": 0.07692299999999364
        },
        {
          "name": "A#2",
          "midi": 46,
          "time": 185.07673799999634,
          "velocity": 0.7874015748031497,
          "duration": 0.07692299999999364
        },
        {
          "name": "A#2",
          "midi": 46,
          "time": 185.30750699999632,
          "velocity": 0.7874015748031497,
          "duration": 0.07692299999999364
        },
        {
          "name": "C2",
          "midi": 36,
          "time": 185.42289149999633,
          "velocity": 0.7874015748031497,
          "duration": 0.07692299999999364
        },
        {
          "name": "B1",
          "midi": 35,
          "time": 185.42289149999633,
          "velocity": 0.7874015748031497,
          "duration": 0.07692299999999364
        },
        {
          "name": "E2",
          "midi": 40,
          "time": 185.42289149999633,
          "velocity": 0.7874015748031497,
          "duration": 0.07692299999999364
        },
        {
          "name": "A#2",
          "midi": 46,
          "time": 185.53827599999633,
          "velocity": 0.7874015748031497,
          "duration": 0.07692299999999364
        },
        {
          "name": "G#2",
          "midi": 44,
          "time": 185.65366049999633,
          "velocity": 0.7874015748031497,
          "duration": 0.07692299999999364
        },
        {
          "name": "C2",
          "midi": 36,
          "time": 185.76904499999634,
          "velocity": 0.7874015748031497,
          "duration": 0.07692299999999364
        },
        {
          "name": "B1",
          "midi": 35,
          "time": 185.76904499999634,
          "velocity": 0.7874015748031497,
          "duration": 0.07692299999999364
        },
        {
          "name": "A#2",
          "midi": 46,
          "time": 185.76904499999634,
          "velocity": 0.7874015748031497,
          "duration": 0.07692299999999364
        },
        {
          "name": "D2",
          "midi": 38,
          "time": 185.99981399999632,
          "velocity": 0.7874015748031497,
          "duration": 0.07692299999999364
        },
        {
          "name": "E2",
          "midi": 40,
          "time": 185.99981399999632,
          "velocity": 0.7874015748031497,
          "duration": 0.07692299999999364
        },
        {
          "name": "A3",
          "midi": 57,
          "time": 185.99981399999632,
          "velocity": 0.7874015748031497,
          "duration": 0.07692299999999364
        },
        {
          "name": "A#2",
          "midi": 46,
          "time": 185.99981399999632,
          "velocity": 0.7874015748031497,
          "duration": 0.07692299999999364
        },
        {
          "name": "A#2",
          "midi": 46,
          "time": 186.2305829999963,
          "velocity": 0.7874015748031497,
          "duration": 0.07692299999999364
        },
        {
          "name": "C2",
          "midi": 36,
          "time": 186.3459674999963,
          "velocity": 0.7874015748031497,
          "duration": 0.07692299999999364
        },
        {
          "name": "B1",
          "midi": 35,
          "time": 186.3459674999963,
          "velocity": 0.7874015748031497,
          "duration": 0.07692299999999364
        },
        {
          "name": "C2",
          "midi": 36,
          "time": 186.4613519999963,
          "velocity": 0.7874015748031497,
          "duration": 0.07692299999999364
        },
        {
          "name": "B1",
          "midi": 35,
          "time": 186.4613519999963,
          "velocity": 0.7874015748031497,
          "duration": 0.07692299999999364
        },
        {
          "name": "A3",
          "midi": 57,
          "time": 186.4613519999963,
          "velocity": 0.7874015748031497,
          "duration": 0.07692299999999364
        },
        {
          "name": "A#2",
          "midi": 46,
          "time": 186.4613519999963,
          "velocity": 0.7874015748031497,
          "duration": 0.07692299999999364
        },
        {
          "name": "C2",
          "midi": 36,
          "time": 186.6921209999963,
          "velocity": 0.7874015748031497,
          "duration": 0.07692299999999364
        },
        {
          "name": "B1",
          "midi": 35,
          "time": 186.6921209999963,
          "velocity": 0.7874015748031497,
          "duration": 0.07692299999999364
        },
        {
          "name": "A#2",
          "midi": 46,
          "time": 186.6921209999963,
          "velocity": 0.7874015748031497,
          "duration": 0.07692299999999364
        },
        {
          "name": "D2",
          "midi": 38,
          "time": 186.92288999999627,
          "velocity": 0.7874015748031497,
          "duration": 0.07692299999999364
        },
        {
          "name": "E2",
          "midi": 40,
          "time": 186.92288999999627,
          "velocity": 0.7874015748031497,
          "duration": 0.07692299999999364
        },
        {
          "name": "A3",
          "midi": 57,
          "time": 186.92288999999627,
          "velocity": 0.7874015748031497,
          "duration": 0.07692299999999364
        },
        {
          "name": "A#2",
          "midi": 46,
          "time": 186.92288999999627,
          "velocity": 0.7874015748031497,
          "duration": 0.07692299999999364
        },
        {
          "name": "A#2",
          "midi": 46,
          "time": 187.15365899999625,
          "velocity": 0.7874015748031497,
          "duration": 0.07692299999999364
        },
        {
          "name": "C2",
          "midi": 36,
          "time": 187.26904349999626,
          "velocity": 0.7874015748031497,
          "duration": 0.07692299999999364
        },
        {
          "name": "B1",
          "midi": 35,
          "time": 187.26904349999626,
          "velocity": 0.7874015748031497,
          "duration": 0.07692299999999364
        },
        {
          "name": "E2",
          "midi": 40,
          "time": 187.26904349999626,
          "velocity": 0.7874015748031497,
          "duration": 0.07692299999999364
        },
        {
          "name": "A#2",
          "midi": 46,
          "time": 187.38442799999626,
          "velocity": 0.7874015748031497,
          "duration": 0.07692299999999364
        },
        {
          "name": "G#2",
          "midi": 44,
          "time": 187.49981249999627,
          "velocity": 0.7874015748031497,
          "duration": 0.07692299999999364
        },
        {
          "name": "C2",
          "midi": 36,
          "time": 187.61519699999627,
          "velocity": 0.7874015748031497,
          "duration": 0.07692299999999364
        },
        {
          "name": "B1",
          "midi": 35,
          "time": 187.61519699999627,
          "velocity": 0.7874015748031497,
          "duration": 0.07692299999999364
        },
        {
          "name": "A#2",
          "midi": 46,
          "time": 187.61519699999627,
          "velocity": 0.7874015748031497,
          "duration": 0.07692299999999364
        },
        {
          "name": "D2",
          "midi": 38,
          "time": 187.84596599999625,
          "velocity": 0.7874015748031497,
          "duration": 0.07692299999999364
        },
        {
          "name": "E2",
          "midi": 40,
          "time": 187.84596599999625,
          "velocity": 0.7874015748031497,
          "duration": 0.07692299999999364
        },
        {
          "name": "A3",
          "midi": 57,
          "time": 187.84596599999625,
          "velocity": 0.7874015748031497,
          "duration": 0.07692299999999364
        },
        {
          "name": "A#2",
          "midi": 46,
          "time": 187.84596599999625,
          "velocity": 0.7874015748031497,
          "duration": 0.07692299999999364
        },
        {
          "name": "A#2",
          "midi": 46,
          "time": 188.07673499999623,
          "velocity": 0.7874015748031497,
          "duration": 0.07692299999999364
        },
        {
          "name": "A3",
          "midi": 57,
          "time": 188.07673499999623,
          "velocity": 0.7874015748031497,
          "duration": 0.07692299999999364
        },
        {
          "name": "C2",
          "midi": 36,
          "time": 188.19211949999624,
          "velocity": 0.7874015748031497,
          "duration": 0.07692299999999364
        },
        {
          "name": "B1",
          "midi": 35,
          "time": 188.19211949999624,
          "velocity": 0.7874015748031497,
          "duration": 0.07692299999999364
        },
        {
          "name": "C2",
          "midi": 36,
          "time": 188.30750399999624,
          "velocity": 0.7874015748031497,
          "duration": 0.07692299999999364
        },
        {
          "name": "B1",
          "midi": 35,
          "time": 188.30750399999624,
          "velocity": 0.7874015748031497,
          "duration": 0.07692299999999364
        },
        {
          "name": "A3",
          "midi": 57,
          "time": 188.30750399999624,
          "velocity": 0.7874015748031497,
          "duration": 0.07692299999999364
        },
        {
          "name": "A#2",
          "midi": 46,
          "time": 188.30750399999624,
          "velocity": 0.7874015748031497,
          "duration": 0.07692299999999364
        },
        {
          "name": "C2",
          "midi": 36,
          "time": 188.53827299999622,
          "velocity": 0.7874015748031497,
          "duration": 0.07692299999999364
        },
        {
          "name": "B1",
          "midi": 35,
          "time": 188.53827299999622,
          "velocity": 0.7874015748031497,
          "duration": 0.07692299999999364
        },
        {
          "name": "A#2",
          "midi": 46,
          "time": 188.53827299999622,
          "velocity": 0.7874015748031497,
          "duration": 0.07692299999999364
        },
        {
          "name": "D2",
          "midi": 38,
          "time": 188.7690419999962,
          "velocity": 0.7874015748031497,
          "duration": 0.07692299999999364
        },
        {
          "name": "E2",
          "midi": 40,
          "time": 188.7690419999962,
          "velocity": 0.7874015748031497,
          "duration": 0.07692299999999364
        },
        {
          "name": "A3",
          "midi": 57,
          "time": 188.7690419999962,
          "velocity": 0.7874015748031497,
          "duration": 0.07692299999999364
        },
        {
          "name": "A#2",
          "midi": 46,
          "time": 188.7690419999962,
          "velocity": 0.7874015748031497,
          "duration": 0.07692299999999364
        },
        {
          "name": "A#2",
          "midi": 46,
          "time": 188.99981099999619,
          "velocity": 0.7874015748031497,
          "duration": 0.07692299999999364
        },
        {
          "name": "C2",
          "midi": 36,
          "time": 189.1151954999962,
          "velocity": 0.7874015748031497,
          "duration": 0.07692299999999364
        },
        {
          "name": "B1",
          "midi": 35,
          "time": 189.1151954999962,
          "velocity": 0.7874015748031497,
          "duration": 0.07692299999999364
        },
        {
          "name": "E2",
          "midi": 40,
          "time": 189.1151954999962,
          "velocity": 0.7874015748031497,
          "duration": 0.07692299999999364
        },
        {
          "name": "A#2",
          "midi": 46,
          "time": 189.2305799999962,
          "velocity": 0.7874015748031497,
          "duration": 0.07692299999999364
        },
        {
          "name": "G#2",
          "midi": 44,
          "time": 189.3459644999962,
          "velocity": 0.7874015748031497,
          "duration": 0.07692299999999364
        },
        {
          "name": "C2",
          "midi": 36,
          "time": 189.4613489999962,
          "velocity": 0.7874015748031497,
          "duration": 0.07692299999999364
        },
        {
          "name": "B1",
          "midi": 35,
          "time": 189.4613489999962,
          "velocity": 0.7874015748031497,
          "duration": 0.07692299999999364
        },
        {
          "name": "A#2",
          "midi": 46,
          "time": 189.4613489999962,
          "velocity": 0.7874015748031497,
          "duration": 0.07692299999999364
        },
        {
          "name": "D2",
          "midi": 38,
          "time": 189.69211799999619,
          "velocity": 0.7874015748031497,
          "duration": 0.07692299999999364
        },
        {
          "name": "E2",
          "midi": 40,
          "time": 189.69211799999619,
          "velocity": 0.7874015748031497,
          "duration": 0.07692299999999364
        },
        {
          "name": "A3",
          "midi": 57,
          "time": 189.69211799999619,
          "velocity": 0.7874015748031497,
          "duration": 0.07692299999999364
        },
        {
          "name": "A#2",
          "midi": 46,
          "time": 189.69211799999619,
          "velocity": 0.7874015748031497,
          "duration": 0.07692299999999364
        },
        {
          "name": "A#2",
          "midi": 46,
          "time": 189.92288699999617,
          "velocity": 0.7874015748031497,
          "duration": 0.07692299999999364
        },
        {
          "name": "C2",
          "midi": 36,
          "time": 190.03827149999617,
          "velocity": 0.7874015748031497,
          "duration": 0.07692299999999364
        },
        {
          "name": "B1",
          "midi": 35,
          "time": 190.03827149999617,
          "velocity": 0.7874015748031497,
          "duration": 0.07692299999999364
        },
        {
          "name": "C2",
          "midi": 36,
          "time": 190.15365599999618,
          "velocity": 0.7874015748031497,
          "duration": 0.07692299999999364
        },
        {
          "name": "B1",
          "midi": 35,
          "time": 190.15365599999618,
          "velocity": 0.7874015748031497,
          "duration": 0.07692299999999364
        },
        {
          "name": "A3",
          "midi": 57,
          "time": 190.15365599999618,
          "velocity": 0.7874015748031497,
          "duration": 0.07692299999999364
        },
        {
          "name": "A#2",
          "midi": 46,
          "time": 190.15365599999618,
          "velocity": 0.7874015748031497,
          "duration": 0.07692299999999364
        },
        {
          "name": "C2",
          "midi": 36,
          "time": 190.38442499999616,
          "velocity": 0.7874015748031497,
          "duration": 0.07692299999999364
        },
        {
          "name": "B1",
          "midi": 35,
          "time": 190.38442499999616,
          "velocity": 0.7874015748031497,
          "duration": 0.07692299999999364
        },
        {
          "name": "A#2",
          "midi": 46,
          "time": 190.38442499999616,
          "velocity": 0.7874015748031497,
          "duration": 0.07692299999999364
        },
        {
          "name": "D2",
          "midi": 38,
          "time": 190.61519399999614,
          "velocity": 0.7874015748031497,
          "duration": 0.07692299999999364
        },
        {
          "name": "E2",
          "midi": 40,
          "time": 190.61519399999614,
          "velocity": 0.7874015748031497,
          "duration": 0.07692299999999364
        },
        {
          "name": "A3",
          "midi": 57,
          "time": 190.61519399999614,
          "velocity": 0.7874015748031497,
          "duration": 0.07692299999999364
        },
        {
          "name": "A#2",
          "midi": 46,
          "time": 190.61519399999614,
          "velocity": 0.7874015748031497,
          "duration": 0.07692299999999364
        },
        {
          "name": "A#2",
          "midi": 46,
          "time": 190.84596299999612,
          "velocity": 0.7874015748031497,
          "duration": 0.07692299999999364
        },
        {
          "name": "C2",
          "midi": 36,
          "time": 190.96134749999612,
          "velocity": 0.7874015748031497,
          "duration": 0.07692299999999364
        },
        {
          "name": "B1",
          "midi": 35,
          "time": 190.96134749999612,
          "velocity": 0.7874015748031497,
          "duration": 0.07692299999999364
        },
        {
          "name": "E2",
          "midi": 40,
          "time": 190.96134749999612,
          "velocity": 0.7874015748031497,
          "duration": 0.07692299999999364
        },
        {
          "name": "A#2",
          "midi": 46,
          "time": 191.07673199999613,
          "velocity": 0.7874015748031497,
          "duration": 0.07692299999999364
        },
        {
          "name": "G#2",
          "midi": 44,
          "time": 191.19211649999613,
          "velocity": 0.7874015748031497,
          "duration": 0.07692299999999364
        },
        {
          "name": "C2",
          "midi": 36,
          "time": 191.30750099999614,
          "velocity": 0.7874015748031497,
          "duration": 0.07692299999999364
        },
        {
          "name": "B1",
          "midi": 35,
          "time": 191.30750099999614,
          "velocity": 0.7874015748031497,
          "duration": 0.07692299999999364
        },
        {
          "name": "A#2",
          "midi": 46,
          "time": 191.30750099999614,
          "velocity": 0.7874015748031497,
          "duration": 0.07692299999999364
        },
        {
          "name": "D2",
          "midi": 38,
          "time": 191.53826999999612,
          "velocity": 0.7874015748031497,
          "duration": 0.07692299999999364
        },
        {
          "name": "E2",
          "midi": 40,
          "time": 191.53826999999612,
          "velocity": 0.7874015748031497,
          "duration": 0.07692299999999364
        },
        {
          "name": "A3",
          "midi": 57,
          "time": 191.53826999999612,
          "velocity": 0.7874015748031497,
          "duration": 0.07692299999999364
        },
        {
          "name": "A#2",
          "midi": 46,
          "time": 191.53826999999612,
          "velocity": 0.7874015748031497,
          "duration": 0.07692299999999364
        },
        {
          "name": "A#2",
          "midi": 46,
          "time": 191.7690389999961,
          "velocity": 0.7874015748031497,
          "duration": 0.07692299999999364
        },
        {
          "name": "C2",
          "midi": 36,
          "time": 191.8844234999961,
          "velocity": 0.7874015748031497,
          "duration": 0.07692299999999364
        },
        {
          "name": "B1",
          "midi": 35,
          "time": 191.8844234999961,
          "velocity": 0.7874015748031497,
          "duration": 0.07692299999999364
        },
        {
          "name": "C2",
          "midi": 36,
          "time": 191.9998079999961,
          "velocity": 0.7874015748031497,
          "duration": 0.07692299999999364
        },
        {
          "name": "B1",
          "midi": 35,
          "time": 191.9998079999961,
          "velocity": 0.7874015748031497,
          "duration": 0.07692299999999364
        },
        {
          "name": "A3",
          "midi": 57,
          "time": 191.9998079999961,
          "velocity": 0.7874015748031497,
          "duration": 0.07692299999999364
        },
        {
          "name": "A#2",
          "midi": 46,
          "time": 191.9998079999961,
          "velocity": 0.7874015748031497,
          "duration": 0.07692299999999364
        },
        {
          "name": "C2",
          "midi": 36,
          "time": 192.2305769999961,
          "velocity": 0.7874015748031497,
          "duration": 0.07692299999999364
        },
        {
          "name": "B1",
          "midi": 35,
          "time": 192.2305769999961,
          "velocity": 0.7874015748031497,
          "duration": 0.07692299999999364
        },
        {
          "name": "A#2",
          "midi": 46,
          "time": 192.2305769999961,
          "velocity": 0.7874015748031497,
          "duration": 0.07692299999999364
        },
        {
          "name": "D2",
          "midi": 38,
          "time": 192.46134599999607,
          "velocity": 0.7874015748031497,
          "duration": 0.07692299999999364
        },
        {
          "name": "E2",
          "midi": 40,
          "time": 192.46134599999607,
          "velocity": 0.7874015748031497,
          "duration": 0.07692299999999364
        },
        {
          "name": "A3",
          "midi": 57,
          "time": 192.46134599999607,
          "velocity": 0.7874015748031497,
          "duration": 0.07692299999999364
        },
        {
          "name": "A#2",
          "midi": 46,
          "time": 192.46134599999607,
          "velocity": 0.7874015748031497,
          "duration": 0.07692299999999364
        },
        {
          "name": "A#2",
          "midi": 46,
          "time": 192.69211499999605,
          "velocity": 0.7874015748031497,
          "duration": 0.07692299999999364
        },
        {
          "name": "C2",
          "midi": 36,
          "time": 192.80749949999606,
          "velocity": 0.7874015748031497,
          "duration": 0.07692299999999364
        },
        {
          "name": "B1",
          "midi": 35,
          "time": 192.80749949999606,
          "velocity": 0.7874015748031497,
          "duration": 0.07692299999999364
        },
        {
          "name": "E2",
          "midi": 40,
          "time": 192.80749949999606,
          "velocity": 0.7874015748031497,
          "duration": 0.07692299999999364
        },
        {
          "name": "A#2",
          "midi": 46,
          "time": 192.92288399999606,
          "velocity": 0.7874015748031497,
          "duration": 0.07692299999999364
        },
        {
          "name": "G#2",
          "midi": 44,
          "time": 193.03826849999606,
          "velocity": 0.7874015748031497,
          "duration": 0.07692299999999364
        },
        {
          "name": "C2",
          "midi": 36,
          "time": 193.15365299999607,
          "velocity": 0.7874015748031497,
          "duration": 0.07692299999999364
        },
        {
          "name": "B1",
          "midi": 35,
          "time": 193.15365299999607,
          "velocity": 0.7874015748031497,
          "duration": 0.07692299999999364
        },
        {
          "name": "A#2",
          "midi": 46,
          "time": 193.15365299999607,
          "velocity": 0.7874015748031497,
          "duration": 0.07692299999999364
        },
        {
          "name": "D2",
          "midi": 38,
          "time": 193.38442199999605,
          "velocity": 0.7874015748031497,
          "duration": 0.07692299999999364
        },
        {
          "name": "E2",
          "midi": 40,
          "time": 193.38442199999605,
          "velocity": 0.7874015748031497,
          "duration": 0.07692299999999364
        },
        {
          "name": "A3",
          "midi": 57,
          "time": 193.38442199999605,
          "velocity": 0.7874015748031497,
          "duration": 0.07692299999999364
        },
        {
          "name": "A#2",
          "midi": 46,
          "time": 193.38442199999605,
          "velocity": 0.7874015748031497,
          "duration": 0.07692299999999364
        },
        {
          "name": "A#2",
          "midi": 46,
          "time": 193.61519099999603,
          "velocity": 0.7874015748031497,
          "duration": 0.07692299999999364
        },
        {
          "name": "C2",
          "midi": 36,
          "time": 193.73057549999604,
          "velocity": 0.7874015748031497,
          "duration": 0.07692299999999364
        },
        {
          "name": "B1",
          "midi": 35,
          "time": 193.73057549999604,
          "velocity": 0.7874015748031497,
          "duration": 0.07692299999999364
        },
        {
          "name": "C2",
          "midi": 36,
          "time": 193.84595999999604,
          "velocity": 0.7874015748031497,
          "duration": 0.07692299999999364
        },
        {
          "name": "B1",
          "midi": 35,
          "time": 193.84595999999604,
          "velocity": 0.7874015748031497,
          "duration": 0.07692299999999364
        },
        {
          "name": "A3",
          "midi": 57,
          "time": 193.84595999999604,
          "velocity": 0.7874015748031497,
          "duration": 0.07692299999999364
        },
        {
          "name": "A#2",
          "midi": 46,
          "time": 193.84595999999604,
          "velocity": 0.7874015748031497,
          "duration": 0.07692299999999364
        },
        {
          "name": "C2",
          "midi": 36,
          "time": 194.07672899999602,
          "velocity": 0.7874015748031497,
          "duration": 0.07692299999999364
        },
        {
          "name": "B1",
          "midi": 35,
          "time": 194.07672899999602,
          "velocity": 0.7874015748031497,
          "duration": 0.07692299999999364
        },
        {
          "name": "A#2",
          "midi": 46,
          "time": 194.07672899999602,
          "velocity": 0.7874015748031497,
          "duration": 0.07692299999999364
        },
        {
          "name": "D2",
          "midi": 38,
          "time": 194.307497999996,
          "velocity": 0.7874015748031497,
          "duration": 0.07692299999999364
        },
        {
          "name": "E2",
          "midi": 40,
          "time": 194.307497999996,
          "velocity": 0.7874015748031497,
          "duration": 0.07692299999999364
        },
        {
          "name": "A3",
          "midi": 57,
          "time": 194.307497999996,
          "velocity": 0.7874015748031497,
          "duration": 0.07692299999999364
        },
        {
          "name": "A#2",
          "midi": 46,
          "time": 194.307497999996,
          "velocity": 0.7874015748031497,
          "duration": 0.07692299999999364
        },
        {
          "name": "A#2",
          "midi": 46,
          "time": 194.53826699999598,
          "velocity": 0.7874015748031497,
          "duration": 0.07692299999999364
        },
        {
          "name": "A#2",
          "midi": 46,
          "time": 194.76903599999596,
          "velocity": 0.7874015748031497,
          "duration": 0.07692300000002206
        },
        {
          "name": "E2",
          "midi": 40,
          "time": 194.76903599999596,
          "velocity": 0.7874015748031497,
          "duration": 0.03846150000001103
        },
        {
          "name": "D2",
          "midi": 38,
          "time": 194.76903599999596,
          "velocity": 0.7874015748031497,
          "duration": 0.03846150000001103
        },
        {
          "name": "C2",
          "midi": 36,
          "time": 194.76903599999596,
          "velocity": 0.7874015748031497,
          "duration": 0.07692300000002206
        },
        {
          "name": "E2",
          "midi": 40,
          "time": 194.884420499996,
          "velocity": 0.7874015748031497,
          "duration": 0.03846150000001103
        },
        {
          "name": "D2",
          "midi": 38,
          "time": 194.884420499996,
          "velocity": 0.7874015748031497,
          "duration": 0.03846150000001103
        },
        {
          "name": "C2",
          "midi": 36,
          "time": 194.884420499996,
          "velocity": 0.7874015748031497,
          "duration": 0.07692300000002206
        },
        {
          "name": "G#2",
          "midi": 44,
          "time": 194.884420499996,
          "velocity": 0.7874015748031497,
          "duration": 0.07692300000002206
        },
        {
          "name": "A#2",
          "midi": 46,
          "time": 194.99980499999603,
          "velocity": 0.7874015748031497,
          "duration": 0.07692299999999364
        },
        {
          "name": "E2",
          "midi": 40,
          "time": 195.11518949999603,
          "velocity": 0.7874015748031497,
          "duration": 0.03846150000001103
        },
        {
          "name": "E2",
          "midi": 40,
          "time": 195.17288174999604,
          "velocity": 0.7874015748031497,
          "duration": 0.03846150000001103
        },
        {
          "name": "A#2",
          "midi": 46,
          "time": 195.23057399999604,
          "velocity": 0.7874015748031497,
          "duration": 0.07692299999999364
        },
        {
          "name": "D2",
          "midi": 38,
          "time": 195.23057399999604,
          "velocity": 0.7874015748031497,
          "duration": 0.07692299999999364
        },
        {
          "name": "E2",
          "midi": 40,
          "time": 195.23057399999604,
          "velocity": 0.7874015748031497,
          "duration": 0.07692299999999364
        },
        {
          "name": "C2",
          "midi": 36,
          "time": 195.23057399999604,
          "velocity": 0.7874015748031497,
          "duration": 0.07692299999999364
        },
        {
          "name": "E2",
          "midi": 40,
          "time": 195.34595849999604,
          "velocity": 0.7874015748031497,
          "duration": 0.03846150000001103
        },
        {
          "name": "D2",
          "midi": 38,
          "time": 195.34595849999604,
          "velocity": 0.7874015748031497,
          "duration": 0.03846150000001103
        },
        {
          "name": "C2",
          "midi": 36,
          "time": 195.34595849999604,
          "velocity": 0.7874015748031497,
          "duration": 0.07692300000002206
        },
        {
          "name": "A#2",
          "midi": 46,
          "time": 195.46134299999608,
          "velocity": 0.7874015748031497,
          "duration": 0.07692299999999364
        },
        {
          "name": "E2",
          "midi": 40,
          "time": 195.57672749999608,
          "velocity": 0.7874015748031497,
          "duration": 0.03846150000001103
        },
        {
          "name": "D2",
          "midi": 38,
          "time": 195.57672749999608,
          "velocity": 0.7874015748031497,
          "duration": 0.03846150000001103
        },
        {
          "name": "C2",
          "midi": 36,
          "time": 195.57672749999608,
          "velocity": 0.7874015748031497,
          "duration": 0.07692300000002206
        },
        {
          "name": "C2",
          "midi": 36,
          "time": 195.69211199999611,
          "velocity": 0.7874015748031497,
          "duration": 0.07692299999999364
        },
        {
          "name": "B1",
          "midi": 35,
          "time": 195.69211199999611,
          "velocity": 0.7874015748031497,
          "duration": 0.07692299999999364
        },
        {
          "name": "A3",
          "midi": 57,
          "time": 195.69211199999611,
          "velocity": 0.7874015748031497,
          "duration": 0.07692299999999364
        },
        {
          "name": "A#2",
          "midi": 46,
          "time": 195.69211199999611,
          "velocity": 0.7874015748031497,
          "duration": 0.07692299999999364
        },
        {
          "name": "C2",
          "midi": 36,
          "time": 195.9228809999961,
          "velocity": 0.7874015748031497,
          "duration": 0.07692299999999364
        },
        {
          "name": "B1",
          "midi": 35,
          "time": 195.9228809999961,
          "velocity": 0.7874015748031497,
          "duration": 0.07692299999999364
        },
        {
          "name": "A#2",
          "midi": 46,
          "time": 195.9228809999961,
          "velocity": 0.7874015748031497,
          "duration": 0.07692299999999364
        },
        {
          "name": "D2",
          "midi": 38,
          "time": 196.15364999999608,
          "velocity": 0.7874015748031497,
          "duration": 0.07692299999999364
        },
        {
          "name": "E2",
          "midi": 40,
          "time": 196.15364999999608,
          "velocity": 0.7874015748031497,
          "duration": 0.07692299999999364
        },
        {
          "name": "A3",
          "midi": 57,
          "time": 196.15364999999608,
          "velocity": 0.7874015748031497,
          "duration": 0.07692299999999364
        },
        {
          "name": "A#2",
          "midi": 46,
          "time": 196.15364999999608,
          "velocity": 0.7874015748031497,
          "duration": 0.07692299999999364
        },
        {
          "name": "A#2",
          "midi": 46,
          "time": 196.38441899999606,
          "velocity": 0.7874015748031497,
          "duration": 0.07692299999999364
        },
        {
          "name": "C2",
          "midi": 36,
          "time": 196.49980349999606,
          "velocity": 0.7874015748031497,
          "duration": 0.07692299999999364
        },
        {
          "name": "B1",
          "midi": 35,
          "time": 196.49980349999606,
          "velocity": 0.7874015748031497,
          "duration": 0.07692299999999364
        },
        {
          "name": "E2",
          "midi": 40,
          "time": 196.49980349999606,
          "velocity": 0.7874015748031497,
          "duration": 0.07692299999999364
        },
        {
          "name": "A#2",
          "midi": 46,
          "time": 196.61518799999607,
          "velocity": 0.7874015748031497,
          "duration": 0.07692299999999364
        },
        {
          "name": "G#2",
          "midi": 44,
          "time": 196.73057249999607,
          "velocity": 0.7874015748031497,
          "duration": 0.07692299999999364
        },
        {
          "name": "C2",
          "midi": 36,
          "time": 196.84595699999608,
          "velocity": 0.7874015748031497,
          "duration": 0.07692299999999364
        },
        {
          "name": "B1",
          "midi": 35,
          "time": 196.84595699999608,
          "velocity": 0.7874015748031497,
          "duration": 0.07692299999999364
        },
        {
          "name": "A#2",
          "midi": 46,
          "time": 196.84595699999608,
          "velocity": 0.7874015748031497,
          "duration": 0.07692299999999364
        },
        {
          "name": "D2",
          "midi": 38,
          "time": 197.07672599999606,
          "velocity": 0.7874015748031497,
          "duration": 0.07692299999999364
        },
        {
          "name": "E2",
          "midi": 40,
          "time": 197.07672599999606,
          "velocity": 0.7874015748031497,
          "duration": 0.07692299999999364
        },
        {
          "name": "A3",
          "midi": 57,
          "time": 197.07672599999606,
          "velocity": 0.7874015748031497,
          "duration": 0.07692299999999364
        },
        {
          "name": "A#2",
          "midi": 46,
          "time": 197.07672599999606,
          "velocity": 0.7874015748031497,
          "duration": 0.07692299999999364
        },
        {
          "name": "A#2",
          "midi": 46,
          "time": 197.30749499999604,
          "velocity": 0.7874015748031497,
          "duration": 0.07692299999999364
        },
        {
          "name": "C2",
          "midi": 36,
          "time": 197.42287949999604,
          "velocity": 0.7874015748031497,
          "duration": 0.07692299999999364
        },
        {
          "name": "B1",
          "midi": 35,
          "time": 197.42287949999604,
          "velocity": 0.7874015748031497,
          "duration": 0.07692299999999364
        },
        {
          "name": "C2",
          "midi": 36,
          "time": 197.53826399999605,
          "velocity": 0.7874015748031497,
          "duration": 0.07692299999999364
        },
        {
          "name": "B1",
          "midi": 35,
          "time": 197.53826399999605,
          "velocity": 0.7874015748031497,
          "duration": 0.07692299999999364
        },
        {
          "name": "A3",
          "midi": 57,
          "time": 197.53826399999605,
          "velocity": 0.7874015748031497,
          "duration": 0.07692299999999364
        },
        {
          "name": "A#2",
          "midi": 46,
          "time": 197.53826399999605,
          "velocity": 0.7874015748031497,
          "duration": 0.07692299999999364
        },
        {
          "name": "C2",
          "midi": 36,
          "time": 197.76903299999603,
          "velocity": 0.7874015748031497,
          "duration": 0.07692299999999364
        },
        {
          "name": "B1",
          "midi": 35,
          "time": 197.76903299999603,
          "velocity": 0.7874015748031497,
          "duration": 0.07692299999999364
        },
        {
          "name": "A#2",
          "midi": 46,
          "time": 197.76903299999603,
          "velocity": 0.7874015748031497,
          "duration": 0.07692299999999364
        },
        {
          "name": "D2",
          "midi": 38,
          "time": 197.999801999996,
          "velocity": 0.7874015748031497,
          "duration": 0.07692299999999364
        },
        {
          "name": "E2",
          "midi": 40,
          "time": 197.999801999996,
          "velocity": 0.7874015748031497,
          "duration": 0.07692299999999364
        },
        {
          "name": "A3",
          "midi": 57,
          "time": 197.999801999996,
          "velocity": 0.7874015748031497,
          "duration": 0.07692299999999364
        },
        {
          "name": "A#2",
          "midi": 46,
          "time": 197.999801999996,
          "velocity": 0.7874015748031497,
          "duration": 0.07692299999999364
        },
        {
          "name": "A#2",
          "midi": 46,
          "time": 198.230570999996,
          "velocity": 0.7874015748031497,
          "duration": 0.07692299999999364
        },
        {
          "name": "C2",
          "midi": 36,
          "time": 198.345955499996,
          "velocity": 0.7874015748031497,
          "duration": 0.07692299999999364
        },
        {
          "name": "B1",
          "midi": 35,
          "time": 198.345955499996,
          "velocity": 0.7874015748031497,
          "duration": 0.07692299999999364
        },
        {
          "name": "E2",
          "midi": 40,
          "time": 198.345955499996,
          "velocity": 0.7874015748031497,
          "duration": 0.07692299999999364
        },
        {
          "name": "A#2",
          "midi": 46,
          "time": 198.461339999996,
          "velocity": 0.7874015748031497,
          "duration": 0.07692299999999364
        },
        {
          "name": "G#2",
          "midi": 44,
          "time": 198.576724499996,
          "velocity": 0.7874015748031497,
          "duration": 0.07692299999999364
        },
        {
          "name": "C2",
          "midi": 36,
          "time": 198.692108999996,
          "velocity": 0.7874015748031497,
          "duration": 0.07692299999999364
        },
        {
          "name": "B1",
          "midi": 35,
          "time": 198.692108999996,
          "velocity": 0.7874015748031497,
          "duration": 0.07692299999999364
        },
        {
          "name": "A#2",
          "midi": 46,
          "time": 198.692108999996,
          "velocity": 0.7874015748031497,
          "duration": 0.07692299999999364
        },
        {
          "name": "D2",
          "midi": 38,
          "time": 198.922877999996,
          "velocity": 0.7874015748031497,
          "duration": 0.07692299999999364
        },
        {
          "name": "E2",
          "midi": 40,
          "time": 198.922877999996,
          "velocity": 0.7874015748031497,
          "duration": 0.07692299999999364
        },
        {
          "name": "A3",
          "midi": 57,
          "time": 198.922877999996,
          "velocity": 0.7874015748031497,
          "duration": 0.07692299999999364
        },
        {
          "name": "A#2",
          "midi": 46,
          "time": 198.922877999996,
          "velocity": 0.7874015748031497,
          "duration": 0.07692299999999364
        },
        {
          "name": "A#2",
          "midi": 46,
          "time": 199.15364699999597,
          "velocity": 0.7874015748031497,
          "duration": 0.07692299999999364
        },
        {
          "name": "C2",
          "midi": 36,
          "time": 199.26903149999598,
          "velocity": 0.7874015748031497,
          "duration": 0.07692299999999364
        },
        {
          "name": "B1",
          "midi": 35,
          "time": 199.26903149999598,
          "velocity": 0.7874015748031497,
          "duration": 0.07692299999999364
        },
        {
          "name": "C2",
          "midi": 36,
          "time": 199.38441599999598,
          "velocity": 0.7874015748031497,
          "duration": 0.07692299999999364
        },
        {
          "name": "B1",
          "midi": 35,
          "time": 199.38441599999598,
          "velocity": 0.7874015748031497,
          "duration": 0.07692299999999364
        },
        {
          "name": "A3",
          "midi": 57,
          "time": 199.38441599999598,
          "velocity": 0.7874015748031497,
          "duration": 0.07692299999999364
        },
        {
          "name": "A#2",
          "midi": 46,
          "time": 199.38441599999598,
          "velocity": 0.7874015748031497,
          "duration": 0.07692299999999364
        },
        {
          "name": "C2",
          "midi": 36,
          "time": 199.61518499999596,
          "velocity": 0.7874015748031497,
          "duration": 0.07692299999999364
        },
        {
          "name": "B1",
          "midi": 35,
          "time": 199.61518499999596,
          "velocity": 0.7874015748031497,
          "duration": 0.07692299999999364
        },
        {
          "name": "A#2",
          "midi": 46,
          "time": 199.61518499999596,
          "velocity": 0.7874015748031497,
          "duration": 0.07692299999999364
        },
        {
          "name": "D2",
          "midi": 38,
          "time": 199.84595399999594,
          "velocity": 0.7874015748031497,
          "duration": 0.07692299999999364
        },
        {
          "name": "E2",
          "midi": 40,
          "time": 199.84595399999594,
          "velocity": 0.7874015748031497,
          "duration": 0.07692299999999364
        },
        {
          "name": "A3",
          "midi": 57,
          "time": 199.84595399999594,
          "velocity": 0.7874015748031497,
          "duration": 0.07692299999999364
        },
        {
          "name": "A#2",
          "midi": 46,
          "time": 199.84595399999594,
          "velocity": 0.7874015748031497,
          "duration": 0.07692299999999364
        },
        {
          "name": "A#2",
          "midi": 46,
          "time": 200.07672299999592,
          "velocity": 0.7874015748031497,
          "duration": 0.07692299999999364
        },
        {
          "name": "C2",
          "midi": 36,
          "time": 200.19210749999593,
          "velocity": 0.7874015748031497,
          "duration": 0.07692299999999364
        },
        {
          "name": "B1",
          "midi": 35,
          "time": 200.19210749999593,
          "velocity": 0.7874015748031497,
          "duration": 0.07692299999999364
        },
        {
          "name": "E2",
          "midi": 40,
          "time": 200.19210749999593,
          "velocity": 0.7874015748031497,
          "duration": 0.07692299999999364
        },
        {
          "name": "A#2",
          "midi": 46,
          "time": 200.30749199999593,
          "velocity": 0.7874015748031497,
          "duration": 0.07692299999999364
        },
        {
          "name": "G#2",
          "midi": 44,
          "time": 200.42287649999594,
          "velocity": 0.7874015748031497,
          "duration": 0.07692299999999364
        },
        {
          "name": "C2",
          "midi": 36,
          "time": 200.53826099999594,
          "velocity": 0.7874015748031497,
          "duration": 0.07692299999999364
        },
        {
          "name": "B1",
          "midi": 35,
          "time": 200.53826099999594,
          "velocity": 0.7874015748031497,
          "duration": 0.07692299999999364
        },
        {
          "name": "A#2",
          "midi": 46,
          "time": 200.53826099999594,
          "velocity": 0.7874015748031497,
          "duration": 0.07692299999999364
        },
        {
          "name": "D2",
          "midi": 38,
          "time": 200.76902999999592,
          "velocity": 0.7874015748031497,
          "duration": 0.07692299999999364
        },
        {
          "name": "E2",
          "midi": 40,
          "time": 200.76902999999592,
          "velocity": 0.7874015748031497,
          "duration": 0.07692299999999364
        },
        {
          "name": "A3",
          "midi": 57,
          "time": 200.76902999999592,
          "velocity": 0.7874015748031497,
          "duration": 0.07692299999999364
        },
        {
          "name": "A#2",
          "midi": 46,
          "time": 200.76902999999592,
          "velocity": 0.7874015748031497,
          "duration": 0.07692299999999364
        },
        {
          "name": "A#2",
          "midi": 46,
          "time": 200.9997989999959,
          "velocity": 0.7874015748031497,
          "duration": 0.07692299999999364
        },
        {
          "name": "C2",
          "midi": 36,
          "time": 201.1151834999959,
          "velocity": 0.7874015748031497,
          "duration": 0.07692299999999364
        },
        {
          "name": "B1",
          "midi": 35,
          "time": 201.1151834999959,
          "velocity": 0.7874015748031497,
          "duration": 0.07692299999999364
        },
        {
          "name": "C2",
          "midi": 36,
          "time": 201.2305679999959,
          "velocity": 0.7874015748031497,
          "duration": 0.07692299999999364
        },
        {
          "name": "B1",
          "midi": 35,
          "time": 201.2305679999959,
          "velocity": 0.7874015748031497,
          "duration": 0.07692299999999364
        },
        {
          "name": "A3",
          "midi": 57,
          "time": 201.2305679999959,
          "velocity": 0.7874015748031497,
          "duration": 0.07692299999999364
        },
        {
          "name": "A#2",
          "midi": 46,
          "time": 201.2305679999959,
          "velocity": 0.7874015748031497,
          "duration": 0.07692299999999364
        },
        {
          "name": "C2",
          "midi": 36,
          "time": 201.4613369999959,
          "velocity": 0.7874015748031497,
          "duration": 0.07692299999999364
        },
        {
          "name": "B1",
          "midi": 35,
          "time": 201.4613369999959,
          "velocity": 0.7874015748031497,
          "duration": 0.07692299999999364
        },
        {
          "name": "A#2",
          "midi": 46,
          "time": 201.4613369999959,
          "velocity": 0.7874015748031497,
          "duration": 0.07692299999999364
        },
        {
          "name": "D2",
          "midi": 38,
          "time": 201.69210599999587,
          "velocity": 0.7874015748031497,
          "duration": 0.07692299999999364
        },
        {
          "name": "E2",
          "midi": 40,
          "time": 201.69210599999587,
          "velocity": 0.7874015748031497,
          "duration": 0.07692299999999364
        },
        {
          "name": "A3",
          "midi": 57,
          "time": 201.69210599999587,
          "velocity": 0.7874015748031497,
          "duration": 0.07692299999999364
        },
        {
          "name": "A#2",
          "midi": 46,
          "time": 201.69210599999587,
          "velocity": 0.7874015748031497,
          "duration": 0.07692299999999364
        },
        {
          "name": "A#2",
          "midi": 46,
          "time": 201.92287499999586,
          "velocity": 0.7874015748031497,
          "duration": 0.07692299999999364
        },
        {
          "name": "C2",
          "midi": 36,
          "time": 202.03825949999586,
          "velocity": 0.7874015748031497,
          "duration": 0.07692299999999364
        },
        {
          "name": "B1",
          "midi": 35,
          "time": 202.03825949999586,
          "velocity": 0.7874015748031497,
          "duration": 0.07692299999999364
        },
        {
          "name": "E2",
          "midi": 40,
          "time": 202.03825949999586,
          "velocity": 0.7874015748031497,
          "duration": 0.07692299999999364
        },
        {
          "name": "A#2",
          "midi": 46,
          "time": 202.15364399999586,
          "velocity": 0.7874015748031497,
          "duration": 0.07692299999999364
        },
        {
          "name": "G#2",
          "midi": 44,
          "time": 202.26902849999587,
          "velocity": 0.7874015748031497,
          "duration": 0.07692299999999364
        },
        {
          "name": "C2",
          "midi": 36,
          "time": 202.38441299999587,
          "velocity": 0.7874015748031497,
          "duration": 0.07692299999999364
        },
        {
          "name": "B1",
          "midi": 35,
          "time": 202.38441299999587,
          "velocity": 0.7874015748031497,
          "duration": 0.07692299999999364
        },
        {
          "name": "A#2",
          "midi": 46,
          "time": 202.38441299999587,
          "velocity": 0.7874015748031497,
          "duration": 0.07692299999999364
        },
        {
          "name": "D2",
          "midi": 38,
          "time": 202.61518199999585,
          "velocity": 0.7874015748031497,
          "duration": 0.07692299999999364
        },
        {
          "name": "E2",
          "midi": 40,
          "time": 202.61518199999585,
          "velocity": 0.7874015748031497,
          "duration": 0.07692299999999364
        },
        {
          "name": "A3",
          "midi": 57,
          "time": 202.61518199999585,
          "velocity": 0.7874015748031497,
          "duration": 0.07692299999999364
        },
        {
          "name": "A#2",
          "midi": 46,
          "time": 202.61518199999585,
          "velocity": 0.7874015748031497,
          "duration": 0.07692299999999364
        },
        {
          "name": "A#2",
          "midi": 46,
          "time": 202.84595099999584,
          "velocity": 0.7874015748031497,
          "duration": 0.07692299999999364
        },
        {
          "name": "A3",
          "midi": 57,
          "time": 202.84595099999584,
          "velocity": 0.7874015748031497,
          "duration": 0.07692299999999364
        },
        {
          "name": "C2",
          "midi": 36,
          "time": 202.96133549999584,
          "velocity": 0.7874015748031497,
          "duration": 0.07692299999999364
        },
        {
          "name": "B1",
          "midi": 35,
          "time": 202.96133549999584,
          "velocity": 0.7874015748031497,
          "duration": 0.07692299999999364
        },
        {
          "name": "C2",
          "midi": 36,
          "time": 203.07671999999585,
          "velocity": 0.7874015748031497,
          "duration": 0.07692299999999364
        },
        {
          "name": "B1",
          "midi": 35,
          "time": 203.07671999999585,
          "velocity": 0.7874015748031497,
          "duration": 0.07692299999999364
        },
        {
          "name": "A3",
          "midi": 57,
          "time": 203.07671999999585,
          "velocity": 0.7874015748031497,
          "duration": 0.07692299999999364
        },
        {
          "name": "A#2",
          "midi": 46,
          "time": 203.07671999999585,
          "velocity": 0.7874015748031497,
          "duration": 0.07692299999999364
        },
        {
          "name": "C2",
          "midi": 36,
          "time": 203.30748899999583,
          "velocity": 0.7874015748031497,
          "duration": 0.07692299999999364
        },
        {
          "name": "B1",
          "midi": 35,
          "time": 203.30748899999583,
          "velocity": 0.7874015748031497,
          "duration": 0.07692299999999364
        },
        {
          "name": "A#2",
          "midi": 46,
          "time": 203.30748899999583,
          "velocity": 0.7874015748031497,
          "duration": 0.07692299999999364
        },
        {
          "name": "D2",
          "midi": 38,
          "time": 203.5382579999958,
          "velocity": 0.7874015748031497,
          "duration": 0.07692299999999364
        },
        {
          "name": "E2",
          "midi": 40,
          "time": 203.5382579999958,
          "velocity": 0.7874015748031497,
          "duration": 0.07692299999999364
        },
        {
          "name": "A3",
          "midi": 57,
          "time": 203.5382579999958,
          "velocity": 0.7874015748031497,
          "duration": 0.07692299999999364
        },
        {
          "name": "A#2",
          "midi": 46,
          "time": 203.5382579999958,
          "velocity": 0.7874015748031497,
          "duration": 0.07692299999999364
        },
        {
          "name": "A#2",
          "midi": 46,
          "time": 203.7690269999958,
          "velocity": 0.7874015748031497,
          "duration": 0.07692299999999364
        },
        {
          "name": "C2",
          "midi": 36,
          "time": 203.8844114999958,
          "velocity": 0.7874015748031497,
          "duration": 0.07692299999999364
        },
        {
          "name": "B1",
          "midi": 35,
          "time": 203.8844114999958,
          "velocity": 0.7874015748031497,
          "duration": 0.07692299999999364
        },
        {
          "name": "E2",
          "midi": 40,
          "time": 203.8844114999958,
          "velocity": 0.7874015748031497,
          "duration": 0.07692299999999364
        },
        {
          "name": "A#2",
          "midi": 46,
          "time": 203.9997959999958,
          "velocity": 0.7874015748031497,
          "duration": 0.07692299999999364
        },
        {
          "name": "G#2",
          "midi": 44,
          "time": 204.1151804999958,
          "velocity": 0.7874015748031497,
          "duration": 0.07692299999999364
        },
        {
          "name": "C2",
          "midi": 36,
          "time": 204.2305649999958,
          "velocity": 0.7874015748031497,
          "duration": 0.07692299999999364
        },
        {
          "name": "B1",
          "midi": 35,
          "time": 204.2305649999958,
          "velocity": 0.7874015748031497,
          "duration": 0.07692299999999364
        },
        {
          "name": "A#2",
          "midi": 46,
          "time": 204.2305649999958,
          "velocity": 0.7874015748031497,
          "duration": 0.07692299999999364
        },
        {
          "name": "D2",
          "midi": 38,
          "time": 204.4613339999958,
          "velocity": 0.7874015748031497,
          "duration": 0.07692299999999364
        },
        {
          "name": "E2",
          "midi": 40,
          "time": 204.4613339999958,
          "velocity": 0.7874015748031497,
          "duration": 0.07692299999999364
        },
        {
          "name": "A3",
          "midi": 57,
          "time": 204.4613339999958,
          "velocity": 0.7874015748031497,
          "duration": 0.07692299999999364
        },
        {
          "name": "A#2",
          "midi": 46,
          "time": 204.4613339999958,
          "velocity": 0.7874015748031497,
          "duration": 0.07692299999999364
        },
        {
          "name": "A#2",
          "midi": 46,
          "time": 204.69210299999577,
          "velocity": 0.7874015748031497,
          "duration": 0.07692299999999364
        },
        {
          "name": "C2",
          "midi": 36,
          "time": 204.80748749999577,
          "velocity": 0.7874015748031497,
          "duration": 0.07692299999999364
        },
        {
          "name": "B1",
          "midi": 35,
          "time": 204.80748749999577,
          "velocity": 0.7874015748031497,
          "duration": 0.07692299999999364
        },
        {
          "name": "C2",
          "midi": 36,
          "time": 204.92287199999578,
          "velocity": 0.7874015748031497,
          "duration": 0.07692299999999364
        },
        {
          "name": "B1",
          "midi": 35,
          "time": 204.92287199999578,
          "velocity": 0.7874015748031497,
          "duration": 0.07692299999999364
        },
        {
          "name": "A3",
          "midi": 57,
          "time": 204.92287199999578,
          "velocity": 0.7874015748031497,
          "duration": 0.07692299999999364
        },
        {
          "name": "A#2",
          "midi": 46,
          "time": 204.92287199999578,
          "velocity": 0.7874015748031497,
          "duration": 0.07692299999999364
        },
        {
          "name": "C2",
          "midi": 36,
          "time": 205.15364099999576,
          "velocity": 0.7874015748031497,
          "duration": 0.07692299999999364
        },
        {
          "name": "B1",
          "midi": 35,
          "time": 205.15364099999576,
          "velocity": 0.7874015748031497,
          "duration": 0.07692299999999364
        },
        {
          "name": "A#2",
          "midi": 46,
          "time": 205.15364099999576,
          "velocity": 0.7874015748031497,
          "duration": 0.07692299999999364
        },
        {
          "name": "D2",
          "midi": 38,
          "time": 205.38440999999574,
          "velocity": 0.7874015748031497,
          "duration": 0.07692299999999364
        },
        {
          "name": "E2",
          "midi": 40,
          "time": 205.38440999999574,
          "velocity": 0.7874015748031497,
          "duration": 0.07692299999999364
        },
        {
          "name": "A3",
          "midi": 57,
          "time": 205.38440999999574,
          "velocity": 0.7874015748031497,
          "duration": 0.07692299999999364
        },
        {
          "name": "A#2",
          "midi": 46,
          "time": 205.38440999999574,
          "velocity": 0.7874015748031497,
          "duration": 0.07692299999999364
        },
        {
          "name": "A#2",
          "midi": 46,
          "time": 205.61517899999572,
          "velocity": 0.7874015748031497,
          "duration": 0.07692299999999364
        },
        {
          "name": "C2",
          "midi": 36,
          "time": 205.73056349999572,
          "velocity": 0.7874015748031497,
          "duration": 0.07692299999999364
        },
        {
          "name": "B1",
          "midi": 35,
          "time": 205.73056349999572,
          "velocity": 0.7874015748031497,
          "duration": 0.07692299999999364
        },
        {
          "name": "E2",
          "midi": 40,
          "time": 205.73056349999572,
          "velocity": 0.7874015748031497,
          "duration": 0.07692299999999364
        },
        {
          "name": "A#2",
          "midi": 46,
          "time": 205.84594799999573,
          "velocity": 0.7874015748031497,
          "duration": 0.07692299999999364
        },
        {
          "name": "G#2",
          "midi": 44,
          "time": 205.96133249999573,
          "velocity": 0.7874015748031497,
          "duration": 0.07692299999999364
        },
        {
          "name": "C2",
          "midi": 36,
          "time": 206.07671699999574,
          "velocity": 0.7874015748031497,
          "duration": 0.07692299999999364
        },
        {
          "name": "B1",
          "midi": 35,
          "time": 206.07671699999574,
          "velocity": 0.7874015748031497,
          "duration": 0.07692299999999364
        },
        {
          "name": "A#2",
          "midi": 46,
          "time": 206.07671699999574,
          "velocity": 0.7874015748031497,
          "duration": 0.07692299999999364
        },
        {
          "name": "D2",
          "midi": 38,
          "time": 206.30748599999572,
          "velocity": 0.7874015748031497,
          "duration": 0.07692299999999364
        },
        {
          "name": "E2",
          "midi": 40,
          "time": 206.30748599999572,
          "velocity": 0.7874015748031497,
          "duration": 0.07692299999999364
        },
        {
          "name": "A3",
          "midi": 57,
          "time": 206.30748599999572,
          "velocity": 0.7874015748031497,
          "duration": 0.07692299999999364
        },
        {
          "name": "A#2",
          "midi": 46,
          "time": 206.30748599999572,
          "velocity": 0.7874015748031497,
          "duration": 0.07692299999999364
        },
        {
          "name": "A#2",
          "midi": 46,
          "time": 206.5382549999957,
          "velocity": 0.7874015748031497,
          "duration": 0.07692299999999364
        },
        {
          "name": "C2",
          "midi": 36,
          "time": 206.6536394999957,
          "velocity": 0.7874015748031497,
          "duration": 0.07692299999999364
        },
        {
          "name": "B1",
          "midi": 35,
          "time": 206.6536394999957,
          "velocity": 0.7874015748031497,
          "duration": 0.07692299999999364
        },
        {
          "name": "C2",
          "midi": 36,
          "time": 206.7690239999957,
          "velocity": 0.7874015748031497,
          "duration": 0.07692299999999364
        },
        {
          "name": "B1",
          "midi": 35,
          "time": 206.7690239999957,
          "velocity": 0.7874015748031497,
          "duration": 0.07692299999999364
        },
        {
          "name": "A3",
          "midi": 57,
          "time": 206.7690239999957,
          "velocity": 0.7874015748031497,
          "duration": 0.07692299999999364
        },
        {
          "name": "A#2",
          "midi": 46,
          "time": 206.7690239999957,
          "velocity": 0.7874015748031497,
          "duration": 0.07692299999999364
        },
        {
          "name": "C2",
          "midi": 36,
          "time": 206.9997929999957,
          "velocity": 0.7874015748031497,
          "duration": 0.07692299999999364
        },
        {
          "name": "B1",
          "midi": 35,
          "time": 206.9997929999957,
          "velocity": 0.7874015748031497,
          "duration": 0.07692299999999364
        },
        {
          "name": "A#2",
          "midi": 46,
          "time": 206.9997929999957,
          "velocity": 0.7874015748031497,
          "duration": 0.07692299999999364
        },
        {
          "name": "D2",
          "midi": 38,
          "time": 207.23056199999567,
          "velocity": 0.7874015748031497,
          "duration": 0.07692299999999364
        },
        {
          "name": "E2",
          "midi": 40,
          "time": 207.23056199999567,
          "velocity": 0.7874015748031497,
          "duration": 0.07692299999999364
        },
        {
          "name": "A3",
          "midi": 57,
          "time": 207.23056199999567,
          "velocity": 0.7874015748031497,
          "duration": 0.07692299999999364
        },
        {
          "name": "A#2",
          "midi": 46,
          "time": 207.23056199999567,
          "velocity": 0.7874015748031497,
          "duration": 0.07692299999999364
        },
        {
          "name": "A#2",
          "midi": 46,
          "time": 207.46133099999565,
          "velocity": 0.7874015748031497,
          "duration": 0.07692299999999364
        },
        {
          "name": "C2",
          "midi": 36,
          "time": 207.57671549999566,
          "velocity": 0.7874015748031497,
          "duration": 0.07692299999999364
        },
        {
          "name": "B1",
          "midi": 35,
          "time": 207.57671549999566,
          "velocity": 0.7874015748031497,
          "duration": 0.07692299999999364
        },
        {
          "name": "E2",
          "midi": 40,
          "time": 207.57671549999566,
          "velocity": 0.7874015748031497,
          "duration": 0.07692299999999364
        },
        {
          "name": "A#2",
          "midi": 46,
          "time": 207.69209999999566,
          "velocity": 0.7874015748031497,
          "duration": 0.07692299999999364
        },
        {
          "name": "G#2",
          "midi": 44,
          "time": 207.80748449999567,
          "velocity": 0.7874015748031497,
          "duration": 0.07692299999999364
        },
        {
          "name": "C2",
          "midi": 36,
          "time": 207.92286899999567,
          "velocity": 0.7874015748031497,
          "duration": 0.07692299999999364
        },
        {
          "name": "B1",
          "midi": 35,
          "time": 207.92286899999567,
          "velocity": 0.7874015748031497,
          "duration": 0.07692299999999364
        },
        {
          "name": "A#2",
          "midi": 46,
          "time": 207.92286899999567,
          "velocity": 0.7874015748031497,
          "duration": 0.07692299999999364
        },
        {
          "name": "D2",
          "midi": 38,
          "time": 208.15363799999565,
          "velocity": 0.7874015748031497,
          "duration": 0.07692299999999364
        },
        {
          "name": "E2",
          "midi": 40,
          "time": 208.15363799999565,
          "velocity": 0.7874015748031497,
          "duration": 0.07692299999999364
        },
        {
          "name": "A3",
          "midi": 57,
          "time": 208.15363799999565,
          "velocity": 0.7874015748031497,
          "duration": 0.07692299999999364
        },
        {
          "name": "A#2",
          "midi": 46,
          "time": 208.15363799999565,
          "velocity": 0.7874015748031497,
          "duration": 0.07692299999999364
        },
        {
          "name": "A#2",
          "midi": 46,
          "time": 208.38440699999563,
          "velocity": 0.7874015748031497,
          "duration": 0.07692299999999364
        },
        {
          "name": "C2",
          "midi": 36,
          "time": 208.49979149999564,
          "velocity": 0.7874015748031497,
          "duration": 0.07692299999999364
        },
        {
          "name": "B1",
          "midi": 35,
          "time": 208.49979149999564,
          "velocity": 0.7874015748031497,
          "duration": 0.07692299999999364
        },
        {
          "name": "C2",
          "midi": 36,
          "time": 208.61517599999564,
          "velocity": 0.7874015748031497,
          "duration": 0.07692299999999364
        },
        {
          "name": "B1",
          "midi": 35,
          "time": 208.61517599999564,
          "velocity": 0.7874015748031497,
          "duration": 0.07692299999999364
        },
        {
          "name": "A3",
          "midi": 57,
          "time": 208.61517599999564,
          "velocity": 0.7874015748031497,
          "duration": 0.07692299999999364
        },
        {
          "name": "A#2",
          "midi": 46,
          "time": 208.61517599999564,
          "velocity": 0.7874015748031497,
          "duration": 0.07692299999999364
        },
        {
          "name": "C2",
          "midi": 36,
          "time": 208.84594499999562,
          "velocity": 0.7874015748031497,
          "duration": 0.07692299999999364
        },
        {
          "name": "B1",
          "midi": 35,
          "time": 208.84594499999562,
          "velocity": 0.7874015748031497,
          "duration": 0.07692299999999364
        },
        {
          "name": "A#2",
          "midi": 46,
          "time": 208.84594499999562,
          "velocity": 0.7874015748031497,
          "duration": 0.07692299999999364
        },
        {
          "name": "D2",
          "midi": 38,
          "time": 209.0767139999956,
          "velocity": 0.7874015748031497,
          "duration": 0.07692299999999364
        },
        {
          "name": "E2",
          "midi": 40,
          "time": 209.0767139999956,
          "velocity": 0.7874015748031497,
          "duration": 0.07692299999999364
        },
        {
          "name": "A3",
          "midi": 57,
          "time": 209.0767139999956,
          "velocity": 0.7874015748031497,
          "duration": 0.07692299999999364
        },
        {
          "name": "A#2",
          "midi": 46,
          "time": 209.0767139999956,
          "velocity": 0.7874015748031497,
          "duration": 0.07692299999999364
        },
        {
          "name": "A#2",
          "midi": 46,
          "time": 209.30748299999559,
          "velocity": 0.7874015748031497,
          "duration": 0.07692299999999364
        },
        {
          "name": "A#2",
          "midi": 46,
          "time": 209.53825199999557,
          "velocity": 0.7874015748031497,
          "duration": 0.07692300000002206
        },
        {
          "name": "E2",
          "midi": 40,
          "time": 209.53825199999557,
          "velocity": 0.7874015748031497,
          "duration": 0.03846150000001103
        },
        {
          "name": "D2",
          "midi": 38,
          "time": 209.53825199999557,
          "velocity": 0.7874015748031497,
          "duration": 0.03846150000001103
        },
        {
          "name": "C2",
          "midi": 36,
          "time": 209.53825199999557,
          "velocity": 0.7874015748031497,
          "duration": 0.07692300000002206
        },
        {
          "name": "E2",
          "midi": 40,
          "time": 209.6536364999956,
          "velocity": 0.7874015748031497,
          "duration": 0.03846150000001103
        },
        {
          "name": "D2",
          "midi": 38,
          "time": 209.6536364999956,
          "velocity": 0.7874015748031497,
          "duration": 0.03846150000001103
        },
        {
          "name": "C2",
          "midi": 36,
          "time": 209.6536364999956,
          "velocity": 0.7874015748031497,
          "duration": 0.07692300000002206
        },
        {
          "name": "G#2",
          "midi": 44,
          "time": 209.6536364999956,
          "velocity": 0.7874015748031497,
          "duration": 0.07692300000002206
        },
        {
          "name": "A#2",
          "midi": 46,
          "time": 209.76902099999563,
          "velocity": 0.7874015748031497,
          "duration": 0.07692299999999364
        },
        {
          "name": "E2",
          "midi": 40,
          "time": 209.88440549999564,
          "velocity": 0.7874015748031497,
          "duration": 0.03846150000001103
        },
        {
          "name": "E2",
          "midi": 40,
          "time": 209.94209774999564,
          "velocity": 0.7874015748031497,
          "duration": 0.03846150000001103
        },
        {
          "name": "A#2",
          "midi": 46,
          "time": 209.99978999999564,
          "velocity": 0.7874015748031497,
          "duration": 0.07692299999999364
        },
        {
          "name": "D2",
          "midi": 38,
          "time": 209.99978999999564,
          "velocity": 0.7874015748031497,
          "duration": 0.07692299999999364
        },
        {
          "name": "E2",
          "midi": 40,
          "time": 209.99978999999564,
          "velocity": 0.7874015748031497,
          "duration": 0.07692299999999364
        },
        {
          "name": "C2",
          "midi": 36,
          "time": 209.99978999999564,
          "velocity": 0.7874015748031497,
          "duration": 0.07692299999999364
        },
        {
          "name": "E2",
          "midi": 40,
          "time": 210.11517449999565,
          "velocity": 0.7874015748031497,
          "duration": 0.03846150000001103
        },
        {
          "name": "D2",
          "midi": 38,
          "time": 210.11517449999565,
          "velocity": 0.7874015748031497,
          "duration": 0.03846150000001103
        },
        {
          "name": "C2",
          "midi": 36,
          "time": 210.11517449999565,
          "velocity": 0.7874015748031497,
          "duration": 0.07692300000002206
        },
        {
          "name": "A#2",
          "midi": 46,
          "time": 210.23055899999568,
          "velocity": 0.7874015748031497,
          "duration": 0.07692299999999364
        },
        {
          "name": "E2",
          "midi": 40,
          "time": 210.34594349999568,
          "velocity": 0.7874015748031497,
          "duration": 0.03846150000001103
        },
        {
          "name": "D2",
          "midi": 38,
          "time": 210.34594349999568,
          "velocity": 0.7874015748031497,
          "duration": 0.03846150000001103
        },
        {
          "name": "C2",
          "midi": 36,
          "time": 210.34594349999568,
          "velocity": 0.7874015748031497,
          "duration": 0.07692300000002206
        },
        {
          "name": "A#3",
          "midi": 58,
          "time": 210.46132799999572,
          "velocity": 0.7874015748031497,
          "duration": 0.07692299999999364
        },
        {
          "name": "C2",
          "midi": 36,
          "time": 225.23054399999572,
          "velocity": 0.7874015748031497,
          "duration": 0.07692299999999364
        },
        {
          "name": "E4",
          "midi": 64,
          "time": 225.23054399999572,
          "velocity": 0.31496062992125984,
          "duration": 0.02596151250000389
        },
        {
          "name": "C2",
          "midi": 36,
          "time": 225.4613129999957,
          "velocity": 0.7874015748031497,
          "duration": 0.07692299999999364
        },
        {
          "name": "E4",
          "midi": 64,
          "time": 225.4613129999957,
          "velocity": 0.31496062992125984,
          "duration": 0.02596151250000389
        },
        {
          "name": "D2",
          "midi": 38,
          "time": 225.69208199999568,
          "velocity": 0.7874015748031497,
          "duration": 0.07692299999999364
        },
        {
          "name": "F4",
          "midi": 65,
          "time": 225.69208199999568,
          "velocity": 0.31496062992125984,
          "duration": 0.02596151250000389
        },
        {
          "name": "D2",
          "midi": 38,
          "time": 226.03823549999566,
          "velocity": 0.7874015748031497,
          "duration": 0.07692299999999364
        },
        {
          "name": "F4",
          "midi": 65,
          "time": 226.07862007499565,
          "velocity": 0.31496062992125984,
          "duration": 0.02596151250000389
        },
        {
          "name": "C2",
          "midi": 36,
          "time": 226.15361999999567,
          "velocity": 0.7874015748031497,
          "duration": 0.07692299999999364
        },
        {
          "name": "E4",
          "midi": 64,
          "time": 226.15361999999567,
          "velocity": 0.31496062992125984,
          "duration": 0.02596151250000389
        },
        {
          "name": "C2",
          "midi": 36,
          "time": 226.38438899999565,
          "velocity": 0.7874015748031497,
          "duration": 0.07692299999999364
        },
        {
          "name": "E4",
          "midi": 64,
          "time": 226.38438899999565,
          "velocity": 0.31496062992125984,
          "duration": 0.02596151250000389
        },
        {
          "name": "D2",
          "midi": 38,
          "time": 226.61515799999563,
          "velocity": 0.7874015748031497,
          "duration": 0.07692299999999364
        },
        {
          "name": "F4",
          "midi": 65,
          "time": 226.61515799999563,
          "velocity": 0.31496062992125984,
          "duration": 0.02596151250000389
        },
        {
          "name": "D2",
          "midi": 38,
          "time": 226.96131149999562,
          "velocity": 0.7874015748031497,
          "duration": 0.07692300000002206
        },
        {
          "name": "F4",
          "midi": 65,
          "time": 226.97669609999562,
          "velocity": 0.31496062992125984,
          "duration": 0.02596151250000389
        },
        {
          "name": "C2",
          "midi": 36,
          "time": 227.07669599999565,
          "velocity": 0.7874015748031497,
          "duration": 0.07692299999999364
        },
        {
          "name": "E4",
          "midi": 64,
          "time": 227.07669599999565,
          "velocity": 0.31496062992125984,
          "duration": 0.02596151250000389
        },
        {
          "name": "C2",
          "midi": 36,
          "time": 227.30746499999563,
          "velocity": 0.7874015748031497,
          "duration": 0.07692299999999364
        },
        {
          "name": "E4",
          "midi": 64,
          "time": 227.30746499999563,
          "velocity": 0.31496062992125984,
          "duration": 0.02596151250000389
        },
        {
          "name": "D2",
          "midi": 38,
          "time": 227.5382339999956,
          "velocity": 0.7874015748031497,
          "duration": 0.07692299999999364
        },
        {
          "name": "F4",
          "midi": 65,
          "time": 227.5382339999956,
          "velocity": 0.31496062992125984,
          "duration": 0.02596151250000389
        },
        {
          "name": "D2",
          "midi": 38,
          "time": 227.8843874999956,
          "velocity": 0.7874015748031497,
          "duration": 0.07692299999999364
        },
        {
          "name": "F4",
          "midi": 65,
          "time": 227.9247720749956,
          "velocity": 0.31496062992125984,
          "duration": 0.02596151250000389
        },
        {
          "name": "C2",
          "midi": 36,
          "time": 227.9997719999956,
          "velocity": 0.7874015748031497,
          "duration": 0.07692299999999364
        },
        {
          "name": "E4",
          "midi": 64,
          "time": 227.9997719999956,
          "velocity": 0.31496062992125984,
          "duration": 0.02596151250000389
        },
        {
          "name": "C2",
          "midi": 36,
          "time": 228.23054099999558,
          "velocity": 0.7874015748031497,
          "duration": 0.07692299999999364
        },
        {
          "name": "E4",
          "midi": 64,
          "time": 228.23054099999558,
          "velocity": 0.31496062992125984,
          "duration": 0.02596151250000389
        },
        {
          "name": "D2",
          "midi": 38,
          "time": 228.46130999999556,
          "velocity": 0.7874015748031497,
          "duration": 0.07692299999999364
        },
        {
          "name": "F4",
          "midi": 65,
          "time": 228.46130999999556,
          "velocity": 0.31496062992125984,
          "duration": 0.02596151250000389
        },
        {
          "name": "D2",
          "midi": 38,
          "time": 228.80746349999555,
          "velocity": 0.7874015748031497,
          "duration": 0.07692300000002206
        },
        {
          "name": "F4",
          "midi": 65,
          "time": 228.82284809999555,
          "velocity": 0.31496062992125984,
          "duration": 0.02596151250000389
        },
        {
          "name": "C2",
          "midi": 36,
          "time": 228.92284799999558,
          "velocity": 0.7874015748031497,
          "duration": 0.07692299999999364
        },
        {
          "name": "E4",
          "midi": 64,
          "time": 228.92284799999558,
          "velocity": 0.31496062992125984,
          "duration": 0.02596151250000389
        },
        {
          "name": "C2",
          "midi": 36,
          "time": 229.15361699999556,
          "velocity": 0.7874015748031497,
          "duration": 0.07692299999999364
        },
        {
          "name": "E4",
          "midi": 64,
          "time": 229.15361699999556,
          "velocity": 0.31496062992125984,
          "duration": 0.02596151250000389
        },
        {
          "name": "D2",
          "midi": 38,
          "time": 229.38438599999554,
          "velocity": 0.7874015748031497,
          "duration": 0.07692299999999364
        },
        {
          "name": "F4",
          "midi": 65,
          "time": 229.38438599999554,
          "velocity": 0.31496062992125984,
          "duration": 0.02596151250000389
        },
        {
          "name": "D2",
          "midi": 38,
          "time": 229.73053949999553,
          "velocity": 0.7874015748031497,
          "duration": 0.07692299999999364
        },
        {
          "name": "F4",
          "midi": 65,
          "time": 229.77092407499552,
          "velocity": 0.31496062992125984,
          "duration": 0.02596151250000389
        },
        {
          "name": "C2",
          "midi": 36,
          "time": 229.84592399999553,
          "velocity": 0.7874015748031497,
          "duration": 0.07692299999999364
        },
        {
          "name": "E4",
          "midi": 64,
          "time": 229.84592399999553,
          "velocity": 0.31496062992125984,
          "duration": 0.02596151250000389
        },
        {
          "name": "C2",
          "midi": 36,
          "time": 230.07669299999552,
          "velocity": 0.7874015748031497,
          "duration": 0.07692299999999364
        },
        {
          "name": "E4",
          "midi": 64,
          "time": 230.07669299999552,
          "velocity": 0.31496062992125984,
          "duration": 0.02596151250000389
        },
        {
          "name": "D2",
          "midi": 38,
          "time": 230.3074619999955,
          "velocity": 0.7874015748031497,
          "duration": 0.07692299999999364
        },
        {
          "name": "F4",
          "midi": 65,
          "time": 230.3074619999955,
          "velocity": 0.31496062992125984,
          "duration": 0.02596151250000389
        },
        {
          "name": "D2",
          "midi": 38,
          "time": 230.65361549999548,
          "velocity": 0.7874015748031497,
          "duration": 0.07692300000002206
        },
        {
          "name": "F4",
          "midi": 65,
          "time": 230.6690000999955,
          "velocity": 0.31496062992125984,
          "duration": 0.02596151250000389
        },
        {
          "name": "C2",
          "midi": 36,
          "time": 230.76899999999551,
          "velocity": 0.7874015748031497,
          "duration": 0.07692299999999364
        },
        {
          "name": "E4",
          "midi": 64,
          "time": 230.76899999999551,
          "velocity": 0.31496062992125984,
          "duration": 0.02596151250000389
        },
        {
          "name": "C2",
          "midi": 36,
          "time": 230.9997689999955,
          "velocity": 0.7874015748031497,
          "duration": 0.07692299999999364
        },
        {
          "name": "E4",
          "midi": 64,
          "time": 230.9997689999955,
          "velocity": 0.31496062992125984,
          "duration": 0.02596151250000389
        },
        {
          "name": "D2",
          "midi": 38,
          "time": 231.23053799999548,
          "velocity": 0.7874015748031497,
          "duration": 0.07692299999999364
        },
        {
          "name": "F4",
          "midi": 65,
          "time": 231.23053799999548,
          "velocity": 0.31496062992125984,
          "duration": 0.02596151250000389
        },
        {
          "name": "D2",
          "midi": 38,
          "time": 231.57669149999546,
          "velocity": 0.7874015748031497,
          "duration": 0.07692299999999364
        },
        {
          "name": "F4",
          "midi": 65,
          "time": 231.61707607499545,
          "velocity": 0.31496062992125984,
          "duration": 0.02596151250000389
        },
        {
          "name": "C2",
          "midi": 36,
          "time": 231.69207599999547,
          "velocity": 0.7874015748031497,
          "duration": 0.07692299999999364
        },
        {
          "name": "E4",
          "midi": 64,
          "time": 231.69207599999547,
          "velocity": 0.31496062992125984,
          "duration": 0.02596151250000389
        },
        {
          "name": "C2",
          "midi": 36,
          "time": 231.92284499999545,
          "velocity": 0.7874015748031497,
          "duration": 0.07692299999999364
        },
        {
          "name": "E4",
          "midi": 64,
          "time": 231.92284499999545,
          "velocity": 0.31496062992125984,
          "duration": 0.02596151250000389
        },
        {
          "name": "D2",
          "midi": 38,
          "time": 232.15361399999543,
          "velocity": 0.7874015748031497,
          "duration": 0.07692299999999364
        },
        {
          "name": "F4",
          "midi": 65,
          "time": 232.15361399999543,
          "velocity": 0.31496062992125984,
          "duration": 0.02596151250000389
        },
        {
          "name": "D2",
          "midi": 38,
          "time": 232.49976749999541,
          "velocity": 0.7874015748031497,
          "duration": 0.07692300000002206
        },
        {
          "name": "F4",
          "midi": 65,
          "time": 232.51515209999542,
          "velocity": 0.31496062992125984,
          "duration": 0.02596151250000389
        },
        {
          "name": "C2",
          "midi": 36,
          "time": 232.61515199999545,
          "velocity": 0.7874015748031497,
          "duration": 0.07692299999999364
        },
        {
          "name": "E4",
          "midi": 64,
          "time": 232.61515199999545,
          "velocity": 0.31496062992125984,
          "duration": 0.02596151250000389
        },
        {
          "name": "C2",
          "midi": 36,
          "time": 232.84592099999543,
          "velocity": 0.7874015748031497,
          "duration": 0.07692299999999364
        },
        {
          "name": "E4",
          "midi": 64,
          "time": 232.84592099999543,
          "velocity": 0.31496062992125984,
          "duration": 0.02596151250000389
        },
        {
          "name": "D2",
          "midi": 38,
          "time": 233.0766899999954,
          "velocity": 0.7874015748031497,
          "duration": 0.07692299999999364
        },
        {
          "name": "F4",
          "midi": 65,
          "time": 233.0766899999954,
          "velocity": 0.31496062992125984,
          "duration": 0.02596151250000389
        },
        {
          "name": "D2",
          "midi": 38,
          "time": 233.4228434999954,
          "velocity": 0.7874015748031497,
          "duration": 0.07692299999999364
        },
        {
          "name": "F4",
          "midi": 65,
          "time": 233.46322807499538,
          "velocity": 0.31496062992125984,
          "duration": 0.02596151250000389
        },
        {
          "name": "C2",
          "midi": 36,
          "time": 233.5382279999954,
          "velocity": 0.7874015748031497,
          "duration": 0.07692299999999364
        },
        {
          "name": "E4",
          "midi": 64,
          "time": 233.5382279999954,
          "velocity": 0.31496062992125984,
          "duration": 0.02596151250000389
        },
        {
          "name": "C2",
          "midi": 36,
          "time": 233.76899699999538,
          "velocity": 0.7874015748031497,
          "duration": 0.07692299999999364
        },
        {
          "name": "E4",
          "midi": 64,
          "time": 233.76899699999538,
          "velocity": 0.31496062992125984,
          "duration": 0.02596151250000389
        },
        {
          "name": "D2",
          "midi": 38,
          "time": 233.99976599999536,
          "velocity": 0.7874015748031497,
          "duration": 0.07692299999999364
        },
        {
          "name": "F4",
          "midi": 65,
          "time": 233.99976599999536,
          "velocity": 0.31496062992125984,
          "duration": 0.02596151250000389
        },
        {
          "name": "D2",
          "midi": 38,
          "time": 234.34591949999535,
          "velocity": 0.7874015748031497,
          "duration": 0.07692300000002206
        },
        {
          "name": "F4",
          "midi": 65,
          "time": 234.36130409999535,
          "velocity": 0.31496062992125984,
          "duration": 0.02596151250000389
        },
        {
          "name": "C2",
          "midi": 36,
          "time": 234.46130399999538,
          "velocity": 0.7874015748031497,
          "duration": 0.07692299999999364
        },
        {
          "name": "E4",
          "midi": 64,
          "time": 234.46130399999538,
          "velocity": 0.31496062992125984,
          "duration": 0.02596151250000389
        },
        {
          "name": "C2",
          "midi": 36,
          "time": 234.69207299999536,
          "velocity": 0.7874015748031497,
          "duration": 0.07692299999999364
        },
        {
          "name": "E4",
          "midi": 64,
          "time": 234.69207299999536,
          "velocity": 0.31496062992125984,
          "duration": 0.02596151250000389
        },
        {
          "name": "D2",
          "midi": 38,
          "time": 234.92284199999534,
          "velocity": 0.7874015748031497,
          "duration": 0.07692299999999364
        },
        {
          "name": "F4",
          "midi": 65,
          "time": 234.92284199999534,
          "velocity": 0.31496062992125984,
          "duration": 0.02596151250000389
        },
        {
          "name": "D2",
          "midi": 38,
          "time": 235.26899549999533,
          "velocity": 0.7874015748031497,
          "duration": 0.07692299999999364
        },
        {
          "name": "F4",
          "midi": 65,
          "time": 235.30938007499532,
          "velocity": 0.31496062992125984,
          "duration": 0.02596151250000389
        },
        {
          "name": "C2",
          "midi": 36,
          "time": 235.38437999999533,
          "velocity": 0.7874015748031497,
          "duration": 0.07692299999999364
        },
        {
          "name": "E4",
          "midi": 64,
          "time": 235.38437999999533,
          "velocity": 0.31496062992125984,
          "duration": 0.02596151250000389
        },
        {
          "name": "C2",
          "midi": 36,
          "time": 235.6151489999953,
          "velocity": 0.7874015748031497,
          "duration": 0.07692299999999364
        },
        {
          "name": "E4",
          "midi": 64,
          "time": 235.6151489999953,
          "velocity": 0.31496062992125984,
          "duration": 0.02596151250000389
        },
        {
          "name": "D2",
          "midi": 38,
          "time": 235.8459179999953,
          "velocity": 0.7874015748031497,
          "duration": 0.07692299999999364
        },
        {
          "name": "F4",
          "midi": 65,
          "time": 235.8459179999953,
          "velocity": 0.31496062992125984,
          "duration": 0.02596151250000389
        },
        {
          "name": "D2",
          "midi": 38,
          "time": 236.19207149999528,
          "velocity": 0.7874015748031497,
          "duration": 0.07692300000002206
        },
        {
          "name": "F4",
          "midi": 65,
          "time": 236.20745609999528,
          "velocity": 0.31496062992125984,
          "duration": 0.02596151250000389
        },
        {
          "name": "C2",
          "midi": 36,
          "time": 236.3074559999953,
          "velocity": 0.7874015748031497,
          "duration": 0.07692299999999364
        },
        {
          "name": "E4",
          "midi": 64,
          "time": 236.3074559999953,
          "velocity": 0.31496062992125984,
          "duration": 0.02596151250000389
        },
        {
          "name": "C2",
          "midi": 36,
          "time": 236.5382249999953,
          "velocity": 0.7874015748031497,
          "duration": 0.07692299999999364
        },
        {
          "name": "E4",
          "midi": 64,
          "time": 236.5382249999953,
          "velocity": 0.31496062992125984,
          "duration": 0.02596151250000389
        },
        {
          "name": "D2",
          "midi": 38,
          "time": 236.76899399999527,
          "velocity": 0.7874015748031497,
          "duration": 0.07692299999999364
        },
        {
          "name": "F4",
          "midi": 65,
          "time": 236.76899399999527,
          "velocity": 0.31496062992125984,
          "duration": 0.02596151250000389
        },
        {
          "name": "D2",
          "midi": 38,
          "time": 237.11514749999526,
          "velocity": 0.7874015748031497,
          "duration": 0.07692299999999364
        },
        {
          "name": "F4",
          "midi": 65,
          "time": 237.15553207499525,
          "velocity": 0.31496062992125984,
          "duration": 0.02596151250000389
        },
        {
          "name": "C2",
          "midi": 36,
          "time": 237.23053199999526,
          "velocity": 0.7874015748031497,
          "duration": 0.07692299999999364
        },
        {
          "name": "E4",
          "midi": 64,
          "time": 237.23053199999526,
          "velocity": 0.31496062992125984,
          "duration": 0.02596151250000389
        },
        {
          "name": "C2",
          "midi": 36,
          "time": 237.46130099999525,
          "velocity": 0.7874015748031497,
          "duration": 0.07692299999999364
        },
        {
          "name": "E4",
          "midi": 64,
          "time": 237.46130099999525,
          "velocity": 0.31496062992125984,
          "duration": 0.02596151250000389
        },
        {
          "name": "D2",
          "midi": 38,
          "time": 237.69206999999523,
          "velocity": 0.7874015748031497,
          "duration": 0.07692299999999364
        },
        {
          "name": "F4",
          "midi": 65,
          "time": 237.69206999999523,
          "velocity": 0.31496062992125984,
          "duration": 0.02596151250000389
        },
        {
          "name": "D2",
          "midi": 38,
          "time": 238.0382234999952,
          "velocity": 0.7874015748031497,
          "duration": 0.07692300000002206
        },
        {
          "name": "F4",
          "midi": 65,
          "time": 238.05360809999522,
          "velocity": 0.31496062992125984,
          "duration": 0.02596151250000389
        },
        {
          "name": "C2",
          "midi": 36,
          "time": 238.15360799999524,
          "velocity": 0.7874015748031497,
          "duration": 0.07692299999999364
        },
        {
          "name": "E4",
          "midi": 64,
          "time": 238.15360799999524,
          "velocity": 0.31496062992125984,
          "duration": 0.02596151250000389
        },
        {
          "name": "C2",
          "midi": 36,
          "time": 238.38437699999523,
          "velocity": 0.7874015748031497,
          "duration": 0.07692299999999364
        },
        {
          "name": "E4",
          "midi": 64,
          "time": 238.38437699999523,
          "velocity": 0.31496062992125984,
          "duration": 0.02596151250000389
        },
        {
          "name": "D2",
          "midi": 38,
          "time": 238.6151459999952,
          "velocity": 0.7874015748031497,
          "duration": 0.07692299999999364
        },
        {
          "name": "F4",
          "midi": 65,
          "time": 238.6151459999952,
          "velocity": 0.31496062992125984,
          "duration": 0.02596151250000389
        },
        {
          "name": "D2",
          "midi": 38,
          "time": 238.9612994999952,
          "velocity": 0.7874015748031497,
          "duration": 0.07692299999999364
        },
        {
          "name": "F4",
          "midi": 65,
          "time": 239.00168407499518,
          "velocity": 0.31496062992125984,
          "duration": 0.02596151250000389
        },
        {
          "name": "C2",
          "midi": 36,
          "time": 239.0766839999952,
          "velocity": 0.7874015748031497,
          "duration": 0.07692299999999364
        },
        {
          "name": "E4",
          "midi": 64,
          "time": 239.0766839999952,
          "velocity": 0.31496062992125984,
          "duration": 0.02596151250000389
        },
        {
          "name": "C2",
          "midi": 36,
          "time": 239.30745299999518,
          "velocity": 0.7874015748031497,
          "duration": 0.07692299999999364
        },
        {
          "name": "E4",
          "midi": 64,
          "time": 239.30745299999518,
          "velocity": 0.31496062992125984,
          "duration": 0.02596151250000389
        },
        {
          "name": "D2",
          "midi": 38,
          "time": 239.53822199999516,
          "velocity": 0.7874015748031497,
          "duration": 0.07692299999999364
        },
        {
          "name": "F4",
          "midi": 65,
          "time": 239.53822199999516,
          "velocity": 0.31496062992125984,
          "duration": 0.02596151250000389
        },
        {
          "name": "D2",
          "midi": 38,
          "time": 239.88437549999514,
          "velocity": 0.7874015748031497,
          "duration": 0.07692300000002206
        },
        {
          "name": "F4",
          "midi": 65,
          "time": 239.89976009999515,
          "velocity": 0.31496062992125984,
          "duration": 0.02596151250000389
        },
        {
          "name": "C2",
          "midi": 36,
          "time": 239.99975999999518,
          "velocity": 0.7874015748031497,
          "duration": 0.07692299999999364
        },
        {
          "name": "E4",
          "midi": 64,
          "time": 239.99975999999518,
          "velocity": 0.31496062992125984,
          "duration": 0.02596151250000389
        },
        {
          "name": "C2",
          "midi": 36,
          "time": 240.23052899999516,
          "velocity": 0.7874015748031497,
          "duration": 0.07692299999999364
        },
        {
          "name": "E4",
          "midi": 64,
          "time": 240.23052899999516,
          "velocity": 0.31496062992125984,
          "duration": 0.02596151250000389
        },
        {
          "name": "D2",
          "midi": 38,
          "time": 240.46129799999514,
          "velocity": 0.7874015748031497,
          "duration": 0.07692299999999364
        },
        {
          "name": "F4",
          "midi": 65,
          "time": 240.46129799999514,
          "velocity": 0.31496062992125984,
          "duration": 0.02596151250000389
        },
        {
          "name": "D2",
          "midi": 38,
          "time": 240.80745149999512,
          "velocity": 0.7874015748031497,
          "duration": 0.07692299999999364
        },
        {
          "name": "F4",
          "midi": 65,
          "time": 240.84783607499512,
          "velocity": 0.31496062992125984,
          "duration": 0.02596151250000389
        },
        {
          "name": "C2",
          "midi": 36,
          "time": 240.92283599999513,
          "velocity": 0.7874015748031497,
          "duration": 0.07692299999999364
        },
        {
          "name": "E4",
          "midi": 64,
          "time": 240.92283599999513,
          "velocity": 0.31496062992125984,
          "duration": 0.02596151250000389
        },
        {
          "name": "C2",
          "midi": 36,
          "time": 241.1536049999951,
          "velocity": 0.7874015748031497,
          "duration": 0.07692299999999364
        },
        {
          "name": "E4",
          "midi": 64,
          "time": 241.1536049999951,
          "velocity": 0.31496062992125984,
          "duration": 0.02596151250000389
        },
        {
          "name": "D2",
          "midi": 38,
          "time": 241.3843739999951,
          "velocity": 0.7874015748031497,
          "duration": 0.07692299999999364
        },
        {
          "name": "F4",
          "midi": 65,
          "time": 241.3843739999951,
          "velocity": 0.31496062992125984,
          "duration": 0.02596151250000389
        },
        {
          "name": "D2",
          "midi": 38,
          "time": 241.73052749999508,
          "velocity": 0.7874015748031497,
          "duration": 0.07692300000002206
        },
        {
          "name": "F4",
          "midi": 65,
          "time": 241.74591209999508,
          "velocity": 0.31496062992125984,
          "duration": 0.02596151250000389
        },
        {
          "name": "C2",
          "midi": 36,
          "time": 241.8459119999951,
          "velocity": 0.7874015748031497,
          "duration": 0.07692299999999364
        },
        {
          "name": "E4",
          "midi": 64,
          "time": 241.8459119999951,
          "velocity": 0.31496062992125984,
          "duration": 0.02596151250000389
        },
        {
          "name": "C2",
          "midi": 36,
          "time": 242.0766809999951,
          "velocity": 0.7874015748031497,
          "duration": 0.07692299999999364
        },
        {
          "name": "E4",
          "midi": 64,
          "time": 242.0766809999951,
          "velocity": 0.31496062992125984,
          "duration": 0.02596151250000389
        },
        {
          "name": "D2",
          "midi": 38,
          "time": 242.30744999999507,
          "velocity": 0.7874015748031497,
          "duration": 0.07692299999999364
        },
        {
          "name": "F4",
          "midi": 65,
          "time": 242.30744999999507,
          "velocity": 0.31496062992125984,
          "duration": 0.02596151250000389
        },
        {
          "name": "D2",
          "midi": 38,
          "time": 242.65360349999506,
          "velocity": 0.7874015748031497,
          "duration": 0.07692299999999364
        },
        {
          "name": "F4",
          "midi": 65,
          "time": 242.69398807499505,
          "velocity": 0.31496062992125984,
          "duration": 0.02596151250000389
        },
        {
          "name": "C2",
          "midi": 36,
          "time": 242.76898799999506,
          "velocity": 0.7874015748031497,
          "duration": 0.07692299999999364
        },
        {
          "name": "E4",
          "midi": 64,
          "time": 242.76898799999506,
          "velocity": 0.31496062992125984,
          "duration": 0.02596151250000389
        },
        {
          "name": "C2",
          "midi": 36,
          "time": 242.99975699999504,
          "velocity": 0.7874015748031497,
          "duration": 0.07692299999999364
        },
        {
          "name": "E4",
          "midi": 64,
          "time": 242.99975699999504,
          "velocity": 0.31496062992125984,
          "duration": 0.02596151250000389
        },
        {
          "name": "D2",
          "midi": 38,
          "time": 243.23052599999502,
          "velocity": 0.7874015748031497,
          "duration": 0.07692299999999364
        },
        {
          "name": "F4",
          "midi": 65,
          "time": 243.23052599999502,
          "velocity": 0.31496062992125984,
          "duration": 0.02596151250000389
        },
        {
          "name": "D2",
          "midi": 38,
          "time": 243.576679499995,
          "velocity": 0.7874015748031497,
          "duration": 0.07692300000002206
        },
        {
          "name": "F4",
          "midi": 65,
          "time": 243.592064099995,
          "velocity": 0.31496062992125984,
          "duration": 0.02596151250000389
        },
        {
          "name": "C2",
          "midi": 36,
          "time": 243.69206399999504,
          "velocity": 0.7874015748031497,
          "duration": 0.07692299999999364
        },
        {
          "name": "E4",
          "midi": 64,
          "time": 243.69206399999504,
          "velocity": 0.31496062992125984,
          "duration": 0.02596151250000389
        },
        {
          "name": "C2",
          "midi": 36,
          "time": 243.92283299999502,
          "velocity": 0.7874015748031497,
          "duration": 0.07692299999999364
        },
        {
          "name": "E4",
          "midi": 64,
          "time": 243.92283299999502,
          "velocity": 0.31496062992125984,
          "duration": 0.02596151250000389
        },
        {
          "name": "D2",
          "midi": 38,
          "time": 244.153601999995,
          "velocity": 0.7874015748031497,
          "duration": 0.07692299999999364
        },
        {
          "name": "F4",
          "midi": 65,
          "time": 244.153601999995,
          "velocity": 0.31496062992125984,
          "duration": 0.02596151250000389
        },
        {
          "name": "D2",
          "midi": 38,
          "time": 244.499755499995,
          "velocity": 0.7874015748031497,
          "duration": 0.07692299999999364
        },
        {
          "name": "F4",
          "midi": 65,
          "time": 244.54014007499498,
          "velocity": 0.31496062992125984,
          "duration": 0.02596151250000389
        },
        {
          "name": "C2",
          "midi": 36,
          "time": 244.615139999995,
          "velocity": 0.7874015748031497,
          "duration": 0.07692299999999364
        },
        {
          "name": "E4",
          "midi": 64,
          "time": 244.615139999995,
          "velocity": 0.31496062992125984,
          "duration": 0.02596151250000389
        },
        {
          "name": "C2",
          "midi": 36,
          "time": 244.84590899999498,
          "velocity": 0.7874015748031497,
          "duration": 0.07692299999999364
        },
        {
          "name": "E4",
          "midi": 64,
          "time": 244.84590899999498,
          "velocity": 0.31496062992125984,
          "duration": 0.02596151250000389
        },
        {
          "name": "D2",
          "midi": 38,
          "time": 245.07667799999496,
          "velocity": 0.7874015748031497,
          "duration": 0.07692299999999364
        },
        {
          "name": "F4",
          "midi": 65,
          "time": 245.07667799999496,
          "velocity": 0.31496062992125984,
          "duration": 0.02596151250000389
        },
        {
          "name": "D2",
          "midi": 38,
          "time": 245.42283149999494,
          "velocity": 0.7874015748031497,
          "duration": 0.07692300000002206
        },
        {
          "name": "F4",
          "midi": 65,
          "time": 245.43821609999495,
          "velocity": 0.31496062992125984,
          "duration": 0.02596151250000389
        },
        {
          "name": "C2",
          "midi": 36,
          "time": 245.53821599999497,
          "velocity": 0.7874015748031497,
          "duration": 0.07692299999999364
        },
        {
          "name": "E4",
          "midi": 64,
          "time": 245.53821599999497,
          "velocity": 0.31496062992125984,
          "duration": 0.02596151250000389
        },
        {
          "name": "C2",
          "midi": 36,
          "time": 245.76898499999496,
          "velocity": 0.7874015748031497,
          "duration": 0.07692299999999364
        },
        {
          "name": "E4",
          "midi": 64,
          "time": 245.76898499999496,
          "velocity": 0.31496062992125984,
          "duration": 0.02596151250000389
        },
        {
          "name": "D2",
          "midi": 38,
          "time": 245.99975399999494,
          "velocity": 0.7874015748031497,
          "duration": 0.07692299999999364
        },
        {
          "name": "F4",
          "midi": 65,
          "time": 245.99975399999494,
          "velocity": 0.31496062992125984,
          "duration": 0.02596151250000389
        },
        {
          "name": "D2",
          "midi": 38,
          "time": 246.34590749999492,
          "velocity": 0.7874015748031497,
          "duration": 0.07692299999999364
        },
        {
          "name": "F4",
          "midi": 65,
          "time": 246.3862920749949,
          "velocity": 0.31496062992125984,
          "duration": 0.02596151250000389
        },
        {
          "name": "C2",
          "midi": 36,
          "time": 246.46129199999493,
          "velocity": 0.7874015748031497,
          "duration": 0.07692299999999364
        },
        {
          "name": "E4",
          "midi": 64,
          "time": 246.46129199999493,
          "velocity": 0.31496062992125984,
          "duration": 0.02596151250000389
        },
        {
          "name": "C2",
          "midi": 36,
          "time": 246.6920609999949,
          "velocity": 0.7874015748031497,
          "duration": 0.07692299999999364
        },
        {
          "name": "E4",
          "midi": 64,
          "time": 246.6920609999949,
          "velocity": 0.31496062992125984,
          "duration": 0.02596151250000389
        },
        {
          "name": "D2",
          "midi": 38,
          "time": 246.9228299999949,
          "velocity": 0.7874015748031497,
          "duration": 0.07692299999999364
        },
        {
          "name": "F4",
          "midi": 65,
          "time": 246.9228299999949,
          "velocity": 0.31496062992125984,
          "duration": 0.02596151250000389
        },
        {
          "name": "D2",
          "midi": 38,
          "time": 247.26898349999487,
          "velocity": 0.7874015748031497,
          "duration": 0.07692300000002206
        },
        {
          "name": "F4",
          "midi": 65,
          "time": 247.28436809999488,
          "velocity": 0.31496062992125984,
          "duration": 0.02596151250000389
        },
        {
          "name": "C2",
          "midi": 36,
          "time": 247.3843679999949,
          "velocity": 0.7874015748031497,
          "duration": 0.07692299999999364
        },
        {
          "name": "E4",
          "midi": 64,
          "time": 247.3843679999949,
          "velocity": 0.31496062992125984,
          "duration": 0.02596151250000389
        },
        {
          "name": "C2",
          "midi": 36,
          "time": 247.6151369999949,
          "velocity": 0.7874015748031497,
          "duration": 0.07692299999999364
        },
        {
          "name": "E4",
          "midi": 64,
          "time": 247.6151369999949,
          "velocity": 0.31496062992125984,
          "duration": 0.02596151250000389
        },
        {
          "name": "D2",
          "midi": 38,
          "time": 247.84590599999487,
          "velocity": 0.7874015748031497,
          "duration": 0.07692299999999364
        },
        {
          "name": "F4",
          "midi": 65,
          "time": 247.84590599999487,
          "velocity": 0.31496062992125984,
          "duration": 0.02596151250000389
        },
        {
          "name": "D2",
          "midi": 38,
          "time": 248.19205949999485,
          "velocity": 0.7874015748031497,
          "duration": 0.07692299999999364
        },
        {
          "name": "F4",
          "midi": 65,
          "time": 248.23244407499485,
          "velocity": 0.31496062992125984,
          "duration": 0.02596151250000389
        },
        {
          "name": "C2",
          "midi": 36,
          "time": 248.30744399999486,
          "velocity": 0.7874015748031497,
          "duration": 0.07692299999999364
        },
        {
          "name": "E4",
          "midi": 64,
          "time": 248.30744399999486,
          "velocity": 0.31496062992125984,
          "duration": 0.02596151250000389
        },
        {
          "name": "C2",
          "midi": 36,
          "time": 248.53821299999484,
          "velocity": 0.7874015748031497,
          "duration": 0.07692299999999364
        },
        {
          "name": "E4",
          "midi": 64,
          "time": 248.53821299999484,
          "velocity": 0.31496062992125984,
          "duration": 0.02596151250000389
        },
        {
          "name": "D2",
          "midi": 38,
          "time": 248.76898199999482,
          "velocity": 0.7874015748031497,
          "duration": 0.07692299999999364
        },
        {
          "name": "F4",
          "midi": 65,
          "time": 248.76898199999482,
          "velocity": 0.31496062992125984,
          "duration": 0.02596151250000389
        },
        {
          "name": "D2",
          "midi": 38,
          "time": 249.1151354999948,
          "velocity": 0.7874015748031497,
          "duration": 0.07692300000002206
        },
        {
          "name": "F4",
          "midi": 65,
          "time": 249.1305200999948,
          "velocity": 0.31496062992125984,
          "duration": 0.02596151250000389
        },
        {
          "name": "C2",
          "midi": 36,
          "time": 249.23051999999484,
          "velocity": 0.7874015748031497,
          "duration": 0.07692299999999364
        },
        {
          "name": "E4",
          "midi": 64,
          "time": 249.23051999999484,
          "velocity": 0.31496062992125984,
          "duration": 0.02596151250000389
        },
        {
          "name": "C2",
          "midi": 36,
          "time": 249.46128899999482,
          "velocity": 0.7874015748031497,
          "duration": 0.07692299999999364
        },
        {
          "name": "E4",
          "midi": 64,
          "time": 249.46128899999482,
          "velocity": 0.31496062992125984,
          "duration": 0.02596151250000389
        },
        {
          "name": "D2",
          "midi": 38,
          "time": 249.6920579999948,
          "velocity": 0.7874015748031497,
          "duration": 0.07692299999999364
        },
        {
          "name": "F4",
          "midi": 65,
          "time": 249.6920579999948,
          "velocity": 0.31496062992125984,
          "duration": 0.02596151250000389
        },
        {
          "name": "D2",
          "midi": 38,
          "time": 250.0382114999948,
          "velocity": 0.7874015748031497,
          "duration": 0.07692299999999364
        },
        {
          "name": "F4",
          "midi": 65,
          "time": 250.07859607499478,
          "velocity": 0.31496062992125984,
          "duration": 0.02596151250000389
        },
        {
          "name": "C2",
          "midi": 36,
          "time": 250.1535959999948,
          "velocity": 0.7874015748031497,
          "duration": 0.07692299999999364
        },
        {
          "name": "E4",
          "midi": 64,
          "time": 250.1535959999948,
          "velocity": 0.31496062992125984,
          "duration": 0.02596151250000389
        },
        {
          "name": "C2",
          "midi": 36,
          "time": 250.38436499999477,
          "velocity": 0.7874015748031497,
          "duration": 0.07692299999999364
        },
        {
          "name": "E4",
          "midi": 64,
          "time": 250.38436499999477,
          "velocity": 0.31496062992125984,
          "duration": 0.02596151250000389
        },
        {
          "name": "D2",
          "midi": 38,
          "time": 250.61513399999475,
          "velocity": 0.7874015748031497,
          "duration": 0.07692299999999364
        },
        {
          "name": "F4",
          "midi": 65,
          "time": 250.61513399999475,
          "velocity": 0.31496062992125984,
          "duration": 0.02596151250000389
        },
        {
          "name": "D2",
          "midi": 38,
          "time": 250.96128749999474,
          "velocity": 0.7874015748031497,
          "duration": 0.07692300000002206
        },
        {
          "name": "F4",
          "midi": 65,
          "time": 250.97667209999474,
          "velocity": 0.31496062992125984,
          "duration": 0.02596151250000389
        },
        {
          "name": "C2",
          "midi": 36,
          "time": 251.07667199999477,
          "velocity": 0.7874015748031497,
          "duration": 0.07692299999999364
        },
        {
          "name": "E4",
          "midi": 64,
          "time": 251.07667199999477,
          "velocity": 0.31496062992125984,
          "duration": 0.02596151250000389
        },
        {
          "name": "C2",
          "midi": 36,
          "time": 251.30744099999475,
          "velocity": 0.7874015748031497,
          "duration": 0.07692299999999364
        },
        {
          "name": "E4",
          "midi": 64,
          "time": 251.30744099999475,
          "velocity": 0.31496062992125984,
          "duration": 0.02596151250000389
        },
        {
          "name": "D2",
          "midi": 38,
          "time": 251.53820999999473,
          "velocity": 0.7874015748031497,
          "duration": 0.07692299999999364
        },
        {
          "name": "F4",
          "midi": 65,
          "time": 251.53820999999473,
          "velocity": 0.31496062992125984,
          "duration": 0.02596151250000389
        },
        {
          "name": "D2",
          "midi": 38,
          "time": 251.88436349999472,
          "velocity": 0.7874015748031497,
          "duration": 0.07692299999999364
        },
        {
          "name": "F4",
          "midi": 65,
          "time": 251.9247480749947,
          "velocity": 0.31496062992125984,
          "duration": 0.02596151250000389
        },
        {
          "name": "C2",
          "midi": 36,
          "time": 251.99974799999472,
          "velocity": 0.7874015748031497,
          "duration": 0.07692299999999364
        },
        {
          "name": "E4",
          "midi": 64,
          "time": 251.99974799999472,
          "velocity": 0.31496062992125984,
          "duration": 0.02596151250000389
        },
        {
          "name": "C2",
          "midi": 36,
          "time": 252.2305169999947,
          "velocity": 0.7874015748031497,
          "duration": 0.07692299999999364
        },
        {
          "name": "E4",
          "midi": 64,
          "time": 252.2305169999947,
          "velocity": 0.31496062992125984,
          "duration": 0.02596151250000389
        },
        {
          "name": "D2",
          "midi": 38,
          "time": 252.4612859999947,
          "velocity": 0.7874015748031497,
          "duration": 0.07692299999999364
        },
        {
          "name": "F4",
          "midi": 65,
          "time": 252.4612859999947,
          "velocity": 0.31496062992125984,
          "duration": 0.02596151250000389
        },
        {
          "name": "D2",
          "midi": 38,
          "time": 252.80743949999467,
          "velocity": 0.7874015748031497,
          "duration": 0.07692300000002206
        },
        {
          "name": "F4",
          "midi": 65,
          "time": 252.82282409999468,
          "velocity": 0.31496062992125984,
          "duration": 0.02596151250000389
        },
        {
          "name": "C2",
          "midi": 36,
          "time": 252.9228239999947,
          "velocity": 0.7874015748031497,
          "duration": 0.07692299999999364
        },
        {
          "name": "E4",
          "midi": 64,
          "time": 252.9228239999947,
          "velocity": 0.31496062992125984,
          "duration": 0.02596151250000389
        },
        {
          "name": "C2",
          "midi": 36,
          "time": 253.1535929999947,
          "velocity": 0.7874015748031497,
          "duration": 0.07692299999999364
        },
        {
          "name": "E4",
          "midi": 64,
          "time": 253.1535929999947,
          "velocity": 0.31496062992125984,
          "duration": 0.02596151250000389
        },
        {
          "name": "D2",
          "midi": 38,
          "time": 253.38436199999467,
          "velocity": 0.7874015748031497,
          "duration": 0.07692299999999364
        },
        {
          "name": "F4",
          "midi": 65,
          "time": 253.38436199999467,
          "velocity": 0.31496062992125984,
          "duration": 0.02596151250000389
        },
        {
          "name": "D2",
          "midi": 38,
          "time": 253.73051549999465,
          "velocity": 0.7874015748031497,
          "duration": 0.07692299999999364
        },
        {
          "name": "F4",
          "midi": 65,
          "time": 253.77090007499464,
          "velocity": 0.31496062992125984,
          "duration": 0.02596151250000389
        },
        {
          "name": "C2",
          "midi": 36,
          "time": 253.84589999999466,
          "velocity": 0.7874015748031497,
          "duration": 0.07692299999999364
        },
        {
          "name": "E4",
          "midi": 64,
          "time": 253.84589999999466,
          "velocity": 0.31496062992125984,
          "duration": 0.02596151250000389
        },
        {
          "name": "C2",
          "midi": 36,
          "time": 254.07666899999464,
          "velocity": 0.7874015748031497,
          "duration": 0.07692299999999364
        },
        {
          "name": "E4",
          "midi": 64,
          "time": 254.07666899999464,
          "velocity": 0.31496062992125984,
          "duration": 0.02596151250000389
        },
        {
          "name": "D2",
          "midi": 38,
          "time": 254.30743799999462,
          "velocity": 0.7874015748031497,
          "duration": 0.07692299999999364
        },
        {
          "name": "F4",
          "midi": 65,
          "time": 254.30743799999462,
          "velocity": 0.31496062992125984,
          "duration": 0.02596151250000389
        },
        {
          "name": "D2",
          "midi": 38,
          "time": 254.6535914999946,
          "velocity": 0.7874015748031497,
          "duration": 0.07692300000002206
        },
        {
          "name": "F4",
          "midi": 65,
          "time": 254.6689760999946,
          "velocity": 0.31496062992125984,
          "duration": 0.02596151250000389
        },
        {
          "name": "C2",
          "midi": 36,
          "time": 254.76897599999464,
          "velocity": 0.7874015748031497,
          "duration": 0.07692299999999364
        },
        {
          "name": "E4",
          "midi": 64,
          "time": 254.76897599999464,
          "velocity": 0.31496062992125984,
          "duration": 0.02596151250000389
        },
        {
          "name": "C2",
          "midi": 36,
          "time": 254.99974499999462,
          "velocity": 0.7874015748031497,
          "duration": 0.07692299999999364
        },
        {
          "name": "E4",
          "midi": 64,
          "time": 254.99974499999462,
          "velocity": 0.31496062992125984,
          "duration": 0.02596151250000389
        },
        {
          "name": "D2",
          "midi": 38,
          "time": 255.2305139999946,
          "velocity": 0.7874015748031497,
          "duration": 0.07692299999999364
        },
        {
          "name": "F4",
          "midi": 65,
          "time": 255.2305139999946,
          "velocity": 0.31496062992125984,
          "duration": 0.02596151250000389
        },
        {
          "name": "D2",
          "midi": 38,
          "time": 255.57666749999458,
          "velocity": 0.7874015748031497,
          "duration": 0.07692299999999364
        },
        {
          "name": "F4",
          "midi": 65,
          "time": 255.61705207499458,
          "velocity": 0.31496062992125984,
          "duration": 0.02596151250000389
        },
        {
          "name": "C2",
          "midi": 36,
          "time": 255.6920519999946,
          "velocity": 0.7874015748031497,
          "duration": 0.07692299999999364
        },
        {
          "name": "E4",
          "midi": 64,
          "time": 255.6920519999946,
          "velocity": 0.31496062992125984,
          "duration": 0.02596151250000389
        },
        {
          "name": "C2",
          "midi": 36,
          "time": 255.92282099999457,
          "velocity": 0.7874015748031497,
          "duration": 0.07692299999999364
        },
        {
          "name": "E4",
          "midi": 64,
          "time": 255.92282099999457,
          "velocity": 0.31496062992125984,
          "duration": 0.02596151250000389
        },
        {
          "name": "D2",
          "midi": 38,
          "time": 256.15358999999455,
          "velocity": 0.7874015748031497,
          "duration": 0.07692299999996521
        },
        {
          "name": "F4",
          "midi": 65,
          "time": 256.15358999999455,
          "velocity": 0.31496062992125984,
          "duration": 0.02596151249997547
        },
        {
          "name": "D2",
          "midi": 38,
          "time": 256.4997434999945,
          "velocity": 0.7874015748031497,
          "duration": 0.07692299999996521
        },
        {
          "name": "F4",
          "midi": 65,
          "time": 256.5151280999945,
          "velocity": 0.31496062992125984,
          "duration": 0.02596151249997547
        },
        {
          "name": "F4",
          "midi": 65,
          "time": 256.61512799999446,
          "velocity": 0.7874015748031497,
          "duration": 0.07692300000002206
        },
        {
          "name": "E4",
          "midi": 64,
          "time": 256.61512799999446,
          "velocity": 0.7874015748031497,
          "duration": 0.07692300000002206
        },
        {
          "name": "E2",
          "midi": 40,
          "time": 256.61512799999446,
          "velocity": 0.7874015748031497,
          "duration": 0.07692300000002206
        },
        {
          "name": "D2",
          "midi": 38,
          "time": 256.61512799999446,
          "velocity": 0.7874015748031497,
          "duration": 0.07692300000002206
        },
        {
          "name": "C2",
          "midi": 36,
          "time": 256.61512799999446,
          "velocity": 0.7874015748031497,
          "duration": 0.07692300000002206
        },
        {
          "name": "E2",
          "midi": 40,
          "time": 257.0766659999945,
          "velocity": 0.7874015748031497,
          "duration": 0.07692300000002206
        },
        {
          "name": "D2",
          "midi": 38,
          "time": 257.0766659999945,
          "velocity": 0.7874015748031497,
          "duration": 0.07692300000002206
        },
        {
          "name": "C2",
          "midi": 36,
          "time": 257.0766659999945,
          "velocity": 0.7874015748031497,
          "duration": 0.07692300000002206
        },
        {
          "name": "D2",
          "midi": 38,
          "time": 257.4228194999945,
          "velocity": 0.7874015748031497,
          "duration": 0.03846149999998261
        },
        {
          "name": "E2",
          "midi": 40,
          "time": 257.4228194999945,
          "velocity": 0.7874015748031497,
          "duration": 0.03846149999998261
        },
        {
          "name": "E2",
          "midi": 40,
          "time": 257.4805117499945,
          "velocity": 0.7874015748031497,
          "duration": 0.03846149999998261
        },
        {
          "name": "D2",
          "midi": 38,
          "time": 257.4805117499945,
          "velocity": 0.7874015748031497,
          "duration": 0.03846149999998261
        },
        {
          "name": "E2",
          "midi": 40,
          "time": 257.5382039999945,
          "velocity": 0.7874015748031497,
          "duration": 0.07692300000002206
        },
        {
          "name": "D2",
          "midi": 38,
          "time": 257.5382039999945,
          "velocity": 0.7874015748031497,
          "duration": 0.07692300000002206
        },
        {
          "name": "C2",
          "midi": 36,
          "time": 257.5382039999945,
          "velocity": 0.7874015748031497,
          "duration": 0.07692300000002206
        },
        {
          "name": "E2",
          "midi": 40,
          "time": 257.7689729999945,
          "velocity": 0.7874015748031497,
          "duration": 0.07692300000002206
        },
        {
          "name": "D2",
          "midi": 38,
          "time": 257.7689729999945,
          "velocity": 0.7874015748031497,
          "duration": 0.07692300000002206
        },
        {
          "name": "C2",
          "midi": 36,
          "time": 257.7689729999945,
          "velocity": 0.7874015748031497,
          "duration": 0.07692300000002206
        },
        {
          "name": "D2",
          "midi": 38,
          "time": 258.2305109999945,
          "velocity": 0.7874015748031497,
          "duration": 0.07692300000002206
        },
        {
          "name": "E2",
          "midi": 40,
          "time": 258.2305109999945,
          "velocity": 0.7874015748031497,
          "duration": 0.07692300000002206
        },
        {
          "name": "C2",
          "midi": 36,
          "time": 258.2305109999945,
          "velocity": 0.7874015748031497,
          "duration": 0.07692300000002206
        },
        {
          "name": "E2",
          "midi": 40,
          "time": 258.46127999999453,
          "velocity": 0.7874015748031497,
          "duration": 0.07692300000002206
        },
        {
          "name": "D2",
          "midi": 38,
          "time": 258.46127999999453,
          "velocity": 0.7874015748031497,
          "duration": 0.07692300000002206
        },
        {
          "name": "A3",
          "midi": 57,
          "time": 258.46127999999453,
          "velocity": 0.7874015748031497,
          "duration": 0.07692300000002206
        },
        {
          "name": "E2",
          "midi": 40,
          "time": 271.84588199999456,
          "velocity": 0.7874015748031497,
          "duration": 0.03846149999998261
        },
        {
          "name": "D2",
          "midi": 38,
          "time": 271.84588199999456,
          "velocity": 0.7874015748031497,
          "duration": 0.03846149999998261
        },
        {
          "name": "C2",
          "midi": 36,
          "time": 271.84588199999456,
          "velocity": 0.7874015748031497,
          "duration": 0.07692299999996521
        },
        {
          "name": "E2",
          "midi": 40,
          "time": 272.1920354999945,
          "velocity": 0.7874015748031497,
          "duration": 0.03846149999998261
        },
        {
          "name": "E2",
          "midi": 40,
          "time": 272.2497277499945,
          "velocity": 0.7874015748031497,
          "duration": 0.03846149999998261
        },
        {
          "name": "D2",
          "midi": 38,
          "time": 272.3074199999945,
          "velocity": 0.7874015748031497,
          "duration": 0.07692300000002206
        },
        {
          "name": "E2",
          "midi": 40,
          "time": 272.3074199999945,
          "velocity": 0.7874015748031497,
          "duration": 0.07692300000002206
        },
        {
          "name": "C2",
          "midi": 36,
          "time": 272.3074199999945,
          "velocity": 0.7874015748031497,
          "duration": 0.07692300000002206
        },
        {
          "name": "E2",
          "midi": 40,
          "time": 272.4228044999945,
          "velocity": 0.7874015748031497,
          "duration": 0.03846149999998261
        },
        {
          "name": "D2",
          "midi": 38,
          "time": 272.4228044999945,
          "velocity": 0.7874015748031497,
          "duration": 0.03846149999998261
        },
        {
          "name": "C2",
          "midi": 36,
          "time": 272.4228044999945,
          "velocity": 0.7874015748031497,
          "duration": 0.07692299999996521
        },
        {
          "name": "E2",
          "midi": 40,
          "time": 272.6535734999945,
          "velocity": 0.7874015748031497,
          "duration": 0.03846149999998261
        },
        {
          "name": "D2",
          "midi": 38,
          "time": 272.6535734999945,
          "velocity": 0.7874015748031497,
          "duration": 0.03846149999998261
        },
        {
          "name": "C2",
          "midi": 36,
          "time": 272.6535734999945,
          "velocity": 0.7874015748031497,
          "duration": 0.07692299999996521
        },
        {
          "name": "E2",
          "midi": 40,
          "time": 272.88434249999443,
          "velocity": 0.7874015748031497,
          "duration": 0.03846149999998261
        },
        {
          "name": "D2",
          "midi": 38,
          "time": 272.88434249999443,
          "velocity": 0.7874015748031497,
          "duration": 0.03846149999998261
        },
        {
          "name": "C2",
          "midi": 36,
          "time": 272.88434249999443,
          "velocity": 0.7874015748031497,
          "duration": 0.07692299999996521
        },
        {
          "name": "E2",
          "midi": 40,
          "time": 273.1151114999944,
          "velocity": 0.7874015748031497,
          "duration": 0.03846149999998261
        },
        {
          "name": "D2",
          "midi": 38,
          "time": 273.1151114999944,
          "velocity": 0.7874015748031497,
          "duration": 0.03846149999998261
        },
        {
          "name": "C2",
          "midi": 36,
          "time": 273.1151114999944,
          "velocity": 0.7874015748031497,
          "duration": 0.07692299999996521
        },
        {
          "name": "C2",
          "midi": 36,
          "time": 273.23049599999433,
          "velocity": 0.7874015748031497,
          "duration": 0.07692300000002206
        },
        {
          "name": "B1",
          "midi": 35,
          "time": 273.23049599999433,
          "velocity": 0.7874015748031497,
          "duration": 0.07692300000002206
        },
        {
          "name": "A3",
          "midi": 57,
          "time": 273.23049599999433,
          "velocity": 0.7874015748031497,
          "duration": 0.07692300000002206
        },
        {
          "name": "A#2",
          "midi": 46,
          "time": 273.23049599999433,
          "velocity": 0.7874015748031497,
          "duration": 0.07692300000002206
        },
        {
          "name": "C2",
          "midi": 36,
          "time": 273.46126499999434,
          "velocity": 0.7874015748031497,
          "duration": 0.07692300000002206
        },
        {
          "name": "B1",
          "midi": 35,
          "time": 273.46126499999434,
          "velocity": 0.7874015748031497,
          "duration": 0.07692300000002206
        },
        {
          "name": "A#2",
          "midi": 46,
          "time": 273.46126499999434,
          "velocity": 0.7874015748031497,
          "duration": 0.07692300000002206
        },
        {
          "name": "D2",
          "midi": 38,
          "time": 273.69203399999435,
          "velocity": 0.7874015748031497,
          "duration": 0.07692300000002206
        },
        {
          "name": "E2",
          "midi": 40,
          "time": 273.69203399999435,
          "velocity": 0.7874015748031497,
          "duration": 0.07692300000002206
        },
        {
          "name": "A3",
          "midi": 57,
          "time": 273.69203399999435,
          "velocity": 0.7874015748031497,
          "duration": 0.07692300000002206
        },
        {
          "name": "A#2",
          "midi": 46,
          "time": 273.69203399999435,
          "velocity": 0.7874015748031497,
          "duration": 0.07692300000002206
        },
        {
          "name": "A#2",
          "midi": 46,
          "time": 273.92280299999436,
          "velocity": 0.7874015748031497,
          "duration": 0.07692300000002206
        },
        {
          "name": "C2",
          "midi": 36,
          "time": 274.03818749999436,
          "velocity": 0.7874015748031497,
          "duration": 0.07692300000002206
        },
        {
          "name": "B1",
          "midi": 35,
          "time": 274.03818749999436,
          "velocity": 0.7874015748031497,
          "duration": 0.07692300000002206
        },
        {
          "name": "E2",
          "midi": 40,
          "time": 274.03818749999436,
          "velocity": 0.7874015748031497,
          "duration": 0.07692300000002206
        },
        {
          "name": "A#2",
          "midi": 46,
          "time": 274.15357199999437,
          "velocity": 0.7874015748031497,
          "duration": 0.07692300000002206
        },
        {
          "name": "G#2",
          "midi": 44,
          "time": 274.2689564999944,
          "velocity": 0.7874015748031497,
          "duration": 0.07692300000002206
        },
        {
          "name": "C2",
          "midi": 36,
          "time": 274.3843409999944,
          "velocity": 0.7874015748031497,
          "duration": 0.07692300000002206
        },
        {
          "name": "B1",
          "midi": 35,
          "time": 274.3843409999944,
          "velocity": 0.7874015748031497,
          "duration": 0.07692300000002206
        },
        {
          "name": "A#2",
          "midi": 46,
          "time": 274.3843409999944,
          "velocity": 0.7874015748031497,
          "duration": 0.07692300000002206
        },
        {
          "name": "D2",
          "midi": 38,
          "time": 274.6151099999944,
          "velocity": 0.7874015748031497,
          "duration": 0.07692300000002206
        },
        {
          "name": "E2",
          "midi": 40,
          "time": 274.6151099999944,
          "velocity": 0.7874015748031497,
          "duration": 0.07692300000002206
        },
        {
          "name": "A3",
          "midi": 57,
          "time": 274.6151099999944,
          "velocity": 0.7874015748031497,
          "duration": 0.07692300000002206
        },
        {
          "name": "A#2",
          "midi": 46,
          "time": 274.6151099999944,
          "velocity": 0.7874015748031497,
          "duration": 0.07692300000002206
        },
        {
          "name": "A#2",
          "midi": 46,
          "time": 274.8458789999944,
          "velocity": 0.7874015748031497,
          "duration": 0.07692300000002206
        },
        {
          "name": "C2",
          "midi": 36,
          "time": 274.9612634999944,
          "velocity": 0.7874015748031497,
          "duration": 0.07692300000002206
        },
        {
          "name": "B1",
          "midi": 35,
          "time": 274.9612634999944,
          "velocity": 0.7874015748031497,
          "duration": 0.07692300000002206
        },
        {
          "name": "C2",
          "midi": 36,
          "time": 275.0766479999944,
          "velocity": 0.7874015748031497,
          "duration": 0.07692300000002206
        },
        {
          "name": "B1",
          "midi": 35,
          "time": 275.0766479999944,
          "velocity": 0.7874015748031497,
          "duration": 0.07692300000002206
        },
        {
          "name": "A3",
          "midi": 57,
          "time": 275.0766479999944,
          "velocity": 0.7874015748031497,
          "duration": 0.07692300000002206
        },
        {
          "name": "A#2",
          "midi": 46,
          "time": 275.0766479999944,
          "velocity": 0.7874015748031497,
          "duration": 0.07692300000002206
        },
        {
          "name": "C2",
          "midi": 36,
          "time": 275.3074169999944,
          "velocity": 0.7874015748031497,
          "duration": 0.07692300000002206
        },
        {
          "name": "B1",
          "midi": 35,
          "time": 275.3074169999944,
          "velocity": 0.7874015748031497,
          "duration": 0.07692300000002206
        },
        {
          "name": "A#2",
          "midi": 46,
          "time": 275.3074169999944,
          "velocity": 0.7874015748031497,
          "duration": 0.07692300000002206
        },
        {
          "name": "D2",
          "midi": 38,
          "time": 275.5381859999944,
          "velocity": 0.7874015748031497,
          "duration": 0.07692300000002206
        },
        {
          "name": "E2",
          "midi": 40,
          "time": 275.5381859999944,
          "velocity": 0.7874015748031497,
          "duration": 0.07692300000002206
        },
        {
          "name": "A3",
          "midi": 57,
          "time": 275.5381859999944,
          "velocity": 0.7874015748031497,
          "duration": 0.07692300000002206
        },
        {
          "name": "A#2",
          "midi": 46,
          "time": 275.5381859999944,
          "velocity": 0.7874015748031497,
          "duration": 0.07692300000002206
        },
        {
          "name": "A#2",
          "midi": 46,
          "time": 275.76895499999443,
          "velocity": 0.7874015748031497,
          "duration": 0.07692300000002206
        },
        {
          "name": "C2",
          "midi": 36,
          "time": 275.88433949999444,
          "velocity": 0.7874015748031497,
          "duration": 0.07692300000002206
        },
        {
          "name": "B1",
          "midi": 35,
          "time": 275.88433949999444,
          "velocity": 0.7874015748031497,
          "duration": 0.07692300000002206
        },
        {
          "name": "E2",
          "midi": 40,
          "time": 275.88433949999444,
          "velocity": 0.7874015748031497,
          "duration": 0.07692300000002206
        },
        {
          "name": "A#2",
          "midi": 46,
          "time": 275.99972399999444,
          "velocity": 0.7874015748031497,
          "duration": 0.07692300000002206
        },
        {
          "name": "G#2",
          "midi": 44,
          "time": 276.11510849999445,
          "velocity": 0.7874015748031497,
          "duration": 0.07692300000002206
        },
        {
          "name": "C2",
          "midi": 36,
          "time": 276.23049299999445,
          "velocity": 0.7874015748031497,
          "duration": 0.07692300000002206
        },
        {
          "name": "B1",
          "midi": 35,
          "time": 276.23049299999445,
          "velocity": 0.7874015748031497,
          "duration": 0.07692300000002206
        },
        {
          "name": "A#2",
          "midi": 46,
          "time": 276.23049299999445,
          "velocity": 0.7874015748031497,
          "duration": 0.07692300000002206
        },
        {
          "name": "D2",
          "midi": 38,
          "time": 276.46126199999446,
          "velocity": 0.7874015748031497,
          "duration": 0.07692300000002206
        },
        {
          "name": "E2",
          "midi": 40,
          "time": 276.46126199999446,
          "velocity": 0.7874015748031497,
          "duration": 0.07692300000002206
        },
        {
          "name": "A3",
          "midi": 57,
          "time": 276.46126199999446,
          "velocity": 0.7874015748031497,
          "duration": 0.07692300000002206
        },
        {
          "name": "A#2",
          "midi": 46,
          "time": 276.46126199999446,
          "velocity": 0.7874015748031497,
          "duration": 0.07692300000002206
        },
        {
          "name": "A#2",
          "midi": 46,
          "time": 276.6920309999945,
          "velocity": 0.7874015748031497,
          "duration": 0.07692300000002206
        },
        {
          "name": "C2",
          "midi": 36,
          "time": 276.8074154999945,
          "velocity": 0.7874015748031497,
          "duration": 0.07692300000002206
        },
        {
          "name": "B1",
          "midi": 35,
          "time": 276.8074154999945,
          "velocity": 0.7874015748031497,
          "duration": 0.07692300000002206
        },
        {
          "name": "C2",
          "midi": 36,
          "time": 276.9227999999945,
          "velocity": 0.7874015748031497,
          "duration": 0.07692300000002206
        },
        {
          "name": "B1",
          "midi": 35,
          "time": 276.9227999999945,
          "velocity": 0.7874015748031497,
          "duration": 0.07692300000002206
        },
        {
          "name": "A3",
          "midi": 57,
          "time": 276.9227999999945,
          "velocity": 0.7874015748031497,
          "duration": 0.07692300000002206
        },
        {
          "name": "A#2",
          "midi": 46,
          "time": 276.9227999999945,
          "velocity": 0.7874015748031497,
          "duration": 0.07692300000002206
        },
        {
          "name": "C2",
          "midi": 36,
          "time": 277.1535689999945,
          "velocity": 0.7874015748031497,
          "duration": 0.07692300000002206
        },
        {
          "name": "B1",
          "midi": 35,
          "time": 277.1535689999945,
          "velocity": 0.7874015748031497,
          "duration": 0.07692300000002206
        },
        {
          "name": "A#2",
          "midi": 46,
          "time": 277.1535689999945,
          "velocity": 0.7874015748031497,
          "duration": 0.07692300000002206
        },
        {
          "name": "D2",
          "midi": 38,
          "time": 277.3843379999945,
          "velocity": 0.7874015748031497,
          "duration": 0.07692300000002206
        },
        {
          "name": "E2",
          "midi": 40,
          "time": 277.3843379999945,
          "velocity": 0.7874015748031497,
          "duration": 0.07692300000002206
        },
        {
          "name": "A3",
          "midi": 57,
          "time": 277.3843379999945,
          "velocity": 0.7874015748031497,
          "duration": 0.07692300000002206
        },
        {
          "name": "A#2",
          "midi": 46,
          "time": 277.3843379999945,
          "velocity": 0.7874015748031497,
          "duration": 0.07692300000002206
        },
        {
          "name": "A#2",
          "midi": 46,
          "time": 277.6151069999945,
          "velocity": 0.7874015748031497,
          "duration": 0.07692300000002206
        },
        {
          "name": "C2",
          "midi": 36,
          "time": 277.7304914999945,
          "velocity": 0.7874015748031497,
          "duration": 0.07692300000002206
        },
        {
          "name": "B1",
          "midi": 35,
          "time": 277.7304914999945,
          "velocity": 0.7874015748031497,
          "duration": 0.07692300000002206
        },
        {
          "name": "E2",
          "midi": 40,
          "time": 277.7304914999945,
          "velocity": 0.7874015748031497,
          "duration": 0.07692300000002206
        },
        {
          "name": "A#2",
          "midi": 46,
          "time": 277.8458759999945,
          "velocity": 0.7874015748031497,
          "duration": 0.07692300000002206
        },
        {
          "name": "G#2",
          "midi": 44,
          "time": 277.9612604999945,
          "velocity": 0.7874015748031497,
          "duration": 0.07692300000002206
        },
        {
          "name": "C2",
          "midi": 36,
          "time": 278.0766449999945,
          "velocity": 0.7874015748031497,
          "duration": 0.07692300000002206
        },
        {
          "name": "B1",
          "midi": 35,
          "time": 278.0766449999945,
          "velocity": 0.7874015748031497,
          "duration": 0.07692300000002206
        },
        {
          "name": "A#2",
          "midi": 46,
          "time": 278.0766449999945,
          "velocity": 0.7874015748031497,
          "duration": 0.07692300000002206
        },
        {
          "name": "D2",
          "midi": 38,
          "time": 278.30741399999454,
          "velocity": 0.7874015748031497,
          "duration": 0.07692300000002206
        },
        {
          "name": "E2",
          "midi": 40,
          "time": 278.30741399999454,
          "velocity": 0.7874015748031497,
          "duration": 0.07692300000002206
        },
        {
          "name": "A3",
          "midi": 57,
          "time": 278.30741399999454,
          "velocity": 0.7874015748031497,
          "duration": 0.07692300000002206
        },
        {
          "name": "A#2",
          "midi": 46,
          "time": 278.30741399999454,
          "velocity": 0.7874015748031497,
          "duration": 0.07692300000002206
        },
        {
          "name": "A#2",
          "midi": 46,
          "time": 278.53818299999455,
          "velocity": 0.7874015748031497,
          "duration": 0.07692300000002206
        },
        {
          "name": "C2",
          "midi": 36,
          "time": 278.65356749999455,
          "velocity": 0.7874015748031497,
          "duration": 0.07692300000002206
        },
        {
          "name": "B1",
          "midi": 35,
          "time": 278.65356749999455,
          "velocity": 0.7874015748031497,
          "duration": 0.07692300000002206
        },
        {
          "name": "C2",
          "midi": 36,
          "time": 278.76895199999456,
          "velocity": 0.7874015748031497,
          "duration": 0.07692300000002206
        },
        {
          "name": "B1",
          "midi": 35,
          "time": 278.76895199999456,
          "velocity": 0.7874015748031497,
          "duration": 0.07692300000002206
        },
        {
          "name": "A3",
          "midi": 57,
          "time": 278.76895199999456,
          "velocity": 0.7874015748031497,
          "duration": 0.07692300000002206
        },
        {
          "name": "A#2",
          "midi": 46,
          "time": 278.76895199999456,
          "velocity": 0.7874015748031497,
          "duration": 0.07692300000002206
        },
        {
          "name": "C2",
          "midi": 36,
          "time": 278.99972099999457,
          "velocity": 0.7874015748031497,
          "duration": 0.07692300000002206
        },
        {
          "name": "B1",
          "midi": 35,
          "time": 278.99972099999457,
          "velocity": 0.7874015748031497,
          "duration": 0.07692300000002206
        },
        {
          "name": "A#2",
          "midi": 46,
          "time": 278.99972099999457,
          "velocity": 0.7874015748031497,
          "duration": 0.07692300000002206
        },
        {
          "name": "D2",
          "midi": 38,
          "time": 279.2304899999946,
          "velocity": 0.7874015748031497,
          "duration": 0.07692300000002206
        },
        {
          "name": "E2",
          "midi": 40,
          "time": 279.2304899999946,
          "velocity": 0.7874015748031497,
          "duration": 0.07692300000002206
        },
        {
          "name": "A3",
          "midi": 57,
          "time": 279.2304899999946,
          "velocity": 0.7874015748031497,
          "duration": 0.07692300000002206
        },
        {
          "name": "A#2",
          "midi": 46,
          "time": 279.2304899999946,
          "velocity": 0.7874015748031497,
          "duration": 0.07692300000002206
        },
        {
          "name": "A#2",
          "midi": 46,
          "time": 279.4612589999946,
          "velocity": 0.7874015748031497,
          "duration": 0.07692300000002206
        },
        {
          "name": "C2",
          "midi": 36,
          "time": 279.5766434999946,
          "velocity": 0.7874015748031497,
          "duration": 0.07692300000002206
        },
        {
          "name": "B1",
          "midi": 35,
          "time": 279.5766434999946,
          "velocity": 0.7874015748031497,
          "duration": 0.07692300000002206
        },
        {
          "name": "E2",
          "midi": 40,
          "time": 279.5766434999946,
          "velocity": 0.7874015748031497,
          "duration": 0.07692300000002206
        },
        {
          "name": "A#2",
          "midi": 46,
          "time": 279.6920279999946,
          "velocity": 0.7874015748031497,
          "duration": 0.07692300000002206
        },
        {
          "name": "G#2",
          "midi": 44,
          "time": 279.8074124999946,
          "velocity": 0.7874015748031497,
          "duration": 0.07692300000002206
        },
        {
          "name": "C2",
          "midi": 36,
          "time": 279.9227969999946,
          "velocity": 0.7874015748031497,
          "duration": 0.07692300000002206
        },
        {
          "name": "B1",
          "midi": 35,
          "time": 279.9227969999946,
          "velocity": 0.7874015748031497,
          "duration": 0.07692300000002206
        },
        {
          "name": "A#2",
          "midi": 46,
          "time": 279.9227969999946,
          "velocity": 0.7874015748031497,
          "duration": 0.07692300000002206
        },
        {
          "name": "D2",
          "midi": 38,
          "time": 280.1535659999946,
          "velocity": 0.7874015748031497,
          "duration": 0.07692300000002206
        },
        {
          "name": "E2",
          "midi": 40,
          "time": 280.1535659999946,
          "velocity": 0.7874015748031497,
          "duration": 0.07692300000002206
        },
        {
          "name": "A3",
          "midi": 57,
          "time": 280.1535659999946,
          "velocity": 0.7874015748031497,
          "duration": 0.07692300000002206
        },
        {
          "name": "A#2",
          "midi": 46,
          "time": 280.1535659999946,
          "velocity": 0.7874015748031497,
          "duration": 0.07692300000002206
        },
        {
          "name": "A#2",
          "midi": 46,
          "time": 280.3843349999946,
          "velocity": 0.7874015748031497,
          "duration": 0.07692300000002206
        },
        {
          "name": "A3",
          "midi": 57,
          "time": 280.3843349999946,
          "velocity": 0.7874015748031497,
          "duration": 0.07692300000002206
        },
        {
          "name": "C2",
          "midi": 36,
          "time": 280.4997194999946,
          "velocity": 0.7874015748031497,
          "duration": 0.07692300000002206
        },
        {
          "name": "B1",
          "midi": 35,
          "time": 280.4997194999946,
          "velocity": 0.7874015748031497,
          "duration": 0.07692300000002206
        },
        {
          "name": "C2",
          "midi": 36,
          "time": 280.61510399999463,
          "velocity": 0.7874015748031497,
          "duration": 0.07692300000002206
        },
        {
          "name": "B1",
          "midi": 35,
          "time": 280.61510399999463,
          "velocity": 0.7874015748031497,
          "duration": 0.07692300000002206
        },
        {
          "name": "A3",
          "midi": 57,
          "time": 280.61510399999463,
          "velocity": 0.7874015748031497,
          "duration": 0.07692300000002206
        },
        {
          "name": "A#2",
          "midi": 46,
          "time": 280.61510399999463,
          "velocity": 0.7874015748031497,
          "duration": 0.07692300000002206
        },
        {
          "name": "C2",
          "midi": 36,
          "time": 280.84587299999464,
          "velocity": 0.7874015748031497,
          "duration": 0.07692300000002206
        },
        {
          "name": "B1",
          "midi": 35,
          "time": 280.84587299999464,
          "velocity": 0.7874015748031497,
          "duration": 0.07692300000002206
        },
        {
          "name": "A#2",
          "midi": 46,
          "time": 280.84587299999464,
          "velocity": 0.7874015748031497,
          "duration": 0.07692300000002206
        },
        {
          "name": "D2",
          "midi": 38,
          "time": 281.07664199999465,
          "velocity": 0.7874015748031497,
          "duration": 0.07692300000002206
        },
        {
          "name": "E2",
          "midi": 40,
          "time": 281.07664199999465,
          "velocity": 0.7874015748031497,
          "duration": 0.07692300000002206
        },
        {
          "name": "A3",
          "midi": 57,
          "time": 281.07664199999465,
          "velocity": 0.7874015748031497,
          "duration": 0.07692300000002206
        },
        {
          "name": "A#2",
          "midi": 46,
          "time": 281.07664199999465,
          "velocity": 0.7874015748031497,
          "duration": 0.07692300000002206
        },
        {
          "name": "A#2",
          "midi": 46,
          "time": 281.30741099999466,
          "velocity": 0.7874015748031497,
          "duration": 0.07692300000002206
        },
        {
          "name": "C2",
          "midi": 36,
          "time": 281.42279549999466,
          "velocity": 0.7874015748031497,
          "duration": 0.07692300000002206
        },
        {
          "name": "B1",
          "midi": 35,
          "time": 281.42279549999466,
          "velocity": 0.7874015748031497,
          "duration": 0.07692300000002206
        },
        {
          "name": "E2",
          "midi": 40,
          "time": 281.42279549999466,
          "velocity": 0.7874015748031497,
          "duration": 0.07692300000002206
        },
        {
          "name": "A#2",
          "midi": 46,
          "time": 281.53817999999467,
          "velocity": 0.7874015748031497,
          "duration": 0.07692300000002206
        },
        {
          "name": "G#2",
          "midi": 44,
          "time": 281.6535644999947,
          "velocity": 0.7874015748031497,
          "duration": 0.07692300000002206
        },
        {
          "name": "C2",
          "midi": 36,
          "time": 281.7689489999947,
          "velocity": 0.7874015748031497,
          "duration": 0.07692300000002206
        },
        {
          "name": "B1",
          "midi": 35,
          "time": 281.7689489999947,
          "velocity": 0.7874015748031497,
          "duration": 0.07692300000002206
        },
        {
          "name": "A#2",
          "midi": 46,
          "time": 281.7689489999947,
          "velocity": 0.7874015748031497,
          "duration": 0.07692300000002206
        },
        {
          "name": "D2",
          "midi": 38,
          "time": 281.9997179999947,
          "velocity": 0.7874015748031497,
          "duration": 0.07692300000002206
        },
        {
          "name": "E2",
          "midi": 40,
          "time": 281.9997179999947,
          "velocity": 0.7874015748031497,
          "duration": 0.07692300000002206
        },
        {
          "name": "A3",
          "midi": 57,
          "time": 281.9997179999947,
          "velocity": 0.7874015748031497,
          "duration": 0.07692300000002206
        },
        {
          "name": "A#2",
          "midi": 46,
          "time": 281.9997179999947,
          "velocity": 0.7874015748031497,
          "duration": 0.07692300000002206
        },
        {
          "name": "A#2",
          "midi": 46,
          "time": 282.2304869999947,
          "velocity": 0.7874015748031497,
          "duration": 0.07692300000002206
        },
        {
          "name": "C2",
          "midi": 36,
          "time": 282.3458714999947,
          "velocity": 0.7874015748031497,
          "duration": 0.07692300000002206
        },
        {
          "name": "B1",
          "midi": 35,
          "time": 282.3458714999947,
          "velocity": 0.7874015748031497,
          "duration": 0.07692300000002206
        },
        {
          "name": "C2",
          "midi": 36,
          "time": 282.4612559999947,
          "velocity": 0.7874015748031497,
          "duration": 0.07692300000002206
        },
        {
          "name": "B1",
          "midi": 35,
          "time": 282.4612559999947,
          "velocity": 0.7874015748031497,
          "duration": 0.07692300000002206
        },
        {
          "name": "A3",
          "midi": 57,
          "time": 282.4612559999947,
          "velocity": 0.7874015748031497,
          "duration": 0.07692300000002206
        },
        {
          "name": "A#2",
          "midi": 46,
          "time": 282.4612559999947,
          "velocity": 0.7874015748031497,
          "duration": 0.07692300000002206
        },
        {
          "name": "C2",
          "midi": 36,
          "time": 282.6920249999947,
          "velocity": 0.7874015748031497,
          "duration": 0.07692300000002206
        },
        {
          "name": "B1",
          "midi": 35,
          "time": 282.6920249999947,
          "velocity": 0.7874015748031497,
          "duration": 0.07692300000002206
        },
        {
          "name": "A#2",
          "midi": 46,
          "time": 282.6920249999947,
          "velocity": 0.7874015748031497,
          "duration": 0.07692300000002206
        },
        {
          "name": "D2",
          "midi": 38,
          "time": 282.9227939999947,
          "velocity": 0.7874015748031497,
          "duration": 0.07692300000002206
        },
        {
          "name": "E2",
          "midi": 40,
          "time": 282.9227939999947,
          "velocity": 0.7874015748031497,
          "duration": 0.07692300000002206
        },
        {
          "name": "A3",
          "midi": 57,
          "time": 282.9227939999947,
          "velocity": 0.7874015748031497,
          "duration": 0.07692300000002206
        },
        {
          "name": "A#2",
          "midi": 46,
          "time": 282.9227939999947,
          "velocity": 0.7874015748031497,
          "duration": 0.07692300000002206
        },
        {
          "name": "A#2",
          "midi": 46,
          "time": 283.15356299999473,
          "velocity": 0.7874015748031497,
          "duration": 0.07692300000002206
        },
        {
          "name": "C2",
          "midi": 36,
          "time": 283.26894749999474,
          "velocity": 0.7874015748031497,
          "duration": 0.07692300000002206
        },
        {
          "name": "B1",
          "midi": 35,
          "time": 283.26894749999474,
          "velocity": 0.7874015748031497,
          "duration": 0.07692300000002206
        },
        {
          "name": "E2",
          "midi": 40,
          "time": 283.26894749999474,
          "velocity": 0.7874015748031497,
          "duration": 0.07692300000002206
        },
        {
          "name": "A#2",
          "midi": 46,
          "time": 283.38433199999474,
          "velocity": 0.7874015748031497,
          "duration": 0.07692300000002206
        },
        {
          "name": "G#2",
          "midi": 44,
          "time": 283.49971649999475,
          "velocity": 0.7874015748031497,
          "duration": 0.07692300000002206
        },
        {
          "name": "C2",
          "midi": 36,
          "time": 283.61510099999475,
          "velocity": 0.7874015748031497,
          "duration": 0.07692300000002206
        },
        {
          "name": "B1",
          "midi": 35,
          "time": 283.61510099999475,
          "velocity": 0.7874015748031497,
          "duration": 0.07692300000002206
        },
        {
          "name": "A#2",
          "midi": 46,
          "time": 283.61510099999475,
          "velocity": 0.7874015748031497,
          "duration": 0.07692300000002206
        },
        {
          "name": "D2",
          "midi": 38,
          "time": 283.84586999999476,
          "velocity": 0.7874015748031497,
          "duration": 0.07692300000002206
        },
        {
          "name": "E2",
          "midi": 40,
          "time": 283.84586999999476,
          "velocity": 0.7874015748031497,
          "duration": 0.07692300000002206
        },
        {
          "name": "A3",
          "midi": 57,
          "time": 283.84586999999476,
          "velocity": 0.7874015748031497,
          "duration": 0.07692300000002206
        },
        {
          "name": "A#2",
          "midi": 46,
          "time": 283.84586999999476,
          "velocity": 0.7874015748031497,
          "duration": 0.07692300000002206
        },
        {
          "name": "A#2",
          "midi": 46,
          "time": 284.07663899999477,
          "velocity": 0.7874015748031497,
          "duration": 0.07692300000002206
        },
        {
          "name": "C2",
          "midi": 36,
          "time": 284.1920234999948,
          "velocity": 0.7874015748031497,
          "duration": 0.07692300000002206
        },
        {
          "name": "B1",
          "midi": 35,
          "time": 284.1920234999948,
          "velocity": 0.7874015748031497,
          "duration": 0.07692300000002206
        },
        {
          "name": "C2",
          "midi": 36,
          "time": 284.3074079999948,
          "velocity": 0.7874015748031497,
          "duration": 0.07692300000002206
        },
        {
          "name": "B1",
          "midi": 35,
          "time": 284.3074079999948,
          "velocity": 0.7874015748031497,
          "duration": 0.07692300000002206
        },
        {
          "name": "A3",
          "midi": 57,
          "time": 284.3074079999948,
          "velocity": 0.7874015748031497,
          "duration": 0.07692300000002206
        },
        {
          "name": "A#2",
          "midi": 46,
          "time": 284.3074079999948,
          "velocity": 0.7874015748031497,
          "duration": 0.07692300000002206
        },
        {
          "name": "C2",
          "midi": 36,
          "time": 284.5381769999948,
          "velocity": 0.7874015748031497,
          "duration": 0.07692300000002206
        },
        {
          "name": "B1",
          "midi": 35,
          "time": 284.5381769999948,
          "velocity": 0.7874015748031497,
          "duration": 0.07692300000002206
        },
        {
          "name": "A#2",
          "midi": 46,
          "time": 284.5381769999948,
          "velocity": 0.7874015748031497,
          "duration": 0.07692300000002206
        },
        {
          "name": "D2",
          "midi": 38,
          "time": 284.7689459999948,
          "velocity": 0.7874015748031497,
          "duration": 0.07692300000002206
        },
        {
          "name": "E2",
          "midi": 40,
          "time": 284.7689459999948,
          "velocity": 0.7874015748031497,
          "duration": 0.07692300000002206
        },
        {
          "name": "A3",
          "midi": 57,
          "time": 284.7689459999948,
          "velocity": 0.7874015748031497,
          "duration": 0.07692300000002206
        },
        {
          "name": "A#2",
          "midi": 46,
          "time": 284.7689459999948,
          "velocity": 0.7874015748031497,
          "duration": 0.07692300000002206
        },
        {
          "name": "A#2",
          "midi": 46,
          "time": 284.9997149999948,
          "velocity": 0.7874015748031497,
          "duration": 0.07692300000002206
        },
        {
          "name": "C2",
          "midi": 36,
          "time": 285.1150994999948,
          "velocity": 0.7874015748031497,
          "duration": 0.07692300000002206
        },
        {
          "name": "B1",
          "midi": 35,
          "time": 285.1150994999948,
          "velocity": 0.7874015748031497,
          "duration": 0.07692300000002206
        },
        {
          "name": "E2",
          "midi": 40,
          "time": 285.1150994999948,
          "velocity": 0.7874015748031497,
          "duration": 0.07692300000002206
        },
        {
          "name": "A#2",
          "midi": 46,
          "time": 285.2304839999948,
          "velocity": 0.7874015748031497,
          "duration": 0.07692300000002206
        },
        {
          "name": "G#2",
          "midi": 44,
          "time": 285.3458684999948,
          "velocity": 0.7874015748031497,
          "duration": 0.07692300000002206
        },
        {
          "name": "C2",
          "midi": 36,
          "time": 285.4612529999948,
          "velocity": 0.7874015748031497,
          "duration": 0.07692300000002206
        },
        {
          "name": "B1",
          "midi": 35,
          "time": 285.4612529999948,
          "velocity": 0.7874015748031497,
          "duration": 0.07692300000002206
        },
        {
          "name": "A#2",
          "midi": 46,
          "time": 285.4612529999948,
          "velocity": 0.7874015748031497,
          "duration": 0.07692300000002206
        },
        {
          "name": "D2",
          "midi": 38,
          "time": 285.69202199999484,
          "velocity": 0.7874015748031497,
          "duration": 0.07692300000002206
        },
        {
          "name": "E2",
          "midi": 40,
          "time": 285.69202199999484,
          "velocity": 0.7874015748031497,
          "duration": 0.07692300000002206
        },
        {
          "name": "A3",
          "midi": 57,
          "time": 285.69202199999484,
          "velocity": 0.7874015748031497,
          "duration": 0.07692300000002206
        },
        {
          "name": "A#2",
          "midi": 46,
          "time": 285.69202199999484,
          "velocity": 0.7874015748031497,
          "duration": 0.07692300000002206
        },
        {
          "name": "A#2",
          "midi": 46,
          "time": 285.92279099999485,
          "velocity": 0.7874015748031497,
          "duration": 0.07692300000002206
        },
        {
          "name": "C2",
          "midi": 36,
          "time": 286.03817549999485,
          "velocity": 0.7874015748031497,
          "duration": 0.07692300000002206
        },
        {
          "name": "B1",
          "midi": 35,
          "time": 286.03817549999485,
          "velocity": 0.7874015748031497,
          "duration": 0.07692300000002206
        },
        {
          "name": "C2",
          "midi": 36,
          "time": 286.15355999999485,
          "velocity": 0.7874015748031497,
          "duration": 0.07692300000002206
        },
        {
          "name": "B1",
          "midi": 35,
          "time": 286.15355999999485,
          "velocity": 0.7874015748031497,
          "duration": 0.07692300000002206
        },
        {
          "name": "A3",
          "midi": 57,
          "time": 286.15355999999485,
          "velocity": 0.7874015748031497,
          "duration": 0.07692300000002206
        },
        {
          "name": "A#2",
          "midi": 46,
          "time": 286.15355999999485,
          "velocity": 0.7874015748031497,
          "duration": 0.07692300000002206
        },
        {
          "name": "C2",
          "midi": 36,
          "time": 286.38432899999486,
          "velocity": 0.7874015748031497,
          "duration": 0.07692300000002206
        },
        {
          "name": "B1",
          "midi": 35,
          "time": 286.38432899999486,
          "velocity": 0.7874015748031497,
          "duration": 0.07692300000002206
        },
        {
          "name": "A#2",
          "midi": 46,
          "time": 286.38432899999486,
          "velocity": 0.7874015748031497,
          "duration": 0.07692300000002206
        },
        {
          "name": "D2",
          "midi": 38,
          "time": 286.6150979999949,
          "velocity": 0.7874015748031497,
          "duration": 0.07692300000002206
        },
        {
          "name": "E2",
          "midi": 40,
          "time": 286.6150979999949,
          "velocity": 0.7874015748031497,
          "duration": 0.07692300000002206
        },
        {
          "name": "A3",
          "midi": 57,
          "time": 286.6150979999949,
          "velocity": 0.7874015748031497,
          "duration": 0.07692300000002206
        },
        {
          "name": "A#2",
          "midi": 46,
          "time": 286.6150979999949,
          "velocity": 0.7874015748031497,
          "duration": 0.07692300000002206
        },
        {
          "name": "A#2",
          "midi": 46,
          "time": 286.8458669999949,
          "velocity": 0.7874015748031497,
          "duration": 0.07692300000002206
        },
        {
          "name": "A#2",
          "midi": 46,
          "time": 287.0766359999949,
          "velocity": 0.7874015748031497,
          "duration": 0.07692299999996521
        },
        {
          "name": "E2",
          "midi": 40,
          "time": 287.0766359999949,
          "velocity": 0.7874015748031497,
          "duration": 0.03846149999998261
        },
        {
          "name": "D2",
          "midi": 38,
          "time": 287.0766359999949,
          "velocity": 0.7874015748031497,
          "duration": 0.03846149999998261
        },
        {
          "name": "C2",
          "midi": 36,
          "time": 287.0766359999949,
          "velocity": 0.7874015748031497,
          "duration": 0.07692299999996521
        },
        {
          "name": "E2",
          "midi": 40,
          "time": 287.19202049999484,
          "velocity": 0.7874015748031497,
          "duration": 0.03846149999998261
        },
        {
          "name": "D2",
          "midi": 38,
          "time": 287.19202049999484,
          "velocity": 0.7874015748031497,
          "duration": 0.03846149999998261
        },
        {
          "name": "C2",
          "midi": 36,
          "time": 287.19202049999484,
          "velocity": 0.7874015748031497,
          "duration": 0.07692299999996521
        },
        {
          "name": "G#2",
          "midi": 44,
          "time": 287.19202049999484,
          "velocity": 0.7874015748031497,
          "duration": 0.07692299999996521
        },
        {
          "name": "A#2",
          "midi": 46,
          "time": 287.3074049999948,
          "velocity": 0.7874015748031497,
          "duration": 0.07692300000002206
        },
        {
          "name": "E2",
          "midi": 40,
          "time": 287.4227894999948,
          "velocity": 0.7874015748031497,
          "duration": 0.03846149999998261
        },
        {
          "name": "E2",
          "midi": 40,
          "time": 287.4804817499948,
          "velocity": 0.7874015748031497,
          "duration": 0.03846149999998261
        },
        {
          "name": "A#2",
          "midi": 46,
          "time": 287.5381739999948,
          "velocity": 0.7874015748031497,
          "duration": 0.07692300000002206
        },
        {
          "name": "D2",
          "midi": 38,
          "time": 287.5381739999948,
          "velocity": 0.7874015748031497,
          "duration": 0.07692300000002206
        },
        {
          "name": "E2",
          "midi": 40,
          "time": 287.5381739999948,
          "velocity": 0.7874015748031497,
          "duration": 0.07692300000002206
        },
        {
          "name": "C2",
          "midi": 36,
          "time": 287.5381739999948,
          "velocity": 0.7874015748031497,
          "duration": 0.07692300000002206
        },
        {
          "name": "E2",
          "midi": 40,
          "time": 287.6535584999948,
          "velocity": 0.7874015748031497,
          "duration": 0.03846149999998261
        },
        {
          "name": "D2",
          "midi": 38,
          "time": 287.6535584999948,
          "velocity": 0.7874015748031497,
          "duration": 0.03846149999998261
        },
        {
          "name": "C2",
          "midi": 36,
          "time": 287.6535584999948,
          "velocity": 0.7874015748031497,
          "duration": 0.07692299999996521
        },
        {
          "name": "A#2",
          "midi": 46,
          "time": 287.76894299999475,
          "velocity": 0.7874015748031497,
          "duration": 0.07692300000002206
        },
        {
          "name": "E2",
          "midi": 40,
          "time": 287.88432749999475,
          "velocity": 0.7874015748031497,
          "duration": 0.03846149999998261
        },
        {
          "name": "D2",
          "midi": 38,
          "time": 287.88432749999475,
          "velocity": 0.7874015748031497,
          "duration": 0.03846149999998261
        },
        {
          "name": "C2",
          "midi": 36,
          "time": 287.88432749999475,
          "velocity": 0.7874015748031497,
          "duration": 0.07692299999996521
        },
        {
          "name": "C2",
          "midi": 36,
          "time": 287.9997119999947,
          "velocity": 0.7874015748031497,
          "duration": 0.07692300000002206
        },
        {
          "name": "B1",
          "midi": 35,
          "time": 287.9997119999947,
          "velocity": 0.7874015748031497,
          "duration": 0.07692300000002206
        },
        {
          "name": "A3",
          "midi": 57,
          "time": 287.9997119999947,
          "velocity": 0.7874015748031497,
          "duration": 0.07692300000002206
        },
        {
          "name": "A#2",
          "midi": 46,
          "time": 287.9997119999947,
          "velocity": 0.7874015748031497,
          "duration": 0.07692300000002206
        },
        {
          "name": "C2",
          "midi": 36,
          "time": 288.2304809999947,
          "velocity": 0.7874015748031497,
          "duration": 0.07692300000002206
        },
        {
          "name": "B1",
          "midi": 35,
          "time": 288.2304809999947,
          "velocity": 0.7874015748031497,
          "duration": 0.07692300000002206
        },
        {
          "name": "A#2",
          "midi": 46,
          "time": 288.2304809999947,
          "velocity": 0.7874015748031497,
          "duration": 0.07692300000002206
        },
        {
          "name": "D2",
          "midi": 38,
          "time": 288.4612499999947,
          "velocity": 0.7874015748031497,
          "duration": 0.07692300000002206
        },
        {
          "name": "E2",
          "midi": 40,
          "time": 288.4612499999947,
          "velocity": 0.7874015748031497,
          "duration": 0.07692300000002206
        },
        {
          "name": "A3",
          "midi": 57,
          "time": 288.4612499999947,
          "velocity": 0.7874015748031497,
          "duration": 0.07692300000002206
        },
        {
          "name": "A#2",
          "midi": 46,
          "time": 288.4612499999947,
          "velocity": 0.7874015748031497,
          "duration": 0.07692300000002206
        },
        {
          "name": "A#2",
          "midi": 46,
          "time": 288.69201899999473,
          "velocity": 0.7874015748031497,
          "duration": 0.07692300000002206
        },
        {
          "name": "C2",
          "midi": 36,
          "time": 288.80740349999473,
          "velocity": 0.7874015748031497,
          "duration": 0.07692300000002206
        },
        {
          "name": "B1",
          "midi": 35,
          "time": 288.80740349999473,
          "velocity": 0.7874015748031497,
          "duration": 0.07692300000002206
        },
        {
          "name": "E2",
          "midi": 40,
          "time": 288.80740349999473,
          "velocity": 0.7874015748031497,
          "duration": 0.07692300000002206
        },
        {
          "name": "A#2",
          "midi": 46,
          "time": 288.92278799999474,
          "velocity": 0.7874015748031497,
          "duration": 0.07692300000002206
        },
        {
          "name": "G#2",
          "midi": 44,
          "time": 289.03817249999474,
          "velocity": 0.7874015748031497,
          "duration": 0.07692300000002206
        },
        {
          "name": "C2",
          "midi": 36,
          "time": 289.15355699999475,
          "velocity": 0.7874015748031497,
          "duration": 0.07692300000002206
        },
        {
          "name": "B1",
          "midi": 35,
          "time": 289.15355699999475,
          "velocity": 0.7874015748031497,
          "duration": 0.07692300000002206
        },
        {
          "name": "A#2",
          "midi": 46,
          "time": 289.15355699999475,
          "velocity": 0.7874015748031497,
          "duration": 0.07692300000002206
        },
        {
          "name": "D2",
          "midi": 38,
          "time": 289.38432599999476,
          "velocity": 0.7874015748031497,
          "duration": 0.07692300000002206
        },
        {
          "name": "E2",
          "midi": 40,
          "time": 289.38432599999476,
          "velocity": 0.7874015748031497,
          "duration": 0.07692300000002206
        },
        {
          "name": "A3",
          "midi": 57,
          "time": 289.38432599999476,
          "velocity": 0.7874015748031497,
          "duration": 0.07692300000002206
        },
        {
          "name": "A#2",
          "midi": 46,
          "time": 289.38432599999476,
          "velocity": 0.7874015748031497,
          "duration": 0.07692300000002206
        },
        {
          "name": "A#2",
          "midi": 46,
          "time": 289.61509499999477,
          "velocity": 0.7874015748031497,
          "duration": 0.07692300000002206
        },
        {
          "name": "C2",
          "midi": 36,
          "time": 289.7304794999948,
          "velocity": 0.7874015748031497,
          "duration": 0.07692300000002206
        },
        {
          "name": "B1",
          "midi": 35,
          "time": 289.7304794999948,
          "velocity": 0.7874015748031497,
          "duration": 0.07692300000002206
        },
        {
          "name": "C2",
          "midi": 36,
          "time": 289.8458639999948,
          "velocity": 0.7874015748031497,
          "duration": 0.07692300000002206
        },
        {
          "name": "B1",
          "midi": 35,
          "time": 289.8458639999948,
          "velocity": 0.7874015748031497,
          "duration": 0.07692300000002206
        },
        {
          "name": "A3",
          "midi": 57,
          "time": 289.8458639999948,
          "velocity": 0.7874015748031497,
          "duration": 0.07692300000002206
        },
        {
          "name": "A#2",
          "midi": 46,
          "time": 289.8458639999948,
          "velocity": 0.7874015748031497,
          "duration": 0.07692300000002206
        },
        {
          "name": "C2",
          "midi": 36,
          "time": 290.0766329999948,
          "velocity": 0.7874015748031497,
          "duration": 0.07692300000002206
        },
        {
          "name": "B1",
          "midi": 35,
          "time": 290.0766329999948,
          "velocity": 0.7874015748031497,
          "duration": 0.07692300000002206
        },
        {
          "name": "A#2",
          "midi": 46,
          "time": 290.0766329999948,
          "velocity": 0.7874015748031497,
          "duration": 0.07692300000002206
        },
        {
          "name": "D2",
          "midi": 38,
          "time": 290.3074019999948,
          "velocity": 0.7874015748031497,
          "duration": 0.07692300000002206
        },
        {
          "name": "E2",
          "midi": 40,
          "time": 290.3074019999948,
          "velocity": 0.7874015748031497,
          "duration": 0.07692300000002206
        },
        {
          "name": "A3",
          "midi": 57,
          "time": 290.3074019999948,
          "velocity": 0.7874015748031497,
          "duration": 0.07692300000002206
        },
        {
          "name": "A#2",
          "midi": 46,
          "time": 290.3074019999948,
          "velocity": 0.7874015748031497,
          "duration": 0.07692300000002206
        },
        {
          "name": "A#2",
          "midi": 46,
          "time": 290.5381709999948,
          "velocity": 0.7874015748031497,
          "duration": 0.07692300000002206
        },
        {
          "name": "C2",
          "midi": 36,
          "time": 290.6535554999948,
          "velocity": 0.7874015748031497,
          "duration": 0.07692300000002206
        },
        {
          "name": "B1",
          "midi": 35,
          "time": 290.6535554999948,
          "velocity": 0.7874015748031497,
          "duration": 0.07692300000002206
        },
        {
          "name": "E2",
          "midi": 40,
          "time": 290.6535554999948,
          "velocity": 0.7874015748031497,
          "duration": 0.07692300000002206
        },
        {
          "name": "A#2",
          "midi": 46,
          "time": 290.7689399999948,
          "velocity": 0.7874015748031497,
          "duration": 0.07692300000002206
        },
        {
          "name": "G#2",
          "midi": 44,
          "time": 290.8843244999948,
          "velocity": 0.7874015748031497,
          "duration": 0.07692300000002206
        },
        {
          "name": "C2",
          "midi": 36,
          "time": 290.9997089999948,
          "velocity": 0.7874015748031497,
          "duration": 0.07692300000002206
        },
        {
          "name": "B1",
          "midi": 35,
          "time": 290.9997089999948,
          "velocity": 0.7874015748031497,
          "duration": 0.07692300000002206
        },
        {
          "name": "A#2",
          "midi": 46,
          "time": 290.9997089999948,
          "velocity": 0.7874015748031497,
          "duration": 0.07692300000002206
        },
        {
          "name": "D2",
          "midi": 38,
          "time": 291.23047799999483,
          "velocity": 0.7874015748031497,
          "duration": 0.07692300000002206
        },
        {
          "name": "E2",
          "midi": 40,
          "time": 291.23047799999483,
          "velocity": 0.7874015748031497,
          "duration": 0.07692300000002206
        },
        {
          "name": "A3",
          "midi": 57,
          "time": 291.23047799999483,
          "velocity": 0.7874015748031497,
          "duration": 0.07692300000002206
        },
        {
          "name": "A#2",
          "midi": 46,
          "time": 291.23047799999483,
          "velocity": 0.7874015748031497,
          "duration": 0.07692300000002206
        },
        {
          "name": "A#2",
          "midi": 46,
          "time": 291.46124699999484,
          "velocity": 0.7874015748031497,
          "duration": 0.07692300000002206
        },
        {
          "name": "C2",
          "midi": 36,
          "time": 291.57663149999485,
          "velocity": 0.7874015748031497,
          "duration": 0.07692300000002206
        },
        {
          "name": "B1",
          "midi": 35,
          "time": 291.57663149999485,
          "velocity": 0.7874015748031497,
          "duration": 0.07692300000002206
        },
        {
          "name": "C2",
          "midi": 36,
          "time": 291.69201599999485,
          "velocity": 0.7874015748031497,
          "duration": 0.07692300000002206
        },
        {
          "name": "B1",
          "midi": 35,
          "time": 291.69201599999485,
          "velocity": 0.7874015748031497,
          "duration": 0.07692300000002206
        },
        {
          "name": "A3",
          "midi": 57,
          "time": 291.69201599999485,
          "velocity": 0.7874015748031497,
          "duration": 0.07692300000002206
        },
        {
          "name": "A#2",
          "midi": 46,
          "time": 291.69201599999485,
          "velocity": 0.7874015748031497,
          "duration": 0.07692300000002206
        },
        {
          "name": "C2",
          "midi": 36,
          "time": 291.92278499999486,
          "velocity": 0.7874015748031497,
          "duration": 0.07692300000002206
        },
        {
          "name": "B1",
          "midi": 35,
          "time": 291.92278499999486,
          "velocity": 0.7874015748031497,
          "duration": 0.07692300000002206
        },
        {
          "name": "A#2",
          "midi": 46,
          "time": 291.92278499999486,
          "velocity": 0.7874015748031497,
          "duration": 0.07692300000002206
        },
        {
          "name": "D2",
          "midi": 38,
          "time": 292.15355399999487,
          "velocity": 0.7874015748031497,
          "duration": 0.07692300000002206
        },
        {
          "name": "E2",
          "midi": 40,
          "time": 292.15355399999487,
          "velocity": 0.7874015748031497,
          "duration": 0.07692300000002206
        },
        {
          "name": "A3",
          "midi": 57,
          "time": 292.15355399999487,
          "velocity": 0.7874015748031497,
          "duration": 0.07692300000002206
        },
        {
          "name": "A#2",
          "midi": 46,
          "time": 292.15355399999487,
          "velocity": 0.7874015748031497,
          "duration": 0.07692300000002206
        },
        {
          "name": "A#2",
          "midi": 46,
          "time": 292.3843229999949,
          "velocity": 0.7874015748031497,
          "duration": 0.07692300000002206
        },
        {
          "name": "C2",
          "midi": 36,
          "time": 292.4997074999949,
          "velocity": 0.7874015748031497,
          "duration": 0.07692300000002206
        },
        {
          "name": "B1",
          "midi": 35,
          "time": 292.4997074999949,
          "velocity": 0.7874015748031497,
          "duration": 0.07692300000002206
        },
        {
          "name": "E2",
          "midi": 40,
          "time": 292.4997074999949,
          "velocity": 0.7874015748031497,
          "duration": 0.07692300000002206
        },
        {
          "name": "A#2",
          "midi": 46,
          "time": 292.6150919999949,
          "velocity": 0.7874015748031497,
          "duration": 0.07692300000002206
        },
        {
          "name": "G#2",
          "midi": 44,
          "time": 292.7304764999949,
          "velocity": 0.7874015748031497,
          "duration": 0.07692300000002206
        },
        {
          "name": "C2",
          "midi": 36,
          "time": 292.8458609999949,
          "velocity": 0.7874015748031497,
          "duration": 0.07692300000002206
        },
        {
          "name": "B1",
          "midi": 35,
          "time": 292.8458609999949,
          "velocity": 0.7874015748031497,
          "duration": 0.07692300000002206
        },
        {
          "name": "A#2",
          "midi": 46,
          "time": 292.8458609999949,
          "velocity": 0.7874015748031497,
          "duration": 0.07692300000002206
        },
        {
          "name": "D2",
          "midi": 38,
          "time": 293.0766299999949,
          "velocity": 0.7874015748031497,
          "duration": 0.07692300000002206
        },
        {
          "name": "E2",
          "midi": 40,
          "time": 293.0766299999949,
          "velocity": 0.7874015748031497,
          "duration": 0.07692300000002206
        },
        {
          "name": "A3",
          "midi": 57,
          "time": 293.0766299999949,
          "velocity": 0.7874015748031497,
          "duration": 0.07692300000002206
        },
        {
          "name": "A#2",
          "midi": 46,
          "time": 293.0766299999949,
          "velocity": 0.7874015748031497,
          "duration": 0.07692300000002206
        },
        {
          "name": "A#2",
          "midi": 46,
          "time": 293.3073989999949,
          "velocity": 0.7874015748031497,
          "duration": 0.07692300000002206
        },
        {
          "name": "C2",
          "midi": 36,
          "time": 293.4227834999949,
          "velocity": 0.7874015748031497,
          "duration": 0.07692300000002206
        },
        {
          "name": "B1",
          "midi": 35,
          "time": 293.4227834999949,
          "velocity": 0.7874015748031497,
          "duration": 0.07692300000002206
        },
        {
          "name": "C2",
          "midi": 36,
          "time": 293.5381679999949,
          "velocity": 0.7874015748031497,
          "duration": 0.07692300000002206
        },
        {
          "name": "B1",
          "midi": 35,
          "time": 293.5381679999949,
          "velocity": 0.7874015748031497,
          "duration": 0.07692300000002206
        },
        {
          "name": "A3",
          "midi": 57,
          "time": 293.5381679999949,
          "velocity": 0.7874015748031497,
          "duration": 0.07692300000002206
        },
        {
          "name": "A#2",
          "midi": 46,
          "time": 293.5381679999949,
          "velocity": 0.7874015748031497,
          "duration": 0.07692300000002206
        },
        {
          "name": "C2",
          "midi": 36,
          "time": 293.76893699999493,
          "velocity": 0.7874015748031497,
          "duration": 0.07692300000002206
        },
        {
          "name": "B1",
          "midi": 35,
          "time": 293.76893699999493,
          "velocity": 0.7874015748031497,
          "duration": 0.07692300000002206
        },
        {
          "name": "A#2",
          "midi": 46,
          "time": 293.76893699999493,
          "velocity": 0.7874015748031497,
          "duration": 0.07692300000002206
        },
        {
          "name": "D2",
          "midi": 38,
          "time": 293.99970599999494,
          "velocity": 0.7874015748031497,
          "duration": 0.07692300000002206
        },
        {
          "name": "E2",
          "midi": 40,
          "time": 293.99970599999494,
          "velocity": 0.7874015748031497,
          "duration": 0.07692300000002206
        },
        {
          "name": "A3",
          "midi": 57,
          "time": 293.99970599999494,
          "velocity": 0.7874015748031497,
          "duration": 0.07692300000002206
        },
        {
          "name": "A#2",
          "midi": 46,
          "time": 293.99970599999494,
          "velocity": 0.7874015748031497,
          "duration": 0.07692300000002206
        },
        {
          "name": "A#2",
          "midi": 46,
          "time": 294.23047499999495,
          "velocity": 0.7874015748031497,
          "duration": 0.07692300000002206
        },
        {
          "name": "C2",
          "midi": 36,
          "time": 294.34585949999496,
          "velocity": 0.7874015748031497,
          "duration": 0.07692300000002206
        },
        {
          "name": "B1",
          "midi": 35,
          "time": 294.34585949999496,
          "velocity": 0.7874015748031497,
          "duration": 0.07692300000002206
        },
        {
          "name": "E2",
          "midi": 40,
          "time": 294.34585949999496,
          "velocity": 0.7874015748031497,
          "duration": 0.07692300000002206
        },
        {
          "name": "A#2",
          "midi": 46,
          "time": 294.46124399999496,
          "velocity": 0.7874015748031497,
          "duration": 0.07692300000002206
        },
        {
          "name": "G#2",
          "midi": 44,
          "time": 294.57662849999497,
          "velocity": 0.7874015748031497,
          "duration": 0.07692300000002206
        },
        {
          "name": "C2",
          "midi": 36,
          "time": 294.692012999995,
          "velocity": 0.7874015748031497,
          "duration": 0.07692300000002206
        },
        {
          "name": "B1",
          "midi": 35,
          "time": 294.692012999995,
          "velocity": 0.7874015748031497,
          "duration": 0.07692300000002206
        },
        {
          "name": "A#2",
          "midi": 46,
          "time": 294.692012999995,
          "velocity": 0.7874015748031497,
          "duration": 0.07692300000002206
        },
        {
          "name": "D2",
          "midi": 38,
          "time": 294.922781999995,
          "velocity": 0.7874015748031497,
          "duration": 0.07692300000002206
        },
        {
          "name": "E2",
          "midi": 40,
          "time": 294.922781999995,
          "velocity": 0.7874015748031497,
          "duration": 0.07692300000002206
        },
        {
          "name": "A3",
          "midi": 57,
          "time": 294.922781999995,
          "velocity": 0.7874015748031497,
          "duration": 0.07692300000002206
        },
        {
          "name": "A#2",
          "midi": 46,
          "time": 294.922781999995,
          "velocity": 0.7874015748031497,
          "duration": 0.07692300000002206
        },
        {
          "name": "A#2",
          "midi": 46,
          "time": 295.153550999995,
          "velocity": 0.7874015748031497,
          "duration": 0.07692300000002206
        },
        {
          "name": "A3",
          "midi": 57,
          "time": 295.153550999995,
          "velocity": 0.7874015748031497,
          "duration": 0.07692300000002206
        },
        {
          "name": "C2",
          "midi": 36,
          "time": 295.268935499995,
          "velocity": 0.7874015748031497,
          "duration": 0.07692300000002206
        },
        {
          "name": "B1",
          "midi": 35,
          "time": 295.268935499995,
          "velocity": 0.7874015748031497,
          "duration": 0.07692300000002206
        },
        {
          "name": "C2",
          "midi": 36,
          "time": 295.384319999995,
          "velocity": 0.7874015748031497,
          "duration": 0.07692300000002206
        },
        {
          "name": "B1",
          "midi": 35,
          "time": 295.384319999995,
          "velocity": 0.7874015748031497,
          "duration": 0.07692300000002206
        },
        {
          "name": "A3",
          "midi": 57,
          "time": 295.384319999995,
          "velocity": 0.7874015748031497,
          "duration": 0.07692300000002206
        },
        {
          "name": "A#2",
          "midi": 46,
          "time": 295.384319999995,
          "velocity": 0.7874015748031497,
          "duration": 0.07692300000002206
        },
        {
          "name": "C2",
          "midi": 36,
          "time": 295.615088999995,
          "velocity": 0.7874015748031497,
          "duration": 0.07692300000002206
        },
        {
          "name": "B1",
          "midi": 35,
          "time": 295.615088999995,
          "velocity": 0.7874015748031497,
          "duration": 0.07692300000002206
        },
        {
          "name": "A#2",
          "midi": 46,
          "time": 295.615088999995,
          "velocity": 0.7874015748031497,
          "duration": 0.07692300000002206
        },
        {
          "name": "D2",
          "midi": 38,
          "time": 295.845857999995,
          "velocity": 0.7874015748031497,
          "duration": 0.07692300000002206
        },
        {
          "name": "E2",
          "midi": 40,
          "time": 295.845857999995,
          "velocity": 0.7874015748031497,
          "duration": 0.07692300000002206
        },
        {
          "name": "A3",
          "midi": 57,
          "time": 295.845857999995,
          "velocity": 0.7874015748031497,
          "duration": 0.07692300000002206
        },
        {
          "name": "A#2",
          "midi": 46,
          "time": 295.845857999995,
          "velocity": 0.7874015748031497,
          "duration": 0.07692300000002206
        },
        {
          "name": "A#2",
          "midi": 46,
          "time": 296.076626999995,
          "velocity": 0.7874015748031497,
          "duration": 0.07692300000002206
        },
        {
          "name": "C2",
          "midi": 36,
          "time": 296.19201149999503,
          "velocity": 0.7874015748031497,
          "duration": 0.07692300000002206
        },
        {
          "name": "B1",
          "midi": 35,
          "time": 296.19201149999503,
          "velocity": 0.7874015748031497,
          "duration": 0.07692300000002206
        },
        {
          "name": "E2",
          "midi": 40,
          "time": 296.19201149999503,
          "velocity": 0.7874015748031497,
          "duration": 0.07692300000002206
        },
        {
          "name": "A#2",
          "midi": 46,
          "time": 296.30739599999504,
          "velocity": 0.7874015748031497,
          "duration": 0.07692300000002206
        },
        {
          "name": "G#2",
          "midi": 44,
          "time": 296.42278049999504,
          "velocity": 0.7874015748031497,
          "duration": 0.07692300000002206
        },
        {
          "name": "C2",
          "midi": 36,
          "time": 296.53816499999505,
          "velocity": 0.7874015748031497,
          "duration": 0.07692300000002206
        },
        {
          "name": "B1",
          "midi": 35,
          "time": 296.53816499999505,
          "velocity": 0.7874015748031497,
          "duration": 0.07692300000002206
        },
        {
          "name": "A#2",
          "midi": 46,
          "time": 296.53816499999505,
          "velocity": 0.7874015748031497,
          "duration": 0.07692300000002206
        },
        {
          "name": "D2",
          "midi": 38,
          "time": 296.76893399999506,
          "velocity": 0.7874015748031497,
          "duration": 0.07692300000002206
        },
        {
          "name": "E2",
          "midi": 40,
          "time": 296.76893399999506,
          "velocity": 0.7874015748031497,
          "duration": 0.07692300000002206
        },
        {
          "name": "A3",
          "midi": 57,
          "time": 296.76893399999506,
          "velocity": 0.7874015748031497,
          "duration": 0.07692300000002206
        },
        {
          "name": "A#2",
          "midi": 46,
          "time": 296.76893399999506,
          "velocity": 0.7874015748031497,
          "duration": 0.07692300000002206
        },
        {
          "name": "A#2",
          "midi": 46,
          "time": 296.99970299999507,
          "velocity": 0.7874015748031497,
          "duration": 0.07692300000002206
        },
        {
          "name": "C2",
          "midi": 36,
          "time": 297.11508749999507,
          "velocity": 0.7874015748031497,
          "duration": 0.07692300000002206
        },
        {
          "name": "B1",
          "midi": 35,
          "time": 297.11508749999507,
          "velocity": 0.7874015748031497,
          "duration": 0.07692300000002206
        },
        {
          "name": "C2",
          "midi": 36,
          "time": 297.2304719999951,
          "velocity": 0.7874015748031497,
          "duration": 0.07692300000002206
        },
        {
          "name": "B1",
          "midi": 35,
          "time": 297.2304719999951,
          "velocity": 0.7874015748031497,
          "duration": 0.07692300000002206
        },
        {
          "name": "A3",
          "midi": 57,
          "time": 297.2304719999951,
          "velocity": 0.7874015748031497,
          "duration": 0.07692300000002206
        },
        {
          "name": "A#2",
          "midi": 46,
          "time": 297.2304719999951,
          "velocity": 0.7874015748031497,
          "duration": 0.07692300000002206
        },
        {
          "name": "C2",
          "midi": 36,
          "time": 297.4612409999951,
          "velocity": 0.7874015748031497,
          "duration": 0.07692300000002206
        },
        {
          "name": "B1",
          "midi": 35,
          "time": 297.4612409999951,
          "velocity": 0.7874015748031497,
          "duration": 0.07692300000002206
        },
        {
          "name": "A#2",
          "midi": 46,
          "time": 297.4612409999951,
          "velocity": 0.7874015748031497,
          "duration": 0.07692300000002206
        },
        {
          "name": "D2",
          "midi": 38,
          "time": 297.6920099999951,
          "velocity": 0.7874015748031497,
          "duration": 0.07692300000002206
        },
        {
          "name": "E2",
          "midi": 40,
          "time": 297.6920099999951,
          "velocity": 0.7874015748031497,
          "duration": 0.07692300000002206
        },
        {
          "name": "A3",
          "midi": 57,
          "time": 297.6920099999951,
          "velocity": 0.7874015748031497,
          "duration": 0.07692300000002206
        },
        {
          "name": "A#2",
          "midi": 46,
          "time": 297.6920099999951,
          "velocity": 0.7874015748031497,
          "duration": 0.07692300000002206
        },
        {
          "name": "A#2",
          "midi": 46,
          "time": 297.9227789999951,
          "velocity": 0.7874015748031497,
          "duration": 0.07692300000002206
        },
        {
          "name": "C2",
          "midi": 36,
          "time": 298.0381634999951,
          "velocity": 0.7874015748031497,
          "duration": 0.07692300000002206
        },
        {
          "name": "B1",
          "midi": 35,
          "time": 298.0381634999951,
          "velocity": 0.7874015748031497,
          "duration": 0.07692300000002206
        },
        {
          "name": "E2",
          "midi": 40,
          "time": 298.0381634999951,
          "velocity": 0.7874015748031497,
          "duration": 0.07692300000002206
        },
        {
          "name": "A#2",
          "midi": 46,
          "time": 298.1535479999951,
          "velocity": 0.7874015748031497,
          "duration": 0.07692300000002206
        },
        {
          "name": "G#2",
          "midi": 44,
          "time": 298.2689324999951,
          "velocity": 0.7874015748031497,
          "duration": 0.07692300000002206
        },
        {
          "name": "C2",
          "midi": 36,
          "time": 298.3843169999951,
          "velocity": 0.7874015748031497,
          "duration": 0.07692300000002206
        },
        {
          "name": "B1",
          "midi": 35,
          "time": 298.3843169999951,
          "velocity": 0.7874015748031497,
          "duration": 0.07692300000002206
        },
        {
          "name": "A#2",
          "midi": 46,
          "time": 298.3843169999951,
          "velocity": 0.7874015748031497,
          "duration": 0.07692300000002206
        },
        {
          "name": "D2",
          "midi": 38,
          "time": 298.61508599999513,
          "velocity": 0.7874015748031497,
          "duration": 0.07692300000002206
        },
        {
          "name": "E2",
          "midi": 40,
          "time": 298.61508599999513,
          "velocity": 0.7874015748031497,
          "duration": 0.07692300000002206
        },
        {
          "name": "A3",
          "midi": 57,
          "time": 298.61508599999513,
          "velocity": 0.7874015748031497,
          "duration": 0.07692300000002206
        },
        {
          "name": "A#2",
          "midi": 46,
          "time": 298.61508599999513,
          "velocity": 0.7874015748031497,
          "duration": 0.07692300000002206
        },
        {
          "name": "A#2",
          "midi": 46,
          "time": 298.84585499999514,
          "velocity": 0.7874015748031497,
          "duration": 0.07692300000002206
        },
        {
          "name": "C2",
          "midi": 36,
          "time": 298.96123949999514,
          "velocity": 0.7874015748031497,
          "duration": 0.07692300000002206
        },
        {
          "name": "B1",
          "midi": 35,
          "time": 298.96123949999514,
          "velocity": 0.7874015748031497,
          "duration": 0.07692300000002206
        },
        {
          "name": "C2",
          "midi": 36,
          "time": 299.07662399999515,
          "velocity": 0.7874015748031497,
          "duration": 0.07692300000002206
        },
        {
          "name": "B1",
          "midi": 35,
          "time": 299.07662399999515,
          "velocity": 0.7874015748031497,
          "duration": 0.07692300000002206
        },
        {
          "name": "A3",
          "midi": 57,
          "time": 299.07662399999515,
          "velocity": 0.7874015748031497,
          "duration": 0.07692300000002206
        },
        {
          "name": "A#2",
          "midi": 46,
          "time": 299.07662399999515,
          "velocity": 0.7874015748031497,
          "duration": 0.07692300000002206
        },
        {
          "name": "C2",
          "midi": 36,
          "time": 299.30739299999516,
          "velocity": 0.7874015748031497,
          "duration": 0.07692300000002206
        },
        {
          "name": "B1",
          "midi": 35,
          "time": 299.30739299999516,
          "velocity": 0.7874015748031497,
          "duration": 0.07692300000002206
        },
        {
          "name": "A#2",
          "midi": 46,
          "time": 299.30739299999516,
          "velocity": 0.7874015748031497,
          "duration": 0.07692300000002206
        },
        {
          "name": "D2",
          "midi": 38,
          "time": 299.53816199999517,
          "velocity": 0.7874015748031497,
          "duration": 0.07692300000002206
        },
        {
          "name": "E2",
          "midi": 40,
          "time": 299.53816199999517,
          "velocity": 0.7874015748031497,
          "duration": 0.07692300000002206
        },
        {
          "name": "A3",
          "midi": 57,
          "time": 299.53816199999517,
          "velocity": 0.7874015748031497,
          "duration": 0.07692300000002206
        },
        {
          "name": "A#2",
          "midi": 46,
          "time": 299.53816199999517,
          "velocity": 0.7874015748031497,
          "duration": 0.07692300000002206
        },
        {
          "name": "A#2",
          "midi": 46,
          "time": 299.7689309999952,
          "velocity": 0.7874015748031497,
          "duration": 0.07692300000002206
        },
        {
          "name": "C2",
          "midi": 36,
          "time": 299.8843154999952,
          "velocity": 0.7874015748031497,
          "duration": 0.07692300000002206
        },
        {
          "name": "B1",
          "midi": 35,
          "time": 299.8843154999952,
          "velocity": 0.7874015748031497,
          "duration": 0.07692300000002206
        },
        {
          "name": "E2",
          "midi": 40,
          "time": 299.8843154999952,
          "velocity": 0.7874015748031497,
          "duration": 0.07692300000002206
        },
        {
          "name": "A#2",
          "midi": 46,
          "time": 299.9996999999952,
          "velocity": 0.7874015748031497,
          "duration": 0.07692300000002206
        },
        {
          "name": "G#2",
          "midi": 44,
          "time": 300.1150844999952,
          "velocity": 0.7874015748031497,
          "duration": 0.07692300000002206
        },
        {
          "name": "C2",
          "midi": 36,
          "time": 300.2304689999952,
          "velocity": 0.7874015748031497,
          "duration": 0.07692300000002206
        },
        {
          "name": "B1",
          "midi": 35,
          "time": 300.2304689999952,
          "velocity": 0.7874015748031497,
          "duration": 0.07692300000002206
        },
        {
          "name": "A#2",
          "midi": 46,
          "time": 300.2304689999952,
          "velocity": 0.7874015748031497,
          "duration": 0.07692300000002206
        },
        {
          "name": "D2",
          "midi": 38,
          "time": 300.4612379999952,
          "velocity": 0.7874015748031497,
          "duration": 0.07692300000002206
        },
        {
          "name": "E2",
          "midi": 40,
          "time": 300.4612379999952,
          "velocity": 0.7874015748031497,
          "duration": 0.07692300000002206
        },
        {
          "name": "A3",
          "midi": 57,
          "time": 300.4612379999952,
          "velocity": 0.7874015748031497,
          "duration": 0.07692300000002206
        },
        {
          "name": "A#2",
          "midi": 46,
          "time": 300.4612379999952,
          "velocity": 0.7874015748031497,
          "duration": 0.07692300000002206
        },
        {
          "name": "A#2",
          "midi": 46,
          "time": 300.6920069999952,
          "velocity": 0.7874015748031497,
          "duration": 0.07692300000002206
        },
        {
          "name": "C2",
          "midi": 36,
          "time": 300.8073914999952,
          "velocity": 0.7874015748031497,
          "duration": 0.07692300000002206
        },
        {
          "name": "B1",
          "midi": 35,
          "time": 300.8073914999952,
          "velocity": 0.7874015748031497,
          "duration": 0.07692300000002206
        },
        {
          "name": "C2",
          "midi": 36,
          "time": 300.9227759999952,
          "velocity": 0.7874015748031497,
          "duration": 0.07692300000002206
        },
        {
          "name": "B1",
          "midi": 35,
          "time": 300.9227759999952,
          "velocity": 0.7874015748031497,
          "duration": 0.07692300000002206
        },
        {
          "name": "A3",
          "midi": 57,
          "time": 300.9227759999952,
          "velocity": 0.7874015748031497,
          "duration": 0.07692300000002206
        },
        {
          "name": "A#2",
          "midi": 46,
          "time": 300.9227759999952,
          "velocity": 0.7874015748031497,
          "duration": 0.07692300000002206
        },
        {
          "name": "C2",
          "midi": 36,
          "time": 301.15354499999523,
          "velocity": 0.7874015748031497,
          "duration": 0.07692300000002206
        },
        {
          "name": "B1",
          "midi": 35,
          "time": 301.15354499999523,
          "velocity": 0.7874015748031497,
          "duration": 0.07692300000002206
        },
        {
          "name": "A#2",
          "midi": 46,
          "time": 301.15354499999523,
          "velocity": 0.7874015748031497,
          "duration": 0.07692300000002206
        },
        {
          "name": "D2",
          "midi": 38,
          "time": 301.38431399999524,
          "velocity": 0.7874015748031497,
          "duration": 0.07692300000002206
        },
        {
          "name": "E2",
          "midi": 40,
          "time": 301.38431399999524,
          "velocity": 0.7874015748031497,
          "duration": 0.07692300000002206
        },
        {
          "name": "A3",
          "midi": 57,
          "time": 301.38431399999524,
          "velocity": 0.7874015748031497,
          "duration": 0.07692300000002206
        },
        {
          "name": "A#2",
          "midi": 46,
          "time": 301.38431399999524,
          "velocity": 0.7874015748031497,
          "duration": 0.07692300000002206
        },
        {
          "name": "A#2",
          "midi": 46,
          "time": 301.61508299999525,
          "velocity": 0.7874015748031497,
          "duration": 0.07692300000002206
        },
        {
          "name": "A#2",
          "midi": 46,
          "time": 301.84585199999526,
          "velocity": 0.7874015748031497,
          "duration": 0.07692299999996521
        },
        {
          "name": "E2",
          "midi": 40,
          "time": 301.84585199999526,
          "velocity": 0.7874015748031497,
          "duration": 0.03846149999998261
        },
        {
          "name": "D2",
          "midi": 38,
          "time": 301.84585199999526,
          "velocity": 0.7874015748031497,
          "duration": 0.03846149999998261
        },
        {
          "name": "C2",
          "midi": 36,
          "time": 301.84585199999526,
          "velocity": 0.7874015748031497,
          "duration": 0.07692299999996521
        },
        {
          "name": "E2",
          "midi": 40,
          "time": 301.9612364999952,
          "velocity": 0.7874015748031497,
          "duration": 0.03846149999998261
        },
        {
          "name": "D2",
          "midi": 38,
          "time": 301.9612364999952,
          "velocity": 0.7874015748031497,
          "duration": 0.03846149999998261
        },
        {
          "name": "C2",
          "midi": 36,
          "time": 301.9612364999952,
          "velocity": 0.7874015748031497,
          "duration": 0.07692299999996521
        },
        {
          "name": "G#2",
          "midi": 44,
          "time": 301.9612364999952,
          "velocity": 0.7874015748031497,
          "duration": 0.07692299999996521
        },
        {
          "name": "A#2",
          "midi": 46,
          "time": 302.07662099999516,
          "velocity": 0.7874015748031497,
          "duration": 0.07692300000002206
        },
        {
          "name": "E2",
          "midi": 40,
          "time": 302.19200549999516,
          "velocity": 0.7874015748031497,
          "duration": 0.03846149999998261
        },
        {
          "name": "E2",
          "midi": 40,
          "time": 302.24969774999516,
          "velocity": 0.7874015748031497,
          "duration": 0.03846149999998261
        },
        {
          "name": "A#2",
          "midi": 46,
          "time": 302.30738999999517,
          "velocity": 0.7874015748031497,
          "duration": 0.07692300000002206
        },
        {
          "name": "D2",
          "midi": 38,
          "time": 302.30738999999517,
          "velocity": 0.7874015748031497,
          "duration": 0.07692300000002206
        },
        {
          "name": "E2",
          "midi": 40,
          "time": 302.30738999999517,
          "velocity": 0.7874015748031497,
          "duration": 0.07692300000002206
        },
        {
          "name": "C2",
          "midi": 36,
          "time": 302.30738999999517,
          "velocity": 0.7874015748031497,
          "duration": 0.07692300000002206
        },
        {
          "name": "E2",
          "midi": 40,
          "time": 302.42277449999517,
          "velocity": 0.7874015748031497,
          "duration": 0.03846149999998261
        },
        {
          "name": "D2",
          "midi": 38,
          "time": 302.42277449999517,
          "velocity": 0.7874015748031497,
          "duration": 0.03846149999998261
        },
        {
          "name": "C2",
          "midi": 36,
          "time": 302.42277449999517,
          "velocity": 0.7874015748031497,
          "duration": 0.07692299999996521
        },
        {
          "name": "A#2",
          "midi": 46,
          "time": 302.5381589999951,
          "velocity": 0.7874015748031497,
          "duration": 0.07692300000002206
        },
        {
          "name": "E2",
          "midi": 40,
          "time": 302.6535434999951,
          "velocity": 0.7874015748031497,
          "duration": 0.03846149999998261
        },
        {
          "name": "D2",
          "midi": 38,
          "time": 302.6535434999951,
          "velocity": 0.7874015748031497,
          "duration": 0.03846149999998261
        },
        {
          "name": "C2",
          "midi": 36,
          "time": 302.6535434999951,
          "velocity": 0.7874015748031497,
          "duration": 0.07692299999996521
        },
        {
          "name": "C2",
          "midi": 36,
          "time": 302.76892799999507,
          "velocity": 0.7874015748031497,
          "duration": 0.07692300000002206
        },
        {
          "name": "B1",
          "midi": 35,
          "time": 302.76892799999507,
          "velocity": 0.7874015748031497,
          "duration": 0.07692300000002206
        },
        {
          "name": "A3",
          "midi": 57,
          "time": 302.76892799999507,
          "velocity": 0.7874015748031497,
          "duration": 0.07692300000002206
        },
        {
          "name": "A#2",
          "midi": 46,
          "time": 302.76892799999507,
          "velocity": 0.7874015748031497,
          "duration": 0.07692300000002206
        },
        {
          "name": "C2",
          "midi": 36,
          "time": 302.9996969999951,
          "velocity": 0.7874015748031497,
          "duration": 0.07692300000002206
        },
        {
          "name": "B1",
          "midi": 35,
          "time": 302.9996969999951,
          "velocity": 0.7874015748031497,
          "duration": 0.07692300000002206
        },
        {
          "name": "A#2",
          "midi": 46,
          "time": 302.9996969999951,
          "velocity": 0.7874015748031497,
          "duration": 0.07692300000002206
        },
        {
          "name": "D2",
          "midi": 38,
          "time": 303.2304659999951,
          "velocity": 0.7874015748031497,
          "duration": 0.07692300000002206
        },
        {
          "name": "E2",
          "midi": 40,
          "time": 303.2304659999951,
          "velocity": 0.7874015748031497,
          "duration": 0.07692300000002206
        },
        {
          "name": "A3",
          "midi": 57,
          "time": 303.2304659999951,
          "velocity": 0.7874015748031497,
          "duration": 0.07692300000002206
        },
        {
          "name": "A#2",
          "midi": 46,
          "time": 303.2304659999951,
          "velocity": 0.7874015748031497,
          "duration": 0.07692300000002206
        },
        {
          "name": "A#2",
          "midi": 46,
          "time": 303.4612349999951,
          "velocity": 0.7874015748031497,
          "duration": 0.07692300000002206
        },
        {
          "name": "C2",
          "midi": 36,
          "time": 303.5766194999951,
          "velocity": 0.7874015748031497,
          "duration": 0.07692300000002206
        },
        {
          "name": "B1",
          "midi": 35,
          "time": 303.5766194999951,
          "velocity": 0.7874015748031497,
          "duration": 0.07692300000002206
        },
        {
          "name": "E2",
          "midi": 40,
          "time": 303.5766194999951,
          "velocity": 0.7874015748031497,
          "duration": 0.07692300000002206
        },
        {
          "name": "A#2",
          "midi": 46,
          "time": 303.6920039999951,
          "velocity": 0.7874015748031497,
          "duration": 0.07692300000002206
        },
        {
          "name": "G#2",
          "midi": 44,
          "time": 303.8073884999951,
          "velocity": 0.7874015748031497,
          "duration": 0.07692300000002206
        },
        {
          "name": "C2",
          "midi": 36,
          "time": 303.9227729999951,
          "velocity": 0.7874015748031497,
          "duration": 0.07692300000002206
        },
        {
          "name": "B1",
          "midi": 35,
          "time": 303.9227729999951,
          "velocity": 0.7874015748031497,
          "duration": 0.07692300000002206
        },
        {
          "name": "A#2",
          "midi": 46,
          "time": 303.9227729999951,
          "velocity": 0.7874015748031497,
          "duration": 0.07692300000002206
        },
        {
          "name": "D2",
          "midi": 38,
          "time": 304.1535419999951,
          "velocity": 0.7874015748031497,
          "duration": 0.07692300000002206
        },
        {
          "name": "E2",
          "midi": 40,
          "time": 304.1535419999951,
          "velocity": 0.7874015748031497,
          "duration": 0.07692300000002206
        },
        {
          "name": "A3",
          "midi": 57,
          "time": 304.1535419999951,
          "velocity": 0.7874015748031497,
          "duration": 0.07692300000002206
        },
        {
          "name": "A#2",
          "midi": 46,
          "time": 304.1535419999951,
          "velocity": 0.7874015748031497,
          "duration": 0.07692300000002206
        },
        {
          "name": "A#2",
          "midi": 46,
          "time": 304.38431099999514,
          "velocity": 0.7874015748031497,
          "duration": 0.07692300000002206
        },
        {
          "name": "C2",
          "midi": 36,
          "time": 304.49969549999514,
          "velocity": 0.7874015748031497,
          "duration": 0.07692300000002206
        },
        {
          "name": "B1",
          "midi": 35,
          "time": 304.49969549999514,
          "velocity": 0.7874015748031497,
          "duration": 0.07692300000002206
        },
        {
          "name": "C2",
          "midi": 36,
          "time": 304.61507999999515,
          "velocity": 0.7874015748031497,
          "duration": 0.07692300000002206
        },
        {
          "name": "B1",
          "midi": 35,
          "time": 304.61507999999515,
          "velocity": 0.7874015748031497,
          "duration": 0.07692300000002206
        },
        {
          "name": "A3",
          "midi": 57,
          "time": 304.61507999999515,
          "velocity": 0.7874015748031497,
          "duration": 0.07692300000002206
        },
        {
          "name": "A#2",
          "midi": 46,
          "time": 304.61507999999515,
          "velocity": 0.7874015748031497,
          "duration": 0.07692300000002206
        },
        {
          "name": "C2",
          "midi": 36,
          "time": 304.84584899999516,
          "velocity": 0.7874015748031497,
          "duration": 0.07692300000002206
        },
        {
          "name": "B1",
          "midi": 35,
          "time": 304.84584899999516,
          "velocity": 0.7874015748031497,
          "duration": 0.07692300000002206
        },
        {
          "name": "A#2",
          "midi": 46,
          "time": 304.84584899999516,
          "velocity": 0.7874015748031497,
          "duration": 0.07692300000002206
        },
        {
          "name": "D2",
          "midi": 38,
          "time": 305.07661799999516,
          "velocity": 0.7874015748031497,
          "duration": 0.07692300000002206
        },
        {
          "name": "E2",
          "midi": 40,
          "time": 305.07661799999516,
          "velocity": 0.7874015748031497,
          "duration": 0.07692300000002206
        },
        {
          "name": "A3",
          "midi": 57,
          "time": 305.07661799999516,
          "velocity": 0.7874015748031497,
          "duration": 0.07692300000002206
        },
        {
          "name": "A#2",
          "midi": 46,
          "time": 305.07661799999516,
          "velocity": 0.7874015748031497,
          "duration": 0.07692300000002206
        },
        {
          "name": "A#2",
          "midi": 46,
          "time": 305.3073869999952,
          "velocity": 0.7874015748031497,
          "duration": 0.07692300000002206
        },
        {
          "name": "C2",
          "midi": 36,
          "time": 305.4227714999952,
          "velocity": 0.7874015748031497,
          "duration": 0.07692300000002206
        },
        {
          "name": "B1",
          "midi": 35,
          "time": 305.4227714999952,
          "velocity": 0.7874015748031497,
          "duration": 0.07692300000002206
        },
        {
          "name": "E2",
          "midi": 40,
          "time": 305.4227714999952,
          "velocity": 0.7874015748031497,
          "duration": 0.07692300000002206
        },
        {
          "name": "A#2",
          "midi": 46,
          "time": 305.5381559999952,
          "velocity": 0.7874015748031497,
          "duration": 0.07692300000002206
        },
        {
          "name": "G#2",
          "midi": 44,
          "time": 305.6535404999952,
          "velocity": 0.7874015748031497,
          "duration": 0.07692300000002206
        },
        {
          "name": "C2",
          "midi": 36,
          "time": 305.7689249999952,
          "velocity": 0.7874015748031497,
          "duration": 0.07692300000002206
        },
        {
          "name": "B1",
          "midi": 35,
          "time": 305.7689249999952,
          "velocity": 0.7874015748031497,
          "duration": 0.07692300000002206
        },
        {
          "name": "A#2",
          "midi": 46,
          "time": 305.7689249999952,
          "velocity": 0.7874015748031497,
          "duration": 0.07692300000002206
        },
        {
          "name": "D2",
          "midi": 38,
          "time": 305.9996939999952,
          "velocity": 0.7874015748031497,
          "duration": 0.07692300000002206
        },
        {
          "name": "E2",
          "midi": 40,
          "time": 305.9996939999952,
          "velocity": 0.7874015748031497,
          "duration": 0.07692300000002206
        },
        {
          "name": "A3",
          "midi": 57,
          "time": 305.9996939999952,
          "velocity": 0.7874015748031497,
          "duration": 0.07692300000002206
        },
        {
          "name": "A#2",
          "midi": 46,
          "time": 305.9996939999952,
          "velocity": 0.7874015748031497,
          "duration": 0.07692300000002206
        },
        {
          "name": "A#2",
          "midi": 46,
          "time": 306.2304629999952,
          "velocity": 0.7874015748031497,
          "duration": 0.07692300000002206
        },
        {
          "name": "C2",
          "midi": 36,
          "time": 306.3458474999952,
          "velocity": 0.7874015748031497,
          "duration": 0.07692300000002206
        },
        {
          "name": "B1",
          "midi": 35,
          "time": 306.3458474999952,
          "velocity": 0.7874015748031497,
          "duration": 0.07692300000002206
        },
        {
          "name": "C2",
          "midi": 36,
          "time": 306.4612319999952,
          "velocity": 0.7874015748031497,
          "duration": 0.07692300000002206
        },
        {
          "name": "B1",
          "midi": 35,
          "time": 306.4612319999952,
          "velocity": 0.7874015748031497,
          "duration": 0.07692300000002206
        },
        {
          "name": "A3",
          "midi": 57,
          "time": 306.4612319999952,
          "velocity": 0.7874015748031497,
          "duration": 0.07692300000002206
        },
        {
          "name": "A#2",
          "midi": 46,
          "time": 306.4612319999952,
          "velocity": 0.7874015748031497,
          "duration": 0.07692300000002206
        },
        {
          "name": "C2",
          "midi": 36,
          "time": 306.69200099999523,
          "velocity": 0.7874015748031497,
          "duration": 0.07692300000002206
        },
        {
          "name": "B1",
          "midi": 35,
          "time": 306.69200099999523,
          "velocity": 0.7874015748031497,
          "duration": 0.07692300000002206
        },
        {
          "name": "A#2",
          "midi": 46,
          "time": 306.69200099999523,
          "velocity": 0.7874015748031497,
          "duration": 0.07692300000002206
        },
        {
          "name": "D2",
          "midi": 38,
          "time": 306.92276999999524,
          "velocity": 0.7874015748031497,
          "duration": 0.07692300000002206
        },
        {
          "name": "E2",
          "midi": 40,
          "time": 306.92276999999524,
          "velocity": 0.7874015748031497,
          "duration": 0.07692300000002206
        },
        {
          "name": "A3",
          "midi": 57,
          "time": 306.92276999999524,
          "velocity": 0.7874015748031497,
          "duration": 0.07692300000002206
        },
        {
          "name": "A#2",
          "midi": 46,
          "time": 306.92276999999524,
          "velocity": 0.7874015748031497,
          "duration": 0.07692300000002206
        },
        {
          "name": "A#2",
          "midi": 46,
          "time": 307.15353899999525,
          "velocity": 0.7874015748031497,
          "duration": 0.07692300000002206
        },
        {
          "name": "C2",
          "midi": 36,
          "time": 307.26892349999525,
          "velocity": 0.7874015748031497,
          "duration": 0.07692300000002206
        },
        {
          "name": "B1",
          "midi": 35,
          "time": 307.26892349999525,
          "velocity": 0.7874015748031497,
          "duration": 0.07692300000002206
        },
        {
          "name": "E2",
          "midi": 40,
          "time": 307.26892349999525,
          "velocity": 0.7874015748031497,
          "duration": 0.07692300000002206
        },
        {
          "name": "A#2",
          "midi": 46,
          "time": 307.38430799999526,
          "velocity": 0.7874015748031497,
          "duration": 0.07692300000002206
        },
        {
          "name": "G#2",
          "midi": 44,
          "time": 307.49969249999526,
          "velocity": 0.7874015748031497,
          "duration": 0.07692300000002206
        },
        {
          "name": "C2",
          "midi": 36,
          "time": 307.61507699999527,
          "velocity": 0.7874015748031497,
          "duration": 0.07692300000002206
        },
        {
          "name": "B1",
          "midi": 35,
          "time": 307.61507699999527,
          "velocity": 0.7874015748031497,
          "duration": 0.07692300000002206
        },
        {
          "name": "A#2",
          "midi": 46,
          "time": 307.61507699999527,
          "velocity": 0.7874015748031497,
          "duration": 0.07692300000002206
        },
        {
          "name": "D2",
          "midi": 38,
          "time": 307.8458459999953,
          "velocity": 0.7874015748031497,
          "duration": 0.07692300000002206
        },
        {
          "name": "E2",
          "midi": 40,
          "time": 307.8458459999953,
          "velocity": 0.7874015748031497,
          "duration": 0.07692300000002206
        },
        {
          "name": "A3",
          "midi": 57,
          "time": 307.8458459999953,
          "velocity": 0.7874015748031497,
          "duration": 0.07692300000002206
        },
        {
          "name": "A#2",
          "midi": 46,
          "time": 307.8458459999953,
          "velocity": 0.7874015748031497,
          "duration": 0.07692300000002206
        },
        {
          "name": "A#2",
          "midi": 46,
          "time": 308.0766149999953,
          "velocity": 0.7874015748031497,
          "duration": 0.07692300000002206
        },
        {
          "name": "C2",
          "midi": 36,
          "time": 308.1919994999953,
          "velocity": 0.7874015748031497,
          "duration": 0.07692300000002206
        },
        {
          "name": "B1",
          "midi": 35,
          "time": 308.1919994999953,
          "velocity": 0.7874015748031497,
          "duration": 0.07692300000002206
        },
        {
          "name": "C2",
          "midi": 36,
          "time": 308.3073839999953,
          "velocity": 0.7874015748031497,
          "duration": 0.07692300000002206
        },
        {
          "name": "B1",
          "midi": 35,
          "time": 308.3073839999953,
          "velocity": 0.7874015748031497,
          "duration": 0.07692300000002206
        },
        {
          "name": "A3",
          "midi": 57,
          "time": 308.3073839999953,
          "velocity": 0.7874015748031497,
          "duration": 0.07692300000002206
        },
        {
          "name": "A#2",
          "midi": 46,
          "time": 308.3073839999953,
          "velocity": 0.7874015748031497,
          "duration": 0.07692300000002206
        },
        {
          "name": "C2",
          "midi": 36,
          "time": 308.5381529999953,
          "velocity": 0.7874015748031497,
          "duration": 0.07692300000002206
        },
        {
          "name": "B1",
          "midi": 35,
          "time": 308.5381529999953,
          "velocity": 0.7874015748031497,
          "duration": 0.07692300000002206
        },
        {
          "name": "A#2",
          "midi": 46,
          "time": 308.5381529999953,
          "velocity": 0.7874015748031497,
          "duration": 0.07692300000002206
        },
        {
          "name": "D2",
          "midi": 38,
          "time": 308.7689219999953,
          "velocity": 0.7874015748031497,
          "duration": 0.07692300000002206
        },
        {
          "name": "E2",
          "midi": 40,
          "time": 308.7689219999953,
          "velocity": 0.7874015748031497,
          "duration": 0.07692300000002206
        },
        {
          "name": "A3",
          "midi": 57,
          "time": 308.7689219999953,
          "velocity": 0.7874015748031497,
          "duration": 0.07692300000002206
        },
        {
          "name": "A#2",
          "midi": 46,
          "time": 308.7689219999953,
          "velocity": 0.7874015748031497,
          "duration": 0.07692300000002206
        },
        {
          "name": "A#2",
          "midi": 46,
          "time": 308.9996909999953,
          "velocity": 0.7874015748031497,
          "duration": 0.07692300000002206
        },
        {
          "name": "C2",
          "midi": 36,
          "time": 309.1150754999953,
          "velocity": 0.7874015748031497,
          "duration": 0.07692300000002206
        },
        {
          "name": "B1",
          "midi": 35,
          "time": 309.1150754999953,
          "velocity": 0.7874015748031497,
          "duration": 0.07692300000002206
        },
        {
          "name": "E2",
          "midi": 40,
          "time": 309.1150754999953,
          "velocity": 0.7874015748031497,
          "duration": 0.07692300000002206
        },
        {
          "name": "A#2",
          "midi": 46,
          "time": 309.23045999999533,
          "velocity": 0.7874015748031497,
          "duration": 0.07692300000002206
        },
        {
          "name": "G#2",
          "midi": 44,
          "time": 309.34584449999534,
          "velocity": 0.7874015748031497,
          "duration": 0.07692300000002206
        },
        {
          "name": "C2",
          "midi": 36,
          "time": 309.46122899999534,
          "velocity": 0.7874015748031497,
          "duration": 0.07692300000002206
        },
        {
          "name": "B1",
          "midi": 35,
          "time": 309.46122899999534,
          "velocity": 0.7874015748031497,
          "duration": 0.07692300000002206
        },
        {
          "name": "A#2",
          "midi": 46,
          "time": 309.46122899999534,
          "velocity": 0.7874015748031497,
          "duration": 0.07692300000002206
        },
        {
          "name": "D2",
          "midi": 38,
          "time": 309.69199799999535,
          "velocity": 0.7874015748031497,
          "duration": 0.07692300000002206
        },
        {
          "name": "E2",
          "midi": 40,
          "time": 309.69199799999535,
          "velocity": 0.7874015748031497,
          "duration": 0.07692300000002206
        },
        {
          "name": "A3",
          "midi": 57,
          "time": 309.69199799999535,
          "velocity": 0.7874015748031497,
          "duration": 0.07692300000002206
        },
        {
          "name": "A#2",
          "midi": 46,
          "time": 309.69199799999535,
          "velocity": 0.7874015748031497,
          "duration": 0.07692300000002206
        },
        {
          "name": "A#2",
          "midi": 46,
          "time": 309.92276699999536,
          "velocity": 0.7874015748031497,
          "duration": 0.07692300000002206
        },
        {
          "name": "A3",
          "midi": 57,
          "time": 309.92276699999536,
          "velocity": 0.7874015748031497,
          "duration": 0.07692300000002206
        },
        {
          "name": "C2",
          "midi": 36,
          "time": 310.03815149999537,
          "velocity": 0.7874015748031497,
          "duration": 0.07692300000002206
        },
        {
          "name": "B1",
          "midi": 35,
          "time": 310.03815149999537,
          "velocity": 0.7874015748031497,
          "duration": 0.07692300000002206
        },
        {
          "name": "C2",
          "midi": 36,
          "time": 310.15353599999537,
          "velocity": 0.7874015748031497,
          "duration": 0.07692300000002206
        },
        {
          "name": "B1",
          "midi": 35,
          "time": 310.15353599999537,
          "velocity": 0.7874015748031497,
          "duration": 0.07692300000002206
        },
        {
          "name": "A3",
          "midi": 57,
          "time": 310.15353599999537,
          "velocity": 0.7874015748031497,
          "duration": 0.07692300000002206
        },
        {
          "name": "A#2",
          "midi": 46,
          "time": 310.15353599999537,
          "velocity": 0.7874015748031497,
          "duration": 0.07692300000002206
        },
        {
          "name": "C2",
          "midi": 36,
          "time": 310.3843049999954,
          "velocity": 0.7874015748031497,
          "duration": 0.07692300000002206
        },
        {
          "name": "B1",
          "midi": 35,
          "time": 310.3843049999954,
          "velocity": 0.7874015748031497,
          "duration": 0.07692300000002206
        },
        {
          "name": "A#2",
          "midi": 46,
          "time": 310.3843049999954,
          "velocity": 0.7874015748031497,
          "duration": 0.07692300000002206
        },
        {
          "name": "D2",
          "midi": 38,
          "time": 310.6150739999954,
          "velocity": 0.7874015748031497,
          "duration": 0.07692300000002206
        },
        {
          "name": "E2",
          "midi": 40,
          "time": 310.6150739999954,
          "velocity": 0.7874015748031497,
          "duration": 0.07692300000002206
        },
        {
          "name": "A3",
          "midi": 57,
          "time": 310.6150739999954,
          "velocity": 0.7874015748031497,
          "duration": 0.07692300000002206
        },
        {
          "name": "A#2",
          "midi": 46,
          "time": 310.6150739999954,
          "velocity": 0.7874015748031497,
          "duration": 0.07692300000002206
        },
        {
          "name": "A#2",
          "midi": 46,
          "time": 310.8458429999954,
          "velocity": 0.7874015748031497,
          "duration": 0.07692300000002206
        },
        {
          "name": "C2",
          "midi": 36,
          "time": 310.9612274999954,
          "velocity": 0.7874015748031497,
          "duration": 0.07692300000002206
        },
        {
          "name": "B1",
          "midi": 35,
          "time": 310.9612274999954,
          "velocity": 0.7874015748031497,
          "duration": 0.07692300000002206
        },
        {
          "name": "E2",
          "midi": 40,
          "time": 310.9612274999954,
          "velocity": 0.7874015748031497,
          "duration": 0.07692300000002206
        },
        {
          "name": "A#2",
          "midi": 46,
          "time": 311.0766119999954,
          "velocity": 0.7874015748031497,
          "duration": 0.07692300000002206
        },
        {
          "name": "G#2",
          "midi": 44,
          "time": 311.1919964999954,
          "velocity": 0.7874015748031497,
          "duration": 0.07692300000002206
        },
        {
          "name": "C2",
          "midi": 36,
          "time": 311.3073809999954,
          "velocity": 0.7874015748031497,
          "duration": 0.07692300000002206
        },
        {
          "name": "B1",
          "midi": 35,
          "time": 311.3073809999954,
          "velocity": 0.7874015748031497,
          "duration": 0.07692300000002206
        },
        {
          "name": "A#2",
          "midi": 46,
          "time": 311.3073809999954,
          "velocity": 0.7874015748031497,
          "duration": 0.07692300000002206
        },
        {
          "name": "D2",
          "midi": 38,
          "time": 311.5381499999954,
          "velocity": 0.7874015748031497,
          "duration": 0.07692300000002206
        },
        {
          "name": "E2",
          "midi": 40,
          "time": 311.5381499999954,
          "velocity": 0.7874015748031497,
          "duration": 0.07692300000002206
        },
        {
          "name": "A3",
          "midi": 57,
          "time": 311.5381499999954,
          "velocity": 0.7874015748031497,
          "duration": 0.07692300000002206
        },
        {
          "name": "A#2",
          "midi": 46,
          "time": 311.5381499999954,
          "velocity": 0.7874015748031497,
          "duration": 0.07692300000002206
        },
        {
          "name": "A#2",
          "midi": 46,
          "time": 311.76891899999544,
          "velocity": 0.7874015748031497,
          "duration": 0.07692300000002206
        },
        {
          "name": "C2",
          "midi": 36,
          "time": 311.88430349999544,
          "velocity": 0.7874015748031497,
          "duration": 0.07692300000002206
        },
        {
          "name": "B1",
          "midi": 35,
          "time": 311.88430349999544,
          "velocity": 0.7874015748031497,
          "duration": 0.07692300000002206
        },
        {
          "name": "C2",
          "midi": 36,
          "time": 311.99968799999544,
          "velocity": 0.7874015748031497,
          "duration": 0.07692300000002206
        },
        {
          "name": "B1",
          "midi": 35,
          "time": 311.99968799999544,
          "velocity": 0.7874015748031497,
          "duration": 0.07692300000002206
        },
        {
          "name": "A3",
          "midi": 57,
          "time": 311.99968799999544,
          "velocity": 0.7874015748031497,
          "duration": 0.07692300000002206
        },
        {
          "name": "A#2",
          "midi": 46,
          "time": 311.99968799999544,
          "velocity": 0.7874015748031497,
          "duration": 0.07692300000002206
        },
        {
          "name": "C2",
          "midi": 36,
          "time": 312.23045699999545,
          "velocity": 0.7874015748031497,
          "duration": 0.07692300000002206
        },
        {
          "name": "B1",
          "midi": 35,
          "time": 312.23045699999545,
          "velocity": 0.7874015748031497,
          "duration": 0.07692300000002206
        },
        {
          "name": "A#2",
          "midi": 46,
          "time": 312.23045699999545,
          "velocity": 0.7874015748031497,
          "duration": 0.07692300000002206
        },
        {
          "name": "D2",
          "midi": 38,
          "time": 312.46122599999546,
          "velocity": 0.7874015748031497,
          "duration": 0.07692300000002206
        },
        {
          "name": "E2",
          "midi": 40,
          "time": 312.46122599999546,
          "velocity": 0.7874015748031497,
          "duration": 0.07692300000002206
        },
        {
          "name": "A3",
          "midi": 57,
          "time": 312.46122599999546,
          "velocity": 0.7874015748031497,
          "duration": 0.07692300000002206
        },
        {
          "name": "A#2",
          "midi": 46,
          "time": 312.46122599999546,
          "velocity": 0.7874015748031497,
          "duration": 0.07692300000002206
        },
        {
          "name": "A#2",
          "midi": 46,
          "time": 312.6919949999955,
          "velocity": 0.7874015748031497,
          "duration": 0.07692300000002206
        },
        {
          "name": "C2",
          "midi": 36,
          "time": 312.8073794999955,
          "velocity": 0.7874015748031497,
          "duration": 0.07692300000002206
        },
        {
          "name": "B1",
          "midi": 35,
          "time": 312.8073794999955,
          "velocity": 0.7874015748031497,
          "duration": 0.07692300000002206
        },
        {
          "name": "E2",
          "midi": 40,
          "time": 312.8073794999955,
          "velocity": 0.7874015748031497,
          "duration": 0.07692300000002206
        },
        {
          "name": "A#2",
          "midi": 46,
          "time": 312.9227639999955,
          "velocity": 0.7874015748031497,
          "duration": 0.07692300000002206
        },
        {
          "name": "G#2",
          "midi": 44,
          "time": 313.0381484999955,
          "velocity": 0.7874015748031497,
          "duration": 0.07692300000002206
        },
        {
          "name": "C2",
          "midi": 36,
          "time": 313.1535329999955,
          "velocity": 0.7874015748031497,
          "duration": 0.07692300000002206
        },
        {
          "name": "B1",
          "midi": 35,
          "time": 313.1535329999955,
          "velocity": 0.7874015748031497,
          "duration": 0.07692300000002206
        },
        {
          "name": "A#2",
          "midi": 46,
          "time": 313.1535329999955,
          "velocity": 0.7874015748031497,
          "duration": 0.07692300000002206
        },
        {
          "name": "D2",
          "midi": 38,
          "time": 313.3843019999955,
          "velocity": 0.7874015748031497,
          "duration": 0.07692300000002206
        },
        {
          "name": "E2",
          "midi": 40,
          "time": 313.3843019999955,
          "velocity": 0.7874015748031497,
          "duration": 0.07692300000002206
        },
        {
          "name": "A3",
          "midi": 57,
          "time": 313.3843019999955,
          "velocity": 0.7874015748031497,
          "duration": 0.07692300000002206
        },
        {
          "name": "A#2",
          "midi": 46,
          "time": 313.3843019999955,
          "velocity": 0.7874015748031497,
          "duration": 0.07692300000002206
        },
        {
          "name": "A#2",
          "midi": 46,
          "time": 313.6150709999955,
          "velocity": 0.7874015748031497,
          "duration": 0.07692300000002206
        },
        {
          "name": "C2",
          "midi": 36,
          "time": 313.7304554999955,
          "velocity": 0.7874015748031497,
          "duration": 0.07692300000002206
        },
        {
          "name": "B1",
          "midi": 35,
          "time": 313.7304554999955,
          "velocity": 0.7874015748031497,
          "duration": 0.07692300000002206
        },
        {
          "name": "C2",
          "midi": 36,
          "time": 313.8458399999955,
          "velocity": 0.7874015748031497,
          "duration": 0.07692300000002206
        },
        {
          "name": "B1",
          "midi": 35,
          "time": 313.8458399999955,
          "velocity": 0.7874015748031497,
          "duration": 0.07692300000002206
        },
        {
          "name": "A3",
          "midi": 57,
          "time": 313.8458399999955,
          "velocity": 0.7874015748031497,
          "duration": 0.07692300000002206
        },
        {
          "name": "A#2",
          "midi": 46,
          "time": 313.8458399999955,
          "velocity": 0.7874015748031497,
          "duration": 0.07692300000002206
        },
        {
          "name": "C2",
          "midi": 36,
          "time": 314.0766089999955,
          "velocity": 0.7874015748031497,
          "duration": 0.07692300000002206
        },
        {
          "name": "B1",
          "midi": 35,
          "time": 314.0766089999955,
          "velocity": 0.7874015748031497,
          "duration": 0.07692300000002206
        },
        {
          "name": "A#2",
          "midi": 46,
          "time": 314.0766089999955,
          "velocity": 0.7874015748031497,
          "duration": 0.07692300000002206
        },
        {
          "name": "D2",
          "midi": 38,
          "time": 314.30737799999554,
          "velocity": 0.7874015748031497,
          "duration": 0.07692300000002206
        },
        {
          "name": "E2",
          "midi": 40,
          "time": 314.30737799999554,
          "velocity": 0.7874015748031497,
          "duration": 0.07692300000002206
        },
        {
          "name": "A3",
          "midi": 57,
          "time": 314.30737799999554,
          "velocity": 0.7874015748031497,
          "duration": 0.07692300000002206
        },
        {
          "name": "A#2",
          "midi": 46,
          "time": 314.30737799999554,
          "velocity": 0.7874015748031497,
          "duration": 0.07692300000002206
        },
        {
          "name": "A#2",
          "midi": 46,
          "time": 314.53814699999555,
          "velocity": 0.7874015748031497,
          "duration": 0.07692300000002206
        },
        {
          "name": "C2",
          "midi": 36,
          "time": 314.65353149999555,
          "velocity": 0.7874015748031497,
          "duration": 0.07692300000002206
        },
        {
          "name": "B1",
          "midi": 35,
          "time": 314.65353149999555,
          "velocity": 0.7874015748031497,
          "duration": 0.07692300000002206
        },
        {
          "name": "E2",
          "midi": 40,
          "time": 314.65353149999555,
          "velocity": 0.7874015748031497,
          "duration": 0.07692300000002206
        },
        {
          "name": "A#2",
          "midi": 46,
          "time": 314.76891599999556,
          "velocity": 0.7874015748031497,
          "duration": 0.07692300000002206
        },
        {
          "name": "G#2",
          "midi": 44,
          "time": 314.88430049999556,
          "velocity": 0.7874015748031497,
          "duration": 0.07692300000002206
        },
        {
          "name": "C2",
          "midi": 36,
          "time": 314.99968499999557,
          "velocity": 0.7874015748031497,
          "duration": 0.07692300000002206
        },
        {
          "name": "B1",
          "midi": 35,
          "time": 314.99968499999557,
          "velocity": 0.7874015748031497,
          "duration": 0.07692300000002206
        },
        {
          "name": "A#2",
          "midi": 46,
          "time": 314.99968499999557,
          "velocity": 0.7874015748031497,
          "duration": 0.07692300000002206
        },
        {
          "name": "D2",
          "midi": 38,
          "time": 315.2304539999956,
          "velocity": 0.7874015748031497,
          "duration": 0.07692300000002206
        },
        {
          "name": "E2",
          "midi": 40,
          "time": 315.2304539999956,
          "velocity": 0.7874015748031497,
          "duration": 0.07692300000002206
        },
        {
          "name": "A3",
          "midi": 57,
          "time": 315.2304539999956,
          "velocity": 0.7874015748031497,
          "duration": 0.07692300000002206
        },
        {
          "name": "A#2",
          "midi": 46,
          "time": 315.2304539999956,
          "velocity": 0.7874015748031497,
          "duration": 0.07692300000002206
        },
        {
          "name": "A#2",
          "midi": 46,
          "time": 315.4612229999956,
          "velocity": 0.7874015748031497,
          "duration": 0.07692300000002206
        },
        {
          "name": "C2",
          "midi": 36,
          "time": 315.5766074999956,
          "velocity": 0.7874015748031497,
          "duration": 0.07692300000002206
        },
        {
          "name": "B1",
          "midi": 35,
          "time": 315.5766074999956,
          "velocity": 0.7874015748031497,
          "duration": 0.07692300000002206
        },
        {
          "name": "C2",
          "midi": 36,
          "time": 315.6919919999956,
          "velocity": 0.7874015748031497,
          "duration": 0.07692300000002206
        },
        {
          "name": "B1",
          "midi": 35,
          "time": 315.6919919999956,
          "velocity": 0.7874015748031497,
          "duration": 0.07692300000002206
        },
        {
          "name": "A3",
          "midi": 57,
          "time": 315.6919919999956,
          "velocity": 0.7874015748031497,
          "duration": 0.07692300000002206
        },
        {
          "name": "A#2",
          "midi": 46,
          "time": 315.6919919999956,
          "velocity": 0.7874015748031497,
          "duration": 0.07692300000002206
        },
        {
          "name": "C2",
          "midi": 36,
          "time": 315.9227609999956,
          "velocity": 0.7874015748031497,
          "duration": 0.07692300000002206
        },
        {
          "name": "B1",
          "midi": 35,
          "time": 315.9227609999956,
          "velocity": 0.7874015748031497,
          "duration": 0.07692300000002206
        },
        {
          "name": "A#2",
          "midi": 46,
          "time": 315.9227609999956,
          "velocity": 0.7874015748031497,
          "duration": 0.07692300000002206
        },
        {
          "name": "A3",
          "midi": 57,
          "time": 316.1535299999956,
          "velocity": 0.7874015748031497,
          "duration": 0.07692299999996521
        },
        {
          "name": "A#2",
          "midi": 46,
          "time": 316.1535299999956,
          "velocity": 0.7874015748031497,
          "duration": 0.07692299999996521
        },
        {
          "name": "E2",
          "midi": 40,
          "time": 316.1535299999956,
          "velocity": 0.7874015748031497,
          "duration": 0.03846149999998261
        },
        {
          "name": "D2",
          "midi": 38,
          "time": 316.1535299999956,
          "velocity": 0.7874015748031497,
          "duration": 0.03846149999998261
        },
        {
          "name": "C2",
          "midi": 36,
          "time": 316.1535299999956,
          "velocity": 0.7874015748031497,
          "duration": 0.07692299999996521
        },
        {
          "name": "A#2",
          "midi": 46,
          "time": 316.38429899999556,
          "velocity": 0.7874015748031497,
          "duration": 0.07692300000002206
        },
        {
          "name": "E2",
          "midi": 40,
          "time": 316.49968349999557,
          "velocity": 0.7874015748031497,
          "duration": 0.03846149999998261
        },
        {
          "name": "E2",
          "midi": 40,
          "time": 316.5573757499956,
          "velocity": 0.7874015748031497,
          "duration": 0.03846149999998261
        },
        {
          "name": "A#2",
          "midi": 46,
          "time": 316.6150679999956,
          "velocity": 0.7874015748031497,
          "duration": 0.07692300000002206
        },
        {
          "name": "D2",
          "midi": 38,
          "time": 316.6150679999956,
          "velocity": 0.7874015748031497,
          "duration": 0.07692300000002206
        },
        {
          "name": "E2",
          "midi": 40,
          "time": 316.6150679999956,
          "velocity": 0.7874015748031497,
          "duration": 0.07692300000002206
        },
        {
          "name": "C2",
          "midi": 36,
          "time": 316.6150679999956,
          "velocity": 0.7874015748031497,
          "duration": 0.07692300000002206
        },
        {
          "name": "G#2",
          "midi": 44,
          "time": 316.7304524999956,
          "velocity": 0.7874015748031497,
          "duration": 0.07692299999996521
        },
        {
          "name": "E2",
          "midi": 40,
          "time": 316.7304524999956,
          "velocity": 0.7874015748031497,
          "duration": 0.03846149999998261
        },
        {
          "name": "D2",
          "midi": 38,
          "time": 316.7304524999956,
          "velocity": 0.7874015748031497,
          "duration": 0.03846149999998261
        },
        {
          "name": "C2",
          "midi": 36,
          "time": 316.7304524999956,
          "velocity": 0.7874015748031497,
          "duration": 0.07692299999996521
        },
        {
          "name": "A#2",
          "midi": 46,
          "time": 316.8458369999955,
          "velocity": 0.7874015748031497,
          "duration": 0.07692300000002206
        },
        {
          "name": "E2",
          "midi": 40,
          "time": 316.96122149999553,
          "velocity": 0.7874015748031497,
          "duration": 0.03846149999998261
        },
        {
          "name": "D2",
          "midi": 38,
          "time": 316.96122149999553,
          "velocity": 0.7874015748031497,
          "duration": 0.03846149999998261
        },
        {
          "name": "C2",
          "midi": 36,
          "time": 316.96122149999553,
          "velocity": 0.7874015748031497,
          "duration": 0.07692299999996521
        },
        {
          "name": "A#2",
          "midi": 46,
          "time": 317.0766059999955,
          "velocity": 0.7874015748031497,
          "duration": 0.07692300000002206
        },
        {
          "name": "E2",
          "midi": 40,
          "time": 317.1919904999955,
          "velocity": 0.7874015748031497,
          "duration": 0.03846149999998261
        },
        {
          "name": "D2",
          "midi": 38,
          "time": 317.1919904999955,
          "velocity": 0.7874015748031497,
          "duration": 0.03846149999998261
        },
        {
          "name": "C2",
          "midi": 36,
          "time": 317.1919904999955,
          "velocity": 0.7874015748031497,
          "duration": 0.07692299999996521
        },
        {
          "name": "A#2",
          "midi": 46,
          "time": 317.30737499999543,
          "velocity": 0.7874015748031497,
          "duration": 0.07692300000002206
        },
        {
          "name": "E2",
          "midi": 40,
          "time": 317.42275949999544,
          "velocity": 0.7874015748031497,
          "duration": 0.03846149999998261
        },
        {
          "name": "D2",
          "midi": 38,
          "time": 317.42275949999544,
          "velocity": 0.7874015748031497,
          "duration": 0.03846149999998261
        },
        {
          "name": "C2",
          "midi": 36,
          "time": 317.42275949999544,
          "velocity": 0.7874015748031497,
          "duration": 0.07692299999996521
        },
        {
          "name": "C2",
          "midi": 36,
          "time": 317.5381439999954,
          "velocity": 0.7874015748031497,
          "duration": 0.07692300000002206
        },
        {
          "name": "B1",
          "midi": 35,
          "time": 317.5381439999954,
          "velocity": 0.7874015748031497,
          "duration": 0.07692300000002206
        },
        {
          "name": "A3",
          "midi": 57,
          "time": 317.5381439999954,
          "velocity": 0.7874015748031497,
          "duration": 0.07692300000002206
        },
        {
          "name": "A#2",
          "midi": 46,
          "time": 317.5381439999954,
          "velocity": 0.7874015748031497,
          "duration": 0.07692300000002206
        },
        {
          "name": "C2",
          "midi": 36,
          "time": 317.7689129999954,
          "velocity": 0.7874015748031497,
          "duration": 0.07692300000002206
        },
        {
          "name": "B1",
          "midi": 35,
          "time": 317.7689129999954,
          "velocity": 0.7874015748031497,
          "duration": 0.07692300000002206
        },
        {
          "name": "A#2",
          "midi": 46,
          "time": 317.7689129999954,
          "velocity": 0.7874015748031497,
          "duration": 0.07692300000002206
        },
        {
          "name": "D2",
          "midi": 38,
          "time": 317.9996819999954,
          "velocity": 0.7874015748031497,
          "duration": 0.07692300000002206
        },
        {
          "name": "E2",
          "midi": 40,
          "time": 317.9996819999954,
          "velocity": 0.7874015748031497,
          "duration": 0.07692300000002206
        },
        {
          "name": "A3",
          "midi": 57,
          "time": 317.9996819999954,
          "velocity": 0.7874015748031497,
          "duration": 0.07692300000002206
        },
        {
          "name": "A#2",
          "midi": 46,
          "time": 317.9996819999954,
          "velocity": 0.7874015748031497,
          "duration": 0.07692300000002206
        },
        {
          "name": "A#2",
          "midi": 46,
          "time": 318.2304509999954,
          "velocity": 0.7874015748031497,
          "duration": 0.07692300000002206
        },
        {
          "name": "C2",
          "midi": 36,
          "time": 318.3458354999954,
          "velocity": 0.7874015748031497,
          "duration": 0.07692300000002206
        },
        {
          "name": "B1",
          "midi": 35,
          "time": 318.3458354999954,
          "velocity": 0.7874015748031497,
          "duration": 0.07692300000002206
        },
        {
          "name": "E2",
          "midi": 40,
          "time": 318.3458354999954,
          "velocity": 0.7874015748031497,
          "duration": 0.07692300000002206
        },
        {
          "name": "A#2",
          "midi": 46,
          "time": 318.4612199999954,
          "velocity": 0.7874015748031497,
          "duration": 0.07692300000002206
        },
        {
          "name": "G#2",
          "midi": 44,
          "time": 318.5766044999954,
          "velocity": 0.7874015748031497,
          "duration": 0.07692300000002206
        },
        {
          "name": "C2",
          "midi": 36,
          "time": 318.69198899999543,
          "velocity": 0.7874015748031497,
          "duration": 0.07692300000002206
        },
        {
          "name": "B1",
          "midi": 35,
          "time": 318.69198899999543,
          "velocity": 0.7874015748031497,
          "duration": 0.07692300000002206
        },
        {
          "name": "A#2",
          "midi": 46,
          "time": 318.69198899999543,
          "velocity": 0.7874015748031497,
          "duration": 0.07692300000002206
        },
        {
          "name": "D2",
          "midi": 38,
          "time": 318.92275799999544,
          "velocity": 0.7874015748031497,
          "duration": 0.07692300000002206
        },
        {
          "name": "E2",
          "midi": 40,
          "time": 318.92275799999544,
          "velocity": 0.7874015748031497,
          "duration": 0.07692300000002206
        },
        {
          "name": "A3",
          "midi": 57,
          "time": 318.92275799999544,
          "velocity": 0.7874015748031497,
          "duration": 0.07692300000002206
        },
        {
          "name": "A#2",
          "midi": 46,
          "time": 318.92275799999544,
          "velocity": 0.7874015748031497,
          "duration": 0.07692300000002206
        },
        {
          "name": "A#2",
          "midi": 46,
          "time": 319.15352699999545,
          "velocity": 0.7874015748031497,
          "duration": 0.07692300000002206
        },
        {
          "name": "C2",
          "midi": 36,
          "time": 319.26891149999545,
          "velocity": 0.7874015748031497,
          "duration": 0.07692300000002206
        },
        {
          "name": "B1",
          "midi": 35,
          "time": 319.26891149999545,
          "velocity": 0.7874015748031497,
          "duration": 0.07692300000002206
        },
        {
          "name": "C2",
          "midi": 36,
          "time": 319.38429599999546,
          "velocity": 0.7874015748031497,
          "duration": 0.07692300000002206
        },
        {
          "name": "B1",
          "midi": 35,
          "time": 319.38429599999546,
          "velocity": 0.7874015748031497,
          "duration": 0.07692300000002206
        },
        {
          "name": "A3",
          "midi": 57,
          "time": 319.38429599999546,
          "velocity": 0.7874015748031497,
          "duration": 0.07692300000002206
        },
        {
          "name": "A#2",
          "midi": 46,
          "time": 319.38429599999546,
          "velocity": 0.7874015748031497,
          "duration": 0.07692300000002206
        },
        {
          "name": "C2",
          "midi": 36,
          "time": 319.61506499999547,
          "velocity": 0.7874015748031497,
          "duration": 0.07692300000002206
        },
        {
          "name": "B1",
          "midi": 35,
          "time": 319.61506499999547,
          "velocity": 0.7874015748031497,
          "duration": 0.07692300000002206
        },
        {
          "name": "A#2",
          "midi": 46,
          "time": 319.61506499999547,
          "velocity": 0.7874015748031497,
          "duration": 0.07692300000002206
        },
        {
          "name": "D2",
          "midi": 38,
          "time": 319.8458339999955,
          "velocity": 0.7874015748031497,
          "duration": 0.07692300000002206
        },
        {
          "name": "E2",
          "midi": 40,
          "time": 319.8458339999955,
          "velocity": 0.7874015748031497,
          "duration": 0.07692300000002206
        },
        {
          "name": "A3",
          "midi": 57,
          "time": 319.8458339999955,
          "velocity": 0.7874015748031497,
          "duration": 0.07692300000002206
        },
        {
          "name": "A#2",
          "midi": 46,
          "time": 319.8458339999955,
          "velocity": 0.7874015748031497,
          "duration": 0.07692300000002206
        },
        {
          "name": "A#2",
          "midi": 46,
          "time": 320.0766029999955,
          "velocity": 0.7874015748031497,
          "duration": 0.07692300000002206
        },
        {
          "name": "C2",
          "midi": 36,
          "time": 320.1919874999955,
          "velocity": 0.7874015748031497,
          "duration": 0.07692300000002206
        },
        {
          "name": "B1",
          "midi": 35,
          "time": 320.1919874999955,
          "velocity": 0.7874015748031497,
          "duration": 0.07692300000002206
        },
        {
          "name": "E2",
          "midi": 40,
          "time": 320.1919874999955,
          "velocity": 0.7874015748031497,
          "duration": 0.07692300000002206
        },
        {
          "name": "A#2",
          "midi": 46,
          "time": 320.3073719999955,
          "velocity": 0.7874015748031497,
          "duration": 0.07692300000002206
        },
        {
          "name": "G#2",
          "midi": 44,
          "time": 320.4227564999955,
          "velocity": 0.7874015748031497,
          "duration": 0.07692300000002206
        },
        {
          "name": "C2",
          "midi": 36,
          "time": 320.5381409999955,
          "velocity": 0.7874015748031497,
          "duration": 0.07692300000002206
        },
        {
          "name": "B1",
          "midi": 35,
          "time": 320.5381409999955,
          "velocity": 0.7874015748031497,
          "duration": 0.07692300000002206
        },
        {
          "name": "A#2",
          "midi": 46,
          "time": 320.5381409999955,
          "velocity": 0.7874015748031497,
          "duration": 0.07692300000002206
        },
        {
          "name": "D2",
          "midi": 38,
          "time": 320.7689099999955,
          "velocity": 0.7874015748031497,
          "duration": 0.07692300000002206
        },
        {
          "name": "E2",
          "midi": 40,
          "time": 320.7689099999955,
          "velocity": 0.7874015748031497,
          "duration": 0.07692300000002206
        },
        {
          "name": "A3",
          "midi": 57,
          "time": 320.7689099999955,
          "velocity": 0.7874015748031497,
          "duration": 0.07692300000002206
        },
        {
          "name": "A#2",
          "midi": 46,
          "time": 320.7689099999955,
          "velocity": 0.7874015748031497,
          "duration": 0.07692300000002206
        },
        {
          "name": "A#2",
          "midi": 46,
          "time": 320.9996789999955,
          "velocity": 0.7874015748031497,
          "duration": 0.07692300000002206
        },
        {
          "name": "C2",
          "midi": 36,
          "time": 321.11506349999553,
          "velocity": 0.7874015748031497,
          "duration": 0.07692300000002206
        },
        {
          "name": "B1",
          "midi": 35,
          "time": 321.11506349999553,
          "velocity": 0.7874015748031497,
          "duration": 0.07692300000002206
        },
        {
          "name": "C2",
          "midi": 36,
          "time": 321.23044799999553,
          "velocity": 0.7874015748031497,
          "duration": 0.07692300000002206
        },
        {
          "name": "B1",
          "midi": 35,
          "time": 321.23044799999553,
          "velocity": 0.7874015748031497,
          "duration": 0.07692300000002206
        },
        {
          "name": "A3",
          "midi": 57,
          "time": 321.23044799999553,
          "velocity": 0.7874015748031497,
          "duration": 0.07692300000002206
        },
        {
          "name": "A#2",
          "midi": 46,
          "time": 321.23044799999553,
          "velocity": 0.7874015748031497,
          "duration": 0.07692300000002206
        },
        {
          "name": "C2",
          "midi": 36,
          "time": 321.46121699999554,
          "velocity": 0.7874015748031497,
          "duration": 0.07692300000002206
        },
        {
          "name": "B1",
          "midi": 35,
          "time": 321.46121699999554,
          "velocity": 0.7874015748031497,
          "duration": 0.07692300000002206
        },
        {
          "name": "A#2",
          "midi": 46,
          "time": 321.46121699999554,
          "velocity": 0.7874015748031497,
          "duration": 0.07692300000002206
        },
        {
          "name": "D2",
          "midi": 38,
          "time": 321.69198599999555,
          "velocity": 0.7874015748031497,
          "duration": 0.07692300000002206
        },
        {
          "name": "E2",
          "midi": 40,
          "time": 321.69198599999555,
          "velocity": 0.7874015748031497,
          "duration": 0.07692300000002206
        },
        {
          "name": "A3",
          "midi": 57,
          "time": 321.69198599999555,
          "velocity": 0.7874015748031497,
          "duration": 0.07692300000002206
        },
        {
          "name": "A#2",
          "midi": 46,
          "time": 321.69198599999555,
          "velocity": 0.7874015748031497,
          "duration": 0.07692300000002206
        },
        {
          "name": "A#2",
          "midi": 46,
          "time": 321.92275499999556,
          "velocity": 0.7874015748031497,
          "duration": 0.07692300000002206
        },
        {
          "name": "C2",
          "midi": 36,
          "time": 322.03813949999557,
          "velocity": 0.7874015748031497,
          "duration": 0.07692300000002206
        },
        {
          "name": "B1",
          "midi": 35,
          "time": 322.03813949999557,
          "velocity": 0.7874015748031497,
          "duration": 0.07692300000002206
        },
        {
          "name": "E2",
          "midi": 40,
          "time": 322.03813949999557,
          "velocity": 0.7874015748031497,
          "duration": 0.07692300000002206
        },
        {
          "name": "A#2",
          "midi": 46,
          "time": 322.15352399999557,
          "velocity": 0.7874015748031497,
          "duration": 0.07692300000002206
        },
        {
          "name": "G#2",
          "midi": 44,
          "time": 322.2689084999956,
          "velocity": 0.7874015748031497,
          "duration": 0.07692300000002206
        },
        {
          "name": "C2",
          "midi": 36,
          "time": 322.3842929999956,
          "velocity": 0.7874015748031497,
          "duration": 0.07692300000002206
        },
        {
          "name": "B1",
          "midi": 35,
          "time": 322.3842929999956,
          "velocity": 0.7874015748031497,
          "duration": 0.07692300000002206
        },
        {
          "name": "A#2",
          "midi": 46,
          "time": 322.3842929999956,
          "velocity": 0.7874015748031497,
          "duration": 0.07692300000002206
        },
        {
          "name": "D2",
          "midi": 38,
          "time": 322.6150619999956,
          "velocity": 0.7874015748031497,
          "duration": 0.07692300000002206
        },
        {
          "name": "E2",
          "midi": 40,
          "time": 322.6150619999956,
          "velocity": 0.7874015748031497,
          "duration": 0.07692300000002206
        },
        {
          "name": "A3",
          "midi": 57,
          "time": 322.6150619999956,
          "velocity": 0.7874015748031497,
          "duration": 0.07692300000002206
        },
        {
          "name": "A#2",
          "midi": 46,
          "time": 322.6150619999956,
          "velocity": 0.7874015748031497,
          "duration": 0.07692300000002206
        },
        {
          "name": "A#2",
          "midi": 46,
          "time": 322.8458309999956,
          "velocity": 0.7874015748031497,
          "duration": 0.07692300000002206
        },
        {
          "name": "C2",
          "midi": 36,
          "time": 322.9612154999956,
          "velocity": 0.7874015748031497,
          "duration": 0.07692300000002206
        },
        {
          "name": "B1",
          "midi": 35,
          "time": 322.9612154999956,
          "velocity": 0.7874015748031497,
          "duration": 0.07692300000002206
        },
        {
          "name": "C2",
          "midi": 36,
          "time": 323.0765999999956,
          "velocity": 0.7874015748031497,
          "duration": 0.07692300000002206
        },
        {
          "name": "B1",
          "midi": 35,
          "time": 323.0765999999956,
          "velocity": 0.7874015748031497,
          "duration": 0.07692300000002206
        },
        {
          "name": "A3",
          "midi": 57,
          "time": 323.0765999999956,
          "velocity": 0.7874015748031497,
          "duration": 0.07692300000002206
        },
        {
          "name": "A#2",
          "midi": 46,
          "time": 323.0765999999956,
          "velocity": 0.7874015748031497,
          "duration": 0.07692300000002206
        },
        {
          "name": "C2",
          "midi": 36,
          "time": 323.3073689999956,
          "velocity": 0.7874015748031497,
          "duration": 0.07692300000002206
        },
        {
          "name": "B1",
          "midi": 35,
          "time": 323.3073689999956,
          "velocity": 0.7874015748031497,
          "duration": 0.07692300000002206
        },
        {
          "name": "A#2",
          "midi": 46,
          "time": 323.3073689999956,
          "velocity": 0.7874015748031497,
          "duration": 0.07692300000002206
        },
        {
          "name": "D2",
          "midi": 38,
          "time": 323.5381379999956,
          "velocity": 0.7874015748031497,
          "duration": 0.07692300000002206
        },
        {
          "name": "E2",
          "midi": 40,
          "time": 323.5381379999956,
          "velocity": 0.7874015748031497,
          "duration": 0.07692300000002206
        },
        {
          "name": "A3",
          "midi": 57,
          "time": 323.5381379999956,
          "velocity": 0.7874015748031497,
          "duration": 0.07692300000002206
        },
        {
          "name": "A#2",
          "midi": 46,
          "time": 323.5381379999956,
          "velocity": 0.7874015748031497,
          "duration": 0.07692300000002206
        },
        {
          "name": "A#2",
          "midi": 46,
          "time": 323.76890699999564,
          "velocity": 0.7874015748031497,
          "duration": 0.07692300000002206
        },
        {
          "name": "C2",
          "midi": 36,
          "time": 323.88429149999564,
          "velocity": 0.7874015748031497,
          "duration": 0.07692300000002206
        },
        {
          "name": "B1",
          "midi": 35,
          "time": 323.88429149999564,
          "velocity": 0.7874015748031497,
          "duration": 0.07692300000002206
        },
        {
          "name": "E2",
          "midi": 40,
          "time": 323.88429149999564,
          "velocity": 0.7874015748031497,
          "duration": 0.07692300000002206
        },
        {
          "name": "A#2",
          "midi": 46,
          "time": 323.99967599999565,
          "velocity": 0.7874015748031497,
          "duration": 0.07692300000002206
        },
        {
          "name": "G#2",
          "midi": 44,
          "time": 324.11506049999565,
          "velocity": 0.7874015748031497,
          "duration": 0.07692300000002206
        },
        {
          "name": "C2",
          "midi": 36,
          "time": 324.23044499999565,
          "velocity": 0.7874015748031497,
          "duration": 0.07692300000002206
        },
        {
          "name": "B1",
          "midi": 35,
          "time": 324.23044499999565,
          "velocity": 0.7874015748031497,
          "duration": 0.07692300000002206
        },
        {
          "name": "A#2",
          "midi": 46,
          "time": 324.23044499999565,
          "velocity": 0.7874015748031497,
          "duration": 0.07692300000002206
        },
        {
          "name": "D2",
          "midi": 38,
          "time": 324.46121399999566,
          "velocity": 0.7874015748031497,
          "duration": 0.07692300000002206
        },
        {
          "name": "E2",
          "midi": 40,
          "time": 324.46121399999566,
          "velocity": 0.7874015748031497,
          "duration": 0.07692300000002206
        },
        {
          "name": "A3",
          "midi": 57,
          "time": 324.46121399999566,
          "velocity": 0.7874015748031497,
          "duration": 0.07692300000002206
        },
        {
          "name": "A#2",
          "midi": 46,
          "time": 324.46121399999566,
          "velocity": 0.7874015748031497,
          "duration": 0.07692300000002206
        },
        {
          "name": "A#2",
          "midi": 46,
          "time": 324.6919829999957,
          "velocity": 0.7874015748031497,
          "duration": 0.07692300000002206
        },
        {
          "name": "A3",
          "midi": 57,
          "time": 324.6919829999957,
          "velocity": 0.7874015748031497,
          "duration": 0.07692300000002206
        },
        {
          "name": "C2",
          "midi": 36,
          "time": 324.8073674999957,
          "velocity": 0.7874015748031497,
          "duration": 0.07692300000002206
        },
        {
          "name": "B1",
          "midi": 35,
          "time": 324.8073674999957,
          "velocity": 0.7874015748031497,
          "duration": 0.07692300000002206
        },
        {
          "name": "C2",
          "midi": 36,
          "time": 324.9227519999957,
          "velocity": 0.7874015748031497,
          "duration": 0.07692300000002206
        },
        {
          "name": "B1",
          "midi": 35,
          "time": 324.9227519999957,
          "velocity": 0.7874015748031497,
          "duration": 0.07692300000002206
        },
        {
          "name": "A3",
          "midi": 57,
          "time": 324.9227519999957,
          "velocity": 0.7874015748031497,
          "duration": 0.07692300000002206
        },
        {
          "name": "A#2",
          "midi": 46,
          "time": 324.9227519999957,
          "velocity": 0.7874015748031497,
          "duration": 0.07692300000002206
        },
        {
          "name": "C2",
          "midi": 36,
          "time": 325.1535209999957,
          "velocity": 0.7874015748031497,
          "duration": 0.07692300000002206
        },
        {
          "name": "B1",
          "midi": 35,
          "time": 325.1535209999957,
          "velocity": 0.7874015748031497,
          "duration": 0.07692300000002206
        },
        {
          "name": "A#2",
          "midi": 46,
          "time": 325.1535209999957,
          "velocity": 0.7874015748031497,
          "duration": 0.07692300000002206
        },
        {
          "name": "D2",
          "midi": 38,
          "time": 325.3842899999957,
          "velocity": 0.7874015748031497,
          "duration": 0.07692300000002206
        },
        {
          "name": "E2",
          "midi": 40,
          "time": 325.3842899999957,
          "velocity": 0.7874015748031497,
          "duration": 0.07692300000002206
        },
        {
          "name": "A3",
          "midi": 57,
          "time": 325.3842899999957,
          "velocity": 0.7874015748031497,
          "duration": 0.07692300000002206
        },
        {
          "name": "A#2",
          "midi": 46,
          "time": 325.3842899999957,
          "velocity": 0.7874015748031497,
          "duration": 0.07692300000002206
        },
        {
          "name": "A#2",
          "midi": 46,
          "time": 325.6150589999957,
          "velocity": 0.7874015748031497,
          "duration": 0.07692300000002206
        },
        {
          "name": "C2",
          "midi": 36,
          "time": 325.7304434999957,
          "velocity": 0.7874015748031497,
          "duration": 0.07692300000002206
        },
        {
          "name": "B1",
          "midi": 35,
          "time": 325.7304434999957,
          "velocity": 0.7874015748031497,
          "duration": 0.07692300000002206
        },
        {
          "name": "E2",
          "midi": 40,
          "time": 325.7304434999957,
          "velocity": 0.7874015748031497,
          "duration": 0.07692300000002206
        },
        {
          "name": "A#2",
          "midi": 46,
          "time": 325.8458279999957,
          "velocity": 0.7874015748031497,
          "duration": 0.07692300000002206
        },
        {
          "name": "G#2",
          "midi": 44,
          "time": 325.9612124999957,
          "velocity": 0.7874015748031497,
          "duration": 0.07692300000002206
        },
        {
          "name": "C2",
          "midi": 36,
          "time": 326.07659699999573,
          "velocity": 0.7874015748031497,
          "duration": 0.07692300000002206
        },
        {
          "name": "B1",
          "midi": 35,
          "time": 326.07659699999573,
          "velocity": 0.7874015748031497,
          "duration": 0.07692300000002206
        },
        {
          "name": "A#2",
          "midi": 46,
          "time": 326.07659699999573,
          "velocity": 0.7874015748031497,
          "duration": 0.07692300000002206
        },
        {
          "name": "D2",
          "midi": 38,
          "time": 326.30736599999574,
          "velocity": 0.7874015748031497,
          "duration": 0.07692300000002206
        },
        {
          "name": "E2",
          "midi": 40,
          "time": 326.30736599999574,
          "velocity": 0.7874015748031497,
          "duration": 0.07692300000002206
        },
        {
          "name": "A3",
          "midi": 57,
          "time": 326.30736599999574,
          "velocity": 0.7874015748031497,
          "duration": 0.07692300000002206
        },
        {
          "name": "A#2",
          "midi": 46,
          "time": 326.30736599999574,
          "velocity": 0.7874015748031497,
          "duration": 0.07692300000002206
        },
        {
          "name": "A#2",
          "midi": 46,
          "time": 326.53813499999575,
          "velocity": 0.7874015748031497,
          "duration": 0.07692300000002206
        },
        {
          "name": "C2",
          "midi": 36,
          "time": 326.65351949999575,
          "velocity": 0.7874015748031497,
          "duration": 0.07692300000002206
        },
        {
          "name": "B1",
          "midi": 35,
          "time": 326.65351949999575,
          "velocity": 0.7874015748031497,
          "duration": 0.07692300000002206
        },
        {
          "name": "C2",
          "midi": 36,
          "time": 326.76890399999576,
          "velocity": 0.7874015748031497,
          "duration": 0.07692300000002206
        },
        {
          "name": "B1",
          "midi": 35,
          "time": 326.76890399999576,
          "velocity": 0.7874015748031497,
          "duration": 0.07692300000002206
        },
        {
          "name": "A3",
          "midi": 57,
          "time": 326.76890399999576,
          "velocity": 0.7874015748031497,
          "duration": 0.07692300000002206
        },
        {
          "name": "A#2",
          "midi": 46,
          "time": 326.76890399999576,
          "velocity": 0.7874015748031497,
          "duration": 0.07692300000002206
        },
        {
          "name": "C2",
          "midi": 36,
          "time": 326.99967299999577,
          "velocity": 0.7874015748031497,
          "duration": 0.07692300000002206
        },
        {
          "name": "B1",
          "midi": 35,
          "time": 326.99967299999577,
          "velocity": 0.7874015748031497,
          "duration": 0.07692300000002206
        },
        {
          "name": "A#2",
          "midi": 46,
          "time": 326.99967299999577,
          "velocity": 0.7874015748031497,
          "duration": 0.07692300000002206
        },
        {
          "name": "D2",
          "midi": 38,
          "time": 327.2304419999958,
          "velocity": 0.7874015748031497,
          "duration": 0.07692300000002206
        },
        {
          "name": "E2",
          "midi": 40,
          "time": 327.2304419999958,
          "velocity": 0.7874015748031497,
          "duration": 0.07692300000002206
        },
        {
          "name": "A3",
          "midi": 57,
          "time": 327.2304419999958,
          "velocity": 0.7874015748031497,
          "duration": 0.07692300000002206
        },
        {
          "name": "A#2",
          "midi": 46,
          "time": 327.2304419999958,
          "velocity": 0.7874015748031497,
          "duration": 0.07692300000002206
        },
        {
          "name": "A#2",
          "midi": 46,
          "time": 327.4612109999958,
          "velocity": 0.7874015748031497,
          "duration": 0.07692300000002206
        },
        {
          "name": "C2",
          "midi": 36,
          "time": 327.5765954999958,
          "velocity": 0.7874015748031497,
          "duration": 0.07692300000002206
        },
        {
          "name": "B1",
          "midi": 35,
          "time": 327.5765954999958,
          "velocity": 0.7874015748031497,
          "duration": 0.07692300000002206
        },
        {
          "name": "E2",
          "midi": 40,
          "time": 327.5765954999958,
          "velocity": 0.7874015748031497,
          "duration": 0.07692300000002206
        },
        {
          "name": "A#2",
          "midi": 46,
          "time": 327.6919799999958,
          "velocity": 0.7874015748031497,
          "duration": 0.07692300000002206
        },
        {
          "name": "G#2",
          "midi": 44,
          "time": 327.8073644999958,
          "velocity": 0.7874015748031497,
          "duration": 0.07692300000002206
        },
        {
          "name": "C2",
          "midi": 36,
          "time": 327.9227489999958,
          "velocity": 0.7874015748031497,
          "duration": 0.07692300000002206
        },
        {
          "name": "B1",
          "midi": 35,
          "time": 327.9227489999958,
          "velocity": 0.7874015748031497,
          "duration": 0.07692300000002206
        },
        {
          "name": "A#2",
          "midi": 46,
          "time": 327.9227489999958,
          "velocity": 0.7874015748031497,
          "duration": 0.07692300000002206
        },
        {
          "name": "D2",
          "midi": 38,
          "time": 328.1535179999958,
          "velocity": 0.7874015748031497,
          "duration": 0.07692300000002206
        },
        {
          "name": "E2",
          "midi": 40,
          "time": 328.1535179999958,
          "velocity": 0.7874015748031497,
          "duration": 0.07692300000002206
        },
        {
          "name": "A3",
          "midi": 57,
          "time": 328.1535179999958,
          "velocity": 0.7874015748031497,
          "duration": 0.07692300000002206
        },
        {
          "name": "A#2",
          "midi": 46,
          "time": 328.1535179999958,
          "velocity": 0.7874015748031497,
          "duration": 0.07692300000002206
        },
        {
          "name": "A#2",
          "midi": 46,
          "time": 328.3842869999958,
          "velocity": 0.7874015748031497,
          "duration": 0.07692300000002206
        },
        {
          "name": "C2",
          "midi": 36,
          "time": 328.4996714999958,
          "velocity": 0.7874015748031497,
          "duration": 0.07692300000002206
        },
        {
          "name": "B1",
          "midi": 35,
          "time": 328.4996714999958,
          "velocity": 0.7874015748031497,
          "duration": 0.07692300000002206
        },
        {
          "name": "C2",
          "midi": 36,
          "time": 328.61505599999583,
          "velocity": 0.7874015748031497,
          "duration": 0.07692300000002206
        },
        {
          "name": "B1",
          "midi": 35,
          "time": 328.61505599999583,
          "velocity": 0.7874015748031497,
          "duration": 0.07692300000002206
        },
        {
          "name": "A3",
          "midi": 57,
          "time": 328.61505599999583,
          "velocity": 0.7874015748031497,
          "duration": 0.07692300000002206
        },
        {
          "name": "A#2",
          "midi": 46,
          "time": 328.61505599999583,
          "velocity": 0.7874015748031497,
          "duration": 0.07692300000002206
        },
        {
          "name": "C2",
          "midi": 36,
          "time": 328.84582499999584,
          "velocity": 0.7874015748031497,
          "duration": 0.07692300000002206
        },
        {
          "name": "B1",
          "midi": 35,
          "time": 328.84582499999584,
          "velocity": 0.7874015748031497,
          "duration": 0.07692300000002206
        },
        {
          "name": "A#2",
          "midi": 46,
          "time": 328.84582499999584,
          "velocity": 0.7874015748031497,
          "duration": 0.07692300000002206
        },
        {
          "name": "D2",
          "midi": 38,
          "time": 329.07659399999585,
          "velocity": 0.7874015748031497,
          "duration": 0.07692300000002206
        },
        {
          "name": "E2",
          "midi": 40,
          "time": 329.07659399999585,
          "velocity": 0.7874015748031497,
          "duration": 0.07692300000002206
        },
        {
          "name": "A3",
          "midi": 57,
          "time": 329.07659399999585,
          "velocity": 0.7874015748031497,
          "duration": 0.07692300000002206
        },
        {
          "name": "A#2",
          "midi": 46,
          "time": 329.07659399999585,
          "velocity": 0.7874015748031497,
          "duration": 0.07692300000002206
        },
        {
          "name": "A#2",
          "midi": 46,
          "time": 329.30736299999586,
          "velocity": 0.7874015748031497,
          "duration": 0.07692300000002206
        },
        {
          "name": "C2",
          "midi": 36,
          "time": 329.42274749999586,
          "velocity": 0.7874015748031497,
          "duration": 0.07692300000002206
        },
        {
          "name": "B1",
          "midi": 35,
          "time": 329.42274749999586,
          "velocity": 0.7874015748031497,
          "duration": 0.07692300000002206
        },
        {
          "name": "E2",
          "midi": 40,
          "time": 329.42274749999586,
          "velocity": 0.7874015748031497,
          "duration": 0.07692300000002206
        },
        {
          "name": "A#2",
          "midi": 46,
          "time": 329.53813199999587,
          "velocity": 0.7874015748031497,
          "duration": 0.07692300000002206
        },
        {
          "name": "G#2",
          "midi": 44,
          "time": 329.6535164999959,
          "velocity": 0.7874015748031497,
          "duration": 0.07692300000002206
        },
        {
          "name": "C2",
          "midi": 36,
          "time": 329.7689009999959,
          "velocity": 0.7874015748031497,
          "duration": 0.07692300000002206
        },
        {
          "name": "B1",
          "midi": 35,
          "time": 329.7689009999959,
          "velocity": 0.7874015748031497,
          "duration": 0.07692300000002206
        },
        {
          "name": "A#2",
          "midi": 46,
          "time": 329.7689009999959,
          "velocity": 0.7874015748031497,
          "duration": 0.07692300000002206
        },
        {
          "name": "D2",
          "midi": 38,
          "time": 329.9996699999959,
          "velocity": 0.7874015748031497,
          "duration": 0.07692300000002206
        },
        {
          "name": "E2",
          "midi": 40,
          "time": 329.9996699999959,
          "velocity": 0.7874015748031497,
          "duration": 0.07692300000002206
        },
        {
          "name": "A3",
          "midi": 57,
          "time": 329.9996699999959,
          "velocity": 0.7874015748031497,
          "duration": 0.07692300000002206
        },
        {
          "name": "A#2",
          "midi": 46,
          "time": 329.9996699999959,
          "velocity": 0.7874015748031497,
          "duration": 0.07692300000002206
        },
        {
          "name": "A#2",
          "midi": 46,
          "time": 330.2304389999959,
          "velocity": 0.7874015748031497,
          "duration": 0.07692300000002206
        },
        {
          "name": "C2",
          "midi": 36,
          "time": 330.3458234999959,
          "velocity": 0.7874015748031497,
          "duration": 0.07692300000002206
        },
        {
          "name": "B1",
          "midi": 35,
          "time": 330.3458234999959,
          "velocity": 0.7874015748031497,
          "duration": 0.07692300000002206
        },
        {
          "name": "C2",
          "midi": 36,
          "time": 330.4612079999959,
          "velocity": 0.7874015748031497,
          "duration": 0.07692300000002206
        },
        {
          "name": "B1",
          "midi": 35,
          "time": 330.4612079999959,
          "velocity": 0.7874015748031497,
          "duration": 0.07692300000002206
        },
        {
          "name": "A3",
          "midi": 57,
          "time": 330.4612079999959,
          "velocity": 0.7874015748031497,
          "duration": 0.07692300000002206
        },
        {
          "name": "A#2",
          "midi": 46,
          "time": 330.4612079999959,
          "velocity": 0.7874015748031497,
          "duration": 0.07692300000002206
        },
        {
          "name": "C2",
          "midi": 36,
          "time": 330.6919769999959,
          "velocity": 0.7874015748031497,
          "duration": 0.07692300000002206
        },
        {
          "name": "B1",
          "midi": 35,
          "time": 330.6919769999959,
          "velocity": 0.7874015748031497,
          "duration": 0.07692300000002206
        },
        {
          "name": "A#2",
          "midi": 46,
          "time": 330.6919769999959,
          "velocity": 0.7874015748031497,
          "duration": 0.07692300000002206
        },
        {
          "name": "D2",
          "midi": 38,
          "time": 330.9227459999959,
          "velocity": 0.7874015748031497,
          "duration": 0.07692300000002206
        },
        {
          "name": "E2",
          "midi": 40,
          "time": 330.9227459999959,
          "velocity": 0.7874015748031497,
          "duration": 0.07692300000002206
        },
        {
          "name": "A3",
          "midi": 57,
          "time": 330.9227459999959,
          "velocity": 0.7874015748031497,
          "duration": 0.07692300000002206
        },
        {
          "name": "A#2",
          "midi": 46,
          "time": 330.9227459999959,
          "velocity": 0.7874015748031497,
          "duration": 0.07692300000002206
        },
        {
          "name": "A#2",
          "midi": 46,
          "time": 331.15351499999593,
          "velocity": 0.7874015748031497,
          "duration": 0.07692300000002206
        },
        {
          "name": "A#2",
          "midi": 46,
          "time": 331.38428399999594,
          "velocity": 0.7874015748031497,
          "duration": 0.07692299999996521
        },
        {
          "name": "E2",
          "midi": 40,
          "time": 331.38428399999594,
          "velocity": 0.7874015748031497,
          "duration": 0.03846149999998261
        },
        {
          "name": "D2",
          "midi": 38,
          "time": 331.38428399999594,
          "velocity": 0.7874015748031497,
          "duration": 0.03846149999998261
        },
        {
          "name": "C2",
          "midi": 36,
          "time": 331.38428399999594,
          "velocity": 0.7874015748031497,
          "duration": 0.07692299999996521
        },
        {
          "name": "E2",
          "midi": 40,
          "time": 331.4996684999959,
          "velocity": 0.7874015748031497,
          "duration": 0.03846149999998261
        },
        {
          "name": "D2",
          "midi": 38,
          "time": 331.4996684999959,
          "velocity": 0.7874015748031497,
          "duration": 0.03846149999998261
        },
        {
          "name": "C2",
          "midi": 36,
          "time": 331.4996684999959,
          "velocity": 0.7874015748031497,
          "duration": 0.07692299999996521
        },
        {
          "name": "G#2",
          "midi": 44,
          "time": 331.4996684999959,
          "velocity": 0.7874015748031497,
          "duration": 0.07692299999996521
        },
        {
          "name": "A#2",
          "midi": 46,
          "time": 331.61505299999584,
          "velocity": 0.7874015748031497,
          "duration": 0.07692300000002206
        },
        {
          "name": "E2",
          "midi": 40,
          "time": 331.73043749999584,
          "velocity": 0.7874015748031497,
          "duration": 0.03846149999998261
        },
        {
          "name": "E2",
          "midi": 40,
          "time": 331.78812974999585,
          "velocity": 0.7874015748031497,
          "duration": 0.03846149999998261
        },
        {
          "name": "A#2",
          "midi": 46,
          "time": 331.84582199999585,
          "velocity": 0.7874015748031497,
          "duration": 0.07692300000002206
        },
        {
          "name": "D2",
          "midi": 38,
          "time": 331.84582199999585,
          "velocity": 0.7874015748031497,
          "duration": 0.07692300000002206
        },
        {
          "name": "E2",
          "midi": 40,
          "time": 331.84582199999585,
          "velocity": 0.7874015748031497,
          "duration": 0.07692300000002206
        },
        {
          "name": "C2",
          "midi": 36,
          "time": 331.84582199999585,
          "velocity": 0.7874015748031497,
          "duration": 0.07692300000002206
        },
        {
          "name": "E2",
          "midi": 40,
          "time": 331.96120649999585,
          "velocity": 0.7874015748031497,
          "duration": 0.03846149999998261
        },
        {
          "name": "D2",
          "midi": 38,
          "time": 331.96120649999585,
          "velocity": 0.7874015748031497,
          "duration": 0.03846149999998261
        },
        {
          "name": "C2",
          "midi": 36,
          "time": 331.96120649999585,
          "velocity": 0.7874015748031497,
          "duration": 0.07692299999996521
        },
        {
          "name": "A#2",
          "midi": 46,
          "time": 332.0765909999958,
          "velocity": 0.7874015748031497,
          "duration": 0.07692300000002206
        },
        {
          "name": "E2",
          "midi": 40,
          "time": 332.1919754999958,
          "velocity": 0.7874015748031497,
          "duration": 0.03846149999998261
        },
        {
          "name": "D2",
          "midi": 38,
          "time": 332.1919754999958,
          "velocity": 0.7874015748031497,
          "duration": 0.03846149999998261
        },
        {
          "name": "C2",
          "midi": 36,
          "time": 332.1919754999958,
          "velocity": 0.7874015748031497,
          "duration": 0.07692299999996521
        },
        {
          "name": "C2",
          "midi": 36,
          "time": 332.30735999999575,
          "velocity": 0.7874015748031497,
          "duration": 0.07692300000002206
        },
        {
          "name": "B1",
          "midi": 35,
          "time": 332.30735999999575,
          "velocity": 0.7874015748031497,
          "duration": 0.07692300000002206
        },
        {
          "name": "A3",
          "midi": 57,
          "time": 332.30735999999575,
          "velocity": 0.7874015748031497,
          "duration": 0.07692300000002206
        },
        {
          "name": "A#2",
          "midi": 46,
          "time": 332.30735999999575,
          "velocity": 0.7874015748031497,
          "duration": 0.07692300000002206
        },
        {
          "name": "C2",
          "midi": 36,
          "time": 332.53812899999576,
          "velocity": 0.7874015748031497,
          "duration": 0.07692300000002206
        },
        {
          "name": "B1",
          "midi": 35,
          "time": 332.53812899999576,
          "velocity": 0.7874015748031497,
          "duration": 0.07692300000002206
        },
        {
          "name": "A#2",
          "midi": 46,
          "time": 332.53812899999576,
          "velocity": 0.7874015748031497,
          "duration": 0.07692300000002206
        },
        {
          "name": "D2",
          "midi": 38,
          "time": 332.7688979999958,
          "velocity": 0.7874015748031497,
          "duration": 0.07692300000002206
        },
        {
          "name": "E2",
          "midi": 40,
          "time": 332.7688979999958,
          "velocity": 0.7874015748031497,
          "duration": 0.07692300000002206
        },
        {
          "name": "A3",
          "midi": 57,
          "time": 332.7688979999958,
          "velocity": 0.7874015748031497,
          "duration": 0.07692300000002206
        },
        {
          "name": "A#2",
          "midi": 46,
          "time": 332.7688979999958,
          "velocity": 0.7874015748031497,
          "duration": 0.07692300000002206
        },
        {
          "name": "A#2",
          "midi": 46,
          "time": 332.9996669999958,
          "velocity": 0.7874015748031497,
          "duration": 0.07692300000002206
        },
        {
          "name": "C2",
          "midi": 36,
          "time": 333.1150514999958,
          "velocity": 0.7874015748031497,
          "duration": 0.07692300000002206
        },
        {
          "name": "B1",
          "midi": 35,
          "time": 333.1150514999958,
          "velocity": 0.7874015748031497,
          "duration": 0.07692300000002206
        },
        {
          "name": "E2",
          "midi": 40,
          "time": 333.1150514999958,
          "velocity": 0.7874015748031497,
          "duration": 0.07692300000002206
        },
        {
          "name": "A#2",
          "midi": 46,
          "time": 333.2304359999958,
          "velocity": 0.7874015748031497,
          "duration": 0.07692300000002206
        },
        {
          "name": "G#2",
          "midi": 44,
          "time": 333.3458204999958,
          "velocity": 0.7874015748031497,
          "duration": 0.07692300000002206
        },
        {
          "name": "C2",
          "midi": 36,
          "time": 333.4612049999958,
          "velocity": 0.7874015748031497,
          "duration": 0.07692300000002206
        },
        {
          "name": "B1",
          "midi": 35,
          "time": 333.4612049999958,
          "velocity": 0.7874015748031497,
          "duration": 0.07692300000002206
        },
        {
          "name": "A#2",
          "midi": 46,
          "time": 333.4612049999958,
          "velocity": 0.7874015748031497,
          "duration": 0.07692300000002206
        },
        {
          "name": "D2",
          "midi": 38,
          "time": 333.6919739999958,
          "velocity": 0.7874015748031497,
          "duration": 0.07692300000002206
        },
        {
          "name": "E2",
          "midi": 40,
          "time": 333.6919739999958,
          "velocity": 0.7874015748031497,
          "duration": 0.07692300000002206
        },
        {
          "name": "A3",
          "midi": 57,
          "time": 333.6919739999958,
          "velocity": 0.7874015748031497,
          "duration": 0.07692300000002206
        },
        {
          "name": "A#2",
          "midi": 46,
          "time": 333.6919739999958,
          "velocity": 0.7874015748031497,
          "duration": 0.07692300000002206
        },
        {
          "name": "A#2",
          "midi": 46,
          "time": 333.9227429999958,
          "velocity": 0.7874015748031497,
          "duration": 0.07692300000002206
        },
        {
          "name": "C2",
          "midi": 36,
          "time": 334.0381274999958,
          "velocity": 0.7874015748031497,
          "duration": 0.07692300000002206
        },
        {
          "name": "B1",
          "midi": 35,
          "time": 334.0381274999958,
          "velocity": 0.7874015748031497,
          "duration": 0.07692300000002206
        },
        {
          "name": "C2",
          "midi": 36,
          "time": 334.1535119999958,
          "velocity": 0.7874015748031497,
          "duration": 0.07692300000002206
        },
        {
          "name": "B1",
          "midi": 35,
          "time": 334.1535119999958,
          "velocity": 0.7874015748031497,
          "duration": 0.07692300000002206
        },
        {
          "name": "A3",
          "midi": 57,
          "time": 334.1535119999958,
          "velocity": 0.7874015748031497,
          "duration": 0.07692300000002206
        },
        {
          "name": "A#2",
          "midi": 46,
          "time": 334.1535119999958,
          "velocity": 0.7874015748031497,
          "duration": 0.07692300000002206
        },
        {
          "name": "C2",
          "midi": 36,
          "time": 334.38428099999584,
          "velocity": 0.7874015748031497,
          "duration": 0.07692300000002206
        },
        {
          "name": "B1",
          "midi": 35,
          "time": 334.38428099999584,
          "velocity": 0.7874015748031497,
          "duration": 0.07692300000002206
        },
        {
          "name": "A#2",
          "midi": 46,
          "time": 334.38428099999584,
          "velocity": 0.7874015748031497,
          "duration": 0.07692300000002206
        },
        {
          "name": "D2",
          "midi": 38,
          "time": 334.61504999999585,
          "velocity": 0.7874015748031497,
          "duration": 0.07692300000002206
        },
        {
          "name": "E2",
          "midi": 40,
          "time": 334.61504999999585,
          "velocity": 0.7874015748031497,
          "duration": 0.07692300000002206
        },
        {
          "name": "A3",
          "midi": 57,
          "time": 334.61504999999585,
          "velocity": 0.7874015748031497,
          "duration": 0.07692300000002206
        },
        {
          "name": "A#2",
          "midi": 46,
          "time": 334.61504999999585,
          "velocity": 0.7874015748031497,
          "duration": 0.07692300000002206
        },
        {
          "name": "A#2",
          "midi": 46,
          "time": 334.84581899999586,
          "velocity": 0.7874015748031497,
          "duration": 0.07692300000002206
        },
        {
          "name": "C2",
          "midi": 36,
          "time": 334.96120349999586,
          "velocity": 0.7874015748031497,
          "duration": 0.07692300000002206
        },
        {
          "name": "B1",
          "midi": 35,
          "time": 334.96120349999586,
          "velocity": 0.7874015748031497,
          "duration": 0.07692300000002206
        },
        {
          "name": "E2",
          "midi": 40,
          "time": 334.96120349999586,
          "velocity": 0.7874015748031497,
          "duration": 0.07692300000002206
        },
        {
          "name": "A#2",
          "midi": 46,
          "time": 335.07658799999587,
          "velocity": 0.7874015748031497,
          "duration": 0.07692300000002206
        },
        {
          "name": "G#2",
          "midi": 44,
          "time": 335.19197249999587,
          "velocity": 0.7874015748031497,
          "duration": 0.07692300000002206
        },
        {
          "name": "C2",
          "midi": 36,
          "time": 335.3073569999959,
          "velocity": 0.7874015748031497,
          "duration": 0.07692300000002206
        },
        {
          "name": "B1",
          "midi": 35,
          "time": 335.3073569999959,
          "velocity": 0.7874015748031497,
          "duration": 0.07692300000002206
        },
        {
          "name": "A#2",
          "midi": 46,
          "time": 335.3073569999959,
          "velocity": 0.7874015748031497,
          "duration": 0.07692300000002206
        },
        {
          "name": "D2",
          "midi": 38,
          "time": 335.5381259999959,
          "velocity": 0.7874015748031497,
          "duration": 0.07692300000002206
        },
        {
          "name": "E2",
          "midi": 40,
          "time": 335.5381259999959,
          "velocity": 0.7874015748031497,
          "duration": 0.07692300000002206
        },
        {
          "name": "A3",
          "midi": 57,
          "time": 335.5381259999959,
          "velocity": 0.7874015748031497,
          "duration": 0.07692300000002206
        },
        {
          "name": "A#2",
          "midi": 46,
          "time": 335.5381259999959,
          "velocity": 0.7874015748031497,
          "duration": 0.07692300000002206
        },
        {
          "name": "A#2",
          "midi": 46,
          "time": 335.7688949999959,
          "velocity": 0.7874015748031497,
          "duration": 0.07692300000002206
        },
        {
          "name": "C2",
          "midi": 36,
          "time": 335.8842794999959,
          "velocity": 0.7874015748031497,
          "duration": 0.07692300000002206
        },
        {
          "name": "B1",
          "midi": 35,
          "time": 335.8842794999959,
          "velocity": 0.7874015748031497,
          "duration": 0.07692300000002206
        },
        {
          "name": "C2",
          "midi": 36,
          "time": 335.9996639999959,
          "velocity": 0.7874015748031497,
          "duration": 0.07692300000002206
        },
        {
          "name": "B1",
          "midi": 35,
          "time": 335.9996639999959,
          "velocity": 0.7874015748031497,
          "duration": 0.07692300000002206
        },
        {
          "name": "A3",
          "midi": 57,
          "time": 335.9996639999959,
          "velocity": 0.7874015748031497,
          "duration": 0.07692300000002206
        },
        {
          "name": "A#2",
          "midi": 46,
          "time": 335.9996639999959,
          "velocity": 0.7874015748031497,
          "duration": 0.07692300000002206
        },
        {
          "name": "C2",
          "midi": 36,
          "time": 336.2304329999959,
          "velocity": 0.7874015748031497,
          "duration": 0.07692300000002206
        },
        {
          "name": "B1",
          "midi": 35,
          "time": 336.2304329999959,
          "velocity": 0.7874015748031497,
          "duration": 0.07692300000002206
        },
        {
          "name": "A#2",
          "midi": 46,
          "time": 336.2304329999959,
          "velocity": 0.7874015748031497,
          "duration": 0.07692300000002206
        },
        {
          "name": "D2",
          "midi": 38,
          "time": 336.4612019999959,
          "velocity": 0.7874015748031497,
          "duration": 0.07692300000002206
        },
        {
          "name": "E2",
          "midi": 40,
          "time": 336.4612019999959,
          "velocity": 0.7874015748031497,
          "duration": 0.07692300000002206
        },
        {
          "name": "A3",
          "midi": 57,
          "time": 336.4612019999959,
          "velocity": 0.7874015748031497,
          "duration": 0.07692300000002206
        },
        {
          "name": "A#2",
          "midi": 46,
          "time": 336.4612019999959,
          "velocity": 0.7874015748031497,
          "duration": 0.07692300000002206
        },
        {
          "name": "A#2",
          "midi": 46,
          "time": 336.69197099999593,
          "velocity": 0.7874015748031497,
          "duration": 0.07692300000002206
        },
        {
          "name": "C2",
          "midi": 36,
          "time": 336.80735549999594,
          "velocity": 0.7874015748031497,
          "duration": 0.07692300000002206
        },
        {
          "name": "B1",
          "midi": 35,
          "time": 336.80735549999594,
          "velocity": 0.7874015748031497,
          "duration": 0.07692300000002206
        },
        {
          "name": "E2",
          "midi": 40,
          "time": 336.80735549999594,
          "velocity": 0.7874015748031497,
          "duration": 0.07692300000002206
        },
        {
          "name": "A#2",
          "midi": 46,
          "time": 336.92273999999594,
          "velocity": 0.7874015748031497,
          "duration": 0.07692300000002206
        },
        {
          "name": "G#2",
          "midi": 44,
          "time": 337.03812449999594,
          "velocity": 0.7874015748031497,
          "duration": 0.07692300000002206
        },
        {
          "name": "C2",
          "midi": 36,
          "time": 337.15350899999595,
          "velocity": 0.7874015748031497,
          "duration": 0.07692300000002206
        },
        {
          "name": "B1",
          "midi": 35,
          "time": 337.15350899999595,
          "velocity": 0.7874015748031497,
          "duration": 0.07692300000002206
        },
        {
          "name": "A#2",
          "midi": 46,
          "time": 337.15350899999595,
          "velocity": 0.7874015748031497,
          "duration": 0.07692300000002206
        },
        {
          "name": "D2",
          "midi": 38,
          "time": 337.38427799999596,
          "velocity": 0.7874015748031497,
          "duration": 0.07692300000002206
        },
        {
          "name": "E2",
          "midi": 40,
          "time": 337.38427799999596,
          "velocity": 0.7874015748031497,
          "duration": 0.07692300000002206
        },
        {
          "name": "A3",
          "midi": 57,
          "time": 337.38427799999596,
          "velocity": 0.7874015748031497,
          "duration": 0.07692300000002206
        },
        {
          "name": "A#2",
          "midi": 46,
          "time": 337.38427799999596,
          "velocity": 0.7874015748031497,
          "duration": 0.07692300000002206
        },
        {
          "name": "A#2",
          "midi": 46,
          "time": 337.61504699999597,
          "velocity": 0.7874015748031497,
          "duration": 0.07692300000002206
        },
        {
          "name": "C2",
          "midi": 36,
          "time": 337.730431499996,
          "velocity": 0.7874015748031497,
          "duration": 0.07692300000002206
        },
        {
          "name": "B1",
          "midi": 35,
          "time": 337.730431499996,
          "velocity": 0.7874015748031497,
          "duration": 0.07692300000002206
        },
        {
          "name": "C2",
          "midi": 36,
          "time": 337.845815999996,
          "velocity": 0.7874015748031497,
          "duration": 0.07692300000002206
        },
        {
          "name": "B1",
          "midi": 35,
          "time": 337.845815999996,
          "velocity": 0.7874015748031497,
          "duration": 0.07692300000002206
        },
        {
          "name": "A3",
          "midi": 57,
          "time": 337.845815999996,
          "velocity": 0.7874015748031497,
          "duration": 0.07692300000002206
        },
        {
          "name": "A#2",
          "midi": 46,
          "time": 337.845815999996,
          "velocity": 0.7874015748031497,
          "duration": 0.07692300000002206
        },
        {
          "name": "C2",
          "midi": 36,
          "time": 338.076584999996,
          "velocity": 0.7874015748031497,
          "duration": 0.07692300000002206
        },
        {
          "name": "B1",
          "midi": 35,
          "time": 338.076584999996,
          "velocity": 0.7874015748031497,
          "duration": 0.07692300000002206
        },
        {
          "name": "A#2",
          "midi": 46,
          "time": 338.076584999996,
          "velocity": 0.7874015748031497,
          "duration": 0.07692300000002206
        },
        {
          "name": "D2",
          "midi": 38,
          "time": 338.307353999996,
          "velocity": 0.7874015748031497,
          "duration": 0.07692300000002206
        },
        {
          "name": "E2",
          "midi": 40,
          "time": 338.307353999996,
          "velocity": 0.7874015748031497,
          "duration": 0.07692300000002206
        },
        {
          "name": "A3",
          "midi": 57,
          "time": 338.307353999996,
          "velocity": 0.7874015748031497,
          "duration": 0.07692300000002206
        },
        {
          "name": "A#2",
          "midi": 46,
          "time": 338.307353999996,
          "velocity": 0.7874015748031497,
          "duration": 0.07692300000002206
        },
        {
          "name": "A#2",
          "midi": 46,
          "time": 338.538122999996,
          "velocity": 0.7874015748031497,
          "duration": 0.07692300000002206
        },
        {
          "name": "C2",
          "midi": 36,
          "time": 338.653507499996,
          "velocity": 0.7874015748031497,
          "duration": 0.07692300000002206
        },
        {
          "name": "B1",
          "midi": 35,
          "time": 338.653507499996,
          "velocity": 0.7874015748031497,
          "duration": 0.07692300000002206
        },
        {
          "name": "E2",
          "midi": 40,
          "time": 338.653507499996,
          "velocity": 0.7874015748031497,
          "duration": 0.07692300000002206
        },
        {
          "name": "A#2",
          "midi": 46,
          "time": 338.768891999996,
          "velocity": 0.7874015748031497,
          "duration": 0.07692300000002206
        },
        {
          "name": "G#2",
          "midi": 44,
          "time": 338.884276499996,
          "velocity": 0.7874015748031497,
          "duration": 0.07692300000002206
        },
        {
          "name": "C2",
          "midi": 36,
          "time": 338.999660999996,
          "velocity": 0.7874015748031497,
          "duration": 0.07692300000002206
        },
        {
          "name": "B1",
          "midi": 35,
          "time": 338.999660999996,
          "velocity": 0.7874015748031497,
          "duration": 0.07692300000002206
        },
        {
          "name": "A#2",
          "midi": 46,
          "time": 338.999660999996,
          "velocity": 0.7874015748031497,
          "duration": 0.07692300000002206
        },
        {
          "name": "D2",
          "midi": 38,
          "time": 339.23042999999603,
          "velocity": 0.7874015748031497,
          "duration": 0.07692300000002206
        },
        {
          "name": "E2",
          "midi": 40,
          "time": 339.23042999999603,
          "velocity": 0.7874015748031497,
          "duration": 0.07692300000002206
        },
        {
          "name": "A3",
          "midi": 57,
          "time": 339.23042999999603,
          "velocity": 0.7874015748031497,
          "duration": 0.07692300000002206
        },
        {
          "name": "A#2",
          "midi": 46,
          "time": 339.23042999999603,
          "velocity": 0.7874015748031497,
          "duration": 0.07692300000002206
        },
        {
          "name": "A#2",
          "midi": 46,
          "time": 339.46119899999604,
          "velocity": 0.7874015748031497,
          "duration": 0.07692300000002206
        },
        {
          "name": "A3",
          "midi": 57,
          "time": 339.46119899999604,
          "velocity": 0.7874015748031497,
          "duration": 0.07692300000002206
        },
        {
          "name": "C2",
          "midi": 36,
          "time": 339.57658349999605,
          "velocity": 0.7874015748031497,
          "duration": 0.07692300000002206
        },
        {
          "name": "B1",
          "midi": 35,
          "time": 339.57658349999605,
          "velocity": 0.7874015748031497,
          "duration": 0.07692300000002206
        },
        {
          "name": "C2",
          "midi": 36,
          "time": 339.69196799999605,
          "velocity": 0.7874015748031497,
          "duration": 0.07692300000002206
        },
        {
          "name": "B1",
          "midi": 35,
          "time": 339.69196799999605,
          "velocity": 0.7874015748031497,
          "duration": 0.07692300000002206
        },
        {
          "name": "A3",
          "midi": 57,
          "time": 339.69196799999605,
          "velocity": 0.7874015748031497,
          "duration": 0.07692300000002206
        },
        {
          "name": "A#2",
          "midi": 46,
          "time": 339.69196799999605,
          "velocity": 0.7874015748031497,
          "duration": 0.07692300000002206
        },
        {
          "name": "C2",
          "midi": 36,
          "time": 339.92273699999606,
          "velocity": 0.7874015748031497,
          "duration": 0.07692300000002206
        },
        {
          "name": "B1",
          "midi": 35,
          "time": 339.92273699999606,
          "velocity": 0.7874015748031497,
          "duration": 0.07692300000002206
        },
        {
          "name": "A#2",
          "midi": 46,
          "time": 339.92273699999606,
          "velocity": 0.7874015748031497,
          "duration": 0.07692300000002206
        },
        {
          "name": "D2",
          "midi": 38,
          "time": 340.15350599999607,
          "velocity": 0.7874015748031497,
          "duration": 0.07692300000002206
        },
        {
          "name": "E2",
          "midi": 40,
          "time": 340.15350599999607,
          "velocity": 0.7874015748031497,
          "duration": 0.07692300000002206
        },
        {
          "name": "A3",
          "midi": 57,
          "time": 340.15350599999607,
          "velocity": 0.7874015748031497,
          "duration": 0.07692300000002206
        },
        {
          "name": "A#2",
          "midi": 46,
          "time": 340.15350599999607,
          "velocity": 0.7874015748031497,
          "duration": 0.07692300000002206
        },
        {
          "name": "A#2",
          "midi": 46,
          "time": 340.3842749999961,
          "velocity": 0.7874015748031497,
          "duration": 0.07692300000002206
        },
        {
          "name": "C2",
          "midi": 36,
          "time": 340.4996594999961,
          "velocity": 0.7874015748031497,
          "duration": 0.07692300000002206
        },
        {
          "name": "B1",
          "midi": 35,
          "time": 340.4996594999961,
          "velocity": 0.7874015748031497,
          "duration": 0.07692300000002206
        },
        {
          "name": "E2",
          "midi": 40,
          "time": 340.4996594999961,
          "velocity": 0.7874015748031497,
          "duration": 0.07692300000002206
        },
        {
          "name": "A#2",
          "midi": 46,
          "time": 340.6150439999961,
          "velocity": 0.7874015748031497,
          "duration": 0.07692300000002206
        },
        {
          "name": "G#2",
          "midi": 44,
          "time": 340.7304284999961,
          "velocity": 0.7874015748031497,
          "duration": 0.07692300000002206
        },
        {
          "name": "C2",
          "midi": 36,
          "time": 340.8458129999961,
          "velocity": 0.7874015748031497,
          "duration": 0.07692300000002206
        },
        {
          "name": "B1",
          "midi": 35,
          "time": 340.8458129999961,
          "velocity": 0.7874015748031497,
          "duration": 0.07692300000002206
        },
        {
          "name": "A#2",
          "midi": 46,
          "time": 340.8458129999961,
          "velocity": 0.7874015748031497,
          "duration": 0.07692300000002206
        },
        {
          "name": "D2",
          "midi": 38,
          "time": 341.0765819999961,
          "velocity": 0.7874015748031497,
          "duration": 0.07692300000002206
        },
        {
          "name": "E2",
          "midi": 40,
          "time": 341.0765819999961,
          "velocity": 0.7874015748031497,
          "duration": 0.07692300000002206
        },
        {
          "name": "A3",
          "midi": 57,
          "time": 341.0765819999961,
          "velocity": 0.7874015748031497,
          "duration": 0.07692300000002206
        },
        {
          "name": "A#2",
          "midi": 46,
          "time": 341.0765819999961,
          "velocity": 0.7874015748031497,
          "duration": 0.07692300000002206
        },
        {
          "name": "A#2",
          "midi": 46,
          "time": 341.3073509999961,
          "velocity": 0.7874015748031497,
          "duration": 0.07692300000002206
        },
        {
          "name": "C2",
          "midi": 36,
          "time": 341.4227354999961,
          "velocity": 0.7874015748031497,
          "duration": 0.07692300000002206
        },
        {
          "name": "B1",
          "midi": 35,
          "time": 341.4227354999961,
          "velocity": 0.7874015748031497,
          "duration": 0.07692300000002206
        },
        {
          "name": "C2",
          "midi": 36,
          "time": 341.5381199999961,
          "velocity": 0.7874015748031497,
          "duration": 0.07692300000002206
        },
        {
          "name": "B1",
          "midi": 35,
          "time": 341.5381199999961,
          "velocity": 0.7874015748031497,
          "duration": 0.07692300000002206
        },
        {
          "name": "A3",
          "midi": 57,
          "time": 341.5381199999961,
          "velocity": 0.7874015748031497,
          "duration": 0.07692300000002206
        },
        {
          "name": "A#2",
          "midi": 46,
          "time": 341.5381199999961,
          "velocity": 0.7874015748031497,
          "duration": 0.07692300000002206
        },
        {
          "name": "C2",
          "midi": 36,
          "time": 341.76888899999614,
          "velocity": 0.7874015748031497,
          "duration": 0.07692300000002206
        },
        {
          "name": "B1",
          "midi": 35,
          "time": 341.76888899999614,
          "velocity": 0.7874015748031497,
          "duration": 0.07692300000002206
        },
        {
          "name": "A#2",
          "midi": 46,
          "time": 341.76888899999614,
          "velocity": 0.7874015748031497,
          "duration": 0.07692300000002206
        },
        {
          "name": "D2",
          "midi": 38,
          "time": 341.99965799999615,
          "velocity": 0.7874015748031497,
          "duration": 0.07692300000002206
        },
        {
          "name": "E2",
          "midi": 40,
          "time": 341.99965799999615,
          "velocity": 0.7874015748031497,
          "duration": 0.07692300000002206
        },
        {
          "name": "A3",
          "midi": 57,
          "time": 341.99965799999615,
          "velocity": 0.7874015748031497,
          "duration": 0.07692300000002206
        },
        {
          "name": "A#2",
          "midi": 46,
          "time": 341.99965799999615,
          "velocity": 0.7874015748031497,
          "duration": 0.07692300000002206
        },
        {
          "name": "A#2",
          "midi": 46,
          "time": 342.23042699999615,
          "velocity": 0.7874015748031497,
          "duration": 0.07692300000002206
        },
        {
          "name": "C2",
          "midi": 36,
          "time": 342.34581149999616,
          "velocity": 0.7874015748031497,
          "duration": 0.07692300000002206
        },
        {
          "name": "B1",
          "midi": 35,
          "time": 342.34581149999616,
          "velocity": 0.7874015748031497,
          "duration": 0.07692300000002206
        },
        {
          "name": "E2",
          "midi": 40,
          "time": 342.34581149999616,
          "velocity": 0.7874015748031497,
          "duration": 0.07692300000002206
        },
        {
          "name": "A#2",
          "midi": 46,
          "time": 342.46119599999616,
          "velocity": 0.7874015748031497,
          "duration": 0.07692300000002206
        },
        {
          "name": "G#2",
          "midi": 44,
          "time": 342.57658049999617,
          "velocity": 0.7874015748031497,
          "duration": 0.07692300000002206
        },
        {
          "name": "C2",
          "midi": 36,
          "time": 342.6919649999962,
          "velocity": 0.7874015748031497,
          "duration": 0.07692300000002206
        },
        {
          "name": "B1",
          "midi": 35,
          "time": 342.6919649999962,
          "velocity": 0.7874015748031497,
          "duration": 0.07692300000002206
        },
        {
          "name": "A#2",
          "midi": 46,
          "time": 342.6919649999962,
          "velocity": 0.7874015748031497,
          "duration": 0.07692300000002206
        },
        {
          "name": "D2",
          "midi": 38,
          "time": 342.9227339999962,
          "velocity": 0.7874015748031497,
          "duration": 0.07692300000002206
        },
        {
          "name": "E2",
          "midi": 40,
          "time": 342.9227339999962,
          "velocity": 0.7874015748031497,
          "duration": 0.07692300000002206
        },
        {
          "name": "A3",
          "midi": 57,
          "time": 342.9227339999962,
          "velocity": 0.7874015748031497,
          "duration": 0.07692300000002206
        },
        {
          "name": "A#2",
          "midi": 46,
          "time": 342.9227339999962,
          "velocity": 0.7874015748031497,
          "duration": 0.07692300000002206
        },
        {
          "name": "A#2",
          "midi": 46,
          "time": 343.1535029999962,
          "velocity": 0.7874015748031497,
          "duration": 0.07692300000002206
        },
        {
          "name": "C2",
          "midi": 36,
          "time": 343.2688874999962,
          "velocity": 0.7874015748031497,
          "duration": 0.07692300000002206
        },
        {
          "name": "B1",
          "midi": 35,
          "time": 343.2688874999962,
          "velocity": 0.7874015748031497,
          "duration": 0.07692300000002206
        },
        {
          "name": "C2",
          "midi": 36,
          "time": 343.3842719999962,
          "velocity": 0.7874015748031497,
          "duration": 0.07692300000002206
        },
        {
          "name": "B1",
          "midi": 35,
          "time": 343.3842719999962,
          "velocity": 0.7874015748031497,
          "duration": 0.07692300000002206
        },
        {
          "name": "A3",
          "midi": 57,
          "time": 343.3842719999962,
          "velocity": 0.7874015748031497,
          "duration": 0.07692300000002206
        },
        {
          "name": "A#2",
          "midi": 46,
          "time": 343.3842719999962,
          "velocity": 0.7874015748031497,
          "duration": 0.07692300000002206
        },
        {
          "name": "C2",
          "midi": 36,
          "time": 343.6150409999962,
          "velocity": 0.7874015748031497,
          "duration": 0.07692300000002206
        },
        {
          "name": "B1",
          "midi": 35,
          "time": 343.6150409999962,
          "velocity": 0.7874015748031497,
          "duration": 0.07692300000002206
        },
        {
          "name": "A#2",
          "midi": 46,
          "time": 343.6150409999962,
          "velocity": 0.7874015748031497,
          "duration": 0.07692300000002206
        },
        {
          "name": "D2",
          "midi": 38,
          "time": 343.8458099999962,
          "velocity": 0.7874015748031497,
          "duration": 0.07692300000002206
        },
        {
          "name": "E2",
          "midi": 40,
          "time": 343.8458099999962,
          "velocity": 0.7874015748031497,
          "duration": 0.07692300000002206
        },
        {
          "name": "A3",
          "midi": 57,
          "time": 343.8458099999962,
          "velocity": 0.7874015748031497,
          "duration": 0.07692300000002206
        },
        {
          "name": "A#2",
          "midi": 46,
          "time": 343.8458099999962,
          "velocity": 0.7874015748031497,
          "duration": 0.07692300000002206
        },
        {
          "name": "A#2",
          "midi": 46,
          "time": 344.07657899999623,
          "velocity": 0.7874015748031497,
          "duration": 0.07692300000002206
        },
        {
          "name": "C2",
          "midi": 36,
          "time": 344.19196349999623,
          "velocity": 0.7874015748031497,
          "duration": 0.07692300000002206
        },
        {
          "name": "B1",
          "midi": 35,
          "time": 344.19196349999623,
          "velocity": 0.7874015748031497,
          "duration": 0.07692300000002206
        },
        {
          "name": "E2",
          "midi": 40,
          "time": 344.19196349999623,
          "velocity": 0.7874015748031497,
          "duration": 0.07692300000002206
        },
        {
          "name": "A#2",
          "midi": 46,
          "time": 344.30734799999624,
          "velocity": 0.7874015748031497,
          "duration": 0.07692300000002206
        },
        {
          "name": "G#2",
          "midi": 44,
          "time": 344.42273249999624,
          "velocity": 0.7874015748031497,
          "duration": 0.07692300000002206
        },
        {
          "name": "C2",
          "midi": 36,
          "time": 344.53811699999625,
          "velocity": 0.7874015748031497,
          "duration": 0.07692300000002206
        },
        {
          "name": "B1",
          "midi": 35,
          "time": 344.53811699999625,
          "velocity": 0.7874015748031497,
          "duration": 0.07692300000002206
        },
        {
          "name": "A#2",
          "midi": 46,
          "time": 344.53811699999625,
          "velocity": 0.7874015748031497,
          "duration": 0.07692300000002206
        },
        {
          "name": "D2",
          "midi": 38,
          "time": 344.76888599999626,
          "velocity": 0.7874015748031497,
          "duration": 0.07692300000002206
        },
        {
          "name": "E2",
          "midi": 40,
          "time": 344.76888599999626,
          "velocity": 0.7874015748031497,
          "duration": 0.07692300000002206
        },
        {
          "name": "A3",
          "midi": 57,
          "time": 344.76888599999626,
          "velocity": 0.7874015748031497,
          "duration": 0.07692300000002206
        },
        {
          "name": "A#2",
          "midi": 46,
          "time": 344.76888599999626,
          "velocity": 0.7874015748031497,
          "duration": 0.07692300000002206
        },
        {
          "name": "A#2",
          "midi": 46,
          "time": 344.99965499999627,
          "velocity": 0.7874015748031497,
          "duration": 0.07692300000002206
        },
        {
          "name": "C2",
          "midi": 36,
          "time": 345.11503949999627,
          "velocity": 0.7874015748031497,
          "duration": 0.07692300000002206
        },
        {
          "name": "B1",
          "midi": 35,
          "time": 345.11503949999627,
          "velocity": 0.7874015748031497,
          "duration": 0.07692300000002206
        },
        {
          "name": "C2",
          "midi": 36,
          "time": 345.2304239999963,
          "velocity": 0.7874015748031497,
          "duration": 0.07692300000002206
        },
        {
          "name": "B1",
          "midi": 35,
          "time": 345.2304239999963,
          "velocity": 0.7874015748031497,
          "duration": 0.07692300000002206
        },
        {
          "name": "A3",
          "midi": 57,
          "time": 345.2304239999963,
          "velocity": 0.7874015748031497,
          "duration": 0.07692300000002206
        },
        {
          "name": "A#2",
          "midi": 46,
          "time": 345.2304239999963,
          "velocity": 0.7874015748031497,
          "duration": 0.07692300000002206
        },
        {
          "name": "C2",
          "midi": 36,
          "time": 345.4611929999963,
          "velocity": 0.7874015748031497,
          "duration": 0.07692300000002206
        },
        {
          "name": "B1",
          "midi": 35,
          "time": 345.4611929999963,
          "velocity": 0.7874015748031497,
          "duration": 0.07692300000002206
        },
        {
          "name": "A#2",
          "midi": 46,
          "time": 345.4611929999963,
          "velocity": 0.7874015748031497,
          "duration": 0.07692300000002206
        },
        {
          "name": "D2",
          "midi": 38,
          "time": 345.6919619999963,
          "velocity": 0.7874015748031497,
          "duration": 0.07692300000002206
        },
        {
          "name": "E2",
          "midi": 40,
          "time": 345.6919619999963,
          "velocity": 0.7874015748031497,
          "duration": 0.07692300000002206
        },
        {
          "name": "A3",
          "midi": 57,
          "time": 345.6919619999963,
          "velocity": 0.7874015748031497,
          "duration": 0.07692300000002206
        },
        {
          "name": "A#2",
          "midi": 46,
          "time": 345.6919619999963,
          "velocity": 0.7874015748031497,
          "duration": 0.07692300000002206
        },
        {
          "name": "A#2",
          "midi": 46,
          "time": 345.9227309999963,
          "velocity": 0.7874015748031497,
          "duration": 0.07692300000002206
        },
        {
          "name": "A#2",
          "midi": 46,
          "time": 346.1534999999963,
          "velocity": 0.7874015748031497,
          "duration": 0.07692299999996521
        },
        {
          "name": "E2",
          "midi": 40,
          "time": 346.1534999999963,
          "velocity": 0.7874015748031497,
          "duration": 0.03846149999998261
        },
        {
          "name": "D2",
          "midi": 38,
          "time": 346.1534999999963,
          "velocity": 0.7874015748031497,
          "duration": 0.03846149999998261
        },
        {
          "name": "C2",
          "midi": 36,
          "time": 346.1534999999963,
          "velocity": 0.7874015748031497,
          "duration": 0.07692299999996521
        },
        {
          "name": "E2",
          "midi": 40,
          "time": 346.26888449999626,
          "velocity": 0.7874015748031497,
          "duration": 0.03846149999998261
        },
        {
          "name": "D2",
          "midi": 38,
          "time": 346.26888449999626,
          "velocity": 0.7874015748031497,
          "duration": 0.03846149999998261
        },
        {
          "name": "C2",
          "midi": 36,
          "time": 346.26888449999626,
          "velocity": 0.7874015748031497,
          "duration": 0.07692299999996521
        },
        {
          "name": "G#2",
          "midi": 44,
          "time": 346.26888449999626,
          "velocity": 0.7874015748031497,
          "duration": 0.07692299999996521
        },
        {
          "name": "A#2",
          "midi": 46,
          "time": 346.3842689999962,
          "velocity": 0.7874015748031497,
          "duration": 0.07692300000002206
        },
        {
          "name": "E2",
          "midi": 40,
          "time": 346.4996534999962,
          "velocity": 0.7874015748031497,
          "duration": 0.03846149999998261
        },
        {
          "name": "E2",
          "midi": 40,
          "time": 346.5573457499962,
          "velocity": 0.7874015748031497,
          "duration": 0.03846149999998261
        },
        {
          "name": "A#2",
          "midi": 46,
          "time": 346.6150379999962,
          "velocity": 0.7874015748031497,
          "duration": 0.07692300000002206
        },
        {
          "name": "D2",
          "midi": 38,
          "time": 346.6150379999962,
          "velocity": 0.7874015748031497,
          "duration": 0.07692300000002206
        },
        {
          "name": "E2",
          "midi": 40,
          "time": 346.6150379999962,
          "velocity": 0.7874015748031497,
          "duration": 0.07692300000002206
        },
        {
          "name": "C2",
          "midi": 36,
          "time": 346.6150379999962,
          "velocity": 0.7874015748031497,
          "duration": 0.07692300000002206
        },
        {
          "name": "E2",
          "midi": 40,
          "time": 346.7304224999962,
          "velocity": 0.7874015748031497,
          "duration": 0.03846149999998261
        },
        {
          "name": "D2",
          "midi": 38,
          "time": 346.7304224999962,
          "velocity": 0.7874015748031497,
          "duration": 0.03846149999998261
        },
        {
          "name": "C2",
          "midi": 36,
          "time": 346.7304224999962,
          "velocity": 0.7874015748031497,
          "duration": 0.07692299999996521
        },
        {
          "name": "A#2",
          "midi": 46,
          "time": 346.84580699999617,
          "velocity": 0.7874015748031497,
          "duration": 0.07692300000002206
        },
        {
          "name": "E2",
          "midi": 40,
          "time": 346.9611914999962,
          "velocity": 0.7874015748031497,
          "duration": 0.03846149999998261
        },
        {
          "name": "D2",
          "midi": 38,
          "time": 346.9611914999962,
          "velocity": 0.7874015748031497,
          "duration": 0.03846149999998261
        },
        {
          "name": "C2",
          "midi": 36,
          "time": 346.9611914999962,
          "velocity": 0.7874015748031497,
          "duration": 0.07692299999996521
        },
        {
          "name": "C2",
          "midi": 36,
          "time": 347.0765759999961,
          "velocity": 0.7874015748031497,
          "duration": 0.07692300000002206
        },
        {
          "name": "B1",
          "midi": 35,
          "time": 347.0765759999961,
          "velocity": 0.7874015748031497,
          "duration": 0.07692300000002206
        },
        {
          "name": "A#3",
          "midi": 58,
          "time": 347.0765759999961,
          "velocity": 0.7874015748031497,
          "duration": 0.07692300000002206
        },
        {
          "name": "A#2",
          "midi": 46,
          "time": 347.0765759999961,
          "velocity": 0.7874015748031497,
          "duration": 0.07692300000002206
        },
        {
          "name": "C2",
          "midi": 36,
          "time": 347.53811399999614,
          "velocity": 0.7874015748031497,
          "duration": 0.07692300000002206
        },
        {
          "name": "B1",
          "midi": 35,
          "time": 347.53811399999614,
          "velocity": 0.7874015748031497,
          "duration": 0.07692300000002206
        },
        {
          "name": "G#3",
          "midi": 56,
          "time": 347.53811399999614,
          "velocity": 0.7874015748031497,
          "duration": 0.07692300000002206
        },
        {
          "name": "A#2",
          "midi": 46,
          "time": 347.53811399999614,
          "velocity": 0.7874015748031497,
          "duration": 0.07692300000002206
        },
        {
          "name": "E2",
          "midi": 40,
          "time": 347.99965199999616,
          "velocity": 0.7874015748031497,
          "duration": 0.07692300000002206
        },
        {
          "name": "D2",
          "midi": 38,
          "time": 347.99965199999616,
          "velocity": 0.7874015748031497,
          "duration": 0.07692300000002206
        },
        {
          "name": "A3",
          "midi": 57,
          "time": 347.99965199999616,
          "velocity": 0.7874015748031497,
          "duration": 0.07692300000002206
        },
        {
          "name": "A#2",
          "midi": 46,
          "time": 347.99965199999616,
          "velocity": 0.7874015748031497,
          "duration": 0.07692300000002206
        },
        {
          "name": "C2",
          "midi": 36,
          "time": 348.4611899999962,
          "velocity": 0.7874015748031497,
          "duration": 0.10096143750001829
        },
        {
          "name": "B1",
          "midi": 35,
          "time": 348.4611899999962,
          "velocity": 0.7874015748031497,
          "duration": 0.10096143750001829
        },
        {
          "name": "F#3",
          "midi": 54,
          "time": 348.4611899999962,
          "velocity": 0.7874015748031497,
          "duration": 0.07692300000002206
        },
        {
          "name": "A#2",
          "midi": 46,
          "time": 348.4611899999962,
          "velocity": 0.7874015748031497,
          "duration": 0.07692300000002206
        },
        {
          "name": "E2",
          "midi": 40,
          "time": 348.7688819999962,
          "velocity": 0.7874015748031497,
          "duration": 0.10096143750001829
        },
        {
          "name": "D2",
          "midi": 38,
          "time": 348.7688819999962,
          "velocity": 0.7874015748031497,
          "duration": 0.10096143750001829
        },
        {
          "name": "C2",
          "midi": 36,
          "time": 348.92272799999625,
          "velocity": 0.7874015748031497,
          "duration": 0.10096143750001829
        },
        {
          "name": "A#3",
          "midi": 58,
          "time": 348.92272799999625,
          "velocity": 0.7874015748031497,
          "duration": 0.07692300000002206
        },
        {
          "name": "A#2",
          "midi": 46,
          "time": 348.92272799999625,
          "velocity": 0.7874015748031497,
          "duration": 0.07692300000002206
        },
        {
          "name": "D2",
          "midi": 38,
          "time": 349.2304199999963,
          "velocity": 0.7874015748031497,
          "duration": 0.10096143750001829
        },
        {
          "name": "C2",
          "midi": 36,
          "time": 349.38426599999633,
          "velocity": 0.7874015748031497,
          "duration": 0.07692300000002206
        },
        {
          "name": "B1",
          "midi": 35,
          "time": 349.38426599999633,
          "velocity": 0.7874015748031497,
          "duration": 0.07692300000002206
        },
        {
          "name": "G#3",
          "midi": 56,
          "time": 349.38426599999633,
          "velocity": 0.7874015748031497,
          "duration": 0.07692300000002206
        },
        {
          "name": "A#2",
          "midi": 46,
          "time": 349.38426599999633,
          "velocity": 0.7874015748031497,
          "duration": 0.07692300000002206
        },
        {
          "name": "D2",
          "midi": 38,
          "time": 349.84580399999635,
          "velocity": 0.7874015748031497,
          "duration": 0.07692300000002206
        },
        {
          "name": "E2",
          "midi": 40,
          "time": 349.84580399999635,
          "velocity": 0.7874015748031497,
          "duration": 0.07692300000002206
        },
        {
          "name": "F#3",
          "midi": 54,
          "time": 349.84580399999635,
          "velocity": 0.7874015748031497,
          "duration": 0.07692300000002206
        },
        {
          "name": "A#2",
          "midi": 46,
          "time": 349.84580399999635,
          "velocity": 0.7874015748031497,
          "duration": 0.07692300000002206
        },
        {
          "name": "C2",
          "midi": 36,
          "time": 350.30734199999637,
          "velocity": 0.7874015748031497,
          "duration": 0.10096143750001829
        },
        {
          "name": "A#3",
          "midi": 58,
          "time": 350.30734199999637,
          "velocity": 0.7874015748031497,
          "duration": 0.07692300000002206
        },
        {
          "name": "A#2",
          "midi": 46,
          "time": 350.30734199999637,
          "velocity": 0.7874015748031497,
          "duration": 0.07692300000002206
        },
        {
          "name": "D2",
          "midi": 38,
          "time": 350.6150339999964,
          "velocity": 0.7874015748031497,
          "duration": 0.10096143750001829
        },
        {
          "name": "C2",
          "midi": 36,
          "time": 350.76887999999644,
          "velocity": 0.7874015748031497,
          "duration": 0.07692300000002206
        },
        {
          "name": "B1",
          "midi": 35,
          "time": 350.76887999999644,
          "velocity": 0.7874015748031497,
          "duration": 0.07692300000002206
        },
        {
          "name": "A#2",
          "midi": 46,
          "time": 350.76887999999644,
          "velocity": 0.7874015748031497,
          "duration": 0.07692300000002206
        },
        {
          "name": "B1",
          "midi": 35,
          "time": 351.23041799999646,
          "velocity": 0.7874015748031497,
          "duration": 0.07692300000002206
        },
        {
          "name": "C2",
          "midi": 36,
          "time": 351.23041799999646,
          "velocity": 0.7874015748031497,
          "duration": 0.07692300000002206
        },
        {
          "name": "A#2",
          "midi": 46,
          "time": 351.23041799999646,
          "velocity": 0.7874015748031497,
          "duration": 0.07692300000002206
        },
        {
          "name": "E2",
          "midi": 40,
          "time": 351.6919559999965,
          "velocity": 0.7874015748031497,
          "duration": 0.07692299999996521
        },
        {
          "name": "D2",
          "midi": 38,
          "time": 351.6919559999965,
          "velocity": 0.7874015748031497,
          "duration": 0.07692299999996521
        },
        {
          "name": "C#4",
          "midi": 61,
          "time": 351.6919559999965,
          "velocity": 0.7874015748031497,
          "duration": 0.07692299999996521
        },
        {
          "name": "A#3",
          "midi": 58,
          "time": 351.6919559999965,
          "velocity": 0.7874015748031497,
          "duration": 0.07692299999996521
        },
        {
          "name": "G#2",
          "midi": 44,
          "time": 351.6919559999965,
          "velocity": 1,
          "duration": 0.02596151249997547
        }
      ],
      "controlChanges": {
        "7": [
          {
            "number": 7,
            "time": 0,
            "value": 1
          }
        ],
        "10": [
          {
            "number": 10,
            "time": 0,
            "value": 0.5118110236220472
          }
        ]
      },
      "instrument": ""
    }
  ]
}